G04 #@! TF.GenerationSoftware,KiCad,Pcbnew,(5.1.2)-2*
G04 #@! TF.CreationDate,2021-09-18T22:48:39+02:00*
G04 #@! TF.ProjectId,aZ80_Clock,615a3830-5f43-46c6-9f63-6b2e6b696361,rev?*
G04 #@! TF.SameCoordinates,Original*
G04 #@! TF.FileFunction,Soldermask,Bot*
G04 #@! TF.FilePolarity,Negative*
%FSLAX46Y46*%
G04 Gerber Fmt 4.6, Leading zero omitted, Abs format (unit mm)*
G04 Created by KiCad (PCBNEW (5.1.2)-2) date 2021-09-18 22:48:39*
%MOMM*%
%LPD*%
G04 APERTURE LIST*
%ADD10C,0.100000*%
G04 APERTURE END LIST*
D10*
G36*
X114510443Y-109105519D02*
G01*
X114576627Y-109112037D01*
X114746466Y-109163557D01*
X114902991Y-109247222D01*
X114938729Y-109276552D01*
X115040186Y-109359814D01*
X115123448Y-109461271D01*
X115152778Y-109497009D01*
X115236443Y-109653534D01*
X115287963Y-109823373D01*
X115305359Y-110000000D01*
X115287963Y-110176627D01*
X115236443Y-110346466D01*
X115152778Y-110502991D01*
X115123448Y-110538729D01*
X115040186Y-110640186D01*
X114938729Y-110723448D01*
X114902991Y-110752778D01*
X114746466Y-110836443D01*
X114576627Y-110887963D01*
X114510443Y-110894481D01*
X114444260Y-110901000D01*
X114355740Y-110901000D01*
X114289557Y-110894481D01*
X114223373Y-110887963D01*
X114053534Y-110836443D01*
X113897009Y-110752778D01*
X113861271Y-110723448D01*
X113759814Y-110640186D01*
X113676552Y-110538729D01*
X113647222Y-110502991D01*
X113563557Y-110346466D01*
X113512037Y-110176627D01*
X113494641Y-110000000D01*
X113512037Y-109823373D01*
X113563557Y-109653534D01*
X113647222Y-109497009D01*
X113676552Y-109461271D01*
X113759814Y-109359814D01*
X113861271Y-109276552D01*
X113897009Y-109247222D01*
X114053534Y-109163557D01*
X114223373Y-109112037D01*
X114289557Y-109105519D01*
X114355740Y-109099000D01*
X114444260Y-109099000D01*
X114510443Y-109105519D01*
X114510443Y-109105519D01*
G37*
G36*
X111970443Y-109105519D02*
G01*
X112036627Y-109112037D01*
X112206466Y-109163557D01*
X112362991Y-109247222D01*
X112398729Y-109276552D01*
X112500186Y-109359814D01*
X112583448Y-109461271D01*
X112612778Y-109497009D01*
X112696443Y-109653534D01*
X112747963Y-109823373D01*
X112765359Y-110000000D01*
X112747963Y-110176627D01*
X112696443Y-110346466D01*
X112612778Y-110502991D01*
X112583448Y-110538729D01*
X112500186Y-110640186D01*
X112398729Y-110723448D01*
X112362991Y-110752778D01*
X112206466Y-110836443D01*
X112036627Y-110887963D01*
X111970443Y-110894481D01*
X111904260Y-110901000D01*
X111815740Y-110901000D01*
X111749557Y-110894481D01*
X111683373Y-110887963D01*
X111513534Y-110836443D01*
X111357009Y-110752778D01*
X111321271Y-110723448D01*
X111219814Y-110640186D01*
X111136552Y-110538729D01*
X111107222Y-110502991D01*
X111023557Y-110346466D01*
X110972037Y-110176627D01*
X110954641Y-110000000D01*
X110972037Y-109823373D01*
X111023557Y-109653534D01*
X111107222Y-109497009D01*
X111136552Y-109461271D01*
X111219814Y-109359814D01*
X111321271Y-109276552D01*
X111357009Y-109247222D01*
X111513534Y-109163557D01*
X111683373Y-109112037D01*
X111749557Y-109105519D01*
X111815740Y-109099000D01*
X111904260Y-109099000D01*
X111970443Y-109105519D01*
X111970443Y-109105519D01*
G37*
G36*
X89901000Y-110901000D02*
G01*
X88099000Y-110901000D01*
X88099000Y-109099000D01*
X89901000Y-109099000D01*
X89901000Y-110901000D01*
X89901000Y-110901000D01*
G37*
G36*
X91650443Y-109105519D02*
G01*
X91716627Y-109112037D01*
X91886466Y-109163557D01*
X92042991Y-109247222D01*
X92078729Y-109276552D01*
X92180186Y-109359814D01*
X92263448Y-109461271D01*
X92292778Y-109497009D01*
X92376443Y-109653534D01*
X92427963Y-109823373D01*
X92445359Y-110000000D01*
X92427963Y-110176627D01*
X92376443Y-110346466D01*
X92292778Y-110502991D01*
X92263448Y-110538729D01*
X92180186Y-110640186D01*
X92078729Y-110723448D01*
X92042991Y-110752778D01*
X91886466Y-110836443D01*
X91716627Y-110887963D01*
X91650443Y-110894481D01*
X91584260Y-110901000D01*
X91495740Y-110901000D01*
X91429557Y-110894481D01*
X91363373Y-110887963D01*
X91193534Y-110836443D01*
X91037009Y-110752778D01*
X91001271Y-110723448D01*
X90899814Y-110640186D01*
X90816552Y-110538729D01*
X90787222Y-110502991D01*
X90703557Y-110346466D01*
X90652037Y-110176627D01*
X90634641Y-110000000D01*
X90652037Y-109823373D01*
X90703557Y-109653534D01*
X90787222Y-109497009D01*
X90816552Y-109461271D01*
X90899814Y-109359814D01*
X91001271Y-109276552D01*
X91037009Y-109247222D01*
X91193534Y-109163557D01*
X91363373Y-109112037D01*
X91429557Y-109105519D01*
X91495740Y-109099000D01*
X91584260Y-109099000D01*
X91650443Y-109105519D01*
X91650443Y-109105519D01*
G37*
G36*
X94190443Y-109105519D02*
G01*
X94256627Y-109112037D01*
X94426466Y-109163557D01*
X94582991Y-109247222D01*
X94618729Y-109276552D01*
X94720186Y-109359814D01*
X94803448Y-109461271D01*
X94832778Y-109497009D01*
X94916443Y-109653534D01*
X94967963Y-109823373D01*
X94985359Y-110000000D01*
X94967963Y-110176627D01*
X94916443Y-110346466D01*
X94832778Y-110502991D01*
X94803448Y-110538729D01*
X94720186Y-110640186D01*
X94618729Y-110723448D01*
X94582991Y-110752778D01*
X94426466Y-110836443D01*
X94256627Y-110887963D01*
X94190443Y-110894481D01*
X94124260Y-110901000D01*
X94035740Y-110901000D01*
X93969557Y-110894481D01*
X93903373Y-110887963D01*
X93733534Y-110836443D01*
X93577009Y-110752778D01*
X93541271Y-110723448D01*
X93439814Y-110640186D01*
X93356552Y-110538729D01*
X93327222Y-110502991D01*
X93243557Y-110346466D01*
X93192037Y-110176627D01*
X93174641Y-110000000D01*
X93192037Y-109823373D01*
X93243557Y-109653534D01*
X93327222Y-109497009D01*
X93356552Y-109461271D01*
X93439814Y-109359814D01*
X93541271Y-109276552D01*
X93577009Y-109247222D01*
X93733534Y-109163557D01*
X93903373Y-109112037D01*
X93969557Y-109105519D01*
X94035740Y-109099000D01*
X94124260Y-109099000D01*
X94190443Y-109105519D01*
X94190443Y-109105519D01*
G37*
G36*
X96730443Y-109105519D02*
G01*
X96796627Y-109112037D01*
X96966466Y-109163557D01*
X97122991Y-109247222D01*
X97158729Y-109276552D01*
X97260186Y-109359814D01*
X97343448Y-109461271D01*
X97372778Y-109497009D01*
X97456443Y-109653534D01*
X97507963Y-109823373D01*
X97525359Y-110000000D01*
X97507963Y-110176627D01*
X97456443Y-110346466D01*
X97372778Y-110502991D01*
X97343448Y-110538729D01*
X97260186Y-110640186D01*
X97158729Y-110723448D01*
X97122991Y-110752778D01*
X96966466Y-110836443D01*
X96796627Y-110887963D01*
X96730443Y-110894481D01*
X96664260Y-110901000D01*
X96575740Y-110901000D01*
X96509557Y-110894481D01*
X96443373Y-110887963D01*
X96273534Y-110836443D01*
X96117009Y-110752778D01*
X96081271Y-110723448D01*
X95979814Y-110640186D01*
X95896552Y-110538729D01*
X95867222Y-110502991D01*
X95783557Y-110346466D01*
X95732037Y-110176627D01*
X95714641Y-110000000D01*
X95732037Y-109823373D01*
X95783557Y-109653534D01*
X95867222Y-109497009D01*
X95896552Y-109461271D01*
X95979814Y-109359814D01*
X96081271Y-109276552D01*
X96117009Y-109247222D01*
X96273534Y-109163557D01*
X96443373Y-109112037D01*
X96509557Y-109105519D01*
X96575740Y-109099000D01*
X96664260Y-109099000D01*
X96730443Y-109105519D01*
X96730443Y-109105519D01*
G37*
G36*
X99270443Y-109105519D02*
G01*
X99336627Y-109112037D01*
X99506466Y-109163557D01*
X99662991Y-109247222D01*
X99698729Y-109276552D01*
X99800186Y-109359814D01*
X99883448Y-109461271D01*
X99912778Y-109497009D01*
X99996443Y-109653534D01*
X100047963Y-109823373D01*
X100065359Y-110000000D01*
X100047963Y-110176627D01*
X99996443Y-110346466D01*
X99912778Y-110502991D01*
X99883448Y-110538729D01*
X99800186Y-110640186D01*
X99698729Y-110723448D01*
X99662991Y-110752778D01*
X99506466Y-110836443D01*
X99336627Y-110887963D01*
X99270443Y-110894481D01*
X99204260Y-110901000D01*
X99115740Y-110901000D01*
X99049557Y-110894481D01*
X98983373Y-110887963D01*
X98813534Y-110836443D01*
X98657009Y-110752778D01*
X98621271Y-110723448D01*
X98519814Y-110640186D01*
X98436552Y-110538729D01*
X98407222Y-110502991D01*
X98323557Y-110346466D01*
X98272037Y-110176627D01*
X98254641Y-110000000D01*
X98272037Y-109823373D01*
X98323557Y-109653534D01*
X98407222Y-109497009D01*
X98436552Y-109461271D01*
X98519814Y-109359814D01*
X98621271Y-109276552D01*
X98657009Y-109247222D01*
X98813534Y-109163557D01*
X98983373Y-109112037D01*
X99049557Y-109105519D01*
X99115740Y-109099000D01*
X99204260Y-109099000D01*
X99270443Y-109105519D01*
X99270443Y-109105519D01*
G37*
G36*
X101810443Y-109105519D02*
G01*
X101876627Y-109112037D01*
X102046466Y-109163557D01*
X102202991Y-109247222D01*
X102238729Y-109276552D01*
X102340186Y-109359814D01*
X102423448Y-109461271D01*
X102452778Y-109497009D01*
X102536443Y-109653534D01*
X102587963Y-109823373D01*
X102605359Y-110000000D01*
X102587963Y-110176627D01*
X102536443Y-110346466D01*
X102452778Y-110502991D01*
X102423448Y-110538729D01*
X102340186Y-110640186D01*
X102238729Y-110723448D01*
X102202991Y-110752778D01*
X102046466Y-110836443D01*
X101876627Y-110887963D01*
X101810443Y-110894481D01*
X101744260Y-110901000D01*
X101655740Y-110901000D01*
X101589557Y-110894481D01*
X101523373Y-110887963D01*
X101353534Y-110836443D01*
X101197009Y-110752778D01*
X101161271Y-110723448D01*
X101059814Y-110640186D01*
X100976552Y-110538729D01*
X100947222Y-110502991D01*
X100863557Y-110346466D01*
X100812037Y-110176627D01*
X100794641Y-110000000D01*
X100812037Y-109823373D01*
X100863557Y-109653534D01*
X100947222Y-109497009D01*
X100976552Y-109461271D01*
X101059814Y-109359814D01*
X101161271Y-109276552D01*
X101197009Y-109247222D01*
X101353534Y-109163557D01*
X101523373Y-109112037D01*
X101589557Y-109105519D01*
X101655740Y-109099000D01*
X101744260Y-109099000D01*
X101810443Y-109105519D01*
X101810443Y-109105519D01*
G37*
G36*
X104350443Y-109105519D02*
G01*
X104416627Y-109112037D01*
X104586466Y-109163557D01*
X104742991Y-109247222D01*
X104778729Y-109276552D01*
X104880186Y-109359814D01*
X104963448Y-109461271D01*
X104992778Y-109497009D01*
X105076443Y-109653534D01*
X105127963Y-109823373D01*
X105145359Y-110000000D01*
X105127963Y-110176627D01*
X105076443Y-110346466D01*
X104992778Y-110502991D01*
X104963448Y-110538729D01*
X104880186Y-110640186D01*
X104778729Y-110723448D01*
X104742991Y-110752778D01*
X104586466Y-110836443D01*
X104416627Y-110887963D01*
X104350443Y-110894481D01*
X104284260Y-110901000D01*
X104195740Y-110901000D01*
X104129557Y-110894481D01*
X104063373Y-110887963D01*
X103893534Y-110836443D01*
X103737009Y-110752778D01*
X103701271Y-110723448D01*
X103599814Y-110640186D01*
X103516552Y-110538729D01*
X103487222Y-110502991D01*
X103403557Y-110346466D01*
X103352037Y-110176627D01*
X103334641Y-110000000D01*
X103352037Y-109823373D01*
X103403557Y-109653534D01*
X103487222Y-109497009D01*
X103516552Y-109461271D01*
X103599814Y-109359814D01*
X103701271Y-109276552D01*
X103737009Y-109247222D01*
X103893534Y-109163557D01*
X104063373Y-109112037D01*
X104129557Y-109105519D01*
X104195740Y-109099000D01*
X104284260Y-109099000D01*
X104350443Y-109105519D01*
X104350443Y-109105519D01*
G37*
G36*
X106890443Y-109105519D02*
G01*
X106956627Y-109112037D01*
X107126466Y-109163557D01*
X107282991Y-109247222D01*
X107318729Y-109276552D01*
X107420186Y-109359814D01*
X107503448Y-109461271D01*
X107532778Y-109497009D01*
X107616443Y-109653534D01*
X107667963Y-109823373D01*
X107685359Y-110000000D01*
X107667963Y-110176627D01*
X107616443Y-110346466D01*
X107532778Y-110502991D01*
X107503448Y-110538729D01*
X107420186Y-110640186D01*
X107318729Y-110723448D01*
X107282991Y-110752778D01*
X107126466Y-110836443D01*
X106956627Y-110887963D01*
X106890443Y-110894481D01*
X106824260Y-110901000D01*
X106735740Y-110901000D01*
X106669557Y-110894481D01*
X106603373Y-110887963D01*
X106433534Y-110836443D01*
X106277009Y-110752778D01*
X106241271Y-110723448D01*
X106139814Y-110640186D01*
X106056552Y-110538729D01*
X106027222Y-110502991D01*
X105943557Y-110346466D01*
X105892037Y-110176627D01*
X105874641Y-110000000D01*
X105892037Y-109823373D01*
X105943557Y-109653534D01*
X106027222Y-109497009D01*
X106056552Y-109461271D01*
X106139814Y-109359814D01*
X106241271Y-109276552D01*
X106277009Y-109247222D01*
X106433534Y-109163557D01*
X106603373Y-109112037D01*
X106669557Y-109105519D01*
X106735740Y-109099000D01*
X106824260Y-109099000D01*
X106890443Y-109105519D01*
X106890443Y-109105519D01*
G37*
G36*
X109430443Y-109105519D02*
G01*
X109496627Y-109112037D01*
X109666466Y-109163557D01*
X109822991Y-109247222D01*
X109858729Y-109276552D01*
X109960186Y-109359814D01*
X110043448Y-109461271D01*
X110072778Y-109497009D01*
X110156443Y-109653534D01*
X110207963Y-109823373D01*
X110225359Y-110000000D01*
X110207963Y-110176627D01*
X110156443Y-110346466D01*
X110072778Y-110502991D01*
X110043448Y-110538729D01*
X109960186Y-110640186D01*
X109858729Y-110723448D01*
X109822991Y-110752778D01*
X109666466Y-110836443D01*
X109496627Y-110887963D01*
X109430443Y-110894481D01*
X109364260Y-110901000D01*
X109275740Y-110901000D01*
X109209557Y-110894481D01*
X109143373Y-110887963D01*
X108973534Y-110836443D01*
X108817009Y-110752778D01*
X108781271Y-110723448D01*
X108679814Y-110640186D01*
X108596552Y-110538729D01*
X108567222Y-110502991D01*
X108483557Y-110346466D01*
X108432037Y-110176627D01*
X108414641Y-110000000D01*
X108432037Y-109823373D01*
X108483557Y-109653534D01*
X108567222Y-109497009D01*
X108596552Y-109461271D01*
X108679814Y-109359814D01*
X108781271Y-109276552D01*
X108817009Y-109247222D01*
X108973534Y-109163557D01*
X109143373Y-109112037D01*
X109209557Y-109105519D01*
X109275740Y-109099000D01*
X109364260Y-109099000D01*
X109430443Y-109105519D01*
X109430443Y-109105519D01*
G37*
G36*
X139910443Y-109105519D02*
G01*
X139976627Y-109112037D01*
X140146466Y-109163557D01*
X140302991Y-109247222D01*
X140338729Y-109276552D01*
X140440186Y-109359814D01*
X140523448Y-109461271D01*
X140552778Y-109497009D01*
X140636443Y-109653534D01*
X140687963Y-109823373D01*
X140705359Y-110000000D01*
X140687963Y-110176627D01*
X140636443Y-110346466D01*
X140552778Y-110502991D01*
X140523448Y-110538729D01*
X140440186Y-110640186D01*
X140338729Y-110723448D01*
X140302991Y-110752778D01*
X140146466Y-110836443D01*
X139976627Y-110887963D01*
X139910443Y-110894481D01*
X139844260Y-110901000D01*
X139755740Y-110901000D01*
X139689557Y-110894481D01*
X139623373Y-110887963D01*
X139453534Y-110836443D01*
X139297009Y-110752778D01*
X139261271Y-110723448D01*
X139159814Y-110640186D01*
X139076552Y-110538729D01*
X139047222Y-110502991D01*
X138963557Y-110346466D01*
X138912037Y-110176627D01*
X138894641Y-110000000D01*
X138912037Y-109823373D01*
X138963557Y-109653534D01*
X139047222Y-109497009D01*
X139076552Y-109461271D01*
X139159814Y-109359814D01*
X139261271Y-109276552D01*
X139297009Y-109247222D01*
X139453534Y-109163557D01*
X139623373Y-109112037D01*
X139689557Y-109105519D01*
X139755740Y-109099000D01*
X139844260Y-109099000D01*
X139910443Y-109105519D01*
X139910443Y-109105519D01*
G37*
G36*
X117050443Y-109105519D02*
G01*
X117116627Y-109112037D01*
X117286466Y-109163557D01*
X117442991Y-109247222D01*
X117478729Y-109276552D01*
X117580186Y-109359814D01*
X117663448Y-109461271D01*
X117692778Y-109497009D01*
X117776443Y-109653534D01*
X117827963Y-109823373D01*
X117845359Y-110000000D01*
X117827963Y-110176627D01*
X117776443Y-110346466D01*
X117692778Y-110502991D01*
X117663448Y-110538729D01*
X117580186Y-110640186D01*
X117478729Y-110723448D01*
X117442991Y-110752778D01*
X117286466Y-110836443D01*
X117116627Y-110887963D01*
X117050443Y-110894481D01*
X116984260Y-110901000D01*
X116895740Y-110901000D01*
X116829557Y-110894481D01*
X116763373Y-110887963D01*
X116593534Y-110836443D01*
X116437009Y-110752778D01*
X116401271Y-110723448D01*
X116299814Y-110640186D01*
X116216552Y-110538729D01*
X116187222Y-110502991D01*
X116103557Y-110346466D01*
X116052037Y-110176627D01*
X116034641Y-110000000D01*
X116052037Y-109823373D01*
X116103557Y-109653534D01*
X116187222Y-109497009D01*
X116216552Y-109461271D01*
X116299814Y-109359814D01*
X116401271Y-109276552D01*
X116437009Y-109247222D01*
X116593534Y-109163557D01*
X116763373Y-109112037D01*
X116829557Y-109105519D01*
X116895740Y-109099000D01*
X116984260Y-109099000D01*
X117050443Y-109105519D01*
X117050443Y-109105519D01*
G37*
G36*
X119590443Y-109105519D02*
G01*
X119656627Y-109112037D01*
X119826466Y-109163557D01*
X119982991Y-109247222D01*
X120018729Y-109276552D01*
X120120186Y-109359814D01*
X120203448Y-109461271D01*
X120232778Y-109497009D01*
X120316443Y-109653534D01*
X120367963Y-109823373D01*
X120385359Y-110000000D01*
X120367963Y-110176627D01*
X120316443Y-110346466D01*
X120232778Y-110502991D01*
X120203448Y-110538729D01*
X120120186Y-110640186D01*
X120018729Y-110723448D01*
X119982991Y-110752778D01*
X119826466Y-110836443D01*
X119656627Y-110887963D01*
X119590443Y-110894481D01*
X119524260Y-110901000D01*
X119435740Y-110901000D01*
X119369557Y-110894481D01*
X119303373Y-110887963D01*
X119133534Y-110836443D01*
X118977009Y-110752778D01*
X118941271Y-110723448D01*
X118839814Y-110640186D01*
X118756552Y-110538729D01*
X118727222Y-110502991D01*
X118643557Y-110346466D01*
X118592037Y-110176627D01*
X118574641Y-110000000D01*
X118592037Y-109823373D01*
X118643557Y-109653534D01*
X118727222Y-109497009D01*
X118756552Y-109461271D01*
X118839814Y-109359814D01*
X118941271Y-109276552D01*
X118977009Y-109247222D01*
X119133534Y-109163557D01*
X119303373Y-109112037D01*
X119369557Y-109105519D01*
X119435740Y-109099000D01*
X119524260Y-109099000D01*
X119590443Y-109105519D01*
X119590443Y-109105519D01*
G37*
G36*
X122130443Y-109105519D02*
G01*
X122196627Y-109112037D01*
X122366466Y-109163557D01*
X122522991Y-109247222D01*
X122558729Y-109276552D01*
X122660186Y-109359814D01*
X122743448Y-109461271D01*
X122772778Y-109497009D01*
X122856443Y-109653534D01*
X122907963Y-109823373D01*
X122925359Y-110000000D01*
X122907963Y-110176627D01*
X122856443Y-110346466D01*
X122772778Y-110502991D01*
X122743448Y-110538729D01*
X122660186Y-110640186D01*
X122558729Y-110723448D01*
X122522991Y-110752778D01*
X122366466Y-110836443D01*
X122196627Y-110887963D01*
X122130443Y-110894481D01*
X122064260Y-110901000D01*
X121975740Y-110901000D01*
X121909557Y-110894481D01*
X121843373Y-110887963D01*
X121673534Y-110836443D01*
X121517009Y-110752778D01*
X121481271Y-110723448D01*
X121379814Y-110640186D01*
X121296552Y-110538729D01*
X121267222Y-110502991D01*
X121183557Y-110346466D01*
X121132037Y-110176627D01*
X121114641Y-110000000D01*
X121132037Y-109823373D01*
X121183557Y-109653534D01*
X121267222Y-109497009D01*
X121296552Y-109461271D01*
X121379814Y-109359814D01*
X121481271Y-109276552D01*
X121517009Y-109247222D01*
X121673534Y-109163557D01*
X121843373Y-109112037D01*
X121909557Y-109105519D01*
X121975740Y-109099000D01*
X122064260Y-109099000D01*
X122130443Y-109105519D01*
X122130443Y-109105519D01*
G37*
G36*
X124670443Y-109105519D02*
G01*
X124736627Y-109112037D01*
X124906466Y-109163557D01*
X125062991Y-109247222D01*
X125098729Y-109276552D01*
X125200186Y-109359814D01*
X125283448Y-109461271D01*
X125312778Y-109497009D01*
X125396443Y-109653534D01*
X125447963Y-109823373D01*
X125465359Y-110000000D01*
X125447963Y-110176627D01*
X125396443Y-110346466D01*
X125312778Y-110502991D01*
X125283448Y-110538729D01*
X125200186Y-110640186D01*
X125098729Y-110723448D01*
X125062991Y-110752778D01*
X124906466Y-110836443D01*
X124736627Y-110887963D01*
X124670443Y-110894481D01*
X124604260Y-110901000D01*
X124515740Y-110901000D01*
X124449557Y-110894481D01*
X124383373Y-110887963D01*
X124213534Y-110836443D01*
X124057009Y-110752778D01*
X124021271Y-110723448D01*
X123919814Y-110640186D01*
X123836552Y-110538729D01*
X123807222Y-110502991D01*
X123723557Y-110346466D01*
X123672037Y-110176627D01*
X123654641Y-110000000D01*
X123672037Y-109823373D01*
X123723557Y-109653534D01*
X123807222Y-109497009D01*
X123836552Y-109461271D01*
X123919814Y-109359814D01*
X124021271Y-109276552D01*
X124057009Y-109247222D01*
X124213534Y-109163557D01*
X124383373Y-109112037D01*
X124449557Y-109105519D01*
X124515740Y-109099000D01*
X124604260Y-109099000D01*
X124670443Y-109105519D01*
X124670443Y-109105519D01*
G37*
G36*
X127210443Y-109105519D02*
G01*
X127276627Y-109112037D01*
X127446466Y-109163557D01*
X127602991Y-109247222D01*
X127638729Y-109276552D01*
X127740186Y-109359814D01*
X127823448Y-109461271D01*
X127852778Y-109497009D01*
X127936443Y-109653534D01*
X127987963Y-109823373D01*
X128005359Y-110000000D01*
X127987963Y-110176627D01*
X127936443Y-110346466D01*
X127852778Y-110502991D01*
X127823448Y-110538729D01*
X127740186Y-110640186D01*
X127638729Y-110723448D01*
X127602991Y-110752778D01*
X127446466Y-110836443D01*
X127276627Y-110887963D01*
X127210443Y-110894481D01*
X127144260Y-110901000D01*
X127055740Y-110901000D01*
X126989557Y-110894481D01*
X126923373Y-110887963D01*
X126753534Y-110836443D01*
X126597009Y-110752778D01*
X126561271Y-110723448D01*
X126459814Y-110640186D01*
X126376552Y-110538729D01*
X126347222Y-110502991D01*
X126263557Y-110346466D01*
X126212037Y-110176627D01*
X126194641Y-110000000D01*
X126212037Y-109823373D01*
X126263557Y-109653534D01*
X126347222Y-109497009D01*
X126376552Y-109461271D01*
X126459814Y-109359814D01*
X126561271Y-109276552D01*
X126597009Y-109247222D01*
X126753534Y-109163557D01*
X126923373Y-109112037D01*
X126989557Y-109105519D01*
X127055740Y-109099000D01*
X127144260Y-109099000D01*
X127210443Y-109105519D01*
X127210443Y-109105519D01*
G37*
G36*
X129750443Y-109105519D02*
G01*
X129816627Y-109112037D01*
X129986466Y-109163557D01*
X130142991Y-109247222D01*
X130178729Y-109276552D01*
X130280186Y-109359814D01*
X130363448Y-109461271D01*
X130392778Y-109497009D01*
X130476443Y-109653534D01*
X130527963Y-109823373D01*
X130545359Y-110000000D01*
X130527963Y-110176627D01*
X130476443Y-110346466D01*
X130392778Y-110502991D01*
X130363448Y-110538729D01*
X130280186Y-110640186D01*
X130178729Y-110723448D01*
X130142991Y-110752778D01*
X129986466Y-110836443D01*
X129816627Y-110887963D01*
X129750443Y-110894481D01*
X129684260Y-110901000D01*
X129595740Y-110901000D01*
X129529557Y-110894481D01*
X129463373Y-110887963D01*
X129293534Y-110836443D01*
X129137009Y-110752778D01*
X129101271Y-110723448D01*
X128999814Y-110640186D01*
X128916552Y-110538729D01*
X128887222Y-110502991D01*
X128803557Y-110346466D01*
X128752037Y-110176627D01*
X128734641Y-110000000D01*
X128752037Y-109823373D01*
X128803557Y-109653534D01*
X128887222Y-109497009D01*
X128916552Y-109461271D01*
X128999814Y-109359814D01*
X129101271Y-109276552D01*
X129137009Y-109247222D01*
X129293534Y-109163557D01*
X129463373Y-109112037D01*
X129529557Y-109105519D01*
X129595740Y-109099000D01*
X129684260Y-109099000D01*
X129750443Y-109105519D01*
X129750443Y-109105519D01*
G37*
G36*
X132290443Y-109105519D02*
G01*
X132356627Y-109112037D01*
X132526466Y-109163557D01*
X132682991Y-109247222D01*
X132718729Y-109276552D01*
X132820186Y-109359814D01*
X132903448Y-109461271D01*
X132932778Y-109497009D01*
X133016443Y-109653534D01*
X133067963Y-109823373D01*
X133085359Y-110000000D01*
X133067963Y-110176627D01*
X133016443Y-110346466D01*
X132932778Y-110502991D01*
X132903448Y-110538729D01*
X132820186Y-110640186D01*
X132718729Y-110723448D01*
X132682991Y-110752778D01*
X132526466Y-110836443D01*
X132356627Y-110887963D01*
X132290443Y-110894481D01*
X132224260Y-110901000D01*
X132135740Y-110901000D01*
X132069557Y-110894481D01*
X132003373Y-110887963D01*
X131833534Y-110836443D01*
X131677009Y-110752778D01*
X131641271Y-110723448D01*
X131539814Y-110640186D01*
X131456552Y-110538729D01*
X131427222Y-110502991D01*
X131343557Y-110346466D01*
X131292037Y-110176627D01*
X131274641Y-110000000D01*
X131292037Y-109823373D01*
X131343557Y-109653534D01*
X131427222Y-109497009D01*
X131456552Y-109461271D01*
X131539814Y-109359814D01*
X131641271Y-109276552D01*
X131677009Y-109247222D01*
X131833534Y-109163557D01*
X132003373Y-109112037D01*
X132069557Y-109105519D01*
X132135740Y-109099000D01*
X132224260Y-109099000D01*
X132290443Y-109105519D01*
X132290443Y-109105519D01*
G37*
G36*
X134830443Y-109105519D02*
G01*
X134896627Y-109112037D01*
X135066466Y-109163557D01*
X135222991Y-109247222D01*
X135258729Y-109276552D01*
X135360186Y-109359814D01*
X135443448Y-109461271D01*
X135472778Y-109497009D01*
X135556443Y-109653534D01*
X135607963Y-109823373D01*
X135625359Y-110000000D01*
X135607963Y-110176627D01*
X135556443Y-110346466D01*
X135472778Y-110502991D01*
X135443448Y-110538729D01*
X135360186Y-110640186D01*
X135258729Y-110723448D01*
X135222991Y-110752778D01*
X135066466Y-110836443D01*
X134896627Y-110887963D01*
X134830443Y-110894481D01*
X134764260Y-110901000D01*
X134675740Y-110901000D01*
X134609557Y-110894481D01*
X134543373Y-110887963D01*
X134373534Y-110836443D01*
X134217009Y-110752778D01*
X134181271Y-110723448D01*
X134079814Y-110640186D01*
X133996552Y-110538729D01*
X133967222Y-110502991D01*
X133883557Y-110346466D01*
X133832037Y-110176627D01*
X133814641Y-110000000D01*
X133832037Y-109823373D01*
X133883557Y-109653534D01*
X133967222Y-109497009D01*
X133996552Y-109461271D01*
X134079814Y-109359814D01*
X134181271Y-109276552D01*
X134217009Y-109247222D01*
X134373534Y-109163557D01*
X134543373Y-109112037D01*
X134609557Y-109105519D01*
X134675740Y-109099000D01*
X134764260Y-109099000D01*
X134830443Y-109105519D01*
X134830443Y-109105519D01*
G37*
G36*
X165310443Y-109105519D02*
G01*
X165376627Y-109112037D01*
X165546466Y-109163557D01*
X165702991Y-109247222D01*
X165738729Y-109276552D01*
X165840186Y-109359814D01*
X165923448Y-109461271D01*
X165952778Y-109497009D01*
X166036443Y-109653534D01*
X166087963Y-109823373D01*
X166105359Y-110000000D01*
X166087963Y-110176627D01*
X166036443Y-110346466D01*
X165952778Y-110502991D01*
X165923448Y-110538729D01*
X165840186Y-110640186D01*
X165738729Y-110723448D01*
X165702991Y-110752778D01*
X165546466Y-110836443D01*
X165376627Y-110887963D01*
X165310443Y-110894481D01*
X165244260Y-110901000D01*
X165155740Y-110901000D01*
X165089557Y-110894481D01*
X165023373Y-110887963D01*
X164853534Y-110836443D01*
X164697009Y-110752778D01*
X164661271Y-110723448D01*
X164559814Y-110640186D01*
X164476552Y-110538729D01*
X164447222Y-110502991D01*
X164363557Y-110346466D01*
X164312037Y-110176627D01*
X164294641Y-110000000D01*
X164312037Y-109823373D01*
X164363557Y-109653534D01*
X164447222Y-109497009D01*
X164476552Y-109461271D01*
X164559814Y-109359814D01*
X164661271Y-109276552D01*
X164697009Y-109247222D01*
X164853534Y-109163557D01*
X165023373Y-109112037D01*
X165089557Y-109105519D01*
X165155740Y-109099000D01*
X165244260Y-109099000D01*
X165310443Y-109105519D01*
X165310443Y-109105519D01*
G37*
G36*
X185630443Y-109105519D02*
G01*
X185696627Y-109112037D01*
X185866466Y-109163557D01*
X186022991Y-109247222D01*
X186058729Y-109276552D01*
X186160186Y-109359814D01*
X186243448Y-109461271D01*
X186272778Y-109497009D01*
X186356443Y-109653534D01*
X186407963Y-109823373D01*
X186425359Y-110000000D01*
X186407963Y-110176627D01*
X186356443Y-110346466D01*
X186272778Y-110502991D01*
X186243448Y-110538729D01*
X186160186Y-110640186D01*
X186058729Y-110723448D01*
X186022991Y-110752778D01*
X185866466Y-110836443D01*
X185696627Y-110887963D01*
X185630443Y-110894481D01*
X185564260Y-110901000D01*
X185475740Y-110901000D01*
X185409557Y-110894481D01*
X185343373Y-110887963D01*
X185173534Y-110836443D01*
X185017009Y-110752778D01*
X184981271Y-110723448D01*
X184879814Y-110640186D01*
X184796552Y-110538729D01*
X184767222Y-110502991D01*
X184683557Y-110346466D01*
X184632037Y-110176627D01*
X184614641Y-110000000D01*
X184632037Y-109823373D01*
X184683557Y-109653534D01*
X184767222Y-109497009D01*
X184796552Y-109461271D01*
X184879814Y-109359814D01*
X184981271Y-109276552D01*
X185017009Y-109247222D01*
X185173534Y-109163557D01*
X185343373Y-109112037D01*
X185409557Y-109105519D01*
X185475740Y-109099000D01*
X185564260Y-109099000D01*
X185630443Y-109105519D01*
X185630443Y-109105519D01*
G37*
G36*
X142450443Y-109105519D02*
G01*
X142516627Y-109112037D01*
X142686466Y-109163557D01*
X142842991Y-109247222D01*
X142878729Y-109276552D01*
X142980186Y-109359814D01*
X143063448Y-109461271D01*
X143092778Y-109497009D01*
X143176443Y-109653534D01*
X143227963Y-109823373D01*
X143245359Y-110000000D01*
X143227963Y-110176627D01*
X143176443Y-110346466D01*
X143092778Y-110502991D01*
X143063448Y-110538729D01*
X142980186Y-110640186D01*
X142878729Y-110723448D01*
X142842991Y-110752778D01*
X142686466Y-110836443D01*
X142516627Y-110887963D01*
X142450443Y-110894481D01*
X142384260Y-110901000D01*
X142295740Y-110901000D01*
X142229557Y-110894481D01*
X142163373Y-110887963D01*
X141993534Y-110836443D01*
X141837009Y-110752778D01*
X141801271Y-110723448D01*
X141699814Y-110640186D01*
X141616552Y-110538729D01*
X141587222Y-110502991D01*
X141503557Y-110346466D01*
X141452037Y-110176627D01*
X141434641Y-110000000D01*
X141452037Y-109823373D01*
X141503557Y-109653534D01*
X141587222Y-109497009D01*
X141616552Y-109461271D01*
X141699814Y-109359814D01*
X141801271Y-109276552D01*
X141837009Y-109247222D01*
X141993534Y-109163557D01*
X142163373Y-109112037D01*
X142229557Y-109105519D01*
X142295740Y-109099000D01*
X142384260Y-109099000D01*
X142450443Y-109105519D01*
X142450443Y-109105519D01*
G37*
G36*
X144990443Y-109105519D02*
G01*
X145056627Y-109112037D01*
X145226466Y-109163557D01*
X145382991Y-109247222D01*
X145418729Y-109276552D01*
X145520186Y-109359814D01*
X145603448Y-109461271D01*
X145632778Y-109497009D01*
X145716443Y-109653534D01*
X145767963Y-109823373D01*
X145785359Y-110000000D01*
X145767963Y-110176627D01*
X145716443Y-110346466D01*
X145632778Y-110502991D01*
X145603448Y-110538729D01*
X145520186Y-110640186D01*
X145418729Y-110723448D01*
X145382991Y-110752778D01*
X145226466Y-110836443D01*
X145056627Y-110887963D01*
X144990443Y-110894481D01*
X144924260Y-110901000D01*
X144835740Y-110901000D01*
X144769557Y-110894481D01*
X144703373Y-110887963D01*
X144533534Y-110836443D01*
X144377009Y-110752778D01*
X144341271Y-110723448D01*
X144239814Y-110640186D01*
X144156552Y-110538729D01*
X144127222Y-110502991D01*
X144043557Y-110346466D01*
X143992037Y-110176627D01*
X143974641Y-110000000D01*
X143992037Y-109823373D01*
X144043557Y-109653534D01*
X144127222Y-109497009D01*
X144156552Y-109461271D01*
X144239814Y-109359814D01*
X144341271Y-109276552D01*
X144377009Y-109247222D01*
X144533534Y-109163557D01*
X144703373Y-109112037D01*
X144769557Y-109105519D01*
X144835740Y-109099000D01*
X144924260Y-109099000D01*
X144990443Y-109105519D01*
X144990443Y-109105519D01*
G37*
G36*
X147530443Y-109105519D02*
G01*
X147596627Y-109112037D01*
X147766466Y-109163557D01*
X147922991Y-109247222D01*
X147958729Y-109276552D01*
X148060186Y-109359814D01*
X148143448Y-109461271D01*
X148172778Y-109497009D01*
X148256443Y-109653534D01*
X148307963Y-109823373D01*
X148325359Y-110000000D01*
X148307963Y-110176627D01*
X148256443Y-110346466D01*
X148172778Y-110502991D01*
X148143448Y-110538729D01*
X148060186Y-110640186D01*
X147958729Y-110723448D01*
X147922991Y-110752778D01*
X147766466Y-110836443D01*
X147596627Y-110887963D01*
X147530443Y-110894481D01*
X147464260Y-110901000D01*
X147375740Y-110901000D01*
X147309557Y-110894481D01*
X147243373Y-110887963D01*
X147073534Y-110836443D01*
X146917009Y-110752778D01*
X146881271Y-110723448D01*
X146779814Y-110640186D01*
X146696552Y-110538729D01*
X146667222Y-110502991D01*
X146583557Y-110346466D01*
X146532037Y-110176627D01*
X146514641Y-110000000D01*
X146532037Y-109823373D01*
X146583557Y-109653534D01*
X146667222Y-109497009D01*
X146696552Y-109461271D01*
X146779814Y-109359814D01*
X146881271Y-109276552D01*
X146917009Y-109247222D01*
X147073534Y-109163557D01*
X147243373Y-109112037D01*
X147309557Y-109105519D01*
X147375740Y-109099000D01*
X147464260Y-109099000D01*
X147530443Y-109105519D01*
X147530443Y-109105519D01*
G37*
G36*
X150070443Y-109105519D02*
G01*
X150136627Y-109112037D01*
X150306466Y-109163557D01*
X150462991Y-109247222D01*
X150498729Y-109276552D01*
X150600186Y-109359814D01*
X150683448Y-109461271D01*
X150712778Y-109497009D01*
X150796443Y-109653534D01*
X150847963Y-109823373D01*
X150865359Y-110000000D01*
X150847963Y-110176627D01*
X150796443Y-110346466D01*
X150712778Y-110502991D01*
X150683448Y-110538729D01*
X150600186Y-110640186D01*
X150498729Y-110723448D01*
X150462991Y-110752778D01*
X150306466Y-110836443D01*
X150136627Y-110887963D01*
X150070443Y-110894481D01*
X150004260Y-110901000D01*
X149915740Y-110901000D01*
X149849557Y-110894481D01*
X149783373Y-110887963D01*
X149613534Y-110836443D01*
X149457009Y-110752778D01*
X149421271Y-110723448D01*
X149319814Y-110640186D01*
X149236552Y-110538729D01*
X149207222Y-110502991D01*
X149123557Y-110346466D01*
X149072037Y-110176627D01*
X149054641Y-110000000D01*
X149072037Y-109823373D01*
X149123557Y-109653534D01*
X149207222Y-109497009D01*
X149236552Y-109461271D01*
X149319814Y-109359814D01*
X149421271Y-109276552D01*
X149457009Y-109247222D01*
X149613534Y-109163557D01*
X149783373Y-109112037D01*
X149849557Y-109105519D01*
X149915740Y-109099000D01*
X150004260Y-109099000D01*
X150070443Y-109105519D01*
X150070443Y-109105519D01*
G37*
G36*
X152610443Y-109105519D02*
G01*
X152676627Y-109112037D01*
X152846466Y-109163557D01*
X153002991Y-109247222D01*
X153038729Y-109276552D01*
X153140186Y-109359814D01*
X153223448Y-109461271D01*
X153252778Y-109497009D01*
X153336443Y-109653534D01*
X153387963Y-109823373D01*
X153405359Y-110000000D01*
X153387963Y-110176627D01*
X153336443Y-110346466D01*
X153252778Y-110502991D01*
X153223448Y-110538729D01*
X153140186Y-110640186D01*
X153038729Y-110723448D01*
X153002991Y-110752778D01*
X152846466Y-110836443D01*
X152676627Y-110887963D01*
X152610443Y-110894481D01*
X152544260Y-110901000D01*
X152455740Y-110901000D01*
X152389557Y-110894481D01*
X152323373Y-110887963D01*
X152153534Y-110836443D01*
X151997009Y-110752778D01*
X151961271Y-110723448D01*
X151859814Y-110640186D01*
X151776552Y-110538729D01*
X151747222Y-110502991D01*
X151663557Y-110346466D01*
X151612037Y-110176627D01*
X151594641Y-110000000D01*
X151612037Y-109823373D01*
X151663557Y-109653534D01*
X151747222Y-109497009D01*
X151776552Y-109461271D01*
X151859814Y-109359814D01*
X151961271Y-109276552D01*
X151997009Y-109247222D01*
X152153534Y-109163557D01*
X152323373Y-109112037D01*
X152389557Y-109105519D01*
X152455740Y-109099000D01*
X152544260Y-109099000D01*
X152610443Y-109105519D01*
X152610443Y-109105519D01*
G37*
G36*
X155150443Y-109105519D02*
G01*
X155216627Y-109112037D01*
X155386466Y-109163557D01*
X155542991Y-109247222D01*
X155578729Y-109276552D01*
X155680186Y-109359814D01*
X155763448Y-109461271D01*
X155792778Y-109497009D01*
X155876443Y-109653534D01*
X155927963Y-109823373D01*
X155945359Y-110000000D01*
X155927963Y-110176627D01*
X155876443Y-110346466D01*
X155792778Y-110502991D01*
X155763448Y-110538729D01*
X155680186Y-110640186D01*
X155578729Y-110723448D01*
X155542991Y-110752778D01*
X155386466Y-110836443D01*
X155216627Y-110887963D01*
X155150443Y-110894481D01*
X155084260Y-110901000D01*
X154995740Y-110901000D01*
X154929557Y-110894481D01*
X154863373Y-110887963D01*
X154693534Y-110836443D01*
X154537009Y-110752778D01*
X154501271Y-110723448D01*
X154399814Y-110640186D01*
X154316552Y-110538729D01*
X154287222Y-110502991D01*
X154203557Y-110346466D01*
X154152037Y-110176627D01*
X154134641Y-110000000D01*
X154152037Y-109823373D01*
X154203557Y-109653534D01*
X154287222Y-109497009D01*
X154316552Y-109461271D01*
X154399814Y-109359814D01*
X154501271Y-109276552D01*
X154537009Y-109247222D01*
X154693534Y-109163557D01*
X154863373Y-109112037D01*
X154929557Y-109105519D01*
X154995740Y-109099000D01*
X155084260Y-109099000D01*
X155150443Y-109105519D01*
X155150443Y-109105519D01*
G37*
G36*
X157690443Y-109105519D02*
G01*
X157756627Y-109112037D01*
X157926466Y-109163557D01*
X158082991Y-109247222D01*
X158118729Y-109276552D01*
X158220186Y-109359814D01*
X158303448Y-109461271D01*
X158332778Y-109497009D01*
X158416443Y-109653534D01*
X158467963Y-109823373D01*
X158485359Y-110000000D01*
X158467963Y-110176627D01*
X158416443Y-110346466D01*
X158332778Y-110502991D01*
X158303448Y-110538729D01*
X158220186Y-110640186D01*
X158118729Y-110723448D01*
X158082991Y-110752778D01*
X157926466Y-110836443D01*
X157756627Y-110887963D01*
X157690443Y-110894481D01*
X157624260Y-110901000D01*
X157535740Y-110901000D01*
X157469557Y-110894481D01*
X157403373Y-110887963D01*
X157233534Y-110836443D01*
X157077009Y-110752778D01*
X157041271Y-110723448D01*
X156939814Y-110640186D01*
X156856552Y-110538729D01*
X156827222Y-110502991D01*
X156743557Y-110346466D01*
X156692037Y-110176627D01*
X156674641Y-110000000D01*
X156692037Y-109823373D01*
X156743557Y-109653534D01*
X156827222Y-109497009D01*
X156856552Y-109461271D01*
X156939814Y-109359814D01*
X157041271Y-109276552D01*
X157077009Y-109247222D01*
X157233534Y-109163557D01*
X157403373Y-109112037D01*
X157469557Y-109105519D01*
X157535740Y-109099000D01*
X157624260Y-109099000D01*
X157690443Y-109105519D01*
X157690443Y-109105519D01*
G37*
G36*
X160230443Y-109105519D02*
G01*
X160296627Y-109112037D01*
X160466466Y-109163557D01*
X160622991Y-109247222D01*
X160658729Y-109276552D01*
X160760186Y-109359814D01*
X160843448Y-109461271D01*
X160872778Y-109497009D01*
X160956443Y-109653534D01*
X161007963Y-109823373D01*
X161025359Y-110000000D01*
X161007963Y-110176627D01*
X160956443Y-110346466D01*
X160872778Y-110502991D01*
X160843448Y-110538729D01*
X160760186Y-110640186D01*
X160658729Y-110723448D01*
X160622991Y-110752778D01*
X160466466Y-110836443D01*
X160296627Y-110887963D01*
X160230443Y-110894481D01*
X160164260Y-110901000D01*
X160075740Y-110901000D01*
X160009557Y-110894481D01*
X159943373Y-110887963D01*
X159773534Y-110836443D01*
X159617009Y-110752778D01*
X159581271Y-110723448D01*
X159479814Y-110640186D01*
X159396552Y-110538729D01*
X159367222Y-110502991D01*
X159283557Y-110346466D01*
X159232037Y-110176627D01*
X159214641Y-110000000D01*
X159232037Y-109823373D01*
X159283557Y-109653534D01*
X159367222Y-109497009D01*
X159396552Y-109461271D01*
X159479814Y-109359814D01*
X159581271Y-109276552D01*
X159617009Y-109247222D01*
X159773534Y-109163557D01*
X159943373Y-109112037D01*
X160009557Y-109105519D01*
X160075740Y-109099000D01*
X160164260Y-109099000D01*
X160230443Y-109105519D01*
X160230443Y-109105519D01*
G37*
G36*
X162770443Y-109105519D02*
G01*
X162836627Y-109112037D01*
X163006466Y-109163557D01*
X163162991Y-109247222D01*
X163198729Y-109276552D01*
X163300186Y-109359814D01*
X163383448Y-109461271D01*
X163412778Y-109497009D01*
X163496443Y-109653534D01*
X163547963Y-109823373D01*
X163565359Y-110000000D01*
X163547963Y-110176627D01*
X163496443Y-110346466D01*
X163412778Y-110502991D01*
X163383448Y-110538729D01*
X163300186Y-110640186D01*
X163198729Y-110723448D01*
X163162991Y-110752778D01*
X163006466Y-110836443D01*
X162836627Y-110887963D01*
X162770443Y-110894481D01*
X162704260Y-110901000D01*
X162615740Y-110901000D01*
X162549557Y-110894481D01*
X162483373Y-110887963D01*
X162313534Y-110836443D01*
X162157009Y-110752778D01*
X162121271Y-110723448D01*
X162019814Y-110640186D01*
X161936552Y-110538729D01*
X161907222Y-110502991D01*
X161823557Y-110346466D01*
X161772037Y-110176627D01*
X161754641Y-110000000D01*
X161772037Y-109823373D01*
X161823557Y-109653534D01*
X161907222Y-109497009D01*
X161936552Y-109461271D01*
X162019814Y-109359814D01*
X162121271Y-109276552D01*
X162157009Y-109247222D01*
X162313534Y-109163557D01*
X162483373Y-109112037D01*
X162549557Y-109105519D01*
X162615740Y-109099000D01*
X162704260Y-109099000D01*
X162770443Y-109105519D01*
X162770443Y-109105519D01*
G37*
G36*
X167850443Y-109105519D02*
G01*
X167916627Y-109112037D01*
X168086466Y-109163557D01*
X168242991Y-109247222D01*
X168278729Y-109276552D01*
X168380186Y-109359814D01*
X168463448Y-109461271D01*
X168492778Y-109497009D01*
X168576443Y-109653534D01*
X168627963Y-109823373D01*
X168645359Y-110000000D01*
X168627963Y-110176627D01*
X168576443Y-110346466D01*
X168492778Y-110502991D01*
X168463448Y-110538729D01*
X168380186Y-110640186D01*
X168278729Y-110723448D01*
X168242991Y-110752778D01*
X168086466Y-110836443D01*
X167916627Y-110887963D01*
X167850443Y-110894481D01*
X167784260Y-110901000D01*
X167695740Y-110901000D01*
X167629557Y-110894481D01*
X167563373Y-110887963D01*
X167393534Y-110836443D01*
X167237009Y-110752778D01*
X167201271Y-110723448D01*
X167099814Y-110640186D01*
X167016552Y-110538729D01*
X166987222Y-110502991D01*
X166903557Y-110346466D01*
X166852037Y-110176627D01*
X166834641Y-110000000D01*
X166852037Y-109823373D01*
X166903557Y-109653534D01*
X166987222Y-109497009D01*
X167016552Y-109461271D01*
X167099814Y-109359814D01*
X167201271Y-109276552D01*
X167237009Y-109247222D01*
X167393534Y-109163557D01*
X167563373Y-109112037D01*
X167629557Y-109105519D01*
X167695740Y-109099000D01*
X167784260Y-109099000D01*
X167850443Y-109105519D01*
X167850443Y-109105519D01*
G37*
G36*
X170390443Y-109105519D02*
G01*
X170456627Y-109112037D01*
X170626466Y-109163557D01*
X170782991Y-109247222D01*
X170818729Y-109276552D01*
X170920186Y-109359814D01*
X171003448Y-109461271D01*
X171032778Y-109497009D01*
X171116443Y-109653534D01*
X171167963Y-109823373D01*
X171185359Y-110000000D01*
X171167963Y-110176627D01*
X171116443Y-110346466D01*
X171032778Y-110502991D01*
X171003448Y-110538729D01*
X170920186Y-110640186D01*
X170818729Y-110723448D01*
X170782991Y-110752778D01*
X170626466Y-110836443D01*
X170456627Y-110887963D01*
X170390443Y-110894481D01*
X170324260Y-110901000D01*
X170235740Y-110901000D01*
X170169557Y-110894481D01*
X170103373Y-110887963D01*
X169933534Y-110836443D01*
X169777009Y-110752778D01*
X169741271Y-110723448D01*
X169639814Y-110640186D01*
X169556552Y-110538729D01*
X169527222Y-110502991D01*
X169443557Y-110346466D01*
X169392037Y-110176627D01*
X169374641Y-110000000D01*
X169392037Y-109823373D01*
X169443557Y-109653534D01*
X169527222Y-109497009D01*
X169556552Y-109461271D01*
X169639814Y-109359814D01*
X169741271Y-109276552D01*
X169777009Y-109247222D01*
X169933534Y-109163557D01*
X170103373Y-109112037D01*
X170169557Y-109105519D01*
X170235740Y-109099000D01*
X170324260Y-109099000D01*
X170390443Y-109105519D01*
X170390443Y-109105519D01*
G37*
G36*
X172930443Y-109105519D02*
G01*
X172996627Y-109112037D01*
X173166466Y-109163557D01*
X173322991Y-109247222D01*
X173358729Y-109276552D01*
X173460186Y-109359814D01*
X173543448Y-109461271D01*
X173572778Y-109497009D01*
X173656443Y-109653534D01*
X173707963Y-109823373D01*
X173725359Y-110000000D01*
X173707963Y-110176627D01*
X173656443Y-110346466D01*
X173572778Y-110502991D01*
X173543448Y-110538729D01*
X173460186Y-110640186D01*
X173358729Y-110723448D01*
X173322991Y-110752778D01*
X173166466Y-110836443D01*
X172996627Y-110887963D01*
X172930443Y-110894481D01*
X172864260Y-110901000D01*
X172775740Y-110901000D01*
X172709557Y-110894481D01*
X172643373Y-110887963D01*
X172473534Y-110836443D01*
X172317009Y-110752778D01*
X172281271Y-110723448D01*
X172179814Y-110640186D01*
X172096552Y-110538729D01*
X172067222Y-110502991D01*
X171983557Y-110346466D01*
X171932037Y-110176627D01*
X171914641Y-110000000D01*
X171932037Y-109823373D01*
X171983557Y-109653534D01*
X172067222Y-109497009D01*
X172096552Y-109461271D01*
X172179814Y-109359814D01*
X172281271Y-109276552D01*
X172317009Y-109247222D01*
X172473534Y-109163557D01*
X172643373Y-109112037D01*
X172709557Y-109105519D01*
X172775740Y-109099000D01*
X172864260Y-109099000D01*
X172930443Y-109105519D01*
X172930443Y-109105519D01*
G37*
G36*
X175470443Y-109105519D02*
G01*
X175536627Y-109112037D01*
X175706466Y-109163557D01*
X175862991Y-109247222D01*
X175898729Y-109276552D01*
X176000186Y-109359814D01*
X176083448Y-109461271D01*
X176112778Y-109497009D01*
X176196443Y-109653534D01*
X176247963Y-109823373D01*
X176265359Y-110000000D01*
X176247963Y-110176627D01*
X176196443Y-110346466D01*
X176112778Y-110502991D01*
X176083448Y-110538729D01*
X176000186Y-110640186D01*
X175898729Y-110723448D01*
X175862991Y-110752778D01*
X175706466Y-110836443D01*
X175536627Y-110887963D01*
X175470443Y-110894481D01*
X175404260Y-110901000D01*
X175315740Y-110901000D01*
X175249557Y-110894481D01*
X175183373Y-110887963D01*
X175013534Y-110836443D01*
X174857009Y-110752778D01*
X174821271Y-110723448D01*
X174719814Y-110640186D01*
X174636552Y-110538729D01*
X174607222Y-110502991D01*
X174523557Y-110346466D01*
X174472037Y-110176627D01*
X174454641Y-110000000D01*
X174472037Y-109823373D01*
X174523557Y-109653534D01*
X174607222Y-109497009D01*
X174636552Y-109461271D01*
X174719814Y-109359814D01*
X174821271Y-109276552D01*
X174857009Y-109247222D01*
X175013534Y-109163557D01*
X175183373Y-109112037D01*
X175249557Y-109105519D01*
X175315740Y-109099000D01*
X175404260Y-109099000D01*
X175470443Y-109105519D01*
X175470443Y-109105519D01*
G37*
G36*
X178010443Y-109105519D02*
G01*
X178076627Y-109112037D01*
X178246466Y-109163557D01*
X178402991Y-109247222D01*
X178438729Y-109276552D01*
X178540186Y-109359814D01*
X178623448Y-109461271D01*
X178652778Y-109497009D01*
X178736443Y-109653534D01*
X178787963Y-109823373D01*
X178805359Y-110000000D01*
X178787963Y-110176627D01*
X178736443Y-110346466D01*
X178652778Y-110502991D01*
X178623448Y-110538729D01*
X178540186Y-110640186D01*
X178438729Y-110723448D01*
X178402991Y-110752778D01*
X178246466Y-110836443D01*
X178076627Y-110887963D01*
X178010443Y-110894481D01*
X177944260Y-110901000D01*
X177855740Y-110901000D01*
X177789557Y-110894481D01*
X177723373Y-110887963D01*
X177553534Y-110836443D01*
X177397009Y-110752778D01*
X177361271Y-110723448D01*
X177259814Y-110640186D01*
X177176552Y-110538729D01*
X177147222Y-110502991D01*
X177063557Y-110346466D01*
X177012037Y-110176627D01*
X176994641Y-110000000D01*
X177012037Y-109823373D01*
X177063557Y-109653534D01*
X177147222Y-109497009D01*
X177176552Y-109461271D01*
X177259814Y-109359814D01*
X177361271Y-109276552D01*
X177397009Y-109247222D01*
X177553534Y-109163557D01*
X177723373Y-109112037D01*
X177789557Y-109105519D01*
X177855740Y-109099000D01*
X177944260Y-109099000D01*
X178010443Y-109105519D01*
X178010443Y-109105519D01*
G37*
G36*
X180550443Y-109105519D02*
G01*
X180616627Y-109112037D01*
X180786466Y-109163557D01*
X180942991Y-109247222D01*
X180978729Y-109276552D01*
X181080186Y-109359814D01*
X181163448Y-109461271D01*
X181192778Y-109497009D01*
X181276443Y-109653534D01*
X181327963Y-109823373D01*
X181345359Y-110000000D01*
X181327963Y-110176627D01*
X181276443Y-110346466D01*
X181192778Y-110502991D01*
X181163448Y-110538729D01*
X181080186Y-110640186D01*
X180978729Y-110723448D01*
X180942991Y-110752778D01*
X180786466Y-110836443D01*
X180616627Y-110887963D01*
X180550443Y-110894481D01*
X180484260Y-110901000D01*
X180395740Y-110901000D01*
X180329557Y-110894481D01*
X180263373Y-110887963D01*
X180093534Y-110836443D01*
X179937009Y-110752778D01*
X179901271Y-110723448D01*
X179799814Y-110640186D01*
X179716552Y-110538729D01*
X179687222Y-110502991D01*
X179603557Y-110346466D01*
X179552037Y-110176627D01*
X179534641Y-110000000D01*
X179552037Y-109823373D01*
X179603557Y-109653534D01*
X179687222Y-109497009D01*
X179716552Y-109461271D01*
X179799814Y-109359814D01*
X179901271Y-109276552D01*
X179937009Y-109247222D01*
X180093534Y-109163557D01*
X180263373Y-109112037D01*
X180329557Y-109105519D01*
X180395740Y-109099000D01*
X180484260Y-109099000D01*
X180550443Y-109105519D01*
X180550443Y-109105519D01*
G37*
G36*
X183090443Y-109105519D02*
G01*
X183156627Y-109112037D01*
X183326466Y-109163557D01*
X183482991Y-109247222D01*
X183518729Y-109276552D01*
X183620186Y-109359814D01*
X183703448Y-109461271D01*
X183732778Y-109497009D01*
X183816443Y-109653534D01*
X183867963Y-109823373D01*
X183885359Y-110000000D01*
X183867963Y-110176627D01*
X183816443Y-110346466D01*
X183732778Y-110502991D01*
X183703448Y-110538729D01*
X183620186Y-110640186D01*
X183518729Y-110723448D01*
X183482991Y-110752778D01*
X183326466Y-110836443D01*
X183156627Y-110887963D01*
X183090443Y-110894481D01*
X183024260Y-110901000D01*
X182935740Y-110901000D01*
X182869557Y-110894481D01*
X182803373Y-110887963D01*
X182633534Y-110836443D01*
X182477009Y-110752778D01*
X182441271Y-110723448D01*
X182339814Y-110640186D01*
X182256552Y-110538729D01*
X182227222Y-110502991D01*
X182143557Y-110346466D01*
X182092037Y-110176627D01*
X182074641Y-110000000D01*
X182092037Y-109823373D01*
X182143557Y-109653534D01*
X182227222Y-109497009D01*
X182256552Y-109461271D01*
X182339814Y-109359814D01*
X182441271Y-109276552D01*
X182477009Y-109247222D01*
X182633534Y-109163557D01*
X182803373Y-109112037D01*
X182869557Y-109105519D01*
X182935740Y-109099000D01*
X183024260Y-109099000D01*
X183090443Y-109105519D01*
X183090443Y-109105519D01*
G37*
G36*
X188170443Y-109105519D02*
G01*
X188236627Y-109112037D01*
X188406466Y-109163557D01*
X188562991Y-109247222D01*
X188598729Y-109276552D01*
X188700186Y-109359814D01*
X188783448Y-109461271D01*
X188812778Y-109497009D01*
X188896443Y-109653534D01*
X188947963Y-109823373D01*
X188965359Y-110000000D01*
X188947963Y-110176627D01*
X188896443Y-110346466D01*
X188812778Y-110502991D01*
X188783448Y-110538729D01*
X188700186Y-110640186D01*
X188598729Y-110723448D01*
X188562991Y-110752778D01*
X188406466Y-110836443D01*
X188236627Y-110887963D01*
X188170443Y-110894481D01*
X188104260Y-110901000D01*
X188015740Y-110901000D01*
X187949557Y-110894481D01*
X187883373Y-110887963D01*
X187713534Y-110836443D01*
X187557009Y-110752778D01*
X187521271Y-110723448D01*
X187419814Y-110640186D01*
X187336552Y-110538729D01*
X187307222Y-110502991D01*
X187223557Y-110346466D01*
X187172037Y-110176627D01*
X187154641Y-110000000D01*
X187172037Y-109823373D01*
X187223557Y-109653534D01*
X187307222Y-109497009D01*
X187336552Y-109461271D01*
X187419814Y-109359814D01*
X187521271Y-109276552D01*
X187557009Y-109247222D01*
X187713534Y-109163557D01*
X187883373Y-109112037D01*
X187949557Y-109105519D01*
X188015740Y-109099000D01*
X188104260Y-109099000D01*
X188170443Y-109105519D01*
X188170443Y-109105519D01*
G37*
G36*
X137370443Y-109105519D02*
G01*
X137436627Y-109112037D01*
X137606466Y-109163557D01*
X137762991Y-109247222D01*
X137798729Y-109276552D01*
X137900186Y-109359814D01*
X137983448Y-109461271D01*
X138012778Y-109497009D01*
X138096443Y-109653534D01*
X138147963Y-109823373D01*
X138165359Y-110000000D01*
X138147963Y-110176627D01*
X138096443Y-110346466D01*
X138012778Y-110502991D01*
X137983448Y-110538729D01*
X137900186Y-110640186D01*
X137798729Y-110723448D01*
X137762991Y-110752778D01*
X137606466Y-110836443D01*
X137436627Y-110887963D01*
X137370443Y-110894481D01*
X137304260Y-110901000D01*
X137215740Y-110901000D01*
X137149557Y-110894481D01*
X137083373Y-110887963D01*
X136913534Y-110836443D01*
X136757009Y-110752778D01*
X136721271Y-110723448D01*
X136619814Y-110640186D01*
X136536552Y-110538729D01*
X136507222Y-110502991D01*
X136423557Y-110346466D01*
X136372037Y-110176627D01*
X136354641Y-110000000D01*
X136372037Y-109823373D01*
X136423557Y-109653534D01*
X136507222Y-109497009D01*
X136536552Y-109461271D01*
X136619814Y-109359814D01*
X136721271Y-109276552D01*
X136757009Y-109247222D01*
X136913534Y-109163557D01*
X137083373Y-109112037D01*
X137149557Y-109105519D01*
X137215740Y-109099000D01*
X137304260Y-109099000D01*
X137370443Y-109105519D01*
X137370443Y-109105519D01*
G37*
G36*
X188276000Y-107631000D02*
G01*
X186374000Y-107631000D01*
X186374000Y-105729000D01*
X188276000Y-105729000D01*
X188276000Y-107631000D01*
X188276000Y-107631000D01*
G37*
G36*
X127248228Y-104591703D02*
G01*
X127403100Y-104655853D01*
X127542481Y-104748985D01*
X127661015Y-104867519D01*
X127754147Y-105006900D01*
X127818297Y-105161772D01*
X127851000Y-105326184D01*
X127851000Y-105493816D01*
X127818297Y-105658228D01*
X127754147Y-105813100D01*
X127661015Y-105952481D01*
X127542481Y-106071015D01*
X127403100Y-106164147D01*
X127248228Y-106228297D01*
X127083816Y-106261000D01*
X126916184Y-106261000D01*
X126751772Y-106228297D01*
X126596900Y-106164147D01*
X126457519Y-106071015D01*
X126338985Y-105952481D01*
X126245853Y-105813100D01*
X126181703Y-105658228D01*
X126149000Y-105493816D01*
X126149000Y-105326184D01*
X126181703Y-105161772D01*
X126245853Y-105006900D01*
X126338985Y-104867519D01*
X126457519Y-104748985D01*
X126596900Y-104655853D01*
X126751772Y-104591703D01*
X126916184Y-104559000D01*
X127083816Y-104559000D01*
X127248228Y-104591703D01*
X127248228Y-104591703D01*
G37*
G36*
X137368228Y-104591703D02*
G01*
X137523100Y-104655853D01*
X137662481Y-104748985D01*
X137781015Y-104867519D01*
X137874147Y-105006900D01*
X137938297Y-105161772D01*
X137971000Y-105326184D01*
X137971000Y-105493816D01*
X137938297Y-105658228D01*
X137874147Y-105813100D01*
X137781015Y-105952481D01*
X137662481Y-106071015D01*
X137523100Y-106164147D01*
X137368228Y-106228297D01*
X137203816Y-106261000D01*
X137036184Y-106261000D01*
X136871772Y-106228297D01*
X136716900Y-106164147D01*
X136577519Y-106071015D01*
X136458985Y-105952481D01*
X136365853Y-105813100D01*
X136301703Y-105658228D01*
X136269000Y-105493816D01*
X136269000Y-105326184D01*
X136301703Y-105161772D01*
X136365853Y-105006900D01*
X136458985Y-104867519D01*
X136577519Y-104748985D01*
X136716900Y-104655853D01*
X136871772Y-104591703D01*
X137036184Y-104559000D01*
X137203816Y-104559000D01*
X137368228Y-104591703D01*
X137368228Y-104591703D01*
G37*
G36*
X135471000Y-106261000D02*
G01*
X133769000Y-106261000D01*
X133769000Y-104559000D01*
X135471000Y-104559000D01*
X135471000Y-106261000D01*
X135471000Y-106261000D01*
G37*
G36*
X161498228Y-104591703D02*
G01*
X161653100Y-104655853D01*
X161792481Y-104748985D01*
X161911015Y-104867519D01*
X162004147Y-105006900D01*
X162068297Y-105161772D01*
X162101000Y-105326184D01*
X162101000Y-105493816D01*
X162068297Y-105658228D01*
X162004147Y-105813100D01*
X161911015Y-105952481D01*
X161792481Y-106071015D01*
X161653100Y-106164147D01*
X161498228Y-106228297D01*
X161333816Y-106261000D01*
X161166184Y-106261000D01*
X161001772Y-106228297D01*
X160846900Y-106164147D01*
X160707519Y-106071015D01*
X160588985Y-105952481D01*
X160495853Y-105813100D01*
X160431703Y-105658228D01*
X160399000Y-105493816D01*
X160399000Y-105326184D01*
X160431703Y-105161772D01*
X160495853Y-105006900D01*
X160588985Y-104867519D01*
X160707519Y-104748985D01*
X160846900Y-104655853D01*
X161001772Y-104591703D01*
X161166184Y-104559000D01*
X161333816Y-104559000D01*
X161498228Y-104591703D01*
X161498228Y-104591703D01*
G37*
G36*
X159601000Y-106261000D02*
G01*
X157899000Y-106261000D01*
X157899000Y-104559000D01*
X159601000Y-104559000D01*
X159601000Y-106261000D01*
X159601000Y-106261000D01*
G37*
G36*
X129748228Y-104591703D02*
G01*
X129903100Y-104655853D01*
X130042481Y-104748985D01*
X130161015Y-104867519D01*
X130254147Y-105006900D01*
X130318297Y-105161772D01*
X130351000Y-105326184D01*
X130351000Y-105493816D01*
X130318297Y-105658228D01*
X130254147Y-105813100D01*
X130161015Y-105952481D01*
X130042481Y-106071015D01*
X129903100Y-106164147D01*
X129748228Y-106228297D01*
X129583816Y-106261000D01*
X129416184Y-106261000D01*
X129251772Y-106228297D01*
X129096900Y-106164147D01*
X128957519Y-106071015D01*
X128838985Y-105952481D01*
X128745853Y-105813100D01*
X128681703Y-105658228D01*
X128649000Y-105493816D01*
X128649000Y-105326184D01*
X128681703Y-105161772D01*
X128745853Y-105006900D01*
X128838985Y-104867519D01*
X128957519Y-104748985D01*
X129096900Y-104655853D01*
X129251772Y-104591703D01*
X129416184Y-104559000D01*
X129583816Y-104559000D01*
X129748228Y-104591703D01*
X129748228Y-104591703D01*
G37*
G36*
X181858228Y-104591703D02*
G01*
X182013100Y-104655853D01*
X182152481Y-104748985D01*
X182271015Y-104867519D01*
X182364147Y-105006900D01*
X182428297Y-105161772D01*
X182461000Y-105326184D01*
X182461000Y-105493816D01*
X182428297Y-105658228D01*
X182364147Y-105813100D01*
X182271015Y-105952481D01*
X182152481Y-106071015D01*
X182013100Y-106164147D01*
X181858228Y-106228297D01*
X181693816Y-106261000D01*
X181526184Y-106261000D01*
X181361772Y-106228297D01*
X181206900Y-106164147D01*
X181067519Y-106071015D01*
X180948985Y-105952481D01*
X180855853Y-105813100D01*
X180791703Y-105658228D01*
X180759000Y-105493816D01*
X180759000Y-105326184D01*
X180791703Y-105161772D01*
X180855853Y-105006900D01*
X180948985Y-104867519D01*
X181067519Y-104748985D01*
X181206900Y-104655853D01*
X181361772Y-104591703D01*
X181526184Y-104559000D01*
X181693816Y-104559000D01*
X181858228Y-104591703D01*
X181858228Y-104591703D01*
G37*
G36*
X171616823Y-104571313D02*
G01*
X171777242Y-104619976D01*
X171844361Y-104655852D01*
X171925078Y-104698996D01*
X172054659Y-104805341D01*
X172161004Y-104934922D01*
X172161005Y-104934924D01*
X172240024Y-105082758D01*
X172288687Y-105243177D01*
X172305117Y-105410000D01*
X172288687Y-105576823D01*
X172240024Y-105737242D01*
X172199477Y-105813100D01*
X172161004Y-105885078D01*
X172054659Y-106014659D01*
X171925078Y-106121004D01*
X171925076Y-106121005D01*
X171777242Y-106200024D01*
X171616823Y-106248687D01*
X171491804Y-106261000D01*
X171408196Y-106261000D01*
X171283177Y-106248687D01*
X171122758Y-106200024D01*
X170974924Y-106121005D01*
X170974922Y-106121004D01*
X170845341Y-106014659D01*
X170738996Y-105885078D01*
X170700523Y-105813100D01*
X170659976Y-105737242D01*
X170611313Y-105576823D01*
X170594883Y-105410000D01*
X170611313Y-105243177D01*
X170659976Y-105082758D01*
X170738995Y-104934924D01*
X170738996Y-104934922D01*
X170845341Y-104805341D01*
X170974922Y-104698996D01*
X171055639Y-104655852D01*
X171122758Y-104619976D01*
X171283177Y-104571313D01*
X171408196Y-104559000D01*
X171491804Y-104559000D01*
X171616823Y-104571313D01*
X171616823Y-104571313D01*
G37*
G36*
X187602395Y-103225546D02*
G01*
X187775466Y-103297234D01*
X187775467Y-103297235D01*
X187931227Y-103401310D01*
X188063690Y-103533773D01*
X188063691Y-103533775D01*
X188167766Y-103689534D01*
X188239454Y-103862605D01*
X188276000Y-104046333D01*
X188276000Y-104233667D01*
X188239454Y-104417395D01*
X188167766Y-104590466D01*
X188148048Y-104619976D01*
X188063690Y-104746227D01*
X187931227Y-104878690D01*
X187852818Y-104931081D01*
X187775466Y-104982766D01*
X187602395Y-105054454D01*
X187418667Y-105091000D01*
X187231333Y-105091000D01*
X187047605Y-105054454D01*
X186874534Y-104982766D01*
X186797182Y-104931081D01*
X186718773Y-104878690D01*
X186586310Y-104746227D01*
X186501952Y-104619976D01*
X186482234Y-104590466D01*
X186410546Y-104417395D01*
X186374000Y-104233667D01*
X186374000Y-104046333D01*
X186410546Y-103862605D01*
X186482234Y-103689534D01*
X186586309Y-103533775D01*
X186586310Y-103533773D01*
X186718773Y-103401310D01*
X186874533Y-103297235D01*
X186874534Y-103297234D01*
X187047605Y-103225546D01*
X187231333Y-103189000D01*
X187418667Y-103189000D01*
X187602395Y-103225546D01*
X187602395Y-103225546D01*
G37*
G36*
X181858228Y-100146703D02*
G01*
X182013100Y-100210853D01*
X182152481Y-100303985D01*
X182271015Y-100422519D01*
X182364147Y-100561900D01*
X182428297Y-100716772D01*
X182461000Y-100881184D01*
X182461000Y-101048816D01*
X182428297Y-101213228D01*
X182364147Y-101368100D01*
X182271015Y-101507481D01*
X182152481Y-101626015D01*
X182013100Y-101719147D01*
X181858228Y-101783297D01*
X181693816Y-101816000D01*
X181526184Y-101816000D01*
X181361772Y-101783297D01*
X181206900Y-101719147D01*
X181067519Y-101626015D01*
X180948985Y-101507481D01*
X180855853Y-101368100D01*
X180791703Y-101213228D01*
X180759000Y-101048816D01*
X180759000Y-100881184D01*
X180791703Y-100716772D01*
X180855853Y-100561900D01*
X180948985Y-100422519D01*
X181067519Y-100303985D01*
X181206900Y-100210853D01*
X181361772Y-100146703D01*
X181526184Y-100114000D01*
X181693816Y-100114000D01*
X181858228Y-100146703D01*
X181858228Y-100146703D01*
G37*
G36*
X171616823Y-100126313D02*
G01*
X171777242Y-100174976D01*
X171909906Y-100245886D01*
X171925078Y-100253996D01*
X172054659Y-100360341D01*
X172161004Y-100489922D01*
X172161005Y-100489924D01*
X172240024Y-100637758D01*
X172288687Y-100798177D01*
X172305117Y-100965000D01*
X172288687Y-101131823D01*
X172240024Y-101292242D01*
X172199477Y-101368100D01*
X172161004Y-101440078D01*
X172054659Y-101569659D01*
X171925078Y-101676004D01*
X171925076Y-101676005D01*
X171777242Y-101755024D01*
X171616823Y-101803687D01*
X171491804Y-101816000D01*
X171408196Y-101816000D01*
X171283177Y-101803687D01*
X171122758Y-101755024D01*
X170974924Y-101676005D01*
X170974922Y-101676004D01*
X170845341Y-101569659D01*
X170738996Y-101440078D01*
X170700523Y-101368100D01*
X170659976Y-101292242D01*
X170611313Y-101131823D01*
X170594883Y-100965000D01*
X170611313Y-100798177D01*
X170659976Y-100637758D01*
X170738995Y-100489924D01*
X170738996Y-100489922D01*
X170845341Y-100360341D01*
X170974922Y-100253996D01*
X170990094Y-100245886D01*
X171122758Y-100174976D01*
X171283177Y-100126313D01*
X171408196Y-100114000D01*
X171491804Y-100114000D01*
X171616823Y-100126313D01*
X171616823Y-100126313D01*
G37*
G36*
X147603925Y-99091313D02*
G01*
X147764344Y-99139976D01*
X147912180Y-99218995D01*
X148041762Y-99325341D01*
X148148107Y-99454922D01*
X148148108Y-99454924D01*
X148227127Y-99602758D01*
X148275790Y-99763177D01*
X148288103Y-99888196D01*
X148288103Y-100771803D01*
X148275790Y-100896822D01*
X148227127Y-101057242D01*
X148156217Y-101189906D01*
X148148107Y-101205078D01*
X148041762Y-101334659D01*
X147912181Y-101441004D01*
X147912179Y-101441005D01*
X147764345Y-101520024D01*
X147603926Y-101568687D01*
X147437103Y-101585117D01*
X147270281Y-101568687D01*
X147109862Y-101520024D01*
X146962028Y-101441005D01*
X146962026Y-101441004D01*
X146832445Y-101334659D01*
X146726100Y-101205078D01*
X146717990Y-101189906D01*
X146647080Y-101057242D01*
X146598417Y-100896823D01*
X146586103Y-100771803D01*
X146586103Y-99888197D01*
X146598416Y-99763178D01*
X146647079Y-99602759D01*
X146726098Y-99454923D01*
X146832444Y-99325341D01*
X146962025Y-99218996D01*
X147026765Y-99184392D01*
X147109861Y-99139976D01*
X147270280Y-99091313D01*
X147437103Y-99074883D01*
X147603925Y-99091313D01*
X147603925Y-99091313D01*
G37*
G36*
X142523925Y-99091313D02*
G01*
X142684344Y-99139976D01*
X142832180Y-99218995D01*
X142961762Y-99325341D01*
X143068107Y-99454922D01*
X143068108Y-99454924D01*
X143147127Y-99602758D01*
X143195790Y-99763177D01*
X143208103Y-99888196D01*
X143208103Y-100771803D01*
X143195790Y-100896822D01*
X143147127Y-101057242D01*
X143076217Y-101189906D01*
X143068107Y-101205078D01*
X142961762Y-101334659D01*
X142832181Y-101441004D01*
X142832179Y-101441005D01*
X142684345Y-101520024D01*
X142523926Y-101568687D01*
X142357103Y-101585117D01*
X142190281Y-101568687D01*
X142029862Y-101520024D01*
X141882028Y-101441005D01*
X141882026Y-101441004D01*
X141752445Y-101334659D01*
X141646100Y-101205078D01*
X141637990Y-101189906D01*
X141567080Y-101057242D01*
X141518417Y-100896823D01*
X141506103Y-100771803D01*
X141506103Y-99888197D01*
X141518416Y-99763178D01*
X141567079Y-99602759D01*
X141646098Y-99454923D01*
X141752444Y-99325341D01*
X141882025Y-99218996D01*
X141946765Y-99184392D01*
X142029861Y-99139976D01*
X142190280Y-99091313D01*
X142357103Y-99074883D01*
X142523925Y-99091313D01*
X142523925Y-99091313D01*
G37*
G36*
X163996822Y-99091313D02*
G01*
X164157241Y-99139976D01*
X164305077Y-99218995D01*
X164434659Y-99325341D01*
X164541004Y-99454922D01*
X164541005Y-99454924D01*
X164620024Y-99602758D01*
X164668687Y-99763177D01*
X164681000Y-99888196D01*
X164681000Y-100771803D01*
X164668687Y-100896822D01*
X164620024Y-101057242D01*
X164549114Y-101189906D01*
X164541004Y-101205078D01*
X164434659Y-101334659D01*
X164305078Y-101441004D01*
X164305076Y-101441005D01*
X164157242Y-101520024D01*
X163996823Y-101568687D01*
X163830000Y-101585117D01*
X163663178Y-101568687D01*
X163502759Y-101520024D01*
X163354925Y-101441005D01*
X163354923Y-101441004D01*
X163225342Y-101334659D01*
X163118997Y-101205078D01*
X163110887Y-101189906D01*
X163039977Y-101057242D01*
X162991314Y-100896823D01*
X162979000Y-100771803D01*
X162979000Y-99888197D01*
X162991313Y-99763178D01*
X163039976Y-99602759D01*
X163118995Y-99454923D01*
X163225341Y-99325341D01*
X163354922Y-99218996D01*
X163419662Y-99184392D01*
X163502758Y-99139976D01*
X163663177Y-99091313D01*
X163830000Y-99074883D01*
X163996822Y-99091313D01*
X163996822Y-99091313D01*
G37*
G36*
X134903925Y-99091313D02*
G01*
X135064344Y-99139976D01*
X135212180Y-99218995D01*
X135341762Y-99325341D01*
X135448107Y-99454922D01*
X135448108Y-99454924D01*
X135527127Y-99602758D01*
X135575790Y-99763177D01*
X135588103Y-99888196D01*
X135588103Y-100771803D01*
X135575790Y-100896822D01*
X135527127Y-101057242D01*
X135456217Y-101189906D01*
X135448107Y-101205078D01*
X135341762Y-101334659D01*
X135212181Y-101441004D01*
X135212179Y-101441005D01*
X135064345Y-101520024D01*
X134903926Y-101568687D01*
X134737103Y-101585117D01*
X134570281Y-101568687D01*
X134409862Y-101520024D01*
X134262028Y-101441005D01*
X134262026Y-101441004D01*
X134132445Y-101334659D01*
X134026100Y-101205078D01*
X134017990Y-101189906D01*
X133947080Y-101057242D01*
X133898417Y-100896823D01*
X133886103Y-100771803D01*
X133886103Y-99888197D01*
X133898416Y-99763178D01*
X133947079Y-99602759D01*
X134026098Y-99454923D01*
X134132444Y-99325341D01*
X134262025Y-99218996D01*
X134326765Y-99184392D01*
X134409861Y-99139976D01*
X134570280Y-99091313D01*
X134737103Y-99074883D01*
X134903925Y-99091313D01*
X134903925Y-99091313D01*
G37*
G36*
X161456822Y-99091313D02*
G01*
X161617241Y-99139976D01*
X161765077Y-99218995D01*
X161894659Y-99325341D01*
X162001004Y-99454922D01*
X162001005Y-99454924D01*
X162080024Y-99602758D01*
X162128687Y-99763177D01*
X162141000Y-99888196D01*
X162141000Y-100771803D01*
X162128687Y-100896822D01*
X162080024Y-101057242D01*
X162009114Y-101189906D01*
X162001004Y-101205078D01*
X161894659Y-101334659D01*
X161765078Y-101441004D01*
X161765076Y-101441005D01*
X161617242Y-101520024D01*
X161456823Y-101568687D01*
X161290000Y-101585117D01*
X161123178Y-101568687D01*
X160962759Y-101520024D01*
X160814925Y-101441005D01*
X160814923Y-101441004D01*
X160685342Y-101334659D01*
X160578997Y-101205078D01*
X160570887Y-101189906D01*
X160499977Y-101057242D01*
X160451314Y-100896823D01*
X160439000Y-100771803D01*
X160439000Y-99888197D01*
X160451313Y-99763178D01*
X160499976Y-99602759D01*
X160578995Y-99454923D01*
X160685341Y-99325341D01*
X160814922Y-99218996D01*
X160879662Y-99184392D01*
X160962758Y-99139976D01*
X161123177Y-99091313D01*
X161290000Y-99074883D01*
X161456822Y-99091313D01*
X161456822Y-99091313D01*
G37*
G36*
X158916822Y-99091313D02*
G01*
X159077241Y-99139976D01*
X159225077Y-99218995D01*
X159354659Y-99325341D01*
X159461004Y-99454922D01*
X159461005Y-99454924D01*
X159540024Y-99602758D01*
X159588687Y-99763177D01*
X159601000Y-99888196D01*
X159601000Y-100771803D01*
X159588687Y-100896822D01*
X159540024Y-101057242D01*
X159469114Y-101189906D01*
X159461004Y-101205078D01*
X159354659Y-101334659D01*
X159225078Y-101441004D01*
X159225076Y-101441005D01*
X159077242Y-101520024D01*
X158916823Y-101568687D01*
X158750000Y-101585117D01*
X158583178Y-101568687D01*
X158422759Y-101520024D01*
X158274925Y-101441005D01*
X158274923Y-101441004D01*
X158145342Y-101334659D01*
X158038997Y-101205078D01*
X158030887Y-101189906D01*
X157959977Y-101057242D01*
X157911314Y-100896823D01*
X157899000Y-100771803D01*
X157899000Y-99888197D01*
X157911313Y-99763178D01*
X157959976Y-99602759D01*
X158038995Y-99454923D01*
X158145341Y-99325341D01*
X158274922Y-99218996D01*
X158339662Y-99184392D01*
X158422758Y-99139976D01*
X158583177Y-99091313D01*
X158750000Y-99074883D01*
X158916822Y-99091313D01*
X158916822Y-99091313D01*
G37*
G36*
X139983925Y-99091313D02*
G01*
X140144344Y-99139976D01*
X140292180Y-99218995D01*
X140421762Y-99325341D01*
X140528107Y-99454922D01*
X140528108Y-99454924D01*
X140607127Y-99602758D01*
X140655790Y-99763177D01*
X140668103Y-99888196D01*
X140668103Y-100771803D01*
X140655790Y-100896822D01*
X140607127Y-101057242D01*
X140536217Y-101189906D01*
X140528107Y-101205078D01*
X140421762Y-101334659D01*
X140292181Y-101441004D01*
X140292179Y-101441005D01*
X140144345Y-101520024D01*
X139983926Y-101568687D01*
X139817103Y-101585117D01*
X139650281Y-101568687D01*
X139489862Y-101520024D01*
X139342028Y-101441005D01*
X139342026Y-101441004D01*
X139212445Y-101334659D01*
X139106100Y-101205078D01*
X139097990Y-101189906D01*
X139027080Y-101057242D01*
X138978417Y-100896823D01*
X138966103Y-100771803D01*
X138966103Y-99888197D01*
X138978416Y-99763178D01*
X139027079Y-99602759D01*
X139106098Y-99454923D01*
X139212444Y-99325341D01*
X139342025Y-99218996D01*
X139406765Y-99184392D01*
X139489861Y-99139976D01*
X139650280Y-99091313D01*
X139817103Y-99074883D01*
X139983925Y-99091313D01*
X139983925Y-99091313D01*
G37*
G36*
X145063925Y-99091313D02*
G01*
X145224344Y-99139976D01*
X145372180Y-99218995D01*
X145501762Y-99325341D01*
X145608107Y-99454922D01*
X145608108Y-99454924D01*
X145687127Y-99602758D01*
X145735790Y-99763177D01*
X145748103Y-99888196D01*
X145748103Y-100771803D01*
X145735790Y-100896822D01*
X145687127Y-101057242D01*
X145616217Y-101189906D01*
X145608107Y-101205078D01*
X145501762Y-101334659D01*
X145372181Y-101441004D01*
X145372179Y-101441005D01*
X145224345Y-101520024D01*
X145063926Y-101568687D01*
X144897103Y-101585117D01*
X144730281Y-101568687D01*
X144569862Y-101520024D01*
X144422028Y-101441005D01*
X144422026Y-101441004D01*
X144292445Y-101334659D01*
X144186100Y-101205078D01*
X144177990Y-101189906D01*
X144107080Y-101057242D01*
X144058417Y-100896823D01*
X144046103Y-100771803D01*
X144046103Y-99888197D01*
X144058416Y-99763178D01*
X144107079Y-99602759D01*
X144186098Y-99454923D01*
X144292444Y-99325341D01*
X144422025Y-99218996D01*
X144486765Y-99184392D01*
X144569861Y-99139976D01*
X144730280Y-99091313D01*
X144897103Y-99074883D01*
X145063925Y-99091313D01*
X145063925Y-99091313D01*
G37*
G36*
X137443925Y-99091313D02*
G01*
X137604344Y-99139976D01*
X137752180Y-99218995D01*
X137881762Y-99325341D01*
X137988107Y-99454922D01*
X137988108Y-99454924D01*
X138067127Y-99602758D01*
X138115790Y-99763177D01*
X138128103Y-99888196D01*
X138128103Y-100771803D01*
X138115790Y-100896822D01*
X138067127Y-101057242D01*
X137996217Y-101189906D01*
X137988107Y-101205078D01*
X137881762Y-101334659D01*
X137752181Y-101441004D01*
X137752179Y-101441005D01*
X137604345Y-101520024D01*
X137443926Y-101568687D01*
X137277103Y-101585117D01*
X137110281Y-101568687D01*
X136949862Y-101520024D01*
X136802028Y-101441005D01*
X136802026Y-101441004D01*
X136672445Y-101334659D01*
X136566100Y-101205078D01*
X136557990Y-101189906D01*
X136487080Y-101057242D01*
X136438417Y-100896823D01*
X136426103Y-100771803D01*
X136426103Y-99888197D01*
X136438416Y-99763178D01*
X136487079Y-99602759D01*
X136566098Y-99454923D01*
X136672444Y-99325341D01*
X136802025Y-99218996D01*
X136866765Y-99184392D01*
X136949861Y-99139976D01*
X137110280Y-99091313D01*
X137277103Y-99074883D01*
X137443925Y-99091313D01*
X137443925Y-99091313D01*
G37*
G36*
X133048103Y-101581000D02*
G01*
X131346103Y-101581000D01*
X131346103Y-99079000D01*
X133048103Y-99079000D01*
X133048103Y-101581000D01*
X133048103Y-101581000D01*
G37*
G36*
X157061000Y-101581000D02*
G01*
X155359000Y-101581000D01*
X155359000Y-99079000D01*
X157061000Y-99079000D01*
X157061000Y-101581000D01*
X157061000Y-101581000D01*
G37*
G36*
X188276000Y-101281000D02*
G01*
X186374000Y-101281000D01*
X186374000Y-99379000D01*
X188276000Y-99379000D01*
X188276000Y-101281000D01*
X188276000Y-101281000D01*
G37*
G36*
X110103228Y-98876703D02*
G01*
X110258100Y-98940853D01*
X110397481Y-99033985D01*
X110516015Y-99152519D01*
X110609147Y-99291900D01*
X110673297Y-99446772D01*
X110706000Y-99611184D01*
X110706000Y-99778816D01*
X110673297Y-99943228D01*
X110609147Y-100098100D01*
X110516015Y-100237481D01*
X110397481Y-100356015D01*
X110258100Y-100449147D01*
X110103228Y-100513297D01*
X109938816Y-100546000D01*
X109771184Y-100546000D01*
X109606772Y-100513297D01*
X109451900Y-100449147D01*
X109312519Y-100356015D01*
X109193985Y-100237481D01*
X109100853Y-100098100D01*
X109036703Y-99943228D01*
X109004000Y-99778816D01*
X109004000Y-99611184D01*
X109036703Y-99446772D01*
X109100853Y-99291900D01*
X109193985Y-99152519D01*
X109312519Y-99033985D01*
X109451900Y-98940853D01*
X109606772Y-98876703D01*
X109771184Y-98844000D01*
X109938816Y-98844000D01*
X110103228Y-98876703D01*
X110103228Y-98876703D01*
G37*
G36*
X118358228Y-98876703D02*
G01*
X118513100Y-98940853D01*
X118652481Y-99033985D01*
X118771015Y-99152519D01*
X118864147Y-99291900D01*
X118928297Y-99446772D01*
X118961000Y-99611184D01*
X118961000Y-99778816D01*
X118928297Y-99943228D01*
X118864147Y-100098100D01*
X118771015Y-100237481D01*
X118652481Y-100356015D01*
X118513100Y-100449147D01*
X118358228Y-100513297D01*
X118193816Y-100546000D01*
X118026184Y-100546000D01*
X117861772Y-100513297D01*
X117706900Y-100449147D01*
X117567519Y-100356015D01*
X117448985Y-100237481D01*
X117355853Y-100098100D01*
X117291703Y-99943228D01*
X117259000Y-99778816D01*
X117259000Y-99611184D01*
X117291703Y-99446772D01*
X117355853Y-99291900D01*
X117448985Y-99152519D01*
X117567519Y-99033985D01*
X117706900Y-98940853D01*
X117861772Y-98876703D01*
X118026184Y-98844000D01*
X118193816Y-98844000D01*
X118358228Y-98876703D01*
X118358228Y-98876703D01*
G37*
G36*
X107603228Y-98876703D02*
G01*
X107758100Y-98940853D01*
X107897481Y-99033985D01*
X108016015Y-99152519D01*
X108109147Y-99291900D01*
X108173297Y-99446772D01*
X108206000Y-99611184D01*
X108206000Y-99778816D01*
X108173297Y-99943228D01*
X108109147Y-100098100D01*
X108016015Y-100237481D01*
X107897481Y-100356015D01*
X107758100Y-100449147D01*
X107603228Y-100513297D01*
X107438816Y-100546000D01*
X107271184Y-100546000D01*
X107106772Y-100513297D01*
X106951900Y-100449147D01*
X106812519Y-100356015D01*
X106693985Y-100237481D01*
X106600853Y-100098100D01*
X106536703Y-99943228D01*
X106504000Y-99778816D01*
X106504000Y-99611184D01*
X106536703Y-99446772D01*
X106600853Y-99291900D01*
X106693985Y-99152519D01*
X106812519Y-99033985D01*
X106951900Y-98940853D01*
X107106772Y-98876703D01*
X107271184Y-98844000D01*
X107438816Y-98844000D01*
X107603228Y-98876703D01*
X107603228Y-98876703D01*
G37*
G36*
X128436823Y-98856313D02*
G01*
X128597242Y-98904976D01*
X128634296Y-98924782D01*
X128745078Y-98983996D01*
X128874659Y-99090341D01*
X128981004Y-99219922D01*
X128981005Y-99219924D01*
X129060024Y-99367758D01*
X129108687Y-99528177D01*
X129125117Y-99695000D01*
X129108687Y-99861823D01*
X129060024Y-100022242D01*
X129019477Y-100098100D01*
X128981004Y-100170078D01*
X128874659Y-100299659D01*
X128745078Y-100406004D01*
X128745076Y-100406005D01*
X128597242Y-100485024D01*
X128436823Y-100533687D01*
X128311804Y-100546000D01*
X128228196Y-100546000D01*
X128103177Y-100533687D01*
X127942758Y-100485024D01*
X127794924Y-100406005D01*
X127794922Y-100406004D01*
X127665341Y-100299659D01*
X127558996Y-100170078D01*
X127520523Y-100098100D01*
X127479976Y-100022242D01*
X127431313Y-99861823D01*
X127414883Y-99695000D01*
X127431313Y-99528177D01*
X127479976Y-99367758D01*
X127558995Y-99219924D01*
X127558996Y-99219922D01*
X127665341Y-99090341D01*
X127794922Y-98983996D01*
X127905704Y-98924782D01*
X127942758Y-98904976D01*
X128103177Y-98856313D01*
X128228196Y-98844000D01*
X128311804Y-98844000D01*
X128436823Y-98856313D01*
X128436823Y-98856313D01*
G37*
G36*
X114279642Y-98924781D02*
G01*
X114422599Y-98983996D01*
X114425416Y-98985163D01*
X114556608Y-99072822D01*
X114668178Y-99184392D01*
X114740012Y-99291900D01*
X114755838Y-99315586D01*
X114816219Y-99461358D01*
X114847000Y-99616107D01*
X114847000Y-99773893D01*
X114816219Y-99928642D01*
X114777448Y-100022242D01*
X114755837Y-100074416D01*
X114668178Y-100205608D01*
X114556608Y-100317178D01*
X114425416Y-100404837D01*
X114425415Y-100404838D01*
X114425414Y-100404838D01*
X114279642Y-100465219D01*
X114124893Y-100496000D01*
X113967107Y-100496000D01*
X113812358Y-100465219D01*
X113666586Y-100404838D01*
X113666585Y-100404838D01*
X113666584Y-100404837D01*
X113535392Y-100317178D01*
X113423822Y-100205608D01*
X113336163Y-100074416D01*
X113314552Y-100022242D01*
X113275781Y-99928642D01*
X113245000Y-99773893D01*
X113245000Y-99616107D01*
X113275781Y-99461358D01*
X113336162Y-99315586D01*
X113351988Y-99291900D01*
X113423822Y-99184392D01*
X113535392Y-99072822D01*
X113666584Y-98985163D01*
X113669401Y-98983996D01*
X113812358Y-98924781D01*
X113967107Y-98894000D01*
X114124893Y-98894000D01*
X114279642Y-98924781D01*
X114279642Y-98924781D01*
G37*
G36*
X187602395Y-96875546D02*
G01*
X187775466Y-96947234D01*
X187847069Y-96995078D01*
X187931227Y-97051310D01*
X188063690Y-97183773D01*
X188095249Y-97231005D01*
X188167766Y-97339534D01*
X188239454Y-97512605D01*
X188276000Y-97696333D01*
X188276000Y-97883667D01*
X188239454Y-98067395D01*
X188167766Y-98240466D01*
X188167765Y-98240467D01*
X188063690Y-98396227D01*
X187931227Y-98528690D01*
X187852818Y-98581081D01*
X187775466Y-98632766D01*
X187602395Y-98704454D01*
X187418667Y-98741000D01*
X187231333Y-98741000D01*
X187047605Y-98704454D01*
X186874534Y-98632766D01*
X186797182Y-98581081D01*
X186718773Y-98528690D01*
X186586310Y-98396227D01*
X186482235Y-98240467D01*
X186482234Y-98240466D01*
X186410546Y-98067395D01*
X186374000Y-97883667D01*
X186374000Y-97696333D01*
X186410546Y-97512605D01*
X186482234Y-97339534D01*
X186554751Y-97231005D01*
X186586310Y-97183773D01*
X186718773Y-97051310D01*
X186802931Y-96995078D01*
X186874534Y-96947234D01*
X187047605Y-96875546D01*
X187231333Y-96839000D01*
X187418667Y-96839000D01*
X187602395Y-96875546D01*
X187602395Y-96875546D01*
G37*
G36*
X171616823Y-95681313D02*
G01*
X171777242Y-95729976D01*
X171844361Y-95765852D01*
X171925078Y-95808996D01*
X172054659Y-95915341D01*
X172161004Y-96044922D01*
X172161005Y-96044924D01*
X172240024Y-96192758D01*
X172288687Y-96353177D01*
X172305117Y-96520000D01*
X172288687Y-96686823D01*
X172240024Y-96847242D01*
X172169114Y-96979906D01*
X172161004Y-96995078D01*
X172054659Y-97124659D01*
X171925078Y-97231004D01*
X171925076Y-97231005D01*
X171777242Y-97310024D01*
X171616823Y-97358687D01*
X171491804Y-97371000D01*
X171408196Y-97371000D01*
X171283177Y-97358687D01*
X171122758Y-97310024D01*
X170974924Y-97231005D01*
X170974922Y-97231004D01*
X170845341Y-97124659D01*
X170738996Y-96995078D01*
X170730886Y-96979906D01*
X170659976Y-96847242D01*
X170611313Y-96686823D01*
X170594883Y-96520000D01*
X170611313Y-96353177D01*
X170659976Y-96192758D01*
X170738995Y-96044924D01*
X170738996Y-96044922D01*
X170845341Y-95915341D01*
X170974922Y-95808996D01*
X171055639Y-95765852D01*
X171122758Y-95729976D01*
X171283177Y-95681313D01*
X171408196Y-95669000D01*
X171491804Y-95669000D01*
X171616823Y-95681313D01*
X171616823Y-95681313D01*
G37*
G36*
X181858228Y-95701703D02*
G01*
X182013100Y-95765853D01*
X182152481Y-95858985D01*
X182271015Y-95977519D01*
X182364147Y-96116900D01*
X182428297Y-96271772D01*
X182461000Y-96436184D01*
X182461000Y-96603816D01*
X182428297Y-96768228D01*
X182364147Y-96923100D01*
X182271015Y-97062481D01*
X182152481Y-97181015D01*
X182013100Y-97274147D01*
X181858228Y-97338297D01*
X181693816Y-97371000D01*
X181526184Y-97371000D01*
X181361772Y-97338297D01*
X181206900Y-97274147D01*
X181067519Y-97181015D01*
X180948985Y-97062481D01*
X180855853Y-96923100D01*
X180791703Y-96768228D01*
X180759000Y-96603816D01*
X180759000Y-96436184D01*
X180791703Y-96271772D01*
X180855853Y-96116900D01*
X180948985Y-95977519D01*
X181067519Y-95858985D01*
X181206900Y-95765853D01*
X181361772Y-95701703D01*
X181526184Y-95669000D01*
X181693816Y-95669000D01*
X181858228Y-95701703D01*
X181858228Y-95701703D01*
G37*
G36*
X167253228Y-94391703D02*
G01*
X167408100Y-94455853D01*
X167547481Y-94548985D01*
X167666015Y-94667519D01*
X167759147Y-94806900D01*
X167823297Y-94961772D01*
X167856000Y-95126184D01*
X167856000Y-95293816D01*
X167823297Y-95458228D01*
X167759147Y-95613100D01*
X167666015Y-95752481D01*
X167547481Y-95871015D01*
X167408100Y-95964147D01*
X167253228Y-96028297D01*
X167088816Y-96061000D01*
X166921184Y-96061000D01*
X166756772Y-96028297D01*
X166601900Y-95964147D01*
X166462519Y-95871015D01*
X166343985Y-95752481D01*
X166250853Y-95613100D01*
X166186703Y-95458228D01*
X166154000Y-95293816D01*
X166154000Y-95126184D01*
X166186703Y-94961772D01*
X166250853Y-94806900D01*
X166343985Y-94667519D01*
X166462519Y-94548985D01*
X166601900Y-94455853D01*
X166756772Y-94391703D01*
X166921184Y-94359000D01*
X167088816Y-94359000D01*
X167253228Y-94391703D01*
X167253228Y-94391703D01*
G37*
G36*
X107603228Y-93996703D02*
G01*
X107758100Y-94060853D01*
X107897481Y-94153985D01*
X108016015Y-94272519D01*
X108109147Y-94411900D01*
X108173297Y-94566772D01*
X108206000Y-94731184D01*
X108206000Y-94898816D01*
X108173297Y-95063228D01*
X108109147Y-95218100D01*
X108016015Y-95357481D01*
X107897481Y-95476015D01*
X107758100Y-95569147D01*
X107603228Y-95633297D01*
X107438816Y-95666000D01*
X107271184Y-95666000D01*
X107106772Y-95633297D01*
X106951900Y-95569147D01*
X106812519Y-95476015D01*
X106693985Y-95357481D01*
X106600853Y-95218100D01*
X106536703Y-95063228D01*
X106504000Y-94898816D01*
X106504000Y-94731184D01*
X106536703Y-94566772D01*
X106600853Y-94411900D01*
X106693985Y-94272519D01*
X106812519Y-94153985D01*
X106951900Y-94060853D01*
X107106772Y-93996703D01*
X107271184Y-93964000D01*
X107438816Y-93964000D01*
X107603228Y-93996703D01*
X107603228Y-93996703D01*
G37*
G36*
X110103228Y-93996703D02*
G01*
X110258100Y-94060853D01*
X110397481Y-94153985D01*
X110516015Y-94272519D01*
X110609147Y-94411900D01*
X110673297Y-94566772D01*
X110706000Y-94731184D01*
X110706000Y-94898816D01*
X110673297Y-95063228D01*
X110609147Y-95218100D01*
X110516015Y-95357481D01*
X110397481Y-95476015D01*
X110258100Y-95569147D01*
X110103228Y-95633297D01*
X109938816Y-95666000D01*
X109771184Y-95666000D01*
X109606772Y-95633297D01*
X109451900Y-95569147D01*
X109312519Y-95476015D01*
X109193985Y-95357481D01*
X109100853Y-95218100D01*
X109036703Y-95063228D01*
X109004000Y-94898816D01*
X109004000Y-94731184D01*
X109036703Y-94566772D01*
X109100853Y-94411900D01*
X109193985Y-94272519D01*
X109312519Y-94153985D01*
X109451900Y-94060853D01*
X109606772Y-93996703D01*
X109771184Y-93964000D01*
X109938816Y-93964000D01*
X110103228Y-93996703D01*
X110103228Y-93996703D01*
G37*
G36*
X128518228Y-93993229D02*
G01*
X128673100Y-94057379D01*
X128812481Y-94150511D01*
X128931015Y-94269045D01*
X129024147Y-94408426D01*
X129088297Y-94563298D01*
X129121000Y-94727710D01*
X129121000Y-94895342D01*
X129088297Y-95059754D01*
X129024147Y-95214626D01*
X128931015Y-95354007D01*
X128812481Y-95472541D01*
X128673100Y-95565673D01*
X128518228Y-95629823D01*
X128353816Y-95662526D01*
X128186184Y-95662526D01*
X128021772Y-95629823D01*
X127866900Y-95565673D01*
X127727519Y-95472541D01*
X127608985Y-95354007D01*
X127515853Y-95214626D01*
X127451703Y-95059754D01*
X127419000Y-94895342D01*
X127419000Y-94727710D01*
X127451703Y-94563298D01*
X127515853Y-94408426D01*
X127608985Y-94269045D01*
X127727519Y-94150511D01*
X127866900Y-94057379D01*
X128021772Y-93993229D01*
X128186184Y-93960526D01*
X128353816Y-93960526D01*
X128518228Y-93993229D01*
X128518228Y-93993229D01*
G37*
G36*
X118276823Y-93972839D02*
G01*
X118437242Y-94021502D01*
X118510862Y-94060853D01*
X118585078Y-94100522D01*
X118714659Y-94206867D01*
X118821004Y-94336448D01*
X118821005Y-94336450D01*
X118900024Y-94484284D01*
X118948687Y-94644703D01*
X118965117Y-94811526D01*
X118948687Y-94978349D01*
X118900024Y-95138768D01*
X118857620Y-95218100D01*
X118821004Y-95286604D01*
X118714659Y-95416185D01*
X118585078Y-95522530D01*
X118585076Y-95522531D01*
X118437242Y-95601550D01*
X118276823Y-95650213D01*
X118151804Y-95662526D01*
X118068196Y-95662526D01*
X117943177Y-95650213D01*
X117782758Y-95601550D01*
X117634924Y-95522531D01*
X117634922Y-95522530D01*
X117505341Y-95416185D01*
X117398996Y-95286604D01*
X117362380Y-95218100D01*
X117319976Y-95138768D01*
X117271313Y-94978349D01*
X117254883Y-94811526D01*
X117271313Y-94644703D01*
X117319976Y-94484284D01*
X117398995Y-94336450D01*
X117398996Y-94336448D01*
X117505341Y-94206867D01*
X117634922Y-94100522D01*
X117709138Y-94060853D01*
X117782758Y-94021502D01*
X117943177Y-93972839D01*
X118068196Y-93960526D01*
X118151804Y-93960526D01*
X118276823Y-93972839D01*
X118276823Y-93972839D01*
G37*
G36*
X114279642Y-94044781D02*
G01*
X114414212Y-94100522D01*
X114425416Y-94105163D01*
X114556608Y-94192822D01*
X114668178Y-94304392D01*
X114740012Y-94411900D01*
X114755838Y-94435586D01*
X114816219Y-94581358D01*
X114847000Y-94736107D01*
X114847000Y-94893893D01*
X114816219Y-95048642D01*
X114778887Y-95138768D01*
X114755837Y-95194416D01*
X114668178Y-95325608D01*
X114556608Y-95437178D01*
X114425416Y-95524837D01*
X114425415Y-95524838D01*
X114425414Y-95524838D01*
X114279642Y-95585219D01*
X114124893Y-95616000D01*
X113967107Y-95616000D01*
X113812358Y-95585219D01*
X113666586Y-95524838D01*
X113666585Y-95524838D01*
X113666584Y-95524837D01*
X113535392Y-95437178D01*
X113423822Y-95325608D01*
X113336163Y-95194416D01*
X113313113Y-95138768D01*
X113275781Y-95048642D01*
X113245000Y-94893893D01*
X113245000Y-94736107D01*
X113275781Y-94581358D01*
X113336162Y-94435586D01*
X113351988Y-94411900D01*
X113423822Y-94304392D01*
X113535392Y-94192822D01*
X113666584Y-94105163D01*
X113677788Y-94100522D01*
X113812358Y-94044781D01*
X113967107Y-94014000D01*
X114124893Y-94014000D01*
X114279642Y-94044781D01*
X114279642Y-94044781D01*
G37*
G36*
X188276000Y-94931000D02*
G01*
X186374000Y-94931000D01*
X186374000Y-93029000D01*
X188276000Y-93029000D01*
X188276000Y-94931000D01*
X188276000Y-94931000D01*
G37*
G36*
X134903925Y-91471313D02*
G01*
X135064344Y-91519976D01*
X135212180Y-91598995D01*
X135301014Y-91671900D01*
X135341762Y-91705341D01*
X135448107Y-91834922D01*
X135448108Y-91834924D01*
X135527127Y-91982758D01*
X135575790Y-92143177D01*
X135588103Y-92268196D01*
X135588103Y-93151803D01*
X135575790Y-93276822D01*
X135527127Y-93437242D01*
X135512745Y-93464148D01*
X135448107Y-93585078D01*
X135341762Y-93714659D01*
X135212181Y-93821004D01*
X135212179Y-93821005D01*
X135064345Y-93900024D01*
X134903926Y-93948687D01*
X134737103Y-93965117D01*
X134570281Y-93948687D01*
X134409862Y-93900024D01*
X134262028Y-93821005D01*
X134262026Y-93821004D01*
X134132445Y-93714659D01*
X134026100Y-93585078D01*
X133961462Y-93464148D01*
X133947080Y-93437242D01*
X133898417Y-93276823D01*
X133886103Y-93151803D01*
X133886103Y-92268197D01*
X133898416Y-92143178D01*
X133947079Y-91982759D01*
X134026098Y-91834923D01*
X134132444Y-91705341D01*
X134173192Y-91671900D01*
X134262025Y-91598996D01*
X134277197Y-91590886D01*
X134409861Y-91519976D01*
X134570280Y-91471313D01*
X134737103Y-91454883D01*
X134903925Y-91471313D01*
X134903925Y-91471313D01*
G37*
G36*
X158916822Y-91471313D02*
G01*
X159077241Y-91519976D01*
X159225077Y-91598995D01*
X159313911Y-91671900D01*
X159354659Y-91705341D01*
X159461004Y-91834922D01*
X159461005Y-91834924D01*
X159540024Y-91982758D01*
X159588687Y-92143177D01*
X159601000Y-92268196D01*
X159601000Y-93151803D01*
X159588687Y-93276822D01*
X159540024Y-93437242D01*
X159525642Y-93464148D01*
X159461004Y-93585078D01*
X159354659Y-93714659D01*
X159225078Y-93821004D01*
X159225076Y-93821005D01*
X159077242Y-93900024D01*
X158916823Y-93948687D01*
X158750000Y-93965117D01*
X158583178Y-93948687D01*
X158422759Y-93900024D01*
X158274925Y-93821005D01*
X158274923Y-93821004D01*
X158145342Y-93714659D01*
X158038997Y-93585078D01*
X157974359Y-93464148D01*
X157959977Y-93437242D01*
X157911314Y-93276823D01*
X157899000Y-93151803D01*
X157899000Y-92268197D01*
X157911313Y-92143178D01*
X157959976Y-91982759D01*
X158038995Y-91834923D01*
X158145341Y-91705341D01*
X158186089Y-91671900D01*
X158274922Y-91598996D01*
X158290094Y-91590886D01*
X158422758Y-91519976D01*
X158583177Y-91471313D01*
X158750000Y-91454883D01*
X158916822Y-91471313D01*
X158916822Y-91471313D01*
G37*
G36*
X161456822Y-91471313D02*
G01*
X161617241Y-91519976D01*
X161765077Y-91598995D01*
X161853911Y-91671900D01*
X161894659Y-91705341D01*
X162001004Y-91834922D01*
X162001005Y-91834924D01*
X162080024Y-91982758D01*
X162128687Y-92143177D01*
X162141000Y-92268196D01*
X162141000Y-93151803D01*
X162128687Y-93276822D01*
X162080024Y-93437242D01*
X162065642Y-93464148D01*
X162001004Y-93585078D01*
X161894659Y-93714659D01*
X161765078Y-93821004D01*
X161765076Y-93821005D01*
X161617242Y-93900024D01*
X161456823Y-93948687D01*
X161290000Y-93965117D01*
X161123178Y-93948687D01*
X160962759Y-93900024D01*
X160814925Y-93821005D01*
X160814923Y-93821004D01*
X160685342Y-93714659D01*
X160578997Y-93585078D01*
X160514359Y-93464148D01*
X160499977Y-93437242D01*
X160451314Y-93276823D01*
X160439000Y-93151803D01*
X160439000Y-92268197D01*
X160451313Y-92143178D01*
X160499976Y-91982759D01*
X160578995Y-91834923D01*
X160685341Y-91705341D01*
X160726089Y-91671900D01*
X160814922Y-91598996D01*
X160830094Y-91590886D01*
X160962758Y-91519976D01*
X161123177Y-91471313D01*
X161290000Y-91454883D01*
X161456822Y-91471313D01*
X161456822Y-91471313D01*
G37*
G36*
X156376822Y-91471313D02*
G01*
X156537241Y-91519976D01*
X156685077Y-91598995D01*
X156773911Y-91671900D01*
X156814659Y-91705341D01*
X156921004Y-91834922D01*
X156921005Y-91834924D01*
X157000024Y-91982758D01*
X157048687Y-92143177D01*
X157061000Y-92268196D01*
X157061000Y-93151803D01*
X157048687Y-93276822D01*
X157000024Y-93437242D01*
X156985642Y-93464148D01*
X156921004Y-93585078D01*
X156814659Y-93714659D01*
X156685078Y-93821004D01*
X156685076Y-93821005D01*
X156537242Y-93900024D01*
X156376823Y-93948687D01*
X156210000Y-93965117D01*
X156043178Y-93948687D01*
X155882759Y-93900024D01*
X155734925Y-93821005D01*
X155734923Y-93821004D01*
X155605342Y-93714659D01*
X155498997Y-93585078D01*
X155434359Y-93464148D01*
X155419977Y-93437242D01*
X155371314Y-93276823D01*
X155359000Y-93151803D01*
X155359000Y-92268197D01*
X155371313Y-92143178D01*
X155419976Y-91982759D01*
X155498995Y-91834923D01*
X155605341Y-91705341D01*
X155646089Y-91671900D01*
X155734922Y-91598996D01*
X155750094Y-91590886D01*
X155882758Y-91519976D01*
X156043177Y-91471313D01*
X156210000Y-91454883D01*
X156376822Y-91471313D01*
X156376822Y-91471313D01*
G37*
G36*
X163996822Y-91471313D02*
G01*
X164157241Y-91519976D01*
X164305077Y-91598995D01*
X164393911Y-91671900D01*
X164434659Y-91705341D01*
X164541004Y-91834922D01*
X164541005Y-91834924D01*
X164620024Y-91982758D01*
X164668687Y-92143177D01*
X164681000Y-92268196D01*
X164681000Y-93151803D01*
X164668687Y-93276822D01*
X164620024Y-93437242D01*
X164605642Y-93464148D01*
X164541004Y-93585078D01*
X164434659Y-93714659D01*
X164305078Y-93821004D01*
X164305076Y-93821005D01*
X164157242Y-93900024D01*
X163996823Y-93948687D01*
X163830000Y-93965117D01*
X163663178Y-93948687D01*
X163502759Y-93900024D01*
X163354925Y-93821005D01*
X163354923Y-93821004D01*
X163225342Y-93714659D01*
X163118997Y-93585078D01*
X163054359Y-93464148D01*
X163039977Y-93437242D01*
X162991314Y-93276823D01*
X162979000Y-93151803D01*
X162979000Y-92268197D01*
X162991313Y-92143178D01*
X163039976Y-91982759D01*
X163118995Y-91834923D01*
X163225341Y-91705341D01*
X163266089Y-91671900D01*
X163354922Y-91598996D01*
X163370094Y-91590886D01*
X163502758Y-91519976D01*
X163663177Y-91471313D01*
X163830000Y-91454883D01*
X163996822Y-91471313D01*
X163996822Y-91471313D01*
G37*
G36*
X142523925Y-91471313D02*
G01*
X142684344Y-91519976D01*
X142832180Y-91598995D01*
X142921014Y-91671900D01*
X142961762Y-91705341D01*
X143068107Y-91834922D01*
X143068108Y-91834924D01*
X143147127Y-91982758D01*
X143195790Y-92143177D01*
X143208103Y-92268196D01*
X143208103Y-93151803D01*
X143195790Y-93276822D01*
X143147127Y-93437242D01*
X143132745Y-93464148D01*
X143068107Y-93585078D01*
X142961762Y-93714659D01*
X142832181Y-93821004D01*
X142832179Y-93821005D01*
X142684345Y-93900024D01*
X142523926Y-93948687D01*
X142357103Y-93965117D01*
X142190281Y-93948687D01*
X142029862Y-93900024D01*
X141882028Y-93821005D01*
X141882026Y-93821004D01*
X141752445Y-93714659D01*
X141646100Y-93585078D01*
X141581462Y-93464148D01*
X141567080Y-93437242D01*
X141518417Y-93276823D01*
X141506103Y-93151803D01*
X141506103Y-92268197D01*
X141518416Y-92143178D01*
X141567079Y-91982759D01*
X141646098Y-91834923D01*
X141752444Y-91705341D01*
X141793192Y-91671900D01*
X141882025Y-91598996D01*
X141897197Y-91590886D01*
X142029861Y-91519976D01*
X142190280Y-91471313D01*
X142357103Y-91454883D01*
X142523925Y-91471313D01*
X142523925Y-91471313D01*
G37*
G36*
X145063925Y-91471313D02*
G01*
X145224344Y-91519976D01*
X145372180Y-91598995D01*
X145461014Y-91671900D01*
X145501762Y-91705341D01*
X145608107Y-91834922D01*
X145608108Y-91834924D01*
X145687127Y-91982758D01*
X145735790Y-92143177D01*
X145748103Y-92268196D01*
X145748103Y-93151803D01*
X145735790Y-93276822D01*
X145687127Y-93437242D01*
X145672745Y-93464148D01*
X145608107Y-93585078D01*
X145501762Y-93714659D01*
X145372181Y-93821004D01*
X145372179Y-93821005D01*
X145224345Y-93900024D01*
X145063926Y-93948687D01*
X144897103Y-93965117D01*
X144730281Y-93948687D01*
X144569862Y-93900024D01*
X144422028Y-93821005D01*
X144422026Y-93821004D01*
X144292445Y-93714659D01*
X144186100Y-93585078D01*
X144121462Y-93464148D01*
X144107080Y-93437242D01*
X144058417Y-93276823D01*
X144046103Y-93151803D01*
X144046103Y-92268197D01*
X144058416Y-92143178D01*
X144107079Y-91982759D01*
X144186098Y-91834923D01*
X144292444Y-91705341D01*
X144333192Y-91671900D01*
X144422025Y-91598996D01*
X144437197Y-91590886D01*
X144569861Y-91519976D01*
X144730280Y-91471313D01*
X144897103Y-91454883D01*
X145063925Y-91471313D01*
X145063925Y-91471313D01*
G37*
G36*
X132363925Y-91471313D02*
G01*
X132524344Y-91519976D01*
X132672180Y-91598995D01*
X132761014Y-91671900D01*
X132801762Y-91705341D01*
X132908107Y-91834922D01*
X132908108Y-91834924D01*
X132987127Y-91982758D01*
X133035790Y-92143177D01*
X133048103Y-92268196D01*
X133048103Y-93151803D01*
X133035790Y-93276822D01*
X132987127Y-93437242D01*
X132972745Y-93464148D01*
X132908107Y-93585078D01*
X132801762Y-93714659D01*
X132672181Y-93821004D01*
X132672179Y-93821005D01*
X132524345Y-93900024D01*
X132363926Y-93948687D01*
X132197103Y-93965117D01*
X132030281Y-93948687D01*
X131869862Y-93900024D01*
X131722028Y-93821005D01*
X131722026Y-93821004D01*
X131592445Y-93714659D01*
X131486100Y-93585078D01*
X131421462Y-93464148D01*
X131407080Y-93437242D01*
X131358417Y-93276823D01*
X131346103Y-93151803D01*
X131346103Y-92268197D01*
X131358416Y-92143178D01*
X131407079Y-91982759D01*
X131486098Y-91834923D01*
X131592444Y-91705341D01*
X131633192Y-91671900D01*
X131722025Y-91598996D01*
X131737197Y-91590886D01*
X131869861Y-91519976D01*
X132030280Y-91471313D01*
X132197103Y-91454883D01*
X132363925Y-91471313D01*
X132363925Y-91471313D01*
G37*
G36*
X137443925Y-91471313D02*
G01*
X137604344Y-91519976D01*
X137752180Y-91598995D01*
X137841014Y-91671900D01*
X137881762Y-91705341D01*
X137988107Y-91834922D01*
X137988108Y-91834924D01*
X138067127Y-91982758D01*
X138115790Y-92143177D01*
X138128103Y-92268196D01*
X138128103Y-93151803D01*
X138115790Y-93276822D01*
X138067127Y-93437242D01*
X138052745Y-93464148D01*
X137988107Y-93585078D01*
X137881762Y-93714659D01*
X137752181Y-93821004D01*
X137752179Y-93821005D01*
X137604345Y-93900024D01*
X137443926Y-93948687D01*
X137277103Y-93965117D01*
X137110281Y-93948687D01*
X136949862Y-93900024D01*
X136802028Y-93821005D01*
X136802026Y-93821004D01*
X136672445Y-93714659D01*
X136566100Y-93585078D01*
X136501462Y-93464148D01*
X136487080Y-93437242D01*
X136438417Y-93276823D01*
X136426103Y-93151803D01*
X136426103Y-92268197D01*
X136438416Y-92143178D01*
X136487079Y-91982759D01*
X136566098Y-91834923D01*
X136672444Y-91705341D01*
X136713192Y-91671900D01*
X136802025Y-91598996D01*
X136817197Y-91590886D01*
X136949861Y-91519976D01*
X137110280Y-91471313D01*
X137277103Y-91454883D01*
X137443925Y-91471313D01*
X137443925Y-91471313D01*
G37*
G36*
X139983925Y-91471313D02*
G01*
X140144344Y-91519976D01*
X140292180Y-91598995D01*
X140381014Y-91671900D01*
X140421762Y-91705341D01*
X140528107Y-91834922D01*
X140528108Y-91834924D01*
X140607127Y-91982758D01*
X140655790Y-92143177D01*
X140668103Y-92268196D01*
X140668103Y-93151803D01*
X140655790Y-93276822D01*
X140607127Y-93437242D01*
X140592745Y-93464148D01*
X140528107Y-93585078D01*
X140421762Y-93714659D01*
X140292181Y-93821004D01*
X140292179Y-93821005D01*
X140144345Y-93900024D01*
X139983926Y-93948687D01*
X139817103Y-93965117D01*
X139650281Y-93948687D01*
X139489862Y-93900024D01*
X139342028Y-93821005D01*
X139342026Y-93821004D01*
X139212445Y-93714659D01*
X139106100Y-93585078D01*
X139041462Y-93464148D01*
X139027080Y-93437242D01*
X138978417Y-93276823D01*
X138966103Y-93151803D01*
X138966103Y-92268197D01*
X138978416Y-92143178D01*
X139027079Y-91982759D01*
X139106098Y-91834923D01*
X139212444Y-91705341D01*
X139253192Y-91671900D01*
X139342025Y-91598996D01*
X139357197Y-91590886D01*
X139489861Y-91519976D01*
X139650280Y-91471313D01*
X139817103Y-91454883D01*
X139983925Y-91471313D01*
X139983925Y-91471313D01*
G37*
G36*
X147603925Y-91471313D02*
G01*
X147764344Y-91519976D01*
X147912180Y-91598995D01*
X148001014Y-91671900D01*
X148041762Y-91705341D01*
X148148107Y-91834922D01*
X148148108Y-91834924D01*
X148227127Y-91982758D01*
X148275790Y-92143177D01*
X148288103Y-92268196D01*
X148288103Y-93151803D01*
X148275790Y-93276822D01*
X148227127Y-93437242D01*
X148212745Y-93464148D01*
X148148107Y-93585078D01*
X148041762Y-93714659D01*
X147912181Y-93821004D01*
X147912179Y-93821005D01*
X147764345Y-93900024D01*
X147603926Y-93948687D01*
X147437103Y-93965117D01*
X147270281Y-93948687D01*
X147109862Y-93900024D01*
X146962028Y-93821005D01*
X146962026Y-93821004D01*
X146832445Y-93714659D01*
X146726100Y-93585078D01*
X146661462Y-93464148D01*
X146647080Y-93437242D01*
X146598417Y-93276823D01*
X146586103Y-93151803D01*
X146586103Y-92268197D01*
X146598416Y-92143178D01*
X146647079Y-91982759D01*
X146726098Y-91834923D01*
X146832444Y-91705341D01*
X146873192Y-91671900D01*
X146962025Y-91598996D01*
X146977197Y-91590886D01*
X147109861Y-91519976D01*
X147270280Y-91471313D01*
X147437103Y-91454883D01*
X147603925Y-91471313D01*
X147603925Y-91471313D01*
G37*
G36*
X167253228Y-91891703D02*
G01*
X167408100Y-91955853D01*
X167547481Y-92048985D01*
X167666015Y-92167519D01*
X167759147Y-92306900D01*
X167823297Y-92461772D01*
X167856000Y-92626184D01*
X167856000Y-92793816D01*
X167823297Y-92958228D01*
X167759147Y-93113100D01*
X167666015Y-93252481D01*
X167547481Y-93371015D01*
X167408100Y-93464147D01*
X167253228Y-93528297D01*
X167088816Y-93561000D01*
X166921184Y-93561000D01*
X166756772Y-93528297D01*
X166601900Y-93464147D01*
X166462519Y-93371015D01*
X166343985Y-93252481D01*
X166250853Y-93113100D01*
X166186703Y-92958228D01*
X166154000Y-92793816D01*
X166154000Y-92626184D01*
X166186703Y-92461772D01*
X166250853Y-92306900D01*
X166343985Y-92167519D01*
X166462519Y-92048985D01*
X166601900Y-91955853D01*
X166756772Y-91891703D01*
X166921184Y-91859000D01*
X167088816Y-91859000D01*
X167253228Y-91891703D01*
X167253228Y-91891703D01*
G37*
G36*
X181858228Y-91256703D02*
G01*
X182013100Y-91320853D01*
X182152481Y-91413985D01*
X182271015Y-91532519D01*
X182364147Y-91671900D01*
X182428297Y-91826772D01*
X182461000Y-91991184D01*
X182461000Y-92158816D01*
X182428297Y-92323228D01*
X182364147Y-92478100D01*
X182271015Y-92617481D01*
X182152481Y-92736015D01*
X182013100Y-92829147D01*
X181858228Y-92893297D01*
X181693816Y-92926000D01*
X181526184Y-92926000D01*
X181361772Y-92893297D01*
X181206900Y-92829147D01*
X181067519Y-92736015D01*
X180948985Y-92617481D01*
X180855853Y-92478100D01*
X180791703Y-92323228D01*
X180759000Y-92158816D01*
X180759000Y-91991184D01*
X180791703Y-91826772D01*
X180855853Y-91671900D01*
X180948985Y-91532519D01*
X181067519Y-91413985D01*
X181206900Y-91320853D01*
X181361772Y-91256703D01*
X181526184Y-91224000D01*
X181693816Y-91224000D01*
X181858228Y-91256703D01*
X181858228Y-91256703D01*
G37*
G36*
X171616823Y-91236313D02*
G01*
X171777242Y-91284976D01*
X171844361Y-91320852D01*
X171925078Y-91363996D01*
X172054659Y-91470341D01*
X172161004Y-91599922D01*
X172161005Y-91599924D01*
X172240024Y-91747758D01*
X172288687Y-91908177D01*
X172305117Y-92075000D01*
X172288687Y-92241823D01*
X172240024Y-92402242D01*
X172199477Y-92478100D01*
X172161004Y-92550078D01*
X172054659Y-92679659D01*
X171925078Y-92786004D01*
X171925076Y-92786005D01*
X171777242Y-92865024D01*
X171616823Y-92913687D01*
X171491804Y-92926000D01*
X171408196Y-92926000D01*
X171283177Y-92913687D01*
X171122758Y-92865024D01*
X170974924Y-92786005D01*
X170974922Y-92786004D01*
X170845341Y-92679659D01*
X170738996Y-92550078D01*
X170700523Y-92478100D01*
X170659976Y-92402242D01*
X170611313Y-92241823D01*
X170594883Y-92075000D01*
X170611313Y-91908177D01*
X170659976Y-91747758D01*
X170738995Y-91599924D01*
X170738996Y-91599922D01*
X170845341Y-91470341D01*
X170974922Y-91363996D01*
X171055639Y-91320852D01*
X171122758Y-91284976D01*
X171283177Y-91236313D01*
X171408196Y-91224000D01*
X171491804Y-91224000D01*
X171616823Y-91236313D01*
X171616823Y-91236313D01*
G37*
G36*
X187602395Y-90525546D02*
G01*
X187775466Y-90597234D01*
X187775467Y-90597235D01*
X187931227Y-90701310D01*
X188063690Y-90833773D01*
X188063691Y-90833775D01*
X188167766Y-90989534D01*
X188239454Y-91162605D01*
X188276000Y-91346333D01*
X188276000Y-91533667D01*
X188239454Y-91717395D01*
X188167766Y-91890466D01*
X188167765Y-91890467D01*
X188063690Y-92046227D01*
X187931227Y-92178690D01*
X187852818Y-92231081D01*
X187775466Y-92282766D01*
X187602395Y-92354454D01*
X187418667Y-92391000D01*
X187231333Y-92391000D01*
X187047605Y-92354454D01*
X186874534Y-92282766D01*
X186797182Y-92231081D01*
X186718773Y-92178690D01*
X186586310Y-92046227D01*
X186482235Y-91890467D01*
X186482234Y-91890466D01*
X186410546Y-91717395D01*
X186374000Y-91533667D01*
X186374000Y-91346333D01*
X186410546Y-91162605D01*
X186482234Y-90989534D01*
X186586309Y-90833775D01*
X186586310Y-90833773D01*
X186718773Y-90701310D01*
X186874533Y-90597235D01*
X186874534Y-90597234D01*
X187047605Y-90525546D01*
X187231333Y-90489000D01*
X187418667Y-90489000D01*
X187602395Y-90525546D01*
X187602395Y-90525546D01*
G37*
G36*
X171108823Y-87045313D02*
G01*
X171269242Y-87093976D01*
X171336361Y-87129852D01*
X171417078Y-87172996D01*
X171546659Y-87279341D01*
X171653004Y-87408922D01*
X171653005Y-87408924D01*
X171732024Y-87556758D01*
X171780687Y-87717177D01*
X171797117Y-87884000D01*
X171780687Y-88050823D01*
X171732024Y-88211242D01*
X171691477Y-88287100D01*
X171653004Y-88359078D01*
X171546659Y-88488659D01*
X171417078Y-88595004D01*
X171417076Y-88595005D01*
X171269242Y-88674024D01*
X171108823Y-88722687D01*
X170983804Y-88735000D01*
X170900196Y-88735000D01*
X170775177Y-88722687D01*
X170614758Y-88674024D01*
X170466924Y-88595005D01*
X170466922Y-88595004D01*
X170337341Y-88488659D01*
X170230996Y-88359078D01*
X170192523Y-88287100D01*
X170151976Y-88211242D01*
X170103313Y-88050823D01*
X170086883Y-87884000D01*
X170103313Y-87717177D01*
X170151976Y-87556758D01*
X170230995Y-87408924D01*
X170230996Y-87408922D01*
X170337341Y-87279341D01*
X170466922Y-87172996D01*
X170547639Y-87129852D01*
X170614758Y-87093976D01*
X170775177Y-87045313D01*
X170900196Y-87033000D01*
X170983804Y-87033000D01*
X171108823Y-87045313D01*
X171108823Y-87045313D01*
G37*
G36*
X148838228Y-87065703D02*
G01*
X148993100Y-87129853D01*
X149132481Y-87222985D01*
X149251015Y-87341519D01*
X149344147Y-87480900D01*
X149408297Y-87635772D01*
X149441000Y-87800184D01*
X149441000Y-87967816D01*
X149408297Y-88132228D01*
X149344147Y-88287100D01*
X149251015Y-88426481D01*
X149132481Y-88545015D01*
X148993100Y-88638147D01*
X148838228Y-88702297D01*
X148673816Y-88735000D01*
X148506184Y-88735000D01*
X148341772Y-88702297D01*
X148186900Y-88638147D01*
X148047519Y-88545015D01*
X147928985Y-88426481D01*
X147835853Y-88287100D01*
X147771703Y-88132228D01*
X147739000Y-87967816D01*
X147739000Y-87800184D01*
X147771703Y-87635772D01*
X147835853Y-87480900D01*
X147928985Y-87341519D01*
X148047519Y-87222985D01*
X148186900Y-87129853D01*
X148341772Y-87065703D01*
X148506184Y-87033000D01*
X148673816Y-87033000D01*
X148838228Y-87065703D01*
X148838228Y-87065703D01*
G37*
G36*
X158916823Y-87045313D02*
G01*
X159077242Y-87093976D01*
X159144361Y-87129852D01*
X159225078Y-87172996D01*
X159354659Y-87279341D01*
X159461004Y-87408922D01*
X159461005Y-87408924D01*
X159540024Y-87556758D01*
X159588687Y-87717177D01*
X159605117Y-87884000D01*
X159588687Y-88050823D01*
X159540024Y-88211242D01*
X159499477Y-88287100D01*
X159461004Y-88359078D01*
X159354659Y-88488659D01*
X159225078Y-88595004D01*
X159225076Y-88595005D01*
X159077242Y-88674024D01*
X158916823Y-88722687D01*
X158791804Y-88735000D01*
X158708196Y-88735000D01*
X158583177Y-88722687D01*
X158422758Y-88674024D01*
X158274924Y-88595005D01*
X158274922Y-88595004D01*
X158145341Y-88488659D01*
X158038996Y-88359078D01*
X158000523Y-88287100D01*
X157959976Y-88211242D01*
X157911313Y-88050823D01*
X157894883Y-87884000D01*
X157911313Y-87717177D01*
X157959976Y-87556758D01*
X158038995Y-87408924D01*
X158038996Y-87408922D01*
X158145341Y-87279341D01*
X158274922Y-87172996D01*
X158355639Y-87129852D01*
X158422758Y-87093976D01*
X158583177Y-87045313D01*
X158708196Y-87033000D01*
X158791804Y-87033000D01*
X158916823Y-87045313D01*
X158916823Y-87045313D01*
G37*
G36*
X161030228Y-87065703D02*
G01*
X161185100Y-87129853D01*
X161324481Y-87222985D01*
X161443015Y-87341519D01*
X161536147Y-87480900D01*
X161600297Y-87635772D01*
X161633000Y-87800184D01*
X161633000Y-87967816D01*
X161600297Y-88132228D01*
X161536147Y-88287100D01*
X161443015Y-88426481D01*
X161324481Y-88545015D01*
X161185100Y-88638147D01*
X161030228Y-88702297D01*
X160865816Y-88735000D01*
X160698184Y-88735000D01*
X160533772Y-88702297D01*
X160378900Y-88638147D01*
X160239519Y-88545015D01*
X160120985Y-88426481D01*
X160027853Y-88287100D01*
X159963703Y-88132228D01*
X159931000Y-87967816D01*
X159931000Y-87800184D01*
X159963703Y-87635772D01*
X160027853Y-87480900D01*
X160120985Y-87341519D01*
X160239519Y-87222985D01*
X160378900Y-87129853D01*
X160533772Y-87065703D01*
X160698184Y-87033000D01*
X160865816Y-87033000D01*
X161030228Y-87065703D01*
X161030228Y-87065703D01*
G37*
G36*
X188276000Y-88581000D02*
G01*
X186374000Y-88581000D01*
X186374000Y-86679000D01*
X188276000Y-86679000D01*
X188276000Y-88581000D01*
X188276000Y-88581000D01*
G37*
G36*
X175244205Y-85670461D02*
G01*
X175362153Y-85693922D01*
X175454194Y-85732047D01*
X175584359Y-85785963D01*
X175784342Y-85919587D01*
X175954413Y-86089658D01*
X176088037Y-86289641D01*
X176180078Y-86511848D01*
X176227000Y-86747741D01*
X176227000Y-86988259D01*
X176180078Y-87224152D01*
X176088037Y-87446359D01*
X175954413Y-87646342D01*
X175784342Y-87816413D01*
X175584359Y-87950037D01*
X175454194Y-88003953D01*
X175362153Y-88042078D01*
X175318178Y-88050825D01*
X175126259Y-88089000D01*
X174885741Y-88089000D01*
X174693822Y-88050825D01*
X174649847Y-88042078D01*
X174557806Y-88003953D01*
X174427641Y-87950037D01*
X174227658Y-87816413D01*
X174057587Y-87646342D01*
X173923963Y-87446359D01*
X173831922Y-87224152D01*
X173785000Y-86988259D01*
X173785000Y-86747741D01*
X173831922Y-86511848D01*
X173923963Y-86289641D01*
X174057587Y-86089658D01*
X174227658Y-85919587D01*
X174427641Y-85785963D01*
X174557806Y-85732047D01*
X174649847Y-85693922D01*
X174767795Y-85670461D01*
X174885741Y-85647000D01*
X175126259Y-85647000D01*
X175244205Y-85670461D01*
X175244205Y-85670461D01*
G37*
G36*
X180244205Y-85670461D02*
G01*
X180362153Y-85693922D01*
X180454194Y-85732047D01*
X180584359Y-85785963D01*
X180784342Y-85919587D01*
X180954413Y-86089658D01*
X181088037Y-86289641D01*
X181180078Y-86511848D01*
X181227000Y-86747741D01*
X181227000Y-86988259D01*
X181180078Y-87224152D01*
X181088037Y-87446359D01*
X180954413Y-87646342D01*
X180784342Y-87816413D01*
X180584359Y-87950037D01*
X180454194Y-88003953D01*
X180362153Y-88042078D01*
X180318178Y-88050825D01*
X180126259Y-88089000D01*
X179885741Y-88089000D01*
X179693822Y-88050825D01*
X179649847Y-88042078D01*
X179557806Y-88003953D01*
X179427641Y-87950037D01*
X179227658Y-87816413D01*
X179057587Y-87646342D01*
X178923963Y-87446359D01*
X178831922Y-87224152D01*
X178785000Y-86988259D01*
X178785000Y-86747741D01*
X178831922Y-86511848D01*
X178923963Y-86289641D01*
X179057587Y-86089658D01*
X179227658Y-85919587D01*
X179427641Y-85785963D01*
X179557806Y-85732047D01*
X179649847Y-85693922D01*
X179767795Y-85670461D01*
X179885741Y-85647000D01*
X180126259Y-85647000D01*
X180244205Y-85670461D01*
X180244205Y-85670461D01*
G37*
G36*
X138061000Y-86245000D02*
G01*
X136259000Y-86245000D01*
X136259000Y-84443000D01*
X138061000Y-84443000D01*
X138061000Y-86245000D01*
X138061000Y-86245000D01*
G37*
G36*
X139810442Y-84449518D02*
G01*
X139876627Y-84456037D01*
X140046466Y-84507557D01*
X140202991Y-84591222D01*
X140238729Y-84620552D01*
X140340186Y-84703814D01*
X140423448Y-84805271D01*
X140452778Y-84841009D01*
X140536443Y-84997534D01*
X140587963Y-85167373D01*
X140605359Y-85344000D01*
X140587963Y-85520627D01*
X140536443Y-85690466D01*
X140452778Y-85846991D01*
X140423448Y-85882729D01*
X140340186Y-85984186D01*
X140238729Y-86067448D01*
X140202991Y-86096778D01*
X140046466Y-86180443D01*
X139876627Y-86231963D01*
X139810442Y-86238482D01*
X139744260Y-86245000D01*
X139655740Y-86245000D01*
X139589558Y-86238482D01*
X139523373Y-86231963D01*
X139353534Y-86180443D01*
X139197009Y-86096778D01*
X139161271Y-86067448D01*
X139059814Y-85984186D01*
X138976552Y-85882729D01*
X138947222Y-85846991D01*
X138863557Y-85690466D01*
X138812037Y-85520627D01*
X138794641Y-85344000D01*
X138812037Y-85167373D01*
X138863557Y-84997534D01*
X138947222Y-84841009D01*
X138976552Y-84805271D01*
X139059814Y-84703814D01*
X139161271Y-84620552D01*
X139197009Y-84591222D01*
X139353534Y-84507557D01*
X139523373Y-84456037D01*
X139589558Y-84449518D01*
X139655740Y-84443000D01*
X139744260Y-84443000D01*
X139810442Y-84449518D01*
X139810442Y-84449518D01*
G37*
G36*
X142350442Y-84449518D02*
G01*
X142416627Y-84456037D01*
X142586466Y-84507557D01*
X142742991Y-84591222D01*
X142778729Y-84620552D01*
X142880186Y-84703814D01*
X142963448Y-84805271D01*
X142992778Y-84841009D01*
X143076443Y-84997534D01*
X143127963Y-85167373D01*
X143145359Y-85344000D01*
X143127963Y-85520627D01*
X143076443Y-85690466D01*
X142992778Y-85846991D01*
X142963448Y-85882729D01*
X142880186Y-85984186D01*
X142778729Y-86067448D01*
X142742991Y-86096778D01*
X142586466Y-86180443D01*
X142416627Y-86231963D01*
X142350442Y-86238482D01*
X142284260Y-86245000D01*
X142195740Y-86245000D01*
X142129558Y-86238482D01*
X142063373Y-86231963D01*
X141893534Y-86180443D01*
X141737009Y-86096778D01*
X141701271Y-86067448D01*
X141599814Y-85984186D01*
X141516552Y-85882729D01*
X141487222Y-85846991D01*
X141403557Y-85690466D01*
X141352037Y-85520627D01*
X141334641Y-85344000D01*
X141352037Y-85167373D01*
X141403557Y-84997534D01*
X141487222Y-84841009D01*
X141516552Y-84805271D01*
X141599814Y-84703814D01*
X141701271Y-84620552D01*
X141737009Y-84591222D01*
X141893534Y-84507557D01*
X142063373Y-84456037D01*
X142129558Y-84449518D01*
X142195740Y-84443000D01*
X142284260Y-84443000D01*
X142350442Y-84449518D01*
X142350442Y-84449518D01*
G37*
G36*
X187602395Y-84175546D02*
G01*
X187775466Y-84247234D01*
X187776226Y-84247742D01*
X187931227Y-84351310D01*
X188063690Y-84483773D01*
X188116081Y-84562182D01*
X188167766Y-84639534D01*
X188239454Y-84812605D01*
X188276000Y-84996333D01*
X188276000Y-85183667D01*
X188239454Y-85367395D01*
X188167766Y-85540466D01*
X188116081Y-85617818D01*
X188063690Y-85696227D01*
X187931227Y-85828690D01*
X187903840Y-85846989D01*
X187775466Y-85932766D01*
X187602395Y-86004454D01*
X187418667Y-86041000D01*
X187231333Y-86041000D01*
X187047605Y-86004454D01*
X186874534Y-85932766D01*
X186746160Y-85846989D01*
X186718773Y-85828690D01*
X186586310Y-85696227D01*
X186533919Y-85617818D01*
X186482234Y-85540466D01*
X186410546Y-85367395D01*
X186374000Y-85183667D01*
X186374000Y-84996333D01*
X186410546Y-84812605D01*
X186482234Y-84639534D01*
X186533919Y-84562182D01*
X186586310Y-84483773D01*
X186718773Y-84351310D01*
X186873774Y-84247742D01*
X186874534Y-84247234D01*
X187047605Y-84175546D01*
X187231333Y-84139000D01*
X187418667Y-84139000D01*
X187602395Y-84175546D01*
X187602395Y-84175546D01*
G37*
G36*
X177862153Y-83193922D02*
G01*
X177954194Y-83232047D01*
X178084359Y-83285963D01*
X178284342Y-83419587D01*
X178454413Y-83589658D01*
X178588037Y-83789641D01*
X178680078Y-84011848D01*
X178712640Y-84175546D01*
X178727000Y-84247742D01*
X178727000Y-84488258D01*
X178684124Y-84703814D01*
X178680078Y-84724152D01*
X178588037Y-84946359D01*
X178454413Y-85146342D01*
X178284342Y-85316413D01*
X178084359Y-85450037D01*
X177954194Y-85503953D01*
X177862153Y-85542078D01*
X177744205Y-85565539D01*
X177626259Y-85589000D01*
X177385741Y-85589000D01*
X177149847Y-85542078D01*
X177057806Y-85503953D01*
X176927641Y-85450037D01*
X176727658Y-85316413D01*
X176557587Y-85146342D01*
X176423963Y-84946359D01*
X176331922Y-84724152D01*
X176327877Y-84703814D01*
X176285000Y-84488258D01*
X176285000Y-84247742D01*
X176299361Y-84175546D01*
X176331922Y-84011848D01*
X176423963Y-83789641D01*
X176557587Y-83589658D01*
X176727658Y-83419587D01*
X176927641Y-83285963D01*
X177057806Y-83232047D01*
X177149847Y-83193922D01*
X177385741Y-83147000D01*
X177626259Y-83147000D01*
X177862153Y-83193922D01*
X177862153Y-83193922D01*
G37*
M02*
