M48
; DRILL file {KiCad (5.1.2)-2} date 18.09.2021 22:48:42
; FORMAT={-:-/ absolute / metric / decimal}
; #@! TF.CreationDate,2021-09-18T22:48:42+02:00
; #@! TF.GenerationSoftware,Kicad,Pcbnew,(5.1.2)-2
; #@! TF.FileFunction,Plated,1,2,PTH
FMAT,2
METRIC
T1C0.800
T2C0.900
T3C1.000
T4C1.300
%
G90
G05
T1
X114.046Y-94.815
X114.046Y-99.695
X118.11Y-94.812
X128.27Y-94.812
X160.782Y-87.884
X170.942Y-87.884
X171.45Y-100.965
X181.61Y-100.965
X171.45Y-92.075
X181.61Y-92.075
X158.75Y-105.41
X161.25Y-105.41
X171.45Y-105.41
X181.61Y-105.41
X132.197Y-92.71
X132.197Y-100.33
X134.737Y-92.71
X134.737Y-100.33
X137.277Y-92.71
X137.277Y-100.33
X139.817Y-92.71
X139.817Y-100.33
X142.357Y-92.71
X142.357Y-100.33
X144.897Y-92.71
X144.897Y-100.33
X147.437Y-92.71
X147.437Y-100.33
X134.62Y-105.41
X137.12Y-105.41
X107.355Y-99.695
X109.855Y-99.695
X171.45Y-96.52
X181.61Y-96.52
X107.355Y-94.815
X109.855Y-94.815
X167.005Y-92.71
X167.005Y-95.21
X118.11Y-99.695
X128.27Y-99.695
X156.21Y-92.71
X156.21Y-100.33
X158.75Y-92.71
X158.75Y-100.33
X161.29Y-92.71
X161.29Y-100.33
X163.83Y-92.71
X163.83Y-100.33
X148.59Y-87.884
X158.75Y-87.884
X127.0Y-105.41
X129.5Y-105.41
T2
X187.325Y-97.79
X187.325Y-100.33
X187.325Y-104.14
X187.325Y-106.68
X187.325Y-91.44
X187.325Y-93.98
X187.325Y-85.09
X187.325Y-87.63
T3
X89.0Y-110.0
X91.54Y-110.0
X94.08Y-110.0
X96.62Y-110.0
X99.16Y-110.0
X101.7Y-110.0
X104.24Y-110.0
X106.78Y-110.0
X109.32Y-110.0
X111.86Y-110.0
X114.4Y-110.0
X116.94Y-110.0
X119.48Y-110.0
X122.02Y-110.0
X124.56Y-110.0
X127.1Y-110.0
X129.64Y-110.0
X132.18Y-110.0
X134.72Y-110.0
X137.26Y-110.0
X139.8Y-110.0
X142.34Y-110.0
X144.88Y-110.0
X147.42Y-110.0
X149.96Y-110.0
X152.5Y-110.0
X155.04Y-110.0
X157.58Y-110.0
X160.12Y-110.0
X162.66Y-110.0
X165.2Y-110.0
X167.74Y-110.0
X170.28Y-110.0
X172.82Y-110.0
X175.36Y-110.0
X177.9Y-110.0
X180.44Y-110.0
X182.98Y-110.0
X185.52Y-110.0
X188.06Y-110.0
X137.16Y-85.344
X139.7Y-85.344
X142.24Y-85.344
T4
X175.006Y-86.868
X177.506Y-84.368
X180.006Y-86.868
T0
M30
