G04 #@! TF.GenerationSoftware,KiCad,Pcbnew,(5.1.2)-2*
G04 #@! TF.CreationDate,2021-09-18T22:48:39+02:00*
G04 #@! TF.ProjectId,aZ80_Clock,615a3830-5f43-46c6-9f63-6b2e6b696361,rev?*
G04 #@! TF.SameCoordinates,Original*
G04 #@! TF.FileFunction,Copper,L2,Bot*
G04 #@! TF.FilePolarity,Positive*
%FSLAX46Y46*%
G04 Gerber Fmt 4.6, Leading zero omitted, Abs format (unit mm)*
G04 Created by KiCad (PCBNEW (5.1.2)-2) date 2021-09-18 22:48:39*
%MOMM*%
%LPD*%
G04 APERTURE LIST*
%ADD10C,1.600000*%
%ADD11R,1.600000X1.600000*%
%ADD12C,2.340000*%
%ADD13O,1.600000X2.400000*%
%ADD14R,1.600000X2.400000*%
%ADD15O,1.600000X1.600000*%
%ADD16O,1.700000X1.700000*%
%ADD17R,1.700000X1.700000*%
%ADD18C,1.500000*%
%ADD19C,1.800000*%
%ADD20R,1.800000X1.800000*%
%ADD21C,0.500000*%
%ADD22C,0.250000*%
%ADD23C,0.254000*%
G04 APERTURE END LIST*
D10*
X137120000Y-105410000D03*
D11*
X134620000Y-105410000D03*
D10*
X161250000Y-105410000D03*
D11*
X158750000Y-105410000D03*
D12*
X175006000Y-86868000D03*
X177506000Y-84368000D03*
X180006000Y-86868000D03*
D10*
X127000000Y-105410000D03*
X129500000Y-105410000D03*
D13*
X156210000Y-92710000D03*
X163830000Y-100330000D03*
X158750000Y-92710000D03*
X161290000Y-100330000D03*
X161290000Y-92710000D03*
X158750000Y-100330000D03*
X163830000Y-92710000D03*
D14*
X156210000Y-100330000D03*
D15*
X171450000Y-92075000D03*
D10*
X181610000Y-92075000D03*
D15*
X171450000Y-96520000D03*
D10*
X181610000Y-96520000D03*
D16*
X142240000Y-85344000D03*
X139700000Y-85344000D03*
D17*
X137160000Y-85344000D03*
D10*
X107355000Y-99695000D03*
X109855000Y-99695000D03*
D18*
X114046000Y-99695000D03*
X114046000Y-94815000D03*
D15*
X170942000Y-87884000D03*
D10*
X160782000Y-87884000D03*
D15*
X171450000Y-105410000D03*
D10*
X181610000Y-105410000D03*
D13*
X132197103Y-92710000D03*
X147437103Y-100330000D03*
X134737103Y-92710000D03*
X144897103Y-100330000D03*
X137277103Y-92710000D03*
X142357103Y-100330000D03*
X139817103Y-92710000D03*
X139817103Y-100330000D03*
X142357103Y-92710000D03*
X137277103Y-100330000D03*
X144897103Y-92710000D03*
X134737103Y-100330000D03*
X147437103Y-92710000D03*
D14*
X132197103Y-100330000D03*
D15*
X171450000Y-100965000D03*
D10*
X181610000Y-100965000D03*
D15*
X158750000Y-87884000D03*
D10*
X148590000Y-87884000D03*
D15*
X128270000Y-99695000D03*
D10*
X118110000Y-99695000D03*
D15*
X118110000Y-94811526D03*
D10*
X128270000Y-94811526D03*
D19*
X187325000Y-85090000D03*
D20*
X187325000Y-87630000D03*
D19*
X187325000Y-91440000D03*
D20*
X187325000Y-93980000D03*
D19*
X187325000Y-97790000D03*
D20*
X187325000Y-100330000D03*
D19*
X187325000Y-104140000D03*
D20*
X187325000Y-106680000D03*
D10*
X107355000Y-94815000D03*
X109855000Y-94815000D03*
X167005000Y-95210000D03*
X167005000Y-92710000D03*
D16*
X188060000Y-110000000D03*
X185520000Y-110000000D03*
X182980000Y-110000000D03*
X180440000Y-110000000D03*
X177900000Y-110000000D03*
X175360000Y-110000000D03*
X172820000Y-110000000D03*
X170280000Y-110000000D03*
X167740000Y-110000000D03*
X165200000Y-110000000D03*
X162660000Y-110000000D03*
X160120000Y-110000000D03*
X157580000Y-110000000D03*
X155040000Y-110000000D03*
X152500000Y-110000000D03*
X149960000Y-110000000D03*
X147420000Y-110000000D03*
X144880000Y-110000000D03*
X142340000Y-110000000D03*
X139800000Y-110000000D03*
X137260000Y-110000000D03*
X134720000Y-110000000D03*
X132180000Y-110000000D03*
X129640000Y-110000000D03*
X127100000Y-110000000D03*
X124560000Y-110000000D03*
X122020000Y-110000000D03*
X119480000Y-110000000D03*
X116940000Y-110000000D03*
X114400000Y-110000000D03*
X111860000Y-110000000D03*
X109320000Y-110000000D03*
X106780000Y-110000000D03*
X104240000Y-110000000D03*
X101700000Y-110000000D03*
X99160000Y-110000000D03*
X96620000Y-110000000D03*
X94080000Y-110000000D03*
X91540000Y-110000000D03*
D17*
X89000000Y-110000000D03*
D21*
X163830000Y-98630000D02*
X161466000Y-96266000D01*
X163830000Y-100330000D02*
X163830000Y-98630000D01*
X156210000Y-93110000D02*
X156210000Y-92710000D01*
X159366000Y-96266000D02*
X156210000Y-93110000D01*
X161466000Y-96266000D02*
X159366000Y-96266000D01*
X161290000Y-93110000D02*
X161290000Y-92710000D01*
X158750000Y-102030000D02*
X159590000Y-102870000D01*
X158750000Y-100330000D02*
X158750000Y-102030000D01*
X159590000Y-102870000D02*
X165100000Y-102870000D01*
X165100000Y-102870000D02*
X165862000Y-102108000D01*
X165862000Y-102108000D02*
X165862000Y-97682000D01*
X165862000Y-97682000D02*
X161290000Y-93110000D01*
D22*
X144897103Y-100330000D02*
X144897103Y-100730000D01*
X168402000Y-108458000D02*
X171450000Y-105410000D01*
X144897103Y-100730000D02*
X145034000Y-100866897D01*
X145034000Y-100866897D02*
X145034000Y-101854000D01*
X151638000Y-108458000D02*
X152908000Y-108458000D01*
X145034000Y-101854000D02*
X151638000Y-108458000D01*
X152625103Y-108458000D02*
X152908000Y-108458000D01*
X152908000Y-108458000D02*
X168402000Y-108458000D01*
X167894000Y-107696000D02*
X168910000Y-106680000D01*
X168910000Y-103505000D02*
X171450000Y-100965000D01*
X168910000Y-106680000D02*
X168910000Y-103505000D01*
X153162000Y-107696000D02*
X153670000Y-107696000D01*
X153670000Y-107696000D02*
X167894000Y-107696000D01*
X142357103Y-93110000D02*
X142357103Y-92710000D01*
X146177000Y-96929897D02*
X142357103Y-93110000D01*
X146177000Y-101727000D02*
X146177000Y-96929897D01*
X152146000Y-107696000D02*
X146177000Y-101727000D01*
X153670000Y-107696000D02*
X152146000Y-107696000D01*
D21*
X109855000Y-94815000D02*
X114046000Y-94815000D01*
X118106526Y-94815000D02*
X118110000Y-94811526D01*
X114046000Y-94815000D02*
X118106526Y-94815000D01*
X132207000Y-98933000D02*
X132207000Y-100457000D01*
X130429000Y-97155000D02*
X132207000Y-98933000D01*
X120523000Y-97155000D02*
X130429000Y-97155000D01*
X118979525Y-95611525D02*
X120523000Y-97155000D01*
X118110000Y-94811526D02*
X118909999Y-95611525D01*
X118909999Y-95611525D02*
X118979525Y-95611525D01*
X109855000Y-99695000D02*
X114046000Y-99695000D01*
X114046000Y-99695000D02*
X118110000Y-99695000D01*
X142240000Y-87376000D02*
X142240000Y-85344000D01*
X161290000Y-98630000D02*
X160450000Y-97790000D01*
X161290000Y-100330000D02*
X161290000Y-98630000D01*
X160450000Y-97790000D02*
X155575000Y-97790000D01*
X155575000Y-97790000D02*
X146685000Y-88900000D01*
X146685000Y-88900000D02*
X143764000Y-88900000D01*
X143764000Y-88900000D02*
X142240000Y-87376000D01*
X137277103Y-99930000D02*
X137160000Y-99812897D01*
X137277103Y-100330000D02*
X137277103Y-99930000D01*
X137160000Y-99812897D02*
X137160000Y-97155000D01*
X134737103Y-94732103D02*
X134737103Y-92710000D01*
X137160000Y-97155000D02*
X134737103Y-94732103D01*
X139700000Y-85344000D02*
X139700000Y-87376000D01*
X139700000Y-87376000D02*
X137414000Y-89662000D01*
X137385103Y-89662000D02*
X136877103Y-90170000D01*
X137414000Y-89662000D02*
X137385103Y-89662000D01*
X135616206Y-90170000D02*
X134737103Y-91049103D01*
X136877103Y-90170000D02*
X135616206Y-90170000D01*
X134737103Y-91049103D02*
X134737103Y-92710000D01*
X134737103Y-102030000D02*
X133477000Y-103290103D01*
X134737103Y-100330000D02*
X134737103Y-102030000D01*
X133477000Y-103290103D02*
X130262897Y-103290103D01*
X128270000Y-101297206D02*
X128270000Y-99695000D01*
X130262897Y-103290103D02*
X128270000Y-101297206D01*
X137160000Y-87122000D02*
X137160000Y-85344000D01*
X136652000Y-87630000D02*
X137160000Y-87122000D01*
X131572000Y-87630000D02*
X136652000Y-87630000D01*
X128270000Y-94811526D02*
X128270000Y-90932000D01*
X128270000Y-90932000D02*
X131572000Y-87630000D01*
D23*
G36*
X190625973Y-81685997D02*
G01*
X191008006Y-81723455D01*
X191342748Y-81824520D01*
X191651492Y-81988681D01*
X191922471Y-82209687D01*
X192145361Y-82479115D01*
X192311670Y-82786697D01*
X192415072Y-83120736D01*
X192455001Y-83500633D01*
X192455000Y-87545335D01*
X192445261Y-113581000D01*
X83595000Y-113581000D01*
X83595000Y-109150000D01*
X87511928Y-109150000D01*
X87511928Y-110850000D01*
X87524188Y-110974482D01*
X87560498Y-111094180D01*
X87619463Y-111204494D01*
X87698815Y-111301185D01*
X87795506Y-111380537D01*
X87905820Y-111439502D01*
X88025518Y-111475812D01*
X88150000Y-111488072D01*
X89850000Y-111488072D01*
X89974482Y-111475812D01*
X90094180Y-111439502D01*
X90204494Y-111380537D01*
X90301185Y-111301185D01*
X90380537Y-111204494D01*
X90439502Y-111094180D01*
X90460393Y-111025313D01*
X90484866Y-111055134D01*
X90710986Y-111240706D01*
X90968966Y-111378599D01*
X91248889Y-111463513D01*
X91467050Y-111485000D01*
X91612950Y-111485000D01*
X91831111Y-111463513D01*
X92111034Y-111378599D01*
X92369014Y-111240706D01*
X92595134Y-111055134D01*
X92780706Y-110829014D01*
X92810000Y-110774209D01*
X92839294Y-110829014D01*
X93024866Y-111055134D01*
X93250986Y-111240706D01*
X93508966Y-111378599D01*
X93788889Y-111463513D01*
X94007050Y-111485000D01*
X94152950Y-111485000D01*
X94371111Y-111463513D01*
X94651034Y-111378599D01*
X94909014Y-111240706D01*
X95135134Y-111055134D01*
X95320706Y-110829014D01*
X95350000Y-110774209D01*
X95379294Y-110829014D01*
X95564866Y-111055134D01*
X95790986Y-111240706D01*
X96048966Y-111378599D01*
X96328889Y-111463513D01*
X96547050Y-111485000D01*
X96692950Y-111485000D01*
X96911111Y-111463513D01*
X97191034Y-111378599D01*
X97449014Y-111240706D01*
X97675134Y-111055134D01*
X97860706Y-110829014D01*
X97890000Y-110774209D01*
X97919294Y-110829014D01*
X98104866Y-111055134D01*
X98330986Y-111240706D01*
X98588966Y-111378599D01*
X98868889Y-111463513D01*
X99087050Y-111485000D01*
X99232950Y-111485000D01*
X99451111Y-111463513D01*
X99731034Y-111378599D01*
X99989014Y-111240706D01*
X100215134Y-111055134D01*
X100400706Y-110829014D01*
X100430000Y-110774209D01*
X100459294Y-110829014D01*
X100644866Y-111055134D01*
X100870986Y-111240706D01*
X101128966Y-111378599D01*
X101408889Y-111463513D01*
X101627050Y-111485000D01*
X101772950Y-111485000D01*
X101991111Y-111463513D01*
X102271034Y-111378599D01*
X102529014Y-111240706D01*
X102755134Y-111055134D01*
X102940706Y-110829014D01*
X102970000Y-110774209D01*
X102999294Y-110829014D01*
X103184866Y-111055134D01*
X103410986Y-111240706D01*
X103668966Y-111378599D01*
X103948889Y-111463513D01*
X104167050Y-111485000D01*
X104312950Y-111485000D01*
X104531111Y-111463513D01*
X104811034Y-111378599D01*
X105069014Y-111240706D01*
X105295134Y-111055134D01*
X105480706Y-110829014D01*
X105510000Y-110774209D01*
X105539294Y-110829014D01*
X105724866Y-111055134D01*
X105950986Y-111240706D01*
X106208966Y-111378599D01*
X106488889Y-111463513D01*
X106707050Y-111485000D01*
X106852950Y-111485000D01*
X107071111Y-111463513D01*
X107351034Y-111378599D01*
X107609014Y-111240706D01*
X107835134Y-111055134D01*
X108020706Y-110829014D01*
X108050000Y-110774209D01*
X108079294Y-110829014D01*
X108264866Y-111055134D01*
X108490986Y-111240706D01*
X108748966Y-111378599D01*
X109028889Y-111463513D01*
X109247050Y-111485000D01*
X109392950Y-111485000D01*
X109611111Y-111463513D01*
X109891034Y-111378599D01*
X110149014Y-111240706D01*
X110375134Y-111055134D01*
X110560706Y-110829014D01*
X110590000Y-110774209D01*
X110619294Y-110829014D01*
X110804866Y-111055134D01*
X111030986Y-111240706D01*
X111288966Y-111378599D01*
X111568889Y-111463513D01*
X111787050Y-111485000D01*
X111932950Y-111485000D01*
X112151111Y-111463513D01*
X112431034Y-111378599D01*
X112689014Y-111240706D01*
X112915134Y-111055134D01*
X113100706Y-110829014D01*
X113130000Y-110774209D01*
X113159294Y-110829014D01*
X113344866Y-111055134D01*
X113570986Y-111240706D01*
X113828966Y-111378599D01*
X114108889Y-111463513D01*
X114327050Y-111485000D01*
X114472950Y-111485000D01*
X114691111Y-111463513D01*
X114971034Y-111378599D01*
X115229014Y-111240706D01*
X115455134Y-111055134D01*
X115640706Y-110829014D01*
X115670000Y-110774209D01*
X115699294Y-110829014D01*
X115884866Y-111055134D01*
X116110986Y-111240706D01*
X116368966Y-111378599D01*
X116648889Y-111463513D01*
X116867050Y-111485000D01*
X117012950Y-111485000D01*
X117231111Y-111463513D01*
X117511034Y-111378599D01*
X117769014Y-111240706D01*
X117995134Y-111055134D01*
X118180706Y-110829014D01*
X118210000Y-110774209D01*
X118239294Y-110829014D01*
X118424866Y-111055134D01*
X118650986Y-111240706D01*
X118908966Y-111378599D01*
X119188889Y-111463513D01*
X119407050Y-111485000D01*
X119552950Y-111485000D01*
X119771111Y-111463513D01*
X120051034Y-111378599D01*
X120309014Y-111240706D01*
X120535134Y-111055134D01*
X120720706Y-110829014D01*
X120750000Y-110774209D01*
X120779294Y-110829014D01*
X120964866Y-111055134D01*
X121190986Y-111240706D01*
X121448966Y-111378599D01*
X121728889Y-111463513D01*
X121947050Y-111485000D01*
X122092950Y-111485000D01*
X122311111Y-111463513D01*
X122591034Y-111378599D01*
X122849014Y-111240706D01*
X123075134Y-111055134D01*
X123260706Y-110829014D01*
X123290000Y-110774209D01*
X123319294Y-110829014D01*
X123504866Y-111055134D01*
X123730986Y-111240706D01*
X123988966Y-111378599D01*
X124268889Y-111463513D01*
X124487050Y-111485000D01*
X124632950Y-111485000D01*
X124851111Y-111463513D01*
X125131034Y-111378599D01*
X125389014Y-111240706D01*
X125615134Y-111055134D01*
X125800706Y-110829014D01*
X125830000Y-110774209D01*
X125859294Y-110829014D01*
X126044866Y-111055134D01*
X126270986Y-111240706D01*
X126528966Y-111378599D01*
X126808889Y-111463513D01*
X127027050Y-111485000D01*
X127172950Y-111485000D01*
X127391111Y-111463513D01*
X127671034Y-111378599D01*
X127929014Y-111240706D01*
X128155134Y-111055134D01*
X128340706Y-110829014D01*
X128375201Y-110764477D01*
X128444822Y-110881355D01*
X128639731Y-111097588D01*
X128873080Y-111271641D01*
X129135901Y-111396825D01*
X129283110Y-111441476D01*
X129513000Y-111320155D01*
X129513000Y-110127000D01*
X129493000Y-110127000D01*
X129493000Y-109873000D01*
X129513000Y-109873000D01*
X129513000Y-108679845D01*
X129283110Y-108558524D01*
X129135901Y-108603175D01*
X128873080Y-108728359D01*
X128639731Y-108902412D01*
X128444822Y-109118645D01*
X128375201Y-109235523D01*
X128340706Y-109170986D01*
X128155134Y-108944866D01*
X127929014Y-108759294D01*
X127671034Y-108621401D01*
X127391111Y-108536487D01*
X127172950Y-108515000D01*
X127027050Y-108515000D01*
X126808889Y-108536487D01*
X126528966Y-108621401D01*
X126270986Y-108759294D01*
X126044866Y-108944866D01*
X125859294Y-109170986D01*
X125830000Y-109225791D01*
X125800706Y-109170986D01*
X125615134Y-108944866D01*
X125389014Y-108759294D01*
X125131034Y-108621401D01*
X124851111Y-108536487D01*
X124632950Y-108515000D01*
X124487050Y-108515000D01*
X124268889Y-108536487D01*
X123988966Y-108621401D01*
X123730986Y-108759294D01*
X123504866Y-108944866D01*
X123319294Y-109170986D01*
X123290000Y-109225791D01*
X123260706Y-109170986D01*
X123075134Y-108944866D01*
X122849014Y-108759294D01*
X122591034Y-108621401D01*
X122311111Y-108536487D01*
X122092950Y-108515000D01*
X121947050Y-108515000D01*
X121728889Y-108536487D01*
X121448966Y-108621401D01*
X121190986Y-108759294D01*
X120964866Y-108944866D01*
X120779294Y-109170986D01*
X120750000Y-109225791D01*
X120720706Y-109170986D01*
X120535134Y-108944866D01*
X120309014Y-108759294D01*
X120051034Y-108621401D01*
X119771111Y-108536487D01*
X119552950Y-108515000D01*
X119407050Y-108515000D01*
X119188889Y-108536487D01*
X118908966Y-108621401D01*
X118650986Y-108759294D01*
X118424866Y-108944866D01*
X118239294Y-109170986D01*
X118210000Y-109225791D01*
X118180706Y-109170986D01*
X117995134Y-108944866D01*
X117769014Y-108759294D01*
X117511034Y-108621401D01*
X117231111Y-108536487D01*
X117012950Y-108515000D01*
X116867050Y-108515000D01*
X116648889Y-108536487D01*
X116368966Y-108621401D01*
X116110986Y-108759294D01*
X115884866Y-108944866D01*
X115699294Y-109170986D01*
X115670000Y-109225791D01*
X115640706Y-109170986D01*
X115455134Y-108944866D01*
X115229014Y-108759294D01*
X114971034Y-108621401D01*
X114691111Y-108536487D01*
X114472950Y-108515000D01*
X114327050Y-108515000D01*
X114108889Y-108536487D01*
X113828966Y-108621401D01*
X113570986Y-108759294D01*
X113344866Y-108944866D01*
X113159294Y-109170986D01*
X113130000Y-109225791D01*
X113100706Y-109170986D01*
X112915134Y-108944866D01*
X112689014Y-108759294D01*
X112431034Y-108621401D01*
X112151111Y-108536487D01*
X111932950Y-108515000D01*
X111787050Y-108515000D01*
X111568889Y-108536487D01*
X111288966Y-108621401D01*
X111030986Y-108759294D01*
X110804866Y-108944866D01*
X110619294Y-109170986D01*
X110590000Y-109225791D01*
X110560706Y-109170986D01*
X110375134Y-108944866D01*
X110149014Y-108759294D01*
X109891034Y-108621401D01*
X109611111Y-108536487D01*
X109392950Y-108515000D01*
X109247050Y-108515000D01*
X109028889Y-108536487D01*
X108748966Y-108621401D01*
X108490986Y-108759294D01*
X108264866Y-108944866D01*
X108079294Y-109170986D01*
X108050000Y-109225791D01*
X108020706Y-109170986D01*
X107835134Y-108944866D01*
X107609014Y-108759294D01*
X107351034Y-108621401D01*
X107071111Y-108536487D01*
X106852950Y-108515000D01*
X106707050Y-108515000D01*
X106488889Y-108536487D01*
X106208966Y-108621401D01*
X105950986Y-108759294D01*
X105724866Y-108944866D01*
X105539294Y-109170986D01*
X105510000Y-109225791D01*
X105480706Y-109170986D01*
X105295134Y-108944866D01*
X105069014Y-108759294D01*
X104811034Y-108621401D01*
X104531111Y-108536487D01*
X104312950Y-108515000D01*
X104167050Y-108515000D01*
X103948889Y-108536487D01*
X103668966Y-108621401D01*
X103410986Y-108759294D01*
X103184866Y-108944866D01*
X102999294Y-109170986D01*
X102970000Y-109225791D01*
X102940706Y-109170986D01*
X102755134Y-108944866D01*
X102529014Y-108759294D01*
X102271034Y-108621401D01*
X101991111Y-108536487D01*
X101772950Y-108515000D01*
X101627050Y-108515000D01*
X101408889Y-108536487D01*
X101128966Y-108621401D01*
X100870986Y-108759294D01*
X100644866Y-108944866D01*
X100459294Y-109170986D01*
X100430000Y-109225791D01*
X100400706Y-109170986D01*
X100215134Y-108944866D01*
X99989014Y-108759294D01*
X99731034Y-108621401D01*
X99451111Y-108536487D01*
X99232950Y-108515000D01*
X99087050Y-108515000D01*
X98868889Y-108536487D01*
X98588966Y-108621401D01*
X98330986Y-108759294D01*
X98104866Y-108944866D01*
X97919294Y-109170986D01*
X97890000Y-109225791D01*
X97860706Y-109170986D01*
X97675134Y-108944866D01*
X97449014Y-108759294D01*
X97191034Y-108621401D01*
X96911111Y-108536487D01*
X96692950Y-108515000D01*
X96547050Y-108515000D01*
X96328889Y-108536487D01*
X96048966Y-108621401D01*
X95790986Y-108759294D01*
X95564866Y-108944866D01*
X95379294Y-109170986D01*
X95350000Y-109225791D01*
X95320706Y-109170986D01*
X95135134Y-108944866D01*
X94909014Y-108759294D01*
X94651034Y-108621401D01*
X94371111Y-108536487D01*
X94152950Y-108515000D01*
X94007050Y-108515000D01*
X93788889Y-108536487D01*
X93508966Y-108621401D01*
X93250986Y-108759294D01*
X93024866Y-108944866D01*
X92839294Y-109170986D01*
X92810000Y-109225791D01*
X92780706Y-109170986D01*
X92595134Y-108944866D01*
X92369014Y-108759294D01*
X92111034Y-108621401D01*
X91831111Y-108536487D01*
X91612950Y-108515000D01*
X91467050Y-108515000D01*
X91248889Y-108536487D01*
X90968966Y-108621401D01*
X90710986Y-108759294D01*
X90484866Y-108944866D01*
X90460393Y-108974687D01*
X90439502Y-108905820D01*
X90380537Y-108795506D01*
X90301185Y-108698815D01*
X90204494Y-108619463D01*
X90094180Y-108560498D01*
X89974482Y-108524188D01*
X89850000Y-108511928D01*
X88150000Y-108511928D01*
X88025518Y-108524188D01*
X87905820Y-108560498D01*
X87795506Y-108619463D01*
X87698815Y-108698815D01*
X87619463Y-108795506D01*
X87560498Y-108905820D01*
X87524188Y-109025518D01*
X87511928Y-109150000D01*
X83595000Y-109150000D01*
X83595000Y-106402702D01*
X126186903Y-106402702D01*
X126258486Y-106646671D01*
X126513996Y-106767571D01*
X126788184Y-106836300D01*
X127070512Y-106850217D01*
X127350130Y-106808787D01*
X127616292Y-106713603D01*
X127741514Y-106646671D01*
X127813097Y-106402702D01*
X127000000Y-105589605D01*
X126186903Y-106402702D01*
X83595000Y-106402702D01*
X83595000Y-105480512D01*
X125559783Y-105480512D01*
X125601213Y-105760130D01*
X125696397Y-106026292D01*
X125763329Y-106151514D01*
X126007298Y-106223097D01*
X126820395Y-105410000D01*
X126007298Y-104596903D01*
X125763329Y-104668486D01*
X125642429Y-104923996D01*
X125573700Y-105198184D01*
X125559783Y-105480512D01*
X83595000Y-105480512D01*
X83595000Y-104417298D01*
X126186903Y-104417298D01*
X127000000Y-105230395D01*
X127813097Y-104417298D01*
X127741514Y-104173329D01*
X127486004Y-104052429D01*
X127211816Y-103983700D01*
X126929488Y-103969783D01*
X126649870Y-104011213D01*
X126383708Y-104106397D01*
X126258486Y-104173329D01*
X126186903Y-104417298D01*
X83595000Y-104417298D01*
X83595000Y-100687702D01*
X106541903Y-100687702D01*
X106613486Y-100931671D01*
X106868996Y-101052571D01*
X107143184Y-101121300D01*
X107425512Y-101135217D01*
X107705130Y-101093787D01*
X107971292Y-100998603D01*
X108096514Y-100931671D01*
X108168097Y-100687702D01*
X107355000Y-99874605D01*
X106541903Y-100687702D01*
X83595000Y-100687702D01*
X83595000Y-99765512D01*
X105914783Y-99765512D01*
X105956213Y-100045130D01*
X106051397Y-100311292D01*
X106118329Y-100436514D01*
X106362298Y-100508097D01*
X107175395Y-99695000D01*
X106362298Y-98881903D01*
X106118329Y-98953486D01*
X105997429Y-99208996D01*
X105928700Y-99483184D01*
X105914783Y-99765512D01*
X83595000Y-99765512D01*
X83595000Y-98702298D01*
X106541903Y-98702298D01*
X107355000Y-99515395D01*
X108168097Y-98702298D01*
X108096514Y-98458329D01*
X107841004Y-98337429D01*
X107566816Y-98268700D01*
X107284488Y-98254783D01*
X107004870Y-98296213D01*
X106738708Y-98391397D01*
X106613486Y-98458329D01*
X106541903Y-98702298D01*
X83595000Y-98702298D01*
X83595000Y-95807702D01*
X106541903Y-95807702D01*
X106613486Y-96051671D01*
X106868996Y-96172571D01*
X107143184Y-96241300D01*
X107425512Y-96255217D01*
X107705130Y-96213787D01*
X107971292Y-96118603D01*
X108096514Y-96051671D01*
X108168097Y-95807702D01*
X107355000Y-94994605D01*
X106541903Y-95807702D01*
X83595000Y-95807702D01*
X83595000Y-94885512D01*
X105914783Y-94885512D01*
X105956213Y-95165130D01*
X106051397Y-95431292D01*
X106118329Y-95556514D01*
X106362298Y-95628097D01*
X107175395Y-94815000D01*
X107534605Y-94815000D01*
X108347702Y-95628097D01*
X108591671Y-95556514D01*
X108605324Y-95527659D01*
X108740363Y-95729759D01*
X108940241Y-95929637D01*
X109175273Y-96086680D01*
X109436426Y-96194853D01*
X109713665Y-96250000D01*
X109996335Y-96250000D01*
X110273574Y-96194853D01*
X110534727Y-96086680D01*
X110769759Y-95929637D01*
X110969637Y-95729759D01*
X110989521Y-95700000D01*
X112395000Y-95700000D01*
X112395000Y-98810000D01*
X110989521Y-98810000D01*
X110969637Y-98780241D01*
X110769759Y-98580363D01*
X110534727Y-98423320D01*
X110273574Y-98315147D01*
X109996335Y-98260000D01*
X109713665Y-98260000D01*
X109436426Y-98315147D01*
X109175273Y-98423320D01*
X108940241Y-98580363D01*
X108740363Y-98780241D01*
X108606308Y-98980869D01*
X108591671Y-98953486D01*
X108347702Y-98881903D01*
X107534605Y-99695000D01*
X108347702Y-100508097D01*
X108591671Y-100436514D01*
X108605324Y-100407659D01*
X108740363Y-100609759D01*
X108940241Y-100809637D01*
X109175273Y-100966680D01*
X109436426Y-101074853D01*
X109713665Y-101130000D01*
X109996335Y-101130000D01*
X110273574Y-101074853D01*
X110534727Y-100966680D01*
X110769759Y-100809637D01*
X110969637Y-100609759D01*
X110989521Y-100580000D01*
X112972315Y-100580000D01*
X113163114Y-100770799D01*
X113389957Y-100922371D01*
X113642011Y-101026775D01*
X113909589Y-101080000D01*
X114182411Y-101080000D01*
X114449989Y-101026775D01*
X114702043Y-100922371D01*
X114928886Y-100770799D01*
X115119685Y-100580000D01*
X116975479Y-100580000D01*
X116995363Y-100609759D01*
X117195241Y-100809637D01*
X117430273Y-100966680D01*
X117691426Y-101074853D01*
X117968665Y-101130000D01*
X118251335Y-101130000D01*
X118528574Y-101074853D01*
X118789727Y-100966680D01*
X119024759Y-100809637D01*
X119224637Y-100609759D01*
X119381680Y-100374727D01*
X119489853Y-100113574D01*
X119545000Y-99836335D01*
X119545000Y-99553665D01*
X119489853Y-99276426D01*
X119381680Y-99015273D01*
X119224637Y-98780241D01*
X119024759Y-98580363D01*
X118789727Y-98423320D01*
X118528574Y-98315147D01*
X118251335Y-98260000D01*
X117968665Y-98260000D01*
X117691426Y-98315147D01*
X117430273Y-98423320D01*
X117195241Y-98580363D01*
X116995363Y-98780241D01*
X116975479Y-98810000D01*
X115824000Y-98810000D01*
X115824000Y-95700000D01*
X116982773Y-95700000D01*
X117090392Y-95831134D01*
X117308899Y-96010458D01*
X117558192Y-96143708D01*
X117828691Y-96225762D01*
X118039508Y-96246526D01*
X118180492Y-96246526D01*
X118278347Y-96236888D01*
X118281182Y-96240342D01*
X118314950Y-96268055D01*
X118314952Y-96268057D01*
X118370920Y-96313989D01*
X118415940Y-96350936D01*
X118526398Y-96409977D01*
X119866470Y-97750049D01*
X119894183Y-97783817D01*
X119927951Y-97811530D01*
X119927953Y-97811532D01*
X119977485Y-97852182D01*
X120028941Y-97894411D01*
X120182687Y-97976589D01*
X120349510Y-98027195D01*
X120479523Y-98040000D01*
X120479533Y-98040000D01*
X120522999Y-98044281D01*
X120566465Y-98040000D01*
X130062422Y-98040000D01*
X130842657Y-98820236D01*
X130807601Y-98885820D01*
X130771291Y-99005518D01*
X130759031Y-99130000D01*
X130759031Y-101530000D01*
X130771291Y-101654482D01*
X130807601Y-101774180D01*
X130866566Y-101884494D01*
X130945918Y-101981185D01*
X131042609Y-102060537D01*
X131152923Y-102119502D01*
X131272621Y-102155812D01*
X131397103Y-102168072D01*
X132997103Y-102168072D01*
X133121585Y-102155812D01*
X133241283Y-102119502D01*
X133351597Y-102060537D01*
X133448288Y-101981185D01*
X133527640Y-101884494D01*
X133586605Y-101774180D01*
X133622915Y-101654482D01*
X133624684Y-101636517D01*
X133717496Y-101749608D01*
X133744091Y-101771434D01*
X133110422Y-102405103D01*
X130629476Y-102405103D01*
X129155000Y-100930628D01*
X129155000Y-100825078D01*
X129289608Y-100714608D01*
X129468932Y-100496101D01*
X129602182Y-100246808D01*
X129684236Y-99976309D01*
X129711943Y-99695000D01*
X129684236Y-99413691D01*
X129602182Y-99143192D01*
X129468932Y-98893899D01*
X129289608Y-98675392D01*
X129071101Y-98496068D01*
X128821808Y-98362818D01*
X128551309Y-98280764D01*
X128340492Y-98260000D01*
X128199508Y-98260000D01*
X127988691Y-98280764D01*
X127718192Y-98362818D01*
X127468899Y-98496068D01*
X127250392Y-98675392D01*
X127071068Y-98893899D01*
X126937818Y-99143192D01*
X126855764Y-99413691D01*
X126828057Y-99695000D01*
X126855764Y-99976309D01*
X126937818Y-100246808D01*
X127071068Y-100496101D01*
X127250392Y-100714608D01*
X127385000Y-100825078D01*
X127385000Y-101253737D01*
X127380719Y-101297206D01*
X127385000Y-101340675D01*
X127385000Y-101340682D01*
X127394265Y-101434754D01*
X127397805Y-101470696D01*
X127407262Y-101501871D01*
X127448411Y-101637518D01*
X127530589Y-101791264D01*
X127641183Y-101926023D01*
X127674956Y-101953740D01*
X129606367Y-103885152D01*
X129634080Y-103918920D01*
X129667848Y-103946633D01*
X129667850Y-103946635D01*
X129719248Y-103988816D01*
X129721953Y-103991036D01*
X129641335Y-103975000D01*
X129358665Y-103975000D01*
X129081426Y-104030147D01*
X128820273Y-104138320D01*
X128585241Y-104295363D01*
X128385363Y-104495241D01*
X128251308Y-104695869D01*
X128236671Y-104668486D01*
X127992702Y-104596903D01*
X127179605Y-105410000D01*
X127992702Y-106223097D01*
X128236671Y-106151514D01*
X128250324Y-106122659D01*
X128385363Y-106324759D01*
X128585241Y-106524637D01*
X128820273Y-106681680D01*
X129081426Y-106789853D01*
X129358665Y-106845000D01*
X129641335Y-106845000D01*
X129918574Y-106789853D01*
X130179727Y-106681680D01*
X130414759Y-106524637D01*
X130614637Y-106324759D01*
X130771680Y-106089727D01*
X130879853Y-105828574D01*
X130935000Y-105551335D01*
X130935000Y-105268665D01*
X130879853Y-104991426D01*
X130771680Y-104730273D01*
X130614637Y-104495241D01*
X130414759Y-104295363D01*
X130237430Y-104176876D01*
X130262897Y-104179384D01*
X130306366Y-104175103D01*
X133355448Y-104175103D01*
X133289463Y-104255506D01*
X133230498Y-104365820D01*
X133194188Y-104485518D01*
X133181928Y-104610000D01*
X133181928Y-106210000D01*
X133194188Y-106334482D01*
X133230498Y-106454180D01*
X133289463Y-106564494D01*
X133368815Y-106661185D01*
X133465506Y-106740537D01*
X133575820Y-106799502D01*
X133695518Y-106835812D01*
X133820000Y-106848072D01*
X135420000Y-106848072D01*
X135544482Y-106835812D01*
X135664180Y-106799502D01*
X135774494Y-106740537D01*
X135871185Y-106661185D01*
X135950537Y-106564494D01*
X136009502Y-106454180D01*
X136025117Y-106402702D01*
X136306903Y-106402702D01*
X136378486Y-106646671D01*
X136633996Y-106767571D01*
X136908184Y-106836300D01*
X137190512Y-106850217D01*
X137470130Y-106808787D01*
X137736292Y-106713603D01*
X137861514Y-106646671D01*
X137933097Y-106402702D01*
X137120000Y-105589605D01*
X136306903Y-106402702D01*
X136025117Y-106402702D01*
X136045812Y-106334482D01*
X136058072Y-106210000D01*
X136058072Y-106202785D01*
X136127298Y-106223097D01*
X136940395Y-105410000D01*
X137299605Y-105410000D01*
X138112702Y-106223097D01*
X138356671Y-106151514D01*
X138477571Y-105896004D01*
X138546300Y-105621816D01*
X138560217Y-105339488D01*
X138518787Y-105059870D01*
X138423603Y-104793708D01*
X138356671Y-104668486D01*
X138112702Y-104596903D01*
X137299605Y-105410000D01*
X136940395Y-105410000D01*
X136127298Y-104596903D01*
X136058072Y-104617215D01*
X136058072Y-104610000D01*
X136045812Y-104485518D01*
X136025118Y-104417298D01*
X136306903Y-104417298D01*
X137120000Y-105230395D01*
X137933097Y-104417298D01*
X137861514Y-104173329D01*
X137606004Y-104052429D01*
X137331816Y-103983700D01*
X137049488Y-103969783D01*
X136769870Y-104011213D01*
X136503708Y-104106397D01*
X136378486Y-104173329D01*
X136306903Y-104417298D01*
X136025118Y-104417298D01*
X136009502Y-104365820D01*
X135950537Y-104255506D01*
X135871185Y-104158815D01*
X135774494Y-104079463D01*
X135664180Y-104020498D01*
X135544482Y-103984188D01*
X135420000Y-103971928D01*
X134041227Y-103971928D01*
X134105817Y-103918920D01*
X134133534Y-103885147D01*
X135332152Y-102686530D01*
X135365920Y-102658817D01*
X135393636Y-102625046D01*
X135476514Y-102524059D01*
X135517000Y-102448314D01*
X135558692Y-102370313D01*
X135609298Y-102203490D01*
X135622103Y-102073477D01*
X135622103Y-102073469D01*
X135626384Y-102030000D01*
X135622103Y-101986531D01*
X135622103Y-101860078D01*
X135756711Y-101749608D01*
X135936035Y-101531101D01*
X136007103Y-101398142D01*
X136078171Y-101531101D01*
X136257496Y-101749608D01*
X136476003Y-101928932D01*
X136725296Y-102062182D01*
X136995795Y-102144236D01*
X137277103Y-102171943D01*
X137558412Y-102144236D01*
X137828911Y-102062182D01*
X138078204Y-101928932D01*
X138296711Y-101749608D01*
X138476035Y-101531101D01*
X138547103Y-101398142D01*
X138618171Y-101531101D01*
X138797496Y-101749608D01*
X139016003Y-101928932D01*
X139265296Y-102062182D01*
X139535795Y-102144236D01*
X139817103Y-102171943D01*
X140098412Y-102144236D01*
X140368911Y-102062182D01*
X140618204Y-101928932D01*
X140836711Y-101749608D01*
X141016035Y-101531101D01*
X141087103Y-101398142D01*
X141158171Y-101531101D01*
X141337496Y-101749608D01*
X141556003Y-101928932D01*
X141805296Y-102062182D01*
X142075795Y-102144236D01*
X142357103Y-102171943D01*
X142638412Y-102144236D01*
X142908911Y-102062182D01*
X143158204Y-101928932D01*
X143376711Y-101749608D01*
X143556035Y-101531101D01*
X143627103Y-101398142D01*
X143698171Y-101531101D01*
X143877496Y-101749608D01*
X144096003Y-101928932D01*
X144294761Y-102035170D01*
X144295200Y-102036617D01*
X144328454Y-102146246D01*
X144399026Y-102278276D01*
X144453665Y-102344853D01*
X144494000Y-102394001D01*
X144522998Y-102417799D01*
X151074201Y-108969003D01*
X151097999Y-108998001D01*
X151213724Y-109092974D01*
X151289901Y-109133692D01*
X151259294Y-109170986D01*
X151230000Y-109225791D01*
X151200706Y-109170986D01*
X151015134Y-108944866D01*
X150789014Y-108759294D01*
X150531034Y-108621401D01*
X150251111Y-108536487D01*
X150032950Y-108515000D01*
X149887050Y-108515000D01*
X149668889Y-108536487D01*
X149388966Y-108621401D01*
X149130986Y-108759294D01*
X148904866Y-108944866D01*
X148719294Y-109170986D01*
X148690000Y-109225791D01*
X148660706Y-109170986D01*
X148475134Y-108944866D01*
X148249014Y-108759294D01*
X147991034Y-108621401D01*
X147711111Y-108536487D01*
X147492950Y-108515000D01*
X147347050Y-108515000D01*
X147128889Y-108536487D01*
X146848966Y-108621401D01*
X146590986Y-108759294D01*
X146364866Y-108944866D01*
X146179294Y-109170986D01*
X146150000Y-109225791D01*
X146120706Y-109170986D01*
X145935134Y-108944866D01*
X145709014Y-108759294D01*
X145451034Y-108621401D01*
X145171111Y-108536487D01*
X144952950Y-108515000D01*
X144807050Y-108515000D01*
X144588889Y-108536487D01*
X144308966Y-108621401D01*
X144050986Y-108759294D01*
X143824866Y-108944866D01*
X143639294Y-109170986D01*
X143610000Y-109225791D01*
X143580706Y-109170986D01*
X143395134Y-108944866D01*
X143169014Y-108759294D01*
X142911034Y-108621401D01*
X142631111Y-108536487D01*
X142412950Y-108515000D01*
X142267050Y-108515000D01*
X142048889Y-108536487D01*
X141768966Y-108621401D01*
X141510986Y-108759294D01*
X141284866Y-108944866D01*
X141099294Y-109170986D01*
X141070000Y-109225791D01*
X141040706Y-109170986D01*
X140855134Y-108944866D01*
X140629014Y-108759294D01*
X140371034Y-108621401D01*
X140091111Y-108536487D01*
X139872950Y-108515000D01*
X139727050Y-108515000D01*
X139508889Y-108536487D01*
X139228966Y-108621401D01*
X138970986Y-108759294D01*
X138744866Y-108944866D01*
X138559294Y-109170986D01*
X138530000Y-109225791D01*
X138500706Y-109170986D01*
X138315134Y-108944866D01*
X138089014Y-108759294D01*
X137831034Y-108621401D01*
X137551111Y-108536487D01*
X137332950Y-108515000D01*
X137187050Y-108515000D01*
X136968889Y-108536487D01*
X136688966Y-108621401D01*
X136430986Y-108759294D01*
X136204866Y-108944866D01*
X136019294Y-109170986D01*
X135990000Y-109225791D01*
X135960706Y-109170986D01*
X135775134Y-108944866D01*
X135549014Y-108759294D01*
X135291034Y-108621401D01*
X135011111Y-108536487D01*
X134792950Y-108515000D01*
X134647050Y-108515000D01*
X134428889Y-108536487D01*
X134148966Y-108621401D01*
X133890986Y-108759294D01*
X133664866Y-108944866D01*
X133479294Y-109170986D01*
X133450000Y-109225791D01*
X133420706Y-109170986D01*
X133235134Y-108944866D01*
X133009014Y-108759294D01*
X132751034Y-108621401D01*
X132471111Y-108536487D01*
X132252950Y-108515000D01*
X132107050Y-108515000D01*
X131888889Y-108536487D01*
X131608966Y-108621401D01*
X131350986Y-108759294D01*
X131124866Y-108944866D01*
X130939294Y-109170986D01*
X130904799Y-109235523D01*
X130835178Y-109118645D01*
X130640269Y-108902412D01*
X130406920Y-108728359D01*
X130144099Y-108603175D01*
X129996890Y-108558524D01*
X129767000Y-108679845D01*
X129767000Y-109873000D01*
X129787000Y-109873000D01*
X129787000Y-110127000D01*
X129767000Y-110127000D01*
X129767000Y-111320155D01*
X129996890Y-111441476D01*
X130144099Y-111396825D01*
X130406920Y-111271641D01*
X130640269Y-111097588D01*
X130835178Y-110881355D01*
X130904799Y-110764477D01*
X130939294Y-110829014D01*
X131124866Y-111055134D01*
X131350986Y-111240706D01*
X131608966Y-111378599D01*
X131888889Y-111463513D01*
X132107050Y-111485000D01*
X132252950Y-111485000D01*
X132471111Y-111463513D01*
X132751034Y-111378599D01*
X133009014Y-111240706D01*
X133235134Y-111055134D01*
X133420706Y-110829014D01*
X133450000Y-110774209D01*
X133479294Y-110829014D01*
X133664866Y-111055134D01*
X133890986Y-111240706D01*
X134148966Y-111378599D01*
X134428889Y-111463513D01*
X134647050Y-111485000D01*
X134792950Y-111485000D01*
X135011111Y-111463513D01*
X135291034Y-111378599D01*
X135549014Y-111240706D01*
X135775134Y-111055134D01*
X135960706Y-110829014D01*
X135990000Y-110774209D01*
X136019294Y-110829014D01*
X136204866Y-111055134D01*
X136430986Y-111240706D01*
X136688966Y-111378599D01*
X136968889Y-111463513D01*
X137187050Y-111485000D01*
X137332950Y-111485000D01*
X137551111Y-111463513D01*
X137831034Y-111378599D01*
X138089014Y-111240706D01*
X138315134Y-111055134D01*
X138500706Y-110829014D01*
X138530000Y-110774209D01*
X138559294Y-110829014D01*
X138744866Y-111055134D01*
X138970986Y-111240706D01*
X139228966Y-111378599D01*
X139508889Y-111463513D01*
X139727050Y-111485000D01*
X139872950Y-111485000D01*
X140091111Y-111463513D01*
X140371034Y-111378599D01*
X140629014Y-111240706D01*
X140855134Y-111055134D01*
X141040706Y-110829014D01*
X141070000Y-110774209D01*
X141099294Y-110829014D01*
X141284866Y-111055134D01*
X141510986Y-111240706D01*
X141768966Y-111378599D01*
X142048889Y-111463513D01*
X142267050Y-111485000D01*
X142412950Y-111485000D01*
X142631111Y-111463513D01*
X142911034Y-111378599D01*
X143169014Y-111240706D01*
X143395134Y-111055134D01*
X143580706Y-110829014D01*
X143610000Y-110774209D01*
X143639294Y-110829014D01*
X143824866Y-111055134D01*
X144050986Y-111240706D01*
X144308966Y-111378599D01*
X144588889Y-111463513D01*
X144807050Y-111485000D01*
X144952950Y-111485000D01*
X145171111Y-111463513D01*
X145451034Y-111378599D01*
X145709014Y-111240706D01*
X145935134Y-111055134D01*
X146120706Y-110829014D01*
X146150000Y-110774209D01*
X146179294Y-110829014D01*
X146364866Y-111055134D01*
X146590986Y-111240706D01*
X146848966Y-111378599D01*
X147128889Y-111463513D01*
X147347050Y-111485000D01*
X147492950Y-111485000D01*
X147711111Y-111463513D01*
X147991034Y-111378599D01*
X148249014Y-111240706D01*
X148475134Y-111055134D01*
X148660706Y-110829014D01*
X148690000Y-110774209D01*
X148719294Y-110829014D01*
X148904866Y-111055134D01*
X149130986Y-111240706D01*
X149388966Y-111378599D01*
X149668889Y-111463513D01*
X149887050Y-111485000D01*
X150032950Y-111485000D01*
X150251111Y-111463513D01*
X150531034Y-111378599D01*
X150789014Y-111240706D01*
X151015134Y-111055134D01*
X151200706Y-110829014D01*
X151230000Y-110774209D01*
X151259294Y-110829014D01*
X151444866Y-111055134D01*
X151670986Y-111240706D01*
X151928966Y-111378599D01*
X152208889Y-111463513D01*
X152427050Y-111485000D01*
X152572950Y-111485000D01*
X152791111Y-111463513D01*
X153071034Y-111378599D01*
X153329014Y-111240706D01*
X153555134Y-111055134D01*
X153740706Y-110829014D01*
X153770000Y-110774209D01*
X153799294Y-110829014D01*
X153984866Y-111055134D01*
X154210986Y-111240706D01*
X154468966Y-111378599D01*
X154748889Y-111463513D01*
X154967050Y-111485000D01*
X155112950Y-111485000D01*
X155331111Y-111463513D01*
X155611034Y-111378599D01*
X155869014Y-111240706D01*
X156095134Y-111055134D01*
X156280706Y-110829014D01*
X156310000Y-110774209D01*
X156339294Y-110829014D01*
X156524866Y-111055134D01*
X156750986Y-111240706D01*
X157008966Y-111378599D01*
X157288889Y-111463513D01*
X157507050Y-111485000D01*
X157652950Y-111485000D01*
X157871111Y-111463513D01*
X158151034Y-111378599D01*
X158409014Y-111240706D01*
X158635134Y-111055134D01*
X158820706Y-110829014D01*
X158850000Y-110774209D01*
X158879294Y-110829014D01*
X159064866Y-111055134D01*
X159290986Y-111240706D01*
X159548966Y-111378599D01*
X159828889Y-111463513D01*
X160047050Y-111485000D01*
X160192950Y-111485000D01*
X160411111Y-111463513D01*
X160691034Y-111378599D01*
X160949014Y-111240706D01*
X161175134Y-111055134D01*
X161360706Y-110829014D01*
X161390000Y-110774209D01*
X161419294Y-110829014D01*
X161604866Y-111055134D01*
X161830986Y-111240706D01*
X162088966Y-111378599D01*
X162368889Y-111463513D01*
X162587050Y-111485000D01*
X162732950Y-111485000D01*
X162951111Y-111463513D01*
X163231034Y-111378599D01*
X163489014Y-111240706D01*
X163715134Y-111055134D01*
X163900706Y-110829014D01*
X163930000Y-110774209D01*
X163959294Y-110829014D01*
X164144866Y-111055134D01*
X164370986Y-111240706D01*
X164628966Y-111378599D01*
X164908889Y-111463513D01*
X165127050Y-111485000D01*
X165272950Y-111485000D01*
X165491111Y-111463513D01*
X165771034Y-111378599D01*
X166029014Y-111240706D01*
X166255134Y-111055134D01*
X166440706Y-110829014D01*
X166470000Y-110774209D01*
X166499294Y-110829014D01*
X166684866Y-111055134D01*
X166910986Y-111240706D01*
X167168966Y-111378599D01*
X167448889Y-111463513D01*
X167667050Y-111485000D01*
X167812950Y-111485000D01*
X168031111Y-111463513D01*
X168311034Y-111378599D01*
X168569014Y-111240706D01*
X168795134Y-111055134D01*
X168980706Y-110829014D01*
X169010000Y-110774209D01*
X169039294Y-110829014D01*
X169224866Y-111055134D01*
X169450986Y-111240706D01*
X169708966Y-111378599D01*
X169988889Y-111463513D01*
X170207050Y-111485000D01*
X170352950Y-111485000D01*
X170571111Y-111463513D01*
X170851034Y-111378599D01*
X171109014Y-111240706D01*
X171335134Y-111055134D01*
X171520706Y-110829014D01*
X171550000Y-110774209D01*
X171579294Y-110829014D01*
X171764866Y-111055134D01*
X171990986Y-111240706D01*
X172248966Y-111378599D01*
X172528889Y-111463513D01*
X172747050Y-111485000D01*
X172892950Y-111485000D01*
X173111111Y-111463513D01*
X173391034Y-111378599D01*
X173649014Y-111240706D01*
X173875134Y-111055134D01*
X174060706Y-110829014D01*
X174090000Y-110774209D01*
X174119294Y-110829014D01*
X174304866Y-111055134D01*
X174530986Y-111240706D01*
X174788966Y-111378599D01*
X175068889Y-111463513D01*
X175287050Y-111485000D01*
X175432950Y-111485000D01*
X175651111Y-111463513D01*
X175931034Y-111378599D01*
X176189014Y-111240706D01*
X176415134Y-111055134D01*
X176600706Y-110829014D01*
X176630000Y-110774209D01*
X176659294Y-110829014D01*
X176844866Y-111055134D01*
X177070986Y-111240706D01*
X177328966Y-111378599D01*
X177608889Y-111463513D01*
X177827050Y-111485000D01*
X177972950Y-111485000D01*
X178191111Y-111463513D01*
X178471034Y-111378599D01*
X178729014Y-111240706D01*
X178955134Y-111055134D01*
X179140706Y-110829014D01*
X179170000Y-110774209D01*
X179199294Y-110829014D01*
X179384866Y-111055134D01*
X179610986Y-111240706D01*
X179868966Y-111378599D01*
X180148889Y-111463513D01*
X180367050Y-111485000D01*
X180512950Y-111485000D01*
X180731111Y-111463513D01*
X181011034Y-111378599D01*
X181269014Y-111240706D01*
X181495134Y-111055134D01*
X181680706Y-110829014D01*
X181710000Y-110774209D01*
X181739294Y-110829014D01*
X181924866Y-111055134D01*
X182150986Y-111240706D01*
X182408966Y-111378599D01*
X182688889Y-111463513D01*
X182907050Y-111485000D01*
X183052950Y-111485000D01*
X183271111Y-111463513D01*
X183551034Y-111378599D01*
X183809014Y-111240706D01*
X184035134Y-111055134D01*
X184220706Y-110829014D01*
X184250000Y-110774209D01*
X184279294Y-110829014D01*
X184464866Y-111055134D01*
X184690986Y-111240706D01*
X184948966Y-111378599D01*
X185228889Y-111463513D01*
X185447050Y-111485000D01*
X185592950Y-111485000D01*
X185811111Y-111463513D01*
X186091034Y-111378599D01*
X186349014Y-111240706D01*
X186575134Y-111055134D01*
X186760706Y-110829014D01*
X186790000Y-110774209D01*
X186819294Y-110829014D01*
X187004866Y-111055134D01*
X187230986Y-111240706D01*
X187488966Y-111378599D01*
X187768889Y-111463513D01*
X187987050Y-111485000D01*
X188132950Y-111485000D01*
X188351111Y-111463513D01*
X188631034Y-111378599D01*
X188889014Y-111240706D01*
X189115134Y-111055134D01*
X189300706Y-110829014D01*
X189438599Y-110571034D01*
X189523513Y-110291111D01*
X189552185Y-110000000D01*
X189523513Y-109708889D01*
X189438599Y-109428966D01*
X189300706Y-109170986D01*
X189115134Y-108944866D01*
X188889014Y-108759294D01*
X188631034Y-108621401D01*
X188351111Y-108536487D01*
X188132950Y-108515000D01*
X187987050Y-108515000D01*
X187768889Y-108536487D01*
X187488966Y-108621401D01*
X187230986Y-108759294D01*
X187004866Y-108944866D01*
X186819294Y-109170986D01*
X186790000Y-109225791D01*
X186760706Y-109170986D01*
X186575134Y-108944866D01*
X186349014Y-108759294D01*
X186091034Y-108621401D01*
X185811111Y-108536487D01*
X185592950Y-108515000D01*
X185447050Y-108515000D01*
X185228889Y-108536487D01*
X184948966Y-108621401D01*
X184690986Y-108759294D01*
X184464866Y-108944866D01*
X184279294Y-109170986D01*
X184250000Y-109225791D01*
X184220706Y-109170986D01*
X184035134Y-108944866D01*
X183809014Y-108759294D01*
X183551034Y-108621401D01*
X183271111Y-108536487D01*
X183052950Y-108515000D01*
X182907050Y-108515000D01*
X182688889Y-108536487D01*
X182408966Y-108621401D01*
X182150986Y-108759294D01*
X181924866Y-108944866D01*
X181739294Y-109170986D01*
X181710000Y-109225791D01*
X181680706Y-109170986D01*
X181495134Y-108944866D01*
X181269014Y-108759294D01*
X181011034Y-108621401D01*
X180731111Y-108536487D01*
X180512950Y-108515000D01*
X180367050Y-108515000D01*
X180148889Y-108536487D01*
X179868966Y-108621401D01*
X179610986Y-108759294D01*
X179384866Y-108944866D01*
X179199294Y-109170986D01*
X179170000Y-109225791D01*
X179140706Y-109170986D01*
X178955134Y-108944866D01*
X178729014Y-108759294D01*
X178471034Y-108621401D01*
X178191111Y-108536487D01*
X177972950Y-108515000D01*
X177827050Y-108515000D01*
X177608889Y-108536487D01*
X177328966Y-108621401D01*
X177070986Y-108759294D01*
X176844866Y-108944866D01*
X176659294Y-109170986D01*
X176630000Y-109225791D01*
X176600706Y-109170986D01*
X176415134Y-108944866D01*
X176189014Y-108759294D01*
X175931034Y-108621401D01*
X175651111Y-108536487D01*
X175432950Y-108515000D01*
X175287050Y-108515000D01*
X175068889Y-108536487D01*
X174788966Y-108621401D01*
X174530986Y-108759294D01*
X174304866Y-108944866D01*
X174119294Y-109170986D01*
X174090000Y-109225791D01*
X174060706Y-109170986D01*
X173875134Y-108944866D01*
X173649014Y-108759294D01*
X173391034Y-108621401D01*
X173111111Y-108536487D01*
X172892950Y-108515000D01*
X172747050Y-108515000D01*
X172528889Y-108536487D01*
X172248966Y-108621401D01*
X171990986Y-108759294D01*
X171764866Y-108944866D01*
X171579294Y-109170986D01*
X171550000Y-109225791D01*
X171520706Y-109170986D01*
X171335134Y-108944866D01*
X171109014Y-108759294D01*
X170851034Y-108621401D01*
X170571111Y-108536487D01*
X170352950Y-108515000D01*
X170207050Y-108515000D01*
X169988889Y-108536487D01*
X169708966Y-108621401D01*
X169450986Y-108759294D01*
X169224866Y-108944866D01*
X169039294Y-109170986D01*
X169010000Y-109225791D01*
X168980706Y-109170986D01*
X168880298Y-109048639D01*
X168942001Y-108998001D01*
X168965804Y-108968997D01*
X170354801Y-107580000D01*
X185786928Y-107580000D01*
X185799188Y-107704482D01*
X185835498Y-107824180D01*
X185894463Y-107934494D01*
X185973815Y-108031185D01*
X186070506Y-108110537D01*
X186180820Y-108169502D01*
X186300518Y-108205812D01*
X186425000Y-108218072D01*
X187039250Y-108215000D01*
X187198000Y-108056250D01*
X187198000Y-106807000D01*
X187452000Y-106807000D01*
X187452000Y-108056250D01*
X187610750Y-108215000D01*
X188225000Y-108218072D01*
X188349482Y-108205812D01*
X188469180Y-108169502D01*
X188579494Y-108110537D01*
X188676185Y-108031185D01*
X188755537Y-107934494D01*
X188814502Y-107824180D01*
X188850812Y-107704482D01*
X188863072Y-107580000D01*
X188860000Y-106965750D01*
X188701250Y-106807000D01*
X187452000Y-106807000D01*
X187198000Y-106807000D01*
X185948750Y-106807000D01*
X185790000Y-106965750D01*
X185786928Y-107580000D01*
X170354801Y-107580000D01*
X171124094Y-106810708D01*
X171168691Y-106824236D01*
X171379508Y-106845000D01*
X171520492Y-106845000D01*
X171731309Y-106824236D01*
X172001808Y-106742182D01*
X172251101Y-106608932D01*
X172469608Y-106429608D01*
X172648932Y-106211101D01*
X172782182Y-105961808D01*
X172864236Y-105691309D01*
X172891943Y-105410000D01*
X172878023Y-105268665D01*
X180175000Y-105268665D01*
X180175000Y-105551335D01*
X180230147Y-105828574D01*
X180338320Y-106089727D01*
X180495363Y-106324759D01*
X180695241Y-106524637D01*
X180930273Y-106681680D01*
X181191426Y-106789853D01*
X181468665Y-106845000D01*
X181751335Y-106845000D01*
X182028574Y-106789853D01*
X182289727Y-106681680D01*
X182524759Y-106524637D01*
X182724637Y-106324759D01*
X182881680Y-106089727D01*
X182989853Y-105828574D01*
X182999515Y-105780000D01*
X185786928Y-105780000D01*
X185790000Y-106394250D01*
X185948750Y-106553000D01*
X187198000Y-106553000D01*
X187198000Y-106533000D01*
X187452000Y-106533000D01*
X187452000Y-106553000D01*
X188701250Y-106553000D01*
X188860000Y-106394250D01*
X188863072Y-105780000D01*
X188850812Y-105655518D01*
X188814502Y-105535820D01*
X188755537Y-105425506D01*
X188676185Y-105328815D01*
X188579494Y-105249463D01*
X188469180Y-105190498D01*
X188450873Y-105184944D01*
X188517312Y-105118505D01*
X188685299Y-104867095D01*
X188801011Y-104587743D01*
X188860000Y-104291184D01*
X188860000Y-103988816D01*
X188801011Y-103692257D01*
X188685299Y-103412905D01*
X188517312Y-103161495D01*
X188303505Y-102947688D01*
X188052095Y-102779701D01*
X187772743Y-102663989D01*
X187476184Y-102605000D01*
X187173816Y-102605000D01*
X186877257Y-102663989D01*
X186597905Y-102779701D01*
X186346495Y-102947688D01*
X186132688Y-103161495D01*
X185964701Y-103412905D01*
X185848989Y-103692257D01*
X185790000Y-103988816D01*
X185790000Y-104291184D01*
X185848989Y-104587743D01*
X185964701Y-104867095D01*
X186132688Y-105118505D01*
X186199127Y-105184944D01*
X186180820Y-105190498D01*
X186070506Y-105249463D01*
X185973815Y-105328815D01*
X185894463Y-105425506D01*
X185835498Y-105535820D01*
X185799188Y-105655518D01*
X185786928Y-105780000D01*
X182999515Y-105780000D01*
X183045000Y-105551335D01*
X183045000Y-105268665D01*
X182989853Y-104991426D01*
X182881680Y-104730273D01*
X182724637Y-104495241D01*
X182524759Y-104295363D01*
X182289727Y-104138320D01*
X182028574Y-104030147D01*
X181751335Y-103975000D01*
X181468665Y-103975000D01*
X181191426Y-104030147D01*
X180930273Y-104138320D01*
X180695241Y-104295363D01*
X180495363Y-104495241D01*
X180338320Y-104730273D01*
X180230147Y-104991426D01*
X180175000Y-105268665D01*
X172878023Y-105268665D01*
X172864236Y-105128691D01*
X172782182Y-104858192D01*
X172648932Y-104608899D01*
X172469608Y-104390392D01*
X172251101Y-104211068D01*
X172001808Y-104077818D01*
X171731309Y-103995764D01*
X171520492Y-103975000D01*
X171379508Y-103975000D01*
X171168691Y-103995764D01*
X170898192Y-104077818D01*
X170648899Y-104211068D01*
X170430392Y-104390392D01*
X170251068Y-104608899D01*
X170117818Y-104858192D01*
X170035764Y-105128691D01*
X170008057Y-105410000D01*
X170035764Y-105691309D01*
X170049292Y-105735906D01*
X169670000Y-106115198D01*
X169670000Y-103819801D01*
X171124094Y-102365708D01*
X171168691Y-102379236D01*
X171379508Y-102400000D01*
X171520492Y-102400000D01*
X171731309Y-102379236D01*
X172001808Y-102297182D01*
X172251101Y-102163932D01*
X172469608Y-101984608D01*
X172648932Y-101766101D01*
X172782182Y-101516808D01*
X172864236Y-101246309D01*
X172891943Y-100965000D01*
X172878023Y-100823665D01*
X180175000Y-100823665D01*
X180175000Y-101106335D01*
X180230147Y-101383574D01*
X180338320Y-101644727D01*
X180495363Y-101879759D01*
X180695241Y-102079637D01*
X180930273Y-102236680D01*
X181191426Y-102344853D01*
X181468665Y-102400000D01*
X181751335Y-102400000D01*
X182028574Y-102344853D01*
X182289727Y-102236680D01*
X182524759Y-102079637D01*
X182724637Y-101879759D01*
X182881680Y-101644727D01*
X182989853Y-101383574D01*
X183020401Y-101230000D01*
X185786928Y-101230000D01*
X185799188Y-101354482D01*
X185835498Y-101474180D01*
X185894463Y-101584494D01*
X185973815Y-101681185D01*
X186070506Y-101760537D01*
X186180820Y-101819502D01*
X186300518Y-101855812D01*
X186425000Y-101868072D01*
X187039250Y-101865000D01*
X187198000Y-101706250D01*
X187198000Y-100457000D01*
X187452000Y-100457000D01*
X187452000Y-101706250D01*
X187610750Y-101865000D01*
X188225000Y-101868072D01*
X188349482Y-101855812D01*
X188469180Y-101819502D01*
X188579494Y-101760537D01*
X188676185Y-101681185D01*
X188755537Y-101584494D01*
X188814502Y-101474180D01*
X188850812Y-101354482D01*
X188863072Y-101230000D01*
X188860000Y-100615750D01*
X188701250Y-100457000D01*
X187452000Y-100457000D01*
X187198000Y-100457000D01*
X185948750Y-100457000D01*
X185790000Y-100615750D01*
X185786928Y-101230000D01*
X183020401Y-101230000D01*
X183045000Y-101106335D01*
X183045000Y-100823665D01*
X182989853Y-100546426D01*
X182881680Y-100285273D01*
X182724637Y-100050241D01*
X182524759Y-99850363D01*
X182289727Y-99693320D01*
X182028574Y-99585147D01*
X181751335Y-99530000D01*
X181468665Y-99530000D01*
X181191426Y-99585147D01*
X180930273Y-99693320D01*
X180695241Y-99850363D01*
X180495363Y-100050241D01*
X180338320Y-100285273D01*
X180230147Y-100546426D01*
X180175000Y-100823665D01*
X172878023Y-100823665D01*
X172864236Y-100683691D01*
X172782182Y-100413192D01*
X172648932Y-100163899D01*
X172469608Y-99945392D01*
X172251101Y-99766068D01*
X172001808Y-99632818D01*
X171731309Y-99550764D01*
X171520492Y-99530000D01*
X171379508Y-99530000D01*
X171168691Y-99550764D01*
X170898192Y-99632818D01*
X170648899Y-99766068D01*
X170430392Y-99945392D01*
X170251068Y-100163899D01*
X170117818Y-100413192D01*
X170035764Y-100683691D01*
X170008057Y-100965000D01*
X170035764Y-101246309D01*
X170049292Y-101290906D01*
X168398998Y-102941201D01*
X168370000Y-102964999D01*
X168346202Y-102993997D01*
X168346201Y-102993998D01*
X168275026Y-103080724D01*
X168204454Y-103212754D01*
X168160998Y-103356015D01*
X168146324Y-103505000D01*
X168150001Y-103542332D01*
X168150000Y-106365198D01*
X167579199Y-106936000D01*
X152460802Y-106936000D01*
X150134802Y-104610000D01*
X157311928Y-104610000D01*
X157311928Y-106210000D01*
X157324188Y-106334482D01*
X157360498Y-106454180D01*
X157419463Y-106564494D01*
X157498815Y-106661185D01*
X157595506Y-106740537D01*
X157705820Y-106799502D01*
X157825518Y-106835812D01*
X157950000Y-106848072D01*
X159550000Y-106848072D01*
X159674482Y-106835812D01*
X159794180Y-106799502D01*
X159904494Y-106740537D01*
X160001185Y-106661185D01*
X160080537Y-106564494D01*
X160139502Y-106454180D01*
X160155117Y-106402702D01*
X160436903Y-106402702D01*
X160508486Y-106646671D01*
X160763996Y-106767571D01*
X161038184Y-106836300D01*
X161320512Y-106850217D01*
X161600130Y-106808787D01*
X161866292Y-106713603D01*
X161991514Y-106646671D01*
X162063097Y-106402702D01*
X161250000Y-105589605D01*
X160436903Y-106402702D01*
X160155117Y-106402702D01*
X160175812Y-106334482D01*
X160188072Y-106210000D01*
X160188072Y-106202785D01*
X160257298Y-106223097D01*
X161070395Y-105410000D01*
X161429605Y-105410000D01*
X162242702Y-106223097D01*
X162486671Y-106151514D01*
X162607571Y-105896004D01*
X162676300Y-105621816D01*
X162690217Y-105339488D01*
X162648787Y-105059870D01*
X162553603Y-104793708D01*
X162486671Y-104668486D01*
X162242702Y-104596903D01*
X161429605Y-105410000D01*
X161070395Y-105410000D01*
X160257298Y-104596903D01*
X160188072Y-104617215D01*
X160188072Y-104610000D01*
X160175812Y-104485518D01*
X160155118Y-104417298D01*
X160436903Y-104417298D01*
X161250000Y-105230395D01*
X162063097Y-104417298D01*
X161991514Y-104173329D01*
X161736004Y-104052429D01*
X161461816Y-103983700D01*
X161179488Y-103969783D01*
X160899870Y-104011213D01*
X160633708Y-104106397D01*
X160508486Y-104173329D01*
X160436903Y-104417298D01*
X160155118Y-104417298D01*
X160139502Y-104365820D01*
X160080537Y-104255506D01*
X160001185Y-104158815D01*
X159904494Y-104079463D01*
X159794180Y-104020498D01*
X159674482Y-103984188D01*
X159550000Y-103971928D01*
X157950000Y-103971928D01*
X157825518Y-103984188D01*
X157705820Y-104020498D01*
X157595506Y-104079463D01*
X157498815Y-104158815D01*
X157419463Y-104255506D01*
X157360498Y-104365820D01*
X157324188Y-104485518D01*
X157311928Y-104610000D01*
X150134802Y-104610000D01*
X147564105Y-102039304D01*
X147564105Y-101999916D01*
X147786142Y-102121904D01*
X147868921Y-102104367D01*
X148128749Y-101993715D01*
X148361998Y-101834500D01*
X148559704Y-101632839D01*
X148626955Y-101530000D01*
X154771928Y-101530000D01*
X154784188Y-101654482D01*
X154820498Y-101774180D01*
X154879463Y-101884494D01*
X154958815Y-101981185D01*
X155055506Y-102060537D01*
X155165820Y-102119502D01*
X155285518Y-102155812D01*
X155410000Y-102168072D01*
X155924250Y-102165000D01*
X156083000Y-102006250D01*
X156083000Y-100457000D01*
X154933750Y-100457000D01*
X154775000Y-100615750D01*
X154771928Y-101530000D01*
X148626955Y-101530000D01*
X148714269Y-101396483D01*
X148819753Y-101134514D01*
X148872103Y-100857000D01*
X148872103Y-100457000D01*
X147564103Y-100457000D01*
X147564103Y-100477000D01*
X147310103Y-100477000D01*
X147310103Y-100457000D01*
X147290103Y-100457000D01*
X147290103Y-100203000D01*
X147310103Y-100203000D01*
X147310103Y-98660085D01*
X147564103Y-98660085D01*
X147564103Y-100203000D01*
X148872103Y-100203000D01*
X148872103Y-99803000D01*
X148819753Y-99525486D01*
X148714269Y-99263517D01*
X148559704Y-99027161D01*
X148361998Y-98825500D01*
X148128749Y-98666285D01*
X147868921Y-98555633D01*
X147786142Y-98538096D01*
X147564103Y-98660085D01*
X147310103Y-98660085D01*
X147088064Y-98538096D01*
X147005285Y-98555633D01*
X146937000Y-98584713D01*
X146937000Y-96967219D01*
X146940676Y-96929896D01*
X146937000Y-96892573D01*
X146937000Y-96892564D01*
X146926003Y-96780911D01*
X146882546Y-96637650D01*
X146861186Y-96597688D01*
X146811974Y-96505620D01*
X146740799Y-96418894D01*
X146717001Y-96389896D01*
X146688003Y-96366098D01*
X144871307Y-94549402D01*
X144897103Y-94551943D01*
X145178412Y-94524236D01*
X145448911Y-94442182D01*
X145698204Y-94308932D01*
X145916711Y-94129608D01*
X146096035Y-93911101D01*
X146167103Y-93778142D01*
X146238171Y-93911101D01*
X146417496Y-94129608D01*
X146636003Y-94308932D01*
X146885296Y-94442182D01*
X147155795Y-94524236D01*
X147437103Y-94551943D01*
X147718412Y-94524236D01*
X147988911Y-94442182D01*
X148238204Y-94308932D01*
X148456711Y-94129608D01*
X148636035Y-93911101D01*
X148769285Y-93661808D01*
X148851339Y-93391309D01*
X148872103Y-93180491D01*
X148872103Y-92338681D01*
X154918470Y-98385049D01*
X154946183Y-98418817D01*
X154979951Y-98446530D01*
X154979953Y-98446532D01*
X155080941Y-98529411D01*
X155133752Y-98557639D01*
X155055506Y-98599463D01*
X154958815Y-98678815D01*
X154879463Y-98775506D01*
X154820498Y-98885820D01*
X154784188Y-99005518D01*
X154771928Y-99130000D01*
X154775000Y-100044250D01*
X154933750Y-100203000D01*
X156083000Y-100203000D01*
X156083000Y-100183000D01*
X156337000Y-100183000D01*
X156337000Y-100203000D01*
X156357000Y-100203000D01*
X156357000Y-100457000D01*
X156337000Y-100457000D01*
X156337000Y-102006250D01*
X156495750Y-102165000D01*
X157010000Y-102168072D01*
X157134482Y-102155812D01*
X157254180Y-102119502D01*
X157364494Y-102060537D01*
X157461185Y-101981185D01*
X157540537Y-101884494D01*
X157599502Y-101774180D01*
X157635812Y-101654482D01*
X157637581Y-101636517D01*
X157730393Y-101749608D01*
X157865001Y-101860078D01*
X157865001Y-101986521D01*
X157860719Y-102030000D01*
X157877805Y-102203490D01*
X157928412Y-102370313D01*
X158010590Y-102524059D01*
X158093468Y-102625046D01*
X158093469Y-102625047D01*
X158121184Y-102658817D01*
X158154951Y-102686529D01*
X158933470Y-103465049D01*
X158961183Y-103498817D01*
X158994951Y-103526530D01*
X158994953Y-103526532D01*
X159066452Y-103585210D01*
X159095941Y-103609411D01*
X159249687Y-103691589D01*
X159416510Y-103742195D01*
X159546523Y-103755000D01*
X159546533Y-103755000D01*
X159589999Y-103759281D01*
X159633465Y-103755000D01*
X165056531Y-103755000D01*
X165100000Y-103759281D01*
X165143469Y-103755000D01*
X165143477Y-103755000D01*
X165273490Y-103742195D01*
X165440313Y-103691589D01*
X165594059Y-103609411D01*
X165728817Y-103498817D01*
X165756534Y-103465044D01*
X166457050Y-102764529D01*
X166490817Y-102736817D01*
X166523897Y-102696510D01*
X166601411Y-102602059D01*
X166661855Y-102488974D01*
X166683589Y-102448313D01*
X166734195Y-102281490D01*
X166747000Y-102151477D01*
X166747000Y-102151469D01*
X166751281Y-102108000D01*
X166747000Y-102064531D01*
X166747000Y-99430000D01*
X185786928Y-99430000D01*
X185790000Y-100044250D01*
X185948750Y-100203000D01*
X187198000Y-100203000D01*
X187198000Y-100183000D01*
X187452000Y-100183000D01*
X187452000Y-100203000D01*
X188701250Y-100203000D01*
X188860000Y-100044250D01*
X188863072Y-99430000D01*
X188850812Y-99305518D01*
X188814502Y-99185820D01*
X188755537Y-99075506D01*
X188676185Y-98978815D01*
X188579494Y-98899463D01*
X188469180Y-98840498D01*
X188450873Y-98834944D01*
X188517312Y-98768505D01*
X188685299Y-98517095D01*
X188801011Y-98237743D01*
X188860000Y-97941184D01*
X188860000Y-97638816D01*
X188801011Y-97342257D01*
X188685299Y-97062905D01*
X188517312Y-96811495D01*
X188303505Y-96597688D01*
X188052095Y-96429701D01*
X187772743Y-96313989D01*
X187476184Y-96255000D01*
X187173816Y-96255000D01*
X186877257Y-96313989D01*
X186597905Y-96429701D01*
X186346495Y-96597688D01*
X186132688Y-96811495D01*
X185964701Y-97062905D01*
X185848989Y-97342257D01*
X185790000Y-97638816D01*
X185790000Y-97941184D01*
X185848989Y-98237743D01*
X185964701Y-98517095D01*
X186132688Y-98768505D01*
X186199127Y-98834944D01*
X186180820Y-98840498D01*
X186070506Y-98899463D01*
X185973815Y-98978815D01*
X185894463Y-99075506D01*
X185835498Y-99185820D01*
X185799188Y-99305518D01*
X185786928Y-99430000D01*
X166747000Y-99430000D01*
X166747000Y-97725465D01*
X166751281Y-97681999D01*
X166747000Y-97638533D01*
X166747000Y-97638523D01*
X166734195Y-97508510D01*
X166683589Y-97341687D01*
X166601411Y-97187941D01*
X166490817Y-97053183D01*
X166457049Y-97025470D01*
X165634281Y-96202702D01*
X166191903Y-96202702D01*
X166263486Y-96446671D01*
X166518996Y-96567571D01*
X166793184Y-96636300D01*
X167075512Y-96650217D01*
X167355130Y-96608787D01*
X167603404Y-96520000D01*
X170008057Y-96520000D01*
X170035764Y-96801309D01*
X170117818Y-97071808D01*
X170251068Y-97321101D01*
X170430392Y-97539608D01*
X170648899Y-97718932D01*
X170898192Y-97852182D01*
X171168691Y-97934236D01*
X171379508Y-97955000D01*
X171520492Y-97955000D01*
X171731309Y-97934236D01*
X172001808Y-97852182D01*
X172251101Y-97718932D01*
X172469608Y-97539608D01*
X172648932Y-97321101D01*
X172782182Y-97071808D01*
X172864236Y-96801309D01*
X172891943Y-96520000D01*
X172878023Y-96378665D01*
X180175000Y-96378665D01*
X180175000Y-96661335D01*
X180230147Y-96938574D01*
X180338320Y-97199727D01*
X180495363Y-97434759D01*
X180695241Y-97634637D01*
X180930273Y-97791680D01*
X181191426Y-97899853D01*
X181468665Y-97955000D01*
X181751335Y-97955000D01*
X182028574Y-97899853D01*
X182289727Y-97791680D01*
X182524759Y-97634637D01*
X182724637Y-97434759D01*
X182881680Y-97199727D01*
X182989853Y-96938574D01*
X183045000Y-96661335D01*
X183045000Y-96378665D01*
X182989853Y-96101426D01*
X182881680Y-95840273D01*
X182724637Y-95605241D01*
X182524759Y-95405363D01*
X182289727Y-95248320D01*
X182028574Y-95140147D01*
X181751335Y-95085000D01*
X181468665Y-95085000D01*
X181191426Y-95140147D01*
X180930273Y-95248320D01*
X180695241Y-95405363D01*
X180495363Y-95605241D01*
X180338320Y-95840273D01*
X180230147Y-96101426D01*
X180175000Y-96378665D01*
X172878023Y-96378665D01*
X172864236Y-96238691D01*
X172782182Y-95968192D01*
X172648932Y-95718899D01*
X172469608Y-95500392D01*
X172251101Y-95321068D01*
X172001808Y-95187818D01*
X171731309Y-95105764D01*
X171520492Y-95085000D01*
X171379508Y-95085000D01*
X171168691Y-95105764D01*
X170898192Y-95187818D01*
X170648899Y-95321068D01*
X170430392Y-95500392D01*
X170251068Y-95718899D01*
X170117818Y-95968192D01*
X170035764Y-96238691D01*
X170008057Y-96520000D01*
X167603404Y-96520000D01*
X167621292Y-96513603D01*
X167746514Y-96446671D01*
X167818097Y-96202702D01*
X167005000Y-95389605D01*
X166191903Y-96202702D01*
X165634281Y-96202702D01*
X164712091Y-95280512D01*
X165564783Y-95280512D01*
X165606213Y-95560130D01*
X165701397Y-95826292D01*
X165768329Y-95951514D01*
X166012298Y-96023097D01*
X166825395Y-95210000D01*
X167184605Y-95210000D01*
X167997702Y-96023097D01*
X168241671Y-95951514D01*
X168362571Y-95696004D01*
X168431300Y-95421816D01*
X168445217Y-95139488D01*
X168406770Y-94880000D01*
X185786928Y-94880000D01*
X185799188Y-95004482D01*
X185835498Y-95124180D01*
X185894463Y-95234494D01*
X185973815Y-95331185D01*
X186070506Y-95410537D01*
X186180820Y-95469502D01*
X186300518Y-95505812D01*
X186425000Y-95518072D01*
X187039250Y-95515000D01*
X187198000Y-95356250D01*
X187198000Y-94107000D01*
X187452000Y-94107000D01*
X187452000Y-95356250D01*
X187610750Y-95515000D01*
X188225000Y-95518072D01*
X188349482Y-95505812D01*
X188469180Y-95469502D01*
X188579494Y-95410537D01*
X188676185Y-95331185D01*
X188755537Y-95234494D01*
X188814502Y-95124180D01*
X188850812Y-95004482D01*
X188863072Y-94880000D01*
X188860000Y-94265750D01*
X188701250Y-94107000D01*
X187452000Y-94107000D01*
X187198000Y-94107000D01*
X185948750Y-94107000D01*
X185790000Y-94265750D01*
X185786928Y-94880000D01*
X168406770Y-94880000D01*
X168403787Y-94859870D01*
X168308603Y-94593708D01*
X168241671Y-94468486D01*
X167997702Y-94396903D01*
X167184605Y-95210000D01*
X166825395Y-95210000D01*
X166012298Y-94396903D01*
X165768329Y-94468486D01*
X165647429Y-94723996D01*
X165578700Y-94998184D01*
X165564783Y-95280512D01*
X164712091Y-95280512D01*
X163969756Y-94538178D01*
X164111309Y-94524236D01*
X164381808Y-94442182D01*
X164631101Y-94308932D01*
X164849608Y-94129608D01*
X165028932Y-93911101D01*
X165162182Y-93661808D01*
X165244236Y-93391309D01*
X165265000Y-93180491D01*
X165265000Y-92568665D01*
X165570000Y-92568665D01*
X165570000Y-92851335D01*
X165625147Y-93128574D01*
X165733320Y-93389727D01*
X165890363Y-93624759D01*
X166090241Y-93824637D01*
X166290869Y-93958692D01*
X166263486Y-93973329D01*
X166191903Y-94217298D01*
X167005000Y-95030395D01*
X167818097Y-94217298D01*
X167746514Y-93973329D01*
X167717659Y-93959676D01*
X167919759Y-93824637D01*
X168119637Y-93624759D01*
X168276680Y-93389727D01*
X168384853Y-93128574D01*
X168440000Y-92851335D01*
X168440000Y-92568665D01*
X168384853Y-92291426D01*
X168295207Y-92075000D01*
X170008057Y-92075000D01*
X170035764Y-92356309D01*
X170117818Y-92626808D01*
X170251068Y-92876101D01*
X170430392Y-93094608D01*
X170648899Y-93273932D01*
X170898192Y-93407182D01*
X171168691Y-93489236D01*
X171379508Y-93510000D01*
X171520492Y-93510000D01*
X171731309Y-93489236D01*
X172001808Y-93407182D01*
X172251101Y-93273932D01*
X172469608Y-93094608D01*
X172648932Y-92876101D01*
X172782182Y-92626808D01*
X172864236Y-92356309D01*
X172891943Y-92075000D01*
X172878023Y-91933665D01*
X180175000Y-91933665D01*
X180175000Y-92216335D01*
X180230147Y-92493574D01*
X180338320Y-92754727D01*
X180495363Y-92989759D01*
X180695241Y-93189637D01*
X180930273Y-93346680D01*
X181191426Y-93454853D01*
X181468665Y-93510000D01*
X181751335Y-93510000D01*
X182028574Y-93454853D01*
X182289727Y-93346680D01*
X182524759Y-93189637D01*
X182634396Y-93080000D01*
X185786928Y-93080000D01*
X185790000Y-93694250D01*
X185948750Y-93853000D01*
X187198000Y-93853000D01*
X187198000Y-93833000D01*
X187452000Y-93833000D01*
X187452000Y-93853000D01*
X188701250Y-93853000D01*
X188860000Y-93694250D01*
X188863072Y-93080000D01*
X188850812Y-92955518D01*
X188814502Y-92835820D01*
X188755537Y-92725506D01*
X188676185Y-92628815D01*
X188579494Y-92549463D01*
X188469180Y-92490498D01*
X188450873Y-92484944D01*
X188517312Y-92418505D01*
X188685299Y-92167095D01*
X188801011Y-91887743D01*
X188860000Y-91591184D01*
X188860000Y-91288816D01*
X188801011Y-90992257D01*
X188685299Y-90712905D01*
X188517312Y-90461495D01*
X188303505Y-90247688D01*
X188052095Y-90079701D01*
X187772743Y-89963989D01*
X187476184Y-89905000D01*
X187173816Y-89905000D01*
X186877257Y-89963989D01*
X186597905Y-90079701D01*
X186346495Y-90247688D01*
X186132688Y-90461495D01*
X185964701Y-90712905D01*
X185848989Y-90992257D01*
X185790000Y-91288816D01*
X185790000Y-91591184D01*
X185848989Y-91887743D01*
X185964701Y-92167095D01*
X186132688Y-92418505D01*
X186199127Y-92484944D01*
X186180820Y-92490498D01*
X186070506Y-92549463D01*
X185973815Y-92628815D01*
X185894463Y-92725506D01*
X185835498Y-92835820D01*
X185799188Y-92955518D01*
X185786928Y-93080000D01*
X182634396Y-93080000D01*
X182724637Y-92989759D01*
X182881680Y-92754727D01*
X182989853Y-92493574D01*
X183045000Y-92216335D01*
X183045000Y-91933665D01*
X182989853Y-91656426D01*
X182881680Y-91395273D01*
X182724637Y-91160241D01*
X182524759Y-90960363D01*
X182289727Y-90803320D01*
X182028574Y-90695147D01*
X181751335Y-90640000D01*
X181468665Y-90640000D01*
X181191426Y-90695147D01*
X180930273Y-90803320D01*
X180695241Y-90960363D01*
X180495363Y-91160241D01*
X180338320Y-91395273D01*
X180230147Y-91656426D01*
X180175000Y-91933665D01*
X172878023Y-91933665D01*
X172864236Y-91793691D01*
X172782182Y-91523192D01*
X172648932Y-91273899D01*
X172469608Y-91055392D01*
X172251101Y-90876068D01*
X172001808Y-90742818D01*
X171731309Y-90660764D01*
X171520492Y-90640000D01*
X171379508Y-90640000D01*
X171168691Y-90660764D01*
X170898192Y-90742818D01*
X170648899Y-90876068D01*
X170430392Y-91055392D01*
X170251068Y-91273899D01*
X170117818Y-91523192D01*
X170035764Y-91793691D01*
X170008057Y-92075000D01*
X168295207Y-92075000D01*
X168276680Y-92030273D01*
X168119637Y-91795241D01*
X167919759Y-91595363D01*
X167684727Y-91438320D01*
X167423574Y-91330147D01*
X167146335Y-91275000D01*
X166863665Y-91275000D01*
X166586426Y-91330147D01*
X166325273Y-91438320D01*
X166090241Y-91595363D01*
X165890363Y-91795241D01*
X165733320Y-92030273D01*
X165625147Y-92291426D01*
X165570000Y-92568665D01*
X165265000Y-92568665D01*
X165265000Y-92239508D01*
X165244236Y-92028691D01*
X165162182Y-91758192D01*
X165028932Y-91508899D01*
X164849607Y-91290392D01*
X164631100Y-91111068D01*
X164381807Y-90977818D01*
X164111308Y-90895764D01*
X163830000Y-90868057D01*
X163548691Y-90895764D01*
X163278192Y-90977818D01*
X163028899Y-91111068D01*
X162810392Y-91290393D01*
X162631068Y-91508900D01*
X162560000Y-91641858D01*
X162488932Y-91508899D01*
X162309607Y-91290392D01*
X162091100Y-91111068D01*
X161841807Y-90977818D01*
X161571308Y-90895764D01*
X161290000Y-90868057D01*
X161008691Y-90895764D01*
X160738192Y-90977818D01*
X160488899Y-91111068D01*
X160270392Y-91290393D01*
X160091068Y-91508900D01*
X160020000Y-91641858D01*
X159948932Y-91508899D01*
X159769607Y-91290392D01*
X159551100Y-91111068D01*
X159301807Y-90977818D01*
X159031308Y-90895764D01*
X158750000Y-90868057D01*
X158468691Y-90895764D01*
X158198192Y-90977818D01*
X157948899Y-91111068D01*
X157730392Y-91290393D01*
X157551068Y-91508900D01*
X157480000Y-91641858D01*
X157408932Y-91508899D01*
X157229607Y-91290392D01*
X157011100Y-91111068D01*
X156761807Y-90977818D01*
X156491308Y-90895764D01*
X156210000Y-90868057D01*
X155928691Y-90895764D01*
X155658192Y-90977818D01*
X155408899Y-91111068D01*
X155190392Y-91290393D01*
X155011068Y-91508900D01*
X154877818Y-91758193D01*
X154795764Y-92028692D01*
X154775000Y-92239509D01*
X154775000Y-93180492D01*
X154795764Y-93391309D01*
X154877818Y-93661808D01*
X155011068Y-93911101D01*
X155190393Y-94129608D01*
X155408900Y-94308932D01*
X155658193Y-94442182D01*
X155928692Y-94524236D01*
X156210000Y-94551943D01*
X156383296Y-94534875D01*
X158709470Y-96861049D01*
X158737183Y-96894817D01*
X158749591Y-96905000D01*
X155941579Y-96905000D01*
X148332464Y-89295886D01*
X148448665Y-89319000D01*
X148731335Y-89319000D01*
X149008574Y-89263853D01*
X149269727Y-89155680D01*
X149504759Y-88998637D01*
X149704637Y-88798759D01*
X149861680Y-88563727D01*
X149969853Y-88302574D01*
X150025000Y-88025335D01*
X150025000Y-87884000D01*
X157308057Y-87884000D01*
X157335764Y-88165309D01*
X157417818Y-88435808D01*
X157551068Y-88685101D01*
X157730392Y-88903608D01*
X157948899Y-89082932D01*
X158198192Y-89216182D01*
X158468691Y-89298236D01*
X158679508Y-89319000D01*
X158820492Y-89319000D01*
X159031309Y-89298236D01*
X159301808Y-89216182D01*
X159551101Y-89082932D01*
X159769608Y-88903608D01*
X159770782Y-88902178D01*
X159867241Y-88998637D01*
X160102273Y-89155680D01*
X160363426Y-89263853D01*
X160640665Y-89319000D01*
X160923335Y-89319000D01*
X161200574Y-89263853D01*
X161461727Y-89155680D01*
X161696759Y-88998637D01*
X161896637Y-88798759D01*
X162053680Y-88563727D01*
X162161853Y-88302574D01*
X162217000Y-88025335D01*
X162217000Y-87884000D01*
X169500057Y-87884000D01*
X169527764Y-88165309D01*
X169609818Y-88435808D01*
X169743068Y-88685101D01*
X169922392Y-88903608D01*
X170140899Y-89082932D01*
X170390192Y-89216182D01*
X170660691Y-89298236D01*
X170871508Y-89319000D01*
X171012492Y-89319000D01*
X171223309Y-89298236D01*
X171493808Y-89216182D01*
X171743101Y-89082932D01*
X171961608Y-88903608D01*
X172140932Y-88685101D01*
X172274182Y-88435808D01*
X172356236Y-88165309D01*
X172383943Y-87884000D01*
X172356236Y-87602691D01*
X172274182Y-87332192D01*
X172140932Y-87082899D01*
X171961608Y-86864392D01*
X171749383Y-86690223D01*
X173201000Y-86690223D01*
X173201000Y-87045777D01*
X173270365Y-87394499D01*
X173406429Y-87722988D01*
X173603965Y-88018621D01*
X173855379Y-88270035D01*
X174151012Y-88467571D01*
X174479501Y-88603635D01*
X174828223Y-88673000D01*
X175183777Y-88673000D01*
X175532499Y-88603635D01*
X175860988Y-88467571D01*
X176156621Y-88270035D01*
X176408035Y-88018621D01*
X176605571Y-87722988D01*
X176741635Y-87394499D01*
X176811000Y-87045777D01*
X176811000Y-86690223D01*
X176741635Y-86341501D01*
X176605571Y-86013012D01*
X176514067Y-85876067D01*
X176651012Y-85967571D01*
X176979501Y-86103635D01*
X177328223Y-86173000D01*
X177683777Y-86173000D01*
X178032499Y-86103635D01*
X178360988Y-85967571D01*
X178497933Y-85876067D01*
X178406429Y-86013012D01*
X178270365Y-86341501D01*
X178201000Y-86690223D01*
X178201000Y-87045777D01*
X178270365Y-87394499D01*
X178406429Y-87722988D01*
X178603965Y-88018621D01*
X178855379Y-88270035D01*
X179151012Y-88467571D01*
X179479501Y-88603635D01*
X179828223Y-88673000D01*
X180183777Y-88673000D01*
X180532499Y-88603635D01*
X180710270Y-88530000D01*
X185786928Y-88530000D01*
X185799188Y-88654482D01*
X185835498Y-88774180D01*
X185894463Y-88884494D01*
X185973815Y-88981185D01*
X186070506Y-89060537D01*
X186180820Y-89119502D01*
X186300518Y-89155812D01*
X186425000Y-89168072D01*
X187039250Y-89165000D01*
X187198000Y-89006250D01*
X187198000Y-87757000D01*
X187452000Y-87757000D01*
X187452000Y-89006250D01*
X187610750Y-89165000D01*
X188225000Y-89168072D01*
X188349482Y-89155812D01*
X188469180Y-89119502D01*
X188579494Y-89060537D01*
X188676185Y-88981185D01*
X188755537Y-88884494D01*
X188814502Y-88774180D01*
X188850812Y-88654482D01*
X188863072Y-88530000D01*
X188860000Y-87915750D01*
X188701250Y-87757000D01*
X187452000Y-87757000D01*
X187198000Y-87757000D01*
X185948750Y-87757000D01*
X185790000Y-87915750D01*
X185786928Y-88530000D01*
X180710270Y-88530000D01*
X180860988Y-88467571D01*
X181156621Y-88270035D01*
X181408035Y-88018621D01*
X181605571Y-87722988D01*
X181741635Y-87394499D01*
X181811000Y-87045777D01*
X181811000Y-86730000D01*
X185786928Y-86730000D01*
X185790000Y-87344250D01*
X185948750Y-87503000D01*
X187198000Y-87503000D01*
X187198000Y-87483000D01*
X187452000Y-87483000D01*
X187452000Y-87503000D01*
X188701250Y-87503000D01*
X188860000Y-87344250D01*
X188863072Y-86730000D01*
X188850812Y-86605518D01*
X188814502Y-86485820D01*
X188755537Y-86375506D01*
X188676185Y-86278815D01*
X188579494Y-86199463D01*
X188469180Y-86140498D01*
X188450873Y-86134944D01*
X188517312Y-86068505D01*
X188685299Y-85817095D01*
X188801011Y-85537743D01*
X188860000Y-85241184D01*
X188860000Y-84938816D01*
X188801011Y-84642257D01*
X188685299Y-84362905D01*
X188517312Y-84111495D01*
X188303505Y-83897688D01*
X188052095Y-83729701D01*
X187772743Y-83613989D01*
X187476184Y-83555000D01*
X187173816Y-83555000D01*
X186877257Y-83613989D01*
X186597905Y-83729701D01*
X186346495Y-83897688D01*
X186132688Y-84111495D01*
X185964701Y-84362905D01*
X185848989Y-84642257D01*
X185790000Y-84938816D01*
X185790000Y-85241184D01*
X185848989Y-85537743D01*
X185964701Y-85817095D01*
X186132688Y-86068505D01*
X186199127Y-86134944D01*
X186180820Y-86140498D01*
X186070506Y-86199463D01*
X185973815Y-86278815D01*
X185894463Y-86375506D01*
X185835498Y-86485820D01*
X185799188Y-86605518D01*
X185786928Y-86730000D01*
X181811000Y-86730000D01*
X181811000Y-86690223D01*
X181741635Y-86341501D01*
X181605571Y-86013012D01*
X181408035Y-85717379D01*
X181156621Y-85465965D01*
X180860988Y-85268429D01*
X180532499Y-85132365D01*
X180183777Y-85063000D01*
X179828223Y-85063000D01*
X179479501Y-85132365D01*
X179151012Y-85268429D01*
X179014067Y-85359933D01*
X179105571Y-85222988D01*
X179241635Y-84894499D01*
X179311000Y-84545777D01*
X179311000Y-84190223D01*
X179241635Y-83841501D01*
X179105571Y-83513012D01*
X178908035Y-83217379D01*
X178656621Y-82965965D01*
X178360988Y-82768429D01*
X178032499Y-82632365D01*
X177683777Y-82563000D01*
X177328223Y-82563000D01*
X176979501Y-82632365D01*
X176651012Y-82768429D01*
X176355379Y-82965965D01*
X176103965Y-83217379D01*
X175906429Y-83513012D01*
X175770365Y-83841501D01*
X175701000Y-84190223D01*
X175701000Y-84545777D01*
X175770365Y-84894499D01*
X175906429Y-85222988D01*
X175997933Y-85359933D01*
X175860988Y-85268429D01*
X175532499Y-85132365D01*
X175183777Y-85063000D01*
X174828223Y-85063000D01*
X174479501Y-85132365D01*
X174151012Y-85268429D01*
X173855379Y-85465965D01*
X173603965Y-85717379D01*
X173406429Y-86013012D01*
X173270365Y-86341501D01*
X173201000Y-86690223D01*
X171749383Y-86690223D01*
X171743101Y-86685068D01*
X171493808Y-86551818D01*
X171223309Y-86469764D01*
X171012492Y-86449000D01*
X170871508Y-86449000D01*
X170660691Y-86469764D01*
X170390192Y-86551818D01*
X170140899Y-86685068D01*
X169922392Y-86864392D01*
X169743068Y-87082899D01*
X169609818Y-87332192D01*
X169527764Y-87602691D01*
X169500057Y-87884000D01*
X162217000Y-87884000D01*
X162217000Y-87742665D01*
X162161853Y-87465426D01*
X162053680Y-87204273D01*
X161896637Y-86969241D01*
X161696759Y-86769363D01*
X161461727Y-86612320D01*
X161200574Y-86504147D01*
X160923335Y-86449000D01*
X160640665Y-86449000D01*
X160363426Y-86504147D01*
X160102273Y-86612320D01*
X159867241Y-86769363D01*
X159770782Y-86865822D01*
X159769608Y-86864392D01*
X159551101Y-86685068D01*
X159301808Y-86551818D01*
X159031309Y-86469764D01*
X158820492Y-86449000D01*
X158679508Y-86449000D01*
X158468691Y-86469764D01*
X158198192Y-86551818D01*
X157948899Y-86685068D01*
X157730392Y-86864392D01*
X157551068Y-87082899D01*
X157417818Y-87332192D01*
X157335764Y-87602691D01*
X157308057Y-87884000D01*
X150025000Y-87884000D01*
X150025000Y-87742665D01*
X149969853Y-87465426D01*
X149861680Y-87204273D01*
X149704637Y-86969241D01*
X149504759Y-86769363D01*
X149269727Y-86612320D01*
X149008574Y-86504147D01*
X148731335Y-86449000D01*
X148448665Y-86449000D01*
X148171426Y-86504147D01*
X147910273Y-86612320D01*
X147675241Y-86769363D01*
X147475363Y-86969241D01*
X147318320Y-87204273D01*
X147210147Y-87465426D01*
X147155000Y-87742665D01*
X147155000Y-88025335D01*
X147182459Y-88163379D01*
X147179059Y-88160589D01*
X147025313Y-88078411D01*
X146858490Y-88027805D01*
X146728477Y-88015000D01*
X146728469Y-88015000D01*
X146685000Y-88010719D01*
X146641531Y-88015000D01*
X144130579Y-88015000D01*
X143125000Y-87009422D01*
X143125000Y-86538759D01*
X143295134Y-86399134D01*
X143480706Y-86173014D01*
X143618599Y-85915034D01*
X143703513Y-85635111D01*
X143732185Y-85344000D01*
X143703513Y-85052889D01*
X143618599Y-84772966D01*
X143480706Y-84514986D01*
X143295134Y-84288866D01*
X143069014Y-84103294D01*
X142811034Y-83965401D01*
X142531111Y-83880487D01*
X142312950Y-83859000D01*
X142167050Y-83859000D01*
X141948889Y-83880487D01*
X141668966Y-83965401D01*
X141410986Y-84103294D01*
X141184866Y-84288866D01*
X140999294Y-84514986D01*
X140970000Y-84569791D01*
X140940706Y-84514986D01*
X140755134Y-84288866D01*
X140529014Y-84103294D01*
X140271034Y-83965401D01*
X139991111Y-83880487D01*
X139772950Y-83859000D01*
X139627050Y-83859000D01*
X139408889Y-83880487D01*
X139128966Y-83965401D01*
X138870986Y-84103294D01*
X138644866Y-84288866D01*
X138620393Y-84318687D01*
X138599502Y-84249820D01*
X138540537Y-84139506D01*
X138461185Y-84042815D01*
X138364494Y-83963463D01*
X138254180Y-83904498D01*
X138134482Y-83868188D01*
X138010000Y-83855928D01*
X136310000Y-83855928D01*
X136185518Y-83868188D01*
X136065820Y-83904498D01*
X135955506Y-83963463D01*
X135858815Y-84042815D01*
X135779463Y-84139506D01*
X135720498Y-84249820D01*
X135684188Y-84369518D01*
X135671928Y-84494000D01*
X135671928Y-86194000D01*
X135684188Y-86318482D01*
X135720498Y-86438180D01*
X135779463Y-86548494D01*
X135858815Y-86645185D01*
X135955506Y-86724537D01*
X135993789Y-86745000D01*
X131615465Y-86745000D01*
X131571999Y-86740719D01*
X131528533Y-86745000D01*
X131528523Y-86745000D01*
X131398510Y-86757805D01*
X131231687Y-86808411D01*
X131077941Y-86890589D01*
X131077939Y-86890590D01*
X131077940Y-86890590D01*
X130976953Y-86973468D01*
X130976951Y-86973470D01*
X130943183Y-87001183D01*
X130915470Y-87034951D01*
X127674951Y-90275471D01*
X127641184Y-90303183D01*
X127613471Y-90336951D01*
X127613468Y-90336954D01*
X127530590Y-90437941D01*
X127448412Y-90591687D01*
X127397805Y-90758510D01*
X127380719Y-90932000D01*
X127385001Y-90975479D01*
X127385000Y-93677005D01*
X127355241Y-93696889D01*
X127155363Y-93896767D01*
X126998320Y-94131799D01*
X126890147Y-94392952D01*
X126835000Y-94670191D01*
X126835000Y-94952861D01*
X126890147Y-95230100D01*
X126998320Y-95491253D01*
X127155363Y-95726285D01*
X127355241Y-95926163D01*
X127590273Y-96083206D01*
X127851426Y-96191379D01*
X128128665Y-96246526D01*
X128411335Y-96246526D01*
X128688574Y-96191379D01*
X128949727Y-96083206D01*
X129184759Y-95926163D01*
X129384637Y-95726285D01*
X129541680Y-95491253D01*
X129649853Y-95230100D01*
X129705000Y-94952861D01*
X129705000Y-94670191D01*
X129649853Y-94392952D01*
X129541680Y-94131799D01*
X129384637Y-93896767D01*
X129184759Y-93696889D01*
X129155000Y-93677005D01*
X129155000Y-91298578D01*
X131938579Y-88515000D01*
X136608531Y-88515000D01*
X136652000Y-88519281D01*
X136695469Y-88515000D01*
X136695477Y-88515000D01*
X136825490Y-88502195D01*
X136992313Y-88451589D01*
X137146059Y-88369411D01*
X137280817Y-88258817D01*
X137308534Y-88225044D01*
X137755045Y-87778533D01*
X137788817Y-87750817D01*
X137899411Y-87616059D01*
X137981589Y-87462313D01*
X138032195Y-87295490D01*
X138045000Y-87165477D01*
X138045000Y-87165467D01*
X138049281Y-87122001D01*
X138045000Y-87078535D01*
X138045000Y-86828625D01*
X138134482Y-86819812D01*
X138254180Y-86783502D01*
X138364494Y-86724537D01*
X138461185Y-86645185D01*
X138540537Y-86548494D01*
X138599502Y-86438180D01*
X138620393Y-86369313D01*
X138644866Y-86399134D01*
X138815001Y-86538760D01*
X138815001Y-87009420D01*
X136914221Y-88910201D01*
X136891044Y-88922589D01*
X136756286Y-89033183D01*
X136728571Y-89066954D01*
X136510525Y-89285000D01*
X135659671Y-89285000D01*
X135616205Y-89280719D01*
X135572739Y-89285000D01*
X135572729Y-89285000D01*
X135442716Y-89297805D01*
X135275893Y-89348411D01*
X135122147Y-89430589D01*
X135122145Y-89430590D01*
X135122146Y-89430590D01*
X135021159Y-89513468D01*
X135021157Y-89513470D01*
X134987389Y-89541183D01*
X134959676Y-89574951D01*
X134142059Y-90392569D01*
X134108286Y-90420286D01*
X133997692Y-90555045D01*
X133915514Y-90708791D01*
X133864908Y-90875614D01*
X133852103Y-91005627D01*
X133852103Y-91005634D01*
X133847822Y-91049103D01*
X133852103Y-91092572D01*
X133852103Y-91179922D01*
X133717495Y-91290393D01*
X133538171Y-91508900D01*
X133467103Y-91641858D01*
X133396035Y-91508899D01*
X133216710Y-91290392D01*
X132998203Y-91111068D01*
X132748910Y-90977818D01*
X132478411Y-90895764D01*
X132197103Y-90868057D01*
X131915794Y-90895764D01*
X131645295Y-90977818D01*
X131396002Y-91111068D01*
X131177495Y-91290393D01*
X130998171Y-91508900D01*
X130864921Y-91758193D01*
X130782867Y-92028692D01*
X130762103Y-92239509D01*
X130762103Y-93180492D01*
X130782867Y-93391309D01*
X130864921Y-93661808D01*
X130998171Y-93911101D01*
X131177496Y-94129608D01*
X131396003Y-94308932D01*
X131645296Y-94442182D01*
X131915795Y-94524236D01*
X132197103Y-94551943D01*
X132478412Y-94524236D01*
X132748911Y-94442182D01*
X132998204Y-94308932D01*
X133216711Y-94129608D01*
X133396035Y-93911101D01*
X133467103Y-93778142D01*
X133538171Y-93911101D01*
X133717496Y-94129608D01*
X133852103Y-94240077D01*
X133852103Y-94688634D01*
X133847822Y-94732103D01*
X133852103Y-94775572D01*
X133852103Y-94775579D01*
X133864908Y-94905592D01*
X133915514Y-95072415D01*
X133997692Y-95226161D01*
X134108286Y-95360920D01*
X134142059Y-95388637D01*
X136275001Y-97521580D01*
X136275000Y-98896027D01*
X136257495Y-98910393D01*
X136078171Y-99128900D01*
X136007103Y-99261858D01*
X135936035Y-99128899D01*
X135756710Y-98910392D01*
X135538203Y-98731068D01*
X135288910Y-98597818D01*
X135018411Y-98515764D01*
X134737103Y-98488057D01*
X134455794Y-98515764D01*
X134185295Y-98597818D01*
X133936002Y-98731068D01*
X133717495Y-98910393D01*
X133624684Y-99023483D01*
X133622915Y-99005518D01*
X133586605Y-98885820D01*
X133527640Y-98775506D01*
X133448288Y-98678815D01*
X133351597Y-98599463D01*
X133241283Y-98540498D01*
X133121585Y-98504188D01*
X132997103Y-98491928D01*
X132974733Y-98491928D01*
X132946411Y-98438941D01*
X132929896Y-98418817D01*
X132863532Y-98337953D01*
X132863530Y-98337951D01*
X132835817Y-98304183D01*
X132802050Y-98276471D01*
X131085534Y-96559956D01*
X131057817Y-96526183D01*
X130923059Y-96415589D01*
X130769313Y-96333411D01*
X130602490Y-96282805D01*
X130472477Y-96270000D01*
X130472469Y-96270000D01*
X130429000Y-96265719D01*
X130385531Y-96270000D01*
X120889579Y-96270000D01*
X119636059Y-95016481D01*
X119608342Y-94982708D01*
X119540562Y-94927082D01*
X119551943Y-94811526D01*
X119524236Y-94530217D01*
X119442182Y-94259718D01*
X119308932Y-94010425D01*
X119129608Y-93791918D01*
X118911101Y-93612594D01*
X118661808Y-93479344D01*
X118391309Y-93397290D01*
X118180492Y-93376526D01*
X118039508Y-93376526D01*
X117828691Y-93397290D01*
X117558192Y-93479344D01*
X117308899Y-93612594D01*
X117090392Y-93791918D01*
X116977071Y-93930000D01*
X115119685Y-93930000D01*
X114928886Y-93739201D01*
X114702043Y-93587629D01*
X114449989Y-93483225D01*
X114182411Y-93430000D01*
X113909589Y-93430000D01*
X113642011Y-93483225D01*
X113389957Y-93587629D01*
X113163114Y-93739201D01*
X112972315Y-93930000D01*
X110989521Y-93930000D01*
X110969637Y-93900241D01*
X110769759Y-93700363D01*
X110534727Y-93543320D01*
X110273574Y-93435147D01*
X109996335Y-93380000D01*
X109713665Y-93380000D01*
X109436426Y-93435147D01*
X109175273Y-93543320D01*
X108940241Y-93700363D01*
X108740363Y-93900241D01*
X108606308Y-94100869D01*
X108591671Y-94073486D01*
X108347702Y-94001903D01*
X107534605Y-94815000D01*
X107175395Y-94815000D01*
X106362298Y-94001903D01*
X106118329Y-94073486D01*
X105997429Y-94328996D01*
X105928700Y-94603184D01*
X105914783Y-94885512D01*
X83595000Y-94885512D01*
X83595000Y-93822298D01*
X106541903Y-93822298D01*
X107355000Y-94635395D01*
X108168097Y-93822298D01*
X108096514Y-93578329D01*
X107841004Y-93457429D01*
X107566816Y-93388700D01*
X107284488Y-93374783D01*
X107004870Y-93416213D01*
X106738708Y-93511397D01*
X106613486Y-93578329D01*
X106541903Y-93822298D01*
X83595000Y-93822298D01*
X83595000Y-83514991D01*
X83632645Y-83131054D01*
X83734276Y-82794439D01*
X83899353Y-82483973D01*
X84121591Y-82211482D01*
X84392518Y-81987352D01*
X84701825Y-81820110D01*
X85037725Y-81716132D01*
X85419543Y-81676001D01*
X190625973Y-81685997D01*
X190625973Y-81685997D01*
G37*
X190625973Y-81685997D02*
X191008006Y-81723455D01*
X191342748Y-81824520D01*
X191651492Y-81988681D01*
X191922471Y-82209687D01*
X192145361Y-82479115D01*
X192311670Y-82786697D01*
X192415072Y-83120736D01*
X192455001Y-83500633D01*
X192455000Y-87545335D01*
X192445261Y-113581000D01*
X83595000Y-113581000D01*
X83595000Y-109150000D01*
X87511928Y-109150000D01*
X87511928Y-110850000D01*
X87524188Y-110974482D01*
X87560498Y-111094180D01*
X87619463Y-111204494D01*
X87698815Y-111301185D01*
X87795506Y-111380537D01*
X87905820Y-111439502D01*
X88025518Y-111475812D01*
X88150000Y-111488072D01*
X89850000Y-111488072D01*
X89974482Y-111475812D01*
X90094180Y-111439502D01*
X90204494Y-111380537D01*
X90301185Y-111301185D01*
X90380537Y-111204494D01*
X90439502Y-111094180D01*
X90460393Y-111025313D01*
X90484866Y-111055134D01*
X90710986Y-111240706D01*
X90968966Y-111378599D01*
X91248889Y-111463513D01*
X91467050Y-111485000D01*
X91612950Y-111485000D01*
X91831111Y-111463513D01*
X92111034Y-111378599D01*
X92369014Y-111240706D01*
X92595134Y-111055134D01*
X92780706Y-110829014D01*
X92810000Y-110774209D01*
X92839294Y-110829014D01*
X93024866Y-111055134D01*
X93250986Y-111240706D01*
X93508966Y-111378599D01*
X93788889Y-111463513D01*
X94007050Y-111485000D01*
X94152950Y-111485000D01*
X94371111Y-111463513D01*
X94651034Y-111378599D01*
X94909014Y-111240706D01*
X95135134Y-111055134D01*
X95320706Y-110829014D01*
X95350000Y-110774209D01*
X95379294Y-110829014D01*
X95564866Y-111055134D01*
X95790986Y-111240706D01*
X96048966Y-111378599D01*
X96328889Y-111463513D01*
X96547050Y-111485000D01*
X96692950Y-111485000D01*
X96911111Y-111463513D01*
X97191034Y-111378599D01*
X97449014Y-111240706D01*
X97675134Y-111055134D01*
X97860706Y-110829014D01*
X97890000Y-110774209D01*
X97919294Y-110829014D01*
X98104866Y-111055134D01*
X98330986Y-111240706D01*
X98588966Y-111378599D01*
X98868889Y-111463513D01*
X99087050Y-111485000D01*
X99232950Y-111485000D01*
X99451111Y-111463513D01*
X99731034Y-111378599D01*
X99989014Y-111240706D01*
X100215134Y-111055134D01*
X100400706Y-110829014D01*
X100430000Y-110774209D01*
X100459294Y-110829014D01*
X100644866Y-111055134D01*
X100870986Y-111240706D01*
X101128966Y-111378599D01*
X101408889Y-111463513D01*
X101627050Y-111485000D01*
X101772950Y-111485000D01*
X101991111Y-111463513D01*
X102271034Y-111378599D01*
X102529014Y-111240706D01*
X102755134Y-111055134D01*
X102940706Y-110829014D01*
X102970000Y-110774209D01*
X102999294Y-110829014D01*
X103184866Y-111055134D01*
X103410986Y-111240706D01*
X103668966Y-111378599D01*
X103948889Y-111463513D01*
X104167050Y-111485000D01*
X104312950Y-111485000D01*
X104531111Y-111463513D01*
X104811034Y-111378599D01*
X105069014Y-111240706D01*
X105295134Y-111055134D01*
X105480706Y-110829014D01*
X105510000Y-110774209D01*
X105539294Y-110829014D01*
X105724866Y-111055134D01*
X105950986Y-111240706D01*
X106208966Y-111378599D01*
X106488889Y-111463513D01*
X106707050Y-111485000D01*
X106852950Y-111485000D01*
X107071111Y-111463513D01*
X107351034Y-111378599D01*
X107609014Y-111240706D01*
X107835134Y-111055134D01*
X108020706Y-110829014D01*
X108050000Y-110774209D01*
X108079294Y-110829014D01*
X108264866Y-111055134D01*
X108490986Y-111240706D01*
X108748966Y-111378599D01*
X109028889Y-111463513D01*
X109247050Y-111485000D01*
X109392950Y-111485000D01*
X109611111Y-111463513D01*
X109891034Y-111378599D01*
X110149014Y-111240706D01*
X110375134Y-111055134D01*
X110560706Y-110829014D01*
X110590000Y-110774209D01*
X110619294Y-110829014D01*
X110804866Y-111055134D01*
X111030986Y-111240706D01*
X111288966Y-111378599D01*
X111568889Y-111463513D01*
X111787050Y-111485000D01*
X111932950Y-111485000D01*
X112151111Y-111463513D01*
X112431034Y-111378599D01*
X112689014Y-111240706D01*
X112915134Y-111055134D01*
X113100706Y-110829014D01*
X113130000Y-110774209D01*
X113159294Y-110829014D01*
X113344866Y-111055134D01*
X113570986Y-111240706D01*
X113828966Y-111378599D01*
X114108889Y-111463513D01*
X114327050Y-111485000D01*
X114472950Y-111485000D01*
X114691111Y-111463513D01*
X114971034Y-111378599D01*
X115229014Y-111240706D01*
X115455134Y-111055134D01*
X115640706Y-110829014D01*
X115670000Y-110774209D01*
X115699294Y-110829014D01*
X115884866Y-111055134D01*
X116110986Y-111240706D01*
X116368966Y-111378599D01*
X116648889Y-111463513D01*
X116867050Y-111485000D01*
X117012950Y-111485000D01*
X117231111Y-111463513D01*
X117511034Y-111378599D01*
X117769014Y-111240706D01*
X117995134Y-111055134D01*
X118180706Y-110829014D01*
X118210000Y-110774209D01*
X118239294Y-110829014D01*
X118424866Y-111055134D01*
X118650986Y-111240706D01*
X118908966Y-111378599D01*
X119188889Y-111463513D01*
X119407050Y-111485000D01*
X119552950Y-111485000D01*
X119771111Y-111463513D01*
X120051034Y-111378599D01*
X120309014Y-111240706D01*
X120535134Y-111055134D01*
X120720706Y-110829014D01*
X120750000Y-110774209D01*
X120779294Y-110829014D01*
X120964866Y-111055134D01*
X121190986Y-111240706D01*
X121448966Y-111378599D01*
X121728889Y-111463513D01*
X121947050Y-111485000D01*
X122092950Y-111485000D01*
X122311111Y-111463513D01*
X122591034Y-111378599D01*
X122849014Y-111240706D01*
X123075134Y-111055134D01*
X123260706Y-110829014D01*
X123290000Y-110774209D01*
X123319294Y-110829014D01*
X123504866Y-111055134D01*
X123730986Y-111240706D01*
X123988966Y-111378599D01*
X124268889Y-111463513D01*
X124487050Y-111485000D01*
X124632950Y-111485000D01*
X124851111Y-111463513D01*
X125131034Y-111378599D01*
X125389014Y-111240706D01*
X125615134Y-111055134D01*
X125800706Y-110829014D01*
X125830000Y-110774209D01*
X125859294Y-110829014D01*
X126044866Y-111055134D01*
X126270986Y-111240706D01*
X126528966Y-111378599D01*
X126808889Y-111463513D01*
X127027050Y-111485000D01*
X127172950Y-111485000D01*
X127391111Y-111463513D01*
X127671034Y-111378599D01*
X127929014Y-111240706D01*
X128155134Y-111055134D01*
X128340706Y-110829014D01*
X128375201Y-110764477D01*
X128444822Y-110881355D01*
X128639731Y-111097588D01*
X128873080Y-111271641D01*
X129135901Y-111396825D01*
X129283110Y-111441476D01*
X129513000Y-111320155D01*
X129513000Y-110127000D01*
X129493000Y-110127000D01*
X129493000Y-109873000D01*
X129513000Y-109873000D01*
X129513000Y-108679845D01*
X129283110Y-108558524D01*
X129135901Y-108603175D01*
X128873080Y-108728359D01*
X128639731Y-108902412D01*
X128444822Y-109118645D01*
X128375201Y-109235523D01*
X128340706Y-109170986D01*
X128155134Y-108944866D01*
X127929014Y-108759294D01*
X127671034Y-108621401D01*
X127391111Y-108536487D01*
X127172950Y-108515000D01*
X127027050Y-108515000D01*
X126808889Y-108536487D01*
X126528966Y-108621401D01*
X126270986Y-108759294D01*
X126044866Y-108944866D01*
X125859294Y-109170986D01*
X125830000Y-109225791D01*
X125800706Y-109170986D01*
X125615134Y-108944866D01*
X125389014Y-108759294D01*
X125131034Y-108621401D01*
X124851111Y-108536487D01*
X124632950Y-108515000D01*
X124487050Y-108515000D01*
X124268889Y-108536487D01*
X123988966Y-108621401D01*
X123730986Y-108759294D01*
X123504866Y-108944866D01*
X123319294Y-109170986D01*
X123290000Y-109225791D01*
X123260706Y-109170986D01*
X123075134Y-108944866D01*
X122849014Y-108759294D01*
X122591034Y-108621401D01*
X122311111Y-108536487D01*
X122092950Y-108515000D01*
X121947050Y-108515000D01*
X121728889Y-108536487D01*
X121448966Y-108621401D01*
X121190986Y-108759294D01*
X120964866Y-108944866D01*
X120779294Y-109170986D01*
X120750000Y-109225791D01*
X120720706Y-109170986D01*
X120535134Y-108944866D01*
X120309014Y-108759294D01*
X120051034Y-108621401D01*
X119771111Y-108536487D01*
X119552950Y-108515000D01*
X119407050Y-108515000D01*
X119188889Y-108536487D01*
X118908966Y-108621401D01*
X118650986Y-108759294D01*
X118424866Y-108944866D01*
X118239294Y-109170986D01*
X118210000Y-109225791D01*
X118180706Y-109170986D01*
X117995134Y-108944866D01*
X117769014Y-108759294D01*
X117511034Y-108621401D01*
X117231111Y-108536487D01*
X117012950Y-108515000D01*
X116867050Y-108515000D01*
X116648889Y-108536487D01*
X116368966Y-108621401D01*
X116110986Y-108759294D01*
X115884866Y-108944866D01*
X115699294Y-109170986D01*
X115670000Y-109225791D01*
X115640706Y-109170986D01*
X115455134Y-108944866D01*
X115229014Y-108759294D01*
X114971034Y-108621401D01*
X114691111Y-108536487D01*
X114472950Y-108515000D01*
X114327050Y-108515000D01*
X114108889Y-108536487D01*
X113828966Y-108621401D01*
X113570986Y-108759294D01*
X113344866Y-108944866D01*
X113159294Y-109170986D01*
X113130000Y-109225791D01*
X113100706Y-109170986D01*
X112915134Y-108944866D01*
X112689014Y-108759294D01*
X112431034Y-108621401D01*
X112151111Y-108536487D01*
X111932950Y-108515000D01*
X111787050Y-108515000D01*
X111568889Y-108536487D01*
X111288966Y-108621401D01*
X111030986Y-108759294D01*
X110804866Y-108944866D01*
X110619294Y-109170986D01*
X110590000Y-109225791D01*
X110560706Y-109170986D01*
X110375134Y-108944866D01*
X110149014Y-108759294D01*
X109891034Y-108621401D01*
X109611111Y-108536487D01*
X109392950Y-108515000D01*
X109247050Y-108515000D01*
X109028889Y-108536487D01*
X108748966Y-108621401D01*
X108490986Y-108759294D01*
X108264866Y-108944866D01*
X108079294Y-109170986D01*
X108050000Y-109225791D01*
X108020706Y-109170986D01*
X107835134Y-108944866D01*
X107609014Y-108759294D01*
X107351034Y-108621401D01*
X107071111Y-108536487D01*
X106852950Y-108515000D01*
X106707050Y-108515000D01*
X106488889Y-108536487D01*
X106208966Y-108621401D01*
X105950986Y-108759294D01*
X105724866Y-108944866D01*
X105539294Y-109170986D01*
X105510000Y-109225791D01*
X105480706Y-109170986D01*
X105295134Y-108944866D01*
X105069014Y-108759294D01*
X104811034Y-108621401D01*
X104531111Y-108536487D01*
X104312950Y-108515000D01*
X104167050Y-108515000D01*
X103948889Y-108536487D01*
X103668966Y-108621401D01*
X103410986Y-108759294D01*
X103184866Y-108944866D01*
X102999294Y-109170986D01*
X102970000Y-109225791D01*
X102940706Y-109170986D01*
X102755134Y-108944866D01*
X102529014Y-108759294D01*
X102271034Y-108621401D01*
X101991111Y-108536487D01*
X101772950Y-108515000D01*
X101627050Y-108515000D01*
X101408889Y-108536487D01*
X101128966Y-108621401D01*
X100870986Y-108759294D01*
X100644866Y-108944866D01*
X100459294Y-109170986D01*
X100430000Y-109225791D01*
X100400706Y-109170986D01*
X100215134Y-108944866D01*
X99989014Y-108759294D01*
X99731034Y-108621401D01*
X99451111Y-108536487D01*
X99232950Y-108515000D01*
X99087050Y-108515000D01*
X98868889Y-108536487D01*
X98588966Y-108621401D01*
X98330986Y-108759294D01*
X98104866Y-108944866D01*
X97919294Y-109170986D01*
X97890000Y-109225791D01*
X97860706Y-109170986D01*
X97675134Y-108944866D01*
X97449014Y-108759294D01*
X97191034Y-108621401D01*
X96911111Y-108536487D01*
X96692950Y-108515000D01*
X96547050Y-108515000D01*
X96328889Y-108536487D01*
X96048966Y-108621401D01*
X95790986Y-108759294D01*
X95564866Y-108944866D01*
X95379294Y-109170986D01*
X95350000Y-109225791D01*
X95320706Y-109170986D01*
X95135134Y-108944866D01*
X94909014Y-108759294D01*
X94651034Y-108621401D01*
X94371111Y-108536487D01*
X94152950Y-108515000D01*
X94007050Y-108515000D01*
X93788889Y-108536487D01*
X93508966Y-108621401D01*
X93250986Y-108759294D01*
X93024866Y-108944866D01*
X92839294Y-109170986D01*
X92810000Y-109225791D01*
X92780706Y-109170986D01*
X92595134Y-108944866D01*
X92369014Y-108759294D01*
X92111034Y-108621401D01*
X91831111Y-108536487D01*
X91612950Y-108515000D01*
X91467050Y-108515000D01*
X91248889Y-108536487D01*
X90968966Y-108621401D01*
X90710986Y-108759294D01*
X90484866Y-108944866D01*
X90460393Y-108974687D01*
X90439502Y-108905820D01*
X90380537Y-108795506D01*
X90301185Y-108698815D01*
X90204494Y-108619463D01*
X90094180Y-108560498D01*
X89974482Y-108524188D01*
X89850000Y-108511928D01*
X88150000Y-108511928D01*
X88025518Y-108524188D01*
X87905820Y-108560498D01*
X87795506Y-108619463D01*
X87698815Y-108698815D01*
X87619463Y-108795506D01*
X87560498Y-108905820D01*
X87524188Y-109025518D01*
X87511928Y-109150000D01*
X83595000Y-109150000D01*
X83595000Y-106402702D01*
X126186903Y-106402702D01*
X126258486Y-106646671D01*
X126513996Y-106767571D01*
X126788184Y-106836300D01*
X127070512Y-106850217D01*
X127350130Y-106808787D01*
X127616292Y-106713603D01*
X127741514Y-106646671D01*
X127813097Y-106402702D01*
X127000000Y-105589605D01*
X126186903Y-106402702D01*
X83595000Y-106402702D01*
X83595000Y-105480512D01*
X125559783Y-105480512D01*
X125601213Y-105760130D01*
X125696397Y-106026292D01*
X125763329Y-106151514D01*
X126007298Y-106223097D01*
X126820395Y-105410000D01*
X126007298Y-104596903D01*
X125763329Y-104668486D01*
X125642429Y-104923996D01*
X125573700Y-105198184D01*
X125559783Y-105480512D01*
X83595000Y-105480512D01*
X83595000Y-104417298D01*
X126186903Y-104417298D01*
X127000000Y-105230395D01*
X127813097Y-104417298D01*
X127741514Y-104173329D01*
X127486004Y-104052429D01*
X127211816Y-103983700D01*
X126929488Y-103969783D01*
X126649870Y-104011213D01*
X126383708Y-104106397D01*
X126258486Y-104173329D01*
X126186903Y-104417298D01*
X83595000Y-104417298D01*
X83595000Y-100687702D01*
X106541903Y-100687702D01*
X106613486Y-100931671D01*
X106868996Y-101052571D01*
X107143184Y-101121300D01*
X107425512Y-101135217D01*
X107705130Y-101093787D01*
X107971292Y-100998603D01*
X108096514Y-100931671D01*
X108168097Y-100687702D01*
X107355000Y-99874605D01*
X106541903Y-100687702D01*
X83595000Y-100687702D01*
X83595000Y-99765512D01*
X105914783Y-99765512D01*
X105956213Y-100045130D01*
X106051397Y-100311292D01*
X106118329Y-100436514D01*
X106362298Y-100508097D01*
X107175395Y-99695000D01*
X106362298Y-98881903D01*
X106118329Y-98953486D01*
X105997429Y-99208996D01*
X105928700Y-99483184D01*
X105914783Y-99765512D01*
X83595000Y-99765512D01*
X83595000Y-98702298D01*
X106541903Y-98702298D01*
X107355000Y-99515395D01*
X108168097Y-98702298D01*
X108096514Y-98458329D01*
X107841004Y-98337429D01*
X107566816Y-98268700D01*
X107284488Y-98254783D01*
X107004870Y-98296213D01*
X106738708Y-98391397D01*
X106613486Y-98458329D01*
X106541903Y-98702298D01*
X83595000Y-98702298D01*
X83595000Y-95807702D01*
X106541903Y-95807702D01*
X106613486Y-96051671D01*
X106868996Y-96172571D01*
X107143184Y-96241300D01*
X107425512Y-96255217D01*
X107705130Y-96213787D01*
X107971292Y-96118603D01*
X108096514Y-96051671D01*
X108168097Y-95807702D01*
X107355000Y-94994605D01*
X106541903Y-95807702D01*
X83595000Y-95807702D01*
X83595000Y-94885512D01*
X105914783Y-94885512D01*
X105956213Y-95165130D01*
X106051397Y-95431292D01*
X106118329Y-95556514D01*
X106362298Y-95628097D01*
X107175395Y-94815000D01*
X107534605Y-94815000D01*
X108347702Y-95628097D01*
X108591671Y-95556514D01*
X108605324Y-95527659D01*
X108740363Y-95729759D01*
X108940241Y-95929637D01*
X109175273Y-96086680D01*
X109436426Y-96194853D01*
X109713665Y-96250000D01*
X109996335Y-96250000D01*
X110273574Y-96194853D01*
X110534727Y-96086680D01*
X110769759Y-95929637D01*
X110969637Y-95729759D01*
X110989521Y-95700000D01*
X112395000Y-95700000D01*
X112395000Y-98810000D01*
X110989521Y-98810000D01*
X110969637Y-98780241D01*
X110769759Y-98580363D01*
X110534727Y-98423320D01*
X110273574Y-98315147D01*
X109996335Y-98260000D01*
X109713665Y-98260000D01*
X109436426Y-98315147D01*
X109175273Y-98423320D01*
X108940241Y-98580363D01*
X108740363Y-98780241D01*
X108606308Y-98980869D01*
X108591671Y-98953486D01*
X108347702Y-98881903D01*
X107534605Y-99695000D01*
X108347702Y-100508097D01*
X108591671Y-100436514D01*
X108605324Y-100407659D01*
X108740363Y-100609759D01*
X108940241Y-100809637D01*
X109175273Y-100966680D01*
X109436426Y-101074853D01*
X109713665Y-101130000D01*
X109996335Y-101130000D01*
X110273574Y-101074853D01*
X110534727Y-100966680D01*
X110769759Y-100809637D01*
X110969637Y-100609759D01*
X110989521Y-100580000D01*
X112972315Y-100580000D01*
X113163114Y-100770799D01*
X113389957Y-100922371D01*
X113642011Y-101026775D01*
X113909589Y-101080000D01*
X114182411Y-101080000D01*
X114449989Y-101026775D01*
X114702043Y-100922371D01*
X114928886Y-100770799D01*
X115119685Y-100580000D01*
X116975479Y-100580000D01*
X116995363Y-100609759D01*
X117195241Y-100809637D01*
X117430273Y-100966680D01*
X117691426Y-101074853D01*
X117968665Y-101130000D01*
X118251335Y-101130000D01*
X118528574Y-101074853D01*
X118789727Y-100966680D01*
X119024759Y-100809637D01*
X119224637Y-100609759D01*
X119381680Y-100374727D01*
X119489853Y-100113574D01*
X119545000Y-99836335D01*
X119545000Y-99553665D01*
X119489853Y-99276426D01*
X119381680Y-99015273D01*
X119224637Y-98780241D01*
X119024759Y-98580363D01*
X118789727Y-98423320D01*
X118528574Y-98315147D01*
X118251335Y-98260000D01*
X117968665Y-98260000D01*
X117691426Y-98315147D01*
X117430273Y-98423320D01*
X117195241Y-98580363D01*
X116995363Y-98780241D01*
X116975479Y-98810000D01*
X115824000Y-98810000D01*
X115824000Y-95700000D01*
X116982773Y-95700000D01*
X117090392Y-95831134D01*
X117308899Y-96010458D01*
X117558192Y-96143708D01*
X117828691Y-96225762D01*
X118039508Y-96246526D01*
X118180492Y-96246526D01*
X118278347Y-96236888D01*
X118281182Y-96240342D01*
X118314950Y-96268055D01*
X118314952Y-96268057D01*
X118370920Y-96313989D01*
X118415940Y-96350936D01*
X118526398Y-96409977D01*
X119866470Y-97750049D01*
X119894183Y-97783817D01*
X119927951Y-97811530D01*
X119927953Y-97811532D01*
X119977485Y-97852182D01*
X120028941Y-97894411D01*
X120182687Y-97976589D01*
X120349510Y-98027195D01*
X120479523Y-98040000D01*
X120479533Y-98040000D01*
X120522999Y-98044281D01*
X120566465Y-98040000D01*
X130062422Y-98040000D01*
X130842657Y-98820236D01*
X130807601Y-98885820D01*
X130771291Y-99005518D01*
X130759031Y-99130000D01*
X130759031Y-101530000D01*
X130771291Y-101654482D01*
X130807601Y-101774180D01*
X130866566Y-101884494D01*
X130945918Y-101981185D01*
X131042609Y-102060537D01*
X131152923Y-102119502D01*
X131272621Y-102155812D01*
X131397103Y-102168072D01*
X132997103Y-102168072D01*
X133121585Y-102155812D01*
X133241283Y-102119502D01*
X133351597Y-102060537D01*
X133448288Y-101981185D01*
X133527640Y-101884494D01*
X133586605Y-101774180D01*
X133622915Y-101654482D01*
X133624684Y-101636517D01*
X133717496Y-101749608D01*
X133744091Y-101771434D01*
X133110422Y-102405103D01*
X130629476Y-102405103D01*
X129155000Y-100930628D01*
X129155000Y-100825078D01*
X129289608Y-100714608D01*
X129468932Y-100496101D01*
X129602182Y-100246808D01*
X129684236Y-99976309D01*
X129711943Y-99695000D01*
X129684236Y-99413691D01*
X129602182Y-99143192D01*
X129468932Y-98893899D01*
X129289608Y-98675392D01*
X129071101Y-98496068D01*
X128821808Y-98362818D01*
X128551309Y-98280764D01*
X128340492Y-98260000D01*
X128199508Y-98260000D01*
X127988691Y-98280764D01*
X127718192Y-98362818D01*
X127468899Y-98496068D01*
X127250392Y-98675392D01*
X127071068Y-98893899D01*
X126937818Y-99143192D01*
X126855764Y-99413691D01*
X126828057Y-99695000D01*
X126855764Y-99976309D01*
X126937818Y-100246808D01*
X127071068Y-100496101D01*
X127250392Y-100714608D01*
X127385000Y-100825078D01*
X127385000Y-101253737D01*
X127380719Y-101297206D01*
X127385000Y-101340675D01*
X127385000Y-101340682D01*
X127394265Y-101434754D01*
X127397805Y-101470696D01*
X127407262Y-101501871D01*
X127448411Y-101637518D01*
X127530589Y-101791264D01*
X127641183Y-101926023D01*
X127674956Y-101953740D01*
X129606367Y-103885152D01*
X129634080Y-103918920D01*
X129667848Y-103946633D01*
X129667850Y-103946635D01*
X129719248Y-103988816D01*
X129721953Y-103991036D01*
X129641335Y-103975000D01*
X129358665Y-103975000D01*
X129081426Y-104030147D01*
X128820273Y-104138320D01*
X128585241Y-104295363D01*
X128385363Y-104495241D01*
X128251308Y-104695869D01*
X128236671Y-104668486D01*
X127992702Y-104596903D01*
X127179605Y-105410000D01*
X127992702Y-106223097D01*
X128236671Y-106151514D01*
X128250324Y-106122659D01*
X128385363Y-106324759D01*
X128585241Y-106524637D01*
X128820273Y-106681680D01*
X129081426Y-106789853D01*
X129358665Y-106845000D01*
X129641335Y-106845000D01*
X129918574Y-106789853D01*
X130179727Y-106681680D01*
X130414759Y-106524637D01*
X130614637Y-106324759D01*
X130771680Y-106089727D01*
X130879853Y-105828574D01*
X130935000Y-105551335D01*
X130935000Y-105268665D01*
X130879853Y-104991426D01*
X130771680Y-104730273D01*
X130614637Y-104495241D01*
X130414759Y-104295363D01*
X130237430Y-104176876D01*
X130262897Y-104179384D01*
X130306366Y-104175103D01*
X133355448Y-104175103D01*
X133289463Y-104255506D01*
X133230498Y-104365820D01*
X133194188Y-104485518D01*
X133181928Y-104610000D01*
X133181928Y-106210000D01*
X133194188Y-106334482D01*
X133230498Y-106454180D01*
X133289463Y-106564494D01*
X133368815Y-106661185D01*
X133465506Y-106740537D01*
X133575820Y-106799502D01*
X133695518Y-106835812D01*
X133820000Y-106848072D01*
X135420000Y-106848072D01*
X135544482Y-106835812D01*
X135664180Y-106799502D01*
X135774494Y-106740537D01*
X135871185Y-106661185D01*
X135950537Y-106564494D01*
X136009502Y-106454180D01*
X136025117Y-106402702D01*
X136306903Y-106402702D01*
X136378486Y-106646671D01*
X136633996Y-106767571D01*
X136908184Y-106836300D01*
X137190512Y-106850217D01*
X137470130Y-106808787D01*
X137736292Y-106713603D01*
X137861514Y-106646671D01*
X137933097Y-106402702D01*
X137120000Y-105589605D01*
X136306903Y-106402702D01*
X136025117Y-106402702D01*
X136045812Y-106334482D01*
X136058072Y-106210000D01*
X136058072Y-106202785D01*
X136127298Y-106223097D01*
X136940395Y-105410000D01*
X137299605Y-105410000D01*
X138112702Y-106223097D01*
X138356671Y-106151514D01*
X138477571Y-105896004D01*
X138546300Y-105621816D01*
X138560217Y-105339488D01*
X138518787Y-105059870D01*
X138423603Y-104793708D01*
X138356671Y-104668486D01*
X138112702Y-104596903D01*
X137299605Y-105410000D01*
X136940395Y-105410000D01*
X136127298Y-104596903D01*
X136058072Y-104617215D01*
X136058072Y-104610000D01*
X136045812Y-104485518D01*
X136025118Y-104417298D01*
X136306903Y-104417298D01*
X137120000Y-105230395D01*
X137933097Y-104417298D01*
X137861514Y-104173329D01*
X137606004Y-104052429D01*
X137331816Y-103983700D01*
X137049488Y-103969783D01*
X136769870Y-104011213D01*
X136503708Y-104106397D01*
X136378486Y-104173329D01*
X136306903Y-104417298D01*
X136025118Y-104417298D01*
X136009502Y-104365820D01*
X135950537Y-104255506D01*
X135871185Y-104158815D01*
X135774494Y-104079463D01*
X135664180Y-104020498D01*
X135544482Y-103984188D01*
X135420000Y-103971928D01*
X134041227Y-103971928D01*
X134105817Y-103918920D01*
X134133534Y-103885147D01*
X135332152Y-102686530D01*
X135365920Y-102658817D01*
X135393636Y-102625046D01*
X135476514Y-102524059D01*
X135517000Y-102448314D01*
X135558692Y-102370313D01*
X135609298Y-102203490D01*
X135622103Y-102073477D01*
X135622103Y-102073469D01*
X135626384Y-102030000D01*
X135622103Y-101986531D01*
X135622103Y-101860078D01*
X135756711Y-101749608D01*
X135936035Y-101531101D01*
X136007103Y-101398142D01*
X136078171Y-101531101D01*
X136257496Y-101749608D01*
X136476003Y-101928932D01*
X136725296Y-102062182D01*
X136995795Y-102144236D01*
X137277103Y-102171943D01*
X137558412Y-102144236D01*
X137828911Y-102062182D01*
X138078204Y-101928932D01*
X138296711Y-101749608D01*
X138476035Y-101531101D01*
X138547103Y-101398142D01*
X138618171Y-101531101D01*
X138797496Y-101749608D01*
X139016003Y-101928932D01*
X139265296Y-102062182D01*
X139535795Y-102144236D01*
X139817103Y-102171943D01*
X140098412Y-102144236D01*
X140368911Y-102062182D01*
X140618204Y-101928932D01*
X140836711Y-101749608D01*
X141016035Y-101531101D01*
X141087103Y-101398142D01*
X141158171Y-101531101D01*
X141337496Y-101749608D01*
X141556003Y-101928932D01*
X141805296Y-102062182D01*
X142075795Y-102144236D01*
X142357103Y-102171943D01*
X142638412Y-102144236D01*
X142908911Y-102062182D01*
X143158204Y-101928932D01*
X143376711Y-101749608D01*
X143556035Y-101531101D01*
X143627103Y-101398142D01*
X143698171Y-101531101D01*
X143877496Y-101749608D01*
X144096003Y-101928932D01*
X144294761Y-102035170D01*
X144295200Y-102036617D01*
X144328454Y-102146246D01*
X144399026Y-102278276D01*
X144453665Y-102344853D01*
X144494000Y-102394001D01*
X144522998Y-102417799D01*
X151074201Y-108969003D01*
X151097999Y-108998001D01*
X151213724Y-109092974D01*
X151289901Y-109133692D01*
X151259294Y-109170986D01*
X151230000Y-109225791D01*
X151200706Y-109170986D01*
X151015134Y-108944866D01*
X150789014Y-108759294D01*
X150531034Y-108621401D01*
X150251111Y-108536487D01*
X150032950Y-108515000D01*
X149887050Y-108515000D01*
X149668889Y-108536487D01*
X149388966Y-108621401D01*
X149130986Y-108759294D01*
X148904866Y-108944866D01*
X148719294Y-109170986D01*
X148690000Y-109225791D01*
X148660706Y-109170986D01*
X148475134Y-108944866D01*
X148249014Y-108759294D01*
X147991034Y-108621401D01*
X147711111Y-108536487D01*
X147492950Y-108515000D01*
X147347050Y-108515000D01*
X147128889Y-108536487D01*
X146848966Y-108621401D01*
X146590986Y-108759294D01*
X146364866Y-108944866D01*
X146179294Y-109170986D01*
X146150000Y-109225791D01*
X146120706Y-109170986D01*
X145935134Y-108944866D01*
X145709014Y-108759294D01*
X145451034Y-108621401D01*
X145171111Y-108536487D01*
X144952950Y-108515000D01*
X144807050Y-108515000D01*
X144588889Y-108536487D01*
X144308966Y-108621401D01*
X144050986Y-108759294D01*
X143824866Y-108944866D01*
X143639294Y-109170986D01*
X143610000Y-109225791D01*
X143580706Y-109170986D01*
X143395134Y-108944866D01*
X143169014Y-108759294D01*
X142911034Y-108621401D01*
X142631111Y-108536487D01*
X142412950Y-108515000D01*
X142267050Y-108515000D01*
X142048889Y-108536487D01*
X141768966Y-108621401D01*
X141510986Y-108759294D01*
X141284866Y-108944866D01*
X141099294Y-109170986D01*
X141070000Y-109225791D01*
X141040706Y-109170986D01*
X140855134Y-108944866D01*
X140629014Y-108759294D01*
X140371034Y-108621401D01*
X140091111Y-108536487D01*
X139872950Y-108515000D01*
X139727050Y-108515000D01*
X139508889Y-108536487D01*
X139228966Y-108621401D01*
X138970986Y-108759294D01*
X138744866Y-108944866D01*
X138559294Y-109170986D01*
X138530000Y-109225791D01*
X138500706Y-109170986D01*
X138315134Y-108944866D01*
X138089014Y-108759294D01*
X137831034Y-108621401D01*
X137551111Y-108536487D01*
X137332950Y-108515000D01*
X137187050Y-108515000D01*
X136968889Y-108536487D01*
X136688966Y-108621401D01*
X136430986Y-108759294D01*
X136204866Y-108944866D01*
X136019294Y-109170986D01*
X135990000Y-109225791D01*
X135960706Y-109170986D01*
X135775134Y-108944866D01*
X135549014Y-108759294D01*
X135291034Y-108621401D01*
X135011111Y-108536487D01*
X134792950Y-108515000D01*
X134647050Y-108515000D01*
X134428889Y-108536487D01*
X134148966Y-108621401D01*
X133890986Y-108759294D01*
X133664866Y-108944866D01*
X133479294Y-109170986D01*
X133450000Y-109225791D01*
X133420706Y-109170986D01*
X133235134Y-108944866D01*
X133009014Y-108759294D01*
X132751034Y-108621401D01*
X132471111Y-108536487D01*
X132252950Y-108515000D01*
X132107050Y-108515000D01*
X131888889Y-108536487D01*
X131608966Y-108621401D01*
X131350986Y-108759294D01*
X131124866Y-108944866D01*
X130939294Y-109170986D01*
X130904799Y-109235523D01*
X130835178Y-109118645D01*
X130640269Y-108902412D01*
X130406920Y-108728359D01*
X130144099Y-108603175D01*
X129996890Y-108558524D01*
X129767000Y-108679845D01*
X129767000Y-109873000D01*
X129787000Y-109873000D01*
X129787000Y-110127000D01*
X129767000Y-110127000D01*
X129767000Y-111320155D01*
X129996890Y-111441476D01*
X130144099Y-111396825D01*
X130406920Y-111271641D01*
X130640269Y-111097588D01*
X130835178Y-110881355D01*
X130904799Y-110764477D01*
X130939294Y-110829014D01*
X131124866Y-111055134D01*
X131350986Y-111240706D01*
X131608966Y-111378599D01*
X131888889Y-111463513D01*
X132107050Y-111485000D01*
X132252950Y-111485000D01*
X132471111Y-111463513D01*
X132751034Y-111378599D01*
X133009014Y-111240706D01*
X133235134Y-111055134D01*
X133420706Y-110829014D01*
X133450000Y-110774209D01*
X133479294Y-110829014D01*
X133664866Y-111055134D01*
X133890986Y-111240706D01*
X134148966Y-111378599D01*
X134428889Y-111463513D01*
X134647050Y-111485000D01*
X134792950Y-111485000D01*
X135011111Y-111463513D01*
X135291034Y-111378599D01*
X135549014Y-111240706D01*
X135775134Y-111055134D01*
X135960706Y-110829014D01*
X135990000Y-110774209D01*
X136019294Y-110829014D01*
X136204866Y-111055134D01*
X136430986Y-111240706D01*
X136688966Y-111378599D01*
X136968889Y-111463513D01*
X137187050Y-111485000D01*
X137332950Y-111485000D01*
X137551111Y-111463513D01*
X137831034Y-111378599D01*
X138089014Y-111240706D01*
X138315134Y-111055134D01*
X138500706Y-110829014D01*
X138530000Y-110774209D01*
X138559294Y-110829014D01*
X138744866Y-111055134D01*
X138970986Y-111240706D01*
X139228966Y-111378599D01*
X139508889Y-111463513D01*
X139727050Y-111485000D01*
X139872950Y-111485000D01*
X140091111Y-111463513D01*
X140371034Y-111378599D01*
X140629014Y-111240706D01*
X140855134Y-111055134D01*
X141040706Y-110829014D01*
X141070000Y-110774209D01*
X141099294Y-110829014D01*
X141284866Y-111055134D01*
X141510986Y-111240706D01*
X141768966Y-111378599D01*
X142048889Y-111463513D01*
X142267050Y-111485000D01*
X142412950Y-111485000D01*
X142631111Y-111463513D01*
X142911034Y-111378599D01*
X143169014Y-111240706D01*
X143395134Y-111055134D01*
X143580706Y-110829014D01*
X143610000Y-110774209D01*
X143639294Y-110829014D01*
X143824866Y-111055134D01*
X144050986Y-111240706D01*
X144308966Y-111378599D01*
X144588889Y-111463513D01*
X144807050Y-111485000D01*
X144952950Y-111485000D01*
X145171111Y-111463513D01*
X145451034Y-111378599D01*
X145709014Y-111240706D01*
X145935134Y-111055134D01*
X146120706Y-110829014D01*
X146150000Y-110774209D01*
X146179294Y-110829014D01*
X146364866Y-111055134D01*
X146590986Y-111240706D01*
X146848966Y-111378599D01*
X147128889Y-111463513D01*
X147347050Y-111485000D01*
X147492950Y-111485000D01*
X147711111Y-111463513D01*
X147991034Y-111378599D01*
X148249014Y-111240706D01*
X148475134Y-111055134D01*
X148660706Y-110829014D01*
X148690000Y-110774209D01*
X148719294Y-110829014D01*
X148904866Y-111055134D01*
X149130986Y-111240706D01*
X149388966Y-111378599D01*
X149668889Y-111463513D01*
X149887050Y-111485000D01*
X150032950Y-111485000D01*
X150251111Y-111463513D01*
X150531034Y-111378599D01*
X150789014Y-111240706D01*
X151015134Y-111055134D01*
X151200706Y-110829014D01*
X151230000Y-110774209D01*
X151259294Y-110829014D01*
X151444866Y-111055134D01*
X151670986Y-111240706D01*
X151928966Y-111378599D01*
X152208889Y-111463513D01*
X152427050Y-111485000D01*
X152572950Y-111485000D01*
X152791111Y-111463513D01*
X153071034Y-111378599D01*
X153329014Y-111240706D01*
X153555134Y-111055134D01*
X153740706Y-110829014D01*
X153770000Y-110774209D01*
X153799294Y-110829014D01*
X153984866Y-111055134D01*
X154210986Y-111240706D01*
X154468966Y-111378599D01*
X154748889Y-111463513D01*
X154967050Y-111485000D01*
X155112950Y-111485000D01*
X155331111Y-111463513D01*
X155611034Y-111378599D01*
X155869014Y-111240706D01*
X156095134Y-111055134D01*
X156280706Y-110829014D01*
X156310000Y-110774209D01*
X156339294Y-110829014D01*
X156524866Y-111055134D01*
X156750986Y-111240706D01*
X157008966Y-111378599D01*
X157288889Y-111463513D01*
X157507050Y-111485000D01*
X157652950Y-111485000D01*
X157871111Y-111463513D01*
X158151034Y-111378599D01*
X158409014Y-111240706D01*
X158635134Y-111055134D01*
X158820706Y-110829014D01*
X158850000Y-110774209D01*
X158879294Y-110829014D01*
X159064866Y-111055134D01*
X159290986Y-111240706D01*
X159548966Y-111378599D01*
X159828889Y-111463513D01*
X160047050Y-111485000D01*
X160192950Y-111485000D01*
X160411111Y-111463513D01*
X160691034Y-111378599D01*
X160949014Y-111240706D01*
X161175134Y-111055134D01*
X161360706Y-110829014D01*
X161390000Y-110774209D01*
X161419294Y-110829014D01*
X161604866Y-111055134D01*
X161830986Y-111240706D01*
X162088966Y-111378599D01*
X162368889Y-111463513D01*
X162587050Y-111485000D01*
X162732950Y-111485000D01*
X162951111Y-111463513D01*
X163231034Y-111378599D01*
X163489014Y-111240706D01*
X163715134Y-111055134D01*
X163900706Y-110829014D01*
X163930000Y-110774209D01*
X163959294Y-110829014D01*
X164144866Y-111055134D01*
X164370986Y-111240706D01*
X164628966Y-111378599D01*
X164908889Y-111463513D01*
X165127050Y-111485000D01*
X165272950Y-111485000D01*
X165491111Y-111463513D01*
X165771034Y-111378599D01*
X166029014Y-111240706D01*
X166255134Y-111055134D01*
X166440706Y-110829014D01*
X166470000Y-110774209D01*
X166499294Y-110829014D01*
X166684866Y-111055134D01*
X166910986Y-111240706D01*
X167168966Y-111378599D01*
X167448889Y-111463513D01*
X167667050Y-111485000D01*
X167812950Y-111485000D01*
X168031111Y-111463513D01*
X168311034Y-111378599D01*
X168569014Y-111240706D01*
X168795134Y-111055134D01*
X168980706Y-110829014D01*
X169010000Y-110774209D01*
X169039294Y-110829014D01*
X169224866Y-111055134D01*
X169450986Y-111240706D01*
X169708966Y-111378599D01*
X169988889Y-111463513D01*
X170207050Y-111485000D01*
X170352950Y-111485000D01*
X170571111Y-111463513D01*
X170851034Y-111378599D01*
X171109014Y-111240706D01*
X171335134Y-111055134D01*
X171520706Y-110829014D01*
X171550000Y-110774209D01*
X171579294Y-110829014D01*
X171764866Y-111055134D01*
X171990986Y-111240706D01*
X172248966Y-111378599D01*
X172528889Y-111463513D01*
X172747050Y-111485000D01*
X172892950Y-111485000D01*
X173111111Y-111463513D01*
X173391034Y-111378599D01*
X173649014Y-111240706D01*
X173875134Y-111055134D01*
X174060706Y-110829014D01*
X174090000Y-110774209D01*
X174119294Y-110829014D01*
X174304866Y-111055134D01*
X174530986Y-111240706D01*
X174788966Y-111378599D01*
X175068889Y-111463513D01*
X175287050Y-111485000D01*
X175432950Y-111485000D01*
X175651111Y-111463513D01*
X175931034Y-111378599D01*
X176189014Y-111240706D01*
X176415134Y-111055134D01*
X176600706Y-110829014D01*
X176630000Y-110774209D01*
X176659294Y-110829014D01*
X176844866Y-111055134D01*
X177070986Y-111240706D01*
X177328966Y-111378599D01*
X177608889Y-111463513D01*
X177827050Y-111485000D01*
X177972950Y-111485000D01*
X178191111Y-111463513D01*
X178471034Y-111378599D01*
X178729014Y-111240706D01*
X178955134Y-111055134D01*
X179140706Y-110829014D01*
X179170000Y-110774209D01*
X179199294Y-110829014D01*
X179384866Y-111055134D01*
X179610986Y-111240706D01*
X179868966Y-111378599D01*
X180148889Y-111463513D01*
X180367050Y-111485000D01*
X180512950Y-111485000D01*
X180731111Y-111463513D01*
X181011034Y-111378599D01*
X181269014Y-111240706D01*
X181495134Y-111055134D01*
X181680706Y-110829014D01*
X181710000Y-110774209D01*
X181739294Y-110829014D01*
X181924866Y-111055134D01*
X182150986Y-111240706D01*
X182408966Y-111378599D01*
X182688889Y-111463513D01*
X182907050Y-111485000D01*
X183052950Y-111485000D01*
X183271111Y-111463513D01*
X183551034Y-111378599D01*
X183809014Y-111240706D01*
X184035134Y-111055134D01*
X184220706Y-110829014D01*
X184250000Y-110774209D01*
X184279294Y-110829014D01*
X184464866Y-111055134D01*
X184690986Y-111240706D01*
X184948966Y-111378599D01*
X185228889Y-111463513D01*
X185447050Y-111485000D01*
X185592950Y-111485000D01*
X185811111Y-111463513D01*
X186091034Y-111378599D01*
X186349014Y-111240706D01*
X186575134Y-111055134D01*
X186760706Y-110829014D01*
X186790000Y-110774209D01*
X186819294Y-110829014D01*
X187004866Y-111055134D01*
X187230986Y-111240706D01*
X187488966Y-111378599D01*
X187768889Y-111463513D01*
X187987050Y-111485000D01*
X188132950Y-111485000D01*
X188351111Y-111463513D01*
X188631034Y-111378599D01*
X188889014Y-111240706D01*
X189115134Y-111055134D01*
X189300706Y-110829014D01*
X189438599Y-110571034D01*
X189523513Y-110291111D01*
X189552185Y-110000000D01*
X189523513Y-109708889D01*
X189438599Y-109428966D01*
X189300706Y-109170986D01*
X189115134Y-108944866D01*
X188889014Y-108759294D01*
X188631034Y-108621401D01*
X188351111Y-108536487D01*
X188132950Y-108515000D01*
X187987050Y-108515000D01*
X187768889Y-108536487D01*
X187488966Y-108621401D01*
X187230986Y-108759294D01*
X187004866Y-108944866D01*
X186819294Y-109170986D01*
X186790000Y-109225791D01*
X186760706Y-109170986D01*
X186575134Y-108944866D01*
X186349014Y-108759294D01*
X186091034Y-108621401D01*
X185811111Y-108536487D01*
X185592950Y-108515000D01*
X185447050Y-108515000D01*
X185228889Y-108536487D01*
X184948966Y-108621401D01*
X184690986Y-108759294D01*
X184464866Y-108944866D01*
X184279294Y-109170986D01*
X184250000Y-109225791D01*
X184220706Y-109170986D01*
X184035134Y-108944866D01*
X183809014Y-108759294D01*
X183551034Y-108621401D01*
X183271111Y-108536487D01*
X183052950Y-108515000D01*
X182907050Y-108515000D01*
X182688889Y-108536487D01*
X182408966Y-108621401D01*
X182150986Y-108759294D01*
X181924866Y-108944866D01*
X181739294Y-109170986D01*
X181710000Y-109225791D01*
X181680706Y-109170986D01*
X181495134Y-108944866D01*
X181269014Y-108759294D01*
X181011034Y-108621401D01*
X180731111Y-108536487D01*
X180512950Y-108515000D01*
X180367050Y-108515000D01*
X180148889Y-108536487D01*
X179868966Y-108621401D01*
X179610986Y-108759294D01*
X179384866Y-108944866D01*
X179199294Y-109170986D01*
X179170000Y-109225791D01*
X179140706Y-109170986D01*
X178955134Y-108944866D01*
X178729014Y-108759294D01*
X178471034Y-108621401D01*
X178191111Y-108536487D01*
X177972950Y-108515000D01*
X177827050Y-108515000D01*
X177608889Y-108536487D01*
X177328966Y-108621401D01*
X177070986Y-108759294D01*
X176844866Y-108944866D01*
X176659294Y-109170986D01*
X176630000Y-109225791D01*
X176600706Y-109170986D01*
X176415134Y-108944866D01*
X176189014Y-108759294D01*
X175931034Y-108621401D01*
X175651111Y-108536487D01*
X175432950Y-108515000D01*
X175287050Y-108515000D01*
X175068889Y-108536487D01*
X174788966Y-108621401D01*
X174530986Y-108759294D01*
X174304866Y-108944866D01*
X174119294Y-109170986D01*
X174090000Y-109225791D01*
X174060706Y-109170986D01*
X173875134Y-108944866D01*
X173649014Y-108759294D01*
X173391034Y-108621401D01*
X173111111Y-108536487D01*
X172892950Y-108515000D01*
X172747050Y-108515000D01*
X172528889Y-108536487D01*
X172248966Y-108621401D01*
X171990986Y-108759294D01*
X171764866Y-108944866D01*
X171579294Y-109170986D01*
X171550000Y-109225791D01*
X171520706Y-109170986D01*
X171335134Y-108944866D01*
X171109014Y-108759294D01*
X170851034Y-108621401D01*
X170571111Y-108536487D01*
X170352950Y-108515000D01*
X170207050Y-108515000D01*
X169988889Y-108536487D01*
X169708966Y-108621401D01*
X169450986Y-108759294D01*
X169224866Y-108944866D01*
X169039294Y-109170986D01*
X169010000Y-109225791D01*
X168980706Y-109170986D01*
X168880298Y-109048639D01*
X168942001Y-108998001D01*
X168965804Y-108968997D01*
X170354801Y-107580000D01*
X185786928Y-107580000D01*
X185799188Y-107704482D01*
X185835498Y-107824180D01*
X185894463Y-107934494D01*
X185973815Y-108031185D01*
X186070506Y-108110537D01*
X186180820Y-108169502D01*
X186300518Y-108205812D01*
X186425000Y-108218072D01*
X187039250Y-108215000D01*
X187198000Y-108056250D01*
X187198000Y-106807000D01*
X187452000Y-106807000D01*
X187452000Y-108056250D01*
X187610750Y-108215000D01*
X188225000Y-108218072D01*
X188349482Y-108205812D01*
X188469180Y-108169502D01*
X188579494Y-108110537D01*
X188676185Y-108031185D01*
X188755537Y-107934494D01*
X188814502Y-107824180D01*
X188850812Y-107704482D01*
X188863072Y-107580000D01*
X188860000Y-106965750D01*
X188701250Y-106807000D01*
X187452000Y-106807000D01*
X187198000Y-106807000D01*
X185948750Y-106807000D01*
X185790000Y-106965750D01*
X185786928Y-107580000D01*
X170354801Y-107580000D01*
X171124094Y-106810708D01*
X171168691Y-106824236D01*
X171379508Y-106845000D01*
X171520492Y-106845000D01*
X171731309Y-106824236D01*
X172001808Y-106742182D01*
X172251101Y-106608932D01*
X172469608Y-106429608D01*
X172648932Y-106211101D01*
X172782182Y-105961808D01*
X172864236Y-105691309D01*
X172891943Y-105410000D01*
X172878023Y-105268665D01*
X180175000Y-105268665D01*
X180175000Y-105551335D01*
X180230147Y-105828574D01*
X180338320Y-106089727D01*
X180495363Y-106324759D01*
X180695241Y-106524637D01*
X180930273Y-106681680D01*
X181191426Y-106789853D01*
X181468665Y-106845000D01*
X181751335Y-106845000D01*
X182028574Y-106789853D01*
X182289727Y-106681680D01*
X182524759Y-106524637D01*
X182724637Y-106324759D01*
X182881680Y-106089727D01*
X182989853Y-105828574D01*
X182999515Y-105780000D01*
X185786928Y-105780000D01*
X185790000Y-106394250D01*
X185948750Y-106553000D01*
X187198000Y-106553000D01*
X187198000Y-106533000D01*
X187452000Y-106533000D01*
X187452000Y-106553000D01*
X188701250Y-106553000D01*
X188860000Y-106394250D01*
X188863072Y-105780000D01*
X188850812Y-105655518D01*
X188814502Y-105535820D01*
X188755537Y-105425506D01*
X188676185Y-105328815D01*
X188579494Y-105249463D01*
X188469180Y-105190498D01*
X188450873Y-105184944D01*
X188517312Y-105118505D01*
X188685299Y-104867095D01*
X188801011Y-104587743D01*
X188860000Y-104291184D01*
X188860000Y-103988816D01*
X188801011Y-103692257D01*
X188685299Y-103412905D01*
X188517312Y-103161495D01*
X188303505Y-102947688D01*
X188052095Y-102779701D01*
X187772743Y-102663989D01*
X187476184Y-102605000D01*
X187173816Y-102605000D01*
X186877257Y-102663989D01*
X186597905Y-102779701D01*
X186346495Y-102947688D01*
X186132688Y-103161495D01*
X185964701Y-103412905D01*
X185848989Y-103692257D01*
X185790000Y-103988816D01*
X185790000Y-104291184D01*
X185848989Y-104587743D01*
X185964701Y-104867095D01*
X186132688Y-105118505D01*
X186199127Y-105184944D01*
X186180820Y-105190498D01*
X186070506Y-105249463D01*
X185973815Y-105328815D01*
X185894463Y-105425506D01*
X185835498Y-105535820D01*
X185799188Y-105655518D01*
X185786928Y-105780000D01*
X182999515Y-105780000D01*
X183045000Y-105551335D01*
X183045000Y-105268665D01*
X182989853Y-104991426D01*
X182881680Y-104730273D01*
X182724637Y-104495241D01*
X182524759Y-104295363D01*
X182289727Y-104138320D01*
X182028574Y-104030147D01*
X181751335Y-103975000D01*
X181468665Y-103975000D01*
X181191426Y-104030147D01*
X180930273Y-104138320D01*
X180695241Y-104295363D01*
X180495363Y-104495241D01*
X180338320Y-104730273D01*
X180230147Y-104991426D01*
X180175000Y-105268665D01*
X172878023Y-105268665D01*
X172864236Y-105128691D01*
X172782182Y-104858192D01*
X172648932Y-104608899D01*
X172469608Y-104390392D01*
X172251101Y-104211068D01*
X172001808Y-104077818D01*
X171731309Y-103995764D01*
X171520492Y-103975000D01*
X171379508Y-103975000D01*
X171168691Y-103995764D01*
X170898192Y-104077818D01*
X170648899Y-104211068D01*
X170430392Y-104390392D01*
X170251068Y-104608899D01*
X170117818Y-104858192D01*
X170035764Y-105128691D01*
X170008057Y-105410000D01*
X170035764Y-105691309D01*
X170049292Y-105735906D01*
X169670000Y-106115198D01*
X169670000Y-103819801D01*
X171124094Y-102365708D01*
X171168691Y-102379236D01*
X171379508Y-102400000D01*
X171520492Y-102400000D01*
X171731309Y-102379236D01*
X172001808Y-102297182D01*
X172251101Y-102163932D01*
X172469608Y-101984608D01*
X172648932Y-101766101D01*
X172782182Y-101516808D01*
X172864236Y-101246309D01*
X172891943Y-100965000D01*
X172878023Y-100823665D01*
X180175000Y-100823665D01*
X180175000Y-101106335D01*
X180230147Y-101383574D01*
X180338320Y-101644727D01*
X180495363Y-101879759D01*
X180695241Y-102079637D01*
X180930273Y-102236680D01*
X181191426Y-102344853D01*
X181468665Y-102400000D01*
X181751335Y-102400000D01*
X182028574Y-102344853D01*
X182289727Y-102236680D01*
X182524759Y-102079637D01*
X182724637Y-101879759D01*
X182881680Y-101644727D01*
X182989853Y-101383574D01*
X183020401Y-101230000D01*
X185786928Y-101230000D01*
X185799188Y-101354482D01*
X185835498Y-101474180D01*
X185894463Y-101584494D01*
X185973815Y-101681185D01*
X186070506Y-101760537D01*
X186180820Y-101819502D01*
X186300518Y-101855812D01*
X186425000Y-101868072D01*
X187039250Y-101865000D01*
X187198000Y-101706250D01*
X187198000Y-100457000D01*
X187452000Y-100457000D01*
X187452000Y-101706250D01*
X187610750Y-101865000D01*
X188225000Y-101868072D01*
X188349482Y-101855812D01*
X188469180Y-101819502D01*
X188579494Y-101760537D01*
X188676185Y-101681185D01*
X188755537Y-101584494D01*
X188814502Y-101474180D01*
X188850812Y-101354482D01*
X188863072Y-101230000D01*
X188860000Y-100615750D01*
X188701250Y-100457000D01*
X187452000Y-100457000D01*
X187198000Y-100457000D01*
X185948750Y-100457000D01*
X185790000Y-100615750D01*
X185786928Y-101230000D01*
X183020401Y-101230000D01*
X183045000Y-101106335D01*
X183045000Y-100823665D01*
X182989853Y-100546426D01*
X182881680Y-100285273D01*
X182724637Y-100050241D01*
X182524759Y-99850363D01*
X182289727Y-99693320D01*
X182028574Y-99585147D01*
X181751335Y-99530000D01*
X181468665Y-99530000D01*
X181191426Y-99585147D01*
X180930273Y-99693320D01*
X180695241Y-99850363D01*
X180495363Y-100050241D01*
X180338320Y-100285273D01*
X180230147Y-100546426D01*
X180175000Y-100823665D01*
X172878023Y-100823665D01*
X172864236Y-100683691D01*
X172782182Y-100413192D01*
X172648932Y-100163899D01*
X172469608Y-99945392D01*
X172251101Y-99766068D01*
X172001808Y-99632818D01*
X171731309Y-99550764D01*
X171520492Y-99530000D01*
X171379508Y-99530000D01*
X171168691Y-99550764D01*
X170898192Y-99632818D01*
X170648899Y-99766068D01*
X170430392Y-99945392D01*
X170251068Y-100163899D01*
X170117818Y-100413192D01*
X170035764Y-100683691D01*
X170008057Y-100965000D01*
X170035764Y-101246309D01*
X170049292Y-101290906D01*
X168398998Y-102941201D01*
X168370000Y-102964999D01*
X168346202Y-102993997D01*
X168346201Y-102993998D01*
X168275026Y-103080724D01*
X168204454Y-103212754D01*
X168160998Y-103356015D01*
X168146324Y-103505000D01*
X168150001Y-103542332D01*
X168150000Y-106365198D01*
X167579199Y-106936000D01*
X152460802Y-106936000D01*
X150134802Y-104610000D01*
X157311928Y-104610000D01*
X157311928Y-106210000D01*
X157324188Y-106334482D01*
X157360498Y-106454180D01*
X157419463Y-106564494D01*
X157498815Y-106661185D01*
X157595506Y-106740537D01*
X157705820Y-106799502D01*
X157825518Y-106835812D01*
X157950000Y-106848072D01*
X159550000Y-106848072D01*
X159674482Y-106835812D01*
X159794180Y-106799502D01*
X159904494Y-106740537D01*
X160001185Y-106661185D01*
X160080537Y-106564494D01*
X160139502Y-106454180D01*
X160155117Y-106402702D01*
X160436903Y-106402702D01*
X160508486Y-106646671D01*
X160763996Y-106767571D01*
X161038184Y-106836300D01*
X161320512Y-106850217D01*
X161600130Y-106808787D01*
X161866292Y-106713603D01*
X161991514Y-106646671D01*
X162063097Y-106402702D01*
X161250000Y-105589605D01*
X160436903Y-106402702D01*
X160155117Y-106402702D01*
X160175812Y-106334482D01*
X160188072Y-106210000D01*
X160188072Y-106202785D01*
X160257298Y-106223097D01*
X161070395Y-105410000D01*
X161429605Y-105410000D01*
X162242702Y-106223097D01*
X162486671Y-106151514D01*
X162607571Y-105896004D01*
X162676300Y-105621816D01*
X162690217Y-105339488D01*
X162648787Y-105059870D01*
X162553603Y-104793708D01*
X162486671Y-104668486D01*
X162242702Y-104596903D01*
X161429605Y-105410000D01*
X161070395Y-105410000D01*
X160257298Y-104596903D01*
X160188072Y-104617215D01*
X160188072Y-104610000D01*
X160175812Y-104485518D01*
X160155118Y-104417298D01*
X160436903Y-104417298D01*
X161250000Y-105230395D01*
X162063097Y-104417298D01*
X161991514Y-104173329D01*
X161736004Y-104052429D01*
X161461816Y-103983700D01*
X161179488Y-103969783D01*
X160899870Y-104011213D01*
X160633708Y-104106397D01*
X160508486Y-104173329D01*
X160436903Y-104417298D01*
X160155118Y-104417298D01*
X160139502Y-104365820D01*
X160080537Y-104255506D01*
X160001185Y-104158815D01*
X159904494Y-104079463D01*
X159794180Y-104020498D01*
X159674482Y-103984188D01*
X159550000Y-103971928D01*
X157950000Y-103971928D01*
X157825518Y-103984188D01*
X157705820Y-104020498D01*
X157595506Y-104079463D01*
X157498815Y-104158815D01*
X157419463Y-104255506D01*
X157360498Y-104365820D01*
X157324188Y-104485518D01*
X157311928Y-104610000D01*
X150134802Y-104610000D01*
X147564105Y-102039304D01*
X147564105Y-101999916D01*
X147786142Y-102121904D01*
X147868921Y-102104367D01*
X148128749Y-101993715D01*
X148361998Y-101834500D01*
X148559704Y-101632839D01*
X148626955Y-101530000D01*
X154771928Y-101530000D01*
X154784188Y-101654482D01*
X154820498Y-101774180D01*
X154879463Y-101884494D01*
X154958815Y-101981185D01*
X155055506Y-102060537D01*
X155165820Y-102119502D01*
X155285518Y-102155812D01*
X155410000Y-102168072D01*
X155924250Y-102165000D01*
X156083000Y-102006250D01*
X156083000Y-100457000D01*
X154933750Y-100457000D01*
X154775000Y-100615750D01*
X154771928Y-101530000D01*
X148626955Y-101530000D01*
X148714269Y-101396483D01*
X148819753Y-101134514D01*
X148872103Y-100857000D01*
X148872103Y-100457000D01*
X147564103Y-100457000D01*
X147564103Y-100477000D01*
X147310103Y-100477000D01*
X147310103Y-100457000D01*
X147290103Y-100457000D01*
X147290103Y-100203000D01*
X147310103Y-100203000D01*
X147310103Y-98660085D01*
X147564103Y-98660085D01*
X147564103Y-100203000D01*
X148872103Y-100203000D01*
X148872103Y-99803000D01*
X148819753Y-99525486D01*
X148714269Y-99263517D01*
X148559704Y-99027161D01*
X148361998Y-98825500D01*
X148128749Y-98666285D01*
X147868921Y-98555633D01*
X147786142Y-98538096D01*
X147564103Y-98660085D01*
X147310103Y-98660085D01*
X147088064Y-98538096D01*
X147005285Y-98555633D01*
X146937000Y-98584713D01*
X146937000Y-96967219D01*
X146940676Y-96929896D01*
X146937000Y-96892573D01*
X146937000Y-96892564D01*
X146926003Y-96780911D01*
X146882546Y-96637650D01*
X146861186Y-96597688D01*
X146811974Y-96505620D01*
X146740799Y-96418894D01*
X146717001Y-96389896D01*
X146688003Y-96366098D01*
X144871307Y-94549402D01*
X144897103Y-94551943D01*
X145178412Y-94524236D01*
X145448911Y-94442182D01*
X145698204Y-94308932D01*
X145916711Y-94129608D01*
X146096035Y-93911101D01*
X146167103Y-93778142D01*
X146238171Y-93911101D01*
X146417496Y-94129608D01*
X146636003Y-94308932D01*
X146885296Y-94442182D01*
X147155795Y-94524236D01*
X147437103Y-94551943D01*
X147718412Y-94524236D01*
X147988911Y-94442182D01*
X148238204Y-94308932D01*
X148456711Y-94129608D01*
X148636035Y-93911101D01*
X148769285Y-93661808D01*
X148851339Y-93391309D01*
X148872103Y-93180491D01*
X148872103Y-92338681D01*
X154918470Y-98385049D01*
X154946183Y-98418817D01*
X154979951Y-98446530D01*
X154979953Y-98446532D01*
X155080941Y-98529411D01*
X155133752Y-98557639D01*
X155055506Y-98599463D01*
X154958815Y-98678815D01*
X154879463Y-98775506D01*
X154820498Y-98885820D01*
X154784188Y-99005518D01*
X154771928Y-99130000D01*
X154775000Y-100044250D01*
X154933750Y-100203000D01*
X156083000Y-100203000D01*
X156083000Y-100183000D01*
X156337000Y-100183000D01*
X156337000Y-100203000D01*
X156357000Y-100203000D01*
X156357000Y-100457000D01*
X156337000Y-100457000D01*
X156337000Y-102006250D01*
X156495750Y-102165000D01*
X157010000Y-102168072D01*
X157134482Y-102155812D01*
X157254180Y-102119502D01*
X157364494Y-102060537D01*
X157461185Y-101981185D01*
X157540537Y-101884494D01*
X157599502Y-101774180D01*
X157635812Y-101654482D01*
X157637581Y-101636517D01*
X157730393Y-101749608D01*
X157865001Y-101860078D01*
X157865001Y-101986521D01*
X157860719Y-102030000D01*
X157877805Y-102203490D01*
X157928412Y-102370313D01*
X158010590Y-102524059D01*
X158093468Y-102625046D01*
X158093469Y-102625047D01*
X158121184Y-102658817D01*
X158154951Y-102686529D01*
X158933470Y-103465049D01*
X158961183Y-103498817D01*
X158994951Y-103526530D01*
X158994953Y-103526532D01*
X159066452Y-103585210D01*
X159095941Y-103609411D01*
X159249687Y-103691589D01*
X159416510Y-103742195D01*
X159546523Y-103755000D01*
X159546533Y-103755000D01*
X159589999Y-103759281D01*
X159633465Y-103755000D01*
X165056531Y-103755000D01*
X165100000Y-103759281D01*
X165143469Y-103755000D01*
X165143477Y-103755000D01*
X165273490Y-103742195D01*
X165440313Y-103691589D01*
X165594059Y-103609411D01*
X165728817Y-103498817D01*
X165756534Y-103465044D01*
X166457050Y-102764529D01*
X166490817Y-102736817D01*
X166523897Y-102696510D01*
X166601411Y-102602059D01*
X166661855Y-102488974D01*
X166683589Y-102448313D01*
X166734195Y-102281490D01*
X166747000Y-102151477D01*
X166747000Y-102151469D01*
X166751281Y-102108000D01*
X166747000Y-102064531D01*
X166747000Y-99430000D01*
X185786928Y-99430000D01*
X185790000Y-100044250D01*
X185948750Y-100203000D01*
X187198000Y-100203000D01*
X187198000Y-100183000D01*
X187452000Y-100183000D01*
X187452000Y-100203000D01*
X188701250Y-100203000D01*
X188860000Y-100044250D01*
X188863072Y-99430000D01*
X188850812Y-99305518D01*
X188814502Y-99185820D01*
X188755537Y-99075506D01*
X188676185Y-98978815D01*
X188579494Y-98899463D01*
X188469180Y-98840498D01*
X188450873Y-98834944D01*
X188517312Y-98768505D01*
X188685299Y-98517095D01*
X188801011Y-98237743D01*
X188860000Y-97941184D01*
X188860000Y-97638816D01*
X188801011Y-97342257D01*
X188685299Y-97062905D01*
X188517312Y-96811495D01*
X188303505Y-96597688D01*
X188052095Y-96429701D01*
X187772743Y-96313989D01*
X187476184Y-96255000D01*
X187173816Y-96255000D01*
X186877257Y-96313989D01*
X186597905Y-96429701D01*
X186346495Y-96597688D01*
X186132688Y-96811495D01*
X185964701Y-97062905D01*
X185848989Y-97342257D01*
X185790000Y-97638816D01*
X185790000Y-97941184D01*
X185848989Y-98237743D01*
X185964701Y-98517095D01*
X186132688Y-98768505D01*
X186199127Y-98834944D01*
X186180820Y-98840498D01*
X186070506Y-98899463D01*
X185973815Y-98978815D01*
X185894463Y-99075506D01*
X185835498Y-99185820D01*
X185799188Y-99305518D01*
X185786928Y-99430000D01*
X166747000Y-99430000D01*
X166747000Y-97725465D01*
X166751281Y-97681999D01*
X166747000Y-97638533D01*
X166747000Y-97638523D01*
X166734195Y-97508510D01*
X166683589Y-97341687D01*
X166601411Y-97187941D01*
X166490817Y-97053183D01*
X166457049Y-97025470D01*
X165634281Y-96202702D01*
X166191903Y-96202702D01*
X166263486Y-96446671D01*
X166518996Y-96567571D01*
X166793184Y-96636300D01*
X167075512Y-96650217D01*
X167355130Y-96608787D01*
X167603404Y-96520000D01*
X170008057Y-96520000D01*
X170035764Y-96801309D01*
X170117818Y-97071808D01*
X170251068Y-97321101D01*
X170430392Y-97539608D01*
X170648899Y-97718932D01*
X170898192Y-97852182D01*
X171168691Y-97934236D01*
X171379508Y-97955000D01*
X171520492Y-97955000D01*
X171731309Y-97934236D01*
X172001808Y-97852182D01*
X172251101Y-97718932D01*
X172469608Y-97539608D01*
X172648932Y-97321101D01*
X172782182Y-97071808D01*
X172864236Y-96801309D01*
X172891943Y-96520000D01*
X172878023Y-96378665D01*
X180175000Y-96378665D01*
X180175000Y-96661335D01*
X180230147Y-96938574D01*
X180338320Y-97199727D01*
X180495363Y-97434759D01*
X180695241Y-97634637D01*
X180930273Y-97791680D01*
X181191426Y-97899853D01*
X181468665Y-97955000D01*
X181751335Y-97955000D01*
X182028574Y-97899853D01*
X182289727Y-97791680D01*
X182524759Y-97634637D01*
X182724637Y-97434759D01*
X182881680Y-97199727D01*
X182989853Y-96938574D01*
X183045000Y-96661335D01*
X183045000Y-96378665D01*
X182989853Y-96101426D01*
X182881680Y-95840273D01*
X182724637Y-95605241D01*
X182524759Y-95405363D01*
X182289727Y-95248320D01*
X182028574Y-95140147D01*
X181751335Y-95085000D01*
X181468665Y-95085000D01*
X181191426Y-95140147D01*
X180930273Y-95248320D01*
X180695241Y-95405363D01*
X180495363Y-95605241D01*
X180338320Y-95840273D01*
X180230147Y-96101426D01*
X180175000Y-96378665D01*
X172878023Y-96378665D01*
X172864236Y-96238691D01*
X172782182Y-95968192D01*
X172648932Y-95718899D01*
X172469608Y-95500392D01*
X172251101Y-95321068D01*
X172001808Y-95187818D01*
X171731309Y-95105764D01*
X171520492Y-95085000D01*
X171379508Y-95085000D01*
X171168691Y-95105764D01*
X170898192Y-95187818D01*
X170648899Y-95321068D01*
X170430392Y-95500392D01*
X170251068Y-95718899D01*
X170117818Y-95968192D01*
X170035764Y-96238691D01*
X170008057Y-96520000D01*
X167603404Y-96520000D01*
X167621292Y-96513603D01*
X167746514Y-96446671D01*
X167818097Y-96202702D01*
X167005000Y-95389605D01*
X166191903Y-96202702D01*
X165634281Y-96202702D01*
X164712091Y-95280512D01*
X165564783Y-95280512D01*
X165606213Y-95560130D01*
X165701397Y-95826292D01*
X165768329Y-95951514D01*
X166012298Y-96023097D01*
X166825395Y-95210000D01*
X167184605Y-95210000D01*
X167997702Y-96023097D01*
X168241671Y-95951514D01*
X168362571Y-95696004D01*
X168431300Y-95421816D01*
X168445217Y-95139488D01*
X168406770Y-94880000D01*
X185786928Y-94880000D01*
X185799188Y-95004482D01*
X185835498Y-95124180D01*
X185894463Y-95234494D01*
X185973815Y-95331185D01*
X186070506Y-95410537D01*
X186180820Y-95469502D01*
X186300518Y-95505812D01*
X186425000Y-95518072D01*
X187039250Y-95515000D01*
X187198000Y-95356250D01*
X187198000Y-94107000D01*
X187452000Y-94107000D01*
X187452000Y-95356250D01*
X187610750Y-95515000D01*
X188225000Y-95518072D01*
X188349482Y-95505812D01*
X188469180Y-95469502D01*
X188579494Y-95410537D01*
X188676185Y-95331185D01*
X188755537Y-95234494D01*
X188814502Y-95124180D01*
X188850812Y-95004482D01*
X188863072Y-94880000D01*
X188860000Y-94265750D01*
X188701250Y-94107000D01*
X187452000Y-94107000D01*
X187198000Y-94107000D01*
X185948750Y-94107000D01*
X185790000Y-94265750D01*
X185786928Y-94880000D01*
X168406770Y-94880000D01*
X168403787Y-94859870D01*
X168308603Y-94593708D01*
X168241671Y-94468486D01*
X167997702Y-94396903D01*
X167184605Y-95210000D01*
X166825395Y-95210000D01*
X166012298Y-94396903D01*
X165768329Y-94468486D01*
X165647429Y-94723996D01*
X165578700Y-94998184D01*
X165564783Y-95280512D01*
X164712091Y-95280512D01*
X163969756Y-94538178D01*
X164111309Y-94524236D01*
X164381808Y-94442182D01*
X164631101Y-94308932D01*
X164849608Y-94129608D01*
X165028932Y-93911101D01*
X165162182Y-93661808D01*
X165244236Y-93391309D01*
X165265000Y-93180491D01*
X165265000Y-92568665D01*
X165570000Y-92568665D01*
X165570000Y-92851335D01*
X165625147Y-93128574D01*
X165733320Y-93389727D01*
X165890363Y-93624759D01*
X166090241Y-93824637D01*
X166290869Y-93958692D01*
X166263486Y-93973329D01*
X166191903Y-94217298D01*
X167005000Y-95030395D01*
X167818097Y-94217298D01*
X167746514Y-93973329D01*
X167717659Y-93959676D01*
X167919759Y-93824637D01*
X168119637Y-93624759D01*
X168276680Y-93389727D01*
X168384853Y-93128574D01*
X168440000Y-92851335D01*
X168440000Y-92568665D01*
X168384853Y-92291426D01*
X168295207Y-92075000D01*
X170008057Y-92075000D01*
X170035764Y-92356309D01*
X170117818Y-92626808D01*
X170251068Y-92876101D01*
X170430392Y-93094608D01*
X170648899Y-93273932D01*
X170898192Y-93407182D01*
X171168691Y-93489236D01*
X171379508Y-93510000D01*
X171520492Y-93510000D01*
X171731309Y-93489236D01*
X172001808Y-93407182D01*
X172251101Y-93273932D01*
X172469608Y-93094608D01*
X172648932Y-92876101D01*
X172782182Y-92626808D01*
X172864236Y-92356309D01*
X172891943Y-92075000D01*
X172878023Y-91933665D01*
X180175000Y-91933665D01*
X180175000Y-92216335D01*
X180230147Y-92493574D01*
X180338320Y-92754727D01*
X180495363Y-92989759D01*
X180695241Y-93189637D01*
X180930273Y-93346680D01*
X181191426Y-93454853D01*
X181468665Y-93510000D01*
X181751335Y-93510000D01*
X182028574Y-93454853D01*
X182289727Y-93346680D01*
X182524759Y-93189637D01*
X182634396Y-93080000D01*
X185786928Y-93080000D01*
X185790000Y-93694250D01*
X185948750Y-93853000D01*
X187198000Y-93853000D01*
X187198000Y-93833000D01*
X187452000Y-93833000D01*
X187452000Y-93853000D01*
X188701250Y-93853000D01*
X188860000Y-93694250D01*
X188863072Y-93080000D01*
X188850812Y-92955518D01*
X188814502Y-92835820D01*
X188755537Y-92725506D01*
X188676185Y-92628815D01*
X188579494Y-92549463D01*
X188469180Y-92490498D01*
X188450873Y-92484944D01*
X188517312Y-92418505D01*
X188685299Y-92167095D01*
X188801011Y-91887743D01*
X188860000Y-91591184D01*
X188860000Y-91288816D01*
X188801011Y-90992257D01*
X188685299Y-90712905D01*
X188517312Y-90461495D01*
X188303505Y-90247688D01*
X188052095Y-90079701D01*
X187772743Y-89963989D01*
X187476184Y-89905000D01*
X187173816Y-89905000D01*
X186877257Y-89963989D01*
X186597905Y-90079701D01*
X186346495Y-90247688D01*
X186132688Y-90461495D01*
X185964701Y-90712905D01*
X185848989Y-90992257D01*
X185790000Y-91288816D01*
X185790000Y-91591184D01*
X185848989Y-91887743D01*
X185964701Y-92167095D01*
X186132688Y-92418505D01*
X186199127Y-92484944D01*
X186180820Y-92490498D01*
X186070506Y-92549463D01*
X185973815Y-92628815D01*
X185894463Y-92725506D01*
X185835498Y-92835820D01*
X185799188Y-92955518D01*
X185786928Y-93080000D01*
X182634396Y-93080000D01*
X182724637Y-92989759D01*
X182881680Y-92754727D01*
X182989853Y-92493574D01*
X183045000Y-92216335D01*
X183045000Y-91933665D01*
X182989853Y-91656426D01*
X182881680Y-91395273D01*
X182724637Y-91160241D01*
X182524759Y-90960363D01*
X182289727Y-90803320D01*
X182028574Y-90695147D01*
X181751335Y-90640000D01*
X181468665Y-90640000D01*
X181191426Y-90695147D01*
X180930273Y-90803320D01*
X180695241Y-90960363D01*
X180495363Y-91160241D01*
X180338320Y-91395273D01*
X180230147Y-91656426D01*
X180175000Y-91933665D01*
X172878023Y-91933665D01*
X172864236Y-91793691D01*
X172782182Y-91523192D01*
X172648932Y-91273899D01*
X172469608Y-91055392D01*
X172251101Y-90876068D01*
X172001808Y-90742818D01*
X171731309Y-90660764D01*
X171520492Y-90640000D01*
X171379508Y-90640000D01*
X171168691Y-90660764D01*
X170898192Y-90742818D01*
X170648899Y-90876068D01*
X170430392Y-91055392D01*
X170251068Y-91273899D01*
X170117818Y-91523192D01*
X170035764Y-91793691D01*
X170008057Y-92075000D01*
X168295207Y-92075000D01*
X168276680Y-92030273D01*
X168119637Y-91795241D01*
X167919759Y-91595363D01*
X167684727Y-91438320D01*
X167423574Y-91330147D01*
X167146335Y-91275000D01*
X166863665Y-91275000D01*
X166586426Y-91330147D01*
X166325273Y-91438320D01*
X166090241Y-91595363D01*
X165890363Y-91795241D01*
X165733320Y-92030273D01*
X165625147Y-92291426D01*
X165570000Y-92568665D01*
X165265000Y-92568665D01*
X165265000Y-92239508D01*
X165244236Y-92028691D01*
X165162182Y-91758192D01*
X165028932Y-91508899D01*
X164849607Y-91290392D01*
X164631100Y-91111068D01*
X164381807Y-90977818D01*
X164111308Y-90895764D01*
X163830000Y-90868057D01*
X163548691Y-90895764D01*
X163278192Y-90977818D01*
X163028899Y-91111068D01*
X162810392Y-91290393D01*
X162631068Y-91508900D01*
X162560000Y-91641858D01*
X162488932Y-91508899D01*
X162309607Y-91290392D01*
X162091100Y-91111068D01*
X161841807Y-90977818D01*
X161571308Y-90895764D01*
X161290000Y-90868057D01*
X161008691Y-90895764D01*
X160738192Y-90977818D01*
X160488899Y-91111068D01*
X160270392Y-91290393D01*
X160091068Y-91508900D01*
X160020000Y-91641858D01*
X159948932Y-91508899D01*
X159769607Y-91290392D01*
X159551100Y-91111068D01*
X159301807Y-90977818D01*
X159031308Y-90895764D01*
X158750000Y-90868057D01*
X158468691Y-90895764D01*
X158198192Y-90977818D01*
X157948899Y-91111068D01*
X157730392Y-91290393D01*
X157551068Y-91508900D01*
X157480000Y-91641858D01*
X157408932Y-91508899D01*
X157229607Y-91290392D01*
X157011100Y-91111068D01*
X156761807Y-90977818D01*
X156491308Y-90895764D01*
X156210000Y-90868057D01*
X155928691Y-90895764D01*
X155658192Y-90977818D01*
X155408899Y-91111068D01*
X155190392Y-91290393D01*
X155011068Y-91508900D01*
X154877818Y-91758193D01*
X154795764Y-92028692D01*
X154775000Y-92239509D01*
X154775000Y-93180492D01*
X154795764Y-93391309D01*
X154877818Y-93661808D01*
X155011068Y-93911101D01*
X155190393Y-94129608D01*
X155408900Y-94308932D01*
X155658193Y-94442182D01*
X155928692Y-94524236D01*
X156210000Y-94551943D01*
X156383296Y-94534875D01*
X158709470Y-96861049D01*
X158737183Y-96894817D01*
X158749591Y-96905000D01*
X155941579Y-96905000D01*
X148332464Y-89295886D01*
X148448665Y-89319000D01*
X148731335Y-89319000D01*
X149008574Y-89263853D01*
X149269727Y-89155680D01*
X149504759Y-88998637D01*
X149704637Y-88798759D01*
X149861680Y-88563727D01*
X149969853Y-88302574D01*
X150025000Y-88025335D01*
X150025000Y-87884000D01*
X157308057Y-87884000D01*
X157335764Y-88165309D01*
X157417818Y-88435808D01*
X157551068Y-88685101D01*
X157730392Y-88903608D01*
X157948899Y-89082932D01*
X158198192Y-89216182D01*
X158468691Y-89298236D01*
X158679508Y-89319000D01*
X158820492Y-89319000D01*
X159031309Y-89298236D01*
X159301808Y-89216182D01*
X159551101Y-89082932D01*
X159769608Y-88903608D01*
X159770782Y-88902178D01*
X159867241Y-88998637D01*
X160102273Y-89155680D01*
X160363426Y-89263853D01*
X160640665Y-89319000D01*
X160923335Y-89319000D01*
X161200574Y-89263853D01*
X161461727Y-89155680D01*
X161696759Y-88998637D01*
X161896637Y-88798759D01*
X162053680Y-88563727D01*
X162161853Y-88302574D01*
X162217000Y-88025335D01*
X162217000Y-87884000D01*
X169500057Y-87884000D01*
X169527764Y-88165309D01*
X169609818Y-88435808D01*
X169743068Y-88685101D01*
X169922392Y-88903608D01*
X170140899Y-89082932D01*
X170390192Y-89216182D01*
X170660691Y-89298236D01*
X170871508Y-89319000D01*
X171012492Y-89319000D01*
X171223309Y-89298236D01*
X171493808Y-89216182D01*
X171743101Y-89082932D01*
X171961608Y-88903608D01*
X172140932Y-88685101D01*
X172274182Y-88435808D01*
X172356236Y-88165309D01*
X172383943Y-87884000D01*
X172356236Y-87602691D01*
X172274182Y-87332192D01*
X172140932Y-87082899D01*
X171961608Y-86864392D01*
X171749383Y-86690223D01*
X173201000Y-86690223D01*
X173201000Y-87045777D01*
X173270365Y-87394499D01*
X173406429Y-87722988D01*
X173603965Y-88018621D01*
X173855379Y-88270035D01*
X174151012Y-88467571D01*
X174479501Y-88603635D01*
X174828223Y-88673000D01*
X175183777Y-88673000D01*
X175532499Y-88603635D01*
X175860988Y-88467571D01*
X176156621Y-88270035D01*
X176408035Y-88018621D01*
X176605571Y-87722988D01*
X176741635Y-87394499D01*
X176811000Y-87045777D01*
X176811000Y-86690223D01*
X176741635Y-86341501D01*
X176605571Y-86013012D01*
X176514067Y-85876067D01*
X176651012Y-85967571D01*
X176979501Y-86103635D01*
X177328223Y-86173000D01*
X177683777Y-86173000D01*
X178032499Y-86103635D01*
X178360988Y-85967571D01*
X178497933Y-85876067D01*
X178406429Y-86013012D01*
X178270365Y-86341501D01*
X178201000Y-86690223D01*
X178201000Y-87045777D01*
X178270365Y-87394499D01*
X178406429Y-87722988D01*
X178603965Y-88018621D01*
X178855379Y-88270035D01*
X179151012Y-88467571D01*
X179479501Y-88603635D01*
X179828223Y-88673000D01*
X180183777Y-88673000D01*
X180532499Y-88603635D01*
X180710270Y-88530000D01*
X185786928Y-88530000D01*
X185799188Y-88654482D01*
X185835498Y-88774180D01*
X185894463Y-88884494D01*
X185973815Y-88981185D01*
X186070506Y-89060537D01*
X186180820Y-89119502D01*
X186300518Y-89155812D01*
X186425000Y-89168072D01*
X187039250Y-89165000D01*
X187198000Y-89006250D01*
X187198000Y-87757000D01*
X187452000Y-87757000D01*
X187452000Y-89006250D01*
X187610750Y-89165000D01*
X188225000Y-89168072D01*
X188349482Y-89155812D01*
X188469180Y-89119502D01*
X188579494Y-89060537D01*
X188676185Y-88981185D01*
X188755537Y-88884494D01*
X188814502Y-88774180D01*
X188850812Y-88654482D01*
X188863072Y-88530000D01*
X188860000Y-87915750D01*
X188701250Y-87757000D01*
X187452000Y-87757000D01*
X187198000Y-87757000D01*
X185948750Y-87757000D01*
X185790000Y-87915750D01*
X185786928Y-88530000D01*
X180710270Y-88530000D01*
X180860988Y-88467571D01*
X181156621Y-88270035D01*
X181408035Y-88018621D01*
X181605571Y-87722988D01*
X181741635Y-87394499D01*
X181811000Y-87045777D01*
X181811000Y-86730000D01*
X185786928Y-86730000D01*
X185790000Y-87344250D01*
X185948750Y-87503000D01*
X187198000Y-87503000D01*
X187198000Y-87483000D01*
X187452000Y-87483000D01*
X187452000Y-87503000D01*
X188701250Y-87503000D01*
X188860000Y-87344250D01*
X188863072Y-86730000D01*
X188850812Y-86605518D01*
X188814502Y-86485820D01*
X188755537Y-86375506D01*
X188676185Y-86278815D01*
X188579494Y-86199463D01*
X188469180Y-86140498D01*
X188450873Y-86134944D01*
X188517312Y-86068505D01*
X188685299Y-85817095D01*
X188801011Y-85537743D01*
X188860000Y-85241184D01*
X188860000Y-84938816D01*
X188801011Y-84642257D01*
X188685299Y-84362905D01*
X188517312Y-84111495D01*
X188303505Y-83897688D01*
X188052095Y-83729701D01*
X187772743Y-83613989D01*
X187476184Y-83555000D01*
X187173816Y-83555000D01*
X186877257Y-83613989D01*
X186597905Y-83729701D01*
X186346495Y-83897688D01*
X186132688Y-84111495D01*
X185964701Y-84362905D01*
X185848989Y-84642257D01*
X185790000Y-84938816D01*
X185790000Y-85241184D01*
X185848989Y-85537743D01*
X185964701Y-85817095D01*
X186132688Y-86068505D01*
X186199127Y-86134944D01*
X186180820Y-86140498D01*
X186070506Y-86199463D01*
X185973815Y-86278815D01*
X185894463Y-86375506D01*
X185835498Y-86485820D01*
X185799188Y-86605518D01*
X185786928Y-86730000D01*
X181811000Y-86730000D01*
X181811000Y-86690223D01*
X181741635Y-86341501D01*
X181605571Y-86013012D01*
X181408035Y-85717379D01*
X181156621Y-85465965D01*
X180860988Y-85268429D01*
X180532499Y-85132365D01*
X180183777Y-85063000D01*
X179828223Y-85063000D01*
X179479501Y-85132365D01*
X179151012Y-85268429D01*
X179014067Y-85359933D01*
X179105571Y-85222988D01*
X179241635Y-84894499D01*
X179311000Y-84545777D01*
X179311000Y-84190223D01*
X179241635Y-83841501D01*
X179105571Y-83513012D01*
X178908035Y-83217379D01*
X178656621Y-82965965D01*
X178360988Y-82768429D01*
X178032499Y-82632365D01*
X177683777Y-82563000D01*
X177328223Y-82563000D01*
X176979501Y-82632365D01*
X176651012Y-82768429D01*
X176355379Y-82965965D01*
X176103965Y-83217379D01*
X175906429Y-83513012D01*
X175770365Y-83841501D01*
X175701000Y-84190223D01*
X175701000Y-84545777D01*
X175770365Y-84894499D01*
X175906429Y-85222988D01*
X175997933Y-85359933D01*
X175860988Y-85268429D01*
X175532499Y-85132365D01*
X175183777Y-85063000D01*
X174828223Y-85063000D01*
X174479501Y-85132365D01*
X174151012Y-85268429D01*
X173855379Y-85465965D01*
X173603965Y-85717379D01*
X173406429Y-86013012D01*
X173270365Y-86341501D01*
X173201000Y-86690223D01*
X171749383Y-86690223D01*
X171743101Y-86685068D01*
X171493808Y-86551818D01*
X171223309Y-86469764D01*
X171012492Y-86449000D01*
X170871508Y-86449000D01*
X170660691Y-86469764D01*
X170390192Y-86551818D01*
X170140899Y-86685068D01*
X169922392Y-86864392D01*
X169743068Y-87082899D01*
X169609818Y-87332192D01*
X169527764Y-87602691D01*
X169500057Y-87884000D01*
X162217000Y-87884000D01*
X162217000Y-87742665D01*
X162161853Y-87465426D01*
X162053680Y-87204273D01*
X161896637Y-86969241D01*
X161696759Y-86769363D01*
X161461727Y-86612320D01*
X161200574Y-86504147D01*
X160923335Y-86449000D01*
X160640665Y-86449000D01*
X160363426Y-86504147D01*
X160102273Y-86612320D01*
X159867241Y-86769363D01*
X159770782Y-86865822D01*
X159769608Y-86864392D01*
X159551101Y-86685068D01*
X159301808Y-86551818D01*
X159031309Y-86469764D01*
X158820492Y-86449000D01*
X158679508Y-86449000D01*
X158468691Y-86469764D01*
X158198192Y-86551818D01*
X157948899Y-86685068D01*
X157730392Y-86864392D01*
X157551068Y-87082899D01*
X157417818Y-87332192D01*
X157335764Y-87602691D01*
X157308057Y-87884000D01*
X150025000Y-87884000D01*
X150025000Y-87742665D01*
X149969853Y-87465426D01*
X149861680Y-87204273D01*
X149704637Y-86969241D01*
X149504759Y-86769363D01*
X149269727Y-86612320D01*
X149008574Y-86504147D01*
X148731335Y-86449000D01*
X148448665Y-86449000D01*
X148171426Y-86504147D01*
X147910273Y-86612320D01*
X147675241Y-86769363D01*
X147475363Y-86969241D01*
X147318320Y-87204273D01*
X147210147Y-87465426D01*
X147155000Y-87742665D01*
X147155000Y-88025335D01*
X147182459Y-88163379D01*
X147179059Y-88160589D01*
X147025313Y-88078411D01*
X146858490Y-88027805D01*
X146728477Y-88015000D01*
X146728469Y-88015000D01*
X146685000Y-88010719D01*
X146641531Y-88015000D01*
X144130579Y-88015000D01*
X143125000Y-87009422D01*
X143125000Y-86538759D01*
X143295134Y-86399134D01*
X143480706Y-86173014D01*
X143618599Y-85915034D01*
X143703513Y-85635111D01*
X143732185Y-85344000D01*
X143703513Y-85052889D01*
X143618599Y-84772966D01*
X143480706Y-84514986D01*
X143295134Y-84288866D01*
X143069014Y-84103294D01*
X142811034Y-83965401D01*
X142531111Y-83880487D01*
X142312950Y-83859000D01*
X142167050Y-83859000D01*
X141948889Y-83880487D01*
X141668966Y-83965401D01*
X141410986Y-84103294D01*
X141184866Y-84288866D01*
X140999294Y-84514986D01*
X140970000Y-84569791D01*
X140940706Y-84514986D01*
X140755134Y-84288866D01*
X140529014Y-84103294D01*
X140271034Y-83965401D01*
X139991111Y-83880487D01*
X139772950Y-83859000D01*
X139627050Y-83859000D01*
X139408889Y-83880487D01*
X139128966Y-83965401D01*
X138870986Y-84103294D01*
X138644866Y-84288866D01*
X138620393Y-84318687D01*
X138599502Y-84249820D01*
X138540537Y-84139506D01*
X138461185Y-84042815D01*
X138364494Y-83963463D01*
X138254180Y-83904498D01*
X138134482Y-83868188D01*
X138010000Y-83855928D01*
X136310000Y-83855928D01*
X136185518Y-83868188D01*
X136065820Y-83904498D01*
X135955506Y-83963463D01*
X135858815Y-84042815D01*
X135779463Y-84139506D01*
X135720498Y-84249820D01*
X135684188Y-84369518D01*
X135671928Y-84494000D01*
X135671928Y-86194000D01*
X135684188Y-86318482D01*
X135720498Y-86438180D01*
X135779463Y-86548494D01*
X135858815Y-86645185D01*
X135955506Y-86724537D01*
X135993789Y-86745000D01*
X131615465Y-86745000D01*
X131571999Y-86740719D01*
X131528533Y-86745000D01*
X131528523Y-86745000D01*
X131398510Y-86757805D01*
X131231687Y-86808411D01*
X131077941Y-86890589D01*
X131077939Y-86890590D01*
X131077940Y-86890590D01*
X130976953Y-86973468D01*
X130976951Y-86973470D01*
X130943183Y-87001183D01*
X130915470Y-87034951D01*
X127674951Y-90275471D01*
X127641184Y-90303183D01*
X127613471Y-90336951D01*
X127613468Y-90336954D01*
X127530590Y-90437941D01*
X127448412Y-90591687D01*
X127397805Y-90758510D01*
X127380719Y-90932000D01*
X127385001Y-90975479D01*
X127385000Y-93677005D01*
X127355241Y-93696889D01*
X127155363Y-93896767D01*
X126998320Y-94131799D01*
X126890147Y-94392952D01*
X126835000Y-94670191D01*
X126835000Y-94952861D01*
X126890147Y-95230100D01*
X126998320Y-95491253D01*
X127155363Y-95726285D01*
X127355241Y-95926163D01*
X127590273Y-96083206D01*
X127851426Y-96191379D01*
X128128665Y-96246526D01*
X128411335Y-96246526D01*
X128688574Y-96191379D01*
X128949727Y-96083206D01*
X129184759Y-95926163D01*
X129384637Y-95726285D01*
X129541680Y-95491253D01*
X129649853Y-95230100D01*
X129705000Y-94952861D01*
X129705000Y-94670191D01*
X129649853Y-94392952D01*
X129541680Y-94131799D01*
X129384637Y-93896767D01*
X129184759Y-93696889D01*
X129155000Y-93677005D01*
X129155000Y-91298578D01*
X131938579Y-88515000D01*
X136608531Y-88515000D01*
X136652000Y-88519281D01*
X136695469Y-88515000D01*
X136695477Y-88515000D01*
X136825490Y-88502195D01*
X136992313Y-88451589D01*
X137146059Y-88369411D01*
X137280817Y-88258817D01*
X137308534Y-88225044D01*
X137755045Y-87778533D01*
X137788817Y-87750817D01*
X137899411Y-87616059D01*
X137981589Y-87462313D01*
X138032195Y-87295490D01*
X138045000Y-87165477D01*
X138045000Y-87165467D01*
X138049281Y-87122001D01*
X138045000Y-87078535D01*
X138045000Y-86828625D01*
X138134482Y-86819812D01*
X138254180Y-86783502D01*
X138364494Y-86724537D01*
X138461185Y-86645185D01*
X138540537Y-86548494D01*
X138599502Y-86438180D01*
X138620393Y-86369313D01*
X138644866Y-86399134D01*
X138815001Y-86538760D01*
X138815001Y-87009420D01*
X136914221Y-88910201D01*
X136891044Y-88922589D01*
X136756286Y-89033183D01*
X136728571Y-89066954D01*
X136510525Y-89285000D01*
X135659671Y-89285000D01*
X135616205Y-89280719D01*
X135572739Y-89285000D01*
X135572729Y-89285000D01*
X135442716Y-89297805D01*
X135275893Y-89348411D01*
X135122147Y-89430589D01*
X135122145Y-89430590D01*
X135122146Y-89430590D01*
X135021159Y-89513468D01*
X135021157Y-89513470D01*
X134987389Y-89541183D01*
X134959676Y-89574951D01*
X134142059Y-90392569D01*
X134108286Y-90420286D01*
X133997692Y-90555045D01*
X133915514Y-90708791D01*
X133864908Y-90875614D01*
X133852103Y-91005627D01*
X133852103Y-91005634D01*
X133847822Y-91049103D01*
X133852103Y-91092572D01*
X133852103Y-91179922D01*
X133717495Y-91290393D01*
X133538171Y-91508900D01*
X133467103Y-91641858D01*
X133396035Y-91508899D01*
X133216710Y-91290392D01*
X132998203Y-91111068D01*
X132748910Y-90977818D01*
X132478411Y-90895764D01*
X132197103Y-90868057D01*
X131915794Y-90895764D01*
X131645295Y-90977818D01*
X131396002Y-91111068D01*
X131177495Y-91290393D01*
X130998171Y-91508900D01*
X130864921Y-91758193D01*
X130782867Y-92028692D01*
X130762103Y-92239509D01*
X130762103Y-93180492D01*
X130782867Y-93391309D01*
X130864921Y-93661808D01*
X130998171Y-93911101D01*
X131177496Y-94129608D01*
X131396003Y-94308932D01*
X131645296Y-94442182D01*
X131915795Y-94524236D01*
X132197103Y-94551943D01*
X132478412Y-94524236D01*
X132748911Y-94442182D01*
X132998204Y-94308932D01*
X133216711Y-94129608D01*
X133396035Y-93911101D01*
X133467103Y-93778142D01*
X133538171Y-93911101D01*
X133717496Y-94129608D01*
X133852103Y-94240077D01*
X133852103Y-94688634D01*
X133847822Y-94732103D01*
X133852103Y-94775572D01*
X133852103Y-94775579D01*
X133864908Y-94905592D01*
X133915514Y-95072415D01*
X133997692Y-95226161D01*
X134108286Y-95360920D01*
X134142059Y-95388637D01*
X136275001Y-97521580D01*
X136275000Y-98896027D01*
X136257495Y-98910393D01*
X136078171Y-99128900D01*
X136007103Y-99261858D01*
X135936035Y-99128899D01*
X135756710Y-98910392D01*
X135538203Y-98731068D01*
X135288910Y-98597818D01*
X135018411Y-98515764D01*
X134737103Y-98488057D01*
X134455794Y-98515764D01*
X134185295Y-98597818D01*
X133936002Y-98731068D01*
X133717495Y-98910393D01*
X133624684Y-99023483D01*
X133622915Y-99005518D01*
X133586605Y-98885820D01*
X133527640Y-98775506D01*
X133448288Y-98678815D01*
X133351597Y-98599463D01*
X133241283Y-98540498D01*
X133121585Y-98504188D01*
X132997103Y-98491928D01*
X132974733Y-98491928D01*
X132946411Y-98438941D01*
X132929896Y-98418817D01*
X132863532Y-98337953D01*
X132863530Y-98337951D01*
X132835817Y-98304183D01*
X132802050Y-98276471D01*
X131085534Y-96559956D01*
X131057817Y-96526183D01*
X130923059Y-96415589D01*
X130769313Y-96333411D01*
X130602490Y-96282805D01*
X130472477Y-96270000D01*
X130472469Y-96270000D01*
X130429000Y-96265719D01*
X130385531Y-96270000D01*
X120889579Y-96270000D01*
X119636059Y-95016481D01*
X119608342Y-94982708D01*
X119540562Y-94927082D01*
X119551943Y-94811526D01*
X119524236Y-94530217D01*
X119442182Y-94259718D01*
X119308932Y-94010425D01*
X119129608Y-93791918D01*
X118911101Y-93612594D01*
X118661808Y-93479344D01*
X118391309Y-93397290D01*
X118180492Y-93376526D01*
X118039508Y-93376526D01*
X117828691Y-93397290D01*
X117558192Y-93479344D01*
X117308899Y-93612594D01*
X117090392Y-93791918D01*
X116977071Y-93930000D01*
X115119685Y-93930000D01*
X114928886Y-93739201D01*
X114702043Y-93587629D01*
X114449989Y-93483225D01*
X114182411Y-93430000D01*
X113909589Y-93430000D01*
X113642011Y-93483225D01*
X113389957Y-93587629D01*
X113163114Y-93739201D01*
X112972315Y-93930000D01*
X110989521Y-93930000D01*
X110969637Y-93900241D01*
X110769759Y-93700363D01*
X110534727Y-93543320D01*
X110273574Y-93435147D01*
X109996335Y-93380000D01*
X109713665Y-93380000D01*
X109436426Y-93435147D01*
X109175273Y-93543320D01*
X108940241Y-93700363D01*
X108740363Y-93900241D01*
X108606308Y-94100869D01*
X108591671Y-94073486D01*
X108347702Y-94001903D01*
X107534605Y-94815000D01*
X107175395Y-94815000D01*
X106362298Y-94001903D01*
X106118329Y-94073486D01*
X105997429Y-94328996D01*
X105928700Y-94603184D01*
X105914783Y-94885512D01*
X83595000Y-94885512D01*
X83595000Y-93822298D01*
X106541903Y-93822298D01*
X107355000Y-94635395D01*
X108168097Y-93822298D01*
X108096514Y-93578329D01*
X107841004Y-93457429D01*
X107566816Y-93388700D01*
X107284488Y-93374783D01*
X107004870Y-93416213D01*
X106738708Y-93511397D01*
X106613486Y-93578329D01*
X106541903Y-93822298D01*
X83595000Y-93822298D01*
X83595000Y-83514991D01*
X83632645Y-83131054D01*
X83734276Y-82794439D01*
X83899353Y-82483973D01*
X84121591Y-82211482D01*
X84392518Y-81987352D01*
X84701825Y-81820110D01*
X85037725Y-81716132D01*
X85419543Y-81676001D01*
X190625973Y-81685997D01*
M02*
