M48
; DRILL file {KiCad (5.1.2)-2} date 18.09.2021 22:43:51
; FORMAT={-:-/ absolute / metric / decimal}
; #@! TF.CreationDate,2021-09-18T22:43:51+02:00
; #@! TF.GenerationSoftware,Kicad,Pcbnew,(5.1.2)-2
; #@! TF.FileFunction,Plated,1,2,PTH
FMAT,2
METRIC
T1C0.400
T2C0.800
T3C1.000
%
G90
G05
T1
X105.41Y-106.045
X118.11Y-100.24
X121.92Y-99.15
X122.174Y-87.376
X123.19Y-98.425
X127.0Y-85.09
X127.0Y-100.965
X128.27Y-99.695
T2
X99.695Y-85.0
X102.195Y-85.0
X125.73Y-81.76
X125.73Y-97.0
X128.27Y-81.76
X128.27Y-97.0
X130.81Y-81.76
X130.81Y-97.0
X133.35Y-81.76
X133.35Y-97.0
X135.89Y-81.76
X135.89Y-97.0
X138.43Y-81.76
X138.43Y-97.0
X140.97Y-81.76
X140.97Y-97.0
X143.51Y-81.76
X143.51Y-97.0
X146.05Y-81.76
X146.05Y-97.0
X148.59Y-81.76
X148.59Y-97.0
X151.13Y-81.76
X151.13Y-97.0
X153.67Y-81.76
X153.67Y-97.0
X156.21Y-81.76
X156.21Y-97.0
X158.75Y-81.76
X158.75Y-97.0
X99.695Y-88.88
X99.695Y-96.5
X102.235Y-88.88
X102.235Y-96.5
X104.775Y-88.88
X104.775Y-96.5
X107.315Y-88.88
X107.315Y-96.5
X109.855Y-88.88
X109.855Y-96.5
X112.395Y-88.88
X112.395Y-96.5
X114.935Y-88.88
X114.935Y-96.5
X125.73Y-78.613
X128.23Y-78.613
T3
X115.195Y-82.931
X117.735Y-82.931
X120.275Y-82.931
X89.0Y-110.0
X91.54Y-110.0
X94.08Y-110.0
X96.62Y-110.0
X99.16Y-110.0
X101.7Y-110.0
X104.24Y-110.0
X106.78Y-110.0
X109.32Y-110.0
X111.86Y-110.0
X114.4Y-110.0
X116.94Y-110.0
X119.48Y-110.0
X122.02Y-110.0
X124.56Y-110.0
X127.1Y-110.0
X129.64Y-110.0
X132.18Y-110.0
X134.72Y-110.0
X137.26Y-110.0
X139.8Y-110.0
X142.34Y-110.0
X144.88Y-110.0
X147.42Y-110.0
X149.96Y-110.0
X152.5Y-110.0
X155.04Y-110.0
X157.58Y-110.0
X160.12Y-110.0
X162.66Y-110.0
X165.2Y-110.0
X167.74Y-110.0
X170.28Y-110.0
X172.82Y-110.0
X175.36Y-110.0
X177.9Y-110.0
X180.44Y-110.0
X182.98Y-110.0
X185.52Y-110.0
X188.06Y-110.0
X115.195Y-79.121
X117.735Y-79.121
X120.275Y-79.121
T0
M30
