G04 #@! TF.GenerationSoftware,KiCad,Pcbnew,(5.1.2)-2*
G04 #@! TF.CreationDate,2021-09-18T22:43:47+02:00*
G04 #@! TF.ProjectId,aZ80_ROM,615a3830-5f52-44f4-9d2e-6b696361645f,rev?*
G04 #@! TF.SameCoordinates,Original*
G04 #@! TF.FileFunction,Copper,L1,Top*
G04 #@! TF.FilePolarity,Positive*
%FSLAX46Y46*%
G04 Gerber Fmt 4.6, Leading zero omitted, Abs format (unit mm)*
G04 Created by KiCad (PCBNEW (5.1.2)-2) date 2021-09-18 22:43:47*
%MOMM*%
%LPD*%
G04 APERTURE LIST*
%ADD10O,1.600000X2.400000*%
%ADD11R,1.600000X2.400000*%
%ADD12O,1.700000X1.700000*%
%ADD13R,1.700000X1.700000*%
%ADD14C,1.600000*%
%ADD15C,0.800000*%
%ADD16C,0.500000*%
%ADD17C,0.250000*%
G04 APERTURE END LIST*
D10*
X125730000Y-81760000D03*
X158750000Y-97000000D03*
X128270000Y-81760000D03*
X156210000Y-97000000D03*
X130810000Y-81760000D03*
X153670000Y-97000000D03*
X133350000Y-81760000D03*
X151130000Y-97000000D03*
X135890000Y-81760000D03*
X148590000Y-97000000D03*
X138430000Y-81760000D03*
X146050000Y-97000000D03*
X140970000Y-81760000D03*
X143510000Y-97000000D03*
X143510000Y-81760000D03*
X140970000Y-97000000D03*
X146050000Y-81760000D03*
X138430000Y-97000000D03*
X148590000Y-81760000D03*
X135890000Y-97000000D03*
X151130000Y-81760000D03*
X133350000Y-97000000D03*
X153670000Y-81760000D03*
X130810000Y-97000000D03*
X156210000Y-81760000D03*
X128270000Y-97000000D03*
X158750000Y-81760000D03*
D11*
X125730000Y-97000000D03*
D10*
X99695000Y-88880000D03*
X114935000Y-96500000D03*
X102235000Y-88880000D03*
X112395000Y-96500000D03*
X104775000Y-88880000D03*
X109855000Y-96500000D03*
X107315000Y-88880000D03*
X107315000Y-96500000D03*
X109855000Y-88880000D03*
X104775000Y-96500000D03*
X112395000Y-88880000D03*
X102235000Y-96500000D03*
X114935000Y-88880000D03*
D11*
X99695000Y-96500000D03*
D12*
X120275000Y-79121000D03*
X117735000Y-79121000D03*
D13*
X115195000Y-79121000D03*
D12*
X120275000Y-82931000D03*
X117735000Y-82931000D03*
D13*
X115195000Y-82931000D03*
D14*
X128230000Y-78613000D03*
X125730000Y-78613000D03*
X102195000Y-85000000D03*
X99695000Y-85000000D03*
D12*
X188060000Y-110000000D03*
X185520000Y-110000000D03*
X182980000Y-110000000D03*
X180440000Y-110000000D03*
X177900000Y-110000000D03*
X175360000Y-110000000D03*
X172820000Y-110000000D03*
X170280000Y-110000000D03*
X167740000Y-110000000D03*
X165200000Y-110000000D03*
X162660000Y-110000000D03*
X160120000Y-110000000D03*
X157580000Y-110000000D03*
X155040000Y-110000000D03*
X152500000Y-110000000D03*
X149960000Y-110000000D03*
X147420000Y-110000000D03*
X144880000Y-110000000D03*
X142340000Y-110000000D03*
X139800000Y-110000000D03*
X137260000Y-110000000D03*
X134720000Y-110000000D03*
X132180000Y-110000000D03*
X129640000Y-110000000D03*
X127100000Y-110000000D03*
X124560000Y-110000000D03*
X122020000Y-110000000D03*
X119480000Y-110000000D03*
X116940000Y-110000000D03*
X114400000Y-110000000D03*
X111860000Y-110000000D03*
X109320000Y-110000000D03*
X106780000Y-110000000D03*
X104240000Y-110000000D03*
X101700000Y-110000000D03*
X99160000Y-110000000D03*
X96620000Y-110000000D03*
X94080000Y-110000000D03*
X91540000Y-110000000D03*
D13*
X89000000Y-110000000D03*
D15*
X118110000Y-100240000D03*
X105410000Y-106045000D03*
X123190000Y-98425000D03*
X128270000Y-99695000D03*
X121920000Y-99150000D03*
X127000000Y-100965000D03*
X127000000Y-85090000D03*
X122174000Y-87376000D03*
D16*
X182980000Y-109450000D02*
X182980000Y-110000000D01*
D17*
X148745000Y-81760000D02*
X148590000Y-81760000D01*
X151845028Y-78659972D02*
X148745000Y-81760000D01*
X166289972Y-78659972D02*
X151845028Y-78659972D01*
X172820000Y-110000000D02*
X172820000Y-85190000D01*
X172820000Y-85190000D02*
X166289972Y-78659972D01*
X153780018Y-79109982D02*
X164199982Y-79109982D01*
X151130000Y-81760000D02*
X153780018Y-79109982D01*
X170280000Y-85190000D02*
X170280000Y-110000000D01*
X164199982Y-79109982D02*
X170280000Y-85190000D01*
X156025009Y-79559991D02*
X162109991Y-79559991D01*
X154624999Y-80960001D02*
X156025009Y-79559991D01*
X167740000Y-85190000D02*
X167740000Y-110000000D01*
X162109991Y-79559991D02*
X167740000Y-85190000D01*
X154624999Y-80960001D02*
X154599496Y-80960001D01*
X154599496Y-80960001D02*
X154432000Y-81127497D01*
X154302503Y-81127497D02*
X153670000Y-81760000D01*
X154432000Y-81127497D02*
X154302503Y-81127497D01*
X156210000Y-81760000D02*
X157960000Y-80010000D01*
X157960000Y-80010000D02*
X160020000Y-80010000D01*
X165200000Y-85190000D02*
X165200000Y-110000000D01*
X160020000Y-80010000D02*
X165200000Y-85190000D01*
X158750000Y-81915000D02*
X158750000Y-81760000D01*
X162660000Y-110000000D02*
X162660000Y-85825000D01*
X162660000Y-85825000D02*
X158750000Y-81915000D01*
X156210000Y-106090000D02*
X160120000Y-110000000D01*
X156210000Y-97000000D02*
X156210000Y-106090000D01*
X153670000Y-106090000D02*
X157580000Y-110000000D01*
X153670000Y-97000000D02*
X153670000Y-106090000D01*
X151130000Y-106090000D02*
X155040000Y-110000000D01*
X151130000Y-97000000D02*
X151130000Y-106090000D01*
D16*
X99695000Y-85000000D02*
X99695000Y-88880000D01*
X88285000Y-88880000D02*
X99695000Y-88880000D01*
X132180000Y-111660000D02*
X131445000Y-112395000D01*
X132180000Y-110000000D02*
X132180000Y-111660000D01*
X131445000Y-112395000D02*
X87630000Y-112395000D01*
X87630000Y-112395000D02*
X85725000Y-110490000D01*
X85725000Y-110490000D02*
X85725000Y-91440000D01*
X85725000Y-91440000D02*
X88285000Y-88880000D01*
X120275000Y-82931000D02*
X120275000Y-79121000D01*
X123726000Y-81760000D02*
X125730000Y-81760000D01*
X120275000Y-82931000D02*
X122555000Y-82931000D01*
X122555000Y-82931000D02*
X123726000Y-81760000D01*
X120275000Y-81728919D02*
X119572081Y-81026000D01*
X120275000Y-82931000D02*
X120275000Y-81728919D01*
X103669000Y-81026000D02*
X100348500Y-84346500D01*
X119572081Y-81026000D02*
X103669000Y-81026000D01*
X102145000Y-82550000D02*
X100348500Y-84346500D01*
X100348500Y-84346500D02*
X99695000Y-85000000D01*
X125730000Y-79502000D02*
X125730000Y-78613000D01*
X125730000Y-79502000D02*
X125730000Y-79000000D01*
X125730000Y-81760000D02*
X125730000Y-79502000D01*
D17*
X148590000Y-97000000D02*
X138275000Y-107315000D01*
X129785000Y-107315000D02*
X127100000Y-110000000D01*
X138275000Y-107315000D02*
X129785000Y-107315000D01*
X146050000Y-97000000D02*
X136370000Y-106680000D01*
X127880000Y-106680000D02*
X124560000Y-110000000D01*
X136370000Y-106680000D02*
X127880000Y-106680000D01*
X143510000Y-97400000D02*
X143510000Y-97000000D01*
X134865000Y-106045000D02*
X143510000Y-97400000D01*
X125975000Y-106045000D02*
X134865000Y-106045000D01*
X122020000Y-110000000D02*
X125975000Y-106045000D01*
X140970000Y-97000000D02*
X132560000Y-105410000D01*
X124070000Y-105410000D02*
X119480000Y-110000000D01*
X132560000Y-105410000D02*
X124070000Y-105410000D01*
X138430000Y-97000000D02*
X130655000Y-104775000D01*
X122165000Y-104775000D02*
X116940000Y-110000000D01*
X130655000Y-104775000D02*
X122165000Y-104775000D01*
X135890000Y-97000000D02*
X128750000Y-104140000D01*
X120260000Y-104140000D02*
X114400000Y-110000000D01*
X128750000Y-104140000D02*
X120260000Y-104140000D01*
X112709999Y-109150001D02*
X111860000Y-110000000D01*
X118170010Y-103689990D02*
X112709999Y-109150001D01*
X126660010Y-103689990D02*
X118170010Y-103689990D01*
X133350000Y-97000000D02*
X126660010Y-103689990D01*
X130810000Y-98425000D02*
X130810000Y-97000000D01*
X125995020Y-103239980D02*
X130810000Y-98425000D01*
X109320000Y-110000000D02*
X116080020Y-103239980D01*
X116080020Y-103239980D02*
X125995020Y-103239980D01*
X133350000Y-83430000D02*
X106780000Y-110000000D01*
X133350000Y-81760000D02*
X133350000Y-83430000D01*
X134140000Y-80010000D02*
X132715000Y-80010000D01*
X135890000Y-81760000D02*
X134140000Y-80010000D01*
X132715000Y-80010000D02*
X132080000Y-80645000D01*
X132080000Y-83566000D02*
X132080000Y-82677000D01*
X107696000Y-107950000D02*
X132080000Y-83566000D01*
X106290000Y-107950000D02*
X107696000Y-107950000D01*
X104240000Y-110000000D02*
X106290000Y-107950000D01*
X132080000Y-80645000D02*
X132080000Y-82677000D01*
X132080000Y-82677000D02*
X132080000Y-82804000D01*
X118200000Y-100330000D02*
X118110000Y-100240000D01*
X118675685Y-100240000D02*
X134460685Y-84455000D01*
X118110000Y-100240000D02*
X118675685Y-100240000D01*
X135735000Y-84455000D02*
X138430000Y-81760000D01*
X134460685Y-84455000D02*
X135735000Y-84455000D01*
X96620000Y-109320000D02*
X96620000Y-110000000D01*
X96520000Y-109220000D02*
X96620000Y-109320000D01*
X105410000Y-106045000D02*
X99695000Y-106045000D01*
X99695000Y-106045000D02*
X96520000Y-109220000D01*
X124460000Y-99695000D02*
X128270000Y-99695000D01*
X123190000Y-98425000D02*
X124460000Y-99695000D01*
X123735000Y-100965000D02*
X127000000Y-100965000D01*
X121920000Y-99150000D02*
X123735000Y-100965000D01*
X112395000Y-96100000D02*
X112395000Y-96500000D01*
X112395000Y-95250000D02*
X112395000Y-96100000D01*
X114300000Y-93345000D02*
X112395000Y-95250000D01*
X118237000Y-93345000D02*
X114300000Y-93345000D01*
X118237000Y-93345000D02*
X126492000Y-85090000D01*
X126492000Y-85090000D02*
X127000000Y-85090000D01*
X102235000Y-99305000D02*
X102235000Y-96500000D01*
X91540000Y-110000000D02*
X102235000Y-99305000D01*
X89000000Y-108900000D02*
X99695000Y-98205000D01*
X89000000Y-110000000D02*
X89000000Y-108900000D01*
X99695000Y-98205000D02*
X99695000Y-97790000D01*
X99695000Y-97790000D02*
X99695000Y-96500000D01*
X117735000Y-79121000D02*
X117735000Y-77918919D01*
X117735000Y-77845000D02*
X117735000Y-79121000D01*
X118364000Y-77216000D02*
X117735000Y-77845000D01*
X129540000Y-77216000D02*
X118364000Y-77216000D01*
X130048000Y-77724000D02*
X129540000Y-77216000D01*
X128270000Y-81760000D02*
X130048000Y-79982000D01*
X130048000Y-79982000D02*
X130048000Y-77724000D01*
X104775000Y-95050000D02*
X107750000Y-92075000D01*
X104775000Y-96500000D02*
X104775000Y-95050000D01*
X107750000Y-92075000D02*
X117475000Y-92075000D01*
X122174000Y-87376000D02*
X117475000Y-92075000D01*
X99178000Y-104902000D02*
X94080000Y-110000000D01*
X109601000Y-104902000D02*
X99178000Y-104902000D01*
X130810000Y-81760000D02*
X130810000Y-83693000D01*
X130810000Y-83693000D02*
X109601000Y-104902000D01*
M02*
