G04 #@! TF.GenerationSoftware,KiCad,Pcbnew,(5.1.2)-2*
G04 #@! TF.CreationDate,2021-09-18T22:43:47+02:00*
G04 #@! TF.ProjectId,aZ80_ROM,615a3830-5f52-44f4-9d2e-6b696361645f,rev?*
G04 #@! TF.SameCoordinates,Original*
G04 #@! TF.FileFunction,Soldermask,Top*
G04 #@! TF.FilePolarity,Negative*
%FSLAX46Y46*%
G04 Gerber Fmt 4.6, Leading zero omitted, Abs format (unit mm)*
G04 Created by KiCad (PCBNEW (5.1.2)-2) date 2021-09-18 22:43:47*
%MOMM*%
%LPD*%
G04 APERTURE LIST*
%ADD10C,0.100000*%
G04 APERTURE END LIST*
D10*
G36*
X114510443Y-109105519D02*
G01*
X114576627Y-109112037D01*
X114746466Y-109163557D01*
X114902991Y-109247222D01*
X114938729Y-109276552D01*
X115040186Y-109359814D01*
X115123448Y-109461271D01*
X115152778Y-109497009D01*
X115236443Y-109653534D01*
X115287963Y-109823373D01*
X115305359Y-110000000D01*
X115287963Y-110176627D01*
X115236443Y-110346466D01*
X115152778Y-110502991D01*
X115123448Y-110538729D01*
X115040186Y-110640186D01*
X114938729Y-110723448D01*
X114902991Y-110752778D01*
X114746466Y-110836443D01*
X114576627Y-110887963D01*
X114510443Y-110894481D01*
X114444260Y-110901000D01*
X114355740Y-110901000D01*
X114289557Y-110894481D01*
X114223373Y-110887963D01*
X114053534Y-110836443D01*
X113897009Y-110752778D01*
X113861271Y-110723448D01*
X113759814Y-110640186D01*
X113676552Y-110538729D01*
X113647222Y-110502991D01*
X113563557Y-110346466D01*
X113512037Y-110176627D01*
X113494641Y-110000000D01*
X113512037Y-109823373D01*
X113563557Y-109653534D01*
X113647222Y-109497009D01*
X113676552Y-109461271D01*
X113759814Y-109359814D01*
X113861271Y-109276552D01*
X113897009Y-109247222D01*
X114053534Y-109163557D01*
X114223373Y-109112037D01*
X114289557Y-109105519D01*
X114355740Y-109099000D01*
X114444260Y-109099000D01*
X114510443Y-109105519D01*
X114510443Y-109105519D01*
G37*
G36*
X111970443Y-109105519D02*
G01*
X112036627Y-109112037D01*
X112206466Y-109163557D01*
X112362991Y-109247222D01*
X112398729Y-109276552D01*
X112500186Y-109359814D01*
X112583448Y-109461271D01*
X112612778Y-109497009D01*
X112696443Y-109653534D01*
X112747963Y-109823373D01*
X112765359Y-110000000D01*
X112747963Y-110176627D01*
X112696443Y-110346466D01*
X112612778Y-110502991D01*
X112583448Y-110538729D01*
X112500186Y-110640186D01*
X112398729Y-110723448D01*
X112362991Y-110752778D01*
X112206466Y-110836443D01*
X112036627Y-110887963D01*
X111970443Y-110894481D01*
X111904260Y-110901000D01*
X111815740Y-110901000D01*
X111749557Y-110894481D01*
X111683373Y-110887963D01*
X111513534Y-110836443D01*
X111357009Y-110752778D01*
X111321271Y-110723448D01*
X111219814Y-110640186D01*
X111136552Y-110538729D01*
X111107222Y-110502991D01*
X111023557Y-110346466D01*
X110972037Y-110176627D01*
X110954641Y-110000000D01*
X110972037Y-109823373D01*
X111023557Y-109653534D01*
X111107222Y-109497009D01*
X111136552Y-109461271D01*
X111219814Y-109359814D01*
X111321271Y-109276552D01*
X111357009Y-109247222D01*
X111513534Y-109163557D01*
X111683373Y-109112037D01*
X111749557Y-109105519D01*
X111815740Y-109099000D01*
X111904260Y-109099000D01*
X111970443Y-109105519D01*
X111970443Y-109105519D01*
G37*
G36*
X89901000Y-110901000D02*
G01*
X88099000Y-110901000D01*
X88099000Y-109099000D01*
X89901000Y-109099000D01*
X89901000Y-110901000D01*
X89901000Y-110901000D01*
G37*
G36*
X94190443Y-109105519D02*
G01*
X94256627Y-109112037D01*
X94426466Y-109163557D01*
X94582991Y-109247222D01*
X94618729Y-109276552D01*
X94720186Y-109359814D01*
X94803448Y-109461271D01*
X94832778Y-109497009D01*
X94916443Y-109653534D01*
X94967963Y-109823373D01*
X94985359Y-110000000D01*
X94967963Y-110176627D01*
X94916443Y-110346466D01*
X94832778Y-110502991D01*
X94803448Y-110538729D01*
X94720186Y-110640186D01*
X94618729Y-110723448D01*
X94582991Y-110752778D01*
X94426466Y-110836443D01*
X94256627Y-110887963D01*
X94190443Y-110894481D01*
X94124260Y-110901000D01*
X94035740Y-110901000D01*
X93969557Y-110894481D01*
X93903373Y-110887963D01*
X93733534Y-110836443D01*
X93577009Y-110752778D01*
X93541271Y-110723448D01*
X93439814Y-110640186D01*
X93356552Y-110538729D01*
X93327222Y-110502991D01*
X93243557Y-110346466D01*
X93192037Y-110176627D01*
X93174641Y-110000000D01*
X93192037Y-109823373D01*
X93243557Y-109653534D01*
X93327222Y-109497009D01*
X93356552Y-109461271D01*
X93439814Y-109359814D01*
X93541271Y-109276552D01*
X93577009Y-109247222D01*
X93733534Y-109163557D01*
X93903373Y-109112037D01*
X93969557Y-109105519D01*
X94035740Y-109099000D01*
X94124260Y-109099000D01*
X94190443Y-109105519D01*
X94190443Y-109105519D01*
G37*
G36*
X96730443Y-109105519D02*
G01*
X96796627Y-109112037D01*
X96966466Y-109163557D01*
X97122991Y-109247222D01*
X97158729Y-109276552D01*
X97260186Y-109359814D01*
X97343448Y-109461271D01*
X97372778Y-109497009D01*
X97456443Y-109653534D01*
X97507963Y-109823373D01*
X97525359Y-110000000D01*
X97507963Y-110176627D01*
X97456443Y-110346466D01*
X97372778Y-110502991D01*
X97343448Y-110538729D01*
X97260186Y-110640186D01*
X97158729Y-110723448D01*
X97122991Y-110752778D01*
X96966466Y-110836443D01*
X96796627Y-110887963D01*
X96730443Y-110894481D01*
X96664260Y-110901000D01*
X96575740Y-110901000D01*
X96509557Y-110894481D01*
X96443373Y-110887963D01*
X96273534Y-110836443D01*
X96117009Y-110752778D01*
X96081271Y-110723448D01*
X95979814Y-110640186D01*
X95896552Y-110538729D01*
X95867222Y-110502991D01*
X95783557Y-110346466D01*
X95732037Y-110176627D01*
X95714641Y-110000000D01*
X95732037Y-109823373D01*
X95783557Y-109653534D01*
X95867222Y-109497009D01*
X95896552Y-109461271D01*
X95979814Y-109359814D01*
X96081271Y-109276552D01*
X96117009Y-109247222D01*
X96273534Y-109163557D01*
X96443373Y-109112037D01*
X96509557Y-109105519D01*
X96575740Y-109099000D01*
X96664260Y-109099000D01*
X96730443Y-109105519D01*
X96730443Y-109105519D01*
G37*
G36*
X99270443Y-109105519D02*
G01*
X99336627Y-109112037D01*
X99506466Y-109163557D01*
X99662991Y-109247222D01*
X99698729Y-109276552D01*
X99800186Y-109359814D01*
X99883448Y-109461271D01*
X99912778Y-109497009D01*
X99996443Y-109653534D01*
X100047963Y-109823373D01*
X100065359Y-110000000D01*
X100047963Y-110176627D01*
X99996443Y-110346466D01*
X99912778Y-110502991D01*
X99883448Y-110538729D01*
X99800186Y-110640186D01*
X99698729Y-110723448D01*
X99662991Y-110752778D01*
X99506466Y-110836443D01*
X99336627Y-110887963D01*
X99270443Y-110894481D01*
X99204260Y-110901000D01*
X99115740Y-110901000D01*
X99049557Y-110894481D01*
X98983373Y-110887963D01*
X98813534Y-110836443D01*
X98657009Y-110752778D01*
X98621271Y-110723448D01*
X98519814Y-110640186D01*
X98436552Y-110538729D01*
X98407222Y-110502991D01*
X98323557Y-110346466D01*
X98272037Y-110176627D01*
X98254641Y-110000000D01*
X98272037Y-109823373D01*
X98323557Y-109653534D01*
X98407222Y-109497009D01*
X98436552Y-109461271D01*
X98519814Y-109359814D01*
X98621271Y-109276552D01*
X98657009Y-109247222D01*
X98813534Y-109163557D01*
X98983373Y-109112037D01*
X99049557Y-109105519D01*
X99115740Y-109099000D01*
X99204260Y-109099000D01*
X99270443Y-109105519D01*
X99270443Y-109105519D01*
G37*
G36*
X101810443Y-109105519D02*
G01*
X101876627Y-109112037D01*
X102046466Y-109163557D01*
X102202991Y-109247222D01*
X102238729Y-109276552D01*
X102340186Y-109359814D01*
X102423448Y-109461271D01*
X102452778Y-109497009D01*
X102536443Y-109653534D01*
X102587963Y-109823373D01*
X102605359Y-110000000D01*
X102587963Y-110176627D01*
X102536443Y-110346466D01*
X102452778Y-110502991D01*
X102423448Y-110538729D01*
X102340186Y-110640186D01*
X102238729Y-110723448D01*
X102202991Y-110752778D01*
X102046466Y-110836443D01*
X101876627Y-110887963D01*
X101810443Y-110894481D01*
X101744260Y-110901000D01*
X101655740Y-110901000D01*
X101589557Y-110894481D01*
X101523373Y-110887963D01*
X101353534Y-110836443D01*
X101197009Y-110752778D01*
X101161271Y-110723448D01*
X101059814Y-110640186D01*
X100976552Y-110538729D01*
X100947222Y-110502991D01*
X100863557Y-110346466D01*
X100812037Y-110176627D01*
X100794641Y-110000000D01*
X100812037Y-109823373D01*
X100863557Y-109653534D01*
X100947222Y-109497009D01*
X100976552Y-109461271D01*
X101059814Y-109359814D01*
X101161271Y-109276552D01*
X101197009Y-109247222D01*
X101353534Y-109163557D01*
X101523373Y-109112037D01*
X101589557Y-109105519D01*
X101655740Y-109099000D01*
X101744260Y-109099000D01*
X101810443Y-109105519D01*
X101810443Y-109105519D01*
G37*
G36*
X104350443Y-109105519D02*
G01*
X104416627Y-109112037D01*
X104586466Y-109163557D01*
X104742991Y-109247222D01*
X104778729Y-109276552D01*
X104880186Y-109359814D01*
X104963448Y-109461271D01*
X104992778Y-109497009D01*
X105076443Y-109653534D01*
X105127963Y-109823373D01*
X105145359Y-110000000D01*
X105127963Y-110176627D01*
X105076443Y-110346466D01*
X104992778Y-110502991D01*
X104963448Y-110538729D01*
X104880186Y-110640186D01*
X104778729Y-110723448D01*
X104742991Y-110752778D01*
X104586466Y-110836443D01*
X104416627Y-110887963D01*
X104350443Y-110894481D01*
X104284260Y-110901000D01*
X104195740Y-110901000D01*
X104129557Y-110894481D01*
X104063373Y-110887963D01*
X103893534Y-110836443D01*
X103737009Y-110752778D01*
X103701271Y-110723448D01*
X103599814Y-110640186D01*
X103516552Y-110538729D01*
X103487222Y-110502991D01*
X103403557Y-110346466D01*
X103352037Y-110176627D01*
X103334641Y-110000000D01*
X103352037Y-109823373D01*
X103403557Y-109653534D01*
X103487222Y-109497009D01*
X103516552Y-109461271D01*
X103599814Y-109359814D01*
X103701271Y-109276552D01*
X103737009Y-109247222D01*
X103893534Y-109163557D01*
X104063373Y-109112037D01*
X104129557Y-109105519D01*
X104195740Y-109099000D01*
X104284260Y-109099000D01*
X104350443Y-109105519D01*
X104350443Y-109105519D01*
G37*
G36*
X106890443Y-109105519D02*
G01*
X106956627Y-109112037D01*
X107126466Y-109163557D01*
X107282991Y-109247222D01*
X107318729Y-109276552D01*
X107420186Y-109359814D01*
X107503448Y-109461271D01*
X107532778Y-109497009D01*
X107616443Y-109653534D01*
X107667963Y-109823373D01*
X107685359Y-110000000D01*
X107667963Y-110176627D01*
X107616443Y-110346466D01*
X107532778Y-110502991D01*
X107503448Y-110538729D01*
X107420186Y-110640186D01*
X107318729Y-110723448D01*
X107282991Y-110752778D01*
X107126466Y-110836443D01*
X106956627Y-110887963D01*
X106890443Y-110894481D01*
X106824260Y-110901000D01*
X106735740Y-110901000D01*
X106669557Y-110894481D01*
X106603373Y-110887963D01*
X106433534Y-110836443D01*
X106277009Y-110752778D01*
X106241271Y-110723448D01*
X106139814Y-110640186D01*
X106056552Y-110538729D01*
X106027222Y-110502991D01*
X105943557Y-110346466D01*
X105892037Y-110176627D01*
X105874641Y-110000000D01*
X105892037Y-109823373D01*
X105943557Y-109653534D01*
X106027222Y-109497009D01*
X106056552Y-109461271D01*
X106139814Y-109359814D01*
X106241271Y-109276552D01*
X106277009Y-109247222D01*
X106433534Y-109163557D01*
X106603373Y-109112037D01*
X106669557Y-109105519D01*
X106735740Y-109099000D01*
X106824260Y-109099000D01*
X106890443Y-109105519D01*
X106890443Y-109105519D01*
G37*
G36*
X109430443Y-109105519D02*
G01*
X109496627Y-109112037D01*
X109666466Y-109163557D01*
X109822991Y-109247222D01*
X109858729Y-109276552D01*
X109960186Y-109359814D01*
X110043448Y-109461271D01*
X110072778Y-109497009D01*
X110156443Y-109653534D01*
X110207963Y-109823373D01*
X110225359Y-110000000D01*
X110207963Y-110176627D01*
X110156443Y-110346466D01*
X110072778Y-110502991D01*
X110043448Y-110538729D01*
X109960186Y-110640186D01*
X109858729Y-110723448D01*
X109822991Y-110752778D01*
X109666466Y-110836443D01*
X109496627Y-110887963D01*
X109430443Y-110894481D01*
X109364260Y-110901000D01*
X109275740Y-110901000D01*
X109209557Y-110894481D01*
X109143373Y-110887963D01*
X108973534Y-110836443D01*
X108817009Y-110752778D01*
X108781271Y-110723448D01*
X108679814Y-110640186D01*
X108596552Y-110538729D01*
X108567222Y-110502991D01*
X108483557Y-110346466D01*
X108432037Y-110176627D01*
X108414641Y-110000000D01*
X108432037Y-109823373D01*
X108483557Y-109653534D01*
X108567222Y-109497009D01*
X108596552Y-109461271D01*
X108679814Y-109359814D01*
X108781271Y-109276552D01*
X108817009Y-109247222D01*
X108973534Y-109163557D01*
X109143373Y-109112037D01*
X109209557Y-109105519D01*
X109275740Y-109099000D01*
X109364260Y-109099000D01*
X109430443Y-109105519D01*
X109430443Y-109105519D01*
G37*
G36*
X91650443Y-109105519D02*
G01*
X91716627Y-109112037D01*
X91886466Y-109163557D01*
X92042991Y-109247222D01*
X92078729Y-109276552D01*
X92180186Y-109359814D01*
X92263448Y-109461271D01*
X92292778Y-109497009D01*
X92376443Y-109653534D01*
X92427963Y-109823373D01*
X92445359Y-110000000D01*
X92427963Y-110176627D01*
X92376443Y-110346466D01*
X92292778Y-110502991D01*
X92263448Y-110538729D01*
X92180186Y-110640186D01*
X92078729Y-110723448D01*
X92042991Y-110752778D01*
X91886466Y-110836443D01*
X91716627Y-110887963D01*
X91650443Y-110894481D01*
X91584260Y-110901000D01*
X91495740Y-110901000D01*
X91429557Y-110894481D01*
X91363373Y-110887963D01*
X91193534Y-110836443D01*
X91037009Y-110752778D01*
X91001271Y-110723448D01*
X90899814Y-110640186D01*
X90816552Y-110538729D01*
X90787222Y-110502991D01*
X90703557Y-110346466D01*
X90652037Y-110176627D01*
X90634641Y-110000000D01*
X90652037Y-109823373D01*
X90703557Y-109653534D01*
X90787222Y-109497009D01*
X90816552Y-109461271D01*
X90899814Y-109359814D01*
X91001271Y-109276552D01*
X91037009Y-109247222D01*
X91193534Y-109163557D01*
X91363373Y-109112037D01*
X91429557Y-109105519D01*
X91495740Y-109099000D01*
X91584260Y-109099000D01*
X91650443Y-109105519D01*
X91650443Y-109105519D01*
G37*
G36*
X117050443Y-109105519D02*
G01*
X117116627Y-109112037D01*
X117286466Y-109163557D01*
X117442991Y-109247222D01*
X117478729Y-109276552D01*
X117580186Y-109359814D01*
X117663448Y-109461271D01*
X117692778Y-109497009D01*
X117776443Y-109653534D01*
X117827963Y-109823373D01*
X117845359Y-110000000D01*
X117827963Y-110176627D01*
X117776443Y-110346466D01*
X117692778Y-110502991D01*
X117663448Y-110538729D01*
X117580186Y-110640186D01*
X117478729Y-110723448D01*
X117442991Y-110752778D01*
X117286466Y-110836443D01*
X117116627Y-110887963D01*
X117050443Y-110894481D01*
X116984260Y-110901000D01*
X116895740Y-110901000D01*
X116829557Y-110894481D01*
X116763373Y-110887963D01*
X116593534Y-110836443D01*
X116437009Y-110752778D01*
X116401271Y-110723448D01*
X116299814Y-110640186D01*
X116216552Y-110538729D01*
X116187222Y-110502991D01*
X116103557Y-110346466D01*
X116052037Y-110176627D01*
X116034641Y-110000000D01*
X116052037Y-109823373D01*
X116103557Y-109653534D01*
X116187222Y-109497009D01*
X116216552Y-109461271D01*
X116299814Y-109359814D01*
X116401271Y-109276552D01*
X116437009Y-109247222D01*
X116593534Y-109163557D01*
X116763373Y-109112037D01*
X116829557Y-109105519D01*
X116895740Y-109099000D01*
X116984260Y-109099000D01*
X117050443Y-109105519D01*
X117050443Y-109105519D01*
G37*
G36*
X119590443Y-109105519D02*
G01*
X119656627Y-109112037D01*
X119826466Y-109163557D01*
X119982991Y-109247222D01*
X120018729Y-109276552D01*
X120120186Y-109359814D01*
X120203448Y-109461271D01*
X120232778Y-109497009D01*
X120316443Y-109653534D01*
X120367963Y-109823373D01*
X120385359Y-110000000D01*
X120367963Y-110176627D01*
X120316443Y-110346466D01*
X120232778Y-110502991D01*
X120203448Y-110538729D01*
X120120186Y-110640186D01*
X120018729Y-110723448D01*
X119982991Y-110752778D01*
X119826466Y-110836443D01*
X119656627Y-110887963D01*
X119590443Y-110894481D01*
X119524260Y-110901000D01*
X119435740Y-110901000D01*
X119369557Y-110894481D01*
X119303373Y-110887963D01*
X119133534Y-110836443D01*
X118977009Y-110752778D01*
X118941271Y-110723448D01*
X118839814Y-110640186D01*
X118756552Y-110538729D01*
X118727222Y-110502991D01*
X118643557Y-110346466D01*
X118592037Y-110176627D01*
X118574641Y-110000000D01*
X118592037Y-109823373D01*
X118643557Y-109653534D01*
X118727222Y-109497009D01*
X118756552Y-109461271D01*
X118839814Y-109359814D01*
X118941271Y-109276552D01*
X118977009Y-109247222D01*
X119133534Y-109163557D01*
X119303373Y-109112037D01*
X119369557Y-109105519D01*
X119435740Y-109099000D01*
X119524260Y-109099000D01*
X119590443Y-109105519D01*
X119590443Y-109105519D01*
G37*
G36*
X122130443Y-109105519D02*
G01*
X122196627Y-109112037D01*
X122366466Y-109163557D01*
X122522991Y-109247222D01*
X122558729Y-109276552D01*
X122660186Y-109359814D01*
X122743448Y-109461271D01*
X122772778Y-109497009D01*
X122856443Y-109653534D01*
X122907963Y-109823373D01*
X122925359Y-110000000D01*
X122907963Y-110176627D01*
X122856443Y-110346466D01*
X122772778Y-110502991D01*
X122743448Y-110538729D01*
X122660186Y-110640186D01*
X122558729Y-110723448D01*
X122522991Y-110752778D01*
X122366466Y-110836443D01*
X122196627Y-110887963D01*
X122130443Y-110894481D01*
X122064260Y-110901000D01*
X121975740Y-110901000D01*
X121909557Y-110894481D01*
X121843373Y-110887963D01*
X121673534Y-110836443D01*
X121517009Y-110752778D01*
X121481271Y-110723448D01*
X121379814Y-110640186D01*
X121296552Y-110538729D01*
X121267222Y-110502991D01*
X121183557Y-110346466D01*
X121132037Y-110176627D01*
X121114641Y-110000000D01*
X121132037Y-109823373D01*
X121183557Y-109653534D01*
X121267222Y-109497009D01*
X121296552Y-109461271D01*
X121379814Y-109359814D01*
X121481271Y-109276552D01*
X121517009Y-109247222D01*
X121673534Y-109163557D01*
X121843373Y-109112037D01*
X121909557Y-109105519D01*
X121975740Y-109099000D01*
X122064260Y-109099000D01*
X122130443Y-109105519D01*
X122130443Y-109105519D01*
G37*
G36*
X124670443Y-109105519D02*
G01*
X124736627Y-109112037D01*
X124906466Y-109163557D01*
X125062991Y-109247222D01*
X125098729Y-109276552D01*
X125200186Y-109359814D01*
X125283448Y-109461271D01*
X125312778Y-109497009D01*
X125396443Y-109653534D01*
X125447963Y-109823373D01*
X125465359Y-110000000D01*
X125447963Y-110176627D01*
X125396443Y-110346466D01*
X125312778Y-110502991D01*
X125283448Y-110538729D01*
X125200186Y-110640186D01*
X125098729Y-110723448D01*
X125062991Y-110752778D01*
X124906466Y-110836443D01*
X124736627Y-110887963D01*
X124670443Y-110894481D01*
X124604260Y-110901000D01*
X124515740Y-110901000D01*
X124449557Y-110894481D01*
X124383373Y-110887963D01*
X124213534Y-110836443D01*
X124057009Y-110752778D01*
X124021271Y-110723448D01*
X123919814Y-110640186D01*
X123836552Y-110538729D01*
X123807222Y-110502991D01*
X123723557Y-110346466D01*
X123672037Y-110176627D01*
X123654641Y-110000000D01*
X123672037Y-109823373D01*
X123723557Y-109653534D01*
X123807222Y-109497009D01*
X123836552Y-109461271D01*
X123919814Y-109359814D01*
X124021271Y-109276552D01*
X124057009Y-109247222D01*
X124213534Y-109163557D01*
X124383373Y-109112037D01*
X124449557Y-109105519D01*
X124515740Y-109099000D01*
X124604260Y-109099000D01*
X124670443Y-109105519D01*
X124670443Y-109105519D01*
G37*
G36*
X127210443Y-109105519D02*
G01*
X127276627Y-109112037D01*
X127446466Y-109163557D01*
X127602991Y-109247222D01*
X127638729Y-109276552D01*
X127740186Y-109359814D01*
X127823448Y-109461271D01*
X127852778Y-109497009D01*
X127936443Y-109653534D01*
X127987963Y-109823373D01*
X128005359Y-110000000D01*
X127987963Y-110176627D01*
X127936443Y-110346466D01*
X127852778Y-110502991D01*
X127823448Y-110538729D01*
X127740186Y-110640186D01*
X127638729Y-110723448D01*
X127602991Y-110752778D01*
X127446466Y-110836443D01*
X127276627Y-110887963D01*
X127210443Y-110894481D01*
X127144260Y-110901000D01*
X127055740Y-110901000D01*
X126989557Y-110894481D01*
X126923373Y-110887963D01*
X126753534Y-110836443D01*
X126597009Y-110752778D01*
X126561271Y-110723448D01*
X126459814Y-110640186D01*
X126376552Y-110538729D01*
X126347222Y-110502991D01*
X126263557Y-110346466D01*
X126212037Y-110176627D01*
X126194641Y-110000000D01*
X126212037Y-109823373D01*
X126263557Y-109653534D01*
X126347222Y-109497009D01*
X126376552Y-109461271D01*
X126459814Y-109359814D01*
X126561271Y-109276552D01*
X126597009Y-109247222D01*
X126753534Y-109163557D01*
X126923373Y-109112037D01*
X126989557Y-109105519D01*
X127055740Y-109099000D01*
X127144260Y-109099000D01*
X127210443Y-109105519D01*
X127210443Y-109105519D01*
G37*
G36*
X129750443Y-109105519D02*
G01*
X129816627Y-109112037D01*
X129986466Y-109163557D01*
X130142991Y-109247222D01*
X130178729Y-109276552D01*
X130280186Y-109359814D01*
X130363448Y-109461271D01*
X130392778Y-109497009D01*
X130476443Y-109653534D01*
X130527963Y-109823373D01*
X130545359Y-110000000D01*
X130527963Y-110176627D01*
X130476443Y-110346466D01*
X130392778Y-110502991D01*
X130363448Y-110538729D01*
X130280186Y-110640186D01*
X130178729Y-110723448D01*
X130142991Y-110752778D01*
X129986466Y-110836443D01*
X129816627Y-110887963D01*
X129750443Y-110894481D01*
X129684260Y-110901000D01*
X129595740Y-110901000D01*
X129529557Y-110894481D01*
X129463373Y-110887963D01*
X129293534Y-110836443D01*
X129137009Y-110752778D01*
X129101271Y-110723448D01*
X128999814Y-110640186D01*
X128916552Y-110538729D01*
X128887222Y-110502991D01*
X128803557Y-110346466D01*
X128752037Y-110176627D01*
X128734641Y-110000000D01*
X128752037Y-109823373D01*
X128803557Y-109653534D01*
X128887222Y-109497009D01*
X128916552Y-109461271D01*
X128999814Y-109359814D01*
X129101271Y-109276552D01*
X129137009Y-109247222D01*
X129293534Y-109163557D01*
X129463373Y-109112037D01*
X129529557Y-109105519D01*
X129595740Y-109099000D01*
X129684260Y-109099000D01*
X129750443Y-109105519D01*
X129750443Y-109105519D01*
G37*
G36*
X132290443Y-109105519D02*
G01*
X132356627Y-109112037D01*
X132526466Y-109163557D01*
X132682991Y-109247222D01*
X132718729Y-109276552D01*
X132820186Y-109359814D01*
X132903448Y-109461271D01*
X132932778Y-109497009D01*
X133016443Y-109653534D01*
X133067963Y-109823373D01*
X133085359Y-110000000D01*
X133067963Y-110176627D01*
X133016443Y-110346466D01*
X132932778Y-110502991D01*
X132903448Y-110538729D01*
X132820186Y-110640186D01*
X132718729Y-110723448D01*
X132682991Y-110752778D01*
X132526466Y-110836443D01*
X132356627Y-110887963D01*
X132290443Y-110894481D01*
X132224260Y-110901000D01*
X132135740Y-110901000D01*
X132069557Y-110894481D01*
X132003373Y-110887963D01*
X131833534Y-110836443D01*
X131677009Y-110752778D01*
X131641271Y-110723448D01*
X131539814Y-110640186D01*
X131456552Y-110538729D01*
X131427222Y-110502991D01*
X131343557Y-110346466D01*
X131292037Y-110176627D01*
X131274641Y-110000000D01*
X131292037Y-109823373D01*
X131343557Y-109653534D01*
X131427222Y-109497009D01*
X131456552Y-109461271D01*
X131539814Y-109359814D01*
X131641271Y-109276552D01*
X131677009Y-109247222D01*
X131833534Y-109163557D01*
X132003373Y-109112037D01*
X132069557Y-109105519D01*
X132135740Y-109099000D01*
X132224260Y-109099000D01*
X132290443Y-109105519D01*
X132290443Y-109105519D01*
G37*
G36*
X134830443Y-109105519D02*
G01*
X134896627Y-109112037D01*
X135066466Y-109163557D01*
X135222991Y-109247222D01*
X135258729Y-109276552D01*
X135360186Y-109359814D01*
X135443448Y-109461271D01*
X135472778Y-109497009D01*
X135556443Y-109653534D01*
X135607963Y-109823373D01*
X135625359Y-110000000D01*
X135607963Y-110176627D01*
X135556443Y-110346466D01*
X135472778Y-110502991D01*
X135443448Y-110538729D01*
X135360186Y-110640186D01*
X135258729Y-110723448D01*
X135222991Y-110752778D01*
X135066466Y-110836443D01*
X134896627Y-110887963D01*
X134830443Y-110894481D01*
X134764260Y-110901000D01*
X134675740Y-110901000D01*
X134609557Y-110894481D01*
X134543373Y-110887963D01*
X134373534Y-110836443D01*
X134217009Y-110752778D01*
X134181271Y-110723448D01*
X134079814Y-110640186D01*
X133996552Y-110538729D01*
X133967222Y-110502991D01*
X133883557Y-110346466D01*
X133832037Y-110176627D01*
X133814641Y-110000000D01*
X133832037Y-109823373D01*
X133883557Y-109653534D01*
X133967222Y-109497009D01*
X133996552Y-109461271D01*
X134079814Y-109359814D01*
X134181271Y-109276552D01*
X134217009Y-109247222D01*
X134373534Y-109163557D01*
X134543373Y-109112037D01*
X134609557Y-109105519D01*
X134675740Y-109099000D01*
X134764260Y-109099000D01*
X134830443Y-109105519D01*
X134830443Y-109105519D01*
G37*
G36*
X165310443Y-109105519D02*
G01*
X165376627Y-109112037D01*
X165546466Y-109163557D01*
X165702991Y-109247222D01*
X165738729Y-109276552D01*
X165840186Y-109359814D01*
X165923448Y-109461271D01*
X165952778Y-109497009D01*
X166036443Y-109653534D01*
X166087963Y-109823373D01*
X166105359Y-110000000D01*
X166087963Y-110176627D01*
X166036443Y-110346466D01*
X165952778Y-110502991D01*
X165923448Y-110538729D01*
X165840186Y-110640186D01*
X165738729Y-110723448D01*
X165702991Y-110752778D01*
X165546466Y-110836443D01*
X165376627Y-110887963D01*
X165310443Y-110894481D01*
X165244260Y-110901000D01*
X165155740Y-110901000D01*
X165089557Y-110894481D01*
X165023373Y-110887963D01*
X164853534Y-110836443D01*
X164697009Y-110752778D01*
X164661271Y-110723448D01*
X164559814Y-110640186D01*
X164476552Y-110538729D01*
X164447222Y-110502991D01*
X164363557Y-110346466D01*
X164312037Y-110176627D01*
X164294641Y-110000000D01*
X164312037Y-109823373D01*
X164363557Y-109653534D01*
X164447222Y-109497009D01*
X164476552Y-109461271D01*
X164559814Y-109359814D01*
X164661271Y-109276552D01*
X164697009Y-109247222D01*
X164853534Y-109163557D01*
X165023373Y-109112037D01*
X165089557Y-109105519D01*
X165155740Y-109099000D01*
X165244260Y-109099000D01*
X165310443Y-109105519D01*
X165310443Y-109105519D01*
G37*
G36*
X157690443Y-109105519D02*
G01*
X157756627Y-109112037D01*
X157926466Y-109163557D01*
X158082991Y-109247222D01*
X158118729Y-109276552D01*
X158220186Y-109359814D01*
X158303448Y-109461271D01*
X158332778Y-109497009D01*
X158416443Y-109653534D01*
X158467963Y-109823373D01*
X158485359Y-110000000D01*
X158467963Y-110176627D01*
X158416443Y-110346466D01*
X158332778Y-110502991D01*
X158303448Y-110538729D01*
X158220186Y-110640186D01*
X158118729Y-110723448D01*
X158082991Y-110752778D01*
X157926466Y-110836443D01*
X157756627Y-110887963D01*
X157690443Y-110894481D01*
X157624260Y-110901000D01*
X157535740Y-110901000D01*
X157469557Y-110894481D01*
X157403373Y-110887963D01*
X157233534Y-110836443D01*
X157077009Y-110752778D01*
X157041271Y-110723448D01*
X156939814Y-110640186D01*
X156856552Y-110538729D01*
X156827222Y-110502991D01*
X156743557Y-110346466D01*
X156692037Y-110176627D01*
X156674641Y-110000000D01*
X156692037Y-109823373D01*
X156743557Y-109653534D01*
X156827222Y-109497009D01*
X156856552Y-109461271D01*
X156939814Y-109359814D01*
X157041271Y-109276552D01*
X157077009Y-109247222D01*
X157233534Y-109163557D01*
X157403373Y-109112037D01*
X157469557Y-109105519D01*
X157535740Y-109099000D01*
X157624260Y-109099000D01*
X157690443Y-109105519D01*
X157690443Y-109105519D01*
G37*
G36*
X139910443Y-109105519D02*
G01*
X139976627Y-109112037D01*
X140146466Y-109163557D01*
X140302991Y-109247222D01*
X140338729Y-109276552D01*
X140440186Y-109359814D01*
X140523448Y-109461271D01*
X140552778Y-109497009D01*
X140636443Y-109653534D01*
X140687963Y-109823373D01*
X140705359Y-110000000D01*
X140687963Y-110176627D01*
X140636443Y-110346466D01*
X140552778Y-110502991D01*
X140523448Y-110538729D01*
X140440186Y-110640186D01*
X140338729Y-110723448D01*
X140302991Y-110752778D01*
X140146466Y-110836443D01*
X139976627Y-110887963D01*
X139910443Y-110894481D01*
X139844260Y-110901000D01*
X139755740Y-110901000D01*
X139689557Y-110894481D01*
X139623373Y-110887963D01*
X139453534Y-110836443D01*
X139297009Y-110752778D01*
X139261271Y-110723448D01*
X139159814Y-110640186D01*
X139076552Y-110538729D01*
X139047222Y-110502991D01*
X138963557Y-110346466D01*
X138912037Y-110176627D01*
X138894641Y-110000000D01*
X138912037Y-109823373D01*
X138963557Y-109653534D01*
X139047222Y-109497009D01*
X139076552Y-109461271D01*
X139159814Y-109359814D01*
X139261271Y-109276552D01*
X139297009Y-109247222D01*
X139453534Y-109163557D01*
X139623373Y-109112037D01*
X139689557Y-109105519D01*
X139755740Y-109099000D01*
X139844260Y-109099000D01*
X139910443Y-109105519D01*
X139910443Y-109105519D01*
G37*
G36*
X142450443Y-109105519D02*
G01*
X142516627Y-109112037D01*
X142686466Y-109163557D01*
X142842991Y-109247222D01*
X142878729Y-109276552D01*
X142980186Y-109359814D01*
X143063448Y-109461271D01*
X143092778Y-109497009D01*
X143176443Y-109653534D01*
X143227963Y-109823373D01*
X143245359Y-110000000D01*
X143227963Y-110176627D01*
X143176443Y-110346466D01*
X143092778Y-110502991D01*
X143063448Y-110538729D01*
X142980186Y-110640186D01*
X142878729Y-110723448D01*
X142842991Y-110752778D01*
X142686466Y-110836443D01*
X142516627Y-110887963D01*
X142450443Y-110894481D01*
X142384260Y-110901000D01*
X142295740Y-110901000D01*
X142229557Y-110894481D01*
X142163373Y-110887963D01*
X141993534Y-110836443D01*
X141837009Y-110752778D01*
X141801271Y-110723448D01*
X141699814Y-110640186D01*
X141616552Y-110538729D01*
X141587222Y-110502991D01*
X141503557Y-110346466D01*
X141452037Y-110176627D01*
X141434641Y-110000000D01*
X141452037Y-109823373D01*
X141503557Y-109653534D01*
X141587222Y-109497009D01*
X141616552Y-109461271D01*
X141699814Y-109359814D01*
X141801271Y-109276552D01*
X141837009Y-109247222D01*
X141993534Y-109163557D01*
X142163373Y-109112037D01*
X142229557Y-109105519D01*
X142295740Y-109099000D01*
X142384260Y-109099000D01*
X142450443Y-109105519D01*
X142450443Y-109105519D01*
G37*
G36*
X144990443Y-109105519D02*
G01*
X145056627Y-109112037D01*
X145226466Y-109163557D01*
X145382991Y-109247222D01*
X145418729Y-109276552D01*
X145520186Y-109359814D01*
X145603448Y-109461271D01*
X145632778Y-109497009D01*
X145716443Y-109653534D01*
X145767963Y-109823373D01*
X145785359Y-110000000D01*
X145767963Y-110176627D01*
X145716443Y-110346466D01*
X145632778Y-110502991D01*
X145603448Y-110538729D01*
X145520186Y-110640186D01*
X145418729Y-110723448D01*
X145382991Y-110752778D01*
X145226466Y-110836443D01*
X145056627Y-110887963D01*
X144990443Y-110894481D01*
X144924260Y-110901000D01*
X144835740Y-110901000D01*
X144769557Y-110894481D01*
X144703373Y-110887963D01*
X144533534Y-110836443D01*
X144377009Y-110752778D01*
X144341271Y-110723448D01*
X144239814Y-110640186D01*
X144156552Y-110538729D01*
X144127222Y-110502991D01*
X144043557Y-110346466D01*
X143992037Y-110176627D01*
X143974641Y-110000000D01*
X143992037Y-109823373D01*
X144043557Y-109653534D01*
X144127222Y-109497009D01*
X144156552Y-109461271D01*
X144239814Y-109359814D01*
X144341271Y-109276552D01*
X144377009Y-109247222D01*
X144533534Y-109163557D01*
X144703373Y-109112037D01*
X144769557Y-109105519D01*
X144835740Y-109099000D01*
X144924260Y-109099000D01*
X144990443Y-109105519D01*
X144990443Y-109105519D01*
G37*
G36*
X147530443Y-109105519D02*
G01*
X147596627Y-109112037D01*
X147766466Y-109163557D01*
X147922991Y-109247222D01*
X147958729Y-109276552D01*
X148060186Y-109359814D01*
X148143448Y-109461271D01*
X148172778Y-109497009D01*
X148256443Y-109653534D01*
X148307963Y-109823373D01*
X148325359Y-110000000D01*
X148307963Y-110176627D01*
X148256443Y-110346466D01*
X148172778Y-110502991D01*
X148143448Y-110538729D01*
X148060186Y-110640186D01*
X147958729Y-110723448D01*
X147922991Y-110752778D01*
X147766466Y-110836443D01*
X147596627Y-110887963D01*
X147530443Y-110894481D01*
X147464260Y-110901000D01*
X147375740Y-110901000D01*
X147309557Y-110894481D01*
X147243373Y-110887963D01*
X147073534Y-110836443D01*
X146917009Y-110752778D01*
X146881271Y-110723448D01*
X146779814Y-110640186D01*
X146696552Y-110538729D01*
X146667222Y-110502991D01*
X146583557Y-110346466D01*
X146532037Y-110176627D01*
X146514641Y-110000000D01*
X146532037Y-109823373D01*
X146583557Y-109653534D01*
X146667222Y-109497009D01*
X146696552Y-109461271D01*
X146779814Y-109359814D01*
X146881271Y-109276552D01*
X146917009Y-109247222D01*
X147073534Y-109163557D01*
X147243373Y-109112037D01*
X147309557Y-109105519D01*
X147375740Y-109099000D01*
X147464260Y-109099000D01*
X147530443Y-109105519D01*
X147530443Y-109105519D01*
G37*
G36*
X150070443Y-109105519D02*
G01*
X150136627Y-109112037D01*
X150306466Y-109163557D01*
X150462991Y-109247222D01*
X150498729Y-109276552D01*
X150600186Y-109359814D01*
X150683448Y-109461271D01*
X150712778Y-109497009D01*
X150796443Y-109653534D01*
X150847963Y-109823373D01*
X150865359Y-110000000D01*
X150847963Y-110176627D01*
X150796443Y-110346466D01*
X150712778Y-110502991D01*
X150683448Y-110538729D01*
X150600186Y-110640186D01*
X150498729Y-110723448D01*
X150462991Y-110752778D01*
X150306466Y-110836443D01*
X150136627Y-110887963D01*
X150070443Y-110894481D01*
X150004260Y-110901000D01*
X149915740Y-110901000D01*
X149849557Y-110894481D01*
X149783373Y-110887963D01*
X149613534Y-110836443D01*
X149457009Y-110752778D01*
X149421271Y-110723448D01*
X149319814Y-110640186D01*
X149236552Y-110538729D01*
X149207222Y-110502991D01*
X149123557Y-110346466D01*
X149072037Y-110176627D01*
X149054641Y-110000000D01*
X149072037Y-109823373D01*
X149123557Y-109653534D01*
X149207222Y-109497009D01*
X149236552Y-109461271D01*
X149319814Y-109359814D01*
X149421271Y-109276552D01*
X149457009Y-109247222D01*
X149613534Y-109163557D01*
X149783373Y-109112037D01*
X149849557Y-109105519D01*
X149915740Y-109099000D01*
X150004260Y-109099000D01*
X150070443Y-109105519D01*
X150070443Y-109105519D01*
G37*
G36*
X152610443Y-109105519D02*
G01*
X152676627Y-109112037D01*
X152846466Y-109163557D01*
X153002991Y-109247222D01*
X153038729Y-109276552D01*
X153140186Y-109359814D01*
X153223448Y-109461271D01*
X153252778Y-109497009D01*
X153336443Y-109653534D01*
X153387963Y-109823373D01*
X153405359Y-110000000D01*
X153387963Y-110176627D01*
X153336443Y-110346466D01*
X153252778Y-110502991D01*
X153223448Y-110538729D01*
X153140186Y-110640186D01*
X153038729Y-110723448D01*
X153002991Y-110752778D01*
X152846466Y-110836443D01*
X152676627Y-110887963D01*
X152610443Y-110894481D01*
X152544260Y-110901000D01*
X152455740Y-110901000D01*
X152389557Y-110894481D01*
X152323373Y-110887963D01*
X152153534Y-110836443D01*
X151997009Y-110752778D01*
X151961271Y-110723448D01*
X151859814Y-110640186D01*
X151776552Y-110538729D01*
X151747222Y-110502991D01*
X151663557Y-110346466D01*
X151612037Y-110176627D01*
X151594641Y-110000000D01*
X151612037Y-109823373D01*
X151663557Y-109653534D01*
X151747222Y-109497009D01*
X151776552Y-109461271D01*
X151859814Y-109359814D01*
X151961271Y-109276552D01*
X151997009Y-109247222D01*
X152153534Y-109163557D01*
X152323373Y-109112037D01*
X152389557Y-109105519D01*
X152455740Y-109099000D01*
X152544260Y-109099000D01*
X152610443Y-109105519D01*
X152610443Y-109105519D01*
G37*
G36*
X155150443Y-109105519D02*
G01*
X155216627Y-109112037D01*
X155386466Y-109163557D01*
X155542991Y-109247222D01*
X155578729Y-109276552D01*
X155680186Y-109359814D01*
X155763448Y-109461271D01*
X155792778Y-109497009D01*
X155876443Y-109653534D01*
X155927963Y-109823373D01*
X155945359Y-110000000D01*
X155927963Y-110176627D01*
X155876443Y-110346466D01*
X155792778Y-110502991D01*
X155763448Y-110538729D01*
X155680186Y-110640186D01*
X155578729Y-110723448D01*
X155542991Y-110752778D01*
X155386466Y-110836443D01*
X155216627Y-110887963D01*
X155150443Y-110894481D01*
X155084260Y-110901000D01*
X154995740Y-110901000D01*
X154929557Y-110894481D01*
X154863373Y-110887963D01*
X154693534Y-110836443D01*
X154537009Y-110752778D01*
X154501271Y-110723448D01*
X154399814Y-110640186D01*
X154316552Y-110538729D01*
X154287222Y-110502991D01*
X154203557Y-110346466D01*
X154152037Y-110176627D01*
X154134641Y-110000000D01*
X154152037Y-109823373D01*
X154203557Y-109653534D01*
X154287222Y-109497009D01*
X154316552Y-109461271D01*
X154399814Y-109359814D01*
X154501271Y-109276552D01*
X154537009Y-109247222D01*
X154693534Y-109163557D01*
X154863373Y-109112037D01*
X154929557Y-109105519D01*
X154995740Y-109099000D01*
X155084260Y-109099000D01*
X155150443Y-109105519D01*
X155150443Y-109105519D01*
G37*
G36*
X188170443Y-109105519D02*
G01*
X188236627Y-109112037D01*
X188406466Y-109163557D01*
X188562991Y-109247222D01*
X188598729Y-109276552D01*
X188700186Y-109359814D01*
X188783448Y-109461271D01*
X188812778Y-109497009D01*
X188896443Y-109653534D01*
X188947963Y-109823373D01*
X188965359Y-110000000D01*
X188947963Y-110176627D01*
X188896443Y-110346466D01*
X188812778Y-110502991D01*
X188783448Y-110538729D01*
X188700186Y-110640186D01*
X188598729Y-110723448D01*
X188562991Y-110752778D01*
X188406466Y-110836443D01*
X188236627Y-110887963D01*
X188170443Y-110894481D01*
X188104260Y-110901000D01*
X188015740Y-110901000D01*
X187949557Y-110894481D01*
X187883373Y-110887963D01*
X187713534Y-110836443D01*
X187557009Y-110752778D01*
X187521271Y-110723448D01*
X187419814Y-110640186D01*
X187336552Y-110538729D01*
X187307222Y-110502991D01*
X187223557Y-110346466D01*
X187172037Y-110176627D01*
X187154641Y-110000000D01*
X187172037Y-109823373D01*
X187223557Y-109653534D01*
X187307222Y-109497009D01*
X187336552Y-109461271D01*
X187419814Y-109359814D01*
X187521271Y-109276552D01*
X187557009Y-109247222D01*
X187713534Y-109163557D01*
X187883373Y-109112037D01*
X187949557Y-109105519D01*
X188015740Y-109099000D01*
X188104260Y-109099000D01*
X188170443Y-109105519D01*
X188170443Y-109105519D01*
G37*
G36*
X160230443Y-109105519D02*
G01*
X160296627Y-109112037D01*
X160466466Y-109163557D01*
X160622991Y-109247222D01*
X160658729Y-109276552D01*
X160760186Y-109359814D01*
X160843448Y-109461271D01*
X160872778Y-109497009D01*
X160956443Y-109653534D01*
X161007963Y-109823373D01*
X161025359Y-110000000D01*
X161007963Y-110176627D01*
X160956443Y-110346466D01*
X160872778Y-110502991D01*
X160843448Y-110538729D01*
X160760186Y-110640186D01*
X160658729Y-110723448D01*
X160622991Y-110752778D01*
X160466466Y-110836443D01*
X160296627Y-110887963D01*
X160230443Y-110894481D01*
X160164260Y-110901000D01*
X160075740Y-110901000D01*
X160009557Y-110894481D01*
X159943373Y-110887963D01*
X159773534Y-110836443D01*
X159617009Y-110752778D01*
X159581271Y-110723448D01*
X159479814Y-110640186D01*
X159396552Y-110538729D01*
X159367222Y-110502991D01*
X159283557Y-110346466D01*
X159232037Y-110176627D01*
X159214641Y-110000000D01*
X159232037Y-109823373D01*
X159283557Y-109653534D01*
X159367222Y-109497009D01*
X159396552Y-109461271D01*
X159479814Y-109359814D01*
X159581271Y-109276552D01*
X159617009Y-109247222D01*
X159773534Y-109163557D01*
X159943373Y-109112037D01*
X160009557Y-109105519D01*
X160075740Y-109099000D01*
X160164260Y-109099000D01*
X160230443Y-109105519D01*
X160230443Y-109105519D01*
G37*
G36*
X162770443Y-109105519D02*
G01*
X162836627Y-109112037D01*
X163006466Y-109163557D01*
X163162991Y-109247222D01*
X163198729Y-109276552D01*
X163300186Y-109359814D01*
X163383448Y-109461271D01*
X163412778Y-109497009D01*
X163496443Y-109653534D01*
X163547963Y-109823373D01*
X163565359Y-110000000D01*
X163547963Y-110176627D01*
X163496443Y-110346466D01*
X163412778Y-110502991D01*
X163383448Y-110538729D01*
X163300186Y-110640186D01*
X163198729Y-110723448D01*
X163162991Y-110752778D01*
X163006466Y-110836443D01*
X162836627Y-110887963D01*
X162770443Y-110894481D01*
X162704260Y-110901000D01*
X162615740Y-110901000D01*
X162549557Y-110894481D01*
X162483373Y-110887963D01*
X162313534Y-110836443D01*
X162157009Y-110752778D01*
X162121271Y-110723448D01*
X162019814Y-110640186D01*
X161936552Y-110538729D01*
X161907222Y-110502991D01*
X161823557Y-110346466D01*
X161772037Y-110176627D01*
X161754641Y-110000000D01*
X161772037Y-109823373D01*
X161823557Y-109653534D01*
X161907222Y-109497009D01*
X161936552Y-109461271D01*
X162019814Y-109359814D01*
X162121271Y-109276552D01*
X162157009Y-109247222D01*
X162313534Y-109163557D01*
X162483373Y-109112037D01*
X162549557Y-109105519D01*
X162615740Y-109099000D01*
X162704260Y-109099000D01*
X162770443Y-109105519D01*
X162770443Y-109105519D01*
G37*
G36*
X137370443Y-109105519D02*
G01*
X137436627Y-109112037D01*
X137606466Y-109163557D01*
X137762991Y-109247222D01*
X137798729Y-109276552D01*
X137900186Y-109359814D01*
X137983448Y-109461271D01*
X138012778Y-109497009D01*
X138096443Y-109653534D01*
X138147963Y-109823373D01*
X138165359Y-110000000D01*
X138147963Y-110176627D01*
X138096443Y-110346466D01*
X138012778Y-110502991D01*
X137983448Y-110538729D01*
X137900186Y-110640186D01*
X137798729Y-110723448D01*
X137762991Y-110752778D01*
X137606466Y-110836443D01*
X137436627Y-110887963D01*
X137370443Y-110894481D01*
X137304260Y-110901000D01*
X137215740Y-110901000D01*
X137149557Y-110894481D01*
X137083373Y-110887963D01*
X136913534Y-110836443D01*
X136757009Y-110752778D01*
X136721271Y-110723448D01*
X136619814Y-110640186D01*
X136536552Y-110538729D01*
X136507222Y-110502991D01*
X136423557Y-110346466D01*
X136372037Y-110176627D01*
X136354641Y-110000000D01*
X136372037Y-109823373D01*
X136423557Y-109653534D01*
X136507222Y-109497009D01*
X136536552Y-109461271D01*
X136619814Y-109359814D01*
X136721271Y-109276552D01*
X136757009Y-109247222D01*
X136913534Y-109163557D01*
X137083373Y-109112037D01*
X137149557Y-109105519D01*
X137215740Y-109099000D01*
X137304260Y-109099000D01*
X137370443Y-109105519D01*
X137370443Y-109105519D01*
G37*
G36*
X167850443Y-109105519D02*
G01*
X167916627Y-109112037D01*
X168086466Y-109163557D01*
X168242991Y-109247222D01*
X168278729Y-109276552D01*
X168380186Y-109359814D01*
X168463448Y-109461271D01*
X168492778Y-109497009D01*
X168576443Y-109653534D01*
X168627963Y-109823373D01*
X168645359Y-110000000D01*
X168627963Y-110176627D01*
X168576443Y-110346466D01*
X168492778Y-110502991D01*
X168463448Y-110538729D01*
X168380186Y-110640186D01*
X168278729Y-110723448D01*
X168242991Y-110752778D01*
X168086466Y-110836443D01*
X167916627Y-110887963D01*
X167850443Y-110894481D01*
X167784260Y-110901000D01*
X167695740Y-110901000D01*
X167629557Y-110894481D01*
X167563373Y-110887963D01*
X167393534Y-110836443D01*
X167237009Y-110752778D01*
X167201271Y-110723448D01*
X167099814Y-110640186D01*
X167016552Y-110538729D01*
X166987222Y-110502991D01*
X166903557Y-110346466D01*
X166852037Y-110176627D01*
X166834641Y-110000000D01*
X166852037Y-109823373D01*
X166903557Y-109653534D01*
X166987222Y-109497009D01*
X167016552Y-109461271D01*
X167099814Y-109359814D01*
X167201271Y-109276552D01*
X167237009Y-109247222D01*
X167393534Y-109163557D01*
X167563373Y-109112037D01*
X167629557Y-109105519D01*
X167695740Y-109099000D01*
X167784260Y-109099000D01*
X167850443Y-109105519D01*
X167850443Y-109105519D01*
G37*
G36*
X170390443Y-109105519D02*
G01*
X170456627Y-109112037D01*
X170626466Y-109163557D01*
X170782991Y-109247222D01*
X170818729Y-109276552D01*
X170920186Y-109359814D01*
X171003448Y-109461271D01*
X171032778Y-109497009D01*
X171116443Y-109653534D01*
X171167963Y-109823373D01*
X171185359Y-110000000D01*
X171167963Y-110176627D01*
X171116443Y-110346466D01*
X171032778Y-110502991D01*
X171003448Y-110538729D01*
X170920186Y-110640186D01*
X170818729Y-110723448D01*
X170782991Y-110752778D01*
X170626466Y-110836443D01*
X170456627Y-110887963D01*
X170390443Y-110894481D01*
X170324260Y-110901000D01*
X170235740Y-110901000D01*
X170169557Y-110894481D01*
X170103373Y-110887963D01*
X169933534Y-110836443D01*
X169777009Y-110752778D01*
X169741271Y-110723448D01*
X169639814Y-110640186D01*
X169556552Y-110538729D01*
X169527222Y-110502991D01*
X169443557Y-110346466D01*
X169392037Y-110176627D01*
X169374641Y-110000000D01*
X169392037Y-109823373D01*
X169443557Y-109653534D01*
X169527222Y-109497009D01*
X169556552Y-109461271D01*
X169639814Y-109359814D01*
X169741271Y-109276552D01*
X169777009Y-109247222D01*
X169933534Y-109163557D01*
X170103373Y-109112037D01*
X170169557Y-109105519D01*
X170235740Y-109099000D01*
X170324260Y-109099000D01*
X170390443Y-109105519D01*
X170390443Y-109105519D01*
G37*
G36*
X172930443Y-109105519D02*
G01*
X172996627Y-109112037D01*
X173166466Y-109163557D01*
X173322991Y-109247222D01*
X173358729Y-109276552D01*
X173460186Y-109359814D01*
X173543448Y-109461271D01*
X173572778Y-109497009D01*
X173656443Y-109653534D01*
X173707963Y-109823373D01*
X173725359Y-110000000D01*
X173707963Y-110176627D01*
X173656443Y-110346466D01*
X173572778Y-110502991D01*
X173543448Y-110538729D01*
X173460186Y-110640186D01*
X173358729Y-110723448D01*
X173322991Y-110752778D01*
X173166466Y-110836443D01*
X172996627Y-110887963D01*
X172930443Y-110894481D01*
X172864260Y-110901000D01*
X172775740Y-110901000D01*
X172709557Y-110894481D01*
X172643373Y-110887963D01*
X172473534Y-110836443D01*
X172317009Y-110752778D01*
X172281271Y-110723448D01*
X172179814Y-110640186D01*
X172096552Y-110538729D01*
X172067222Y-110502991D01*
X171983557Y-110346466D01*
X171932037Y-110176627D01*
X171914641Y-110000000D01*
X171932037Y-109823373D01*
X171983557Y-109653534D01*
X172067222Y-109497009D01*
X172096552Y-109461271D01*
X172179814Y-109359814D01*
X172281271Y-109276552D01*
X172317009Y-109247222D01*
X172473534Y-109163557D01*
X172643373Y-109112037D01*
X172709557Y-109105519D01*
X172775740Y-109099000D01*
X172864260Y-109099000D01*
X172930443Y-109105519D01*
X172930443Y-109105519D01*
G37*
G36*
X175470443Y-109105519D02*
G01*
X175536627Y-109112037D01*
X175706466Y-109163557D01*
X175862991Y-109247222D01*
X175898729Y-109276552D01*
X176000186Y-109359814D01*
X176083448Y-109461271D01*
X176112778Y-109497009D01*
X176196443Y-109653534D01*
X176247963Y-109823373D01*
X176265359Y-110000000D01*
X176247963Y-110176627D01*
X176196443Y-110346466D01*
X176112778Y-110502991D01*
X176083448Y-110538729D01*
X176000186Y-110640186D01*
X175898729Y-110723448D01*
X175862991Y-110752778D01*
X175706466Y-110836443D01*
X175536627Y-110887963D01*
X175470443Y-110894481D01*
X175404260Y-110901000D01*
X175315740Y-110901000D01*
X175249557Y-110894481D01*
X175183373Y-110887963D01*
X175013534Y-110836443D01*
X174857009Y-110752778D01*
X174821271Y-110723448D01*
X174719814Y-110640186D01*
X174636552Y-110538729D01*
X174607222Y-110502991D01*
X174523557Y-110346466D01*
X174472037Y-110176627D01*
X174454641Y-110000000D01*
X174472037Y-109823373D01*
X174523557Y-109653534D01*
X174607222Y-109497009D01*
X174636552Y-109461271D01*
X174719814Y-109359814D01*
X174821271Y-109276552D01*
X174857009Y-109247222D01*
X175013534Y-109163557D01*
X175183373Y-109112037D01*
X175249557Y-109105519D01*
X175315740Y-109099000D01*
X175404260Y-109099000D01*
X175470443Y-109105519D01*
X175470443Y-109105519D01*
G37*
G36*
X178010443Y-109105519D02*
G01*
X178076627Y-109112037D01*
X178246466Y-109163557D01*
X178402991Y-109247222D01*
X178438729Y-109276552D01*
X178540186Y-109359814D01*
X178623448Y-109461271D01*
X178652778Y-109497009D01*
X178736443Y-109653534D01*
X178787963Y-109823373D01*
X178805359Y-110000000D01*
X178787963Y-110176627D01*
X178736443Y-110346466D01*
X178652778Y-110502991D01*
X178623448Y-110538729D01*
X178540186Y-110640186D01*
X178438729Y-110723448D01*
X178402991Y-110752778D01*
X178246466Y-110836443D01*
X178076627Y-110887963D01*
X178010443Y-110894481D01*
X177944260Y-110901000D01*
X177855740Y-110901000D01*
X177789557Y-110894481D01*
X177723373Y-110887963D01*
X177553534Y-110836443D01*
X177397009Y-110752778D01*
X177361271Y-110723448D01*
X177259814Y-110640186D01*
X177176552Y-110538729D01*
X177147222Y-110502991D01*
X177063557Y-110346466D01*
X177012037Y-110176627D01*
X176994641Y-110000000D01*
X177012037Y-109823373D01*
X177063557Y-109653534D01*
X177147222Y-109497009D01*
X177176552Y-109461271D01*
X177259814Y-109359814D01*
X177361271Y-109276552D01*
X177397009Y-109247222D01*
X177553534Y-109163557D01*
X177723373Y-109112037D01*
X177789557Y-109105519D01*
X177855740Y-109099000D01*
X177944260Y-109099000D01*
X178010443Y-109105519D01*
X178010443Y-109105519D01*
G37*
G36*
X180550443Y-109105519D02*
G01*
X180616627Y-109112037D01*
X180786466Y-109163557D01*
X180942991Y-109247222D01*
X180978729Y-109276552D01*
X181080186Y-109359814D01*
X181163448Y-109461271D01*
X181192778Y-109497009D01*
X181276443Y-109653534D01*
X181327963Y-109823373D01*
X181345359Y-110000000D01*
X181327963Y-110176627D01*
X181276443Y-110346466D01*
X181192778Y-110502991D01*
X181163448Y-110538729D01*
X181080186Y-110640186D01*
X180978729Y-110723448D01*
X180942991Y-110752778D01*
X180786466Y-110836443D01*
X180616627Y-110887963D01*
X180550443Y-110894481D01*
X180484260Y-110901000D01*
X180395740Y-110901000D01*
X180329557Y-110894481D01*
X180263373Y-110887963D01*
X180093534Y-110836443D01*
X179937009Y-110752778D01*
X179901271Y-110723448D01*
X179799814Y-110640186D01*
X179716552Y-110538729D01*
X179687222Y-110502991D01*
X179603557Y-110346466D01*
X179552037Y-110176627D01*
X179534641Y-110000000D01*
X179552037Y-109823373D01*
X179603557Y-109653534D01*
X179687222Y-109497009D01*
X179716552Y-109461271D01*
X179799814Y-109359814D01*
X179901271Y-109276552D01*
X179937009Y-109247222D01*
X180093534Y-109163557D01*
X180263373Y-109112037D01*
X180329557Y-109105519D01*
X180395740Y-109099000D01*
X180484260Y-109099000D01*
X180550443Y-109105519D01*
X180550443Y-109105519D01*
G37*
G36*
X183090443Y-109105519D02*
G01*
X183156627Y-109112037D01*
X183326466Y-109163557D01*
X183482991Y-109247222D01*
X183518729Y-109276552D01*
X183620186Y-109359814D01*
X183703448Y-109461271D01*
X183732778Y-109497009D01*
X183816443Y-109653534D01*
X183867963Y-109823373D01*
X183885359Y-110000000D01*
X183867963Y-110176627D01*
X183816443Y-110346466D01*
X183732778Y-110502991D01*
X183703448Y-110538729D01*
X183620186Y-110640186D01*
X183518729Y-110723448D01*
X183482991Y-110752778D01*
X183326466Y-110836443D01*
X183156627Y-110887963D01*
X183090443Y-110894481D01*
X183024260Y-110901000D01*
X182935740Y-110901000D01*
X182869557Y-110894481D01*
X182803373Y-110887963D01*
X182633534Y-110836443D01*
X182477009Y-110752778D01*
X182441271Y-110723448D01*
X182339814Y-110640186D01*
X182256552Y-110538729D01*
X182227222Y-110502991D01*
X182143557Y-110346466D01*
X182092037Y-110176627D01*
X182074641Y-110000000D01*
X182092037Y-109823373D01*
X182143557Y-109653534D01*
X182227222Y-109497009D01*
X182256552Y-109461271D01*
X182339814Y-109359814D01*
X182441271Y-109276552D01*
X182477009Y-109247222D01*
X182633534Y-109163557D01*
X182803373Y-109112037D01*
X182869557Y-109105519D01*
X182935740Y-109099000D01*
X183024260Y-109099000D01*
X183090443Y-109105519D01*
X183090443Y-109105519D01*
G37*
G36*
X185630443Y-109105519D02*
G01*
X185696627Y-109112037D01*
X185866466Y-109163557D01*
X186022991Y-109247222D01*
X186058729Y-109276552D01*
X186160186Y-109359814D01*
X186243448Y-109461271D01*
X186272778Y-109497009D01*
X186356443Y-109653534D01*
X186407963Y-109823373D01*
X186425359Y-110000000D01*
X186407963Y-110176627D01*
X186356443Y-110346466D01*
X186272778Y-110502991D01*
X186243448Y-110538729D01*
X186160186Y-110640186D01*
X186058729Y-110723448D01*
X186022991Y-110752778D01*
X185866466Y-110836443D01*
X185696627Y-110887963D01*
X185630443Y-110894481D01*
X185564260Y-110901000D01*
X185475740Y-110901000D01*
X185409557Y-110894481D01*
X185343373Y-110887963D01*
X185173534Y-110836443D01*
X185017009Y-110752778D01*
X184981271Y-110723448D01*
X184879814Y-110640186D01*
X184796552Y-110538729D01*
X184767222Y-110502991D01*
X184683557Y-110346466D01*
X184632037Y-110176627D01*
X184614641Y-110000000D01*
X184632037Y-109823373D01*
X184683557Y-109653534D01*
X184767222Y-109497009D01*
X184796552Y-109461271D01*
X184879814Y-109359814D01*
X184981271Y-109276552D01*
X185017009Y-109247222D01*
X185173534Y-109163557D01*
X185343373Y-109112037D01*
X185409557Y-109105519D01*
X185475740Y-109099000D01*
X185564260Y-109099000D01*
X185630443Y-109105519D01*
X185630443Y-109105519D01*
G37*
G36*
X141136822Y-95761313D02*
G01*
X141297241Y-95809976D01*
X141445077Y-95888995D01*
X141574659Y-95995341D01*
X141681004Y-96124922D01*
X141681005Y-96124924D01*
X141760024Y-96272758D01*
X141808687Y-96433177D01*
X141821000Y-96558196D01*
X141821000Y-97441803D01*
X141808687Y-97566822D01*
X141760024Y-97727242D01*
X141747325Y-97751000D01*
X141681004Y-97875078D01*
X141574659Y-98004659D01*
X141445078Y-98111004D01*
X141445076Y-98111005D01*
X141297242Y-98190024D01*
X141136823Y-98238687D01*
X140970000Y-98255117D01*
X140803178Y-98238687D01*
X140642759Y-98190024D01*
X140494925Y-98111005D01*
X140494923Y-98111004D01*
X140365342Y-98004659D01*
X140258997Y-97875078D01*
X140192676Y-97751000D01*
X140179977Y-97727242D01*
X140131314Y-97566823D01*
X140119000Y-97441803D01*
X140119000Y-96558197D01*
X140131313Y-96433178D01*
X140179976Y-96272759D01*
X140258995Y-96124923D01*
X140365341Y-95995341D01*
X140494922Y-95888996D01*
X140510094Y-95880886D01*
X140642758Y-95809976D01*
X140803177Y-95761313D01*
X140970000Y-95744883D01*
X141136822Y-95761313D01*
X141136822Y-95761313D01*
G37*
G36*
X158916822Y-95761313D02*
G01*
X159077241Y-95809976D01*
X159225077Y-95888995D01*
X159354659Y-95995341D01*
X159461004Y-96124922D01*
X159461005Y-96124924D01*
X159540024Y-96272758D01*
X159588687Y-96433177D01*
X159601000Y-96558196D01*
X159601000Y-97441803D01*
X159588687Y-97566822D01*
X159540024Y-97727242D01*
X159527325Y-97751000D01*
X159461004Y-97875078D01*
X159354659Y-98004659D01*
X159225078Y-98111004D01*
X159225076Y-98111005D01*
X159077242Y-98190024D01*
X158916823Y-98238687D01*
X158750000Y-98255117D01*
X158583178Y-98238687D01*
X158422759Y-98190024D01*
X158274925Y-98111005D01*
X158274923Y-98111004D01*
X158145342Y-98004659D01*
X158038997Y-97875078D01*
X157972676Y-97751000D01*
X157959977Y-97727242D01*
X157911314Y-97566823D01*
X157899000Y-97441803D01*
X157899000Y-96558197D01*
X157911313Y-96433178D01*
X157959976Y-96272759D01*
X158038995Y-96124923D01*
X158145341Y-95995341D01*
X158274922Y-95888996D01*
X158290094Y-95880886D01*
X158422758Y-95809976D01*
X158583177Y-95761313D01*
X158750000Y-95744883D01*
X158916822Y-95761313D01*
X158916822Y-95761313D01*
G37*
G36*
X128436822Y-95761313D02*
G01*
X128597241Y-95809976D01*
X128745077Y-95888995D01*
X128874659Y-95995341D01*
X128981004Y-96124922D01*
X128981005Y-96124924D01*
X129060024Y-96272758D01*
X129108687Y-96433177D01*
X129121000Y-96558196D01*
X129121000Y-97441803D01*
X129108687Y-97566822D01*
X129060024Y-97727242D01*
X129047325Y-97751000D01*
X128981004Y-97875078D01*
X128874659Y-98004659D01*
X128745078Y-98111004D01*
X128745076Y-98111005D01*
X128597242Y-98190024D01*
X128436823Y-98238687D01*
X128270000Y-98255117D01*
X128103178Y-98238687D01*
X127942759Y-98190024D01*
X127794925Y-98111005D01*
X127794923Y-98111004D01*
X127665342Y-98004659D01*
X127558997Y-97875078D01*
X127492676Y-97751000D01*
X127479977Y-97727242D01*
X127431314Y-97566823D01*
X127419000Y-97441803D01*
X127419000Y-96558197D01*
X127431313Y-96433178D01*
X127479976Y-96272759D01*
X127558995Y-96124923D01*
X127665341Y-95995341D01*
X127794922Y-95888996D01*
X127810094Y-95880886D01*
X127942758Y-95809976D01*
X128103177Y-95761313D01*
X128270000Y-95744883D01*
X128436822Y-95761313D01*
X128436822Y-95761313D01*
G37*
G36*
X130976822Y-95761313D02*
G01*
X131137241Y-95809976D01*
X131285077Y-95888995D01*
X131414659Y-95995341D01*
X131521004Y-96124922D01*
X131521005Y-96124924D01*
X131600024Y-96272758D01*
X131648687Y-96433177D01*
X131661000Y-96558196D01*
X131661000Y-97441803D01*
X131648687Y-97566822D01*
X131600024Y-97727242D01*
X131587325Y-97751000D01*
X131521004Y-97875078D01*
X131414659Y-98004659D01*
X131285078Y-98111004D01*
X131285076Y-98111005D01*
X131137242Y-98190024D01*
X130976823Y-98238687D01*
X130810000Y-98255117D01*
X130643178Y-98238687D01*
X130482759Y-98190024D01*
X130334925Y-98111005D01*
X130334923Y-98111004D01*
X130205342Y-98004659D01*
X130098997Y-97875078D01*
X130032676Y-97751000D01*
X130019977Y-97727242D01*
X129971314Y-97566823D01*
X129959000Y-97441803D01*
X129959000Y-96558197D01*
X129971313Y-96433178D01*
X130019976Y-96272759D01*
X130098995Y-96124923D01*
X130205341Y-95995341D01*
X130334922Y-95888996D01*
X130350094Y-95880886D01*
X130482758Y-95809976D01*
X130643177Y-95761313D01*
X130810000Y-95744883D01*
X130976822Y-95761313D01*
X130976822Y-95761313D01*
G37*
G36*
X133516822Y-95761313D02*
G01*
X133677241Y-95809976D01*
X133825077Y-95888995D01*
X133954659Y-95995341D01*
X134061004Y-96124922D01*
X134061005Y-96124924D01*
X134140024Y-96272758D01*
X134188687Y-96433177D01*
X134201000Y-96558196D01*
X134201000Y-97441803D01*
X134188687Y-97566822D01*
X134140024Y-97727242D01*
X134127325Y-97751000D01*
X134061004Y-97875078D01*
X133954659Y-98004659D01*
X133825078Y-98111004D01*
X133825076Y-98111005D01*
X133677242Y-98190024D01*
X133516823Y-98238687D01*
X133350000Y-98255117D01*
X133183178Y-98238687D01*
X133022759Y-98190024D01*
X132874925Y-98111005D01*
X132874923Y-98111004D01*
X132745342Y-98004659D01*
X132638997Y-97875078D01*
X132572676Y-97751000D01*
X132559977Y-97727242D01*
X132511314Y-97566823D01*
X132499000Y-97441803D01*
X132499000Y-96558197D01*
X132511313Y-96433178D01*
X132559976Y-96272759D01*
X132638995Y-96124923D01*
X132745341Y-95995341D01*
X132874922Y-95888996D01*
X132890094Y-95880886D01*
X133022758Y-95809976D01*
X133183177Y-95761313D01*
X133350000Y-95744883D01*
X133516822Y-95761313D01*
X133516822Y-95761313D01*
G37*
G36*
X136056822Y-95761313D02*
G01*
X136217241Y-95809976D01*
X136365077Y-95888995D01*
X136494659Y-95995341D01*
X136601004Y-96124922D01*
X136601005Y-96124924D01*
X136680024Y-96272758D01*
X136728687Y-96433177D01*
X136741000Y-96558196D01*
X136741000Y-97441803D01*
X136728687Y-97566822D01*
X136680024Y-97727242D01*
X136667325Y-97751000D01*
X136601004Y-97875078D01*
X136494659Y-98004659D01*
X136365078Y-98111004D01*
X136365076Y-98111005D01*
X136217242Y-98190024D01*
X136056823Y-98238687D01*
X135890000Y-98255117D01*
X135723178Y-98238687D01*
X135562759Y-98190024D01*
X135414925Y-98111005D01*
X135414923Y-98111004D01*
X135285342Y-98004659D01*
X135178997Y-97875078D01*
X135112676Y-97751000D01*
X135099977Y-97727242D01*
X135051314Y-97566823D01*
X135039000Y-97441803D01*
X135039000Y-96558197D01*
X135051313Y-96433178D01*
X135099976Y-96272759D01*
X135178995Y-96124923D01*
X135285341Y-95995341D01*
X135414922Y-95888996D01*
X135430094Y-95880886D01*
X135562758Y-95809976D01*
X135723177Y-95761313D01*
X135890000Y-95744883D01*
X136056822Y-95761313D01*
X136056822Y-95761313D01*
G37*
G36*
X138596822Y-95761313D02*
G01*
X138757241Y-95809976D01*
X138905077Y-95888995D01*
X139034659Y-95995341D01*
X139141004Y-96124922D01*
X139141005Y-96124924D01*
X139220024Y-96272758D01*
X139268687Y-96433177D01*
X139281000Y-96558196D01*
X139281000Y-97441803D01*
X139268687Y-97566822D01*
X139220024Y-97727242D01*
X139207325Y-97751000D01*
X139141004Y-97875078D01*
X139034659Y-98004659D01*
X138905078Y-98111004D01*
X138905076Y-98111005D01*
X138757242Y-98190024D01*
X138596823Y-98238687D01*
X138430000Y-98255117D01*
X138263178Y-98238687D01*
X138102759Y-98190024D01*
X137954925Y-98111005D01*
X137954923Y-98111004D01*
X137825342Y-98004659D01*
X137718997Y-97875078D01*
X137652676Y-97751000D01*
X137639977Y-97727242D01*
X137591314Y-97566823D01*
X137579000Y-97441803D01*
X137579000Y-96558197D01*
X137591313Y-96433178D01*
X137639976Y-96272759D01*
X137718995Y-96124923D01*
X137825341Y-95995341D01*
X137954922Y-95888996D01*
X137970094Y-95880886D01*
X138102758Y-95809976D01*
X138263177Y-95761313D01*
X138430000Y-95744883D01*
X138596822Y-95761313D01*
X138596822Y-95761313D01*
G37*
G36*
X146216822Y-95761313D02*
G01*
X146377241Y-95809976D01*
X146525077Y-95888995D01*
X146654659Y-95995341D01*
X146761004Y-96124922D01*
X146761005Y-96124924D01*
X146840024Y-96272758D01*
X146888687Y-96433177D01*
X146901000Y-96558196D01*
X146901000Y-97441803D01*
X146888687Y-97566822D01*
X146840024Y-97727242D01*
X146827325Y-97751000D01*
X146761004Y-97875078D01*
X146654659Y-98004659D01*
X146525078Y-98111004D01*
X146525076Y-98111005D01*
X146377242Y-98190024D01*
X146216823Y-98238687D01*
X146050000Y-98255117D01*
X145883178Y-98238687D01*
X145722759Y-98190024D01*
X145574925Y-98111005D01*
X145574923Y-98111004D01*
X145445342Y-98004659D01*
X145338997Y-97875078D01*
X145272676Y-97751000D01*
X145259977Y-97727242D01*
X145211314Y-97566823D01*
X145199000Y-97441803D01*
X145199000Y-96558197D01*
X145211313Y-96433178D01*
X145259976Y-96272759D01*
X145338995Y-96124923D01*
X145445341Y-95995341D01*
X145574922Y-95888996D01*
X145590094Y-95880886D01*
X145722758Y-95809976D01*
X145883177Y-95761313D01*
X146050000Y-95744883D01*
X146216822Y-95761313D01*
X146216822Y-95761313D01*
G37*
G36*
X143676822Y-95761313D02*
G01*
X143837241Y-95809976D01*
X143985077Y-95888995D01*
X144114659Y-95995341D01*
X144221004Y-96124922D01*
X144221005Y-96124924D01*
X144300024Y-96272758D01*
X144348687Y-96433177D01*
X144361000Y-96558196D01*
X144361000Y-97441803D01*
X144348687Y-97566822D01*
X144300024Y-97727242D01*
X144287325Y-97751000D01*
X144221004Y-97875078D01*
X144114659Y-98004659D01*
X143985078Y-98111004D01*
X143985076Y-98111005D01*
X143837242Y-98190024D01*
X143676823Y-98238687D01*
X143510000Y-98255117D01*
X143343178Y-98238687D01*
X143182759Y-98190024D01*
X143034925Y-98111005D01*
X143034923Y-98111004D01*
X142905342Y-98004659D01*
X142798997Y-97875078D01*
X142732676Y-97751000D01*
X142719977Y-97727242D01*
X142671314Y-97566823D01*
X142659000Y-97441803D01*
X142659000Y-96558197D01*
X142671313Y-96433178D01*
X142719976Y-96272759D01*
X142798995Y-96124923D01*
X142905341Y-95995341D01*
X143034922Y-95888996D01*
X143050094Y-95880886D01*
X143182758Y-95809976D01*
X143343177Y-95761313D01*
X143510000Y-95744883D01*
X143676822Y-95761313D01*
X143676822Y-95761313D01*
G37*
G36*
X156376822Y-95761313D02*
G01*
X156537241Y-95809976D01*
X156685077Y-95888995D01*
X156814659Y-95995341D01*
X156921004Y-96124922D01*
X156921005Y-96124924D01*
X157000024Y-96272758D01*
X157048687Y-96433177D01*
X157061000Y-96558196D01*
X157061000Y-97441803D01*
X157048687Y-97566822D01*
X157000024Y-97727242D01*
X156987325Y-97751000D01*
X156921004Y-97875078D01*
X156814659Y-98004659D01*
X156685078Y-98111004D01*
X156685076Y-98111005D01*
X156537242Y-98190024D01*
X156376823Y-98238687D01*
X156210000Y-98255117D01*
X156043178Y-98238687D01*
X155882759Y-98190024D01*
X155734925Y-98111005D01*
X155734923Y-98111004D01*
X155605342Y-98004659D01*
X155498997Y-97875078D01*
X155432676Y-97751000D01*
X155419977Y-97727242D01*
X155371314Y-97566823D01*
X155359000Y-97441803D01*
X155359000Y-96558197D01*
X155371313Y-96433178D01*
X155419976Y-96272759D01*
X155498995Y-96124923D01*
X155605341Y-95995341D01*
X155734922Y-95888996D01*
X155750094Y-95880886D01*
X155882758Y-95809976D01*
X156043177Y-95761313D01*
X156210000Y-95744883D01*
X156376822Y-95761313D01*
X156376822Y-95761313D01*
G37*
G36*
X153836822Y-95761313D02*
G01*
X153997241Y-95809976D01*
X154145077Y-95888995D01*
X154274659Y-95995341D01*
X154381004Y-96124922D01*
X154381005Y-96124924D01*
X154460024Y-96272758D01*
X154508687Y-96433177D01*
X154521000Y-96558196D01*
X154521000Y-97441803D01*
X154508687Y-97566822D01*
X154460024Y-97727242D01*
X154447325Y-97751000D01*
X154381004Y-97875078D01*
X154274659Y-98004659D01*
X154145078Y-98111004D01*
X154145076Y-98111005D01*
X153997242Y-98190024D01*
X153836823Y-98238687D01*
X153670000Y-98255117D01*
X153503178Y-98238687D01*
X153342759Y-98190024D01*
X153194925Y-98111005D01*
X153194923Y-98111004D01*
X153065342Y-98004659D01*
X152958997Y-97875078D01*
X152892676Y-97751000D01*
X152879977Y-97727242D01*
X152831314Y-97566823D01*
X152819000Y-97441803D01*
X152819000Y-96558197D01*
X152831313Y-96433178D01*
X152879976Y-96272759D01*
X152958995Y-96124923D01*
X153065341Y-95995341D01*
X153194922Y-95888996D01*
X153210094Y-95880886D01*
X153342758Y-95809976D01*
X153503177Y-95761313D01*
X153670000Y-95744883D01*
X153836822Y-95761313D01*
X153836822Y-95761313D01*
G37*
G36*
X148756822Y-95761313D02*
G01*
X148917241Y-95809976D01*
X149065077Y-95888995D01*
X149194659Y-95995341D01*
X149301004Y-96124922D01*
X149301005Y-96124924D01*
X149380024Y-96272758D01*
X149428687Y-96433177D01*
X149441000Y-96558196D01*
X149441000Y-97441803D01*
X149428687Y-97566822D01*
X149380024Y-97727242D01*
X149367325Y-97751000D01*
X149301004Y-97875078D01*
X149194659Y-98004659D01*
X149065078Y-98111004D01*
X149065076Y-98111005D01*
X148917242Y-98190024D01*
X148756823Y-98238687D01*
X148590000Y-98255117D01*
X148423178Y-98238687D01*
X148262759Y-98190024D01*
X148114925Y-98111005D01*
X148114923Y-98111004D01*
X147985342Y-98004659D01*
X147878997Y-97875078D01*
X147812676Y-97751000D01*
X147799977Y-97727242D01*
X147751314Y-97566823D01*
X147739000Y-97441803D01*
X147739000Y-96558197D01*
X147751313Y-96433178D01*
X147799976Y-96272759D01*
X147878995Y-96124923D01*
X147985341Y-95995341D01*
X148114922Y-95888996D01*
X148130094Y-95880886D01*
X148262758Y-95809976D01*
X148423177Y-95761313D01*
X148590000Y-95744883D01*
X148756822Y-95761313D01*
X148756822Y-95761313D01*
G37*
G36*
X151296822Y-95761313D02*
G01*
X151457241Y-95809976D01*
X151605077Y-95888995D01*
X151734659Y-95995341D01*
X151841004Y-96124922D01*
X151841005Y-96124924D01*
X151920024Y-96272758D01*
X151968687Y-96433177D01*
X151981000Y-96558196D01*
X151981000Y-97441803D01*
X151968687Y-97566822D01*
X151920024Y-97727242D01*
X151907325Y-97751000D01*
X151841004Y-97875078D01*
X151734659Y-98004659D01*
X151605078Y-98111004D01*
X151605076Y-98111005D01*
X151457242Y-98190024D01*
X151296823Y-98238687D01*
X151130000Y-98255117D01*
X150963178Y-98238687D01*
X150802759Y-98190024D01*
X150654925Y-98111005D01*
X150654923Y-98111004D01*
X150525342Y-98004659D01*
X150418997Y-97875078D01*
X150352676Y-97751000D01*
X150339977Y-97727242D01*
X150291314Y-97566823D01*
X150279000Y-97441803D01*
X150279000Y-96558197D01*
X150291313Y-96433178D01*
X150339976Y-96272759D01*
X150418995Y-96124923D01*
X150525341Y-95995341D01*
X150654922Y-95888996D01*
X150670094Y-95880886D01*
X150802758Y-95809976D01*
X150963177Y-95761313D01*
X151130000Y-95744883D01*
X151296822Y-95761313D01*
X151296822Y-95761313D01*
G37*
G36*
X126581000Y-98251000D02*
G01*
X124879000Y-98251000D01*
X124879000Y-95749000D01*
X126581000Y-95749000D01*
X126581000Y-98251000D01*
X126581000Y-98251000D01*
G37*
G36*
X104941822Y-95261313D02*
G01*
X105102241Y-95309976D01*
X105250077Y-95388995D01*
X105379659Y-95495341D01*
X105486004Y-95624922D01*
X105486005Y-95624924D01*
X105565024Y-95772758D01*
X105613687Y-95933177D01*
X105626000Y-96058196D01*
X105626000Y-96941803D01*
X105613687Y-97066822D01*
X105565024Y-97227242D01*
X105494114Y-97359906D01*
X105486004Y-97375078D01*
X105379659Y-97504659D01*
X105250078Y-97611004D01*
X105250076Y-97611005D01*
X105102242Y-97690024D01*
X104941823Y-97738687D01*
X104775000Y-97755117D01*
X104608178Y-97738687D01*
X104447759Y-97690024D01*
X104299925Y-97611005D01*
X104299923Y-97611004D01*
X104170342Y-97504659D01*
X104063997Y-97375078D01*
X104055887Y-97359906D01*
X103984977Y-97227242D01*
X103936314Y-97066823D01*
X103924000Y-96941803D01*
X103924000Y-96058197D01*
X103936313Y-95933178D01*
X103984976Y-95772759D01*
X104063995Y-95624923D01*
X104170341Y-95495341D01*
X104299922Y-95388996D01*
X104315094Y-95380886D01*
X104447758Y-95309976D01*
X104608177Y-95261313D01*
X104775000Y-95244883D01*
X104941822Y-95261313D01*
X104941822Y-95261313D01*
G37*
G36*
X107481822Y-95261313D02*
G01*
X107642241Y-95309976D01*
X107790077Y-95388995D01*
X107919659Y-95495341D01*
X108026004Y-95624922D01*
X108026005Y-95624924D01*
X108105024Y-95772758D01*
X108153687Y-95933177D01*
X108166000Y-96058196D01*
X108166000Y-96941803D01*
X108153687Y-97066822D01*
X108105024Y-97227242D01*
X108034114Y-97359906D01*
X108026004Y-97375078D01*
X107919659Y-97504659D01*
X107790078Y-97611004D01*
X107790076Y-97611005D01*
X107642242Y-97690024D01*
X107481823Y-97738687D01*
X107315000Y-97755117D01*
X107148178Y-97738687D01*
X106987759Y-97690024D01*
X106839925Y-97611005D01*
X106839923Y-97611004D01*
X106710342Y-97504659D01*
X106603997Y-97375078D01*
X106595887Y-97359906D01*
X106524977Y-97227242D01*
X106476314Y-97066823D01*
X106464000Y-96941803D01*
X106464000Y-96058197D01*
X106476313Y-95933178D01*
X106524976Y-95772759D01*
X106603995Y-95624923D01*
X106710341Y-95495341D01*
X106839922Y-95388996D01*
X106855094Y-95380886D01*
X106987758Y-95309976D01*
X107148177Y-95261313D01*
X107315000Y-95244883D01*
X107481822Y-95261313D01*
X107481822Y-95261313D01*
G37*
G36*
X110021822Y-95261313D02*
G01*
X110182241Y-95309976D01*
X110330077Y-95388995D01*
X110459659Y-95495341D01*
X110566004Y-95624922D01*
X110566005Y-95624924D01*
X110645024Y-95772758D01*
X110693687Y-95933177D01*
X110706000Y-96058196D01*
X110706000Y-96941803D01*
X110693687Y-97066822D01*
X110645024Y-97227242D01*
X110574114Y-97359906D01*
X110566004Y-97375078D01*
X110459659Y-97504659D01*
X110330078Y-97611004D01*
X110330076Y-97611005D01*
X110182242Y-97690024D01*
X110021823Y-97738687D01*
X109855000Y-97755117D01*
X109688178Y-97738687D01*
X109527759Y-97690024D01*
X109379925Y-97611005D01*
X109379923Y-97611004D01*
X109250342Y-97504659D01*
X109143997Y-97375078D01*
X109135887Y-97359906D01*
X109064977Y-97227242D01*
X109016314Y-97066823D01*
X109004000Y-96941803D01*
X109004000Y-96058197D01*
X109016313Y-95933178D01*
X109064976Y-95772759D01*
X109143995Y-95624923D01*
X109250341Y-95495341D01*
X109379922Y-95388996D01*
X109395094Y-95380886D01*
X109527758Y-95309976D01*
X109688177Y-95261313D01*
X109855000Y-95244883D01*
X110021822Y-95261313D01*
X110021822Y-95261313D01*
G37*
G36*
X112561822Y-95261313D02*
G01*
X112722241Y-95309976D01*
X112870077Y-95388995D01*
X112999659Y-95495341D01*
X113106004Y-95624922D01*
X113106005Y-95624924D01*
X113185024Y-95772758D01*
X113233687Y-95933177D01*
X113246000Y-96058196D01*
X113246000Y-96941803D01*
X113233687Y-97066822D01*
X113185024Y-97227242D01*
X113114114Y-97359906D01*
X113106004Y-97375078D01*
X112999659Y-97504659D01*
X112870078Y-97611004D01*
X112870076Y-97611005D01*
X112722242Y-97690024D01*
X112561823Y-97738687D01*
X112395000Y-97755117D01*
X112228178Y-97738687D01*
X112067759Y-97690024D01*
X111919925Y-97611005D01*
X111919923Y-97611004D01*
X111790342Y-97504659D01*
X111683997Y-97375078D01*
X111675887Y-97359906D01*
X111604977Y-97227242D01*
X111556314Y-97066823D01*
X111544000Y-96941803D01*
X111544000Y-96058197D01*
X111556313Y-95933178D01*
X111604976Y-95772759D01*
X111683995Y-95624923D01*
X111790341Y-95495341D01*
X111919922Y-95388996D01*
X111935094Y-95380886D01*
X112067758Y-95309976D01*
X112228177Y-95261313D01*
X112395000Y-95244883D01*
X112561822Y-95261313D01*
X112561822Y-95261313D01*
G37*
G36*
X115101822Y-95261313D02*
G01*
X115262241Y-95309976D01*
X115410077Y-95388995D01*
X115539659Y-95495341D01*
X115646004Y-95624922D01*
X115646005Y-95624924D01*
X115725024Y-95772758D01*
X115773687Y-95933177D01*
X115786000Y-96058196D01*
X115786000Y-96941803D01*
X115773687Y-97066822D01*
X115725024Y-97227242D01*
X115654114Y-97359906D01*
X115646004Y-97375078D01*
X115539659Y-97504659D01*
X115410078Y-97611004D01*
X115410076Y-97611005D01*
X115262242Y-97690024D01*
X115101823Y-97738687D01*
X114935000Y-97755117D01*
X114768178Y-97738687D01*
X114607759Y-97690024D01*
X114459925Y-97611005D01*
X114459923Y-97611004D01*
X114330342Y-97504659D01*
X114223997Y-97375078D01*
X114215887Y-97359906D01*
X114144977Y-97227242D01*
X114096314Y-97066823D01*
X114084000Y-96941803D01*
X114084000Y-96058197D01*
X114096313Y-95933178D01*
X114144976Y-95772759D01*
X114223995Y-95624923D01*
X114330341Y-95495341D01*
X114459922Y-95388996D01*
X114475094Y-95380886D01*
X114607758Y-95309976D01*
X114768177Y-95261313D01*
X114935000Y-95244883D01*
X115101822Y-95261313D01*
X115101822Y-95261313D01*
G37*
G36*
X102401822Y-95261313D02*
G01*
X102562241Y-95309976D01*
X102710077Y-95388995D01*
X102839659Y-95495341D01*
X102946004Y-95624922D01*
X102946005Y-95624924D01*
X103025024Y-95772758D01*
X103073687Y-95933177D01*
X103086000Y-96058196D01*
X103086000Y-96941803D01*
X103073687Y-97066822D01*
X103025024Y-97227242D01*
X102954114Y-97359906D01*
X102946004Y-97375078D01*
X102839659Y-97504659D01*
X102710078Y-97611004D01*
X102710076Y-97611005D01*
X102562242Y-97690024D01*
X102401823Y-97738687D01*
X102235000Y-97755117D01*
X102068178Y-97738687D01*
X101907759Y-97690024D01*
X101759925Y-97611005D01*
X101759923Y-97611004D01*
X101630342Y-97504659D01*
X101523997Y-97375078D01*
X101515887Y-97359906D01*
X101444977Y-97227242D01*
X101396314Y-97066823D01*
X101384000Y-96941803D01*
X101384000Y-96058197D01*
X101396313Y-95933178D01*
X101444976Y-95772759D01*
X101523995Y-95624923D01*
X101630341Y-95495341D01*
X101759922Y-95388996D01*
X101775094Y-95380886D01*
X101907758Y-95309976D01*
X102068177Y-95261313D01*
X102235000Y-95244883D01*
X102401822Y-95261313D01*
X102401822Y-95261313D01*
G37*
G36*
X100546000Y-97751000D02*
G01*
X98844000Y-97751000D01*
X98844000Y-95249000D01*
X100546000Y-95249000D01*
X100546000Y-97751000D01*
X100546000Y-97751000D01*
G37*
G36*
X102401822Y-87641313D02*
G01*
X102562241Y-87689976D01*
X102710077Y-87768995D01*
X102839659Y-87875341D01*
X102946004Y-88004922D01*
X102946005Y-88004924D01*
X103025024Y-88152758D01*
X103073687Y-88313177D01*
X103086000Y-88438196D01*
X103086000Y-89321803D01*
X103073687Y-89446822D01*
X103025024Y-89607242D01*
X102954114Y-89739906D01*
X102946004Y-89755078D01*
X102839659Y-89884659D01*
X102710078Y-89991004D01*
X102710076Y-89991005D01*
X102562242Y-90070024D01*
X102401823Y-90118687D01*
X102235000Y-90135117D01*
X102068178Y-90118687D01*
X101907759Y-90070024D01*
X101759925Y-89991005D01*
X101759923Y-89991004D01*
X101630342Y-89884659D01*
X101523997Y-89755078D01*
X101515887Y-89739906D01*
X101444977Y-89607242D01*
X101396314Y-89446823D01*
X101384000Y-89321803D01*
X101384000Y-88438197D01*
X101396313Y-88313178D01*
X101444976Y-88152759D01*
X101523995Y-88004923D01*
X101630341Y-87875341D01*
X101759922Y-87768996D01*
X101775094Y-87760886D01*
X101907758Y-87689976D01*
X102068177Y-87641313D01*
X102235000Y-87624883D01*
X102401822Y-87641313D01*
X102401822Y-87641313D01*
G37*
G36*
X115101822Y-87641313D02*
G01*
X115262241Y-87689976D01*
X115410077Y-87768995D01*
X115539659Y-87875341D01*
X115646004Y-88004922D01*
X115646005Y-88004924D01*
X115725024Y-88152758D01*
X115773687Y-88313177D01*
X115786000Y-88438196D01*
X115786000Y-89321803D01*
X115773687Y-89446822D01*
X115725024Y-89607242D01*
X115654114Y-89739906D01*
X115646004Y-89755078D01*
X115539659Y-89884659D01*
X115410078Y-89991004D01*
X115410076Y-89991005D01*
X115262242Y-90070024D01*
X115101823Y-90118687D01*
X114935000Y-90135117D01*
X114768178Y-90118687D01*
X114607759Y-90070024D01*
X114459925Y-89991005D01*
X114459923Y-89991004D01*
X114330342Y-89884659D01*
X114223997Y-89755078D01*
X114215887Y-89739906D01*
X114144977Y-89607242D01*
X114096314Y-89446823D01*
X114084000Y-89321803D01*
X114084000Y-88438197D01*
X114096313Y-88313178D01*
X114144976Y-88152759D01*
X114223995Y-88004923D01*
X114330341Y-87875341D01*
X114459922Y-87768996D01*
X114475094Y-87760886D01*
X114607758Y-87689976D01*
X114768177Y-87641313D01*
X114935000Y-87624883D01*
X115101822Y-87641313D01*
X115101822Y-87641313D01*
G37*
G36*
X112561822Y-87641313D02*
G01*
X112722241Y-87689976D01*
X112870077Y-87768995D01*
X112999659Y-87875341D01*
X113106004Y-88004922D01*
X113106005Y-88004924D01*
X113185024Y-88152758D01*
X113233687Y-88313177D01*
X113246000Y-88438196D01*
X113246000Y-89321803D01*
X113233687Y-89446822D01*
X113185024Y-89607242D01*
X113114114Y-89739906D01*
X113106004Y-89755078D01*
X112999659Y-89884659D01*
X112870078Y-89991004D01*
X112870076Y-89991005D01*
X112722242Y-90070024D01*
X112561823Y-90118687D01*
X112395000Y-90135117D01*
X112228178Y-90118687D01*
X112067759Y-90070024D01*
X111919925Y-89991005D01*
X111919923Y-89991004D01*
X111790342Y-89884659D01*
X111683997Y-89755078D01*
X111675887Y-89739906D01*
X111604977Y-89607242D01*
X111556314Y-89446823D01*
X111544000Y-89321803D01*
X111544000Y-88438197D01*
X111556313Y-88313178D01*
X111604976Y-88152759D01*
X111683995Y-88004923D01*
X111790341Y-87875341D01*
X111919922Y-87768996D01*
X111935094Y-87760886D01*
X112067758Y-87689976D01*
X112228177Y-87641313D01*
X112395000Y-87624883D01*
X112561822Y-87641313D01*
X112561822Y-87641313D01*
G37*
G36*
X110021822Y-87641313D02*
G01*
X110182241Y-87689976D01*
X110330077Y-87768995D01*
X110459659Y-87875341D01*
X110566004Y-88004922D01*
X110566005Y-88004924D01*
X110645024Y-88152758D01*
X110693687Y-88313177D01*
X110706000Y-88438196D01*
X110706000Y-89321803D01*
X110693687Y-89446822D01*
X110645024Y-89607242D01*
X110574114Y-89739906D01*
X110566004Y-89755078D01*
X110459659Y-89884659D01*
X110330078Y-89991004D01*
X110330076Y-89991005D01*
X110182242Y-90070024D01*
X110021823Y-90118687D01*
X109855000Y-90135117D01*
X109688178Y-90118687D01*
X109527759Y-90070024D01*
X109379925Y-89991005D01*
X109379923Y-89991004D01*
X109250342Y-89884659D01*
X109143997Y-89755078D01*
X109135887Y-89739906D01*
X109064977Y-89607242D01*
X109016314Y-89446823D01*
X109004000Y-89321803D01*
X109004000Y-88438197D01*
X109016313Y-88313178D01*
X109064976Y-88152759D01*
X109143995Y-88004923D01*
X109250341Y-87875341D01*
X109379922Y-87768996D01*
X109395094Y-87760886D01*
X109527758Y-87689976D01*
X109688177Y-87641313D01*
X109855000Y-87624883D01*
X110021822Y-87641313D01*
X110021822Y-87641313D01*
G37*
G36*
X107481822Y-87641313D02*
G01*
X107642241Y-87689976D01*
X107790077Y-87768995D01*
X107919659Y-87875341D01*
X108026004Y-88004922D01*
X108026005Y-88004924D01*
X108105024Y-88152758D01*
X108153687Y-88313177D01*
X108166000Y-88438196D01*
X108166000Y-89321803D01*
X108153687Y-89446822D01*
X108105024Y-89607242D01*
X108034114Y-89739906D01*
X108026004Y-89755078D01*
X107919659Y-89884659D01*
X107790078Y-89991004D01*
X107790076Y-89991005D01*
X107642242Y-90070024D01*
X107481823Y-90118687D01*
X107315000Y-90135117D01*
X107148178Y-90118687D01*
X106987759Y-90070024D01*
X106839925Y-89991005D01*
X106839923Y-89991004D01*
X106710342Y-89884659D01*
X106603997Y-89755078D01*
X106595887Y-89739906D01*
X106524977Y-89607242D01*
X106476314Y-89446823D01*
X106464000Y-89321803D01*
X106464000Y-88438197D01*
X106476313Y-88313178D01*
X106524976Y-88152759D01*
X106603995Y-88004923D01*
X106710341Y-87875341D01*
X106839922Y-87768996D01*
X106855094Y-87760886D01*
X106987758Y-87689976D01*
X107148177Y-87641313D01*
X107315000Y-87624883D01*
X107481822Y-87641313D01*
X107481822Y-87641313D01*
G37*
G36*
X104941822Y-87641313D02*
G01*
X105102241Y-87689976D01*
X105250077Y-87768995D01*
X105379659Y-87875341D01*
X105486004Y-88004922D01*
X105486005Y-88004924D01*
X105565024Y-88152758D01*
X105613687Y-88313177D01*
X105626000Y-88438196D01*
X105626000Y-89321803D01*
X105613687Y-89446822D01*
X105565024Y-89607242D01*
X105494114Y-89739906D01*
X105486004Y-89755078D01*
X105379659Y-89884659D01*
X105250078Y-89991004D01*
X105250076Y-89991005D01*
X105102242Y-90070024D01*
X104941823Y-90118687D01*
X104775000Y-90135117D01*
X104608178Y-90118687D01*
X104447759Y-90070024D01*
X104299925Y-89991005D01*
X104299923Y-89991004D01*
X104170342Y-89884659D01*
X104063997Y-89755078D01*
X104055887Y-89739906D01*
X103984977Y-89607242D01*
X103936314Y-89446823D01*
X103924000Y-89321803D01*
X103924000Y-88438197D01*
X103936313Y-88313178D01*
X103984976Y-88152759D01*
X104063995Y-88004923D01*
X104170341Y-87875341D01*
X104299922Y-87768996D01*
X104315094Y-87760886D01*
X104447758Y-87689976D01*
X104608177Y-87641313D01*
X104775000Y-87624883D01*
X104941822Y-87641313D01*
X104941822Y-87641313D01*
G37*
G36*
X99861822Y-87641313D02*
G01*
X100022241Y-87689976D01*
X100170077Y-87768995D01*
X100299659Y-87875341D01*
X100406004Y-88004922D01*
X100406005Y-88004924D01*
X100485024Y-88152758D01*
X100533687Y-88313177D01*
X100546000Y-88438196D01*
X100546000Y-89321803D01*
X100533687Y-89446822D01*
X100485024Y-89607242D01*
X100414114Y-89739906D01*
X100406004Y-89755078D01*
X100299659Y-89884659D01*
X100170078Y-89991004D01*
X100170076Y-89991005D01*
X100022242Y-90070024D01*
X99861823Y-90118687D01*
X99695000Y-90135117D01*
X99528178Y-90118687D01*
X99367759Y-90070024D01*
X99219925Y-89991005D01*
X99219923Y-89991004D01*
X99090342Y-89884659D01*
X98983997Y-89755078D01*
X98975887Y-89739906D01*
X98904977Y-89607242D01*
X98856314Y-89446823D01*
X98844000Y-89321803D01*
X98844000Y-88438197D01*
X98856313Y-88313178D01*
X98904976Y-88152759D01*
X98983995Y-88004923D01*
X99090341Y-87875341D01*
X99219922Y-87768996D01*
X99235094Y-87760886D01*
X99367758Y-87689976D01*
X99528177Y-87641313D01*
X99695000Y-87624883D01*
X99861822Y-87641313D01*
X99861822Y-87641313D01*
G37*
G36*
X99943228Y-84181703D02*
G01*
X100098100Y-84245853D01*
X100237481Y-84338985D01*
X100356015Y-84457519D01*
X100449147Y-84596900D01*
X100513297Y-84751772D01*
X100546000Y-84916184D01*
X100546000Y-85083816D01*
X100513297Y-85248228D01*
X100449147Y-85403100D01*
X100356015Y-85542481D01*
X100237481Y-85661015D01*
X100098100Y-85754147D01*
X99943228Y-85818297D01*
X99778816Y-85851000D01*
X99611184Y-85851000D01*
X99446772Y-85818297D01*
X99291900Y-85754147D01*
X99152519Y-85661015D01*
X99033985Y-85542481D01*
X98940853Y-85403100D01*
X98876703Y-85248228D01*
X98844000Y-85083816D01*
X98844000Y-84916184D01*
X98876703Y-84751772D01*
X98940853Y-84596900D01*
X99033985Y-84457519D01*
X99152519Y-84338985D01*
X99291900Y-84245853D01*
X99446772Y-84181703D01*
X99611184Y-84149000D01*
X99778816Y-84149000D01*
X99943228Y-84181703D01*
X99943228Y-84181703D01*
G37*
G36*
X102443228Y-84181703D02*
G01*
X102598100Y-84245853D01*
X102737481Y-84338985D01*
X102856015Y-84457519D01*
X102949147Y-84596900D01*
X103013297Y-84751772D01*
X103046000Y-84916184D01*
X103046000Y-85083816D01*
X103013297Y-85248228D01*
X102949147Y-85403100D01*
X102856015Y-85542481D01*
X102737481Y-85661015D01*
X102598100Y-85754147D01*
X102443228Y-85818297D01*
X102278816Y-85851000D01*
X102111184Y-85851000D01*
X101946772Y-85818297D01*
X101791900Y-85754147D01*
X101652519Y-85661015D01*
X101533985Y-85542481D01*
X101440853Y-85403100D01*
X101376703Y-85248228D01*
X101344000Y-85083816D01*
X101344000Y-84916184D01*
X101376703Y-84751772D01*
X101440853Y-84596900D01*
X101533985Y-84457519D01*
X101652519Y-84338985D01*
X101791900Y-84245853D01*
X101946772Y-84181703D01*
X102111184Y-84149000D01*
X102278816Y-84149000D01*
X102443228Y-84181703D01*
X102443228Y-84181703D01*
G37*
G36*
X120385442Y-82036518D02*
G01*
X120451627Y-82043037D01*
X120621466Y-82094557D01*
X120777991Y-82178222D01*
X120806721Y-82201800D01*
X120915186Y-82290814D01*
X120998448Y-82392271D01*
X121027778Y-82428009D01*
X121111443Y-82584534D01*
X121162963Y-82754373D01*
X121180359Y-82931000D01*
X121162963Y-83107627D01*
X121111443Y-83277466D01*
X121027778Y-83433991D01*
X120998448Y-83469729D01*
X120915186Y-83571186D01*
X120813729Y-83654448D01*
X120777991Y-83683778D01*
X120621466Y-83767443D01*
X120451627Y-83818963D01*
X120385442Y-83825482D01*
X120319260Y-83832000D01*
X120230740Y-83832000D01*
X120164558Y-83825482D01*
X120098373Y-83818963D01*
X119928534Y-83767443D01*
X119772009Y-83683778D01*
X119736271Y-83654448D01*
X119634814Y-83571186D01*
X119551552Y-83469729D01*
X119522222Y-83433991D01*
X119438557Y-83277466D01*
X119387037Y-83107627D01*
X119369641Y-82931000D01*
X119387037Y-82754373D01*
X119438557Y-82584534D01*
X119522222Y-82428009D01*
X119551552Y-82392271D01*
X119634814Y-82290814D01*
X119743279Y-82201800D01*
X119772009Y-82178222D01*
X119928534Y-82094557D01*
X120098373Y-82043037D01*
X120164558Y-82036518D01*
X120230740Y-82030000D01*
X120319260Y-82030000D01*
X120385442Y-82036518D01*
X120385442Y-82036518D01*
G37*
G36*
X117845442Y-82036518D02*
G01*
X117911627Y-82043037D01*
X118081466Y-82094557D01*
X118237991Y-82178222D01*
X118266721Y-82201800D01*
X118375186Y-82290814D01*
X118458448Y-82392271D01*
X118487778Y-82428009D01*
X118571443Y-82584534D01*
X118622963Y-82754373D01*
X118640359Y-82931000D01*
X118622963Y-83107627D01*
X118571443Y-83277466D01*
X118487778Y-83433991D01*
X118458448Y-83469729D01*
X118375186Y-83571186D01*
X118273729Y-83654448D01*
X118237991Y-83683778D01*
X118081466Y-83767443D01*
X117911627Y-83818963D01*
X117845442Y-83825482D01*
X117779260Y-83832000D01*
X117690740Y-83832000D01*
X117624558Y-83825482D01*
X117558373Y-83818963D01*
X117388534Y-83767443D01*
X117232009Y-83683778D01*
X117196271Y-83654448D01*
X117094814Y-83571186D01*
X117011552Y-83469729D01*
X116982222Y-83433991D01*
X116898557Y-83277466D01*
X116847037Y-83107627D01*
X116829641Y-82931000D01*
X116847037Y-82754373D01*
X116898557Y-82584534D01*
X116982222Y-82428009D01*
X117011552Y-82392271D01*
X117094814Y-82290814D01*
X117203279Y-82201800D01*
X117232009Y-82178222D01*
X117388534Y-82094557D01*
X117558373Y-82043037D01*
X117624558Y-82036518D01*
X117690740Y-82030000D01*
X117779260Y-82030000D01*
X117845442Y-82036518D01*
X117845442Y-82036518D01*
G37*
G36*
X116096000Y-83832000D02*
G01*
X114294000Y-83832000D01*
X114294000Y-82030000D01*
X116096000Y-82030000D01*
X116096000Y-83832000D01*
X116096000Y-83832000D01*
G37*
G36*
X143676822Y-80521313D02*
G01*
X143837241Y-80569976D01*
X143985077Y-80648995D01*
X144114659Y-80755341D01*
X144221004Y-80884922D01*
X144221005Y-80884924D01*
X144300024Y-81032758D01*
X144348687Y-81193177D01*
X144361000Y-81318196D01*
X144361000Y-82201803D01*
X144348687Y-82326822D01*
X144300024Y-82487242D01*
X144248021Y-82584532D01*
X144221004Y-82635078D01*
X144114659Y-82764659D01*
X143985078Y-82871004D01*
X143985076Y-82871005D01*
X143837242Y-82950024D01*
X143676823Y-82998687D01*
X143510000Y-83015117D01*
X143343178Y-82998687D01*
X143182759Y-82950024D01*
X143034925Y-82871005D01*
X143034923Y-82871004D01*
X142905342Y-82764659D01*
X142798997Y-82635078D01*
X142771980Y-82584532D01*
X142719977Y-82487242D01*
X142671314Y-82326823D01*
X142659000Y-82201803D01*
X142659000Y-81318197D01*
X142671313Y-81193178D01*
X142719976Y-81032759D01*
X142798995Y-80884923D01*
X142905341Y-80755341D01*
X143034922Y-80648996D01*
X143050094Y-80640886D01*
X143182758Y-80569976D01*
X143343177Y-80521313D01*
X143510000Y-80504883D01*
X143676822Y-80521313D01*
X143676822Y-80521313D01*
G37*
G36*
X153836822Y-80521313D02*
G01*
X153997241Y-80569976D01*
X154145077Y-80648995D01*
X154274659Y-80755341D01*
X154381004Y-80884922D01*
X154381005Y-80884924D01*
X154460024Y-81032758D01*
X154508687Y-81193177D01*
X154521000Y-81318196D01*
X154521000Y-82201803D01*
X154508687Y-82326822D01*
X154460024Y-82487242D01*
X154408021Y-82584532D01*
X154381004Y-82635078D01*
X154274659Y-82764659D01*
X154145078Y-82871004D01*
X154145076Y-82871005D01*
X153997242Y-82950024D01*
X153836823Y-82998687D01*
X153670000Y-83015117D01*
X153503178Y-82998687D01*
X153342759Y-82950024D01*
X153194925Y-82871005D01*
X153194923Y-82871004D01*
X153065342Y-82764659D01*
X152958997Y-82635078D01*
X152931980Y-82584532D01*
X152879977Y-82487242D01*
X152831314Y-82326823D01*
X152819000Y-82201803D01*
X152819000Y-81318197D01*
X152831313Y-81193178D01*
X152879976Y-81032759D01*
X152958995Y-80884923D01*
X153065341Y-80755341D01*
X153194922Y-80648996D01*
X153210094Y-80640886D01*
X153342758Y-80569976D01*
X153503177Y-80521313D01*
X153670000Y-80504883D01*
X153836822Y-80521313D01*
X153836822Y-80521313D01*
G37*
G36*
X151296822Y-80521313D02*
G01*
X151457241Y-80569976D01*
X151605077Y-80648995D01*
X151734659Y-80755341D01*
X151841004Y-80884922D01*
X151841005Y-80884924D01*
X151920024Y-81032758D01*
X151968687Y-81193177D01*
X151981000Y-81318196D01*
X151981000Y-82201803D01*
X151968687Y-82326822D01*
X151920024Y-82487242D01*
X151868021Y-82584532D01*
X151841004Y-82635078D01*
X151734659Y-82764659D01*
X151605078Y-82871004D01*
X151605076Y-82871005D01*
X151457242Y-82950024D01*
X151296823Y-82998687D01*
X151130000Y-83015117D01*
X150963178Y-82998687D01*
X150802759Y-82950024D01*
X150654925Y-82871005D01*
X150654923Y-82871004D01*
X150525342Y-82764659D01*
X150418997Y-82635078D01*
X150391980Y-82584532D01*
X150339977Y-82487242D01*
X150291314Y-82326823D01*
X150279000Y-82201803D01*
X150279000Y-81318197D01*
X150291313Y-81193178D01*
X150339976Y-81032759D01*
X150418995Y-80884923D01*
X150525341Y-80755341D01*
X150654922Y-80648996D01*
X150670094Y-80640886D01*
X150802758Y-80569976D01*
X150963177Y-80521313D01*
X151130000Y-80504883D01*
X151296822Y-80521313D01*
X151296822Y-80521313D01*
G37*
G36*
X156376822Y-80521313D02*
G01*
X156537241Y-80569976D01*
X156685077Y-80648995D01*
X156814659Y-80755341D01*
X156921004Y-80884922D01*
X156921005Y-80884924D01*
X157000024Y-81032758D01*
X157048687Y-81193177D01*
X157061000Y-81318196D01*
X157061000Y-82201803D01*
X157048687Y-82326822D01*
X157000024Y-82487242D01*
X156948021Y-82584532D01*
X156921004Y-82635078D01*
X156814659Y-82764659D01*
X156685078Y-82871004D01*
X156685076Y-82871005D01*
X156537242Y-82950024D01*
X156376823Y-82998687D01*
X156210000Y-83015117D01*
X156043178Y-82998687D01*
X155882759Y-82950024D01*
X155734925Y-82871005D01*
X155734923Y-82871004D01*
X155605342Y-82764659D01*
X155498997Y-82635078D01*
X155471980Y-82584532D01*
X155419977Y-82487242D01*
X155371314Y-82326823D01*
X155359000Y-82201803D01*
X155359000Y-81318197D01*
X155371313Y-81193178D01*
X155419976Y-81032759D01*
X155498995Y-80884923D01*
X155605341Y-80755341D01*
X155734922Y-80648996D01*
X155750094Y-80640886D01*
X155882758Y-80569976D01*
X156043177Y-80521313D01*
X156210000Y-80504883D01*
X156376822Y-80521313D01*
X156376822Y-80521313D01*
G37*
G36*
X148756822Y-80521313D02*
G01*
X148917241Y-80569976D01*
X149065077Y-80648995D01*
X149194659Y-80755341D01*
X149301004Y-80884922D01*
X149301005Y-80884924D01*
X149380024Y-81032758D01*
X149428687Y-81193177D01*
X149441000Y-81318196D01*
X149441000Y-82201803D01*
X149428687Y-82326822D01*
X149380024Y-82487242D01*
X149328021Y-82584532D01*
X149301004Y-82635078D01*
X149194659Y-82764659D01*
X149065078Y-82871004D01*
X149065076Y-82871005D01*
X148917242Y-82950024D01*
X148756823Y-82998687D01*
X148590000Y-83015117D01*
X148423178Y-82998687D01*
X148262759Y-82950024D01*
X148114925Y-82871005D01*
X148114923Y-82871004D01*
X147985342Y-82764659D01*
X147878997Y-82635078D01*
X147851980Y-82584532D01*
X147799977Y-82487242D01*
X147751314Y-82326823D01*
X147739000Y-82201803D01*
X147739000Y-81318197D01*
X147751313Y-81193178D01*
X147799976Y-81032759D01*
X147878995Y-80884923D01*
X147985341Y-80755341D01*
X148114922Y-80648996D01*
X148130094Y-80640886D01*
X148262758Y-80569976D01*
X148423177Y-80521313D01*
X148590000Y-80504883D01*
X148756822Y-80521313D01*
X148756822Y-80521313D01*
G37*
G36*
X158916822Y-80521313D02*
G01*
X159077241Y-80569976D01*
X159225077Y-80648995D01*
X159354659Y-80755341D01*
X159461004Y-80884922D01*
X159461005Y-80884924D01*
X159540024Y-81032758D01*
X159588687Y-81193177D01*
X159601000Y-81318196D01*
X159601000Y-82201803D01*
X159588687Y-82326822D01*
X159540024Y-82487242D01*
X159488021Y-82584532D01*
X159461004Y-82635078D01*
X159354659Y-82764659D01*
X159225078Y-82871004D01*
X159225076Y-82871005D01*
X159077242Y-82950024D01*
X158916823Y-82998687D01*
X158750000Y-83015117D01*
X158583178Y-82998687D01*
X158422759Y-82950024D01*
X158274925Y-82871005D01*
X158274923Y-82871004D01*
X158145342Y-82764659D01*
X158038997Y-82635078D01*
X158011980Y-82584532D01*
X157959977Y-82487242D01*
X157911314Y-82326823D01*
X157899000Y-82201803D01*
X157899000Y-81318197D01*
X157911313Y-81193178D01*
X157959976Y-81032759D01*
X158038995Y-80884923D01*
X158145341Y-80755341D01*
X158274922Y-80648996D01*
X158290094Y-80640886D01*
X158422758Y-80569976D01*
X158583177Y-80521313D01*
X158750000Y-80504883D01*
X158916822Y-80521313D01*
X158916822Y-80521313D01*
G37*
G36*
X146216822Y-80521313D02*
G01*
X146377241Y-80569976D01*
X146525077Y-80648995D01*
X146654659Y-80755341D01*
X146761004Y-80884922D01*
X146761005Y-80884924D01*
X146840024Y-81032758D01*
X146888687Y-81193177D01*
X146901000Y-81318196D01*
X146901000Y-82201803D01*
X146888687Y-82326822D01*
X146840024Y-82487242D01*
X146788021Y-82584532D01*
X146761004Y-82635078D01*
X146654659Y-82764659D01*
X146525078Y-82871004D01*
X146525076Y-82871005D01*
X146377242Y-82950024D01*
X146216823Y-82998687D01*
X146050000Y-83015117D01*
X145883178Y-82998687D01*
X145722759Y-82950024D01*
X145574925Y-82871005D01*
X145574923Y-82871004D01*
X145445342Y-82764659D01*
X145338997Y-82635078D01*
X145311980Y-82584532D01*
X145259977Y-82487242D01*
X145211314Y-82326823D01*
X145199000Y-82201803D01*
X145199000Y-81318197D01*
X145211313Y-81193178D01*
X145259976Y-81032759D01*
X145338995Y-80884923D01*
X145445341Y-80755341D01*
X145574922Y-80648996D01*
X145590094Y-80640886D01*
X145722758Y-80569976D01*
X145883177Y-80521313D01*
X146050000Y-80504883D01*
X146216822Y-80521313D01*
X146216822Y-80521313D01*
G37*
G36*
X128436822Y-80521313D02*
G01*
X128597241Y-80569976D01*
X128745077Y-80648995D01*
X128874659Y-80755341D01*
X128981004Y-80884922D01*
X128981005Y-80884924D01*
X129060024Y-81032758D01*
X129108687Y-81193177D01*
X129121000Y-81318196D01*
X129121000Y-82201803D01*
X129108687Y-82326822D01*
X129060024Y-82487242D01*
X129008021Y-82584532D01*
X128981004Y-82635078D01*
X128874659Y-82764659D01*
X128745078Y-82871004D01*
X128745076Y-82871005D01*
X128597242Y-82950024D01*
X128436823Y-82998687D01*
X128270000Y-83015117D01*
X128103178Y-82998687D01*
X127942759Y-82950024D01*
X127794925Y-82871005D01*
X127794923Y-82871004D01*
X127665342Y-82764659D01*
X127558997Y-82635078D01*
X127531980Y-82584532D01*
X127479977Y-82487242D01*
X127431314Y-82326823D01*
X127419000Y-82201803D01*
X127419000Y-81318197D01*
X127431313Y-81193178D01*
X127479976Y-81032759D01*
X127558995Y-80884923D01*
X127665341Y-80755341D01*
X127794922Y-80648996D01*
X127810094Y-80640886D01*
X127942758Y-80569976D01*
X128103177Y-80521313D01*
X128270000Y-80504883D01*
X128436822Y-80521313D01*
X128436822Y-80521313D01*
G37*
G36*
X130976822Y-80521313D02*
G01*
X131137241Y-80569976D01*
X131285077Y-80648995D01*
X131414659Y-80755341D01*
X131521004Y-80884922D01*
X131521005Y-80884924D01*
X131600024Y-81032758D01*
X131648687Y-81193177D01*
X131661000Y-81318196D01*
X131661000Y-82201803D01*
X131648687Y-82326822D01*
X131600024Y-82487242D01*
X131548021Y-82584532D01*
X131521004Y-82635078D01*
X131414659Y-82764659D01*
X131285078Y-82871004D01*
X131285076Y-82871005D01*
X131137242Y-82950024D01*
X130976823Y-82998687D01*
X130810000Y-83015117D01*
X130643178Y-82998687D01*
X130482759Y-82950024D01*
X130334925Y-82871005D01*
X130334923Y-82871004D01*
X130205342Y-82764659D01*
X130098997Y-82635078D01*
X130071980Y-82584532D01*
X130019977Y-82487242D01*
X129971314Y-82326823D01*
X129959000Y-82201803D01*
X129959000Y-81318197D01*
X129971313Y-81193178D01*
X130019976Y-81032759D01*
X130098995Y-80884923D01*
X130205341Y-80755341D01*
X130334922Y-80648996D01*
X130350094Y-80640886D01*
X130482758Y-80569976D01*
X130643177Y-80521313D01*
X130810000Y-80504883D01*
X130976822Y-80521313D01*
X130976822Y-80521313D01*
G37*
G36*
X125896822Y-80521313D02*
G01*
X126057241Y-80569976D01*
X126205077Y-80648995D01*
X126334659Y-80755341D01*
X126441004Y-80884922D01*
X126441005Y-80884924D01*
X126520024Y-81032758D01*
X126568687Y-81193177D01*
X126581000Y-81318196D01*
X126581000Y-82201803D01*
X126568687Y-82326822D01*
X126520024Y-82487242D01*
X126468021Y-82584532D01*
X126441004Y-82635078D01*
X126334659Y-82764659D01*
X126205078Y-82871004D01*
X126205076Y-82871005D01*
X126057242Y-82950024D01*
X125896823Y-82998687D01*
X125730000Y-83015117D01*
X125563178Y-82998687D01*
X125402759Y-82950024D01*
X125254925Y-82871005D01*
X125254923Y-82871004D01*
X125125342Y-82764659D01*
X125018997Y-82635078D01*
X124991980Y-82584532D01*
X124939977Y-82487242D01*
X124891314Y-82326823D01*
X124879000Y-82201803D01*
X124879000Y-81318197D01*
X124891313Y-81193178D01*
X124939976Y-81032759D01*
X125018995Y-80884923D01*
X125125341Y-80755341D01*
X125254922Y-80648996D01*
X125270094Y-80640886D01*
X125402758Y-80569976D01*
X125563177Y-80521313D01*
X125730000Y-80504883D01*
X125896822Y-80521313D01*
X125896822Y-80521313D01*
G37*
G36*
X133516822Y-80521313D02*
G01*
X133677241Y-80569976D01*
X133825077Y-80648995D01*
X133954659Y-80755341D01*
X134061004Y-80884922D01*
X134061005Y-80884924D01*
X134140024Y-81032758D01*
X134188687Y-81193177D01*
X134201000Y-81318196D01*
X134201000Y-82201803D01*
X134188687Y-82326822D01*
X134140024Y-82487242D01*
X134088021Y-82584532D01*
X134061004Y-82635078D01*
X133954659Y-82764659D01*
X133825078Y-82871004D01*
X133825076Y-82871005D01*
X133677242Y-82950024D01*
X133516823Y-82998687D01*
X133350000Y-83015117D01*
X133183178Y-82998687D01*
X133022759Y-82950024D01*
X132874925Y-82871005D01*
X132874923Y-82871004D01*
X132745342Y-82764659D01*
X132638997Y-82635078D01*
X132611980Y-82584532D01*
X132559977Y-82487242D01*
X132511314Y-82326823D01*
X132499000Y-82201803D01*
X132499000Y-81318197D01*
X132511313Y-81193178D01*
X132559976Y-81032759D01*
X132638995Y-80884923D01*
X132745341Y-80755341D01*
X132874922Y-80648996D01*
X132890094Y-80640886D01*
X133022758Y-80569976D01*
X133183177Y-80521313D01*
X133350000Y-80504883D01*
X133516822Y-80521313D01*
X133516822Y-80521313D01*
G37*
G36*
X136056822Y-80521313D02*
G01*
X136217241Y-80569976D01*
X136365077Y-80648995D01*
X136494659Y-80755341D01*
X136601004Y-80884922D01*
X136601005Y-80884924D01*
X136680024Y-81032758D01*
X136728687Y-81193177D01*
X136741000Y-81318196D01*
X136741000Y-82201803D01*
X136728687Y-82326822D01*
X136680024Y-82487242D01*
X136628021Y-82584532D01*
X136601004Y-82635078D01*
X136494659Y-82764659D01*
X136365078Y-82871004D01*
X136365076Y-82871005D01*
X136217242Y-82950024D01*
X136056823Y-82998687D01*
X135890000Y-83015117D01*
X135723178Y-82998687D01*
X135562759Y-82950024D01*
X135414925Y-82871005D01*
X135414923Y-82871004D01*
X135285342Y-82764659D01*
X135178997Y-82635078D01*
X135151980Y-82584532D01*
X135099977Y-82487242D01*
X135051314Y-82326823D01*
X135039000Y-82201803D01*
X135039000Y-81318197D01*
X135051313Y-81193178D01*
X135099976Y-81032759D01*
X135178995Y-80884923D01*
X135285341Y-80755341D01*
X135414922Y-80648996D01*
X135430094Y-80640886D01*
X135562758Y-80569976D01*
X135723177Y-80521313D01*
X135890000Y-80504883D01*
X136056822Y-80521313D01*
X136056822Y-80521313D01*
G37*
G36*
X138596822Y-80521313D02*
G01*
X138757241Y-80569976D01*
X138905077Y-80648995D01*
X139034659Y-80755341D01*
X139141004Y-80884922D01*
X139141005Y-80884924D01*
X139220024Y-81032758D01*
X139268687Y-81193177D01*
X139281000Y-81318196D01*
X139281000Y-82201803D01*
X139268687Y-82326822D01*
X139220024Y-82487242D01*
X139168021Y-82584532D01*
X139141004Y-82635078D01*
X139034659Y-82764659D01*
X138905078Y-82871004D01*
X138905076Y-82871005D01*
X138757242Y-82950024D01*
X138596823Y-82998687D01*
X138430000Y-83015117D01*
X138263178Y-82998687D01*
X138102759Y-82950024D01*
X137954925Y-82871005D01*
X137954923Y-82871004D01*
X137825342Y-82764659D01*
X137718997Y-82635078D01*
X137691980Y-82584532D01*
X137639977Y-82487242D01*
X137591314Y-82326823D01*
X137579000Y-82201803D01*
X137579000Y-81318197D01*
X137591313Y-81193178D01*
X137639976Y-81032759D01*
X137718995Y-80884923D01*
X137825341Y-80755341D01*
X137954922Y-80648996D01*
X137970094Y-80640886D01*
X138102758Y-80569976D01*
X138263177Y-80521313D01*
X138430000Y-80504883D01*
X138596822Y-80521313D01*
X138596822Y-80521313D01*
G37*
G36*
X141136822Y-80521313D02*
G01*
X141297241Y-80569976D01*
X141445077Y-80648995D01*
X141574659Y-80755341D01*
X141681004Y-80884922D01*
X141681005Y-80884924D01*
X141760024Y-81032758D01*
X141808687Y-81193177D01*
X141821000Y-81318196D01*
X141821000Y-82201803D01*
X141808687Y-82326822D01*
X141760024Y-82487242D01*
X141708021Y-82584532D01*
X141681004Y-82635078D01*
X141574659Y-82764659D01*
X141445078Y-82871004D01*
X141445076Y-82871005D01*
X141297242Y-82950024D01*
X141136823Y-82998687D01*
X140970000Y-83015117D01*
X140803178Y-82998687D01*
X140642759Y-82950024D01*
X140494925Y-82871005D01*
X140494923Y-82871004D01*
X140365342Y-82764659D01*
X140258997Y-82635078D01*
X140231980Y-82584532D01*
X140179977Y-82487242D01*
X140131314Y-82326823D01*
X140119000Y-82201803D01*
X140119000Y-81318197D01*
X140131313Y-81193178D01*
X140179976Y-81032759D01*
X140258995Y-80884923D01*
X140365341Y-80755341D01*
X140494922Y-80648996D01*
X140510094Y-80640886D01*
X140642758Y-80569976D01*
X140803177Y-80521313D01*
X140970000Y-80504883D01*
X141136822Y-80521313D01*
X141136822Y-80521313D01*
G37*
G36*
X116096000Y-80022000D02*
G01*
X114294000Y-80022000D01*
X114294000Y-78220000D01*
X116096000Y-78220000D01*
X116096000Y-80022000D01*
X116096000Y-80022000D01*
G37*
G36*
X120385442Y-78226518D02*
G01*
X120451627Y-78233037D01*
X120621466Y-78284557D01*
X120777991Y-78368222D01*
X120813729Y-78397552D01*
X120915186Y-78480814D01*
X120954882Y-78529185D01*
X121027778Y-78618009D01*
X121111443Y-78774534D01*
X121162963Y-78944373D01*
X121180359Y-79121000D01*
X121162963Y-79297627D01*
X121111443Y-79467466D01*
X121027778Y-79623991D01*
X120998448Y-79659729D01*
X120915186Y-79761186D01*
X120813729Y-79844448D01*
X120777991Y-79873778D01*
X120621466Y-79957443D01*
X120451627Y-80008963D01*
X120385443Y-80015481D01*
X120319260Y-80022000D01*
X120230740Y-80022000D01*
X120164557Y-80015481D01*
X120098373Y-80008963D01*
X119928534Y-79957443D01*
X119772009Y-79873778D01*
X119736271Y-79844448D01*
X119634814Y-79761186D01*
X119551552Y-79659729D01*
X119522222Y-79623991D01*
X119438557Y-79467466D01*
X119387037Y-79297627D01*
X119369641Y-79121000D01*
X119387037Y-78944373D01*
X119438557Y-78774534D01*
X119522222Y-78618009D01*
X119595118Y-78529185D01*
X119634814Y-78480814D01*
X119736271Y-78397552D01*
X119772009Y-78368222D01*
X119928534Y-78284557D01*
X120098373Y-78233037D01*
X120164558Y-78226518D01*
X120230740Y-78220000D01*
X120319260Y-78220000D01*
X120385442Y-78226518D01*
X120385442Y-78226518D01*
G37*
G36*
X117845442Y-78226518D02*
G01*
X117911627Y-78233037D01*
X118081466Y-78284557D01*
X118237991Y-78368222D01*
X118273729Y-78397552D01*
X118375186Y-78480814D01*
X118414882Y-78529185D01*
X118487778Y-78618009D01*
X118571443Y-78774534D01*
X118622963Y-78944373D01*
X118640359Y-79121000D01*
X118622963Y-79297627D01*
X118571443Y-79467466D01*
X118487778Y-79623991D01*
X118458448Y-79659729D01*
X118375186Y-79761186D01*
X118273729Y-79844448D01*
X118237991Y-79873778D01*
X118081466Y-79957443D01*
X117911627Y-80008963D01*
X117845443Y-80015481D01*
X117779260Y-80022000D01*
X117690740Y-80022000D01*
X117624557Y-80015481D01*
X117558373Y-80008963D01*
X117388534Y-79957443D01*
X117232009Y-79873778D01*
X117196271Y-79844448D01*
X117094814Y-79761186D01*
X117011552Y-79659729D01*
X116982222Y-79623991D01*
X116898557Y-79467466D01*
X116847037Y-79297627D01*
X116829641Y-79121000D01*
X116847037Y-78944373D01*
X116898557Y-78774534D01*
X116982222Y-78618009D01*
X117055118Y-78529185D01*
X117094814Y-78480814D01*
X117196271Y-78397552D01*
X117232009Y-78368222D01*
X117388534Y-78284557D01*
X117558373Y-78233037D01*
X117624558Y-78226518D01*
X117690740Y-78220000D01*
X117779260Y-78220000D01*
X117845442Y-78226518D01*
X117845442Y-78226518D01*
G37*
G36*
X128478228Y-77794703D02*
G01*
X128633100Y-77858853D01*
X128772481Y-77951985D01*
X128891015Y-78070519D01*
X128984147Y-78209900D01*
X129048297Y-78364772D01*
X129081000Y-78529184D01*
X129081000Y-78696816D01*
X129048297Y-78861228D01*
X128984147Y-79016100D01*
X128891015Y-79155481D01*
X128772481Y-79274015D01*
X128633100Y-79367147D01*
X128478228Y-79431297D01*
X128313816Y-79464000D01*
X128146184Y-79464000D01*
X127981772Y-79431297D01*
X127826900Y-79367147D01*
X127687519Y-79274015D01*
X127568985Y-79155481D01*
X127475853Y-79016100D01*
X127411703Y-78861228D01*
X127379000Y-78696816D01*
X127379000Y-78529184D01*
X127411703Y-78364772D01*
X127475853Y-78209900D01*
X127568985Y-78070519D01*
X127687519Y-77951985D01*
X127826900Y-77858853D01*
X127981772Y-77794703D01*
X128146184Y-77762000D01*
X128313816Y-77762000D01*
X128478228Y-77794703D01*
X128478228Y-77794703D01*
G37*
G36*
X125978228Y-77794703D02*
G01*
X126133100Y-77858853D01*
X126272481Y-77951985D01*
X126391015Y-78070519D01*
X126484147Y-78209900D01*
X126548297Y-78364772D01*
X126581000Y-78529184D01*
X126581000Y-78696816D01*
X126548297Y-78861228D01*
X126484147Y-79016100D01*
X126391015Y-79155481D01*
X126272481Y-79274015D01*
X126133100Y-79367147D01*
X125978228Y-79431297D01*
X125813816Y-79464000D01*
X125646184Y-79464000D01*
X125481772Y-79431297D01*
X125326900Y-79367147D01*
X125187519Y-79274015D01*
X125068985Y-79155481D01*
X124975853Y-79016100D01*
X124911703Y-78861228D01*
X124879000Y-78696816D01*
X124879000Y-78529184D01*
X124911703Y-78364772D01*
X124975853Y-78209900D01*
X125068985Y-78070519D01*
X125187519Y-77951985D01*
X125326900Y-77858853D01*
X125481772Y-77794703D01*
X125646184Y-77762000D01*
X125813816Y-77762000D01*
X125978228Y-77794703D01*
X125978228Y-77794703D01*
G37*
M02*
