M48
; DRILL file {KiCad (5.1.2)-2} date 14.05.2021 22:56:52
; FORMAT={-:-/ absolute / metric / decimal}
; #@! TF.CreationDate,2021-05-14T22:56:52+02:00
; #@! TF.GenerationSoftware,Kicad,Pcbnew,(5.1.2)-2
; #@! TF.FileFunction,Plated,1,2,PTH
FMAT,2
METRIC
T1C0.500
T2C0.800
T3C0.900
T4C1.000
T5C1.100
T6C1.300
T7C3.500
%
G90
G05
T1
X53.375Y-149.0
X54.144Y-147.144
X54.144Y-150.856
X56.0Y-146.375
X56.0Y-151.625
X57.856Y-147.144
X57.856Y-150.856
X58.625Y-149.0
X191.375Y-41.0
X192.144Y-39.144
X192.144Y-42.856
X194.0Y-38.375
X194.0Y-43.625
X195.856Y-39.144
X195.856Y-42.856
X196.625Y-41.0
X53.375Y-41.0
X54.144Y-39.144
X54.144Y-42.856
X56.0Y-38.375
X56.0Y-43.625
X57.856Y-39.144
X57.856Y-42.856
X58.625Y-41.0
X191.375Y-149.0
X192.144Y-147.144
X192.144Y-150.856
X194.0Y-146.375
X194.0Y-151.625
X195.856Y-147.144
X195.856Y-150.856
X196.625Y-149.0
T2
X129.413Y-86.4
X129.413Y-88.9
X76.073Y-86.4
X76.073Y-88.9
X195.834Y-121.98
X195.834Y-132.14
X147.193Y-86.4
X147.193Y-88.9
X93.853Y-86.36
X93.853Y-88.86
X54.61Y-106.045
X54.61Y-116.205
X185.968Y-70.545
X188.468Y-70.545
X60.96Y-106.045
X60.96Y-116.205
X164.973Y-86.4
X164.973Y-88.9
X189.23Y-121.92
X189.23Y-132.08
X111.633Y-86.4
X111.633Y-88.9
X182.626Y-121.92
X182.626Y-132.08
X182.753Y-86.4
X182.753Y-88.9
T3
X57.15Y-139.446
X59.69Y-139.446
T4
X88.74Y-45.72
X88.74Y-48.26
X88.74Y-50.8
X88.74Y-53.34
X88.74Y-55.88
X88.74Y-58.42
X88.74Y-60.96
X88.74Y-63.5
X88.74Y-66.04
X88.74Y-68.58
X88.74Y-71.12
X88.74Y-73.66
X88.74Y-76.2
X88.74Y-78.74
X88.74Y-81.28
X88.74Y-83.82
X88.74Y-86.36
X88.74Y-88.9
X88.74Y-91.44
X88.74Y-93.98
X88.74Y-96.52
X88.74Y-99.06
X88.74Y-101.6
X88.74Y-104.14
X88.74Y-106.68
X88.74Y-109.22
X88.74Y-111.76
X88.74Y-114.3
X88.74Y-116.84
X88.74Y-119.38
X88.74Y-121.92
X88.74Y-124.46
X88.74Y-127.0
X88.74Y-129.54
X88.74Y-132.08
X88.74Y-134.62
X88.74Y-137.16
X88.74Y-139.7
X88.74Y-142.24
X88.74Y-144.78
X106.52Y-45.72
X106.52Y-48.26
X106.52Y-50.8
X106.52Y-53.34
X106.52Y-55.88
X106.52Y-58.42
X106.52Y-60.96
X106.52Y-63.5
X106.52Y-66.04
X106.52Y-68.58
X106.52Y-71.12
X106.52Y-73.66
X106.52Y-76.2
X106.52Y-78.74
X106.52Y-81.28
X106.52Y-83.82
X106.52Y-86.36
X106.52Y-88.9
X106.52Y-91.44
X106.52Y-93.98
X106.52Y-96.52
X106.52Y-99.06
X106.52Y-101.6
X106.52Y-104.14
X106.52Y-106.68
X106.52Y-109.22
X106.52Y-111.76
X106.52Y-114.3
X106.52Y-116.84
X106.52Y-119.38
X106.52Y-121.92
X106.52Y-124.46
X106.52Y-127.0
X106.52Y-129.54
X106.52Y-132.08
X106.52Y-134.62
X106.52Y-137.16
X106.52Y-139.7
X106.52Y-142.24
X106.52Y-144.78
X70.96Y-45.72
X70.96Y-48.26
X70.96Y-50.8
X70.96Y-53.34
X70.96Y-55.88
X70.96Y-58.42
X70.96Y-60.96
X70.96Y-63.5
X70.96Y-66.04
X70.96Y-68.58
X70.96Y-71.12
X70.96Y-73.66
X70.96Y-76.2
X70.96Y-78.74
X70.96Y-81.28
X70.96Y-83.82
X70.96Y-86.36
X70.96Y-88.9
X70.96Y-91.44
X70.96Y-93.98
X70.96Y-96.52
X70.96Y-99.06
X70.96Y-101.6
X70.96Y-104.14
X70.96Y-106.68
X70.96Y-109.22
X70.96Y-111.76
X70.96Y-114.3
X70.96Y-116.84
X70.96Y-119.38
X70.96Y-121.92
X70.96Y-124.46
X70.96Y-127.0
X70.96Y-129.54
X70.96Y-132.08
X70.96Y-134.62
X70.96Y-137.16
X70.96Y-139.7
X70.96Y-142.24
X70.96Y-144.78
X159.86Y-45.72
X159.86Y-48.26
X159.86Y-50.8
X159.86Y-53.34
X159.86Y-55.88
X159.86Y-58.42
X159.86Y-60.96
X159.86Y-63.5
X159.86Y-66.04
X159.86Y-68.58
X159.86Y-71.12
X159.86Y-73.66
X159.86Y-76.2
X159.86Y-78.74
X159.86Y-81.28
X159.86Y-83.82
X159.86Y-86.36
X159.86Y-88.9
X159.86Y-91.44
X159.86Y-93.98
X159.86Y-96.52
X159.86Y-99.06
X159.86Y-101.6
X159.86Y-104.14
X159.86Y-106.68
X159.86Y-109.22
X159.86Y-111.76
X159.86Y-114.3
X159.86Y-116.84
X159.86Y-119.38
X159.86Y-121.92
X159.86Y-124.46
X159.86Y-127.0
X159.86Y-129.54
X159.86Y-132.08
X159.86Y-134.62
X159.86Y-137.16
X159.86Y-139.7
X159.86Y-142.24
X159.86Y-144.78
X177.64Y-45.72
X177.64Y-48.26
X177.64Y-50.8
X177.64Y-53.34
X177.64Y-55.88
X177.64Y-58.42
X177.64Y-60.96
X177.64Y-63.5
X177.64Y-66.04
X177.64Y-68.58
X177.64Y-71.12
X177.64Y-73.66
X177.64Y-76.2
X177.64Y-78.74
X177.64Y-81.28
X177.64Y-83.82
X177.64Y-86.36
X177.64Y-88.9
X177.64Y-91.44
X177.64Y-93.98
X177.64Y-96.52
X177.64Y-99.06
X177.64Y-101.6
X177.64Y-104.14
X177.64Y-106.68
X177.64Y-109.22
X177.64Y-111.76
X177.64Y-114.3
X177.64Y-116.84
X177.64Y-119.38
X177.64Y-121.92
X177.64Y-124.46
X177.64Y-127.0
X177.64Y-129.54
X177.64Y-132.08
X177.64Y-134.62
X177.64Y-137.16
X177.64Y-139.7
X177.64Y-142.24
X177.64Y-144.78
X194.0Y-99.3
X194.0Y-101.84
X194.0Y-104.38
X194.0Y-106.92
X194.0Y-109.46
X194.0Y-112.0
X194.0Y-88.96
X194.0Y-91.5
X124.3Y-45.72
X124.3Y-48.26
X124.3Y-50.8
X124.3Y-53.34
X124.3Y-55.88
X124.3Y-58.42
X124.3Y-60.96
X124.3Y-63.5
X124.3Y-66.04
X124.3Y-68.58
X124.3Y-71.12
X124.3Y-73.66
X124.3Y-76.2
X124.3Y-78.74
X124.3Y-81.28
X124.3Y-83.82
X124.3Y-86.36
X124.3Y-88.9
X124.3Y-91.44
X124.3Y-93.98
X124.3Y-96.52
X124.3Y-99.06
X124.3Y-101.6
X124.3Y-104.14
X124.3Y-106.68
X124.3Y-109.22
X124.3Y-111.76
X124.3Y-114.3
X124.3Y-116.84
X124.3Y-119.38
X124.3Y-121.92
X124.3Y-124.46
X124.3Y-127.0
X124.3Y-129.54
X124.3Y-132.08
X124.3Y-134.62
X124.3Y-137.16
X124.3Y-139.7
X124.3Y-142.24
X124.3Y-144.78
X142.08Y-45.72
X142.08Y-48.26
X142.08Y-50.8
X142.08Y-53.34
X142.08Y-55.88
X142.08Y-58.42
X142.08Y-60.96
X142.08Y-63.5
X142.08Y-66.04
X142.08Y-68.58
X142.08Y-71.12
X142.08Y-73.66
X142.08Y-76.2
X142.08Y-78.74
X142.08Y-81.28
X142.08Y-83.82
X142.08Y-86.36
X142.08Y-88.9
X142.08Y-91.44
X142.08Y-93.98
X142.08Y-96.52
X142.08Y-99.06
X142.08Y-101.6
X142.08Y-104.14
X142.08Y-106.68
X142.08Y-109.22
X142.08Y-111.76
X142.08Y-114.3
X142.08Y-116.84
X142.08Y-119.38
X142.08Y-121.92
X142.08Y-124.46
X142.08Y-127.0
X142.08Y-129.54
X142.08Y-132.08
X142.08Y-134.62
X142.08Y-137.16
X142.08Y-139.7
X142.08Y-142.24
X142.08Y-144.78
X194.0Y-136.966
X194.0Y-139.506
T5
X185.42Y-62.23
X195.58Y-62.23
X55.88Y-121.77
X55.88Y-128.27
X60.38Y-121.77
X60.38Y-128.27
T6
X194.056Y-82.318
X194.056Y-74.863
T7
X56.0Y-149.0
X194.0Y-41.0
X56.0Y-41.0
X194.0Y-149.0
T4
X189.103Y-54.34G85X189.103Y-52.34
G05
X193.103Y-48.64G85X191.103Y-48.64
G05
X195.103Y-54.34G85X195.103Y-52.34
G05
T0
M30
