G04 #@! TF.GenerationSoftware,KiCad,Pcbnew,(5.1.2)-2*
G04 #@! TF.CreationDate,2021-05-14T22:55:00+02:00*
G04 #@! TF.ProjectId,Backplane_V1.0,4261636b-706c-4616-9e65-5f56312e302e,rev?*
G04 #@! TF.SameCoordinates,Original*
G04 #@! TF.FileFunction,Copper,L1,Top*
G04 #@! TF.FilePolarity,Positive*
%FSLAX46Y46*%
G04 Gerber Fmt 4.6, Leading zero omitted, Abs format (unit mm)*
G04 Created by KiCad (PCBNEW (5.1.2)-2) date 2021-05-14 22:55:00*
%MOMM*%
%LPD*%
G04 APERTURE LIST*
%ADD10O,1.700000X1.700000*%
%ADD11R,1.700000X1.700000*%
%ADD12C,2.600000*%
%ADD13O,1.600000X1.600000*%
%ADD14C,1.600000*%
%ADD15C,7.000000*%
%ADD16C,0.800000*%
%ADD17C,2.000000*%
%ADD18R,3.500000X3.500000*%
%ADD19C,0.100000*%
%ADD20C,3.000000*%
%ADD21C,3.500000*%
%ADD22C,1.800000*%
%ADD23R,1.800000X1.800000*%
%ADD24O,2.200000X2.200000*%
%ADD25R,2.200000X2.200000*%
%ADD26R,1.600000X1.600000*%
%ADD27C,0.500000*%
%ADD28C,1.000000*%
G04 APERTURE END LIST*
D10*
X194000000Y-88960000D03*
D11*
X194000000Y-91500000D03*
D10*
X194000000Y-139506000D03*
D11*
X194000000Y-136966000D03*
D12*
X194056000Y-82318000D03*
X194056000Y-74863000D03*
D13*
X195834000Y-121980000D03*
D14*
X195834000Y-132140000D03*
D15*
X194000000Y-149000000D03*
D16*
X196625000Y-149000000D03*
X195856155Y-150856155D03*
X194000000Y-151625000D03*
X192143845Y-150856155D03*
X191375000Y-149000000D03*
X192143845Y-147143845D03*
X194000000Y-146375000D03*
X195856155Y-147143845D03*
D15*
X56000000Y-149000000D03*
D16*
X58625000Y-149000000D03*
X57856155Y-150856155D03*
X56000000Y-151625000D03*
X54143845Y-150856155D03*
X53375000Y-149000000D03*
X54143845Y-147143845D03*
X56000000Y-146375000D03*
X57856155Y-147143845D03*
X195856155Y-39143845D03*
X194000000Y-38375000D03*
X192143845Y-39143845D03*
X191375000Y-41000000D03*
X192143845Y-42856155D03*
X194000000Y-43625000D03*
X195856155Y-42856155D03*
X196625000Y-41000000D03*
D15*
X194000000Y-41000000D03*
D16*
X57856155Y-39143845D03*
X56000000Y-38375000D03*
X54143845Y-39143845D03*
X53375000Y-41000000D03*
X54143845Y-42856155D03*
X56000000Y-43625000D03*
X57856155Y-42856155D03*
X58625000Y-41000000D03*
D15*
X56000000Y-41000000D03*
D14*
X182753000Y-86400000D03*
X182753000Y-88900000D03*
X164973000Y-86400000D03*
X164973000Y-88900000D03*
X147193000Y-86400000D03*
X147193000Y-88900000D03*
X129413000Y-86400000D03*
X129413000Y-88900000D03*
X111633000Y-86400000D03*
X111633000Y-88900000D03*
X93853000Y-86360000D03*
X93853000Y-88860000D03*
X76073000Y-86400000D03*
X76073000Y-88900000D03*
D17*
X55880000Y-121770000D03*
X60380000Y-121770000D03*
X55880000Y-128270000D03*
X60380000Y-128270000D03*
D13*
X60960000Y-106045000D03*
D14*
X60960000Y-116205000D03*
D13*
X54610000Y-116205000D03*
D14*
X54610000Y-106045000D03*
D13*
X182626000Y-121920000D03*
D14*
X182626000Y-132080000D03*
D13*
X189230000Y-121920000D03*
D14*
X189230000Y-132080000D03*
D10*
X194000000Y-99300000D03*
X194000000Y-101840000D03*
X194000000Y-104380000D03*
X194000000Y-106920000D03*
X194000000Y-109460000D03*
D11*
X194000000Y-112000000D03*
D18*
X189103000Y-53340000D03*
D19*
G36*
X195926513Y-51593611D02*
G01*
X195999318Y-51604411D01*
X196070714Y-51622295D01*
X196140013Y-51647090D01*
X196206548Y-51678559D01*
X196269678Y-51716398D01*
X196328795Y-51760242D01*
X196383330Y-51809670D01*
X196432758Y-51864205D01*
X196476602Y-51923322D01*
X196514441Y-51986452D01*
X196545910Y-52052987D01*
X196570705Y-52122286D01*
X196588589Y-52193682D01*
X196599389Y-52266487D01*
X196603000Y-52340000D01*
X196603000Y-54340000D01*
X196599389Y-54413513D01*
X196588589Y-54486318D01*
X196570705Y-54557714D01*
X196545910Y-54627013D01*
X196514441Y-54693548D01*
X196476602Y-54756678D01*
X196432758Y-54815795D01*
X196383330Y-54870330D01*
X196328795Y-54919758D01*
X196269678Y-54963602D01*
X196206548Y-55001441D01*
X196140013Y-55032910D01*
X196070714Y-55057705D01*
X195999318Y-55075589D01*
X195926513Y-55086389D01*
X195853000Y-55090000D01*
X194353000Y-55090000D01*
X194279487Y-55086389D01*
X194206682Y-55075589D01*
X194135286Y-55057705D01*
X194065987Y-55032910D01*
X193999452Y-55001441D01*
X193936322Y-54963602D01*
X193877205Y-54919758D01*
X193822670Y-54870330D01*
X193773242Y-54815795D01*
X193729398Y-54756678D01*
X193691559Y-54693548D01*
X193660090Y-54627013D01*
X193635295Y-54557714D01*
X193617411Y-54486318D01*
X193606611Y-54413513D01*
X193603000Y-54340000D01*
X193603000Y-52340000D01*
X193606611Y-52266487D01*
X193617411Y-52193682D01*
X193635295Y-52122286D01*
X193660090Y-52052987D01*
X193691559Y-51986452D01*
X193729398Y-51923322D01*
X193773242Y-51864205D01*
X193822670Y-51809670D01*
X193877205Y-51760242D01*
X193936322Y-51716398D01*
X193999452Y-51678559D01*
X194065987Y-51647090D01*
X194135286Y-51622295D01*
X194206682Y-51604411D01*
X194279487Y-51593611D01*
X194353000Y-51590000D01*
X195853000Y-51590000D01*
X195926513Y-51593611D01*
X195926513Y-51593611D01*
G37*
D20*
X195103000Y-53340000D03*
D19*
G36*
X193063765Y-46894213D02*
G01*
X193148704Y-46906813D01*
X193231999Y-46927677D01*
X193312848Y-46956605D01*
X193390472Y-46993319D01*
X193464124Y-47037464D01*
X193533094Y-47088616D01*
X193596718Y-47146282D01*
X193654384Y-47209906D01*
X193705536Y-47278876D01*
X193749681Y-47352528D01*
X193786395Y-47430152D01*
X193815323Y-47511001D01*
X193836187Y-47594296D01*
X193848787Y-47679235D01*
X193853000Y-47765000D01*
X193853000Y-49515000D01*
X193848787Y-49600765D01*
X193836187Y-49685704D01*
X193815323Y-49768999D01*
X193786395Y-49849848D01*
X193749681Y-49927472D01*
X193705536Y-50001124D01*
X193654384Y-50070094D01*
X193596718Y-50133718D01*
X193533094Y-50191384D01*
X193464124Y-50242536D01*
X193390472Y-50286681D01*
X193312848Y-50323395D01*
X193231999Y-50352323D01*
X193148704Y-50373187D01*
X193063765Y-50385787D01*
X192978000Y-50390000D01*
X191228000Y-50390000D01*
X191142235Y-50385787D01*
X191057296Y-50373187D01*
X190974001Y-50352323D01*
X190893152Y-50323395D01*
X190815528Y-50286681D01*
X190741876Y-50242536D01*
X190672906Y-50191384D01*
X190609282Y-50133718D01*
X190551616Y-50070094D01*
X190500464Y-50001124D01*
X190456319Y-49927472D01*
X190419605Y-49849848D01*
X190390677Y-49768999D01*
X190369813Y-49685704D01*
X190357213Y-49600765D01*
X190353000Y-49515000D01*
X190353000Y-47765000D01*
X190357213Y-47679235D01*
X190369813Y-47594296D01*
X190390677Y-47511001D01*
X190419605Y-47430152D01*
X190456319Y-47352528D01*
X190500464Y-47278876D01*
X190551616Y-47209906D01*
X190609282Y-47146282D01*
X190672906Y-47088616D01*
X190741876Y-47037464D01*
X190815528Y-46993319D01*
X190893152Y-46956605D01*
X190974001Y-46927677D01*
X191057296Y-46906813D01*
X191142235Y-46894213D01*
X191228000Y-46890000D01*
X192978000Y-46890000D01*
X193063765Y-46894213D01*
X193063765Y-46894213D01*
G37*
D21*
X192103000Y-48640000D03*
D22*
X57150000Y-139446000D03*
D23*
X59690000Y-139446000D03*
D24*
X185420000Y-62230000D03*
D25*
X195580000Y-62230000D03*
D14*
X185968000Y-70545000D03*
D26*
X188468000Y-70545000D03*
D10*
X177640000Y-144780000D03*
X177640000Y-142240000D03*
X177640000Y-139700000D03*
X177640000Y-137160000D03*
X177640000Y-134620000D03*
X177640000Y-132080000D03*
X177640000Y-129540000D03*
X177640000Y-127000000D03*
X177640000Y-124460000D03*
X177640000Y-121920000D03*
X177640000Y-119380000D03*
X177640000Y-116840000D03*
X177640000Y-114300000D03*
X177640000Y-111760000D03*
X177640000Y-109220000D03*
X177640000Y-106680000D03*
X177640000Y-104140000D03*
X177640000Y-101600000D03*
X177640000Y-99060000D03*
X177640000Y-96520000D03*
X177640000Y-93980000D03*
X177640000Y-91440000D03*
X177640000Y-88900000D03*
X177640000Y-86360000D03*
X177640000Y-83820000D03*
X177640000Y-81280000D03*
X177640000Y-78740000D03*
X177640000Y-76200000D03*
X177640000Y-73660000D03*
X177640000Y-71120000D03*
X177640000Y-68580000D03*
X177640000Y-66040000D03*
X177640000Y-63500000D03*
X177640000Y-60960000D03*
X177640000Y-58420000D03*
X177640000Y-55880000D03*
X177640000Y-53340000D03*
X177640000Y-50800000D03*
X177640000Y-48260000D03*
D11*
X177640000Y-45720000D03*
D10*
X159860000Y-144780000D03*
X159860000Y-142240000D03*
X159860000Y-139700000D03*
X159860000Y-137160000D03*
X159860000Y-134620000D03*
X159860000Y-132080000D03*
X159860000Y-129540000D03*
X159860000Y-127000000D03*
X159860000Y-124460000D03*
X159860000Y-121920000D03*
X159860000Y-119380000D03*
X159860000Y-116840000D03*
X159860000Y-114300000D03*
X159860000Y-111760000D03*
X159860000Y-109220000D03*
X159860000Y-106680000D03*
X159860000Y-104140000D03*
X159860000Y-101600000D03*
X159860000Y-99060000D03*
X159860000Y-96520000D03*
X159860000Y-93980000D03*
X159860000Y-91440000D03*
X159860000Y-88900000D03*
X159860000Y-86360000D03*
X159860000Y-83820000D03*
X159860000Y-81280000D03*
X159860000Y-78740000D03*
X159860000Y-76200000D03*
X159860000Y-73660000D03*
X159860000Y-71120000D03*
X159860000Y-68580000D03*
X159860000Y-66040000D03*
X159860000Y-63500000D03*
X159860000Y-60960000D03*
X159860000Y-58420000D03*
X159860000Y-55880000D03*
X159860000Y-53340000D03*
X159860000Y-50800000D03*
X159860000Y-48260000D03*
D11*
X159860000Y-45720000D03*
D10*
X142080000Y-144780000D03*
X142080000Y-142240000D03*
X142080000Y-139700000D03*
X142080000Y-137160000D03*
X142080000Y-134620000D03*
X142080000Y-132080000D03*
X142080000Y-129540000D03*
X142080000Y-127000000D03*
X142080000Y-124460000D03*
X142080000Y-121920000D03*
X142080000Y-119380000D03*
X142080000Y-116840000D03*
X142080000Y-114300000D03*
X142080000Y-111760000D03*
X142080000Y-109220000D03*
X142080000Y-106680000D03*
X142080000Y-104140000D03*
X142080000Y-101600000D03*
X142080000Y-99060000D03*
X142080000Y-96520000D03*
X142080000Y-93980000D03*
X142080000Y-91440000D03*
X142080000Y-88900000D03*
X142080000Y-86360000D03*
X142080000Y-83820000D03*
X142080000Y-81280000D03*
X142080000Y-78740000D03*
X142080000Y-76200000D03*
X142080000Y-73660000D03*
X142080000Y-71120000D03*
X142080000Y-68580000D03*
X142080000Y-66040000D03*
X142080000Y-63500000D03*
X142080000Y-60960000D03*
X142080000Y-58420000D03*
X142080000Y-55880000D03*
X142080000Y-53340000D03*
X142080000Y-50800000D03*
X142080000Y-48260000D03*
D11*
X142080000Y-45720000D03*
D10*
X124300000Y-144780000D03*
X124300000Y-142240000D03*
X124300000Y-139700000D03*
X124300000Y-137160000D03*
X124300000Y-134620000D03*
X124300000Y-132080000D03*
X124300000Y-129540000D03*
X124300000Y-127000000D03*
X124300000Y-124460000D03*
X124300000Y-121920000D03*
X124300000Y-119380000D03*
X124300000Y-116840000D03*
X124300000Y-114300000D03*
X124300000Y-111760000D03*
X124300000Y-109220000D03*
X124300000Y-106680000D03*
X124300000Y-104140000D03*
X124300000Y-101600000D03*
X124300000Y-99060000D03*
X124300000Y-96520000D03*
X124300000Y-93980000D03*
X124300000Y-91440000D03*
X124300000Y-88900000D03*
X124300000Y-86360000D03*
X124300000Y-83820000D03*
X124300000Y-81280000D03*
X124300000Y-78740000D03*
X124300000Y-76200000D03*
X124300000Y-73660000D03*
X124300000Y-71120000D03*
X124300000Y-68580000D03*
X124300000Y-66040000D03*
X124300000Y-63500000D03*
X124300000Y-60960000D03*
X124300000Y-58420000D03*
X124300000Y-55880000D03*
X124300000Y-53340000D03*
X124300000Y-50800000D03*
X124300000Y-48260000D03*
D11*
X124300000Y-45720000D03*
D10*
X106520000Y-144780000D03*
X106520000Y-142240000D03*
X106520000Y-139700000D03*
X106520000Y-137160000D03*
X106520000Y-134620000D03*
X106520000Y-132080000D03*
X106520000Y-129540000D03*
X106520000Y-127000000D03*
X106520000Y-124460000D03*
X106520000Y-121920000D03*
X106520000Y-119380000D03*
X106520000Y-116840000D03*
X106520000Y-114300000D03*
X106520000Y-111760000D03*
X106520000Y-109220000D03*
X106520000Y-106680000D03*
X106520000Y-104140000D03*
X106520000Y-101600000D03*
X106520000Y-99060000D03*
X106520000Y-96520000D03*
X106520000Y-93980000D03*
X106520000Y-91440000D03*
X106520000Y-88900000D03*
X106520000Y-86360000D03*
X106520000Y-83820000D03*
X106520000Y-81280000D03*
X106520000Y-78740000D03*
X106520000Y-76200000D03*
X106520000Y-73660000D03*
X106520000Y-71120000D03*
X106520000Y-68580000D03*
X106520000Y-66040000D03*
X106520000Y-63500000D03*
X106520000Y-60960000D03*
X106520000Y-58420000D03*
X106520000Y-55880000D03*
X106520000Y-53340000D03*
X106520000Y-50800000D03*
X106520000Y-48260000D03*
D11*
X106520000Y-45720000D03*
D10*
X88740000Y-144780000D03*
X88740000Y-142240000D03*
X88740000Y-139700000D03*
X88740000Y-137160000D03*
X88740000Y-134620000D03*
X88740000Y-132080000D03*
X88740000Y-129540000D03*
X88740000Y-127000000D03*
X88740000Y-124460000D03*
X88740000Y-121920000D03*
X88740000Y-119380000D03*
X88740000Y-116840000D03*
X88740000Y-114300000D03*
X88740000Y-111760000D03*
X88740000Y-109220000D03*
X88740000Y-106680000D03*
X88740000Y-104140000D03*
X88740000Y-101600000D03*
X88740000Y-99060000D03*
X88740000Y-96520000D03*
X88740000Y-93980000D03*
X88740000Y-91440000D03*
X88740000Y-88900000D03*
X88740000Y-86360000D03*
X88740000Y-83820000D03*
X88740000Y-81280000D03*
X88740000Y-78740000D03*
X88740000Y-76200000D03*
X88740000Y-73660000D03*
X88740000Y-71120000D03*
X88740000Y-68580000D03*
X88740000Y-66040000D03*
X88740000Y-63500000D03*
X88740000Y-60960000D03*
X88740000Y-58420000D03*
X88740000Y-55880000D03*
X88740000Y-53340000D03*
X88740000Y-50800000D03*
X88740000Y-48260000D03*
D11*
X88740000Y-45720000D03*
D10*
X70960000Y-144780000D03*
X70960000Y-142240000D03*
X70960000Y-139700000D03*
X70960000Y-137160000D03*
X70960000Y-134620000D03*
X70960000Y-132080000D03*
X70960000Y-129540000D03*
X70960000Y-127000000D03*
X70960000Y-124460000D03*
X70960000Y-121920000D03*
X70960000Y-119380000D03*
X70960000Y-116840000D03*
X70960000Y-114300000D03*
X70960000Y-111760000D03*
X70960000Y-109220000D03*
X70960000Y-106680000D03*
X70960000Y-104140000D03*
X70960000Y-101600000D03*
X70960000Y-99060000D03*
X70960000Y-96520000D03*
X70960000Y-93980000D03*
X70960000Y-91440000D03*
X70960000Y-88900000D03*
X70960000Y-86360000D03*
X70960000Y-83820000D03*
X70960000Y-81280000D03*
X70960000Y-78740000D03*
X70960000Y-76200000D03*
X70960000Y-73660000D03*
X70960000Y-71120000D03*
X70960000Y-68580000D03*
X70960000Y-66040000D03*
X70960000Y-63500000D03*
X70960000Y-60960000D03*
X70960000Y-58420000D03*
X70960000Y-55880000D03*
X70960000Y-53340000D03*
X70960000Y-50800000D03*
X70960000Y-48260000D03*
D11*
X70960000Y-45720000D03*
D27*
X70960000Y-144780000D02*
X177640000Y-144780000D01*
X70960000Y-142240000D02*
X177640000Y-142240000D01*
X70960000Y-139700000D02*
X177640000Y-139700000D01*
X70960000Y-137160000D02*
X177640000Y-137160000D01*
X184778000Y-139506000D02*
X182432000Y-137160000D01*
X177640000Y-137160000D02*
X182432000Y-137160000D01*
X184778000Y-139506000D02*
X194000000Y-139506000D01*
X70960000Y-134620000D02*
X177640000Y-134620000D01*
X186690000Y-134620000D02*
X177640000Y-134620000D01*
X189230000Y-132080000D02*
X186690000Y-134620000D01*
X70960000Y-132080000D02*
X177640000Y-132080000D01*
X182626000Y-132080000D02*
X177640000Y-132080000D01*
X70960000Y-129540000D02*
X177640000Y-129540000D01*
X70960000Y-127000000D02*
X177640000Y-127000000D01*
X70960000Y-124460000D02*
X177640000Y-124460000D01*
X70960000Y-121920000D02*
X177640000Y-121920000D01*
X70960000Y-119380000D02*
X177640000Y-119380000D01*
X70960000Y-116840000D02*
X177640000Y-116840000D01*
X70960000Y-114300000D02*
X177640000Y-114300000D01*
X70960000Y-111760000D02*
X177640000Y-111760000D01*
X70960000Y-109220000D02*
X177640000Y-109220000D01*
X70960000Y-106680000D02*
X177640000Y-106680000D01*
X70960000Y-104140000D02*
X177640000Y-104140000D01*
X70960000Y-101600000D02*
X177640000Y-101600000D01*
X70960000Y-99060000D02*
X177640000Y-99060000D01*
X70960000Y-96520000D02*
X177640000Y-96520000D01*
X70960000Y-93980000D02*
X177640000Y-93980000D01*
X70960000Y-91440000D02*
X177640000Y-91440000D01*
D28*
X70960000Y-88900000D02*
X177640000Y-88900000D01*
X184150000Y-88900000D02*
X177640000Y-88900000D01*
X195580000Y-65510000D02*
X195580000Y-62230000D01*
X195580000Y-59817000D02*
X189103000Y-53340000D01*
X195580000Y-62230000D02*
X195580000Y-59817000D01*
X182813000Y-88960000D02*
X182753000Y-88900000D01*
X190545000Y-70545000D02*
X188468000Y-70545000D01*
X194015000Y-67075000D02*
X194056000Y-67116000D01*
X194015000Y-67075000D02*
X190545000Y-70545000D01*
X195580000Y-65510000D02*
X194015000Y-67075000D01*
X188468000Y-72345000D02*
X188468000Y-88960000D01*
X188468000Y-70545000D02*
X188468000Y-72345000D01*
X194000000Y-88960000D02*
X188468000Y-88960000D01*
X188468000Y-88960000D02*
X182813000Y-88960000D01*
X190545000Y-70545000D02*
X191008000Y-70545000D01*
X191008000Y-70545000D02*
X193802000Y-73339000D01*
X193802000Y-74609000D02*
X194056000Y-74863000D01*
X193802000Y-73339000D02*
X193802000Y-74609000D01*
X60960000Y-91754000D02*
X60960000Y-106045000D01*
X70960000Y-88900000D02*
X63814000Y-88900000D01*
X63814000Y-88900000D02*
X60960000Y-91754000D01*
X60960000Y-106045000D02*
X54610000Y-106045000D01*
D27*
X60380000Y-138756000D02*
X59690000Y-139446000D01*
X70960000Y-83820000D02*
X177640000Y-83820000D01*
X70960000Y-81280000D02*
X177640000Y-81280000D01*
X70960000Y-78740000D02*
X177640000Y-78740000D01*
X70960000Y-76200000D02*
X177640000Y-76200000D01*
X70960000Y-73660000D02*
X177640000Y-73660000D01*
X70960000Y-71120000D02*
X177640000Y-71120000D01*
X70960000Y-68580000D02*
X177640000Y-68580000D01*
X70960000Y-66040000D02*
X177640000Y-66040000D01*
X70960000Y-63500000D02*
X177640000Y-63500000D01*
X70960000Y-60960000D02*
X177640000Y-60960000D01*
X70960000Y-58420000D02*
X177640000Y-58420000D01*
X70960000Y-55880000D02*
X177640000Y-55880000D01*
X70960000Y-53340000D02*
X177640000Y-53340000D01*
X70960000Y-50800000D02*
X177640000Y-50800000D01*
X176437919Y-48260000D02*
X177640000Y-48260000D01*
X70960000Y-48260000D02*
X176437919Y-48260000D01*
X70960000Y-45720000D02*
X177640000Y-45720000D01*
X53810001Y-117004999D02*
X53743001Y-117004999D01*
X54610000Y-116205000D02*
X53810001Y-117004999D01*
X53743001Y-117004999D02*
X52832000Y-117916000D01*
X52832000Y-135128000D02*
X57150000Y-139446000D01*
X52832000Y-117916000D02*
X52832000Y-135128000D01*
X55880000Y-128270000D02*
X55880000Y-121770000D01*
X55880000Y-120650000D02*
X55880000Y-121770000D01*
X55880000Y-121285000D02*
X55880000Y-121770000D01*
X60960000Y-116205000D02*
X55880000Y-121285000D01*
X70960000Y-93980000D02*
X67370000Y-93980000D01*
X67370000Y-93980000D02*
X64770000Y-96580000D01*
X64770000Y-112395000D02*
X60960000Y-116205000D01*
X64770000Y-96580000D02*
X64770000Y-112395000D01*
X194000000Y-133974000D02*
X194000000Y-136966000D01*
X195834000Y-132140000D02*
X194000000Y-133974000D01*
X194000000Y-101840000D02*
X192797919Y-101840000D01*
X182626000Y-112011919D02*
X182626000Y-121920000D01*
X192797919Y-101840000D02*
X182626000Y-112011919D01*
X189230000Y-120788630D02*
X189230000Y-121920000D01*
X189230000Y-107947919D02*
X189230000Y-120788630D01*
X192797919Y-104380000D02*
X189230000Y-107947919D01*
X194000000Y-104380000D02*
X192797919Y-104380000D01*
D28*
X194000000Y-106920000D02*
X195340000Y-106920000D01*
X195340000Y-106920000D02*
X196850000Y-105410000D01*
X196850000Y-105410000D02*
X196850000Y-95818000D01*
X196850000Y-95818000D02*
X196850000Y-95250000D01*
X195850000Y-91500000D02*
X194000000Y-91500000D01*
X196850000Y-92500000D02*
X195850000Y-91500000D01*
X196850000Y-95818000D02*
X196850000Y-92500000D01*
D27*
X195202081Y-109460000D02*
X195784081Y-110042000D01*
X194000000Y-109460000D02*
X195202081Y-109460000D01*
X195784081Y-110042000D02*
X195834000Y-110042000D01*
X195834000Y-110091919D02*
X195834000Y-121980000D01*
X195784081Y-110042000D02*
X195834000Y-110091919D01*
M02*
