M48
; DRILL file {KiCad 8.0.3} date 2024-07-14T21:47:26+0200
; FORMAT={-:-/ absolute / inch / decimal}
; #@! TF.CreationDate,2024-07-14T21:47:26+02:00
; #@! TF.GenerationSoftware,Kicad,Pcbnew,8.0.3
; #@! TF.FileFunction,Plated,1,2,PTH
FMAT,2
INCH
; #@! TA.AperFunction,Plated,PTH,ViaDrill
T1C0.0157
; #@! TA.AperFunction,Plated,PTH,ComponentDrill
T2C0.0315
; #@! TA.AperFunction,Plated,PTH,ComponentDrill
T3C0.0354
; #@! TA.AperFunction,Plated,PTH,ComponentDrill
T4C0.0394
; #@! TA.AperFunction,Plated,PTH,ComponentDrill
T5C0.0433
; #@! TA.AperFunction,Plated,PTH,ComponentDrill
T6C0.1260
%
G90
G05
T1
X4.4875Y-3.7125
X5.35Y-3.2035
X5.35Y-3.275
X5.35Y-3.325
X5.35Y-3.825
X5.525Y-4.0
X5.75Y-3.375
X5.75Y-3.575
X5.975Y-2.85
X6.075Y-3.25
X6.125Y-2.425
X6.14Y-2.675
X6.7Y-3.5
X6.75Y-3.65
X6.8215Y-3.7
X6.85Y-3.75
X7.45Y-2.84
X7.55Y-2.65
X7.55Y-2.72
T2
X3.575Y-3.275
X3.575Y-3.675
X3.7244Y-2.9756
X3.7244Y-3.0756
X3.7244Y-3.1756
X3.7244Y-3.2756
X3.7244Y-3.3756
X3.7244Y-3.4756
X3.7244Y-3.5756
X3.7244Y-3.6756
X4.0244Y-2.9756
X4.0244Y-3.0756
X4.0244Y-3.1756
X4.0244Y-3.2756
X4.0244Y-3.3756
X4.0244Y-3.4756
X4.0244Y-3.5756
X4.0244Y-3.6756
X4.025Y-2.825
X4.1234Y-2.825
X4.3Y-3.925
X4.3Y-4.225
X4.4Y-3.925
X4.4Y-4.225
X4.5Y-3.925
X4.5Y-4.225
X4.6Y-2.925
X4.6Y-3.05
X4.6Y-3.175
X4.6Y-3.3
X4.6Y-3.425
X4.6Y-3.55
X4.6Y-3.675
X4.6Y-3.8
X4.6Y-3.925
X4.6Y-4.225
X4.7Y-3.925
X4.7Y-4.225
X4.8Y-3.925
X4.8Y-4.225
X5.0Y-2.925
X5.0Y-3.05
X5.0Y-3.175
X5.0Y-3.3
X5.0Y-3.425
X5.0Y-3.55
X5.0Y-3.675
X5.0Y-3.8
X5.15Y-3.125
X5.15Y-3.225
X5.15Y-3.325
X5.15Y-3.425
X5.15Y-3.525
X5.15Y-3.625
X5.15Y-3.725
X5.15Y-3.825
X5.15Y-3.925
X5.15Y-4.025
X5.45Y-3.125
X5.45Y-3.225
X5.45Y-3.325
X5.45Y-3.425
X5.45Y-3.525
X5.45Y-3.625
X5.45Y-3.725
X5.45Y-3.825
X5.45Y-3.925
X5.45Y-4.025
X5.4508Y-2.975
X5.5492Y-2.975
X5.9Y-3.125
X5.9Y-3.225
X5.9Y-3.325
X5.9Y-3.425
X5.9Y-3.525
X5.9Y-3.625
X5.9Y-3.725
X5.9Y-3.825
X5.9Y-3.925
X5.9Y-4.025
X6.2Y-2.975
X6.2Y-3.125
X6.2Y-3.225
X6.2Y-3.325
X6.2Y-3.425
X6.2Y-3.525
X6.2Y-3.625
X6.2Y-3.725
X6.2Y-3.825
X6.2Y-3.925
X6.2Y-4.025
X6.2984Y-2.975
X6.575Y-3.125
X6.575Y-3.25
X6.575Y-3.375
X6.575Y-3.5
X6.575Y-3.625
X6.575Y-3.75
X6.575Y-3.875
X6.575Y-4.0
X6.975Y-3.125
X6.975Y-3.25
X6.975Y-3.375
X6.975Y-3.5
X6.975Y-3.625
X6.975Y-3.75
X6.975Y-3.875
X6.975Y-4.0
T3
X4.45Y-2.3
X4.45Y-2.4
X4.825Y-2.3
X4.825Y-2.4
X5.2Y-2.3
X5.2Y-2.4
X5.575Y-2.3
X5.575Y-2.4
X5.95Y-2.3
X5.95Y-2.4
X6.325Y-2.3
X6.325Y-2.4
X6.725Y-2.3
X6.725Y-2.4
X7.125Y-2.3
X7.125Y-2.4
T4
X3.5Y-4.325
X3.6Y-4.325
X3.7Y-4.325
X3.8Y-4.325
X3.9Y-4.325
X4.0Y-4.325
X4.1Y-4.325
X4.2Y-4.325
X4.25Y-3.075
X4.25Y-3.175
X4.25Y-3.275
X4.25Y-3.375
X4.25Y-3.475
X4.25Y-3.575
X4.25Y-3.675
X4.25Y-3.775
X4.3Y-4.325
X4.35Y-3.075
X4.35Y-3.175
X4.35Y-3.275
X4.35Y-3.375
X4.35Y-3.475
X4.35Y-3.575
X4.35Y-3.675
X4.35Y-3.775
X4.4Y-4.325
X4.5Y-4.325
X4.6Y-4.325
X4.7Y-4.325
X4.8Y-4.325
X4.9Y-4.325
X5.0Y-4.325
X5.1Y-4.325
X5.2Y-4.325
X5.3Y-4.325
X5.4Y-4.325
X5.5Y-4.325
X5.6Y-4.325
X5.625Y-3.125
X5.625Y-3.225
X5.625Y-3.325
X5.625Y-3.425
X5.625Y-3.525
X5.625Y-3.625
X5.625Y-3.725
X5.625Y-3.825
X5.625Y-3.925
X5.625Y-4.025
X5.7Y-4.325
X5.8Y-4.325
X5.9Y-4.325
X6.0Y-4.325
X6.1Y-4.325
X6.2Y-4.325
X6.3Y-4.325
X6.375Y-3.125
X6.375Y-3.225
X6.375Y-3.325
X6.375Y-3.425
X6.375Y-3.525
X6.375Y-3.625
X6.375Y-3.725
X6.375Y-3.825
X6.375Y-3.925
X6.375Y-4.025
X6.4Y-4.325
X6.5Y-4.325
X6.6Y-4.325
X6.7Y-4.325
X6.8Y-4.325
X6.9Y-4.325
X7.0Y-4.325
X7.1Y-4.325
X7.1614Y-3.3323
X7.1614Y-3.4413
X7.1614Y-3.5504
X7.1614Y-3.6594
X7.1614Y-3.7685
X7.2Y-4.325
X7.2732Y-3.3868
X7.2732Y-3.4959
X7.2732Y-3.6049
X7.2732Y-3.714
X7.3Y-4.325
X7.4Y-4.325
T5
X4.322Y-2.6093
X4.322Y-2.7864
X4.578Y-2.6093
X4.578Y-2.7864
X4.697Y-2.6114
X4.697Y-2.7886
X4.953Y-2.6114
X4.953Y-2.7886
X5.072Y-2.6114
X5.072Y-2.7886
X5.328Y-2.6114
X5.328Y-2.7886
X5.45Y-2.6093
X5.45Y-2.7864
X5.7059Y-2.6093
X5.7059Y-2.7864
X5.828Y-2.6114
X5.828Y-2.7886
X6.0839Y-2.6114
X6.0839Y-2.7886
X6.203Y-2.6114
X6.203Y-2.7886
X6.4589Y-2.6114
X6.4589Y-2.7886
X6.597Y-2.6093
X6.597Y-2.7864
X6.853Y-2.6093
X6.853Y-2.7864
X6.978Y-2.6114
X6.978Y-2.7886
X7.2339Y-2.6114
X7.2339Y-2.7886
T6
X7.2173Y-3.0583
X7.2173Y-4.0425
M30
