G04 #@! TF.GenerationSoftware,KiCad,Pcbnew,8.0.3*
G04 #@! TF.CreationDate,2024-07-14T21:47:19+02:00*
G04 #@! TF.ProjectId,aZ80_DIO,615a3830-5f44-4494-9f2e-6b696361645f,rev?*
G04 #@! TF.SameCoordinates,Original*
G04 #@! TF.FileFunction,Soldermask,Top*
G04 #@! TF.FilePolarity,Negative*
%FSLAX46Y46*%
G04 Gerber Fmt 4.6, Leading zero omitted, Abs format (unit mm)*
G04 Created by KiCad (PCBNEW 8.0.3) date 2024-07-14 21:47:19*
%MOMM*%
%LPD*%
G01*
G04 APERTURE LIST*
G04 Aperture macros list*
%AMFreePoly0*
4,1,19,0.550000,-0.750000,0.000000,-0.750000,0.000000,-0.744911,-0.071157,-0.744911,-0.207708,-0.704816,-0.327430,-0.627875,-0.420627,-0.520320,-0.479746,-0.390866,-0.500000,-0.250000,-0.500000,0.250000,-0.479746,0.390866,-0.420627,0.520320,-0.327430,0.627875,-0.207708,0.704816,-0.071157,0.744911,0.000000,0.744911,0.000000,0.750000,0.550000,0.750000,0.550000,-0.750000,0.550000,-0.750000,
$1*%
%AMFreePoly1*
4,1,19,0.000000,0.744911,0.071157,0.744911,0.207708,0.704816,0.327430,0.627875,0.420627,0.520320,0.479746,0.390866,0.500000,0.250000,0.500000,-0.250000,0.479746,-0.390866,0.420627,-0.520320,0.327430,-0.627875,0.207708,-0.704816,0.071157,-0.744911,0.000000,-0.744911,0.000000,-0.750000,-0.550000,-0.750000,-0.550000,0.750000,0.000000,0.750000,0.000000,0.744911,0.000000,0.744911,
$1*%
G04 Aperture macros list end*
%ADD10FreePoly0,90.000000*%
%ADD11R,1.500000X1.000000*%
%ADD12FreePoly1,90.000000*%
%ADD13C,4.000000*%
%ADD14R,1.600000X1.600000*%
%ADD15C,1.600000*%
%ADD16O,1.600000X1.600000*%
%ADD17R,2.400000X1.600000*%
%ADD18O,2.400000X1.600000*%
%ADD19R,1.800000X1.800000*%
%ADD20C,1.800000*%
%ADD21C,2.000000*%
%ADD22R,1.700000X1.700000*%
%ADD23O,1.700000X1.700000*%
G04 APERTURE END LIST*
D10*
X189738000Y-70418000D03*
D11*
X189738000Y-69118000D03*
D12*
X189738000Y-67818000D03*
D13*
X183319669Y-102680000D03*
X183319669Y-77680000D03*
D14*
X181899669Y-95720000D03*
D15*
X181899669Y-92950000D03*
X181899669Y-90180000D03*
X181899669Y-87410000D03*
X181899669Y-84640000D03*
X184739669Y-94335000D03*
X184739669Y-91565000D03*
X184739669Y-88795000D03*
X184739669Y-86025000D03*
X116840000Y-80645000D03*
D16*
X127000000Y-80645000D03*
D14*
X116840000Y-99695000D03*
D16*
X116840000Y-107315000D03*
D15*
X167005000Y-85725000D03*
D16*
X177165000Y-85725000D03*
D15*
X102235000Y-71755000D03*
X104735000Y-71755000D03*
D14*
X114300000Y-99695000D03*
D16*
X114300000Y-107315000D03*
D15*
X116840000Y-83820000D03*
D16*
X127000000Y-83820000D03*
D17*
X149860000Y-79375000D03*
D18*
X149860000Y-81915000D03*
X149860000Y-84455000D03*
X149860000Y-86995000D03*
X149860000Y-89535000D03*
X149860000Y-92075000D03*
X149860000Y-94615000D03*
X149860000Y-97155000D03*
X149860000Y-99695000D03*
X149860000Y-102235000D03*
X157480000Y-102235000D03*
X157480000Y-99695000D03*
X157480000Y-97155000D03*
X157480000Y-94615000D03*
X157480000Y-92075000D03*
X157480000Y-89535000D03*
X157480000Y-86995000D03*
X157480000Y-84455000D03*
X157480000Y-81915000D03*
X157480000Y-79375000D03*
D19*
X122555000Y-58420000D03*
D20*
X122555000Y-60960000D03*
D21*
X109780000Y-66275000D03*
X116280000Y-66275000D03*
X109780000Y-70775000D03*
X116280000Y-70775000D03*
D19*
X151130000Y-58420000D03*
D20*
X151130000Y-60960000D03*
D15*
X116840000Y-77470000D03*
D16*
X127000000Y-77470000D03*
D19*
X160655000Y-58420000D03*
D20*
X160655000Y-60960000D03*
D21*
X177240000Y-66330000D03*
X183740000Y-66330000D03*
X177240000Y-70830000D03*
X183740000Y-70830000D03*
D19*
X132080000Y-58420000D03*
D20*
X132080000Y-60960000D03*
D15*
X167005000Y-79375000D03*
D16*
X177165000Y-79375000D03*
D15*
X167005000Y-98425000D03*
D16*
X177165000Y-98425000D03*
D15*
X116840000Y-90170000D03*
D16*
X127000000Y-90170000D03*
D15*
X167005000Y-101600000D03*
D16*
X177165000Y-101600000D03*
D21*
X119305000Y-66330000D03*
X125805000Y-66330000D03*
X119305000Y-70830000D03*
X125805000Y-70830000D03*
D22*
X161925000Y-79375000D03*
D23*
X161925000Y-81915000D03*
X161925000Y-84455000D03*
X161925000Y-86995000D03*
X161925000Y-89535000D03*
X161925000Y-92075000D03*
X161925000Y-94615000D03*
X161925000Y-97155000D03*
X161925000Y-99695000D03*
X161925000Y-102235000D03*
D14*
X109220000Y-99695000D03*
D16*
X109220000Y-107315000D03*
D14*
X111760000Y-99695000D03*
D16*
X111760000Y-107315000D03*
D15*
X167005000Y-82550000D03*
D16*
X177165000Y-82550000D03*
D15*
X138450000Y-75565000D03*
X140950000Y-75565000D03*
D17*
X94600000Y-75580000D03*
D18*
X94600000Y-78120000D03*
X94600000Y-80660000D03*
X94600000Y-83200000D03*
X94600000Y-85740000D03*
X94600000Y-88280000D03*
X94600000Y-90820000D03*
X94600000Y-93360000D03*
X102220000Y-93360000D03*
X102220000Y-90820000D03*
X102220000Y-88280000D03*
X102220000Y-85740000D03*
X102220000Y-83200000D03*
X102220000Y-80660000D03*
X102220000Y-78120000D03*
X102220000Y-75580000D03*
D15*
X116840000Y-86995000D03*
D16*
X127000000Y-86995000D03*
D17*
X130810000Y-79375000D03*
D18*
X130810000Y-81915000D03*
X130810000Y-84455000D03*
X130810000Y-86995000D03*
X130810000Y-89535000D03*
X130810000Y-92075000D03*
X130810000Y-94615000D03*
X130810000Y-97155000D03*
X130810000Y-99695000D03*
X130810000Y-102235000D03*
X138430000Y-102235000D03*
X138430000Y-99695000D03*
X138430000Y-97155000D03*
X138430000Y-94615000D03*
X138430000Y-92075000D03*
X138430000Y-89535000D03*
X138430000Y-86995000D03*
X138430000Y-84455000D03*
X138430000Y-81915000D03*
X138430000Y-79375000D03*
D15*
X167005000Y-88900000D03*
D16*
X177165000Y-88900000D03*
D15*
X116840000Y-96520000D03*
D16*
X127000000Y-96520000D03*
D15*
X90805000Y-93345000D03*
D16*
X90805000Y-83185000D03*
D15*
X157480000Y-75565000D03*
X159980000Y-75565000D03*
D14*
X119380000Y-99695000D03*
D16*
X119380000Y-107315000D03*
D15*
X116840000Y-74295000D03*
D16*
X127000000Y-74295000D03*
D19*
X113030000Y-58420000D03*
D20*
X113030000Y-60960000D03*
D21*
X148030000Y-66330000D03*
X154530000Y-66330000D03*
X148030000Y-70830000D03*
X154530000Y-70830000D03*
D15*
X116840000Y-93345000D03*
D16*
X127000000Y-93345000D03*
D21*
X128830000Y-66330000D03*
X135330000Y-66330000D03*
X128830000Y-70830000D03*
X135330000Y-70830000D03*
D19*
X170815000Y-58420000D03*
D20*
X170815000Y-60960000D03*
D14*
X121920000Y-99695000D03*
D16*
X121920000Y-107315000D03*
D19*
X141605000Y-58420000D03*
D20*
X141605000Y-60960000D03*
D15*
X167005000Y-92075000D03*
D16*
X177165000Y-92075000D03*
D21*
X167565000Y-66275000D03*
X174065000Y-66275000D03*
X167565000Y-70775000D03*
X174065000Y-70775000D03*
D19*
X180975000Y-58420000D03*
D20*
X180975000Y-60960000D03*
D22*
X107950000Y-78105000D03*
D23*
X110490000Y-78105000D03*
X107950000Y-80645000D03*
X110490000Y-80645000D03*
X107950000Y-83185000D03*
X110490000Y-83185000D03*
X107950000Y-85725000D03*
X110490000Y-85725000D03*
X107950000Y-88265000D03*
X110490000Y-88265000D03*
X107950000Y-90805000D03*
X110490000Y-90805000D03*
X107950000Y-93345000D03*
X110490000Y-93345000D03*
X107950000Y-95885000D03*
X110490000Y-95885000D03*
D22*
X142875000Y-79375000D03*
D23*
X142875000Y-81915000D03*
X142875000Y-84455000D03*
X142875000Y-86995000D03*
X142875000Y-89535000D03*
X142875000Y-92075000D03*
X142875000Y-94615000D03*
X142875000Y-97155000D03*
X142875000Y-99695000D03*
X142875000Y-102235000D03*
D21*
X138430000Y-66275000D03*
X144930000Y-66275000D03*
X138430000Y-70775000D03*
X144930000Y-70775000D03*
D15*
X167005000Y-95250000D03*
D16*
X177165000Y-95250000D03*
D21*
X157555000Y-66330000D03*
X164055000Y-66330000D03*
X157555000Y-70830000D03*
X164055000Y-70830000D03*
D22*
X88900000Y-109855000D03*
D23*
X91440000Y-109855000D03*
X93980000Y-109855000D03*
X96520000Y-109855000D03*
X99060000Y-109855000D03*
X101600000Y-109855000D03*
X104140000Y-109855000D03*
X106680000Y-109855000D03*
X109220000Y-109855000D03*
X111760000Y-109855000D03*
X114300000Y-109855000D03*
X116840000Y-109855000D03*
X119380000Y-109855000D03*
X121920000Y-109855000D03*
X124460000Y-109855000D03*
X127000000Y-109855000D03*
X129540000Y-109855000D03*
X132080000Y-109855000D03*
X134620000Y-109855000D03*
X137160000Y-109855000D03*
X139700000Y-109855000D03*
X142240000Y-109855000D03*
X144780000Y-109855000D03*
X147320000Y-109855000D03*
X149860000Y-109855000D03*
X152400000Y-109855000D03*
X154940000Y-109855000D03*
X157480000Y-109855000D03*
X160020000Y-109855000D03*
X162560000Y-109855000D03*
X165100000Y-109855000D03*
X167640000Y-109855000D03*
X170180000Y-109855000D03*
X172720000Y-109855000D03*
X175260000Y-109855000D03*
X177800000Y-109855000D03*
X180340000Y-109855000D03*
X182880000Y-109855000D03*
X185420000Y-109855000D03*
X187960000Y-109855000D03*
M02*
