G04 #@! TF.GenerationSoftware,KiCad,Pcbnew,8.0.3*
G04 #@! TF.CreationDate,2024-07-14T21:47:18+02:00*
G04 #@! TF.ProjectId,aZ80_DIO,615a3830-5f44-4494-9f2e-6b696361645f,rev?*
G04 #@! TF.SameCoordinates,Original*
G04 #@! TF.FileFunction,Copper,L1,Top*
G04 #@! TF.FilePolarity,Positive*
%FSLAX46Y46*%
G04 Gerber Fmt 4.6, Leading zero omitted, Abs format (unit mm)*
G04 Created by KiCad (PCBNEW 8.0.3) date 2024-07-14 21:47:18*
%MOMM*%
%LPD*%
G01*
G04 APERTURE LIST*
G04 Aperture macros list*
%AMFreePoly0*
4,1,19,0.550000,-0.750000,0.000000,-0.750000,0.000000,-0.744911,-0.071157,-0.744911,-0.207708,-0.704816,-0.327430,-0.627875,-0.420627,-0.520320,-0.479746,-0.390866,-0.500000,-0.250000,-0.500000,0.250000,-0.479746,0.390866,-0.420627,0.520320,-0.327430,0.627875,-0.207708,0.704816,-0.071157,0.744911,0.000000,0.744911,0.000000,0.750000,0.550000,0.750000,0.550000,-0.750000,0.550000,-0.750000,
$1*%
%AMFreePoly1*
4,1,19,0.000000,0.744911,0.071157,0.744911,0.207708,0.704816,0.327430,0.627875,0.420627,0.520320,0.479746,0.390866,0.500000,0.250000,0.500000,-0.250000,0.479746,-0.390866,0.420627,-0.520320,0.327430,-0.627875,0.207708,-0.704816,0.071157,-0.744911,0.000000,-0.744911,0.000000,-0.750000,-0.550000,-0.750000,-0.550000,0.750000,0.000000,0.750000,0.000000,0.744911,0.000000,0.744911,
$1*%
G04 Aperture macros list end*
G04 #@! TA.AperFunction,EtchedComponent*
%ADD10C,0.000000*%
G04 #@! TD*
G04 #@! TA.AperFunction,SMDPad,CuDef*
%ADD11FreePoly0,90.000000*%
G04 #@! TD*
G04 #@! TA.AperFunction,SMDPad,CuDef*
%ADD12R,1.500000X1.000000*%
G04 #@! TD*
G04 #@! TA.AperFunction,SMDPad,CuDef*
%ADD13FreePoly1,90.000000*%
G04 #@! TD*
G04 #@! TA.AperFunction,ComponentPad*
%ADD14C,4.000000*%
G04 #@! TD*
G04 #@! TA.AperFunction,ComponentPad*
%ADD15R,1.600000X1.600000*%
G04 #@! TD*
G04 #@! TA.AperFunction,ComponentPad*
%ADD16C,1.600000*%
G04 #@! TD*
G04 #@! TA.AperFunction,ComponentPad*
%ADD17O,1.600000X1.600000*%
G04 #@! TD*
G04 #@! TA.AperFunction,ComponentPad*
%ADD18R,2.400000X1.600000*%
G04 #@! TD*
G04 #@! TA.AperFunction,ComponentPad*
%ADD19O,2.400000X1.600000*%
G04 #@! TD*
G04 #@! TA.AperFunction,ComponentPad*
%ADD20R,1.800000X1.800000*%
G04 #@! TD*
G04 #@! TA.AperFunction,ComponentPad*
%ADD21C,1.800000*%
G04 #@! TD*
G04 #@! TA.AperFunction,ComponentPad*
%ADD22C,2.000000*%
G04 #@! TD*
G04 #@! TA.AperFunction,ComponentPad*
%ADD23R,1.700000X1.700000*%
G04 #@! TD*
G04 #@! TA.AperFunction,ComponentPad*
%ADD24O,1.700000X1.700000*%
G04 #@! TD*
G04 #@! TA.AperFunction,ViaPad*
%ADD25C,0.800000*%
G04 #@! TD*
G04 #@! TA.AperFunction,Conductor*
%ADD26C,0.250000*%
G04 #@! TD*
G04 #@! TA.AperFunction,Conductor*
%ADD27C,0.500000*%
G04 #@! TD*
G04 APERTURE END LIST*
D10*
G04 #@! TA.AperFunction,EtchedComponent*
G36*
X189538000Y-70018000D02*
G01*
X189138000Y-70018000D01*
X189138000Y-69518000D01*
X189538000Y-69518000D01*
X189538000Y-70018000D01*
G37*
G04 #@! TD.AperFunction*
G04 #@! TA.AperFunction,EtchedComponent*
G36*
X190338000Y-70018000D02*
G01*
X189938000Y-70018000D01*
X189938000Y-69518000D01*
X190338000Y-69518000D01*
X190338000Y-70018000D01*
G37*
G04 #@! TD.AperFunction*
D11*
X189738000Y-70418000D03*
D12*
X189738000Y-69118000D03*
D13*
X189738000Y-67818000D03*
D14*
X183319669Y-102680000D03*
X183319669Y-77680000D03*
D15*
X181899669Y-95720000D03*
D16*
X181899669Y-92950000D03*
X181899669Y-90180000D03*
X181899669Y-87410000D03*
X181899669Y-84640000D03*
X184739669Y-94335000D03*
X184739669Y-91565000D03*
X184739669Y-88795000D03*
X184739669Y-86025000D03*
X116840000Y-80645000D03*
D17*
X127000000Y-80645000D03*
D15*
X116840000Y-99695000D03*
D17*
X116840000Y-107315000D03*
D16*
X167005000Y-85725000D03*
D17*
X177165000Y-85725000D03*
D16*
X102235000Y-71755000D03*
X104735000Y-71755000D03*
D15*
X114300000Y-99695000D03*
D17*
X114300000Y-107315000D03*
D16*
X116840000Y-83820000D03*
D17*
X127000000Y-83820000D03*
D18*
X149860000Y-79375000D03*
D19*
X149860000Y-81915000D03*
X149860000Y-84455000D03*
X149860000Y-86995000D03*
X149860000Y-89535000D03*
X149860000Y-92075000D03*
X149860000Y-94615000D03*
X149860000Y-97155000D03*
X149860000Y-99695000D03*
X149860000Y-102235000D03*
X157480000Y-102235000D03*
X157480000Y-99695000D03*
X157480000Y-97155000D03*
X157480000Y-94615000D03*
X157480000Y-92075000D03*
X157480000Y-89535000D03*
X157480000Y-86995000D03*
X157480000Y-84455000D03*
X157480000Y-81915000D03*
X157480000Y-79375000D03*
D20*
X122555000Y-58420000D03*
D21*
X122555000Y-60960000D03*
D22*
X109780000Y-66275000D03*
X116280000Y-66275000D03*
X109780000Y-70775000D03*
X116280000Y-70775000D03*
D20*
X151130000Y-58420000D03*
D21*
X151130000Y-60960000D03*
D16*
X116840000Y-77470000D03*
D17*
X127000000Y-77470000D03*
D20*
X160655000Y-58420000D03*
D21*
X160655000Y-60960000D03*
D22*
X177240000Y-66330000D03*
X183740000Y-66330000D03*
X177240000Y-70830000D03*
X183740000Y-70830000D03*
D20*
X132080000Y-58420000D03*
D21*
X132080000Y-60960000D03*
D16*
X167005000Y-79375000D03*
D17*
X177165000Y-79375000D03*
D16*
X167005000Y-98425000D03*
D17*
X177165000Y-98425000D03*
D16*
X116840000Y-90170000D03*
D17*
X127000000Y-90170000D03*
D16*
X167005000Y-101600000D03*
D17*
X177165000Y-101600000D03*
D22*
X119305000Y-66330000D03*
X125805000Y-66330000D03*
X119305000Y-70830000D03*
X125805000Y-70830000D03*
D23*
X161925000Y-79375000D03*
D24*
X161925000Y-81915000D03*
X161925000Y-84455000D03*
X161925000Y-86995000D03*
X161925000Y-89535000D03*
X161925000Y-92075000D03*
X161925000Y-94615000D03*
X161925000Y-97155000D03*
X161925000Y-99695000D03*
X161925000Y-102235000D03*
D15*
X109220000Y-99695000D03*
D17*
X109220000Y-107315000D03*
D15*
X111760000Y-99695000D03*
D17*
X111760000Y-107315000D03*
D16*
X167005000Y-82550000D03*
D17*
X177165000Y-82550000D03*
D16*
X138450000Y-75565000D03*
X140950000Y-75565000D03*
D18*
X94600000Y-75580000D03*
D19*
X94600000Y-78120000D03*
X94600000Y-80660000D03*
X94600000Y-83200000D03*
X94600000Y-85740000D03*
X94600000Y-88280000D03*
X94600000Y-90820000D03*
X94600000Y-93360000D03*
X102220000Y-93360000D03*
X102220000Y-90820000D03*
X102220000Y-88280000D03*
X102220000Y-85740000D03*
X102220000Y-83200000D03*
X102220000Y-80660000D03*
X102220000Y-78120000D03*
X102220000Y-75580000D03*
D16*
X116840000Y-86995000D03*
D17*
X127000000Y-86995000D03*
D18*
X130810000Y-79375000D03*
D19*
X130810000Y-81915000D03*
X130810000Y-84455000D03*
X130810000Y-86995000D03*
X130810000Y-89535000D03*
X130810000Y-92075000D03*
X130810000Y-94615000D03*
X130810000Y-97155000D03*
X130810000Y-99695000D03*
X130810000Y-102235000D03*
X138430000Y-102235000D03*
X138430000Y-99695000D03*
X138430000Y-97155000D03*
X138430000Y-94615000D03*
X138430000Y-92075000D03*
X138430000Y-89535000D03*
X138430000Y-86995000D03*
X138430000Y-84455000D03*
X138430000Y-81915000D03*
X138430000Y-79375000D03*
D16*
X167005000Y-88900000D03*
D17*
X177165000Y-88900000D03*
D16*
X116840000Y-96520000D03*
D17*
X127000000Y-96520000D03*
D16*
X90805000Y-93345000D03*
D17*
X90805000Y-83185000D03*
D16*
X157480000Y-75565000D03*
X159980000Y-75565000D03*
D15*
X119380000Y-99695000D03*
D17*
X119380000Y-107315000D03*
D16*
X116840000Y-74295000D03*
D17*
X127000000Y-74295000D03*
D20*
X113030000Y-58420000D03*
D21*
X113030000Y-60960000D03*
D22*
X148030000Y-66330000D03*
X154530000Y-66330000D03*
X148030000Y-70830000D03*
X154530000Y-70830000D03*
D16*
X116840000Y-93345000D03*
D17*
X127000000Y-93345000D03*
D22*
X128830000Y-66330000D03*
X135330000Y-66330000D03*
X128830000Y-70830000D03*
X135330000Y-70830000D03*
D20*
X170815000Y-58420000D03*
D21*
X170815000Y-60960000D03*
D15*
X121920000Y-99695000D03*
D17*
X121920000Y-107315000D03*
D20*
X141605000Y-58420000D03*
D21*
X141605000Y-60960000D03*
D16*
X167005000Y-92075000D03*
D17*
X177165000Y-92075000D03*
D22*
X167565000Y-66275000D03*
X174065000Y-66275000D03*
X167565000Y-70775000D03*
X174065000Y-70775000D03*
D20*
X180975000Y-58420000D03*
D21*
X180975000Y-60960000D03*
D23*
X107950000Y-78105000D03*
D24*
X110490000Y-78105000D03*
X107950000Y-80645000D03*
X110490000Y-80645000D03*
X107950000Y-83185000D03*
X110490000Y-83185000D03*
X107950000Y-85725000D03*
X110490000Y-85725000D03*
X107950000Y-88265000D03*
X110490000Y-88265000D03*
X107950000Y-90805000D03*
X110490000Y-90805000D03*
X107950000Y-93345000D03*
X110490000Y-93345000D03*
X107950000Y-95885000D03*
X110490000Y-95885000D03*
D23*
X142875000Y-79375000D03*
D24*
X142875000Y-81915000D03*
X142875000Y-84455000D03*
X142875000Y-86995000D03*
X142875000Y-89535000D03*
X142875000Y-92075000D03*
X142875000Y-94615000D03*
X142875000Y-97155000D03*
X142875000Y-99695000D03*
X142875000Y-102235000D03*
D22*
X138430000Y-66275000D03*
X144930000Y-66275000D03*
X138430000Y-70775000D03*
X144930000Y-70775000D03*
D16*
X167005000Y-95250000D03*
D17*
X177165000Y-95250000D03*
D22*
X157555000Y-66330000D03*
X164055000Y-66330000D03*
X157555000Y-70830000D03*
X164055000Y-70830000D03*
D23*
X88900000Y-109855000D03*
D24*
X91440000Y-109855000D03*
X93980000Y-109855000D03*
X96520000Y-109855000D03*
X99060000Y-109855000D03*
X101600000Y-109855000D03*
X104140000Y-109855000D03*
X106680000Y-109855000D03*
X109220000Y-109855000D03*
X111760000Y-109855000D03*
X114300000Y-109855000D03*
X116840000Y-109855000D03*
X119380000Y-109855000D03*
X121920000Y-109855000D03*
X124460000Y-109855000D03*
X127000000Y-109855000D03*
X129540000Y-109855000D03*
X132080000Y-109855000D03*
X134620000Y-109855000D03*
X137160000Y-109855000D03*
X139700000Y-109855000D03*
X142240000Y-109855000D03*
X144780000Y-109855000D03*
X147320000Y-109855000D03*
X149860000Y-109855000D03*
X152400000Y-109855000D03*
X154940000Y-109855000D03*
X157480000Y-109855000D03*
X160020000Y-109855000D03*
X162560000Y-109855000D03*
X165100000Y-109855000D03*
X167640000Y-109855000D03*
X170180000Y-109855000D03*
X172720000Y-109855000D03*
X175260000Y-109855000D03*
X177800000Y-109855000D03*
X180340000Y-109855000D03*
X182880000Y-109855000D03*
X185420000Y-109855000D03*
X187960000Y-109855000D03*
D25*
X191770000Y-67310000D03*
X189230000Y-72136000D03*
X191770000Y-69088000D03*
X146050000Y-85725000D03*
X146050000Y-90805000D03*
X135890000Y-97155000D03*
X140335000Y-101600000D03*
X135890000Y-83185000D03*
X135890000Y-81369500D03*
X173265500Y-93980000D03*
X151765000Y-72390000D03*
X170180000Y-88900000D03*
X154305000Y-82550000D03*
X171450000Y-92710000D03*
X173990000Y-95250000D03*
X155575000Y-61595000D03*
X155955000Y-67945000D03*
X113982500Y-94297500D03*
X135890000Y-84455000D03*
D26*
X189738000Y-67818000D02*
X191262000Y-67818000D01*
X191262000Y-67818000D02*
X191770000Y-67310000D01*
X191740000Y-69118000D02*
X189738000Y-69118000D01*
X191770000Y-69088000D02*
X191740000Y-69118000D01*
X189230000Y-70926000D02*
X189738000Y-70418000D01*
X189230000Y-72136000D02*
X189230000Y-70926000D01*
D27*
X182980000Y-109450000D02*
X182980000Y-110000000D01*
D26*
X153765000Y-111220000D02*
X154305000Y-111760000D01*
X149860000Y-99695000D02*
X153765000Y-103600000D01*
X153765000Y-103600000D02*
X153765000Y-111220000D01*
X154305000Y-111760000D02*
X170815000Y-111760000D01*
X153351104Y-96203896D02*
X149860000Y-99695000D01*
X146050000Y-85725000D02*
X152400000Y-85725000D01*
X153351104Y-86676104D02*
X153351104Y-96203896D01*
X170815000Y-111760000D02*
X172720000Y-109855000D01*
X152400000Y-85725000D02*
X153351104Y-86676104D01*
X150640000Y-90805000D02*
X151765000Y-91930000D01*
X151130000Y-97155000D02*
X149860000Y-97155000D01*
X146050000Y-90805000D02*
X150640000Y-90805000D01*
X151765000Y-96520000D02*
X151130000Y-97155000D01*
X151765000Y-91930000D02*
X151765000Y-96520000D01*
X137702399Y-95342601D02*
X135890000Y-97155000D01*
X138430000Y-94615000D02*
X137702399Y-95342601D01*
X147320000Y-101600000D02*
X147320000Y-95885000D01*
X140335000Y-101600000D02*
X142240000Y-103505000D01*
X148590000Y-94615000D02*
X149860000Y-94615000D01*
X147320000Y-95885000D02*
X148590000Y-94615000D01*
X145415000Y-103505000D02*
X147320000Y-101600000D01*
X142240000Y-103505000D02*
X145415000Y-103505000D01*
X132080000Y-86995000D02*
X135890000Y-83185000D01*
X130810000Y-86995000D02*
X132080000Y-86995000D01*
X154304302Y-84455698D02*
X154304302Y-109219302D01*
X132804500Y-84455000D02*
X135890000Y-81369500D01*
X149860000Y-81915000D02*
X151763604Y-81915000D01*
X154304302Y-109219302D02*
X154940000Y-109855000D01*
X151763604Y-81915000D02*
X154304302Y-84455698D01*
X130810000Y-84455000D02*
X132804500Y-84455000D01*
X97805000Y-85740000D02*
X99060000Y-86995000D01*
X146050000Y-108902500D02*
X146050000Y-110490000D01*
X142557500Y-105410000D02*
X146050000Y-108902500D01*
X99060000Y-99060000D02*
X102870000Y-102870000D01*
X94600000Y-85740000D02*
X97805000Y-85740000D01*
X99060000Y-86995000D02*
X99060000Y-99060000D01*
X147320000Y-111760000D02*
X150495000Y-111760000D01*
X128586802Y-105410000D02*
X142557500Y-105410000D01*
X126046802Y-102870000D02*
X128586802Y-105410000D01*
X150495000Y-111760000D02*
X152400000Y-109855000D01*
X102870000Y-102870000D02*
X126046802Y-102870000D01*
X146050000Y-110490000D02*
X147320000Y-111760000D01*
X94600000Y-80660000D02*
X100330000Y-86390000D01*
X147320000Y-109220000D02*
X147320000Y-109855000D01*
X100330000Y-86390000D02*
X100330000Y-99060000D01*
X126365000Y-102235000D02*
X128905000Y-104775000D01*
X103505000Y-102235000D02*
X126365000Y-102235000D01*
X100330000Y-99060000D02*
X103505000Y-102235000D01*
X128905000Y-104775000D02*
X142875000Y-104775000D01*
X142875000Y-104775000D02*
X147320000Y-109220000D01*
X97790000Y-88900000D02*
X97790000Y-99060000D01*
X95265000Y-88280000D02*
X94600000Y-88280000D01*
X128270000Y-106045000D02*
X133350000Y-106045000D01*
X97170000Y-88280000D02*
X97790000Y-88900000D01*
X97790000Y-99060000D02*
X102235000Y-103505000D01*
X94600000Y-88280000D02*
X97170000Y-88280000D01*
X134620000Y-107315000D02*
X134620000Y-109855000D01*
X125730000Y-103505000D02*
X128270000Y-106045000D01*
X133350000Y-106045000D02*
X134620000Y-107315000D01*
X102235000Y-103505000D02*
X125730000Y-103505000D01*
D27*
X132080000Y-111760000D02*
X131445000Y-112395000D01*
X161925000Y-102235000D02*
X163830000Y-102235000D01*
X188595000Y-89535000D02*
X186565000Y-91565000D01*
X186565000Y-91565000D02*
X184739669Y-91565000D01*
D26*
X102220000Y-72365000D02*
X102235000Y-72350000D01*
D27*
X102235000Y-75565000D02*
X102220000Y-75580000D01*
X86360000Y-111125000D02*
X86360000Y-76835000D01*
X128830000Y-70830000D02*
X135330000Y-70830000D01*
X185420000Y-99060000D02*
X188595000Y-95885000D01*
X177800000Y-104775000D02*
X179705000Y-102870000D01*
X108855000Y-69850000D02*
X109780000Y-70775000D01*
X157555000Y-75490000D02*
X157480000Y-75565000D01*
D26*
X102220000Y-75580000D02*
X102220000Y-74945000D01*
X102220000Y-74945000D02*
X102235000Y-74930000D01*
D27*
X166370000Y-104775000D02*
X177800000Y-104775000D01*
X157480000Y-75565000D02*
X157480000Y-79375000D01*
X188595000Y-93595000D02*
X186565000Y-91565000D01*
X102235000Y-71755000D02*
X104140000Y-69850000D01*
X138430000Y-70775000D02*
X138430000Y-75545000D01*
X157555000Y-70830000D02*
X157555000Y-75490000D01*
X179705000Y-102870000D02*
X179705000Y-100965000D01*
X102235000Y-71755000D02*
X102235000Y-75565000D01*
X179705000Y-100965000D02*
X181610000Y-99060000D01*
X138450000Y-79355000D02*
X138430000Y-79375000D01*
X138375000Y-70830000D02*
X138430000Y-70775000D01*
X86360000Y-76835000D02*
X91440000Y-71755000D01*
X104140000Y-69850000D02*
X108855000Y-69850000D01*
X135330000Y-70830000D02*
X138375000Y-70830000D01*
X119250000Y-70775000D02*
X119305000Y-70830000D01*
X147975000Y-70775000D02*
X148030000Y-70830000D01*
X138450000Y-75565000D02*
X138450000Y-79355000D01*
X164055000Y-70830000D02*
X167510000Y-70830000D01*
X181610000Y-99060000D02*
X185420000Y-99060000D01*
X163830000Y-102235000D02*
X166370000Y-104775000D01*
X138430000Y-75545000D02*
X138450000Y-75565000D01*
X167510000Y-70830000D02*
X167565000Y-70775000D01*
X138430000Y-70775000D02*
X144930000Y-70775000D01*
X91440000Y-71755000D02*
X102235000Y-71755000D01*
X132080000Y-109855000D02*
X132080000Y-111760000D01*
X183740000Y-70830000D02*
X188595000Y-75685000D01*
X188595000Y-75685000D02*
X188595000Y-89535000D01*
X131445000Y-112395000D02*
X87630000Y-112395000D01*
X87630000Y-112395000D02*
X86360000Y-111125000D01*
X167565000Y-70775000D02*
X174065000Y-70775000D01*
X157555000Y-70830000D02*
X164055000Y-70830000D01*
X188595000Y-95885000D02*
X188595000Y-93595000D01*
D26*
X94580000Y-75560000D02*
X94600000Y-75580000D01*
X90805000Y-104140000D02*
X88900000Y-102235000D01*
X88900000Y-102235000D02*
X88900000Y-78105000D01*
X127000000Y-107950000D02*
X123190000Y-104140000D01*
X123190000Y-104140000D02*
X90805000Y-104140000D01*
X91425000Y-75580000D02*
X94600000Y-75580000D01*
X88900000Y-78105000D02*
X91425000Y-75580000D01*
X127000000Y-109855000D02*
X127000000Y-107950000D01*
X95870000Y-78120000D02*
X94600000Y-78120000D01*
X88265000Y-77470000D02*
X92075000Y-73660000D01*
X97155000Y-76835000D02*
X95870000Y-78120000D01*
X97155000Y-74295000D02*
X97155000Y-76835000D01*
X96520000Y-73660000D02*
X97155000Y-74295000D01*
X122555000Y-104775000D02*
X90170000Y-104775000D01*
X88265000Y-102870000D02*
X88265000Y-77470000D01*
X92075000Y-73660000D02*
X96520000Y-73660000D01*
X90170000Y-104775000D02*
X88265000Y-102870000D01*
X124460000Y-109855000D02*
X124460000Y-106680000D01*
X124460000Y-106680000D02*
X122555000Y-104775000D01*
D27*
X121920000Y-109855000D02*
X121920000Y-107315000D01*
X119380000Y-109855000D02*
X119380000Y-107315000D01*
X116840000Y-109855000D02*
X116840000Y-107315000D01*
X114300000Y-109855000D02*
X114300000Y-107315000D01*
X111760000Y-109855000D02*
X111760000Y-107315000D01*
X109220000Y-109855000D02*
X109220000Y-107315000D01*
D26*
X113030000Y-70485000D02*
X113030000Y-60960000D01*
X116840000Y-74295000D02*
X113030000Y-70485000D01*
X121285000Y-73025000D02*
X121285000Y-62230000D01*
X116840000Y-77470000D02*
X121285000Y-73025000D01*
X121285000Y-62230000D02*
X122555000Y-60960000D01*
X121920000Y-64135000D02*
X123190000Y-62865000D01*
X121920000Y-75565000D02*
X121920000Y-64135000D01*
X116840000Y-80645000D02*
X121920000Y-75565000D01*
X123190000Y-62865000D02*
X130175000Y-62865000D01*
X130175000Y-62865000D02*
X132080000Y-60960000D01*
X135890000Y-60960000D02*
X141605000Y-60960000D01*
X123825000Y-63500000D02*
X133350000Y-63500000D01*
X122555000Y-64770000D02*
X123825000Y-63500000D01*
X122555000Y-78105000D02*
X122555000Y-64770000D01*
X116840000Y-83820000D02*
X122555000Y-78105000D01*
X133350000Y-63500000D02*
X135890000Y-60960000D01*
X124460000Y-64135000D02*
X134620000Y-64135000D01*
X135890000Y-62865000D02*
X149225000Y-62865000D01*
X123190000Y-80645000D02*
X123190000Y-65405000D01*
X134620000Y-64135000D02*
X135890000Y-62865000D01*
X123190000Y-65405000D02*
X124460000Y-64135000D01*
X149225000Y-62865000D02*
X151130000Y-60960000D01*
X116840000Y-86995000D02*
X123190000Y-80645000D01*
X123825698Y-83184302D02*
X116840000Y-90170000D01*
X158115000Y-63500000D02*
X136286166Y-63500000D01*
X136286166Y-63500000D02*
X135016166Y-64770000D01*
X124461396Y-64770000D02*
X123825698Y-65405698D01*
X135016166Y-64770000D02*
X124461396Y-64770000D01*
X123825698Y-65405698D02*
X123825698Y-83184302D01*
X160655000Y-60960000D02*
X158115000Y-63500000D01*
X140970000Y-64770000D02*
X140970000Y-68580000D01*
X141790000Y-63950000D02*
X140970000Y-64770000D01*
X140970000Y-68580000D02*
X124460000Y-68580000D01*
X124460000Y-68580000D02*
X124460000Y-85725000D01*
X124460000Y-85725000D02*
X116840000Y-93345000D01*
X167825000Y-63950000D02*
X141790000Y-63950000D01*
X170815000Y-60960000D02*
X167825000Y-63950000D01*
X127130000Y-69720000D02*
X127130000Y-71625000D01*
X116840000Y-96520000D02*
X125095000Y-88265000D01*
X127635000Y-69215000D02*
X127130000Y-69720000D01*
X140971396Y-69215000D02*
X141605000Y-68581396D01*
X127130000Y-71625000D02*
X125095000Y-73660000D01*
X177535000Y-64400000D02*
X180975000Y-60960000D01*
X142610000Y-64400000D02*
X177535000Y-64400000D01*
X141605000Y-65405000D02*
X142610000Y-64400000D01*
X125095000Y-88265000D02*
X125095000Y-73660000D01*
X127635000Y-69215000D02*
X140971396Y-69215000D01*
X141605000Y-68581396D02*
X141605000Y-65405000D01*
X94585000Y-83185000D02*
X94600000Y-83200000D01*
X90805000Y-83185000D02*
X90820000Y-83200000D01*
D27*
X121920000Y-99695000D02*
X119380000Y-99695000D01*
X119380000Y-99695000D02*
X116840000Y-99695000D01*
X116840000Y-99695000D02*
X114300000Y-99695000D01*
D26*
X90805000Y-83185000D02*
X94585000Y-83185000D01*
D27*
X111760000Y-99695000D02*
X109220000Y-99695000D01*
X114300000Y-99695000D02*
X111760000Y-99695000D01*
D26*
X183515000Y-87249669D02*
X184739669Y-86025000D01*
X179705000Y-78105000D02*
X179705000Y-85725000D01*
X175895000Y-74295000D02*
X179705000Y-78105000D01*
X180005000Y-86025000D02*
X184739669Y-86025000D01*
X174625000Y-68580000D02*
X175895000Y-69850000D01*
X157555000Y-66330000D02*
X164055000Y-66330000D01*
X161925000Y-92710000D02*
X157480000Y-97155000D01*
X171305000Y-90950000D02*
X179215000Y-90950000D01*
X164055000Y-66330000D02*
X166305000Y-68580000D01*
X179705000Y-91440000D02*
X182880000Y-91440000D01*
X182880000Y-91440000D02*
X183065000Y-91255000D01*
X179705000Y-85725000D02*
X180005000Y-86025000D01*
X161925000Y-92075000D02*
X163830000Y-92075000D01*
X183065000Y-90618604D02*
X183515000Y-90168604D01*
X167005000Y-95250000D02*
X171305000Y-90950000D01*
X161925000Y-92075000D02*
X161925000Y-92710000D01*
X175895000Y-69850000D02*
X175895000Y-74295000D01*
X163830000Y-92075000D02*
X167005000Y-95250000D01*
X183065000Y-91255000D02*
X183065000Y-90618604D01*
X166305000Y-68580000D02*
X174625000Y-68580000D01*
X183515000Y-90168604D02*
X183515000Y-87249669D01*
X179215000Y-90950000D02*
X179705000Y-91440000D01*
X161925000Y-90170000D02*
X157480000Y-94615000D01*
X173265500Y-93980000D02*
X173410500Y-94125000D01*
X148030000Y-67385000D02*
X148030000Y-66330000D01*
X151765000Y-72390000D02*
X151765000Y-71120000D01*
X151765000Y-71120000D02*
X148030000Y-67385000D01*
X161925000Y-89535000D02*
X161925000Y-90170000D01*
X173410500Y-94125000D02*
X184529669Y-94125000D01*
X184529669Y-94125000D02*
X184739669Y-94335000D01*
X148030000Y-66330000D02*
X154530000Y-66330000D01*
X186690000Y-85725000D02*
X185605000Y-84640000D01*
X185420000Y-92710000D02*
X184150000Y-92710000D01*
X163195000Y-94615000D02*
X167005000Y-98425000D01*
X186690000Y-88900000D02*
X186690000Y-85725000D01*
X185420000Y-90170000D02*
X186690000Y-88900000D01*
X186690000Y-95885000D02*
X186690000Y-93980000D01*
X185605000Y-84640000D02*
X181899669Y-84640000D01*
X161925000Y-95250000D02*
X157480000Y-99695000D01*
X183515000Y-90805000D02*
X184150000Y-90170000D01*
X167565000Y-66275000D02*
X174065000Y-66275000D01*
X186690000Y-93980000D02*
X185420000Y-92710000D01*
X185275000Y-97300000D02*
X186690000Y-95885000D01*
X168130000Y-97300000D02*
X185275000Y-97300000D01*
X186690000Y-83185000D02*
X186690000Y-76200000D01*
X186690000Y-76200000D02*
X179070000Y-68580000D01*
X184150000Y-92710000D02*
X183515000Y-92075000D01*
X179070000Y-68580000D02*
X176370000Y-68580000D01*
X181899669Y-84640000D02*
X185235000Y-84640000D01*
X185235000Y-84640000D02*
X186690000Y-83185000D01*
X167005000Y-98425000D02*
X168130000Y-97300000D01*
X176370000Y-68580000D02*
X174065000Y-66275000D01*
X161925000Y-94615000D02*
X163195000Y-94615000D01*
X183515000Y-92075000D02*
X183515000Y-90805000D01*
X161925000Y-94615000D02*
X161925000Y-95250000D01*
X184150000Y-90170000D02*
X185420000Y-90170000D01*
X161925000Y-86995000D02*
X167005000Y-92075000D01*
X149860000Y-70786166D02*
X149860000Y-71755000D01*
X152945000Y-74840000D02*
X152945000Y-82460000D01*
X161925000Y-86995000D02*
X161925000Y-87630000D01*
X152945000Y-82460000D02*
X154940000Y-84455000D01*
X154940000Y-91440000D02*
X155575000Y-92075000D01*
X161925000Y-87630000D02*
X157480000Y-92075000D01*
X171670000Y-87410000D02*
X181899669Y-87410000D01*
X149860000Y-71755000D02*
X152945000Y-74840000D01*
X170180000Y-88900000D02*
X171670000Y-87410000D01*
X145348834Y-66275000D02*
X149860000Y-70786166D01*
X154940000Y-84455000D02*
X154940000Y-91440000D01*
X155575000Y-92075000D02*
X157480000Y-92075000D01*
X144930000Y-66275000D02*
X145348834Y-66275000D01*
X156210000Y-89535000D02*
X157480000Y-89535000D01*
X161925000Y-84455000D02*
X161925000Y-85090000D01*
X161925000Y-85090000D02*
X157480000Y-89535000D01*
X155575000Y-88900000D02*
X156210000Y-89535000D01*
X181899669Y-90180000D02*
X168285000Y-90180000D01*
X154305000Y-82550000D02*
X155575000Y-83820000D01*
X168285000Y-90180000D02*
X167005000Y-88900000D01*
X161925000Y-84455000D02*
X166370000Y-88900000D01*
X166370000Y-88900000D02*
X167005000Y-88900000D01*
X155575000Y-83820000D02*
X155575000Y-88900000D01*
X181639669Y-93210000D02*
X171950000Y-93210000D01*
X160020000Y-84455000D02*
X157480000Y-86995000D01*
X161925000Y-81915000D02*
X163195000Y-81915000D01*
X161925000Y-81915000D02*
X160020000Y-83820000D01*
X163195000Y-81915000D02*
X167005000Y-85725000D01*
X181899669Y-92950000D02*
X181639669Y-93210000D01*
X171950000Y-93210000D02*
X171450000Y-92710000D01*
X160020000Y-83820000D02*
X160020000Y-84455000D01*
X161925000Y-79375000D02*
X160020000Y-81280000D01*
X160020000Y-81915000D02*
X157480000Y-84455000D01*
X175115000Y-96375000D02*
X173990000Y-95250000D01*
X167005000Y-79375000D02*
X161925000Y-79375000D01*
X160020000Y-81280000D02*
X160020000Y-81915000D01*
X181244669Y-96375000D02*
X175115000Y-96375000D01*
X181899669Y-95720000D02*
X181244669Y-96375000D01*
X107935000Y-78120000D02*
X107950000Y-78105000D01*
X102220000Y-78120000D02*
X107935000Y-78120000D01*
X117094000Y-75946000D02*
X120835000Y-72205000D01*
X112522000Y-87757000D02*
X112522000Y-79883000D01*
X112522000Y-87757000D02*
X112014000Y-88265000D01*
X120835000Y-60140000D02*
X121285000Y-59690000D01*
X153670000Y-59690000D02*
X155575000Y-61595000D01*
X155955000Y-80390000D02*
X157480000Y-81915000D01*
X155955000Y-67945000D02*
X155955000Y-80390000D01*
X112522000Y-79883000D02*
X116459000Y-75946000D01*
X116459000Y-75946000D02*
X117094000Y-75946000D01*
X121285000Y-59690000D02*
X153670000Y-59690000D01*
X120835000Y-72205000D02*
X120835000Y-60140000D01*
X112014000Y-88265000D02*
X110490000Y-88265000D01*
X102220000Y-80660000D02*
X107935000Y-80660000D01*
X107935000Y-80660000D02*
X107950000Y-80645000D01*
X102220000Y-83200000D02*
X107935000Y-83200000D01*
X107935000Y-83200000D02*
X107950000Y-83185000D01*
X102220000Y-85740000D02*
X107935000Y-85740000D01*
X107935000Y-85740000D02*
X107950000Y-85725000D01*
X102220000Y-88280000D02*
X107935000Y-88280000D01*
X107935000Y-88280000D02*
X107950000Y-88265000D01*
X138430000Y-102235000D02*
X135255000Y-102235000D01*
X129540000Y-104140000D02*
X123825000Y-98425000D01*
X133350000Y-104140000D02*
X129540000Y-104140000D01*
X123825000Y-98425000D02*
X115570000Y-98425000D01*
X115570000Y-98425000D02*
X113982500Y-96837500D01*
X135255000Y-102235000D02*
X133350000Y-104140000D01*
X113982500Y-96837500D02*
X113982500Y-94297500D01*
X107935000Y-90820000D02*
X107950000Y-90805000D01*
X102220000Y-90820000D02*
X107935000Y-90820000D01*
X107935000Y-93360000D02*
X107950000Y-93345000D01*
X102220000Y-93360000D02*
X107935000Y-93360000D01*
X142240000Y-79375000D02*
X142875000Y-79375000D01*
X132715000Y-81915000D02*
X133985000Y-80645000D01*
X130810000Y-81915000D02*
X132715000Y-81915000D01*
X133985000Y-78740000D02*
X133985000Y-80645000D01*
X133985000Y-80645000D02*
X140970000Y-80645000D01*
X127000000Y-74295000D02*
X129540000Y-74295000D01*
X129540000Y-74295000D02*
X133985000Y-78740000D01*
X140970000Y-80645000D02*
X142240000Y-79375000D01*
X141605000Y-83185000D02*
X142875000Y-81915000D01*
X135255000Y-88265000D02*
X133985000Y-89535000D01*
X135255000Y-85090000D02*
X135255000Y-88265000D01*
X135890000Y-84455000D02*
X137160000Y-83185000D01*
X133985000Y-89535000D02*
X130810000Y-89535000D01*
X135890000Y-84455000D02*
X135255000Y-85090000D01*
X137160000Y-83185000D02*
X141605000Y-83185000D01*
X128905000Y-90170000D02*
X130810000Y-92075000D01*
X127000000Y-80645000D02*
X128905000Y-82550000D01*
X135890000Y-86360000D02*
X135890000Y-88900000D01*
X141605000Y-85725000D02*
X136525000Y-85725000D01*
X135890000Y-88900000D02*
X132715000Y-92075000D01*
X142875000Y-84455000D02*
X141605000Y-85725000D01*
X128905000Y-82550000D02*
X128905000Y-90170000D01*
X132715000Y-92075000D02*
X130810000Y-92075000D01*
X136525000Y-85725000D02*
X135890000Y-86360000D01*
X136525000Y-89535000D02*
X133985000Y-92075000D01*
X128270000Y-97155000D02*
X130810000Y-99695000D01*
X127635000Y-94615000D02*
X128270000Y-95250000D01*
X142875000Y-86995000D02*
X141605000Y-88265000D01*
X128270000Y-95250000D02*
X128270000Y-97155000D01*
X133985000Y-92075000D02*
X133985000Y-99695000D01*
X125545000Y-85275000D02*
X125545000Y-94430000D01*
X125545000Y-94430000D02*
X125730000Y-94615000D01*
X137160000Y-88265000D02*
X136525000Y-88900000D01*
X133985000Y-99695000D02*
X130810000Y-99695000D01*
X127000000Y-83820000D02*
X125545000Y-85275000D01*
X136525000Y-88900000D02*
X136525000Y-89535000D01*
X125730000Y-94615000D02*
X127635000Y-94615000D01*
X141605000Y-88265000D02*
X137160000Y-88265000D01*
X142875000Y-89535000D02*
X142875000Y-90380344D01*
X134620000Y-97790000D02*
X136525000Y-99695000D01*
X142305344Y-90950000D02*
X136380000Y-90950000D01*
X136525000Y-99695000D02*
X138430000Y-99695000D01*
X142875000Y-90380344D02*
X142305344Y-90950000D01*
X136380000Y-90950000D02*
X134620000Y-92710000D01*
X134620000Y-92710000D02*
X134620000Y-97790000D01*
X142875000Y-92075000D02*
X138430000Y-92075000D01*
X143510698Y-88265698D02*
X142240698Y-88265698D01*
X142875000Y-94615000D02*
X144050000Y-93440000D01*
X144050000Y-93440000D02*
X144050000Y-88805000D01*
X142240698Y-88265698D02*
X140971396Y-89535000D01*
X144050000Y-88805000D02*
X143510698Y-88265698D01*
X140971396Y-89535000D02*
X138430000Y-89535000D01*
X144500000Y-81635000D02*
X143510000Y-80645000D01*
X143510000Y-80645000D02*
X142240698Y-80645000D01*
X144500000Y-95530000D02*
X144500000Y-81635000D01*
X142875000Y-97155000D02*
X140825000Y-99205000D01*
X142875000Y-97155000D02*
X144500000Y-95530000D01*
X127000000Y-98425000D02*
X129540000Y-100965000D01*
X140970698Y-81915000D02*
X138430000Y-81915000D01*
X140825000Y-99205000D02*
X140825000Y-99695000D01*
X129540000Y-100965000D02*
X139555000Y-100965000D01*
X142240698Y-80645000D02*
X140970698Y-81915000D01*
X127000000Y-96520000D02*
X127000000Y-98425000D01*
X139555000Y-100965000D02*
X140825000Y-99695000D01*
X162560000Y-106045000D02*
X158750000Y-102235000D01*
X183740000Y-68170000D02*
X190500000Y-74930000D01*
X190500000Y-74930000D02*
X190500000Y-100330000D01*
X166370000Y-101600000D02*
X167005000Y-101600000D01*
X183740000Y-66330000D02*
X183740000Y-68170000D01*
X161925000Y-97155000D02*
X166370000Y-101600000D01*
X190500000Y-100330000D02*
X184785000Y-106045000D01*
X161925000Y-97155000D02*
X161925000Y-97790000D01*
X161925000Y-97790000D02*
X157480000Y-102235000D01*
X158750000Y-102235000D02*
X157480000Y-102235000D01*
X184785000Y-106045000D02*
X162560000Y-106045000D01*
X177240000Y-66330000D02*
X183740000Y-66330000D01*
M02*
