M48
; DRILL file {KiCad (5.1.2)-2} date 18.09.2021 20:45:47
; FORMAT={-:-/ absolute / metric / decimal}
; #@! TF.CreationDate,2021-09-18T20:45:47+02:00
; #@! TF.GenerationSoftware,Kicad,Pcbnew,(5.1.2)-2
; #@! TF.FileFunction,Plated,1,2,PTH
FMAT,2
METRIC
T1C1.000
%
G90
G05
T1
X88.9Y-92.075
X119.38Y-76.835
X147.32Y-107.315
X116.84Y-86.995
X165.1Y-107.315
X187.96Y-102.235
X119.38Y-92.075
X111.76Y-92.075
X175.26Y-92.075
X170.18Y-86.995
X134.62Y-92.075
X127.0Y-102.235
X147.32Y-94.615
X162.56Y-84.455
X157.48Y-84.455
X119.38Y-84.455
X172.72Y-102.235
X172.72Y-89.535
X144.78Y-86.995
X116.84Y-99.695
X162.56Y-94.615
X104.14Y-92.075
X177.8Y-107.315
X180.34Y-86.995
X132.08Y-99.695
X139.7Y-89.535
X160.02Y-81.915
X157.48Y-102.235
X96.52Y-107.315
X175.26Y-76.835
X170.18Y-107.315
X144.78Y-107.315
X129.54Y-84.455
X116.84Y-104.775
X149.86Y-89.535
X167.64Y-97.155
X93.98Y-94.615
X121.92Y-76.835
X175.26Y-104.775
X180.34Y-89.535
X137.16Y-94.615
X134.62Y-81.915
X127.0Y-76.835
X147.32Y-104.775
X152.4Y-104.775
X96.52Y-86.995
X106.68Y-97.155
X185.42Y-102.235
X180.34Y-94.615
X142.24Y-107.315
X139.7Y-102.235
X116.84Y-76.835
X149.86Y-107.315
X165.1Y-81.915
X154.94Y-107.315
X177.8Y-92.075
X137.16Y-86.995
X134.62Y-89.535
X127.0Y-92.075
X160.02Y-79.375
X157.48Y-97.155
X93.98Y-107.315
X106.68Y-94.615
X91.44Y-89.535
X111.76Y-107.315
X182.88Y-92.075
X175.26Y-97.155
X144.78Y-89.535
X124.46Y-76.835
X121.92Y-86.995
X152.4Y-86.995
X167.64Y-89.535
X154.94Y-79.375
X119.38Y-102.235
X134.62Y-86.995
X137.16Y-89.535
X127.0Y-79.375
X152.4Y-94.615
X187.96Y-99.695
X106.68Y-89.535
X91.44Y-86.995
X114.3Y-104.775
X111.76Y-99.695
X177.8Y-81.915
X170.18Y-99.695
X142.24Y-79.375
X139.7Y-99.695
X129.54Y-86.995
X160.02Y-107.315
X167.64Y-104.775
X154.94Y-81.915
X116.84Y-102.235
X134.62Y-79.375
X132.08Y-81.915
X124.46Y-86.995
X152.4Y-81.915
X187.96Y-104.775
X109.22Y-89.535
X101.6Y-92.075
X104.14Y-84.455
X111.76Y-86.995
X177.8Y-94.615
X170.18Y-104.775
X134.62Y-84.455
X127.0Y-97.155
X132.08Y-89.535
X149.86Y-84.455
X162.56Y-79.375
X162.56Y-76.835
X119.38Y-79.375
X144.78Y-102.235
X129.54Y-94.615
X124.46Y-84.455
X185.42Y-94.615
X106.68Y-107.315
X101.6Y-97.155
X104.14Y-89.535
X114.3Y-76.835
X170.18Y-81.915
X134.62Y-94.615
X139.7Y-86.995
X129.54Y-104.775
X160.02Y-104.775
X157.48Y-94.615
X157.48Y-79.375
X121.92Y-102.235
X144.78Y-81.915
X137.16Y-97.155
X121.92Y-107.315
X167.64Y-99.695
X185.42Y-107.315
X99.06Y-89.535
X101.6Y-94.615
X114.3Y-102.235
X114.3Y-92.075
X177.8Y-104.775
X180.34Y-102.235
X137.16Y-104.775
X127.0Y-94.615
X149.86Y-76.835
X167.64Y-92.075
X152.4Y-107.315
X99.06Y-81.915
X142.24Y-104.775
X121.92Y-84.455
X165.1Y-86.995
X187.96Y-94.615
X91.44Y-107.315
X104.14Y-97.155
X111.76Y-94.615
X177.8Y-76.835
X170.18Y-92.075
X137.16Y-76.835
X139.7Y-107.315
X149.86Y-79.375
X165.1Y-92.075
X154.94Y-76.835
X88.9Y-89.535
X121.92Y-81.915
X147.32Y-79.375
X116.84Y-107.315
X165.1Y-99.695
X187.96Y-86.995
X114.3Y-81.915
X172.72Y-97.155
X180.34Y-104.775
X134.62Y-102.235
X139.7Y-76.835
X152.4Y-84.455
X162.56Y-107.315
X157.48Y-81.915
X180.34Y-84.455
X177.8Y-79.375
X177.8Y-97.155
X144.78Y-76.835
X116.84Y-92.075
X149.86Y-92.075
X165.1Y-89.535
X119.38Y-89.535
X172.72Y-92.075
X180.34Y-97.155
X144.78Y-99.695
X132.08Y-107.315
X127.0Y-89.535
X160.02Y-102.235
X154.94Y-97.155
X88.9Y-84.455
X96.52Y-89.535
X182.88Y-86.995
X170.18Y-84.455
X142.24Y-94.615
X129.54Y-76.835
X116.84Y-89.535
X149.86Y-99.695
X165.1Y-84.455
X177.8Y-89.535
X180.34Y-99.695
X144.78Y-97.155
X137.16Y-102.235
X127.0Y-84.455
X149.86Y-86.995
X157.48Y-104.775
X101.6Y-81.915
X93.98Y-89.535
X106.68Y-99.695
X114.3Y-97.155
X182.88Y-97.155
X180.34Y-107.315
X144.78Y-79.375
X124.46Y-97.155
X121.92Y-97.155
X152.4Y-76.835
X162.56Y-99.695
X157.48Y-99.695
X119.38Y-104.775
X172.72Y-94.615
X137.16Y-81.915
X142.24Y-102.235
X139.7Y-81.915
X149.86Y-97.155
X157.48Y-107.315
X106.68Y-102.235
X93.98Y-92.075
X99.06Y-94.615
X99.06Y-92.075
X114.3Y-107.315
X182.88Y-107.315
X172.72Y-81.915
X142.24Y-99.695
X124.46Y-81.915
X116.84Y-79.375
X149.86Y-81.915
X165.1Y-97.155
X152.4Y-102.235
X116.84Y-97.155
X137.16Y-99.695
X129.54Y-99.695
X124.46Y-94.615
X162.56Y-81.915
X187.96Y-107.315
X111.76Y-81.915
X99.06Y-97.155
X104.14Y-94.615
X114.3Y-86.995
X177.8Y-86.995
X182.88Y-99.695
X132.08Y-102.235
X139.7Y-84.455
X132.08Y-86.995
X160.02Y-86.995
X167.64Y-76.835
X152.4Y-99.695
X119.38Y-99.695
X147.32Y-84.455
X129.54Y-92.075
X124.46Y-92.075
X185.42Y-92.075
X101.6Y-84.455
X99.06Y-107.315
X109.22Y-81.915
X111.76Y-84.455
X175.26Y-84.455
X170.18Y-102.235
X137.16Y-79.375
X127.0Y-86.995
X132.08Y-79.375
X160.02Y-97.155
X167.64Y-84.455
X154.94Y-86.995
X142.24Y-97.155
X129.54Y-97.155
X124.46Y-89.535
X185.42Y-97.155
X109.22Y-92.075
X101.6Y-86.995
X111.76Y-102.235
X114.3Y-94.615
X172.72Y-99.695
X172.72Y-104.775
X137.16Y-107.315
X124.46Y-107.315
X129.54Y-102.235
X160.02Y-84.455
X162.56Y-104.775
X152.4Y-92.075
X119.38Y-81.915
X142.24Y-86.995
X121.92Y-99.695
X165.1Y-79.375
X185.42Y-89.535
X106.68Y-86.995
X101.6Y-107.315
X104.14Y-107.315
X111.76Y-97.155
X175.26Y-94.615
X175.26Y-81.915
X137.16Y-84.455
X139.7Y-104.775
X152.4Y-79.375
X165.1Y-104.775
X154.94Y-89.535
X104.14Y-81.915
X144.78Y-84.455
X121.92Y-79.375
X167.64Y-107.315
X187.96Y-92.075
X91.44Y-94.615
X114.3Y-89.535
X175.26Y-99.695
X172.72Y-86.995
X134.62Y-99.695
X139.7Y-79.375
X160.02Y-94.615
X165.1Y-102.235
X154.94Y-102.235
X119.38Y-97.155
X182.88Y-89.535
X170.18Y-97.155
X147.32Y-86.995
X116.84Y-81.915
X167.64Y-81.915
X185.42Y-86.995
X109.22Y-97.155
X177.8Y-99.695
X180.34Y-92.075
X134.62Y-104.775
X139.7Y-97.155
X149.86Y-102.235
X154.94Y-104.775
X88.9Y-86.995
X175.26Y-79.375
X182.88Y-104.775
X147.32Y-92.075
X129.54Y-79.375
X116.84Y-94.615
X149.86Y-94.615
X162.56Y-92.075
X119.38Y-94.615
X175.26Y-102.235
X170.18Y-94.615
X142.24Y-84.455
X132.08Y-94.615
X127.0Y-104.775
X147.32Y-99.695
X157.48Y-92.075
X88.9Y-107.315
X96.52Y-92.075
X99.06Y-84.455
X175.26Y-107.315
X170.18Y-79.375
X144.78Y-92.075
X139.7Y-92.075
X116.84Y-84.455
X160.02Y-99.695
X167.64Y-79.375
X172.72Y-107.315
X170.18Y-89.535
X142.24Y-89.535
X134.62Y-97.155
X121.92Y-94.615
X147.32Y-89.535
X157.48Y-86.995
X93.98Y-84.455
X106.68Y-81.915
X91.44Y-84.455
X109.22Y-104.775
X185.42Y-104.775
X170.18Y-76.835
X147.32Y-97.155
X127.0Y-107.315
X121.92Y-89.535
X152.4Y-89.535
X162.56Y-89.535
X157.48Y-89.535
X119.38Y-86.995
X144.78Y-94.615
X132.08Y-104.775
X139.7Y-94.615
X154.94Y-99.695
X187.96Y-97.155
X93.98Y-86.995
X106.68Y-92.075
X96.52Y-94.615
X114.3Y-79.375
X182.88Y-102.235
X167.64Y-102.235
X142.24Y-92.075
X124.46Y-99.695
X129.54Y-89.535
X160.02Y-92.075
X162.56Y-86.995
X152.4Y-97.155
X132.08Y-97.155
X142.24Y-76.81
X124.46Y-104.775
X154.94Y-94.615
X182.88Y-94.615
X109.22Y-99.695
X91.44Y-92.075
X104.14Y-86.995
X114.3Y-99.695
X175.26Y-86.995
X172.72Y-84.455
X134.62Y-107.315
X127.0Y-99.695
X132.08Y-84.455
X160.02Y-89.535
X165.1Y-76.835
X162.56Y-102.235
X147.32Y-81.915
X132.08Y-76.835
X124.46Y-102.235
X187.96Y-89.535
X109.22Y-107.315
X101.6Y-89.535
X109.22Y-84.455
X114.3Y-84.455
X172.72Y-79.375
X134.62Y-76.835
X121.92Y-104.775
X129.54Y-107.315
X160.02Y-76.835
X167.64Y-86.995
X154.94Y-84.455
X144.78Y-104.775
X142.24Y-81.915
X124.46Y-79.375
X185.42Y-99.695
X106.68Y-84.455
X99.06Y-86.995
X89.0Y-110.0
X91.54Y-110.0
X94.08Y-110.0
X96.62Y-110.0
X99.16Y-110.0
X101.7Y-110.0
X104.24Y-110.0
X106.78Y-110.0
X109.32Y-110.0
X111.86Y-110.0
X114.4Y-110.0
X116.94Y-110.0
X119.48Y-110.0
X122.02Y-110.0
X124.56Y-110.0
X127.1Y-110.0
X129.64Y-110.0
X132.18Y-110.0
X134.72Y-110.0
X137.26Y-110.0
X139.8Y-110.0
X142.34Y-110.0
X144.88Y-110.0
X147.42Y-110.0
X149.96Y-110.0
X152.5Y-110.0
X155.04Y-110.0
X157.58Y-110.0
X160.12Y-110.0
X162.66Y-110.0
X165.2Y-110.0
X167.74Y-110.0
X170.28Y-110.0
X172.82Y-110.0
X175.36Y-110.0
X177.9Y-110.0
X180.44Y-110.0
X182.98Y-110.0
X185.52Y-110.0
X188.06Y-110.0
X109.22Y-102.235
X109.22Y-94.615
X177.8Y-84.455
X172.72Y-76.835
X137.16Y-92.075
X127.0Y-81.915
X149.86Y-104.775
X162.56Y-97.155
X157.48Y-76.835
X106.68Y-104.775
X147.32Y-76.835
X121.92Y-92.075
X165.1Y-94.615
X111.76Y-89.535
X96.52Y-84.455
X119.38Y-107.315
X109.22Y-86.995
X111.76Y-104.775
X175.26Y-89.535
X177.8Y-102.235
X132.08Y-92.075
X129.54Y-81.915
X147.32Y-102.235
X167.64Y-94.615
X154.94Y-92.075
T0
M30
