G04 #@! TF.GenerationSoftware,KiCad,Pcbnew,(5.1.2)-2*
G04 #@! TF.CreationDate,2021-09-18T20:45:37+02:00*
G04 #@! TF.ProjectId,aZ80_Proto,615a3830-5f50-4726-9f74-6f2e6b696361,rev?*
G04 #@! TF.SameCoordinates,Original*
G04 #@! TF.FileFunction,Copper,L1,Top*
G04 #@! TF.FilePolarity,Positive*
%FSLAX46Y46*%
G04 Gerber Fmt 4.6, Leading zero omitted, Abs format (unit mm)*
G04 Created by KiCad (PCBNEW (5.1.2)-2) date 2021-09-18 20:45:37*
%MOMM*%
%LPD*%
G04 APERTURE LIST*
%ADD10C,1.700000*%
%ADD11O,1.700000X1.700000*%
%ADD12R,1.700000X1.700000*%
G04 APERTURE END LIST*
D10*
X106680000Y-104775000D03*
X106680000Y-102235000D03*
X99060000Y-81915000D03*
X101600000Y-81915000D03*
X104140000Y-81915000D03*
X180340000Y-84455000D03*
X88900000Y-92075000D03*
X88900000Y-89535000D03*
X88900000Y-86995000D03*
X88900000Y-84455000D03*
X88900000Y-107315000D03*
X93980000Y-94615000D03*
X93980000Y-84455000D03*
X93980000Y-89535000D03*
X93980000Y-107315000D03*
X93980000Y-92075000D03*
X93980000Y-86995000D03*
X96520000Y-107315000D03*
X96520000Y-89535000D03*
X96520000Y-92075000D03*
X96520000Y-86995000D03*
X91440000Y-92075000D03*
X96520000Y-84455000D03*
X91440000Y-94615000D03*
X91440000Y-86995000D03*
X91440000Y-107315000D03*
X91440000Y-84455000D03*
X91440000Y-89535000D03*
X101600000Y-89535000D03*
X99060000Y-92075000D03*
X101600000Y-92075000D03*
X99060000Y-107315000D03*
X99060000Y-97155000D03*
X101600000Y-86995000D03*
X101600000Y-94615000D03*
X96520000Y-94615000D03*
X101600000Y-97155000D03*
X99060000Y-86995000D03*
X101600000Y-107315000D03*
X99060000Y-84455000D03*
X99060000Y-94615000D03*
X101600000Y-84455000D03*
X99060000Y-89535000D03*
X106680000Y-81915000D03*
X106680000Y-99695000D03*
X106680000Y-94615000D03*
X106680000Y-84455000D03*
X106680000Y-89535000D03*
X106680000Y-107315000D03*
X106680000Y-92075000D03*
X106680000Y-97155000D03*
X106680000Y-86995000D03*
X111760000Y-81915000D03*
X109220000Y-107315000D03*
X109220000Y-99695000D03*
X109220000Y-89535000D03*
X109220000Y-92075000D03*
X109220000Y-97155000D03*
X109220000Y-86995000D03*
X104140000Y-92075000D03*
X109220000Y-84455000D03*
X104140000Y-94615000D03*
X104140000Y-86995000D03*
X104140000Y-107315000D03*
X109220000Y-102235000D03*
X104140000Y-84455000D03*
X104140000Y-97155000D03*
X109220000Y-81915000D03*
X104140000Y-89535000D03*
X111760000Y-102235000D03*
X114300000Y-81915000D03*
X114300000Y-102235000D03*
X114300000Y-89535000D03*
X114300000Y-104775000D03*
X111760000Y-92075000D03*
X111760000Y-99695000D03*
X114300000Y-92075000D03*
X114300000Y-79375000D03*
X114300000Y-76835000D03*
X111760000Y-107315000D03*
X111760000Y-97155000D03*
X114300000Y-86995000D03*
X114300000Y-94615000D03*
X109220000Y-94615000D03*
X114300000Y-97155000D03*
X111760000Y-104775000D03*
X114300000Y-99695000D03*
X111760000Y-86995000D03*
X114300000Y-107315000D03*
X111760000Y-84455000D03*
X111760000Y-94615000D03*
X109220000Y-104775000D03*
X114300000Y-84455000D03*
X111760000Y-89535000D03*
X187960000Y-89535000D03*
X187960000Y-94615000D03*
X187960000Y-92075000D03*
X187960000Y-97155000D03*
X187960000Y-102235000D03*
X185420000Y-94615000D03*
X187960000Y-86995000D03*
X185420000Y-86995000D03*
X187960000Y-99695000D03*
X187960000Y-107315000D03*
X185420000Y-99695000D03*
X187960000Y-104775000D03*
X182880000Y-94615000D03*
X185420000Y-92075000D03*
X185420000Y-97155000D03*
X185420000Y-107315000D03*
X185420000Y-89535000D03*
X185420000Y-104775000D03*
X185420000Y-102235000D03*
X182880000Y-92075000D03*
X182880000Y-97155000D03*
X182880000Y-89535000D03*
X182880000Y-86995000D03*
X182880000Y-107315000D03*
X182880000Y-102235000D03*
X177800000Y-94615000D03*
X177800000Y-81915000D03*
X172720000Y-102235000D03*
X175260000Y-107315000D03*
X175260000Y-86995000D03*
X177800000Y-86995000D03*
X177800000Y-79375000D03*
X175260000Y-84455000D03*
X175260000Y-79375000D03*
X175260000Y-76835000D03*
X175260000Y-94615000D03*
X177800000Y-107315000D03*
X177800000Y-99695000D03*
X177800000Y-92075000D03*
X172720000Y-97155000D03*
X177800000Y-104775000D03*
X177800000Y-89535000D03*
X177800000Y-84455000D03*
X172720000Y-92075000D03*
X177800000Y-76835000D03*
X172720000Y-107315000D03*
X175260000Y-99695000D03*
X175260000Y-89535000D03*
X175260000Y-92075000D03*
X175260000Y-102235000D03*
X175260000Y-104775000D03*
X172720000Y-94615000D03*
X172720000Y-99695000D03*
X175260000Y-81915000D03*
X177800000Y-102235000D03*
X175260000Y-97155000D03*
X172720000Y-104775000D03*
X177800000Y-97155000D03*
X182880000Y-104775000D03*
X182880000Y-99695000D03*
X172720000Y-81915000D03*
X170180000Y-99695000D03*
X170180000Y-92075000D03*
X170180000Y-94615000D03*
X172720000Y-76835000D03*
X170180000Y-97155000D03*
X172720000Y-89535000D03*
X172720000Y-84455000D03*
X172720000Y-79375000D03*
X170180000Y-107315000D03*
X170180000Y-104775000D03*
X170180000Y-102235000D03*
X172720000Y-86995000D03*
X170180000Y-89535000D03*
X170180000Y-86995000D03*
X170180000Y-84455000D03*
X170180000Y-81915000D03*
X170180000Y-79375000D03*
X180340000Y-102235000D03*
X180340000Y-104775000D03*
X180340000Y-92075000D03*
X180340000Y-94615000D03*
X180340000Y-97155000D03*
X180340000Y-86995000D03*
X180340000Y-89535000D03*
X180340000Y-99695000D03*
X180340000Y-107315000D03*
X170180000Y-76835000D03*
X167640000Y-102235000D03*
X167640000Y-89535000D03*
X167640000Y-94615000D03*
X167640000Y-99695000D03*
X167640000Y-104775000D03*
X167640000Y-92075000D03*
X167640000Y-97155000D03*
X167640000Y-107315000D03*
X167640000Y-79375000D03*
X165100000Y-94615000D03*
X165100000Y-104775000D03*
X167640000Y-86995000D03*
X165100000Y-107315000D03*
X165100000Y-86995000D03*
X167640000Y-76835000D03*
X167640000Y-84455000D03*
X165100000Y-76835000D03*
X162560000Y-104775000D03*
X167640000Y-81915000D03*
X162560000Y-94615000D03*
X165100000Y-99695000D03*
X165100000Y-92075000D03*
X165100000Y-97155000D03*
X165100000Y-102235000D03*
X165100000Y-84455000D03*
X165100000Y-89535000D03*
X165100000Y-81915000D03*
X162560000Y-107315000D03*
X165100000Y-79375000D03*
X162560000Y-99695000D03*
X162560000Y-92075000D03*
X162560000Y-97155000D03*
X162560000Y-89535000D03*
X162560000Y-86995000D03*
X162560000Y-84455000D03*
X162560000Y-79375000D03*
X157480000Y-94615000D03*
X157480000Y-81915000D03*
X152400000Y-102235000D03*
X154940000Y-107315000D03*
X154940000Y-86995000D03*
X157480000Y-86995000D03*
X157480000Y-79375000D03*
X154940000Y-84455000D03*
X154940000Y-79375000D03*
X154940000Y-76835000D03*
X154940000Y-94615000D03*
X157480000Y-107315000D03*
X157480000Y-99695000D03*
X157480000Y-92075000D03*
X152400000Y-97155000D03*
X157480000Y-104775000D03*
X157480000Y-89535000D03*
X157480000Y-84455000D03*
X152400000Y-92075000D03*
X157480000Y-76835000D03*
X152400000Y-107315000D03*
X154940000Y-99695000D03*
X154940000Y-89535000D03*
X154940000Y-92075000D03*
X154940000Y-102235000D03*
X154940000Y-104775000D03*
X152400000Y-94615000D03*
X152400000Y-99695000D03*
X154940000Y-81915000D03*
X157480000Y-102235000D03*
X154940000Y-97155000D03*
X162560000Y-102235000D03*
X152400000Y-104775000D03*
X157480000Y-97155000D03*
X162560000Y-81915000D03*
X162560000Y-76835000D03*
X152400000Y-81915000D03*
X149860000Y-99695000D03*
X149860000Y-92075000D03*
X149860000Y-94615000D03*
X152400000Y-76835000D03*
X149860000Y-97155000D03*
X152400000Y-89535000D03*
X152400000Y-84455000D03*
X152400000Y-79375000D03*
X149860000Y-107315000D03*
X149860000Y-104775000D03*
X149860000Y-102235000D03*
X152400000Y-86995000D03*
X149860000Y-89535000D03*
X149860000Y-86995000D03*
X149860000Y-84455000D03*
X149860000Y-81915000D03*
X149860000Y-79375000D03*
X160020000Y-79375000D03*
X160020000Y-81915000D03*
X160020000Y-99695000D03*
X160020000Y-92075000D03*
X160020000Y-94615000D03*
X160020000Y-97155000D03*
X160020000Y-107315000D03*
X160020000Y-104775000D03*
X160020000Y-86995000D03*
X160020000Y-89535000D03*
X160020000Y-76835000D03*
X160020000Y-102235000D03*
X160020000Y-84455000D03*
X149860000Y-76835000D03*
X147320000Y-102235000D03*
X147320000Y-89535000D03*
X147320000Y-94615000D03*
X147320000Y-99695000D03*
X147320000Y-104775000D03*
X147320000Y-92075000D03*
X147320000Y-97155000D03*
X147320000Y-107315000D03*
X147320000Y-79375000D03*
X144780000Y-94615000D03*
X144780000Y-104775000D03*
X147320000Y-86995000D03*
X144780000Y-107315000D03*
X144780000Y-86995000D03*
X147320000Y-76835000D03*
X147320000Y-84455000D03*
X144780000Y-76835000D03*
X142240000Y-104775000D03*
X147320000Y-81915000D03*
X142240000Y-94615000D03*
X144780000Y-99695000D03*
X144780000Y-92075000D03*
X144780000Y-97155000D03*
X144780000Y-102235000D03*
X144780000Y-84455000D03*
X144780000Y-89535000D03*
X144780000Y-81915000D03*
X142240000Y-107315000D03*
X144780000Y-79375000D03*
X142240000Y-99695000D03*
X142240000Y-92075000D03*
X142240000Y-97155000D03*
X142240000Y-89535000D03*
X142240000Y-86995000D03*
X142240000Y-84455000D03*
X142240000Y-79375000D03*
X137160000Y-94615000D03*
X137160000Y-81915000D03*
X132080000Y-102235000D03*
X134620000Y-107315000D03*
X134620000Y-86995000D03*
X137160000Y-86995000D03*
X137160000Y-79375000D03*
X134620000Y-84455000D03*
X134620000Y-79375000D03*
X134620000Y-76835000D03*
X134620000Y-94615000D03*
X137160000Y-107315000D03*
X137160000Y-99695000D03*
X137160000Y-92075000D03*
X132080000Y-97155000D03*
X137160000Y-104775000D03*
X137160000Y-89535000D03*
X137160000Y-84455000D03*
X132080000Y-92075000D03*
X137160000Y-76835000D03*
X132080000Y-107315000D03*
X134620000Y-99695000D03*
X134620000Y-89535000D03*
X134620000Y-92075000D03*
X134620000Y-102235000D03*
X134620000Y-104775000D03*
X132080000Y-94615000D03*
X132080000Y-99695000D03*
X134620000Y-81915000D03*
X137160000Y-102235000D03*
X134620000Y-97155000D03*
X142240000Y-102235000D03*
X132080000Y-104775000D03*
X137160000Y-97155000D03*
X142240000Y-81915000D03*
X142240000Y-76809600D03*
X132080000Y-81915000D03*
X129540000Y-99695000D03*
X129540000Y-92075000D03*
X129540000Y-94615000D03*
X132080000Y-76835000D03*
X129540000Y-97155000D03*
X132080000Y-89535000D03*
X132080000Y-84455000D03*
X132080000Y-79375000D03*
X129540000Y-107315000D03*
X129540000Y-104775000D03*
X129540000Y-102235000D03*
X132080000Y-86995000D03*
X129540000Y-89535000D03*
X129540000Y-86995000D03*
X129540000Y-84455000D03*
X129540000Y-81915000D03*
X129540000Y-79375000D03*
X139700000Y-79375000D03*
X139700000Y-81915000D03*
X139700000Y-99695000D03*
X139700000Y-92075000D03*
X139700000Y-94615000D03*
X139700000Y-97155000D03*
X139700000Y-107315000D03*
X139700000Y-104775000D03*
X139700000Y-86995000D03*
X139700000Y-89535000D03*
X139700000Y-76835000D03*
X139700000Y-102235000D03*
X139700000Y-84455000D03*
X129540000Y-76835000D03*
X127000000Y-102235000D03*
X127000000Y-89535000D03*
X127000000Y-94615000D03*
X127000000Y-99695000D03*
X127000000Y-104775000D03*
X127000000Y-92075000D03*
X127000000Y-97155000D03*
X127000000Y-107315000D03*
X127000000Y-79375000D03*
X124460000Y-94615000D03*
X124460000Y-104775000D03*
X127000000Y-86995000D03*
X124460000Y-107315000D03*
X124460000Y-86995000D03*
X127000000Y-76835000D03*
X127000000Y-84455000D03*
X124460000Y-76835000D03*
X121920000Y-104775000D03*
X127000000Y-81915000D03*
X121920000Y-94615000D03*
X124460000Y-99695000D03*
X124460000Y-92075000D03*
X124460000Y-97155000D03*
X124460000Y-102235000D03*
X124460000Y-84455000D03*
X124460000Y-89535000D03*
X124460000Y-81915000D03*
X121920000Y-107315000D03*
X124460000Y-79375000D03*
X121920000Y-99695000D03*
X121920000Y-92075000D03*
X121920000Y-97155000D03*
X121920000Y-89535000D03*
X121920000Y-86995000D03*
X121920000Y-84455000D03*
X121920000Y-79375000D03*
X116840000Y-94615000D03*
X116840000Y-81915000D03*
X116840000Y-86995000D03*
X116840000Y-79375000D03*
X116840000Y-107315000D03*
X116840000Y-99695000D03*
X116840000Y-92075000D03*
X116840000Y-104775000D03*
X116840000Y-89535000D03*
X116840000Y-84455000D03*
X116840000Y-76835000D03*
X116840000Y-102235000D03*
X121920000Y-102235000D03*
X116840000Y-97155000D03*
X121920000Y-81915000D03*
X121920000Y-76835000D03*
X119380000Y-79375000D03*
X119380000Y-81915000D03*
X119380000Y-99695000D03*
X119380000Y-92075000D03*
X119380000Y-94615000D03*
X119380000Y-97155000D03*
X119380000Y-107315000D03*
X119380000Y-104775000D03*
X119380000Y-86995000D03*
X119380000Y-89535000D03*
X119380000Y-76835000D03*
X119380000Y-102235000D03*
X119380000Y-84455000D03*
D11*
X188060000Y-110000000D03*
X185520000Y-110000000D03*
X182980000Y-110000000D03*
X180440000Y-110000000D03*
X177900000Y-110000000D03*
X175360000Y-110000000D03*
X172820000Y-110000000D03*
X170280000Y-110000000D03*
X167740000Y-110000000D03*
X165200000Y-110000000D03*
X162660000Y-110000000D03*
X160120000Y-110000000D03*
X157580000Y-110000000D03*
X155040000Y-110000000D03*
X152500000Y-110000000D03*
X149960000Y-110000000D03*
X147420000Y-110000000D03*
X144880000Y-110000000D03*
X142340000Y-110000000D03*
X139800000Y-110000000D03*
X137260000Y-110000000D03*
X134720000Y-110000000D03*
X132180000Y-110000000D03*
X129640000Y-110000000D03*
X127100000Y-110000000D03*
X124560000Y-110000000D03*
X122020000Y-110000000D03*
X119480000Y-110000000D03*
X116940000Y-110000000D03*
X114400000Y-110000000D03*
X111860000Y-110000000D03*
X109320000Y-110000000D03*
X106780000Y-110000000D03*
X104240000Y-110000000D03*
X101700000Y-110000000D03*
X99160000Y-110000000D03*
X96620000Y-110000000D03*
X94080000Y-110000000D03*
X91540000Y-110000000D03*
D12*
X89000000Y-110000000D03*
M02*
