M48
; DRILL file {KiCad (5.1.2)-2} date 18.09.2021 23:43:39
; FORMAT={-:-/ absolute / metric / decimal}
; #@! TF.CreationDate,2021-09-18T23:43:39+02:00
; #@! TF.GenerationSoftware,Kicad,Pcbnew,(5.1.2)-2
; #@! TF.FileFunction,Plated,1,2,PTH
FMAT,2
METRIC
T1C0.800
T2C0.900
T3C1.000
%
G90
G05
T1
X109.22Y-83.058
X109.22Y-98.298
X111.76Y-83.058
X111.76Y-98.298
X114.3Y-83.058
X114.3Y-98.298
X116.84Y-83.058
X116.84Y-98.298
X119.38Y-83.058
X119.38Y-98.298
X121.92Y-83.058
X121.92Y-98.298
X124.46Y-83.058
X124.46Y-98.298
X127.0Y-83.058
X127.0Y-98.298
X129.54Y-83.058
X129.54Y-98.298
X132.08Y-83.058
X132.08Y-98.298
X134.62Y-83.058
X134.62Y-98.298
X137.16Y-83.058
X137.16Y-98.298
X162.052Y-83.82
X162.052Y-86.36
X162.052Y-88.9
X162.052Y-91.44
X162.052Y-93.98
X162.052Y-96.52
X162.052Y-99.06
X169.672Y-83.82
X169.672Y-86.36
X169.672Y-88.9
X169.672Y-91.44
X169.672Y-93.98
X169.672Y-96.52
X169.672Y-99.06
X178.943Y-88.265
X178.943Y-98.425
X182.626Y-88.265
X182.626Y-98.425
X173.736Y-83.82
X173.736Y-86.32
X134.66Y-102.87
X137.16Y-102.87
T2
X187.452Y-86.36
X187.452Y-88.9
X187.579Y-78.74
X187.579Y-81.28
T3
X180.467Y-101.6
X180.467Y-104.14
X89.0Y-110.0
X91.54Y-110.0
X94.08Y-110.0
X96.62Y-110.0
X99.16Y-110.0
X101.7Y-110.0
X104.24Y-110.0
X106.78Y-110.0
X109.32Y-110.0
X111.86Y-110.0
X114.4Y-110.0
X116.94Y-110.0
X119.48Y-110.0
X122.02Y-110.0
X124.56Y-110.0
X127.1Y-110.0
X129.64Y-110.0
X132.18Y-110.0
X134.72Y-110.0
X137.26Y-110.0
X139.8Y-110.0
X142.34Y-110.0
X144.88Y-110.0
X147.42Y-110.0
X149.96Y-110.0
X152.5Y-110.0
X155.04Y-110.0
X157.58Y-110.0
X160.12Y-110.0
X162.66Y-110.0
X165.2Y-110.0
X167.74Y-110.0
X170.28Y-110.0
X172.82Y-110.0
X175.36Y-110.0
X177.9Y-110.0
X180.44Y-110.0
X182.98Y-110.0
X185.52Y-110.0
X188.06Y-110.0
T0
M30
