G04 #@! TF.GenerationSoftware,KiCad,Pcbnew,(5.1.2)-2*
G04 #@! TF.CreationDate,2021-09-18T23:43:35+02:00*
G04 #@! TF.ProjectId,aZ80_SIO,615a3830-5f53-4494-9f2e-6b696361645f,rev?*
G04 #@! TF.SameCoordinates,Original*
G04 #@! TF.FileFunction,Copper,L1,Top*
G04 #@! TF.FilePolarity,Positive*
%FSLAX46Y46*%
G04 Gerber Fmt 4.6, Leading zero omitted, Abs format (unit mm)*
G04 Created by KiCad (PCBNEW (5.1.2)-2) date 2021-09-18 23:43:35*
%MOMM*%
%LPD*%
G04 APERTURE LIST*
%ADD10O,1.600000X1.600000*%
%ADD11C,1.600000*%
%ADD12O,1.600000X2.400000*%
%ADD13R,1.600000X2.400000*%
%ADD14O,2.400000X1.600000*%
%ADD15R,2.400000X1.600000*%
%ADD16O,1.700000X1.700000*%
%ADD17R,1.700000X1.700000*%
%ADD18C,1.800000*%
%ADD19R,1.800000X1.800000*%
%ADD20C,0.250000*%
%ADD21C,0.500000*%
G04 APERTURE END LIST*
D10*
X178943000Y-98425000D03*
D11*
X178943000Y-88265000D03*
D10*
X182626000Y-98425000D03*
D11*
X182626000Y-88265000D03*
D12*
X109220000Y-83058000D03*
X137160000Y-98298000D03*
X111760000Y-83058000D03*
X134620000Y-98298000D03*
X114300000Y-83058000D03*
X132080000Y-98298000D03*
X116840000Y-83058000D03*
X129540000Y-98298000D03*
X119380000Y-83058000D03*
X127000000Y-98298000D03*
X121920000Y-83058000D03*
X124460000Y-98298000D03*
X124460000Y-83058000D03*
X121920000Y-98298000D03*
X127000000Y-83058000D03*
X119380000Y-98298000D03*
X129540000Y-83058000D03*
X116840000Y-98298000D03*
X132080000Y-83058000D03*
X114300000Y-98298000D03*
X134620000Y-83058000D03*
X111760000Y-98298000D03*
X137160000Y-83058000D03*
D13*
X109220000Y-98298000D03*
D14*
X169672000Y-83820000D03*
X162052000Y-99060000D03*
X169672000Y-86360000D03*
X162052000Y-96520000D03*
X169672000Y-88900000D03*
X162052000Y-93980000D03*
X169672000Y-91440000D03*
X162052000Y-91440000D03*
X169672000Y-93980000D03*
X162052000Y-88900000D03*
X169672000Y-96520000D03*
X162052000Y-86360000D03*
X169672000Y-99060000D03*
D15*
X162052000Y-83820000D03*
D16*
X180467000Y-104140000D03*
D17*
X180467000Y-101600000D03*
D18*
X187579000Y-78740000D03*
D19*
X187579000Y-81280000D03*
D18*
X187452000Y-86360000D03*
D19*
X187452000Y-88900000D03*
D11*
X134660000Y-102870000D03*
X137160000Y-102870000D03*
X173736000Y-86320000D03*
X173736000Y-83820000D03*
D16*
X188060000Y-110000000D03*
X185520000Y-110000000D03*
X182980000Y-110000000D03*
X180440000Y-110000000D03*
X177900000Y-110000000D03*
X175360000Y-110000000D03*
X172820000Y-110000000D03*
X170280000Y-110000000D03*
X167740000Y-110000000D03*
X165200000Y-110000000D03*
X162660000Y-110000000D03*
X160120000Y-110000000D03*
X157580000Y-110000000D03*
X155040000Y-110000000D03*
X152500000Y-110000000D03*
X149960000Y-110000000D03*
X147420000Y-110000000D03*
X144880000Y-110000000D03*
X142340000Y-110000000D03*
X139800000Y-110000000D03*
X137260000Y-110000000D03*
X134720000Y-110000000D03*
X132180000Y-110000000D03*
X129640000Y-110000000D03*
X127100000Y-110000000D03*
X124560000Y-110000000D03*
X122020000Y-110000000D03*
X119480000Y-110000000D03*
X116940000Y-110000000D03*
X114400000Y-110000000D03*
X111860000Y-110000000D03*
X109320000Y-110000000D03*
X106780000Y-110000000D03*
X104240000Y-110000000D03*
X101700000Y-110000000D03*
X99160000Y-110000000D03*
X96620000Y-110000000D03*
X94080000Y-110000000D03*
X91540000Y-110000000D03*
D17*
X89000000Y-110000000D03*
D20*
X180467000Y-109973000D02*
X180440000Y-110000000D01*
X180467000Y-104140000D02*
X180467000Y-109973000D01*
X166370000Y-98470000D02*
X167173000Y-99273000D01*
X166960000Y-99060000D02*
X167173000Y-99273000D01*
X167173000Y-99273000D02*
X177900000Y-110000000D01*
X166370000Y-81534000D02*
X166370000Y-84074000D01*
X163576000Y-78740000D02*
X166370000Y-81534000D01*
X109220000Y-78740000D02*
X163576000Y-78740000D01*
X166370000Y-83820000D02*
X166370000Y-84074000D01*
X111760000Y-92964000D02*
X106426000Y-87630000D01*
X106426000Y-87630000D02*
X106426000Y-81534000D01*
X111760000Y-98298000D02*
X111760000Y-92964000D01*
X106426000Y-81534000D02*
X109220000Y-78740000D01*
X166370000Y-94342000D02*
X169272000Y-91440000D01*
X166370000Y-98470000D02*
X166370000Y-94342000D01*
X166370000Y-88538000D02*
X166370000Y-84074000D01*
X169272000Y-91440000D02*
X166370000Y-88538000D01*
X169672000Y-91440000D02*
X169272000Y-91440000D01*
X164674000Y-99314000D02*
X175360000Y-110000000D01*
X162452000Y-93980000D02*
X162052000Y-93980000D01*
X164674000Y-96202000D02*
X162452000Y-93980000D01*
X164674000Y-99314000D02*
X164674000Y-96202000D01*
X121920000Y-96848000D02*
X121920000Y-98298000D01*
X117274000Y-92202000D02*
X121920000Y-96848000D01*
X112522000Y-92202000D02*
X117274000Y-92202000D01*
X107442000Y-87122000D02*
X112522000Y-92202000D01*
X162052000Y-93980000D02*
X163502000Y-93980000D01*
X163502000Y-93980000D02*
X164592000Y-92890000D01*
X164592000Y-92890000D02*
X164592000Y-81280000D01*
X164592000Y-81280000D02*
X162814000Y-79502000D01*
X162814000Y-79502000D02*
X109602410Y-79502000D01*
X107442000Y-81662410D02*
X107442000Y-87122000D01*
X109602410Y-79502000D02*
X107442000Y-81662410D01*
X132080000Y-83458000D02*
X137522000Y-88900000D01*
X132080000Y-83058000D02*
X132080000Y-83458000D01*
X137522000Y-88900000D02*
X147320000Y-88900000D01*
X147320000Y-88900000D02*
X160655000Y-102235000D01*
X165055000Y-102235000D02*
X172820000Y-110000000D01*
X160655000Y-102235000D02*
X165055000Y-102235000D01*
X163150000Y-102870000D02*
X170280000Y-110000000D01*
X160274000Y-102870000D02*
X163150000Y-102870000D01*
X147066000Y-89662000D02*
X160274000Y-102870000D01*
X134694000Y-89662000D02*
X147066000Y-89662000D01*
X129540000Y-83058000D02*
X129540000Y-84508000D01*
X129540000Y-84508000D02*
X134694000Y-89662000D01*
X127000000Y-83458000D02*
X133966000Y-90424000D01*
X127000000Y-83058000D02*
X127000000Y-83458000D01*
X133966000Y-90424000D02*
X146812000Y-90424000D01*
X146812000Y-90424000D02*
X160020000Y-103632000D01*
X161372000Y-103632000D02*
X167740000Y-110000000D01*
X160020000Y-103632000D02*
X161372000Y-103632000D01*
X124460000Y-83458000D02*
X132188000Y-91186000D01*
X124460000Y-83058000D02*
X124460000Y-83458000D01*
X146386000Y-91186000D02*
X165100000Y-109900000D01*
X132188000Y-91186000D02*
X146386000Y-91186000D01*
X165100000Y-109900000D02*
X165200000Y-110000000D01*
X121920000Y-84508000D02*
X129360000Y-91948000D01*
X121920000Y-83058000D02*
X121920000Y-84508000D01*
X144608000Y-91948000D02*
X162660000Y-110000000D01*
X129360000Y-91948000D02*
X144608000Y-91948000D01*
X119380000Y-83458000D02*
X128632000Y-92710000D01*
X119380000Y-83058000D02*
X119380000Y-83458000D01*
X142830000Y-92710000D02*
X160120000Y-110000000D01*
X128632000Y-92710000D02*
X142830000Y-92710000D01*
X116840000Y-84508000D02*
X125804000Y-93472000D01*
X116840000Y-83058000D02*
X116840000Y-84508000D01*
X141052000Y-93472000D02*
X157580000Y-110000000D01*
X125804000Y-93472000D02*
X141052000Y-93472000D01*
X114300000Y-84508000D02*
X124026000Y-94234000D01*
X114300000Y-83058000D02*
X114300000Y-84508000D01*
X139274000Y-94234000D02*
X155040000Y-110000000D01*
X124026000Y-94234000D02*
X139274000Y-94234000D01*
D21*
X132180000Y-107850000D02*
X137160000Y-102870000D01*
X132180000Y-110000000D02*
X132180000Y-107850000D01*
X137160000Y-102870000D02*
X137160000Y-98298000D01*
X132180000Y-111202081D02*
X133753919Y-112776000D01*
X132180000Y-110000000D02*
X132180000Y-111202081D01*
X133753919Y-112776000D02*
X188722000Y-112776000D01*
X188722000Y-112776000D02*
X190246000Y-111252000D01*
X173736000Y-83820000D02*
X169672000Y-83820000D01*
X190246000Y-111252000D02*
X190246000Y-99314000D01*
X190246000Y-99314000D02*
X183515000Y-92583000D01*
X183515000Y-92583000D02*
X177419000Y-92583000D01*
X177419000Y-92583000D02*
X176022000Y-91186000D01*
X176022000Y-86106000D02*
X173736000Y-83820000D01*
X176022000Y-91186000D02*
X176022000Y-86106000D01*
D20*
X162452000Y-88900000D02*
X162052000Y-88900000D01*
D21*
X186179208Y-86360000D02*
X187452000Y-86360000D01*
X183399630Y-86360000D02*
X186179208Y-86360000D01*
X182626000Y-87133630D02*
X183399630Y-86360000D01*
X182626000Y-88265000D02*
X182626000Y-87133630D01*
X178943000Y-88265000D02*
X178943000Y-85217000D01*
X178943000Y-85217000D02*
X185420000Y-78740000D01*
X185420000Y-78740000D02*
X187579000Y-78740000D01*
D20*
X139700000Y-109900000D02*
X139800000Y-110000000D01*
X134720000Y-107342000D02*
X134720000Y-110000000D01*
X132080000Y-97898000D02*
X133966000Y-96012000D01*
X132080000Y-98298000D02*
X132080000Y-97898000D01*
X133966000Y-96012000D02*
X137668000Y-96012000D01*
X137668000Y-96012000D02*
X139446000Y-97790000D01*
X139446000Y-97790000D02*
X139446000Y-102616000D01*
X139446000Y-102616000D02*
X134720000Y-107342000D01*
X127100000Y-108797919D02*
X127100000Y-110000000D01*
X127100000Y-107268000D02*
X127100000Y-108797919D01*
X134620000Y-99748000D02*
X127100000Y-107268000D01*
X134620000Y-98298000D02*
X134620000Y-99748000D01*
X129540000Y-98698000D02*
X123590000Y-104648000D01*
X129540000Y-98298000D02*
X129540000Y-98698000D01*
X117212000Y-104648000D02*
X111860000Y-110000000D01*
X123590000Y-104648000D02*
X117212000Y-104648000D01*
X127000000Y-98698000D02*
X122066000Y-103632000D01*
X127000000Y-98298000D02*
X127000000Y-98698000D01*
X115688000Y-103632000D02*
X109320000Y-110000000D01*
X122066000Y-103632000D02*
X115688000Y-103632000D01*
X162052000Y-96520000D02*
X162452000Y-96520000D01*
D21*
X174498000Y-93980000D02*
X178943000Y-98425000D01*
X169672000Y-93980000D02*
X174498000Y-93980000D01*
D20*
X134620000Y-81608000D02*
X135583000Y-80645000D01*
X134620000Y-83058000D02*
X134620000Y-81608000D01*
X135583000Y-80645000D02*
X147955000Y-80645000D01*
X153670000Y-86360000D02*
X162052000Y-86360000D01*
X147955000Y-80645000D02*
X153670000Y-86360000D01*
X169272000Y-99060000D02*
X169672000Y-99060000D01*
M02*
