G04 #@! TF.GenerationSoftware,KiCad,Pcbnew,(5.1.2)-2*
G04 #@! TF.CreationDate,2021-09-18T22:18:35+02:00*
G04 #@! TF.ProjectId,aZ80_CPU,615a3830-5f43-4505-952e-6b696361645f,rev?*
G04 #@! TF.SameCoordinates,Original*
G04 #@! TF.FileFunction,Soldermask,Top*
G04 #@! TF.FilePolarity,Negative*
%FSLAX46Y46*%
G04 Gerber Fmt 4.6, Leading zero omitted, Abs format (unit mm)*
G04 Created by KiCad (PCBNEW (5.1.2)-2) date 2021-09-18 22:18:35*
%MOMM*%
%LPD*%
G04 APERTURE LIST*
%ADD10C,0.100000*%
G04 APERTURE END LIST*
D10*
G36*
X114510443Y-109105519D02*
G01*
X114576627Y-109112037D01*
X114746466Y-109163557D01*
X114902991Y-109247222D01*
X114938729Y-109276552D01*
X115040186Y-109359814D01*
X115123448Y-109461271D01*
X115152778Y-109497009D01*
X115236443Y-109653534D01*
X115287963Y-109823373D01*
X115305359Y-110000000D01*
X115287963Y-110176627D01*
X115236443Y-110346466D01*
X115152778Y-110502991D01*
X115123448Y-110538729D01*
X115040186Y-110640186D01*
X114938729Y-110723448D01*
X114902991Y-110752778D01*
X114746466Y-110836443D01*
X114576627Y-110887963D01*
X114510443Y-110894481D01*
X114444260Y-110901000D01*
X114355740Y-110901000D01*
X114289557Y-110894481D01*
X114223373Y-110887963D01*
X114053534Y-110836443D01*
X113897009Y-110752778D01*
X113861271Y-110723448D01*
X113759814Y-110640186D01*
X113676552Y-110538729D01*
X113647222Y-110502991D01*
X113563557Y-110346466D01*
X113512037Y-110176627D01*
X113494641Y-110000000D01*
X113512037Y-109823373D01*
X113563557Y-109653534D01*
X113647222Y-109497009D01*
X113676552Y-109461271D01*
X113759814Y-109359814D01*
X113861271Y-109276552D01*
X113897009Y-109247222D01*
X114053534Y-109163557D01*
X114223373Y-109112037D01*
X114289557Y-109105519D01*
X114355740Y-109099000D01*
X114444260Y-109099000D01*
X114510443Y-109105519D01*
X114510443Y-109105519D01*
G37*
G36*
X111970443Y-109105519D02*
G01*
X112036627Y-109112037D01*
X112206466Y-109163557D01*
X112362991Y-109247222D01*
X112398729Y-109276552D01*
X112500186Y-109359814D01*
X112583448Y-109461271D01*
X112612778Y-109497009D01*
X112696443Y-109653534D01*
X112747963Y-109823373D01*
X112765359Y-110000000D01*
X112747963Y-110176627D01*
X112696443Y-110346466D01*
X112612778Y-110502991D01*
X112583448Y-110538729D01*
X112500186Y-110640186D01*
X112398729Y-110723448D01*
X112362991Y-110752778D01*
X112206466Y-110836443D01*
X112036627Y-110887963D01*
X111970443Y-110894481D01*
X111904260Y-110901000D01*
X111815740Y-110901000D01*
X111749557Y-110894481D01*
X111683373Y-110887963D01*
X111513534Y-110836443D01*
X111357009Y-110752778D01*
X111321271Y-110723448D01*
X111219814Y-110640186D01*
X111136552Y-110538729D01*
X111107222Y-110502991D01*
X111023557Y-110346466D01*
X110972037Y-110176627D01*
X110954641Y-110000000D01*
X110972037Y-109823373D01*
X111023557Y-109653534D01*
X111107222Y-109497009D01*
X111136552Y-109461271D01*
X111219814Y-109359814D01*
X111321271Y-109276552D01*
X111357009Y-109247222D01*
X111513534Y-109163557D01*
X111683373Y-109112037D01*
X111749557Y-109105519D01*
X111815740Y-109099000D01*
X111904260Y-109099000D01*
X111970443Y-109105519D01*
X111970443Y-109105519D01*
G37*
G36*
X89901000Y-110901000D02*
G01*
X88099000Y-110901000D01*
X88099000Y-109099000D01*
X89901000Y-109099000D01*
X89901000Y-110901000D01*
X89901000Y-110901000D01*
G37*
G36*
X91650443Y-109105519D02*
G01*
X91716627Y-109112037D01*
X91886466Y-109163557D01*
X92042991Y-109247222D01*
X92078729Y-109276552D01*
X92180186Y-109359814D01*
X92263448Y-109461271D01*
X92292778Y-109497009D01*
X92376443Y-109653534D01*
X92427963Y-109823373D01*
X92445359Y-110000000D01*
X92427963Y-110176627D01*
X92376443Y-110346466D01*
X92292778Y-110502991D01*
X92263448Y-110538729D01*
X92180186Y-110640186D01*
X92078729Y-110723448D01*
X92042991Y-110752778D01*
X91886466Y-110836443D01*
X91716627Y-110887963D01*
X91650443Y-110894481D01*
X91584260Y-110901000D01*
X91495740Y-110901000D01*
X91429557Y-110894481D01*
X91363373Y-110887963D01*
X91193534Y-110836443D01*
X91037009Y-110752778D01*
X91001271Y-110723448D01*
X90899814Y-110640186D01*
X90816552Y-110538729D01*
X90787222Y-110502991D01*
X90703557Y-110346466D01*
X90652037Y-110176627D01*
X90634641Y-110000000D01*
X90652037Y-109823373D01*
X90703557Y-109653534D01*
X90787222Y-109497009D01*
X90816552Y-109461271D01*
X90899814Y-109359814D01*
X91001271Y-109276552D01*
X91037009Y-109247222D01*
X91193534Y-109163557D01*
X91363373Y-109112037D01*
X91429557Y-109105519D01*
X91495740Y-109099000D01*
X91584260Y-109099000D01*
X91650443Y-109105519D01*
X91650443Y-109105519D01*
G37*
G36*
X94190443Y-109105519D02*
G01*
X94256627Y-109112037D01*
X94426466Y-109163557D01*
X94582991Y-109247222D01*
X94618729Y-109276552D01*
X94720186Y-109359814D01*
X94803448Y-109461271D01*
X94832778Y-109497009D01*
X94916443Y-109653534D01*
X94967963Y-109823373D01*
X94985359Y-110000000D01*
X94967963Y-110176627D01*
X94916443Y-110346466D01*
X94832778Y-110502991D01*
X94803448Y-110538729D01*
X94720186Y-110640186D01*
X94618729Y-110723448D01*
X94582991Y-110752778D01*
X94426466Y-110836443D01*
X94256627Y-110887963D01*
X94190443Y-110894481D01*
X94124260Y-110901000D01*
X94035740Y-110901000D01*
X93969557Y-110894481D01*
X93903373Y-110887963D01*
X93733534Y-110836443D01*
X93577009Y-110752778D01*
X93541271Y-110723448D01*
X93439814Y-110640186D01*
X93356552Y-110538729D01*
X93327222Y-110502991D01*
X93243557Y-110346466D01*
X93192037Y-110176627D01*
X93174641Y-110000000D01*
X93192037Y-109823373D01*
X93243557Y-109653534D01*
X93327222Y-109497009D01*
X93356552Y-109461271D01*
X93439814Y-109359814D01*
X93541271Y-109276552D01*
X93577009Y-109247222D01*
X93733534Y-109163557D01*
X93903373Y-109112037D01*
X93969557Y-109105519D01*
X94035740Y-109099000D01*
X94124260Y-109099000D01*
X94190443Y-109105519D01*
X94190443Y-109105519D01*
G37*
G36*
X96730443Y-109105519D02*
G01*
X96796627Y-109112037D01*
X96966466Y-109163557D01*
X97122991Y-109247222D01*
X97158729Y-109276552D01*
X97260186Y-109359814D01*
X97343448Y-109461271D01*
X97372778Y-109497009D01*
X97456443Y-109653534D01*
X97507963Y-109823373D01*
X97525359Y-110000000D01*
X97507963Y-110176627D01*
X97456443Y-110346466D01*
X97372778Y-110502991D01*
X97343448Y-110538729D01*
X97260186Y-110640186D01*
X97158729Y-110723448D01*
X97122991Y-110752778D01*
X96966466Y-110836443D01*
X96796627Y-110887963D01*
X96730443Y-110894481D01*
X96664260Y-110901000D01*
X96575740Y-110901000D01*
X96509557Y-110894481D01*
X96443373Y-110887963D01*
X96273534Y-110836443D01*
X96117009Y-110752778D01*
X96081271Y-110723448D01*
X95979814Y-110640186D01*
X95896552Y-110538729D01*
X95867222Y-110502991D01*
X95783557Y-110346466D01*
X95732037Y-110176627D01*
X95714641Y-110000000D01*
X95732037Y-109823373D01*
X95783557Y-109653534D01*
X95867222Y-109497009D01*
X95896552Y-109461271D01*
X95979814Y-109359814D01*
X96081271Y-109276552D01*
X96117009Y-109247222D01*
X96273534Y-109163557D01*
X96443373Y-109112037D01*
X96509557Y-109105519D01*
X96575740Y-109099000D01*
X96664260Y-109099000D01*
X96730443Y-109105519D01*
X96730443Y-109105519D01*
G37*
G36*
X99270443Y-109105519D02*
G01*
X99336627Y-109112037D01*
X99506466Y-109163557D01*
X99662991Y-109247222D01*
X99698729Y-109276552D01*
X99800186Y-109359814D01*
X99883448Y-109461271D01*
X99912778Y-109497009D01*
X99996443Y-109653534D01*
X100047963Y-109823373D01*
X100065359Y-110000000D01*
X100047963Y-110176627D01*
X99996443Y-110346466D01*
X99912778Y-110502991D01*
X99883448Y-110538729D01*
X99800186Y-110640186D01*
X99698729Y-110723448D01*
X99662991Y-110752778D01*
X99506466Y-110836443D01*
X99336627Y-110887963D01*
X99270443Y-110894481D01*
X99204260Y-110901000D01*
X99115740Y-110901000D01*
X99049557Y-110894481D01*
X98983373Y-110887963D01*
X98813534Y-110836443D01*
X98657009Y-110752778D01*
X98621271Y-110723448D01*
X98519814Y-110640186D01*
X98436552Y-110538729D01*
X98407222Y-110502991D01*
X98323557Y-110346466D01*
X98272037Y-110176627D01*
X98254641Y-110000000D01*
X98272037Y-109823373D01*
X98323557Y-109653534D01*
X98407222Y-109497009D01*
X98436552Y-109461271D01*
X98519814Y-109359814D01*
X98621271Y-109276552D01*
X98657009Y-109247222D01*
X98813534Y-109163557D01*
X98983373Y-109112037D01*
X99049557Y-109105519D01*
X99115740Y-109099000D01*
X99204260Y-109099000D01*
X99270443Y-109105519D01*
X99270443Y-109105519D01*
G37*
G36*
X101810443Y-109105519D02*
G01*
X101876627Y-109112037D01*
X102046466Y-109163557D01*
X102202991Y-109247222D01*
X102238729Y-109276552D01*
X102340186Y-109359814D01*
X102423448Y-109461271D01*
X102452778Y-109497009D01*
X102536443Y-109653534D01*
X102587963Y-109823373D01*
X102605359Y-110000000D01*
X102587963Y-110176627D01*
X102536443Y-110346466D01*
X102452778Y-110502991D01*
X102423448Y-110538729D01*
X102340186Y-110640186D01*
X102238729Y-110723448D01*
X102202991Y-110752778D01*
X102046466Y-110836443D01*
X101876627Y-110887963D01*
X101810443Y-110894481D01*
X101744260Y-110901000D01*
X101655740Y-110901000D01*
X101589557Y-110894481D01*
X101523373Y-110887963D01*
X101353534Y-110836443D01*
X101197009Y-110752778D01*
X101161271Y-110723448D01*
X101059814Y-110640186D01*
X100976552Y-110538729D01*
X100947222Y-110502991D01*
X100863557Y-110346466D01*
X100812037Y-110176627D01*
X100794641Y-110000000D01*
X100812037Y-109823373D01*
X100863557Y-109653534D01*
X100947222Y-109497009D01*
X100976552Y-109461271D01*
X101059814Y-109359814D01*
X101161271Y-109276552D01*
X101197009Y-109247222D01*
X101353534Y-109163557D01*
X101523373Y-109112037D01*
X101589557Y-109105519D01*
X101655740Y-109099000D01*
X101744260Y-109099000D01*
X101810443Y-109105519D01*
X101810443Y-109105519D01*
G37*
G36*
X104350443Y-109105519D02*
G01*
X104416627Y-109112037D01*
X104586466Y-109163557D01*
X104742991Y-109247222D01*
X104778729Y-109276552D01*
X104880186Y-109359814D01*
X104963448Y-109461271D01*
X104992778Y-109497009D01*
X105076443Y-109653534D01*
X105127963Y-109823373D01*
X105145359Y-110000000D01*
X105127963Y-110176627D01*
X105076443Y-110346466D01*
X104992778Y-110502991D01*
X104963448Y-110538729D01*
X104880186Y-110640186D01*
X104778729Y-110723448D01*
X104742991Y-110752778D01*
X104586466Y-110836443D01*
X104416627Y-110887963D01*
X104350443Y-110894481D01*
X104284260Y-110901000D01*
X104195740Y-110901000D01*
X104129557Y-110894481D01*
X104063373Y-110887963D01*
X103893534Y-110836443D01*
X103737009Y-110752778D01*
X103701271Y-110723448D01*
X103599814Y-110640186D01*
X103516552Y-110538729D01*
X103487222Y-110502991D01*
X103403557Y-110346466D01*
X103352037Y-110176627D01*
X103334641Y-110000000D01*
X103352037Y-109823373D01*
X103403557Y-109653534D01*
X103487222Y-109497009D01*
X103516552Y-109461271D01*
X103599814Y-109359814D01*
X103701271Y-109276552D01*
X103737009Y-109247222D01*
X103893534Y-109163557D01*
X104063373Y-109112037D01*
X104129557Y-109105519D01*
X104195740Y-109099000D01*
X104284260Y-109099000D01*
X104350443Y-109105519D01*
X104350443Y-109105519D01*
G37*
G36*
X106890443Y-109105519D02*
G01*
X106956627Y-109112037D01*
X107126466Y-109163557D01*
X107282991Y-109247222D01*
X107318729Y-109276552D01*
X107420186Y-109359814D01*
X107503448Y-109461271D01*
X107532778Y-109497009D01*
X107616443Y-109653534D01*
X107667963Y-109823373D01*
X107685359Y-110000000D01*
X107667963Y-110176627D01*
X107616443Y-110346466D01*
X107532778Y-110502991D01*
X107503448Y-110538729D01*
X107420186Y-110640186D01*
X107318729Y-110723448D01*
X107282991Y-110752778D01*
X107126466Y-110836443D01*
X106956627Y-110887963D01*
X106890443Y-110894481D01*
X106824260Y-110901000D01*
X106735740Y-110901000D01*
X106669557Y-110894481D01*
X106603373Y-110887963D01*
X106433534Y-110836443D01*
X106277009Y-110752778D01*
X106241271Y-110723448D01*
X106139814Y-110640186D01*
X106056552Y-110538729D01*
X106027222Y-110502991D01*
X105943557Y-110346466D01*
X105892037Y-110176627D01*
X105874641Y-110000000D01*
X105892037Y-109823373D01*
X105943557Y-109653534D01*
X106027222Y-109497009D01*
X106056552Y-109461271D01*
X106139814Y-109359814D01*
X106241271Y-109276552D01*
X106277009Y-109247222D01*
X106433534Y-109163557D01*
X106603373Y-109112037D01*
X106669557Y-109105519D01*
X106735740Y-109099000D01*
X106824260Y-109099000D01*
X106890443Y-109105519D01*
X106890443Y-109105519D01*
G37*
G36*
X109430443Y-109105519D02*
G01*
X109496627Y-109112037D01*
X109666466Y-109163557D01*
X109822991Y-109247222D01*
X109858729Y-109276552D01*
X109960186Y-109359814D01*
X110043448Y-109461271D01*
X110072778Y-109497009D01*
X110156443Y-109653534D01*
X110207963Y-109823373D01*
X110225359Y-110000000D01*
X110207963Y-110176627D01*
X110156443Y-110346466D01*
X110072778Y-110502991D01*
X110043448Y-110538729D01*
X109960186Y-110640186D01*
X109858729Y-110723448D01*
X109822991Y-110752778D01*
X109666466Y-110836443D01*
X109496627Y-110887963D01*
X109430443Y-110894481D01*
X109364260Y-110901000D01*
X109275740Y-110901000D01*
X109209557Y-110894481D01*
X109143373Y-110887963D01*
X108973534Y-110836443D01*
X108817009Y-110752778D01*
X108781271Y-110723448D01*
X108679814Y-110640186D01*
X108596552Y-110538729D01*
X108567222Y-110502991D01*
X108483557Y-110346466D01*
X108432037Y-110176627D01*
X108414641Y-110000000D01*
X108432037Y-109823373D01*
X108483557Y-109653534D01*
X108567222Y-109497009D01*
X108596552Y-109461271D01*
X108679814Y-109359814D01*
X108781271Y-109276552D01*
X108817009Y-109247222D01*
X108973534Y-109163557D01*
X109143373Y-109112037D01*
X109209557Y-109105519D01*
X109275740Y-109099000D01*
X109364260Y-109099000D01*
X109430443Y-109105519D01*
X109430443Y-109105519D01*
G37*
G36*
X139910443Y-109105519D02*
G01*
X139976627Y-109112037D01*
X140146466Y-109163557D01*
X140302991Y-109247222D01*
X140338729Y-109276552D01*
X140440186Y-109359814D01*
X140523448Y-109461271D01*
X140552778Y-109497009D01*
X140636443Y-109653534D01*
X140687963Y-109823373D01*
X140705359Y-110000000D01*
X140687963Y-110176627D01*
X140636443Y-110346466D01*
X140552778Y-110502991D01*
X140523448Y-110538729D01*
X140440186Y-110640186D01*
X140338729Y-110723448D01*
X140302991Y-110752778D01*
X140146466Y-110836443D01*
X139976627Y-110887963D01*
X139910443Y-110894481D01*
X139844260Y-110901000D01*
X139755740Y-110901000D01*
X139689557Y-110894481D01*
X139623373Y-110887963D01*
X139453534Y-110836443D01*
X139297009Y-110752778D01*
X139261271Y-110723448D01*
X139159814Y-110640186D01*
X139076552Y-110538729D01*
X139047222Y-110502991D01*
X138963557Y-110346466D01*
X138912037Y-110176627D01*
X138894641Y-110000000D01*
X138912037Y-109823373D01*
X138963557Y-109653534D01*
X139047222Y-109497009D01*
X139076552Y-109461271D01*
X139159814Y-109359814D01*
X139261271Y-109276552D01*
X139297009Y-109247222D01*
X139453534Y-109163557D01*
X139623373Y-109112037D01*
X139689557Y-109105519D01*
X139755740Y-109099000D01*
X139844260Y-109099000D01*
X139910443Y-109105519D01*
X139910443Y-109105519D01*
G37*
G36*
X117050443Y-109105519D02*
G01*
X117116627Y-109112037D01*
X117286466Y-109163557D01*
X117442991Y-109247222D01*
X117478729Y-109276552D01*
X117580186Y-109359814D01*
X117663448Y-109461271D01*
X117692778Y-109497009D01*
X117776443Y-109653534D01*
X117827963Y-109823373D01*
X117845359Y-110000000D01*
X117827963Y-110176627D01*
X117776443Y-110346466D01*
X117692778Y-110502991D01*
X117663448Y-110538729D01*
X117580186Y-110640186D01*
X117478729Y-110723448D01*
X117442991Y-110752778D01*
X117286466Y-110836443D01*
X117116627Y-110887963D01*
X117050443Y-110894481D01*
X116984260Y-110901000D01*
X116895740Y-110901000D01*
X116829557Y-110894481D01*
X116763373Y-110887963D01*
X116593534Y-110836443D01*
X116437009Y-110752778D01*
X116401271Y-110723448D01*
X116299814Y-110640186D01*
X116216552Y-110538729D01*
X116187222Y-110502991D01*
X116103557Y-110346466D01*
X116052037Y-110176627D01*
X116034641Y-110000000D01*
X116052037Y-109823373D01*
X116103557Y-109653534D01*
X116187222Y-109497009D01*
X116216552Y-109461271D01*
X116299814Y-109359814D01*
X116401271Y-109276552D01*
X116437009Y-109247222D01*
X116593534Y-109163557D01*
X116763373Y-109112037D01*
X116829557Y-109105519D01*
X116895740Y-109099000D01*
X116984260Y-109099000D01*
X117050443Y-109105519D01*
X117050443Y-109105519D01*
G37*
G36*
X119590443Y-109105519D02*
G01*
X119656627Y-109112037D01*
X119826466Y-109163557D01*
X119982991Y-109247222D01*
X120018729Y-109276552D01*
X120120186Y-109359814D01*
X120203448Y-109461271D01*
X120232778Y-109497009D01*
X120316443Y-109653534D01*
X120367963Y-109823373D01*
X120385359Y-110000000D01*
X120367963Y-110176627D01*
X120316443Y-110346466D01*
X120232778Y-110502991D01*
X120203448Y-110538729D01*
X120120186Y-110640186D01*
X120018729Y-110723448D01*
X119982991Y-110752778D01*
X119826466Y-110836443D01*
X119656627Y-110887963D01*
X119590443Y-110894481D01*
X119524260Y-110901000D01*
X119435740Y-110901000D01*
X119369557Y-110894481D01*
X119303373Y-110887963D01*
X119133534Y-110836443D01*
X118977009Y-110752778D01*
X118941271Y-110723448D01*
X118839814Y-110640186D01*
X118756552Y-110538729D01*
X118727222Y-110502991D01*
X118643557Y-110346466D01*
X118592037Y-110176627D01*
X118574641Y-110000000D01*
X118592037Y-109823373D01*
X118643557Y-109653534D01*
X118727222Y-109497009D01*
X118756552Y-109461271D01*
X118839814Y-109359814D01*
X118941271Y-109276552D01*
X118977009Y-109247222D01*
X119133534Y-109163557D01*
X119303373Y-109112037D01*
X119369557Y-109105519D01*
X119435740Y-109099000D01*
X119524260Y-109099000D01*
X119590443Y-109105519D01*
X119590443Y-109105519D01*
G37*
G36*
X122130443Y-109105519D02*
G01*
X122196627Y-109112037D01*
X122366466Y-109163557D01*
X122522991Y-109247222D01*
X122558729Y-109276552D01*
X122660186Y-109359814D01*
X122743448Y-109461271D01*
X122772778Y-109497009D01*
X122856443Y-109653534D01*
X122907963Y-109823373D01*
X122925359Y-110000000D01*
X122907963Y-110176627D01*
X122856443Y-110346466D01*
X122772778Y-110502991D01*
X122743448Y-110538729D01*
X122660186Y-110640186D01*
X122558729Y-110723448D01*
X122522991Y-110752778D01*
X122366466Y-110836443D01*
X122196627Y-110887963D01*
X122130443Y-110894481D01*
X122064260Y-110901000D01*
X121975740Y-110901000D01*
X121909557Y-110894481D01*
X121843373Y-110887963D01*
X121673534Y-110836443D01*
X121517009Y-110752778D01*
X121481271Y-110723448D01*
X121379814Y-110640186D01*
X121296552Y-110538729D01*
X121267222Y-110502991D01*
X121183557Y-110346466D01*
X121132037Y-110176627D01*
X121114641Y-110000000D01*
X121132037Y-109823373D01*
X121183557Y-109653534D01*
X121267222Y-109497009D01*
X121296552Y-109461271D01*
X121379814Y-109359814D01*
X121481271Y-109276552D01*
X121517009Y-109247222D01*
X121673534Y-109163557D01*
X121843373Y-109112037D01*
X121909557Y-109105519D01*
X121975740Y-109099000D01*
X122064260Y-109099000D01*
X122130443Y-109105519D01*
X122130443Y-109105519D01*
G37*
G36*
X124670443Y-109105519D02*
G01*
X124736627Y-109112037D01*
X124906466Y-109163557D01*
X125062991Y-109247222D01*
X125098729Y-109276552D01*
X125200186Y-109359814D01*
X125283448Y-109461271D01*
X125312778Y-109497009D01*
X125396443Y-109653534D01*
X125447963Y-109823373D01*
X125465359Y-110000000D01*
X125447963Y-110176627D01*
X125396443Y-110346466D01*
X125312778Y-110502991D01*
X125283448Y-110538729D01*
X125200186Y-110640186D01*
X125098729Y-110723448D01*
X125062991Y-110752778D01*
X124906466Y-110836443D01*
X124736627Y-110887963D01*
X124670443Y-110894481D01*
X124604260Y-110901000D01*
X124515740Y-110901000D01*
X124449557Y-110894481D01*
X124383373Y-110887963D01*
X124213534Y-110836443D01*
X124057009Y-110752778D01*
X124021271Y-110723448D01*
X123919814Y-110640186D01*
X123836552Y-110538729D01*
X123807222Y-110502991D01*
X123723557Y-110346466D01*
X123672037Y-110176627D01*
X123654641Y-110000000D01*
X123672037Y-109823373D01*
X123723557Y-109653534D01*
X123807222Y-109497009D01*
X123836552Y-109461271D01*
X123919814Y-109359814D01*
X124021271Y-109276552D01*
X124057009Y-109247222D01*
X124213534Y-109163557D01*
X124383373Y-109112037D01*
X124449557Y-109105519D01*
X124515740Y-109099000D01*
X124604260Y-109099000D01*
X124670443Y-109105519D01*
X124670443Y-109105519D01*
G37*
G36*
X127210443Y-109105519D02*
G01*
X127276627Y-109112037D01*
X127446466Y-109163557D01*
X127602991Y-109247222D01*
X127638729Y-109276552D01*
X127740186Y-109359814D01*
X127823448Y-109461271D01*
X127852778Y-109497009D01*
X127936443Y-109653534D01*
X127987963Y-109823373D01*
X128005359Y-110000000D01*
X127987963Y-110176627D01*
X127936443Y-110346466D01*
X127852778Y-110502991D01*
X127823448Y-110538729D01*
X127740186Y-110640186D01*
X127638729Y-110723448D01*
X127602991Y-110752778D01*
X127446466Y-110836443D01*
X127276627Y-110887963D01*
X127210443Y-110894481D01*
X127144260Y-110901000D01*
X127055740Y-110901000D01*
X126989557Y-110894481D01*
X126923373Y-110887963D01*
X126753534Y-110836443D01*
X126597009Y-110752778D01*
X126561271Y-110723448D01*
X126459814Y-110640186D01*
X126376552Y-110538729D01*
X126347222Y-110502991D01*
X126263557Y-110346466D01*
X126212037Y-110176627D01*
X126194641Y-110000000D01*
X126212037Y-109823373D01*
X126263557Y-109653534D01*
X126347222Y-109497009D01*
X126376552Y-109461271D01*
X126459814Y-109359814D01*
X126561271Y-109276552D01*
X126597009Y-109247222D01*
X126753534Y-109163557D01*
X126923373Y-109112037D01*
X126989557Y-109105519D01*
X127055740Y-109099000D01*
X127144260Y-109099000D01*
X127210443Y-109105519D01*
X127210443Y-109105519D01*
G37*
G36*
X129750443Y-109105519D02*
G01*
X129816627Y-109112037D01*
X129986466Y-109163557D01*
X130142991Y-109247222D01*
X130178729Y-109276552D01*
X130280186Y-109359814D01*
X130363448Y-109461271D01*
X130392778Y-109497009D01*
X130476443Y-109653534D01*
X130527963Y-109823373D01*
X130545359Y-110000000D01*
X130527963Y-110176627D01*
X130476443Y-110346466D01*
X130392778Y-110502991D01*
X130363448Y-110538729D01*
X130280186Y-110640186D01*
X130178729Y-110723448D01*
X130142991Y-110752778D01*
X129986466Y-110836443D01*
X129816627Y-110887963D01*
X129750443Y-110894481D01*
X129684260Y-110901000D01*
X129595740Y-110901000D01*
X129529557Y-110894481D01*
X129463373Y-110887963D01*
X129293534Y-110836443D01*
X129137009Y-110752778D01*
X129101271Y-110723448D01*
X128999814Y-110640186D01*
X128916552Y-110538729D01*
X128887222Y-110502991D01*
X128803557Y-110346466D01*
X128752037Y-110176627D01*
X128734641Y-110000000D01*
X128752037Y-109823373D01*
X128803557Y-109653534D01*
X128887222Y-109497009D01*
X128916552Y-109461271D01*
X128999814Y-109359814D01*
X129101271Y-109276552D01*
X129137009Y-109247222D01*
X129293534Y-109163557D01*
X129463373Y-109112037D01*
X129529557Y-109105519D01*
X129595740Y-109099000D01*
X129684260Y-109099000D01*
X129750443Y-109105519D01*
X129750443Y-109105519D01*
G37*
G36*
X132290443Y-109105519D02*
G01*
X132356627Y-109112037D01*
X132526466Y-109163557D01*
X132682991Y-109247222D01*
X132718729Y-109276552D01*
X132820186Y-109359814D01*
X132903448Y-109461271D01*
X132932778Y-109497009D01*
X133016443Y-109653534D01*
X133067963Y-109823373D01*
X133085359Y-110000000D01*
X133067963Y-110176627D01*
X133016443Y-110346466D01*
X132932778Y-110502991D01*
X132903448Y-110538729D01*
X132820186Y-110640186D01*
X132718729Y-110723448D01*
X132682991Y-110752778D01*
X132526466Y-110836443D01*
X132356627Y-110887963D01*
X132290443Y-110894481D01*
X132224260Y-110901000D01*
X132135740Y-110901000D01*
X132069557Y-110894481D01*
X132003373Y-110887963D01*
X131833534Y-110836443D01*
X131677009Y-110752778D01*
X131641271Y-110723448D01*
X131539814Y-110640186D01*
X131456552Y-110538729D01*
X131427222Y-110502991D01*
X131343557Y-110346466D01*
X131292037Y-110176627D01*
X131274641Y-110000000D01*
X131292037Y-109823373D01*
X131343557Y-109653534D01*
X131427222Y-109497009D01*
X131456552Y-109461271D01*
X131539814Y-109359814D01*
X131641271Y-109276552D01*
X131677009Y-109247222D01*
X131833534Y-109163557D01*
X132003373Y-109112037D01*
X132069557Y-109105519D01*
X132135740Y-109099000D01*
X132224260Y-109099000D01*
X132290443Y-109105519D01*
X132290443Y-109105519D01*
G37*
G36*
X134830443Y-109105519D02*
G01*
X134896627Y-109112037D01*
X135066466Y-109163557D01*
X135222991Y-109247222D01*
X135258729Y-109276552D01*
X135360186Y-109359814D01*
X135443448Y-109461271D01*
X135472778Y-109497009D01*
X135556443Y-109653534D01*
X135607963Y-109823373D01*
X135625359Y-110000000D01*
X135607963Y-110176627D01*
X135556443Y-110346466D01*
X135472778Y-110502991D01*
X135443448Y-110538729D01*
X135360186Y-110640186D01*
X135258729Y-110723448D01*
X135222991Y-110752778D01*
X135066466Y-110836443D01*
X134896627Y-110887963D01*
X134830443Y-110894481D01*
X134764260Y-110901000D01*
X134675740Y-110901000D01*
X134609557Y-110894481D01*
X134543373Y-110887963D01*
X134373534Y-110836443D01*
X134217009Y-110752778D01*
X134181271Y-110723448D01*
X134079814Y-110640186D01*
X133996552Y-110538729D01*
X133967222Y-110502991D01*
X133883557Y-110346466D01*
X133832037Y-110176627D01*
X133814641Y-110000000D01*
X133832037Y-109823373D01*
X133883557Y-109653534D01*
X133967222Y-109497009D01*
X133996552Y-109461271D01*
X134079814Y-109359814D01*
X134181271Y-109276552D01*
X134217009Y-109247222D01*
X134373534Y-109163557D01*
X134543373Y-109112037D01*
X134609557Y-109105519D01*
X134675740Y-109099000D01*
X134764260Y-109099000D01*
X134830443Y-109105519D01*
X134830443Y-109105519D01*
G37*
G36*
X165310443Y-109105519D02*
G01*
X165376627Y-109112037D01*
X165546466Y-109163557D01*
X165702991Y-109247222D01*
X165738729Y-109276552D01*
X165840186Y-109359814D01*
X165923448Y-109461271D01*
X165952778Y-109497009D01*
X166036443Y-109653534D01*
X166087963Y-109823373D01*
X166105359Y-110000000D01*
X166087963Y-110176627D01*
X166036443Y-110346466D01*
X165952778Y-110502991D01*
X165923448Y-110538729D01*
X165840186Y-110640186D01*
X165738729Y-110723448D01*
X165702991Y-110752778D01*
X165546466Y-110836443D01*
X165376627Y-110887963D01*
X165310443Y-110894481D01*
X165244260Y-110901000D01*
X165155740Y-110901000D01*
X165089557Y-110894481D01*
X165023373Y-110887963D01*
X164853534Y-110836443D01*
X164697009Y-110752778D01*
X164661271Y-110723448D01*
X164559814Y-110640186D01*
X164476552Y-110538729D01*
X164447222Y-110502991D01*
X164363557Y-110346466D01*
X164312037Y-110176627D01*
X164294641Y-110000000D01*
X164312037Y-109823373D01*
X164363557Y-109653534D01*
X164447222Y-109497009D01*
X164476552Y-109461271D01*
X164559814Y-109359814D01*
X164661271Y-109276552D01*
X164697009Y-109247222D01*
X164853534Y-109163557D01*
X165023373Y-109112037D01*
X165089557Y-109105519D01*
X165155740Y-109099000D01*
X165244260Y-109099000D01*
X165310443Y-109105519D01*
X165310443Y-109105519D01*
G37*
G36*
X185630443Y-109105519D02*
G01*
X185696627Y-109112037D01*
X185866466Y-109163557D01*
X186022991Y-109247222D01*
X186058729Y-109276552D01*
X186160186Y-109359814D01*
X186243448Y-109461271D01*
X186272778Y-109497009D01*
X186356443Y-109653534D01*
X186407963Y-109823373D01*
X186425359Y-110000000D01*
X186407963Y-110176627D01*
X186356443Y-110346466D01*
X186272778Y-110502991D01*
X186243448Y-110538729D01*
X186160186Y-110640186D01*
X186058729Y-110723448D01*
X186022991Y-110752778D01*
X185866466Y-110836443D01*
X185696627Y-110887963D01*
X185630443Y-110894481D01*
X185564260Y-110901000D01*
X185475740Y-110901000D01*
X185409557Y-110894481D01*
X185343373Y-110887963D01*
X185173534Y-110836443D01*
X185017009Y-110752778D01*
X184981271Y-110723448D01*
X184879814Y-110640186D01*
X184796552Y-110538729D01*
X184767222Y-110502991D01*
X184683557Y-110346466D01*
X184632037Y-110176627D01*
X184614641Y-110000000D01*
X184632037Y-109823373D01*
X184683557Y-109653534D01*
X184767222Y-109497009D01*
X184796552Y-109461271D01*
X184879814Y-109359814D01*
X184981271Y-109276552D01*
X185017009Y-109247222D01*
X185173534Y-109163557D01*
X185343373Y-109112037D01*
X185409557Y-109105519D01*
X185475740Y-109099000D01*
X185564260Y-109099000D01*
X185630443Y-109105519D01*
X185630443Y-109105519D01*
G37*
G36*
X142450443Y-109105519D02*
G01*
X142516627Y-109112037D01*
X142686466Y-109163557D01*
X142842991Y-109247222D01*
X142878729Y-109276552D01*
X142980186Y-109359814D01*
X143063448Y-109461271D01*
X143092778Y-109497009D01*
X143176443Y-109653534D01*
X143227963Y-109823373D01*
X143245359Y-110000000D01*
X143227963Y-110176627D01*
X143176443Y-110346466D01*
X143092778Y-110502991D01*
X143063448Y-110538729D01*
X142980186Y-110640186D01*
X142878729Y-110723448D01*
X142842991Y-110752778D01*
X142686466Y-110836443D01*
X142516627Y-110887963D01*
X142450443Y-110894481D01*
X142384260Y-110901000D01*
X142295740Y-110901000D01*
X142229557Y-110894481D01*
X142163373Y-110887963D01*
X141993534Y-110836443D01*
X141837009Y-110752778D01*
X141801271Y-110723448D01*
X141699814Y-110640186D01*
X141616552Y-110538729D01*
X141587222Y-110502991D01*
X141503557Y-110346466D01*
X141452037Y-110176627D01*
X141434641Y-110000000D01*
X141452037Y-109823373D01*
X141503557Y-109653534D01*
X141587222Y-109497009D01*
X141616552Y-109461271D01*
X141699814Y-109359814D01*
X141801271Y-109276552D01*
X141837009Y-109247222D01*
X141993534Y-109163557D01*
X142163373Y-109112037D01*
X142229557Y-109105519D01*
X142295740Y-109099000D01*
X142384260Y-109099000D01*
X142450443Y-109105519D01*
X142450443Y-109105519D01*
G37*
G36*
X144990443Y-109105519D02*
G01*
X145056627Y-109112037D01*
X145226466Y-109163557D01*
X145382991Y-109247222D01*
X145418729Y-109276552D01*
X145520186Y-109359814D01*
X145603448Y-109461271D01*
X145632778Y-109497009D01*
X145716443Y-109653534D01*
X145767963Y-109823373D01*
X145785359Y-110000000D01*
X145767963Y-110176627D01*
X145716443Y-110346466D01*
X145632778Y-110502991D01*
X145603448Y-110538729D01*
X145520186Y-110640186D01*
X145418729Y-110723448D01*
X145382991Y-110752778D01*
X145226466Y-110836443D01*
X145056627Y-110887963D01*
X144990443Y-110894481D01*
X144924260Y-110901000D01*
X144835740Y-110901000D01*
X144769557Y-110894481D01*
X144703373Y-110887963D01*
X144533534Y-110836443D01*
X144377009Y-110752778D01*
X144341271Y-110723448D01*
X144239814Y-110640186D01*
X144156552Y-110538729D01*
X144127222Y-110502991D01*
X144043557Y-110346466D01*
X143992037Y-110176627D01*
X143974641Y-110000000D01*
X143992037Y-109823373D01*
X144043557Y-109653534D01*
X144127222Y-109497009D01*
X144156552Y-109461271D01*
X144239814Y-109359814D01*
X144341271Y-109276552D01*
X144377009Y-109247222D01*
X144533534Y-109163557D01*
X144703373Y-109112037D01*
X144769557Y-109105519D01*
X144835740Y-109099000D01*
X144924260Y-109099000D01*
X144990443Y-109105519D01*
X144990443Y-109105519D01*
G37*
G36*
X147530443Y-109105519D02*
G01*
X147596627Y-109112037D01*
X147766466Y-109163557D01*
X147922991Y-109247222D01*
X147958729Y-109276552D01*
X148060186Y-109359814D01*
X148143448Y-109461271D01*
X148172778Y-109497009D01*
X148256443Y-109653534D01*
X148307963Y-109823373D01*
X148325359Y-110000000D01*
X148307963Y-110176627D01*
X148256443Y-110346466D01*
X148172778Y-110502991D01*
X148143448Y-110538729D01*
X148060186Y-110640186D01*
X147958729Y-110723448D01*
X147922991Y-110752778D01*
X147766466Y-110836443D01*
X147596627Y-110887963D01*
X147530443Y-110894481D01*
X147464260Y-110901000D01*
X147375740Y-110901000D01*
X147309557Y-110894481D01*
X147243373Y-110887963D01*
X147073534Y-110836443D01*
X146917009Y-110752778D01*
X146881271Y-110723448D01*
X146779814Y-110640186D01*
X146696552Y-110538729D01*
X146667222Y-110502991D01*
X146583557Y-110346466D01*
X146532037Y-110176627D01*
X146514641Y-110000000D01*
X146532037Y-109823373D01*
X146583557Y-109653534D01*
X146667222Y-109497009D01*
X146696552Y-109461271D01*
X146779814Y-109359814D01*
X146881271Y-109276552D01*
X146917009Y-109247222D01*
X147073534Y-109163557D01*
X147243373Y-109112037D01*
X147309557Y-109105519D01*
X147375740Y-109099000D01*
X147464260Y-109099000D01*
X147530443Y-109105519D01*
X147530443Y-109105519D01*
G37*
G36*
X150070443Y-109105519D02*
G01*
X150136627Y-109112037D01*
X150306466Y-109163557D01*
X150462991Y-109247222D01*
X150498729Y-109276552D01*
X150600186Y-109359814D01*
X150683448Y-109461271D01*
X150712778Y-109497009D01*
X150796443Y-109653534D01*
X150847963Y-109823373D01*
X150865359Y-110000000D01*
X150847963Y-110176627D01*
X150796443Y-110346466D01*
X150712778Y-110502991D01*
X150683448Y-110538729D01*
X150600186Y-110640186D01*
X150498729Y-110723448D01*
X150462991Y-110752778D01*
X150306466Y-110836443D01*
X150136627Y-110887963D01*
X150070443Y-110894481D01*
X150004260Y-110901000D01*
X149915740Y-110901000D01*
X149849557Y-110894481D01*
X149783373Y-110887963D01*
X149613534Y-110836443D01*
X149457009Y-110752778D01*
X149421271Y-110723448D01*
X149319814Y-110640186D01*
X149236552Y-110538729D01*
X149207222Y-110502991D01*
X149123557Y-110346466D01*
X149072037Y-110176627D01*
X149054641Y-110000000D01*
X149072037Y-109823373D01*
X149123557Y-109653534D01*
X149207222Y-109497009D01*
X149236552Y-109461271D01*
X149319814Y-109359814D01*
X149421271Y-109276552D01*
X149457009Y-109247222D01*
X149613534Y-109163557D01*
X149783373Y-109112037D01*
X149849557Y-109105519D01*
X149915740Y-109099000D01*
X150004260Y-109099000D01*
X150070443Y-109105519D01*
X150070443Y-109105519D01*
G37*
G36*
X152610443Y-109105519D02*
G01*
X152676627Y-109112037D01*
X152846466Y-109163557D01*
X153002991Y-109247222D01*
X153038729Y-109276552D01*
X153140186Y-109359814D01*
X153223448Y-109461271D01*
X153252778Y-109497009D01*
X153336443Y-109653534D01*
X153387963Y-109823373D01*
X153405359Y-110000000D01*
X153387963Y-110176627D01*
X153336443Y-110346466D01*
X153252778Y-110502991D01*
X153223448Y-110538729D01*
X153140186Y-110640186D01*
X153038729Y-110723448D01*
X153002991Y-110752778D01*
X152846466Y-110836443D01*
X152676627Y-110887963D01*
X152610443Y-110894481D01*
X152544260Y-110901000D01*
X152455740Y-110901000D01*
X152389557Y-110894481D01*
X152323373Y-110887963D01*
X152153534Y-110836443D01*
X151997009Y-110752778D01*
X151961271Y-110723448D01*
X151859814Y-110640186D01*
X151776552Y-110538729D01*
X151747222Y-110502991D01*
X151663557Y-110346466D01*
X151612037Y-110176627D01*
X151594641Y-110000000D01*
X151612037Y-109823373D01*
X151663557Y-109653534D01*
X151747222Y-109497009D01*
X151776552Y-109461271D01*
X151859814Y-109359814D01*
X151961271Y-109276552D01*
X151997009Y-109247222D01*
X152153534Y-109163557D01*
X152323373Y-109112037D01*
X152389557Y-109105519D01*
X152455740Y-109099000D01*
X152544260Y-109099000D01*
X152610443Y-109105519D01*
X152610443Y-109105519D01*
G37*
G36*
X155150443Y-109105519D02*
G01*
X155216627Y-109112037D01*
X155386466Y-109163557D01*
X155542991Y-109247222D01*
X155578729Y-109276552D01*
X155680186Y-109359814D01*
X155763448Y-109461271D01*
X155792778Y-109497009D01*
X155876443Y-109653534D01*
X155927963Y-109823373D01*
X155945359Y-110000000D01*
X155927963Y-110176627D01*
X155876443Y-110346466D01*
X155792778Y-110502991D01*
X155763448Y-110538729D01*
X155680186Y-110640186D01*
X155578729Y-110723448D01*
X155542991Y-110752778D01*
X155386466Y-110836443D01*
X155216627Y-110887963D01*
X155150443Y-110894481D01*
X155084260Y-110901000D01*
X154995740Y-110901000D01*
X154929557Y-110894481D01*
X154863373Y-110887963D01*
X154693534Y-110836443D01*
X154537009Y-110752778D01*
X154501271Y-110723448D01*
X154399814Y-110640186D01*
X154316552Y-110538729D01*
X154287222Y-110502991D01*
X154203557Y-110346466D01*
X154152037Y-110176627D01*
X154134641Y-110000000D01*
X154152037Y-109823373D01*
X154203557Y-109653534D01*
X154287222Y-109497009D01*
X154316552Y-109461271D01*
X154399814Y-109359814D01*
X154501271Y-109276552D01*
X154537009Y-109247222D01*
X154693534Y-109163557D01*
X154863373Y-109112037D01*
X154929557Y-109105519D01*
X154995740Y-109099000D01*
X155084260Y-109099000D01*
X155150443Y-109105519D01*
X155150443Y-109105519D01*
G37*
G36*
X157690443Y-109105519D02*
G01*
X157756627Y-109112037D01*
X157926466Y-109163557D01*
X158082991Y-109247222D01*
X158118729Y-109276552D01*
X158220186Y-109359814D01*
X158303448Y-109461271D01*
X158332778Y-109497009D01*
X158416443Y-109653534D01*
X158467963Y-109823373D01*
X158485359Y-110000000D01*
X158467963Y-110176627D01*
X158416443Y-110346466D01*
X158332778Y-110502991D01*
X158303448Y-110538729D01*
X158220186Y-110640186D01*
X158118729Y-110723448D01*
X158082991Y-110752778D01*
X157926466Y-110836443D01*
X157756627Y-110887963D01*
X157690443Y-110894481D01*
X157624260Y-110901000D01*
X157535740Y-110901000D01*
X157469557Y-110894481D01*
X157403373Y-110887963D01*
X157233534Y-110836443D01*
X157077009Y-110752778D01*
X157041271Y-110723448D01*
X156939814Y-110640186D01*
X156856552Y-110538729D01*
X156827222Y-110502991D01*
X156743557Y-110346466D01*
X156692037Y-110176627D01*
X156674641Y-110000000D01*
X156692037Y-109823373D01*
X156743557Y-109653534D01*
X156827222Y-109497009D01*
X156856552Y-109461271D01*
X156939814Y-109359814D01*
X157041271Y-109276552D01*
X157077009Y-109247222D01*
X157233534Y-109163557D01*
X157403373Y-109112037D01*
X157469557Y-109105519D01*
X157535740Y-109099000D01*
X157624260Y-109099000D01*
X157690443Y-109105519D01*
X157690443Y-109105519D01*
G37*
G36*
X160230443Y-109105519D02*
G01*
X160296627Y-109112037D01*
X160466466Y-109163557D01*
X160622991Y-109247222D01*
X160658729Y-109276552D01*
X160760186Y-109359814D01*
X160843448Y-109461271D01*
X160872778Y-109497009D01*
X160956443Y-109653534D01*
X161007963Y-109823373D01*
X161025359Y-110000000D01*
X161007963Y-110176627D01*
X160956443Y-110346466D01*
X160872778Y-110502991D01*
X160843448Y-110538729D01*
X160760186Y-110640186D01*
X160658729Y-110723448D01*
X160622991Y-110752778D01*
X160466466Y-110836443D01*
X160296627Y-110887963D01*
X160230443Y-110894481D01*
X160164260Y-110901000D01*
X160075740Y-110901000D01*
X160009557Y-110894481D01*
X159943373Y-110887963D01*
X159773534Y-110836443D01*
X159617009Y-110752778D01*
X159581271Y-110723448D01*
X159479814Y-110640186D01*
X159396552Y-110538729D01*
X159367222Y-110502991D01*
X159283557Y-110346466D01*
X159232037Y-110176627D01*
X159214641Y-110000000D01*
X159232037Y-109823373D01*
X159283557Y-109653534D01*
X159367222Y-109497009D01*
X159396552Y-109461271D01*
X159479814Y-109359814D01*
X159581271Y-109276552D01*
X159617009Y-109247222D01*
X159773534Y-109163557D01*
X159943373Y-109112037D01*
X160009557Y-109105519D01*
X160075740Y-109099000D01*
X160164260Y-109099000D01*
X160230443Y-109105519D01*
X160230443Y-109105519D01*
G37*
G36*
X162770443Y-109105519D02*
G01*
X162836627Y-109112037D01*
X163006466Y-109163557D01*
X163162991Y-109247222D01*
X163198729Y-109276552D01*
X163300186Y-109359814D01*
X163383448Y-109461271D01*
X163412778Y-109497009D01*
X163496443Y-109653534D01*
X163547963Y-109823373D01*
X163565359Y-110000000D01*
X163547963Y-110176627D01*
X163496443Y-110346466D01*
X163412778Y-110502991D01*
X163383448Y-110538729D01*
X163300186Y-110640186D01*
X163198729Y-110723448D01*
X163162991Y-110752778D01*
X163006466Y-110836443D01*
X162836627Y-110887963D01*
X162770443Y-110894481D01*
X162704260Y-110901000D01*
X162615740Y-110901000D01*
X162549557Y-110894481D01*
X162483373Y-110887963D01*
X162313534Y-110836443D01*
X162157009Y-110752778D01*
X162121271Y-110723448D01*
X162019814Y-110640186D01*
X161936552Y-110538729D01*
X161907222Y-110502991D01*
X161823557Y-110346466D01*
X161772037Y-110176627D01*
X161754641Y-110000000D01*
X161772037Y-109823373D01*
X161823557Y-109653534D01*
X161907222Y-109497009D01*
X161936552Y-109461271D01*
X162019814Y-109359814D01*
X162121271Y-109276552D01*
X162157009Y-109247222D01*
X162313534Y-109163557D01*
X162483373Y-109112037D01*
X162549557Y-109105519D01*
X162615740Y-109099000D01*
X162704260Y-109099000D01*
X162770443Y-109105519D01*
X162770443Y-109105519D01*
G37*
G36*
X167850443Y-109105519D02*
G01*
X167916627Y-109112037D01*
X168086466Y-109163557D01*
X168242991Y-109247222D01*
X168278729Y-109276552D01*
X168380186Y-109359814D01*
X168463448Y-109461271D01*
X168492778Y-109497009D01*
X168576443Y-109653534D01*
X168627963Y-109823373D01*
X168645359Y-110000000D01*
X168627963Y-110176627D01*
X168576443Y-110346466D01*
X168492778Y-110502991D01*
X168463448Y-110538729D01*
X168380186Y-110640186D01*
X168278729Y-110723448D01*
X168242991Y-110752778D01*
X168086466Y-110836443D01*
X167916627Y-110887963D01*
X167850443Y-110894481D01*
X167784260Y-110901000D01*
X167695740Y-110901000D01*
X167629557Y-110894481D01*
X167563373Y-110887963D01*
X167393534Y-110836443D01*
X167237009Y-110752778D01*
X167201271Y-110723448D01*
X167099814Y-110640186D01*
X167016552Y-110538729D01*
X166987222Y-110502991D01*
X166903557Y-110346466D01*
X166852037Y-110176627D01*
X166834641Y-110000000D01*
X166852037Y-109823373D01*
X166903557Y-109653534D01*
X166987222Y-109497009D01*
X167016552Y-109461271D01*
X167099814Y-109359814D01*
X167201271Y-109276552D01*
X167237009Y-109247222D01*
X167393534Y-109163557D01*
X167563373Y-109112037D01*
X167629557Y-109105519D01*
X167695740Y-109099000D01*
X167784260Y-109099000D01*
X167850443Y-109105519D01*
X167850443Y-109105519D01*
G37*
G36*
X170390443Y-109105519D02*
G01*
X170456627Y-109112037D01*
X170626466Y-109163557D01*
X170782991Y-109247222D01*
X170818729Y-109276552D01*
X170920186Y-109359814D01*
X171003448Y-109461271D01*
X171032778Y-109497009D01*
X171116443Y-109653534D01*
X171167963Y-109823373D01*
X171185359Y-110000000D01*
X171167963Y-110176627D01*
X171116443Y-110346466D01*
X171032778Y-110502991D01*
X171003448Y-110538729D01*
X170920186Y-110640186D01*
X170818729Y-110723448D01*
X170782991Y-110752778D01*
X170626466Y-110836443D01*
X170456627Y-110887963D01*
X170390443Y-110894481D01*
X170324260Y-110901000D01*
X170235740Y-110901000D01*
X170169557Y-110894481D01*
X170103373Y-110887963D01*
X169933534Y-110836443D01*
X169777009Y-110752778D01*
X169741271Y-110723448D01*
X169639814Y-110640186D01*
X169556552Y-110538729D01*
X169527222Y-110502991D01*
X169443557Y-110346466D01*
X169392037Y-110176627D01*
X169374641Y-110000000D01*
X169392037Y-109823373D01*
X169443557Y-109653534D01*
X169527222Y-109497009D01*
X169556552Y-109461271D01*
X169639814Y-109359814D01*
X169741271Y-109276552D01*
X169777009Y-109247222D01*
X169933534Y-109163557D01*
X170103373Y-109112037D01*
X170169557Y-109105519D01*
X170235740Y-109099000D01*
X170324260Y-109099000D01*
X170390443Y-109105519D01*
X170390443Y-109105519D01*
G37*
G36*
X172930443Y-109105519D02*
G01*
X172996627Y-109112037D01*
X173166466Y-109163557D01*
X173322991Y-109247222D01*
X173358729Y-109276552D01*
X173460186Y-109359814D01*
X173543448Y-109461271D01*
X173572778Y-109497009D01*
X173656443Y-109653534D01*
X173707963Y-109823373D01*
X173725359Y-110000000D01*
X173707963Y-110176627D01*
X173656443Y-110346466D01*
X173572778Y-110502991D01*
X173543448Y-110538729D01*
X173460186Y-110640186D01*
X173358729Y-110723448D01*
X173322991Y-110752778D01*
X173166466Y-110836443D01*
X172996627Y-110887963D01*
X172930443Y-110894481D01*
X172864260Y-110901000D01*
X172775740Y-110901000D01*
X172709557Y-110894481D01*
X172643373Y-110887963D01*
X172473534Y-110836443D01*
X172317009Y-110752778D01*
X172281271Y-110723448D01*
X172179814Y-110640186D01*
X172096552Y-110538729D01*
X172067222Y-110502991D01*
X171983557Y-110346466D01*
X171932037Y-110176627D01*
X171914641Y-110000000D01*
X171932037Y-109823373D01*
X171983557Y-109653534D01*
X172067222Y-109497009D01*
X172096552Y-109461271D01*
X172179814Y-109359814D01*
X172281271Y-109276552D01*
X172317009Y-109247222D01*
X172473534Y-109163557D01*
X172643373Y-109112037D01*
X172709557Y-109105519D01*
X172775740Y-109099000D01*
X172864260Y-109099000D01*
X172930443Y-109105519D01*
X172930443Y-109105519D01*
G37*
G36*
X175470443Y-109105519D02*
G01*
X175536627Y-109112037D01*
X175706466Y-109163557D01*
X175862991Y-109247222D01*
X175898729Y-109276552D01*
X176000186Y-109359814D01*
X176083448Y-109461271D01*
X176112778Y-109497009D01*
X176196443Y-109653534D01*
X176247963Y-109823373D01*
X176265359Y-110000000D01*
X176247963Y-110176627D01*
X176196443Y-110346466D01*
X176112778Y-110502991D01*
X176083448Y-110538729D01*
X176000186Y-110640186D01*
X175898729Y-110723448D01*
X175862991Y-110752778D01*
X175706466Y-110836443D01*
X175536627Y-110887963D01*
X175470443Y-110894481D01*
X175404260Y-110901000D01*
X175315740Y-110901000D01*
X175249557Y-110894481D01*
X175183373Y-110887963D01*
X175013534Y-110836443D01*
X174857009Y-110752778D01*
X174821271Y-110723448D01*
X174719814Y-110640186D01*
X174636552Y-110538729D01*
X174607222Y-110502991D01*
X174523557Y-110346466D01*
X174472037Y-110176627D01*
X174454641Y-110000000D01*
X174472037Y-109823373D01*
X174523557Y-109653534D01*
X174607222Y-109497009D01*
X174636552Y-109461271D01*
X174719814Y-109359814D01*
X174821271Y-109276552D01*
X174857009Y-109247222D01*
X175013534Y-109163557D01*
X175183373Y-109112037D01*
X175249557Y-109105519D01*
X175315740Y-109099000D01*
X175404260Y-109099000D01*
X175470443Y-109105519D01*
X175470443Y-109105519D01*
G37*
G36*
X178010443Y-109105519D02*
G01*
X178076627Y-109112037D01*
X178246466Y-109163557D01*
X178402991Y-109247222D01*
X178438729Y-109276552D01*
X178540186Y-109359814D01*
X178623448Y-109461271D01*
X178652778Y-109497009D01*
X178736443Y-109653534D01*
X178787963Y-109823373D01*
X178805359Y-110000000D01*
X178787963Y-110176627D01*
X178736443Y-110346466D01*
X178652778Y-110502991D01*
X178623448Y-110538729D01*
X178540186Y-110640186D01*
X178438729Y-110723448D01*
X178402991Y-110752778D01*
X178246466Y-110836443D01*
X178076627Y-110887963D01*
X178010443Y-110894481D01*
X177944260Y-110901000D01*
X177855740Y-110901000D01*
X177789557Y-110894481D01*
X177723373Y-110887963D01*
X177553534Y-110836443D01*
X177397009Y-110752778D01*
X177361271Y-110723448D01*
X177259814Y-110640186D01*
X177176552Y-110538729D01*
X177147222Y-110502991D01*
X177063557Y-110346466D01*
X177012037Y-110176627D01*
X176994641Y-110000000D01*
X177012037Y-109823373D01*
X177063557Y-109653534D01*
X177147222Y-109497009D01*
X177176552Y-109461271D01*
X177259814Y-109359814D01*
X177361271Y-109276552D01*
X177397009Y-109247222D01*
X177553534Y-109163557D01*
X177723373Y-109112037D01*
X177789557Y-109105519D01*
X177855740Y-109099000D01*
X177944260Y-109099000D01*
X178010443Y-109105519D01*
X178010443Y-109105519D01*
G37*
G36*
X180550443Y-109105519D02*
G01*
X180616627Y-109112037D01*
X180786466Y-109163557D01*
X180942991Y-109247222D01*
X180978729Y-109276552D01*
X181080186Y-109359814D01*
X181163448Y-109461271D01*
X181192778Y-109497009D01*
X181276443Y-109653534D01*
X181327963Y-109823373D01*
X181345359Y-110000000D01*
X181327963Y-110176627D01*
X181276443Y-110346466D01*
X181192778Y-110502991D01*
X181163448Y-110538729D01*
X181080186Y-110640186D01*
X180978729Y-110723448D01*
X180942991Y-110752778D01*
X180786466Y-110836443D01*
X180616627Y-110887963D01*
X180550443Y-110894481D01*
X180484260Y-110901000D01*
X180395740Y-110901000D01*
X180329557Y-110894481D01*
X180263373Y-110887963D01*
X180093534Y-110836443D01*
X179937009Y-110752778D01*
X179901271Y-110723448D01*
X179799814Y-110640186D01*
X179716552Y-110538729D01*
X179687222Y-110502991D01*
X179603557Y-110346466D01*
X179552037Y-110176627D01*
X179534641Y-110000000D01*
X179552037Y-109823373D01*
X179603557Y-109653534D01*
X179687222Y-109497009D01*
X179716552Y-109461271D01*
X179799814Y-109359814D01*
X179901271Y-109276552D01*
X179937009Y-109247222D01*
X180093534Y-109163557D01*
X180263373Y-109112037D01*
X180329557Y-109105519D01*
X180395740Y-109099000D01*
X180484260Y-109099000D01*
X180550443Y-109105519D01*
X180550443Y-109105519D01*
G37*
G36*
X183090443Y-109105519D02*
G01*
X183156627Y-109112037D01*
X183326466Y-109163557D01*
X183482991Y-109247222D01*
X183518729Y-109276552D01*
X183620186Y-109359814D01*
X183703448Y-109461271D01*
X183732778Y-109497009D01*
X183816443Y-109653534D01*
X183867963Y-109823373D01*
X183885359Y-110000000D01*
X183867963Y-110176627D01*
X183816443Y-110346466D01*
X183732778Y-110502991D01*
X183703448Y-110538729D01*
X183620186Y-110640186D01*
X183518729Y-110723448D01*
X183482991Y-110752778D01*
X183326466Y-110836443D01*
X183156627Y-110887963D01*
X183090443Y-110894481D01*
X183024260Y-110901000D01*
X182935740Y-110901000D01*
X182869557Y-110894481D01*
X182803373Y-110887963D01*
X182633534Y-110836443D01*
X182477009Y-110752778D01*
X182441271Y-110723448D01*
X182339814Y-110640186D01*
X182256552Y-110538729D01*
X182227222Y-110502991D01*
X182143557Y-110346466D01*
X182092037Y-110176627D01*
X182074641Y-110000000D01*
X182092037Y-109823373D01*
X182143557Y-109653534D01*
X182227222Y-109497009D01*
X182256552Y-109461271D01*
X182339814Y-109359814D01*
X182441271Y-109276552D01*
X182477009Y-109247222D01*
X182633534Y-109163557D01*
X182803373Y-109112037D01*
X182869557Y-109105519D01*
X182935740Y-109099000D01*
X183024260Y-109099000D01*
X183090443Y-109105519D01*
X183090443Y-109105519D01*
G37*
G36*
X188170443Y-109105519D02*
G01*
X188236627Y-109112037D01*
X188406466Y-109163557D01*
X188562991Y-109247222D01*
X188598729Y-109276552D01*
X188700186Y-109359814D01*
X188783448Y-109461271D01*
X188812778Y-109497009D01*
X188896443Y-109653534D01*
X188947963Y-109823373D01*
X188965359Y-110000000D01*
X188947963Y-110176627D01*
X188896443Y-110346466D01*
X188812778Y-110502991D01*
X188783448Y-110538729D01*
X188700186Y-110640186D01*
X188598729Y-110723448D01*
X188562991Y-110752778D01*
X188406466Y-110836443D01*
X188236627Y-110887963D01*
X188170443Y-110894481D01*
X188104260Y-110901000D01*
X188015740Y-110901000D01*
X187949557Y-110894481D01*
X187883373Y-110887963D01*
X187713534Y-110836443D01*
X187557009Y-110752778D01*
X187521271Y-110723448D01*
X187419814Y-110640186D01*
X187336552Y-110538729D01*
X187307222Y-110502991D01*
X187223557Y-110346466D01*
X187172037Y-110176627D01*
X187154641Y-110000000D01*
X187172037Y-109823373D01*
X187223557Y-109653534D01*
X187307222Y-109497009D01*
X187336552Y-109461271D01*
X187419814Y-109359814D01*
X187521271Y-109276552D01*
X187557009Y-109247222D01*
X187713534Y-109163557D01*
X187883373Y-109112037D01*
X187949557Y-109105519D01*
X188015740Y-109099000D01*
X188104260Y-109099000D01*
X188170443Y-109105519D01*
X188170443Y-109105519D01*
G37*
G36*
X137370443Y-109105519D02*
G01*
X137436627Y-109112037D01*
X137606466Y-109163557D01*
X137762991Y-109247222D01*
X137798729Y-109276552D01*
X137900186Y-109359814D01*
X137983448Y-109461271D01*
X138012778Y-109497009D01*
X138096443Y-109653534D01*
X138147963Y-109823373D01*
X138165359Y-110000000D01*
X138147963Y-110176627D01*
X138096443Y-110346466D01*
X138012778Y-110502991D01*
X137983448Y-110538729D01*
X137900186Y-110640186D01*
X137798729Y-110723448D01*
X137762991Y-110752778D01*
X137606466Y-110836443D01*
X137436627Y-110887963D01*
X137370443Y-110894481D01*
X137304260Y-110901000D01*
X137215740Y-110901000D01*
X137149557Y-110894481D01*
X137083373Y-110887963D01*
X136913534Y-110836443D01*
X136757009Y-110752778D01*
X136721271Y-110723448D01*
X136619814Y-110640186D01*
X136536552Y-110538729D01*
X136507222Y-110502991D01*
X136423557Y-110346466D01*
X136372037Y-110176627D01*
X136354641Y-110000000D01*
X136372037Y-109823373D01*
X136423557Y-109653534D01*
X136507222Y-109497009D01*
X136536552Y-109461271D01*
X136619814Y-109359814D01*
X136721271Y-109276552D01*
X136757009Y-109247222D01*
X136913534Y-109163557D01*
X137083373Y-109112037D01*
X137149557Y-109105519D01*
X137215740Y-109099000D01*
X137304260Y-109099000D01*
X137370443Y-109105519D01*
X137370443Y-109105519D01*
G37*
G36*
X132428228Y-104821703D02*
G01*
X132583100Y-104885853D01*
X132722481Y-104978985D01*
X132841015Y-105097519D01*
X132934147Y-105236900D01*
X132998297Y-105391772D01*
X133031000Y-105556184D01*
X133031000Y-105723816D01*
X132998297Y-105888228D01*
X132934147Y-106043100D01*
X132841015Y-106182481D01*
X132722481Y-106301015D01*
X132583100Y-106394147D01*
X132428228Y-106458297D01*
X132263816Y-106491000D01*
X132096184Y-106491000D01*
X131931772Y-106458297D01*
X131776900Y-106394147D01*
X131637519Y-106301015D01*
X131518985Y-106182481D01*
X131425853Y-106043100D01*
X131361703Y-105888228D01*
X131329000Y-105723816D01*
X131329000Y-105556184D01*
X131361703Y-105391772D01*
X131425853Y-105236900D01*
X131518985Y-105097519D01*
X131637519Y-104978985D01*
X131776900Y-104885853D01*
X131931772Y-104821703D01*
X132096184Y-104789000D01*
X132263816Y-104789000D01*
X132428228Y-104821703D01*
X132428228Y-104821703D01*
G37*
G36*
X129928228Y-104821703D02*
G01*
X130083100Y-104885853D01*
X130222481Y-104978985D01*
X130341015Y-105097519D01*
X130434147Y-105236900D01*
X130498297Y-105391772D01*
X130531000Y-105556184D01*
X130531000Y-105723816D01*
X130498297Y-105888228D01*
X130434147Y-106043100D01*
X130341015Y-106182481D01*
X130222481Y-106301015D01*
X130083100Y-106394147D01*
X129928228Y-106458297D01*
X129763816Y-106491000D01*
X129596184Y-106491000D01*
X129431772Y-106458297D01*
X129276900Y-106394147D01*
X129137519Y-106301015D01*
X129018985Y-106182481D01*
X128925853Y-106043100D01*
X128861703Y-105888228D01*
X128829000Y-105723816D01*
X128829000Y-105556184D01*
X128861703Y-105391772D01*
X128925853Y-105236900D01*
X129018985Y-105097519D01*
X129137519Y-104978985D01*
X129276900Y-104885853D01*
X129431772Y-104821703D01*
X129596184Y-104789000D01*
X129763816Y-104789000D01*
X129928228Y-104821703D01*
X129928228Y-104821703D01*
G37*
G36*
X142506823Y-101626313D02*
G01*
X142667242Y-101674976D01*
X142734361Y-101710852D01*
X142815078Y-101753996D01*
X142944659Y-101860341D01*
X143051004Y-101989922D01*
X143051005Y-101989924D01*
X143130024Y-102137758D01*
X143178687Y-102298177D01*
X143195117Y-102465000D01*
X143178687Y-102631823D01*
X143130024Y-102792242D01*
X143089477Y-102868100D01*
X143051004Y-102940078D01*
X142944659Y-103069659D01*
X142815078Y-103176004D01*
X142815076Y-103176005D01*
X142667242Y-103255024D01*
X142506823Y-103303687D01*
X142381804Y-103316000D01*
X142298196Y-103316000D01*
X142173177Y-103303687D01*
X142012758Y-103255024D01*
X141864924Y-103176005D01*
X141864922Y-103176004D01*
X141735341Y-103069659D01*
X141628996Y-102940078D01*
X141590523Y-102868100D01*
X141549976Y-102792242D01*
X141501313Y-102631823D01*
X141484883Y-102465000D01*
X141501313Y-102298177D01*
X141549976Y-102137758D01*
X141628995Y-101989924D01*
X141628996Y-101989922D01*
X141735341Y-101860341D01*
X141864922Y-101753996D01*
X141945639Y-101710852D01*
X142012758Y-101674976D01*
X142173177Y-101626313D01*
X142298196Y-101614000D01*
X142381804Y-101614000D01*
X142506823Y-101626313D01*
X142506823Y-101626313D01*
G37*
G36*
X132428228Y-101646703D02*
G01*
X132583100Y-101710853D01*
X132722481Y-101803985D01*
X132841015Y-101922519D01*
X132934147Y-102061900D01*
X132998297Y-102216772D01*
X133031000Y-102381184D01*
X133031000Y-102548816D01*
X132998297Y-102713228D01*
X132934147Y-102868100D01*
X132841015Y-103007481D01*
X132722481Y-103126015D01*
X132583100Y-103219147D01*
X132428228Y-103283297D01*
X132263816Y-103316000D01*
X132096184Y-103316000D01*
X131931772Y-103283297D01*
X131776900Y-103219147D01*
X131637519Y-103126015D01*
X131518985Y-103007481D01*
X131425853Y-102868100D01*
X131361703Y-102713228D01*
X131329000Y-102548816D01*
X131329000Y-102381184D01*
X131361703Y-102216772D01*
X131425853Y-102061900D01*
X131518985Y-101922519D01*
X131637519Y-101803985D01*
X131776900Y-101710853D01*
X131931772Y-101646703D01*
X132096184Y-101614000D01*
X132263816Y-101614000D01*
X132428228Y-101646703D01*
X132428228Y-101646703D01*
G37*
G36*
X189496823Y-100731313D02*
G01*
X189657242Y-100779976D01*
X189789906Y-100850886D01*
X189805078Y-100858996D01*
X189934659Y-100965341D01*
X190041004Y-101094922D01*
X190041005Y-101094924D01*
X190120024Y-101242758D01*
X190168687Y-101403177D01*
X190185117Y-101570000D01*
X190168687Y-101736823D01*
X190120024Y-101897242D01*
X190070485Y-101989922D01*
X190041004Y-102045078D01*
X189934659Y-102174659D01*
X189805078Y-102281004D01*
X189805076Y-102281005D01*
X189657242Y-102360024D01*
X189496823Y-102408687D01*
X189371804Y-102421000D01*
X189288196Y-102421000D01*
X189163177Y-102408687D01*
X189002758Y-102360024D01*
X188854924Y-102281005D01*
X188854922Y-102281004D01*
X188725341Y-102174659D01*
X188618996Y-102045078D01*
X188589515Y-101989922D01*
X188539976Y-101897242D01*
X188491313Y-101736823D01*
X188474883Y-101570000D01*
X188491313Y-101403177D01*
X188539976Y-101242758D01*
X188618995Y-101094924D01*
X188618996Y-101094922D01*
X188725341Y-100965341D01*
X188854922Y-100858996D01*
X188870094Y-100850886D01*
X189002758Y-100779976D01*
X189163177Y-100731313D01*
X189288196Y-100719000D01*
X189371804Y-100719000D01*
X189496823Y-100731313D01*
X189496823Y-100731313D01*
G37*
G36*
X181876823Y-100731313D02*
G01*
X182037242Y-100779976D01*
X182169906Y-100850886D01*
X182185078Y-100858996D01*
X182314659Y-100965341D01*
X182421004Y-101094922D01*
X182421005Y-101094924D01*
X182500024Y-101242758D01*
X182548687Y-101403177D01*
X182565117Y-101570000D01*
X182548687Y-101736823D01*
X182500024Y-101897242D01*
X182450485Y-101989922D01*
X182421004Y-102045078D01*
X182314659Y-102174659D01*
X182185078Y-102281004D01*
X182185076Y-102281005D01*
X182037242Y-102360024D01*
X181876823Y-102408687D01*
X181751804Y-102421000D01*
X181668196Y-102421000D01*
X181543177Y-102408687D01*
X181382758Y-102360024D01*
X181234924Y-102281005D01*
X181234922Y-102281004D01*
X181105341Y-102174659D01*
X180998996Y-102045078D01*
X180969515Y-101989922D01*
X180919976Y-101897242D01*
X180871313Y-101736823D01*
X180854883Y-101570000D01*
X180871313Y-101403177D01*
X180919976Y-101242758D01*
X180998995Y-101094924D01*
X180998996Y-101094922D01*
X181105341Y-100965341D01*
X181234922Y-100858996D01*
X181250094Y-100850886D01*
X181382758Y-100779976D01*
X181543177Y-100731313D01*
X181668196Y-100719000D01*
X181751804Y-100719000D01*
X181876823Y-100731313D01*
X181876823Y-100731313D01*
G37*
G36*
X189496823Y-98191313D02*
G01*
X189657242Y-98239976D01*
X189789906Y-98310886D01*
X189805078Y-98318996D01*
X189934659Y-98425341D01*
X190041004Y-98554922D01*
X190041005Y-98554924D01*
X190120024Y-98702758D01*
X190168687Y-98863177D01*
X190185117Y-99030000D01*
X190168687Y-99196823D01*
X190120024Y-99357242D01*
X190049114Y-99489906D01*
X190041004Y-99505078D01*
X189934659Y-99634659D01*
X189805078Y-99741004D01*
X189805076Y-99741005D01*
X189657242Y-99820024D01*
X189496823Y-99868687D01*
X189371804Y-99881000D01*
X189288196Y-99881000D01*
X189163177Y-99868687D01*
X189002758Y-99820024D01*
X188854924Y-99741005D01*
X188854922Y-99741004D01*
X188725341Y-99634659D01*
X188618996Y-99505078D01*
X188610886Y-99489906D01*
X188539976Y-99357242D01*
X188491313Y-99196823D01*
X188474883Y-99030000D01*
X188491313Y-98863177D01*
X188539976Y-98702758D01*
X188618995Y-98554924D01*
X188618996Y-98554922D01*
X188725341Y-98425341D01*
X188854922Y-98318996D01*
X188870094Y-98310886D01*
X189002758Y-98239976D01*
X189163177Y-98191313D01*
X189288196Y-98179000D01*
X189371804Y-98179000D01*
X189496823Y-98191313D01*
X189496823Y-98191313D01*
G37*
G36*
X181876823Y-98191313D02*
G01*
X182037242Y-98239976D01*
X182169906Y-98310886D01*
X182185078Y-98318996D01*
X182314659Y-98425341D01*
X182421004Y-98554922D01*
X182421005Y-98554924D01*
X182500024Y-98702758D01*
X182548687Y-98863177D01*
X182565117Y-99030000D01*
X182548687Y-99196823D01*
X182500024Y-99357242D01*
X182429114Y-99489906D01*
X182421004Y-99505078D01*
X182314659Y-99634659D01*
X182185078Y-99741004D01*
X182185076Y-99741005D01*
X182037242Y-99820024D01*
X181876823Y-99868687D01*
X181751804Y-99881000D01*
X181668196Y-99881000D01*
X181543177Y-99868687D01*
X181382758Y-99820024D01*
X181234924Y-99741005D01*
X181234922Y-99741004D01*
X181105341Y-99634659D01*
X180998996Y-99505078D01*
X180990886Y-99489906D01*
X180919976Y-99357242D01*
X180871313Y-99196823D01*
X180854883Y-99030000D01*
X180871313Y-98863177D01*
X180919976Y-98702758D01*
X180998995Y-98554924D01*
X180998996Y-98554922D01*
X181105341Y-98425341D01*
X181234922Y-98318996D01*
X181250094Y-98310886D01*
X181382758Y-98239976D01*
X181543177Y-98191313D01*
X181668196Y-98179000D01*
X181751804Y-98179000D01*
X181876823Y-98191313D01*
X181876823Y-98191313D01*
G37*
G36*
X150126822Y-95511313D02*
G01*
X150287241Y-95559976D01*
X150435077Y-95638995D01*
X150564659Y-95745341D01*
X150671004Y-95874922D01*
X150671005Y-95874924D01*
X150750024Y-96022758D01*
X150798687Y-96183177D01*
X150811000Y-96308196D01*
X150811000Y-97191803D01*
X150798687Y-97316822D01*
X150750024Y-97477242D01*
X150679114Y-97609906D01*
X150671004Y-97625078D01*
X150564659Y-97754659D01*
X150435078Y-97861004D01*
X150435076Y-97861005D01*
X150287242Y-97940024D01*
X150126823Y-97988687D01*
X149960000Y-98005117D01*
X149793178Y-97988687D01*
X149632759Y-97940024D01*
X149484925Y-97861005D01*
X149484923Y-97861004D01*
X149355342Y-97754659D01*
X149248997Y-97625078D01*
X149240887Y-97609906D01*
X149169977Y-97477242D01*
X149121314Y-97316823D01*
X149109000Y-97191803D01*
X149109000Y-96308197D01*
X149121313Y-96183178D01*
X149169976Y-96022759D01*
X149248995Y-95874923D01*
X149355341Y-95745341D01*
X149410618Y-95699976D01*
X149484922Y-95638996D01*
X149500094Y-95630886D01*
X149632758Y-95559976D01*
X149793177Y-95511313D01*
X149960000Y-95494883D01*
X150126822Y-95511313D01*
X150126822Y-95511313D01*
G37*
G36*
X127266822Y-95511313D02*
G01*
X127427241Y-95559976D01*
X127575077Y-95638995D01*
X127704659Y-95745341D01*
X127811004Y-95874922D01*
X127811005Y-95874924D01*
X127890024Y-96022758D01*
X127938687Y-96183177D01*
X127951000Y-96308196D01*
X127951000Y-97191803D01*
X127938687Y-97316822D01*
X127890024Y-97477242D01*
X127819114Y-97609906D01*
X127811004Y-97625078D01*
X127704659Y-97754659D01*
X127575078Y-97861004D01*
X127575076Y-97861005D01*
X127427242Y-97940024D01*
X127266823Y-97988687D01*
X127100000Y-98005117D01*
X126933178Y-97988687D01*
X126772759Y-97940024D01*
X126624925Y-97861005D01*
X126624923Y-97861004D01*
X126495342Y-97754659D01*
X126388997Y-97625078D01*
X126380887Y-97609906D01*
X126309977Y-97477242D01*
X126261314Y-97316823D01*
X126249000Y-97191803D01*
X126249000Y-96308197D01*
X126261313Y-96183178D01*
X126309976Y-96022759D01*
X126388995Y-95874923D01*
X126495341Y-95745341D01*
X126550618Y-95699976D01*
X126624922Y-95638996D01*
X126640094Y-95630886D01*
X126772758Y-95559976D01*
X126933177Y-95511313D01*
X127100000Y-95494883D01*
X127266822Y-95511313D01*
X127266822Y-95511313D01*
G37*
G36*
X147586822Y-95511313D02*
G01*
X147747241Y-95559976D01*
X147895077Y-95638995D01*
X148024659Y-95745341D01*
X148131004Y-95874922D01*
X148131005Y-95874924D01*
X148210024Y-96022758D01*
X148258687Y-96183177D01*
X148271000Y-96308196D01*
X148271000Y-97191803D01*
X148258687Y-97316822D01*
X148210024Y-97477242D01*
X148139114Y-97609906D01*
X148131004Y-97625078D01*
X148024659Y-97754659D01*
X147895078Y-97861004D01*
X147895076Y-97861005D01*
X147747242Y-97940024D01*
X147586823Y-97988687D01*
X147420000Y-98005117D01*
X147253178Y-97988687D01*
X147092759Y-97940024D01*
X146944925Y-97861005D01*
X146944923Y-97861004D01*
X146815342Y-97754659D01*
X146708997Y-97625078D01*
X146700887Y-97609906D01*
X146629977Y-97477242D01*
X146581314Y-97316823D01*
X146569000Y-97191803D01*
X146569000Y-96308197D01*
X146581313Y-96183178D01*
X146629976Y-96022759D01*
X146708995Y-95874923D01*
X146815341Y-95745341D01*
X146870618Y-95699976D01*
X146944922Y-95638996D01*
X146960094Y-95630886D01*
X147092758Y-95559976D01*
X147253177Y-95511313D01*
X147420000Y-95494883D01*
X147586822Y-95511313D01*
X147586822Y-95511313D01*
G37*
G36*
X145046822Y-95511313D02*
G01*
X145207241Y-95559976D01*
X145355077Y-95638995D01*
X145484659Y-95745341D01*
X145591004Y-95874922D01*
X145591005Y-95874924D01*
X145670024Y-96022758D01*
X145718687Y-96183177D01*
X145731000Y-96308196D01*
X145731000Y-97191803D01*
X145718687Y-97316822D01*
X145670024Y-97477242D01*
X145599114Y-97609906D01*
X145591004Y-97625078D01*
X145484659Y-97754659D01*
X145355078Y-97861004D01*
X145355076Y-97861005D01*
X145207242Y-97940024D01*
X145046823Y-97988687D01*
X144880000Y-98005117D01*
X144713178Y-97988687D01*
X144552759Y-97940024D01*
X144404925Y-97861005D01*
X144404923Y-97861004D01*
X144275342Y-97754659D01*
X144168997Y-97625078D01*
X144160887Y-97609906D01*
X144089977Y-97477242D01*
X144041314Y-97316823D01*
X144029000Y-97191803D01*
X144029000Y-96308197D01*
X144041313Y-96183178D01*
X144089976Y-96022759D01*
X144168995Y-95874923D01*
X144275341Y-95745341D01*
X144330618Y-95699976D01*
X144404922Y-95638996D01*
X144420094Y-95630886D01*
X144552758Y-95559976D01*
X144713177Y-95511313D01*
X144880000Y-95494883D01*
X145046822Y-95511313D01*
X145046822Y-95511313D01*
G37*
G36*
X142506822Y-95511313D02*
G01*
X142667241Y-95559976D01*
X142815077Y-95638995D01*
X142944659Y-95745341D01*
X143051004Y-95874922D01*
X143051005Y-95874924D01*
X143130024Y-96022758D01*
X143178687Y-96183177D01*
X143191000Y-96308196D01*
X143191000Y-97191803D01*
X143178687Y-97316822D01*
X143130024Y-97477242D01*
X143059114Y-97609906D01*
X143051004Y-97625078D01*
X142944659Y-97754659D01*
X142815078Y-97861004D01*
X142815076Y-97861005D01*
X142667242Y-97940024D01*
X142506823Y-97988687D01*
X142340000Y-98005117D01*
X142173178Y-97988687D01*
X142012759Y-97940024D01*
X141864925Y-97861005D01*
X141864923Y-97861004D01*
X141735342Y-97754659D01*
X141628997Y-97625078D01*
X141620887Y-97609906D01*
X141549977Y-97477242D01*
X141501314Y-97316823D01*
X141489000Y-97191803D01*
X141489000Y-96308197D01*
X141501313Y-96183178D01*
X141549976Y-96022759D01*
X141628995Y-95874923D01*
X141735341Y-95745341D01*
X141790618Y-95699976D01*
X141864922Y-95638996D01*
X141880094Y-95630886D01*
X142012758Y-95559976D01*
X142173177Y-95511313D01*
X142340000Y-95494883D01*
X142506822Y-95511313D01*
X142506822Y-95511313D01*
G37*
G36*
X139966822Y-95511313D02*
G01*
X140127241Y-95559976D01*
X140275077Y-95638995D01*
X140404659Y-95745341D01*
X140511004Y-95874922D01*
X140511005Y-95874924D01*
X140590024Y-96022758D01*
X140638687Y-96183177D01*
X140651000Y-96308196D01*
X140651000Y-97191803D01*
X140638687Y-97316822D01*
X140590024Y-97477242D01*
X140519114Y-97609906D01*
X140511004Y-97625078D01*
X140404659Y-97754659D01*
X140275078Y-97861004D01*
X140275076Y-97861005D01*
X140127242Y-97940024D01*
X139966823Y-97988687D01*
X139800000Y-98005117D01*
X139633178Y-97988687D01*
X139472759Y-97940024D01*
X139324925Y-97861005D01*
X139324923Y-97861004D01*
X139195342Y-97754659D01*
X139088997Y-97625078D01*
X139080887Y-97609906D01*
X139009977Y-97477242D01*
X138961314Y-97316823D01*
X138949000Y-97191803D01*
X138949000Y-96308197D01*
X138961313Y-96183178D01*
X139009976Y-96022759D01*
X139088995Y-95874923D01*
X139195341Y-95745341D01*
X139250618Y-95699976D01*
X139324922Y-95638996D01*
X139340094Y-95630886D01*
X139472758Y-95559976D01*
X139633177Y-95511313D01*
X139800000Y-95494883D01*
X139966822Y-95511313D01*
X139966822Y-95511313D01*
G37*
G36*
X137426822Y-95511313D02*
G01*
X137587241Y-95559976D01*
X137735077Y-95638995D01*
X137864659Y-95745341D01*
X137971004Y-95874922D01*
X137971005Y-95874924D01*
X138050024Y-96022758D01*
X138098687Y-96183177D01*
X138111000Y-96308196D01*
X138111000Y-97191803D01*
X138098687Y-97316822D01*
X138050024Y-97477242D01*
X137979114Y-97609906D01*
X137971004Y-97625078D01*
X137864659Y-97754659D01*
X137735078Y-97861004D01*
X137735076Y-97861005D01*
X137587242Y-97940024D01*
X137426823Y-97988687D01*
X137260000Y-98005117D01*
X137093178Y-97988687D01*
X136932759Y-97940024D01*
X136784925Y-97861005D01*
X136784923Y-97861004D01*
X136655342Y-97754659D01*
X136548997Y-97625078D01*
X136540887Y-97609906D01*
X136469977Y-97477242D01*
X136421314Y-97316823D01*
X136409000Y-97191803D01*
X136409000Y-96308197D01*
X136421313Y-96183178D01*
X136469976Y-96022759D01*
X136548995Y-95874923D01*
X136655341Y-95745341D01*
X136710618Y-95699976D01*
X136784922Y-95638996D01*
X136800094Y-95630886D01*
X136932758Y-95559976D01*
X137093177Y-95511313D01*
X137260000Y-95494883D01*
X137426822Y-95511313D01*
X137426822Y-95511313D01*
G37*
G36*
X134886822Y-95511313D02*
G01*
X135047241Y-95559976D01*
X135195077Y-95638995D01*
X135324659Y-95745341D01*
X135431004Y-95874922D01*
X135431005Y-95874924D01*
X135510024Y-96022758D01*
X135558687Y-96183177D01*
X135571000Y-96308196D01*
X135571000Y-97191803D01*
X135558687Y-97316822D01*
X135510024Y-97477242D01*
X135439114Y-97609906D01*
X135431004Y-97625078D01*
X135324659Y-97754659D01*
X135195078Y-97861004D01*
X135195076Y-97861005D01*
X135047242Y-97940024D01*
X134886823Y-97988687D01*
X134720000Y-98005117D01*
X134553178Y-97988687D01*
X134392759Y-97940024D01*
X134244925Y-97861005D01*
X134244923Y-97861004D01*
X134115342Y-97754659D01*
X134008997Y-97625078D01*
X134000887Y-97609906D01*
X133929977Y-97477242D01*
X133881314Y-97316823D01*
X133869000Y-97191803D01*
X133869000Y-96308197D01*
X133881313Y-96183178D01*
X133929976Y-96022759D01*
X134008995Y-95874923D01*
X134115341Y-95745341D01*
X134170618Y-95699976D01*
X134244922Y-95638996D01*
X134260094Y-95630886D01*
X134392758Y-95559976D01*
X134553177Y-95511313D01*
X134720000Y-95494883D01*
X134886822Y-95511313D01*
X134886822Y-95511313D01*
G37*
G36*
X132346822Y-95511313D02*
G01*
X132507241Y-95559976D01*
X132655077Y-95638995D01*
X132784659Y-95745341D01*
X132891004Y-95874922D01*
X132891005Y-95874924D01*
X132970024Y-96022758D01*
X133018687Y-96183177D01*
X133031000Y-96308196D01*
X133031000Y-97191803D01*
X133018687Y-97316822D01*
X132970024Y-97477242D01*
X132899114Y-97609906D01*
X132891004Y-97625078D01*
X132784659Y-97754659D01*
X132655078Y-97861004D01*
X132655076Y-97861005D01*
X132507242Y-97940024D01*
X132346823Y-97988687D01*
X132180000Y-98005117D01*
X132013178Y-97988687D01*
X131852759Y-97940024D01*
X131704925Y-97861005D01*
X131704923Y-97861004D01*
X131575342Y-97754659D01*
X131468997Y-97625078D01*
X131460887Y-97609906D01*
X131389977Y-97477242D01*
X131341314Y-97316823D01*
X131329000Y-97191803D01*
X131329000Y-96308197D01*
X131341313Y-96183178D01*
X131389976Y-96022759D01*
X131468995Y-95874923D01*
X131575341Y-95745341D01*
X131630618Y-95699976D01*
X131704922Y-95638996D01*
X131720094Y-95630886D01*
X131852758Y-95559976D01*
X132013177Y-95511313D01*
X132180000Y-95494883D01*
X132346822Y-95511313D01*
X132346822Y-95511313D01*
G37*
G36*
X129806822Y-95511313D02*
G01*
X129967241Y-95559976D01*
X130115077Y-95638995D01*
X130244659Y-95745341D01*
X130351004Y-95874922D01*
X130351005Y-95874924D01*
X130430024Y-96022758D01*
X130478687Y-96183177D01*
X130491000Y-96308196D01*
X130491000Y-97191803D01*
X130478687Y-97316822D01*
X130430024Y-97477242D01*
X130359114Y-97609906D01*
X130351004Y-97625078D01*
X130244659Y-97754659D01*
X130115078Y-97861004D01*
X130115076Y-97861005D01*
X129967242Y-97940024D01*
X129806823Y-97988687D01*
X129640000Y-98005117D01*
X129473178Y-97988687D01*
X129312759Y-97940024D01*
X129164925Y-97861005D01*
X129164923Y-97861004D01*
X129035342Y-97754659D01*
X128928997Y-97625078D01*
X128920887Y-97609906D01*
X128849977Y-97477242D01*
X128801314Y-97316823D01*
X128789000Y-97191803D01*
X128789000Y-96308197D01*
X128801313Y-96183178D01*
X128849976Y-96022759D01*
X128928995Y-95874923D01*
X129035341Y-95745341D01*
X129090618Y-95699976D01*
X129164922Y-95638996D01*
X129180094Y-95630886D01*
X129312758Y-95559976D01*
X129473177Y-95511313D01*
X129640000Y-95494883D01*
X129806822Y-95511313D01*
X129806822Y-95511313D01*
G37*
G36*
X122186822Y-95511313D02*
G01*
X122347241Y-95559976D01*
X122495077Y-95638995D01*
X122624659Y-95745341D01*
X122731004Y-95874922D01*
X122731005Y-95874924D01*
X122810024Y-96022758D01*
X122858687Y-96183177D01*
X122871000Y-96308196D01*
X122871000Y-97191803D01*
X122858687Y-97316822D01*
X122810024Y-97477242D01*
X122739114Y-97609906D01*
X122731004Y-97625078D01*
X122624659Y-97754659D01*
X122495078Y-97861004D01*
X122495076Y-97861005D01*
X122347242Y-97940024D01*
X122186823Y-97988687D01*
X122020000Y-98005117D01*
X121853178Y-97988687D01*
X121692759Y-97940024D01*
X121544925Y-97861005D01*
X121544923Y-97861004D01*
X121415342Y-97754659D01*
X121308997Y-97625078D01*
X121300887Y-97609906D01*
X121229977Y-97477242D01*
X121181314Y-97316823D01*
X121169000Y-97191803D01*
X121169000Y-96308197D01*
X121181313Y-96183178D01*
X121229976Y-96022759D01*
X121308995Y-95874923D01*
X121415341Y-95745341D01*
X121470618Y-95699976D01*
X121544922Y-95638996D01*
X121560094Y-95630886D01*
X121692758Y-95559976D01*
X121853177Y-95511313D01*
X122020000Y-95494883D01*
X122186822Y-95511313D01*
X122186822Y-95511313D01*
G37*
G36*
X119646822Y-95511313D02*
G01*
X119807241Y-95559976D01*
X119955077Y-95638995D01*
X120084659Y-95745341D01*
X120191004Y-95874922D01*
X120191005Y-95874924D01*
X120270024Y-96022758D01*
X120318687Y-96183177D01*
X120331000Y-96308196D01*
X120331000Y-97191803D01*
X120318687Y-97316822D01*
X120270024Y-97477242D01*
X120199114Y-97609906D01*
X120191004Y-97625078D01*
X120084659Y-97754659D01*
X119955078Y-97861004D01*
X119955076Y-97861005D01*
X119807242Y-97940024D01*
X119646823Y-97988687D01*
X119480000Y-98005117D01*
X119313178Y-97988687D01*
X119152759Y-97940024D01*
X119004925Y-97861005D01*
X119004923Y-97861004D01*
X118875342Y-97754659D01*
X118768997Y-97625078D01*
X118760887Y-97609906D01*
X118689977Y-97477242D01*
X118641314Y-97316823D01*
X118629000Y-97191803D01*
X118629000Y-96308197D01*
X118641313Y-96183178D01*
X118689976Y-96022759D01*
X118768995Y-95874923D01*
X118875341Y-95745341D01*
X118930618Y-95699976D01*
X119004922Y-95638996D01*
X119020094Y-95630886D01*
X119152758Y-95559976D01*
X119313177Y-95511313D01*
X119480000Y-95494883D01*
X119646822Y-95511313D01*
X119646822Y-95511313D01*
G37*
G36*
X117106822Y-95511313D02*
G01*
X117267241Y-95559976D01*
X117415077Y-95638995D01*
X117544659Y-95745341D01*
X117651004Y-95874922D01*
X117651005Y-95874924D01*
X117730024Y-96022758D01*
X117778687Y-96183177D01*
X117791000Y-96308196D01*
X117791000Y-97191803D01*
X117778687Y-97316822D01*
X117730024Y-97477242D01*
X117659114Y-97609906D01*
X117651004Y-97625078D01*
X117544659Y-97754659D01*
X117415078Y-97861004D01*
X117415076Y-97861005D01*
X117267242Y-97940024D01*
X117106823Y-97988687D01*
X116940000Y-98005117D01*
X116773178Y-97988687D01*
X116612759Y-97940024D01*
X116464925Y-97861005D01*
X116464923Y-97861004D01*
X116335342Y-97754659D01*
X116228997Y-97625078D01*
X116220887Y-97609906D01*
X116149977Y-97477242D01*
X116101314Y-97316823D01*
X116089000Y-97191803D01*
X116089000Y-96308197D01*
X116101313Y-96183178D01*
X116149976Y-96022759D01*
X116228995Y-95874923D01*
X116335341Y-95745341D01*
X116390618Y-95699976D01*
X116464922Y-95638996D01*
X116480094Y-95630886D01*
X116612758Y-95559976D01*
X116773177Y-95511313D01*
X116940000Y-95494883D01*
X117106822Y-95511313D01*
X117106822Y-95511313D01*
G37*
G36*
X114566822Y-95511313D02*
G01*
X114727241Y-95559976D01*
X114875077Y-95638995D01*
X115004659Y-95745341D01*
X115111004Y-95874922D01*
X115111005Y-95874924D01*
X115190024Y-96022758D01*
X115238687Y-96183177D01*
X115251000Y-96308196D01*
X115251000Y-97191803D01*
X115238687Y-97316822D01*
X115190024Y-97477242D01*
X115119114Y-97609906D01*
X115111004Y-97625078D01*
X115004659Y-97754659D01*
X114875078Y-97861004D01*
X114875076Y-97861005D01*
X114727242Y-97940024D01*
X114566823Y-97988687D01*
X114400000Y-98005117D01*
X114233178Y-97988687D01*
X114072759Y-97940024D01*
X113924925Y-97861005D01*
X113924923Y-97861004D01*
X113795342Y-97754659D01*
X113688997Y-97625078D01*
X113680887Y-97609906D01*
X113609977Y-97477242D01*
X113561314Y-97316823D01*
X113549000Y-97191803D01*
X113549000Y-96308197D01*
X113561313Y-96183178D01*
X113609976Y-96022759D01*
X113688995Y-95874923D01*
X113795341Y-95745341D01*
X113850618Y-95699976D01*
X113924922Y-95638996D01*
X113940094Y-95630886D01*
X114072758Y-95559976D01*
X114233177Y-95511313D01*
X114400000Y-95494883D01*
X114566822Y-95511313D01*
X114566822Y-95511313D01*
G37*
G36*
X104406822Y-95511313D02*
G01*
X104567241Y-95559976D01*
X104715077Y-95638995D01*
X104844659Y-95745341D01*
X104951004Y-95874922D01*
X104951005Y-95874924D01*
X105030024Y-96022758D01*
X105078687Y-96183177D01*
X105091000Y-96308196D01*
X105091000Y-97191803D01*
X105078687Y-97316822D01*
X105030024Y-97477242D01*
X104959114Y-97609906D01*
X104951004Y-97625078D01*
X104844659Y-97754659D01*
X104715078Y-97861004D01*
X104715076Y-97861005D01*
X104567242Y-97940024D01*
X104406823Y-97988687D01*
X104240000Y-98005117D01*
X104073178Y-97988687D01*
X103912759Y-97940024D01*
X103764925Y-97861005D01*
X103764923Y-97861004D01*
X103635342Y-97754659D01*
X103528997Y-97625078D01*
X103520887Y-97609906D01*
X103449977Y-97477242D01*
X103401314Y-97316823D01*
X103389000Y-97191803D01*
X103389000Y-96308197D01*
X103401313Y-96183178D01*
X103449976Y-96022759D01*
X103528995Y-95874923D01*
X103635341Y-95745341D01*
X103690618Y-95699976D01*
X103764922Y-95638996D01*
X103780094Y-95630886D01*
X103912758Y-95559976D01*
X104073177Y-95511313D01*
X104240000Y-95494883D01*
X104406822Y-95511313D01*
X104406822Y-95511313D01*
G37*
G36*
X106946822Y-95511313D02*
G01*
X107107241Y-95559976D01*
X107255077Y-95638995D01*
X107384659Y-95745341D01*
X107491004Y-95874922D01*
X107491005Y-95874924D01*
X107570024Y-96022758D01*
X107618687Y-96183177D01*
X107631000Y-96308196D01*
X107631000Y-97191803D01*
X107618687Y-97316822D01*
X107570024Y-97477242D01*
X107499114Y-97609906D01*
X107491004Y-97625078D01*
X107384659Y-97754659D01*
X107255078Y-97861004D01*
X107255076Y-97861005D01*
X107107242Y-97940024D01*
X106946823Y-97988687D01*
X106780000Y-98005117D01*
X106613178Y-97988687D01*
X106452759Y-97940024D01*
X106304925Y-97861005D01*
X106304923Y-97861004D01*
X106175342Y-97754659D01*
X106068997Y-97625078D01*
X106060887Y-97609906D01*
X105989977Y-97477242D01*
X105941314Y-97316823D01*
X105929000Y-97191803D01*
X105929000Y-96308197D01*
X105941313Y-96183178D01*
X105989976Y-96022759D01*
X106068995Y-95874923D01*
X106175341Y-95745341D01*
X106230618Y-95699976D01*
X106304922Y-95638996D01*
X106320094Y-95630886D01*
X106452758Y-95559976D01*
X106613177Y-95511313D01*
X106780000Y-95494883D01*
X106946822Y-95511313D01*
X106946822Y-95511313D01*
G37*
G36*
X109486822Y-95511313D02*
G01*
X109647241Y-95559976D01*
X109795077Y-95638995D01*
X109924659Y-95745341D01*
X110031004Y-95874922D01*
X110031005Y-95874924D01*
X110110024Y-96022758D01*
X110158687Y-96183177D01*
X110171000Y-96308196D01*
X110171000Y-97191803D01*
X110158687Y-97316822D01*
X110110024Y-97477242D01*
X110039114Y-97609906D01*
X110031004Y-97625078D01*
X109924659Y-97754659D01*
X109795078Y-97861004D01*
X109795076Y-97861005D01*
X109647242Y-97940024D01*
X109486823Y-97988687D01*
X109320000Y-98005117D01*
X109153178Y-97988687D01*
X108992759Y-97940024D01*
X108844925Y-97861005D01*
X108844923Y-97861004D01*
X108715342Y-97754659D01*
X108608997Y-97625078D01*
X108600887Y-97609906D01*
X108529977Y-97477242D01*
X108481314Y-97316823D01*
X108469000Y-97191803D01*
X108469000Y-96308197D01*
X108481313Y-96183178D01*
X108529976Y-96022759D01*
X108608995Y-95874923D01*
X108715341Y-95745341D01*
X108770618Y-95699976D01*
X108844922Y-95638996D01*
X108860094Y-95630886D01*
X108992758Y-95559976D01*
X109153177Y-95511313D01*
X109320000Y-95494883D01*
X109486822Y-95511313D01*
X109486822Y-95511313D01*
G37*
G36*
X112026822Y-95511313D02*
G01*
X112187241Y-95559976D01*
X112335077Y-95638995D01*
X112464659Y-95745341D01*
X112571004Y-95874922D01*
X112571005Y-95874924D01*
X112650024Y-96022758D01*
X112698687Y-96183177D01*
X112711000Y-96308196D01*
X112711000Y-97191803D01*
X112698687Y-97316822D01*
X112650024Y-97477242D01*
X112579114Y-97609906D01*
X112571004Y-97625078D01*
X112464659Y-97754659D01*
X112335078Y-97861004D01*
X112335076Y-97861005D01*
X112187242Y-97940024D01*
X112026823Y-97988687D01*
X111860000Y-98005117D01*
X111693178Y-97988687D01*
X111532759Y-97940024D01*
X111384925Y-97861005D01*
X111384923Y-97861004D01*
X111255342Y-97754659D01*
X111148997Y-97625078D01*
X111140887Y-97609906D01*
X111069977Y-97477242D01*
X111021314Y-97316823D01*
X111009000Y-97191803D01*
X111009000Y-96308197D01*
X111021313Y-96183178D01*
X111069976Y-96022759D01*
X111148995Y-95874923D01*
X111255341Y-95745341D01*
X111310618Y-95699976D01*
X111384922Y-95638996D01*
X111400094Y-95630886D01*
X111532758Y-95559976D01*
X111693177Y-95511313D01*
X111860000Y-95494883D01*
X112026822Y-95511313D01*
X112026822Y-95511313D01*
G37*
G36*
X124726822Y-95511313D02*
G01*
X124887241Y-95559976D01*
X125035077Y-95638995D01*
X125164659Y-95745341D01*
X125271004Y-95874922D01*
X125271005Y-95874924D01*
X125350024Y-96022758D01*
X125398687Y-96183177D01*
X125411000Y-96308196D01*
X125411000Y-97191803D01*
X125398687Y-97316822D01*
X125350024Y-97477242D01*
X125279114Y-97609906D01*
X125271004Y-97625078D01*
X125164659Y-97754659D01*
X125035078Y-97861004D01*
X125035076Y-97861005D01*
X124887242Y-97940024D01*
X124726823Y-97988687D01*
X124560000Y-98005117D01*
X124393178Y-97988687D01*
X124232759Y-97940024D01*
X124084925Y-97861005D01*
X124084923Y-97861004D01*
X123955342Y-97754659D01*
X123848997Y-97625078D01*
X123840887Y-97609906D01*
X123769977Y-97477242D01*
X123721314Y-97316823D01*
X123709000Y-97191803D01*
X123709000Y-96308197D01*
X123721313Y-96183178D01*
X123769976Y-96022759D01*
X123848995Y-95874923D01*
X123955341Y-95745341D01*
X124010618Y-95699976D01*
X124084922Y-95638996D01*
X124100094Y-95630886D01*
X124232758Y-95559976D01*
X124393177Y-95511313D01*
X124560000Y-95494883D01*
X124726822Y-95511313D01*
X124726822Y-95511313D01*
G37*
G36*
X102551000Y-98001000D02*
G01*
X100849000Y-98001000D01*
X100849000Y-95499000D01*
X102551000Y-95499000D01*
X102551000Y-98001000D01*
X102551000Y-98001000D01*
G37*
G36*
X189496823Y-95651313D02*
G01*
X189657242Y-95699976D01*
X189789906Y-95770886D01*
X189805078Y-95778996D01*
X189934659Y-95885341D01*
X190041004Y-96014922D01*
X190041005Y-96014924D01*
X190120024Y-96162758D01*
X190120025Y-96162761D01*
X190126218Y-96183176D01*
X190168687Y-96323177D01*
X190185117Y-96490000D01*
X190168687Y-96656823D01*
X190120024Y-96817242D01*
X190049114Y-96949906D01*
X190041004Y-96965078D01*
X189934659Y-97094659D01*
X189805078Y-97201004D01*
X189805076Y-97201005D01*
X189657242Y-97280024D01*
X189496823Y-97328687D01*
X189371804Y-97341000D01*
X189288196Y-97341000D01*
X189163177Y-97328687D01*
X189002758Y-97280024D01*
X188854924Y-97201005D01*
X188854922Y-97201004D01*
X188725341Y-97094659D01*
X188618996Y-96965078D01*
X188610886Y-96949906D01*
X188539976Y-96817242D01*
X188491313Y-96656823D01*
X188474883Y-96490000D01*
X188491313Y-96323177D01*
X188533782Y-96183176D01*
X188539975Y-96162761D01*
X188539976Y-96162758D01*
X188618995Y-96014924D01*
X188618996Y-96014922D01*
X188725341Y-95885341D01*
X188854922Y-95778996D01*
X188870094Y-95770886D01*
X189002758Y-95699976D01*
X189163177Y-95651313D01*
X189288196Y-95639000D01*
X189371804Y-95639000D01*
X189496823Y-95651313D01*
X189496823Y-95651313D01*
G37*
G36*
X181876823Y-95651313D02*
G01*
X182037242Y-95699976D01*
X182169906Y-95770886D01*
X182185078Y-95778996D01*
X182314659Y-95885341D01*
X182421004Y-96014922D01*
X182421005Y-96014924D01*
X182500024Y-96162758D01*
X182500025Y-96162761D01*
X182506218Y-96183176D01*
X182548687Y-96323177D01*
X182565117Y-96490000D01*
X182548687Y-96656823D01*
X182500024Y-96817242D01*
X182429114Y-96949906D01*
X182421004Y-96965078D01*
X182314659Y-97094659D01*
X182185078Y-97201004D01*
X182185076Y-97201005D01*
X182037242Y-97280024D01*
X181876823Y-97328687D01*
X181751804Y-97341000D01*
X181668196Y-97341000D01*
X181543177Y-97328687D01*
X181382758Y-97280024D01*
X181234924Y-97201005D01*
X181234922Y-97201004D01*
X181105341Y-97094659D01*
X180998996Y-96965078D01*
X180990886Y-96949906D01*
X180919976Y-96817242D01*
X180871313Y-96656823D01*
X180854883Y-96490000D01*
X180871313Y-96323177D01*
X180913782Y-96183176D01*
X180919975Y-96162761D01*
X180919976Y-96162758D01*
X180998995Y-96014924D01*
X180998996Y-96014922D01*
X181105341Y-95885341D01*
X181234922Y-95778996D01*
X181250094Y-95770886D01*
X181382758Y-95699976D01*
X181543177Y-95651313D01*
X181668196Y-95639000D01*
X181751804Y-95639000D01*
X181876823Y-95651313D01*
X181876823Y-95651313D01*
G37*
G36*
X189496823Y-93111313D02*
G01*
X189657242Y-93159976D01*
X189789906Y-93230886D01*
X189805078Y-93238996D01*
X189934659Y-93345341D01*
X190041004Y-93474922D01*
X190041005Y-93474924D01*
X190120024Y-93622758D01*
X190168687Y-93783177D01*
X190185117Y-93950000D01*
X190168687Y-94116823D01*
X190120024Y-94277242D01*
X190049114Y-94409906D01*
X190041004Y-94425078D01*
X189934659Y-94554659D01*
X189805078Y-94661004D01*
X189805076Y-94661005D01*
X189657242Y-94740024D01*
X189496823Y-94788687D01*
X189371804Y-94801000D01*
X189288196Y-94801000D01*
X189163177Y-94788687D01*
X189002758Y-94740024D01*
X188854924Y-94661005D01*
X188854922Y-94661004D01*
X188725341Y-94554659D01*
X188618996Y-94425078D01*
X188610886Y-94409906D01*
X188539976Y-94277242D01*
X188491313Y-94116823D01*
X188474883Y-93950000D01*
X188491313Y-93783177D01*
X188539976Y-93622758D01*
X188618995Y-93474924D01*
X188618996Y-93474922D01*
X188725341Y-93345341D01*
X188854922Y-93238996D01*
X188870094Y-93230886D01*
X189002758Y-93159976D01*
X189163177Y-93111313D01*
X189288196Y-93099000D01*
X189371804Y-93099000D01*
X189496823Y-93111313D01*
X189496823Y-93111313D01*
G37*
G36*
X182561000Y-94801000D02*
G01*
X180859000Y-94801000D01*
X180859000Y-93099000D01*
X182561000Y-93099000D01*
X182561000Y-94801000D01*
X182561000Y-94801000D01*
G37*
G36*
X175680823Y-89458313D02*
G01*
X175841242Y-89506976D01*
X175973906Y-89577886D01*
X175989078Y-89585996D01*
X176118659Y-89692341D01*
X176225004Y-89821922D01*
X176225005Y-89821924D01*
X176304024Y-89969758D01*
X176352687Y-90130177D01*
X176369117Y-90297000D01*
X176352687Y-90463823D01*
X176304024Y-90624242D01*
X176233114Y-90756906D01*
X176225004Y-90772078D01*
X176118659Y-90901659D01*
X175989078Y-91008004D01*
X175989076Y-91008005D01*
X175841242Y-91087024D01*
X175680823Y-91135687D01*
X175555804Y-91148000D01*
X175472196Y-91148000D01*
X175347177Y-91135687D01*
X175186758Y-91087024D01*
X175038924Y-91008005D01*
X175038922Y-91008004D01*
X174909341Y-90901659D01*
X174802996Y-90772078D01*
X174794886Y-90756906D01*
X174723976Y-90624242D01*
X174675313Y-90463823D01*
X174658883Y-90297000D01*
X174675313Y-90130177D01*
X174723976Y-89969758D01*
X174802995Y-89821924D01*
X174802996Y-89821922D01*
X174909341Y-89692341D01*
X175038922Y-89585996D01*
X175054094Y-89577886D01*
X175186758Y-89506976D01*
X175347177Y-89458313D01*
X175472196Y-89446000D01*
X175555804Y-89446000D01*
X175680823Y-89458313D01*
X175680823Y-89458313D01*
G37*
G36*
X167806823Y-89458313D02*
G01*
X167967242Y-89506976D01*
X168099906Y-89577886D01*
X168115078Y-89585996D01*
X168244659Y-89692341D01*
X168351004Y-89821922D01*
X168351005Y-89821924D01*
X168430024Y-89969758D01*
X168478687Y-90130177D01*
X168495117Y-90297000D01*
X168478687Y-90463823D01*
X168430024Y-90624242D01*
X168359114Y-90756906D01*
X168351004Y-90772078D01*
X168244659Y-90901659D01*
X168115078Y-91008004D01*
X168115076Y-91008005D01*
X167967242Y-91087024D01*
X167806823Y-91135687D01*
X167681804Y-91148000D01*
X167598196Y-91148000D01*
X167473177Y-91135687D01*
X167312758Y-91087024D01*
X167164924Y-91008005D01*
X167164922Y-91008004D01*
X167035341Y-90901659D01*
X166928996Y-90772078D01*
X166920886Y-90756906D01*
X166849976Y-90624242D01*
X166801313Y-90463823D01*
X166784883Y-90297000D01*
X166801313Y-90130177D01*
X166849976Y-89969758D01*
X166928995Y-89821924D01*
X166928996Y-89821922D01*
X167035341Y-89692341D01*
X167164922Y-89585996D01*
X167180094Y-89577886D01*
X167312758Y-89506976D01*
X167473177Y-89458313D01*
X167598196Y-89446000D01*
X167681804Y-89446000D01*
X167806823Y-89458313D01*
X167806823Y-89458313D01*
G37*
G36*
X171716823Y-89458313D02*
G01*
X171877242Y-89506976D01*
X172009906Y-89577886D01*
X172025078Y-89585996D01*
X172154659Y-89692341D01*
X172261004Y-89821922D01*
X172261005Y-89821924D01*
X172340024Y-89969758D01*
X172388687Y-90130177D01*
X172405117Y-90297000D01*
X172388687Y-90463823D01*
X172340024Y-90624242D01*
X172269114Y-90756906D01*
X172261004Y-90772078D01*
X172154659Y-90901659D01*
X172025078Y-91008004D01*
X172025076Y-91008005D01*
X171877242Y-91087024D01*
X171716823Y-91135687D01*
X171591804Y-91148000D01*
X171508196Y-91148000D01*
X171383177Y-91135687D01*
X171222758Y-91087024D01*
X171074924Y-91008005D01*
X171074922Y-91008004D01*
X170945341Y-90901659D01*
X170838996Y-90772078D01*
X170830886Y-90756906D01*
X170759976Y-90624242D01*
X170711313Y-90463823D01*
X170694883Y-90297000D01*
X170711313Y-90130177D01*
X170759976Y-89969758D01*
X170838995Y-89821924D01*
X170838996Y-89821922D01*
X170945341Y-89692341D01*
X171074922Y-89585996D01*
X171090094Y-89577886D01*
X171222758Y-89506976D01*
X171383177Y-89458313D01*
X171508196Y-89446000D01*
X171591804Y-89446000D01*
X171716823Y-89458313D01*
X171716823Y-89458313D01*
G37*
G36*
X132346822Y-80271313D02*
G01*
X132507241Y-80319976D01*
X132655077Y-80398995D01*
X132784659Y-80505341D01*
X132891004Y-80634922D01*
X132891005Y-80634924D01*
X132970024Y-80782758D01*
X133018687Y-80943177D01*
X133031000Y-81068196D01*
X133031000Y-81951803D01*
X133018687Y-82076822D01*
X132970024Y-82237242D01*
X132899114Y-82369906D01*
X132891004Y-82385078D01*
X132784659Y-82514659D01*
X132655078Y-82621004D01*
X132655076Y-82621005D01*
X132507242Y-82700024D01*
X132346823Y-82748687D01*
X132180000Y-82765117D01*
X132013178Y-82748687D01*
X131852759Y-82700024D01*
X131704925Y-82621005D01*
X131704923Y-82621004D01*
X131575342Y-82514659D01*
X131468997Y-82385078D01*
X131460887Y-82369906D01*
X131389977Y-82237242D01*
X131341314Y-82076823D01*
X131329000Y-81951803D01*
X131329000Y-81068197D01*
X131341313Y-80943178D01*
X131389976Y-80782759D01*
X131468995Y-80634923D01*
X131575341Y-80505341D01*
X131704922Y-80398996D01*
X131730680Y-80385228D01*
X131852758Y-80319976D01*
X132013177Y-80271313D01*
X132180000Y-80254883D01*
X132346822Y-80271313D01*
X132346822Y-80271313D01*
G37*
G36*
X147586822Y-80271313D02*
G01*
X147747241Y-80319976D01*
X147895077Y-80398995D01*
X148024659Y-80505341D01*
X148131004Y-80634922D01*
X148131005Y-80634924D01*
X148210024Y-80782758D01*
X148258687Y-80943177D01*
X148271000Y-81068196D01*
X148271000Y-81951803D01*
X148258687Y-82076822D01*
X148210024Y-82237242D01*
X148139114Y-82369906D01*
X148131004Y-82385078D01*
X148024659Y-82514659D01*
X147895078Y-82621004D01*
X147895076Y-82621005D01*
X147747242Y-82700024D01*
X147586823Y-82748687D01*
X147420000Y-82765117D01*
X147253178Y-82748687D01*
X147092759Y-82700024D01*
X146944925Y-82621005D01*
X146944923Y-82621004D01*
X146815342Y-82514659D01*
X146708997Y-82385078D01*
X146700887Y-82369906D01*
X146629977Y-82237242D01*
X146581314Y-82076823D01*
X146569000Y-81951803D01*
X146569000Y-81068197D01*
X146581313Y-80943178D01*
X146629976Y-80782759D01*
X146708995Y-80634923D01*
X146815341Y-80505341D01*
X146944922Y-80398996D01*
X146970680Y-80385228D01*
X147092758Y-80319976D01*
X147253177Y-80271313D01*
X147420000Y-80254883D01*
X147586822Y-80271313D01*
X147586822Y-80271313D01*
G37*
G36*
X142506822Y-80271313D02*
G01*
X142667241Y-80319976D01*
X142815077Y-80398995D01*
X142944659Y-80505341D01*
X143051004Y-80634922D01*
X143051005Y-80634924D01*
X143130024Y-80782758D01*
X143178687Y-80943177D01*
X143191000Y-81068196D01*
X143191000Y-81951803D01*
X143178687Y-82076822D01*
X143130024Y-82237242D01*
X143059114Y-82369906D01*
X143051004Y-82385078D01*
X142944659Y-82514659D01*
X142815078Y-82621004D01*
X142815076Y-82621005D01*
X142667242Y-82700024D01*
X142506823Y-82748687D01*
X142340000Y-82765117D01*
X142173178Y-82748687D01*
X142012759Y-82700024D01*
X141864925Y-82621005D01*
X141864923Y-82621004D01*
X141735342Y-82514659D01*
X141628997Y-82385078D01*
X141620887Y-82369906D01*
X141549977Y-82237242D01*
X141501314Y-82076823D01*
X141489000Y-81951803D01*
X141489000Y-81068197D01*
X141501313Y-80943178D01*
X141549976Y-80782759D01*
X141628995Y-80634923D01*
X141735341Y-80505341D01*
X141864922Y-80398996D01*
X141890680Y-80385228D01*
X142012758Y-80319976D01*
X142173177Y-80271313D01*
X142340000Y-80254883D01*
X142506822Y-80271313D01*
X142506822Y-80271313D01*
G37*
G36*
X139966822Y-80271313D02*
G01*
X140127241Y-80319976D01*
X140275077Y-80398995D01*
X140404659Y-80505341D01*
X140511004Y-80634922D01*
X140511005Y-80634924D01*
X140590024Y-80782758D01*
X140638687Y-80943177D01*
X140651000Y-81068196D01*
X140651000Y-81951803D01*
X140638687Y-82076822D01*
X140590024Y-82237242D01*
X140519114Y-82369906D01*
X140511004Y-82385078D01*
X140404659Y-82514659D01*
X140275078Y-82621004D01*
X140275076Y-82621005D01*
X140127242Y-82700024D01*
X139966823Y-82748687D01*
X139800000Y-82765117D01*
X139633178Y-82748687D01*
X139472759Y-82700024D01*
X139324925Y-82621005D01*
X139324923Y-82621004D01*
X139195342Y-82514659D01*
X139088997Y-82385078D01*
X139080887Y-82369906D01*
X139009977Y-82237242D01*
X138961314Y-82076823D01*
X138949000Y-81951803D01*
X138949000Y-81068197D01*
X138961313Y-80943178D01*
X139009976Y-80782759D01*
X139088995Y-80634923D01*
X139195341Y-80505341D01*
X139324922Y-80398996D01*
X139350680Y-80385228D01*
X139472758Y-80319976D01*
X139633177Y-80271313D01*
X139800000Y-80254883D01*
X139966822Y-80271313D01*
X139966822Y-80271313D01*
G37*
G36*
X137426822Y-80271313D02*
G01*
X137587241Y-80319976D01*
X137735077Y-80398995D01*
X137864659Y-80505341D01*
X137971004Y-80634922D01*
X137971005Y-80634924D01*
X138050024Y-80782758D01*
X138098687Y-80943177D01*
X138111000Y-81068196D01*
X138111000Y-81951803D01*
X138098687Y-82076822D01*
X138050024Y-82237242D01*
X137979114Y-82369906D01*
X137971004Y-82385078D01*
X137864659Y-82514659D01*
X137735078Y-82621004D01*
X137735076Y-82621005D01*
X137587242Y-82700024D01*
X137426823Y-82748687D01*
X137260000Y-82765117D01*
X137093178Y-82748687D01*
X136932759Y-82700024D01*
X136784925Y-82621005D01*
X136784923Y-82621004D01*
X136655342Y-82514659D01*
X136548997Y-82385078D01*
X136540887Y-82369906D01*
X136469977Y-82237242D01*
X136421314Y-82076823D01*
X136409000Y-81951803D01*
X136409000Y-81068197D01*
X136421313Y-80943178D01*
X136469976Y-80782759D01*
X136548995Y-80634923D01*
X136655341Y-80505341D01*
X136784922Y-80398996D01*
X136810680Y-80385228D01*
X136932758Y-80319976D01*
X137093177Y-80271313D01*
X137260000Y-80254883D01*
X137426822Y-80271313D01*
X137426822Y-80271313D01*
G37*
G36*
X134886822Y-80271313D02*
G01*
X135047241Y-80319976D01*
X135195077Y-80398995D01*
X135324659Y-80505341D01*
X135431004Y-80634922D01*
X135431005Y-80634924D01*
X135510024Y-80782758D01*
X135558687Y-80943177D01*
X135571000Y-81068196D01*
X135571000Y-81951803D01*
X135558687Y-82076822D01*
X135510024Y-82237242D01*
X135439114Y-82369906D01*
X135431004Y-82385078D01*
X135324659Y-82514659D01*
X135195078Y-82621004D01*
X135195076Y-82621005D01*
X135047242Y-82700024D01*
X134886823Y-82748687D01*
X134720000Y-82765117D01*
X134553178Y-82748687D01*
X134392759Y-82700024D01*
X134244925Y-82621005D01*
X134244923Y-82621004D01*
X134115342Y-82514659D01*
X134008997Y-82385078D01*
X134000887Y-82369906D01*
X133929977Y-82237242D01*
X133881314Y-82076823D01*
X133869000Y-81951803D01*
X133869000Y-81068197D01*
X133881313Y-80943178D01*
X133929976Y-80782759D01*
X134008995Y-80634923D01*
X134115341Y-80505341D01*
X134244922Y-80398996D01*
X134270680Y-80385228D01*
X134392758Y-80319976D01*
X134553177Y-80271313D01*
X134720000Y-80254883D01*
X134886822Y-80271313D01*
X134886822Y-80271313D01*
G37*
G36*
X127266822Y-80271313D02*
G01*
X127427241Y-80319976D01*
X127575077Y-80398995D01*
X127704659Y-80505341D01*
X127811004Y-80634922D01*
X127811005Y-80634924D01*
X127890024Y-80782758D01*
X127938687Y-80943177D01*
X127951000Y-81068196D01*
X127951000Y-81951803D01*
X127938687Y-82076822D01*
X127890024Y-82237242D01*
X127819114Y-82369906D01*
X127811004Y-82385078D01*
X127704659Y-82514659D01*
X127575078Y-82621004D01*
X127575076Y-82621005D01*
X127427242Y-82700024D01*
X127266823Y-82748687D01*
X127100000Y-82765117D01*
X126933178Y-82748687D01*
X126772759Y-82700024D01*
X126624925Y-82621005D01*
X126624923Y-82621004D01*
X126495342Y-82514659D01*
X126388997Y-82385078D01*
X126380887Y-82369906D01*
X126309977Y-82237242D01*
X126261314Y-82076823D01*
X126249000Y-81951803D01*
X126249000Y-81068197D01*
X126261313Y-80943178D01*
X126309976Y-80782759D01*
X126388995Y-80634923D01*
X126495341Y-80505341D01*
X126624922Y-80398996D01*
X126650680Y-80385228D01*
X126772758Y-80319976D01*
X126933177Y-80271313D01*
X127100000Y-80254883D01*
X127266822Y-80271313D01*
X127266822Y-80271313D01*
G37*
G36*
X122186822Y-80271313D02*
G01*
X122347241Y-80319976D01*
X122495077Y-80398995D01*
X122624659Y-80505341D01*
X122731004Y-80634922D01*
X122731005Y-80634924D01*
X122810024Y-80782758D01*
X122858687Y-80943177D01*
X122871000Y-81068196D01*
X122871000Y-81951803D01*
X122858687Y-82076822D01*
X122810024Y-82237242D01*
X122739114Y-82369906D01*
X122731004Y-82385078D01*
X122624659Y-82514659D01*
X122495078Y-82621004D01*
X122495076Y-82621005D01*
X122347242Y-82700024D01*
X122186823Y-82748687D01*
X122020000Y-82765117D01*
X121853178Y-82748687D01*
X121692759Y-82700024D01*
X121544925Y-82621005D01*
X121544923Y-82621004D01*
X121415342Y-82514659D01*
X121308997Y-82385078D01*
X121300887Y-82369906D01*
X121229977Y-82237242D01*
X121181314Y-82076823D01*
X121169000Y-81951803D01*
X121169000Y-81068197D01*
X121181313Y-80943178D01*
X121229976Y-80782759D01*
X121308995Y-80634923D01*
X121415341Y-80505341D01*
X121544922Y-80398996D01*
X121570680Y-80385228D01*
X121692758Y-80319976D01*
X121853177Y-80271313D01*
X122020000Y-80254883D01*
X122186822Y-80271313D01*
X122186822Y-80271313D01*
G37*
G36*
X150126822Y-80271313D02*
G01*
X150287241Y-80319976D01*
X150435077Y-80398995D01*
X150564659Y-80505341D01*
X150671004Y-80634922D01*
X150671005Y-80634924D01*
X150750024Y-80782758D01*
X150798687Y-80943177D01*
X150811000Y-81068196D01*
X150811000Y-81951803D01*
X150798687Y-82076822D01*
X150750024Y-82237242D01*
X150679114Y-82369906D01*
X150671004Y-82385078D01*
X150564659Y-82514659D01*
X150435078Y-82621004D01*
X150435076Y-82621005D01*
X150287242Y-82700024D01*
X150126823Y-82748687D01*
X149960000Y-82765117D01*
X149793178Y-82748687D01*
X149632759Y-82700024D01*
X149484925Y-82621005D01*
X149484923Y-82621004D01*
X149355342Y-82514659D01*
X149248997Y-82385078D01*
X149240887Y-82369906D01*
X149169977Y-82237242D01*
X149121314Y-82076823D01*
X149109000Y-81951803D01*
X149109000Y-81068197D01*
X149121313Y-80943178D01*
X149169976Y-80782759D01*
X149248995Y-80634923D01*
X149355341Y-80505341D01*
X149484922Y-80398996D01*
X149510680Y-80385228D01*
X149632758Y-80319976D01*
X149793177Y-80271313D01*
X149960000Y-80254883D01*
X150126822Y-80271313D01*
X150126822Y-80271313D01*
G37*
G36*
X119646822Y-80271313D02*
G01*
X119807241Y-80319976D01*
X119955077Y-80398995D01*
X120084659Y-80505341D01*
X120191004Y-80634922D01*
X120191005Y-80634924D01*
X120270024Y-80782758D01*
X120318687Y-80943177D01*
X120331000Y-81068196D01*
X120331000Y-81951803D01*
X120318687Y-82076822D01*
X120270024Y-82237242D01*
X120199114Y-82369906D01*
X120191004Y-82385078D01*
X120084659Y-82514659D01*
X119955078Y-82621004D01*
X119955076Y-82621005D01*
X119807242Y-82700024D01*
X119646823Y-82748687D01*
X119480000Y-82765117D01*
X119313178Y-82748687D01*
X119152759Y-82700024D01*
X119004925Y-82621005D01*
X119004923Y-82621004D01*
X118875342Y-82514659D01*
X118768997Y-82385078D01*
X118760887Y-82369906D01*
X118689977Y-82237242D01*
X118641314Y-82076823D01*
X118629000Y-81951803D01*
X118629000Y-81068197D01*
X118641313Y-80943178D01*
X118689976Y-80782759D01*
X118768995Y-80634923D01*
X118875341Y-80505341D01*
X119004922Y-80398996D01*
X119030680Y-80385228D01*
X119152758Y-80319976D01*
X119313177Y-80271313D01*
X119480000Y-80254883D01*
X119646822Y-80271313D01*
X119646822Y-80271313D01*
G37*
G36*
X117106822Y-80271313D02*
G01*
X117267241Y-80319976D01*
X117415077Y-80398995D01*
X117544659Y-80505341D01*
X117651004Y-80634922D01*
X117651005Y-80634924D01*
X117730024Y-80782758D01*
X117778687Y-80943177D01*
X117791000Y-81068196D01*
X117791000Y-81951803D01*
X117778687Y-82076822D01*
X117730024Y-82237242D01*
X117659114Y-82369906D01*
X117651004Y-82385078D01*
X117544659Y-82514659D01*
X117415078Y-82621004D01*
X117415076Y-82621005D01*
X117267242Y-82700024D01*
X117106823Y-82748687D01*
X116940000Y-82765117D01*
X116773178Y-82748687D01*
X116612759Y-82700024D01*
X116464925Y-82621005D01*
X116464923Y-82621004D01*
X116335342Y-82514659D01*
X116228997Y-82385078D01*
X116220887Y-82369906D01*
X116149977Y-82237242D01*
X116101314Y-82076823D01*
X116089000Y-81951803D01*
X116089000Y-81068197D01*
X116101313Y-80943178D01*
X116149976Y-80782759D01*
X116228995Y-80634923D01*
X116335341Y-80505341D01*
X116464922Y-80398996D01*
X116490680Y-80385228D01*
X116612758Y-80319976D01*
X116773177Y-80271313D01*
X116940000Y-80254883D01*
X117106822Y-80271313D01*
X117106822Y-80271313D01*
G37*
G36*
X114566822Y-80271313D02*
G01*
X114727241Y-80319976D01*
X114875077Y-80398995D01*
X115004659Y-80505341D01*
X115111004Y-80634922D01*
X115111005Y-80634924D01*
X115190024Y-80782758D01*
X115238687Y-80943177D01*
X115251000Y-81068196D01*
X115251000Y-81951803D01*
X115238687Y-82076822D01*
X115190024Y-82237242D01*
X115119114Y-82369906D01*
X115111004Y-82385078D01*
X115004659Y-82514659D01*
X114875078Y-82621004D01*
X114875076Y-82621005D01*
X114727242Y-82700024D01*
X114566823Y-82748687D01*
X114400000Y-82765117D01*
X114233178Y-82748687D01*
X114072759Y-82700024D01*
X113924925Y-82621005D01*
X113924923Y-82621004D01*
X113795342Y-82514659D01*
X113688997Y-82385078D01*
X113680887Y-82369906D01*
X113609977Y-82237242D01*
X113561314Y-82076823D01*
X113549000Y-81951803D01*
X113549000Y-81068197D01*
X113561313Y-80943178D01*
X113609976Y-80782759D01*
X113688995Y-80634923D01*
X113795341Y-80505341D01*
X113924922Y-80398996D01*
X113950680Y-80385228D01*
X114072758Y-80319976D01*
X114233177Y-80271313D01*
X114400000Y-80254883D01*
X114566822Y-80271313D01*
X114566822Y-80271313D01*
G37*
G36*
X112026822Y-80271313D02*
G01*
X112187241Y-80319976D01*
X112335077Y-80398995D01*
X112464659Y-80505341D01*
X112571004Y-80634922D01*
X112571005Y-80634924D01*
X112650024Y-80782758D01*
X112698687Y-80943177D01*
X112711000Y-81068196D01*
X112711000Y-81951803D01*
X112698687Y-82076822D01*
X112650024Y-82237242D01*
X112579114Y-82369906D01*
X112571004Y-82385078D01*
X112464659Y-82514659D01*
X112335078Y-82621004D01*
X112335076Y-82621005D01*
X112187242Y-82700024D01*
X112026823Y-82748687D01*
X111860000Y-82765117D01*
X111693178Y-82748687D01*
X111532759Y-82700024D01*
X111384925Y-82621005D01*
X111384923Y-82621004D01*
X111255342Y-82514659D01*
X111148997Y-82385078D01*
X111140887Y-82369906D01*
X111069977Y-82237242D01*
X111021314Y-82076823D01*
X111009000Y-81951803D01*
X111009000Y-81068197D01*
X111021313Y-80943178D01*
X111069976Y-80782759D01*
X111148995Y-80634923D01*
X111255341Y-80505341D01*
X111384922Y-80398996D01*
X111410680Y-80385228D01*
X111532758Y-80319976D01*
X111693177Y-80271313D01*
X111860000Y-80254883D01*
X112026822Y-80271313D01*
X112026822Y-80271313D01*
G37*
G36*
X109486822Y-80271313D02*
G01*
X109647241Y-80319976D01*
X109795077Y-80398995D01*
X109924659Y-80505341D01*
X110031004Y-80634922D01*
X110031005Y-80634924D01*
X110110024Y-80782758D01*
X110158687Y-80943177D01*
X110171000Y-81068196D01*
X110171000Y-81951803D01*
X110158687Y-82076822D01*
X110110024Y-82237242D01*
X110039114Y-82369906D01*
X110031004Y-82385078D01*
X109924659Y-82514659D01*
X109795078Y-82621004D01*
X109795076Y-82621005D01*
X109647242Y-82700024D01*
X109486823Y-82748687D01*
X109320000Y-82765117D01*
X109153178Y-82748687D01*
X108992759Y-82700024D01*
X108844925Y-82621005D01*
X108844923Y-82621004D01*
X108715342Y-82514659D01*
X108608997Y-82385078D01*
X108600887Y-82369906D01*
X108529977Y-82237242D01*
X108481314Y-82076823D01*
X108469000Y-81951803D01*
X108469000Y-81068197D01*
X108481313Y-80943178D01*
X108529976Y-80782759D01*
X108608995Y-80634923D01*
X108715341Y-80505341D01*
X108844922Y-80398996D01*
X108870680Y-80385228D01*
X108992758Y-80319976D01*
X109153177Y-80271313D01*
X109320000Y-80254883D01*
X109486822Y-80271313D01*
X109486822Y-80271313D01*
G37*
G36*
X106946822Y-80271313D02*
G01*
X107107241Y-80319976D01*
X107255077Y-80398995D01*
X107384659Y-80505341D01*
X107491004Y-80634922D01*
X107491005Y-80634924D01*
X107570024Y-80782758D01*
X107618687Y-80943177D01*
X107631000Y-81068196D01*
X107631000Y-81951803D01*
X107618687Y-82076822D01*
X107570024Y-82237242D01*
X107499114Y-82369906D01*
X107491004Y-82385078D01*
X107384659Y-82514659D01*
X107255078Y-82621004D01*
X107255076Y-82621005D01*
X107107242Y-82700024D01*
X106946823Y-82748687D01*
X106780000Y-82765117D01*
X106613178Y-82748687D01*
X106452759Y-82700024D01*
X106304925Y-82621005D01*
X106304923Y-82621004D01*
X106175342Y-82514659D01*
X106068997Y-82385078D01*
X106060887Y-82369906D01*
X105989977Y-82237242D01*
X105941314Y-82076823D01*
X105929000Y-81951803D01*
X105929000Y-81068197D01*
X105941313Y-80943178D01*
X105989976Y-80782759D01*
X106068995Y-80634923D01*
X106175341Y-80505341D01*
X106304922Y-80398996D01*
X106330680Y-80385228D01*
X106452758Y-80319976D01*
X106613177Y-80271313D01*
X106780000Y-80254883D01*
X106946822Y-80271313D01*
X106946822Y-80271313D01*
G37*
G36*
X124726822Y-80271313D02*
G01*
X124887241Y-80319976D01*
X125035077Y-80398995D01*
X125164659Y-80505341D01*
X125271004Y-80634922D01*
X125271005Y-80634924D01*
X125350024Y-80782758D01*
X125398687Y-80943177D01*
X125411000Y-81068196D01*
X125411000Y-81951803D01*
X125398687Y-82076822D01*
X125350024Y-82237242D01*
X125279114Y-82369906D01*
X125271004Y-82385078D01*
X125164659Y-82514659D01*
X125035078Y-82621004D01*
X125035076Y-82621005D01*
X124887242Y-82700024D01*
X124726823Y-82748687D01*
X124560000Y-82765117D01*
X124393178Y-82748687D01*
X124232759Y-82700024D01*
X124084925Y-82621005D01*
X124084923Y-82621004D01*
X123955342Y-82514659D01*
X123848997Y-82385078D01*
X123840887Y-82369906D01*
X123769977Y-82237242D01*
X123721314Y-82076823D01*
X123709000Y-81951803D01*
X123709000Y-81068197D01*
X123721313Y-80943178D01*
X123769976Y-80782759D01*
X123848995Y-80634923D01*
X123955341Y-80505341D01*
X124084922Y-80398996D01*
X124110680Y-80385228D01*
X124232758Y-80319976D01*
X124393177Y-80271313D01*
X124560000Y-80254883D01*
X124726822Y-80271313D01*
X124726822Y-80271313D01*
G37*
G36*
X129806822Y-80271313D02*
G01*
X129967241Y-80319976D01*
X130115077Y-80398995D01*
X130244659Y-80505341D01*
X130351004Y-80634922D01*
X130351005Y-80634924D01*
X130430024Y-80782758D01*
X130478687Y-80943177D01*
X130491000Y-81068196D01*
X130491000Y-81951803D01*
X130478687Y-82076822D01*
X130430024Y-82237242D01*
X130359114Y-82369906D01*
X130351004Y-82385078D01*
X130244659Y-82514659D01*
X130115078Y-82621004D01*
X130115076Y-82621005D01*
X129967242Y-82700024D01*
X129806823Y-82748687D01*
X129640000Y-82765117D01*
X129473178Y-82748687D01*
X129312759Y-82700024D01*
X129164925Y-82621005D01*
X129164923Y-82621004D01*
X129035342Y-82514659D01*
X128928997Y-82385078D01*
X128920887Y-82369906D01*
X128849977Y-82237242D01*
X128801314Y-82076823D01*
X128789000Y-81951803D01*
X128789000Y-81068197D01*
X128801313Y-80943178D01*
X128849976Y-80782759D01*
X128928995Y-80634923D01*
X129035341Y-80505341D01*
X129164922Y-80398996D01*
X129190680Y-80385228D01*
X129312758Y-80319976D01*
X129473177Y-80271313D01*
X129640000Y-80254883D01*
X129806822Y-80271313D01*
X129806822Y-80271313D01*
G37*
G36*
X145046822Y-80271313D02*
G01*
X145207241Y-80319976D01*
X145355077Y-80398995D01*
X145484659Y-80505341D01*
X145591004Y-80634922D01*
X145591005Y-80634924D01*
X145670024Y-80782758D01*
X145718687Y-80943177D01*
X145731000Y-81068196D01*
X145731000Y-81951803D01*
X145718687Y-82076822D01*
X145670024Y-82237242D01*
X145599114Y-82369906D01*
X145591004Y-82385078D01*
X145484659Y-82514659D01*
X145355078Y-82621004D01*
X145355076Y-82621005D01*
X145207242Y-82700024D01*
X145046823Y-82748687D01*
X144880000Y-82765117D01*
X144713178Y-82748687D01*
X144552759Y-82700024D01*
X144404925Y-82621005D01*
X144404923Y-82621004D01*
X144275342Y-82514659D01*
X144168997Y-82385078D01*
X144160887Y-82369906D01*
X144089977Y-82237242D01*
X144041314Y-82076823D01*
X144029000Y-81951803D01*
X144029000Y-81068197D01*
X144041313Y-80943178D01*
X144089976Y-80782759D01*
X144168995Y-80634923D01*
X144275341Y-80505341D01*
X144404922Y-80398996D01*
X144430680Y-80385228D01*
X144552758Y-80319976D01*
X144713177Y-80271313D01*
X144880000Y-80254883D01*
X145046822Y-80271313D01*
X145046822Y-80271313D01*
G37*
G36*
X104406822Y-80271313D02*
G01*
X104567241Y-80319976D01*
X104715077Y-80398995D01*
X104844659Y-80505341D01*
X104951004Y-80634922D01*
X104951005Y-80634924D01*
X105030024Y-80782758D01*
X105078687Y-80943177D01*
X105091000Y-81068196D01*
X105091000Y-81951803D01*
X105078687Y-82076822D01*
X105030024Y-82237242D01*
X104959114Y-82369906D01*
X104951004Y-82385078D01*
X104844659Y-82514659D01*
X104715078Y-82621004D01*
X104715076Y-82621005D01*
X104567242Y-82700024D01*
X104406823Y-82748687D01*
X104240000Y-82765117D01*
X104073178Y-82748687D01*
X103912759Y-82700024D01*
X103764925Y-82621005D01*
X103764923Y-82621004D01*
X103635342Y-82514659D01*
X103528997Y-82385078D01*
X103520887Y-82369906D01*
X103449977Y-82237242D01*
X103401314Y-82076823D01*
X103389000Y-81951803D01*
X103389000Y-81068197D01*
X103401313Y-80943178D01*
X103449976Y-80782759D01*
X103528995Y-80634923D01*
X103635341Y-80505341D01*
X103764922Y-80398996D01*
X103790680Y-80385228D01*
X103912758Y-80319976D01*
X104073177Y-80271313D01*
X104240000Y-80254883D01*
X104406822Y-80271313D01*
X104406822Y-80271313D01*
G37*
G36*
X101866822Y-80271313D02*
G01*
X102027241Y-80319976D01*
X102175077Y-80398995D01*
X102304659Y-80505341D01*
X102411004Y-80634922D01*
X102411005Y-80634924D01*
X102490024Y-80782758D01*
X102538687Y-80943177D01*
X102551000Y-81068196D01*
X102551000Y-81951803D01*
X102538687Y-82076822D01*
X102490024Y-82237242D01*
X102419114Y-82369906D01*
X102411004Y-82385078D01*
X102304659Y-82514659D01*
X102175078Y-82621004D01*
X102175076Y-82621005D01*
X102027242Y-82700024D01*
X101866823Y-82748687D01*
X101700000Y-82765117D01*
X101533178Y-82748687D01*
X101372759Y-82700024D01*
X101224925Y-82621005D01*
X101224923Y-82621004D01*
X101095342Y-82514659D01*
X100988997Y-82385078D01*
X100980887Y-82369906D01*
X100909977Y-82237242D01*
X100861314Y-82076823D01*
X100849000Y-81951803D01*
X100849000Y-81068197D01*
X100861313Y-80943178D01*
X100909976Y-80782759D01*
X100988995Y-80634923D01*
X101095341Y-80505341D01*
X101224922Y-80398996D01*
X101250680Y-80385228D01*
X101372758Y-80319976D01*
X101533177Y-80271313D01*
X101700000Y-80254883D01*
X101866822Y-80271313D01*
X101866822Y-80271313D01*
G37*
G36*
X167888228Y-79318703D02*
G01*
X168043100Y-79382853D01*
X168182481Y-79475985D01*
X168301015Y-79594519D01*
X168394147Y-79733900D01*
X168458297Y-79888772D01*
X168491000Y-80053184D01*
X168491000Y-80220816D01*
X168458297Y-80385228D01*
X168394147Y-80540100D01*
X168301015Y-80679481D01*
X168182481Y-80798015D01*
X168043100Y-80891147D01*
X167888228Y-80955297D01*
X167723816Y-80988000D01*
X167556184Y-80988000D01*
X167391772Y-80955297D01*
X167236900Y-80891147D01*
X167097519Y-80798015D01*
X166978985Y-80679481D01*
X166885853Y-80540100D01*
X166821703Y-80385228D01*
X166789000Y-80220816D01*
X166789000Y-80053184D01*
X166821703Y-79888772D01*
X166885853Y-79733900D01*
X166978985Y-79594519D01*
X167097519Y-79475985D01*
X167236900Y-79382853D01*
X167391772Y-79318703D01*
X167556184Y-79286000D01*
X167723816Y-79286000D01*
X167888228Y-79318703D01*
X167888228Y-79318703D01*
G37*
G36*
X175762228Y-79318703D02*
G01*
X175917100Y-79382853D01*
X176056481Y-79475985D01*
X176175015Y-79594519D01*
X176268147Y-79733900D01*
X176332297Y-79888772D01*
X176365000Y-80053184D01*
X176365000Y-80220816D01*
X176332297Y-80385228D01*
X176268147Y-80540100D01*
X176175015Y-80679481D01*
X176056481Y-80798015D01*
X175917100Y-80891147D01*
X175762228Y-80955297D01*
X175597816Y-80988000D01*
X175430184Y-80988000D01*
X175265772Y-80955297D01*
X175110900Y-80891147D01*
X174971519Y-80798015D01*
X174852985Y-80679481D01*
X174759853Y-80540100D01*
X174695703Y-80385228D01*
X174663000Y-80220816D01*
X174663000Y-80053184D01*
X174695703Y-79888772D01*
X174759853Y-79733900D01*
X174852985Y-79594519D01*
X174971519Y-79475985D01*
X175110900Y-79382853D01*
X175265772Y-79318703D01*
X175430184Y-79286000D01*
X175597816Y-79286000D01*
X175762228Y-79318703D01*
X175762228Y-79318703D01*
G37*
G36*
X171798228Y-79318703D02*
G01*
X171953100Y-79382853D01*
X172092481Y-79475985D01*
X172211015Y-79594519D01*
X172304147Y-79733900D01*
X172368297Y-79888772D01*
X172401000Y-80053184D01*
X172401000Y-80220816D01*
X172368297Y-80385228D01*
X172304147Y-80540100D01*
X172211015Y-80679481D01*
X172092481Y-80798015D01*
X171953100Y-80891147D01*
X171798228Y-80955297D01*
X171633816Y-80988000D01*
X171466184Y-80988000D01*
X171301772Y-80955297D01*
X171146900Y-80891147D01*
X171007519Y-80798015D01*
X170888985Y-80679481D01*
X170795853Y-80540100D01*
X170731703Y-80385228D01*
X170699000Y-80220816D01*
X170699000Y-80053184D01*
X170731703Y-79888772D01*
X170795853Y-79733900D01*
X170888985Y-79594519D01*
X171007519Y-79475985D01*
X171146900Y-79382853D01*
X171301772Y-79318703D01*
X171466184Y-79286000D01*
X171633816Y-79286000D01*
X171798228Y-79318703D01*
X171798228Y-79318703D01*
G37*
M02*
