M48
; DRILL file {KiCad (5.1.2)-2} date 18.09.2021 22:18:38
; FORMAT={-:-/ absolute / metric / decimal}
; #@! TF.CreationDate,2021-09-18T22:18:38+02:00
; #@! TF.GenerationSoftware,Kicad,Pcbnew,(5.1.2)-2
; #@! TF.FileFunction,Plated,1,2,PTH
FMAT,2
METRIC
T1C0.400
T2C0.800
T3C1.000
%
G90
G05
T1
X101.7Y-104.37
X104.24Y-103.1
X106.78Y-101.83
X109.32Y-100.56
X111.86Y-99.29
X114.4Y-85.32
X116.94Y-86.59
X119.48Y-87.86
X122.02Y-89.13
X124.56Y-90.4
X129.64Y-91.67
X132.18Y-92.94
X134.72Y-94.21
X137.26Y-85.32
X137.26Y-100.56
X151.23Y-103.1
X152.5Y-101.83
X157.58Y-96.75
X157.58Y-96.75
X160.12Y-91.67
X160.12Y-94.21
X166.47Y-95.48
X166.47Y-100.56
X169.01Y-104.37
X170.915Y-93.575
T2
X175.514Y-80.137
X175.514Y-90.297
X167.64Y-80.137
X167.64Y-90.297
X171.55Y-80.137
X171.55Y-90.297
X101.7Y-81.51
X101.7Y-96.75
X104.24Y-81.51
X104.24Y-96.75
X106.78Y-81.51
X106.78Y-96.75
X109.32Y-81.51
X109.32Y-96.75
X111.86Y-81.51
X111.86Y-96.75
X114.4Y-81.51
X114.4Y-96.75
X116.94Y-81.51
X116.94Y-96.75
X119.48Y-81.51
X119.48Y-96.75
X122.02Y-81.51
X122.02Y-96.75
X124.56Y-81.51
X124.56Y-96.75
X127.1Y-81.51
X127.1Y-96.75
X129.64Y-81.51
X129.64Y-96.75
X132.18Y-81.51
X132.18Y-96.75
X134.72Y-81.51
X134.72Y-96.75
X137.26Y-81.51
X137.26Y-96.75
X139.8Y-81.51
X139.8Y-96.75
X142.34Y-81.51
X142.34Y-96.75
X144.88Y-81.51
X144.88Y-96.75
X147.42Y-81.51
X147.42Y-96.75
X149.96Y-81.51
X149.96Y-96.75
X132.18Y-102.465
X142.34Y-102.465
X129.68Y-105.64
X132.18Y-105.64
X181.71Y-93.95
X181.71Y-96.49
X181.71Y-99.03
X181.71Y-101.57
X189.33Y-93.95
X189.33Y-96.49
X189.33Y-99.03
X189.33Y-101.57
T3
X89.0Y-110.0
X91.54Y-110.0
X94.08Y-110.0
X96.62Y-110.0
X99.16Y-110.0
X101.7Y-110.0
X104.24Y-110.0
X106.78Y-110.0
X109.32Y-110.0
X111.86Y-110.0
X114.4Y-110.0
X116.94Y-110.0
X119.48Y-110.0
X122.02Y-110.0
X124.56Y-110.0
X127.1Y-110.0
X129.64Y-110.0
X132.18Y-110.0
X134.72Y-110.0
X137.26Y-110.0
X139.8Y-110.0
X142.34Y-110.0
X144.88Y-110.0
X147.42Y-110.0
X149.96Y-110.0
X152.5Y-110.0
X155.04Y-110.0
X157.58Y-110.0
X160.12Y-110.0
X162.66Y-110.0
X165.2Y-110.0
X167.74Y-110.0
X170.28Y-110.0
X172.82Y-110.0
X175.36Y-110.0
X177.9Y-110.0
X180.44Y-110.0
X182.98Y-110.0
X185.52Y-110.0
X188.06Y-110.0
T0
M30
