G04 #@! TF.GenerationSoftware,KiCad,Pcbnew,(5.1.2)-2*
G04 #@! TF.CreationDate,2021-09-18T22:18:35+02:00*
G04 #@! TF.ProjectId,aZ80_CPU,615a3830-5f43-4505-952e-6b696361645f,rev?*
G04 #@! TF.SameCoordinates,Original*
G04 #@! TF.FileFunction,Copper,L2,Bot*
G04 #@! TF.FilePolarity,Positive*
%FSLAX46Y46*%
G04 Gerber Fmt 4.6, Leading zero omitted, Abs format (unit mm)*
G04 Created by KiCad (PCBNEW (5.1.2)-2) date 2021-09-18 22:18:35*
%MOMM*%
%LPD*%
G04 APERTURE LIST*
%ADD10O,1.600000X1.600000*%
%ADD11C,1.600000*%
%ADD12O,1.600000X2.400000*%
%ADD13R,1.600000X2.400000*%
%ADD14R,1.600000X1.600000*%
%ADD15O,1.700000X1.700000*%
%ADD16R,1.700000X1.700000*%
%ADD17C,0.800000*%
%ADD18C,0.500000*%
%ADD19C,0.254000*%
G04 APERTURE END LIST*
D10*
X142340000Y-102465000D03*
D11*
X132180000Y-102465000D03*
D10*
X175514000Y-90297000D03*
D11*
X175514000Y-80137000D03*
D10*
X171550000Y-90297000D03*
D11*
X171550000Y-80137000D03*
D10*
X167640000Y-90297000D03*
D11*
X167640000Y-80137000D03*
X129680000Y-105640000D03*
X132180000Y-105640000D03*
D12*
X101700000Y-81510000D03*
X149960000Y-96750000D03*
X104240000Y-81510000D03*
X147420000Y-96750000D03*
X106780000Y-81510000D03*
X144880000Y-96750000D03*
X109320000Y-81510000D03*
X142340000Y-96750000D03*
X111860000Y-81510000D03*
X139800000Y-96750000D03*
X114400000Y-81510000D03*
X137260000Y-96750000D03*
X116940000Y-81510000D03*
X134720000Y-96750000D03*
X119480000Y-81510000D03*
X132180000Y-96750000D03*
X122020000Y-81510000D03*
X129640000Y-96750000D03*
X124560000Y-81510000D03*
X127100000Y-96750000D03*
X127100000Y-81510000D03*
X124560000Y-96750000D03*
X129640000Y-81510000D03*
X122020000Y-96750000D03*
X132180000Y-81510000D03*
X119480000Y-96750000D03*
X134720000Y-81510000D03*
X116940000Y-96750000D03*
X137260000Y-81510000D03*
X114400000Y-96750000D03*
X139800000Y-81510000D03*
X111860000Y-96750000D03*
X142340000Y-81510000D03*
X109320000Y-96750000D03*
X144880000Y-81510000D03*
X106780000Y-96750000D03*
X147420000Y-81510000D03*
X104240000Y-96750000D03*
X149960000Y-81510000D03*
D13*
X101700000Y-96750000D03*
D10*
X189330000Y-93950000D03*
X181710000Y-101570000D03*
X189330000Y-96490000D03*
X181710000Y-99030000D03*
X189330000Y-99030000D03*
X181710000Y-96490000D03*
X189330000Y-101570000D03*
D14*
X181710000Y-93950000D03*
D15*
X188060000Y-110000000D03*
X185520000Y-110000000D03*
X182980000Y-110000000D03*
X180440000Y-110000000D03*
X177900000Y-110000000D03*
X175360000Y-110000000D03*
X172820000Y-110000000D03*
X170280000Y-110000000D03*
X167740000Y-110000000D03*
X165200000Y-110000000D03*
X162660000Y-110000000D03*
X160120000Y-110000000D03*
X157580000Y-110000000D03*
X155040000Y-110000000D03*
X152500000Y-110000000D03*
X149960000Y-110000000D03*
X147420000Y-110000000D03*
X144880000Y-110000000D03*
X142340000Y-110000000D03*
X139800000Y-110000000D03*
X137260000Y-110000000D03*
X134720000Y-110000000D03*
X132180000Y-110000000D03*
X129640000Y-110000000D03*
X127100000Y-110000000D03*
X124560000Y-110000000D03*
X122020000Y-110000000D03*
X119480000Y-110000000D03*
X116940000Y-110000000D03*
X114400000Y-110000000D03*
X111860000Y-110000000D03*
X109320000Y-110000000D03*
X106780000Y-110000000D03*
X104240000Y-110000000D03*
X101700000Y-110000000D03*
X99160000Y-110000000D03*
X96620000Y-110000000D03*
X94080000Y-110000000D03*
X91540000Y-110000000D03*
D16*
X89000000Y-110000000D03*
D17*
X132180000Y-92940000D03*
X157580000Y-96750000D03*
X157580000Y-96750000D03*
X166470000Y-100560000D03*
X169010000Y-104370000D03*
X124560000Y-90400000D03*
X160120000Y-94210000D03*
X166470000Y-95480000D03*
X122020000Y-89130000D03*
X160120000Y-91670000D03*
X116940000Y-86590000D03*
X119480000Y-87860000D03*
X129640000Y-91670000D03*
X137260000Y-100560000D03*
X152500000Y-101830000D03*
X134720000Y-94210000D03*
X151230000Y-103100000D03*
X114400000Y-85320000D03*
X137260000Y-85320000D03*
X101700000Y-104370000D03*
X104240000Y-103100000D03*
X106780000Y-101830000D03*
X109320000Y-100560000D03*
X111860000Y-99290000D03*
X170915000Y-93575000D03*
D18*
X132180000Y-92940000D02*
X153770000Y-92940000D01*
X153770000Y-92940000D02*
X157580000Y-96750000D01*
X166470000Y-100560000D02*
X169010000Y-103100000D01*
X169010000Y-103100000D02*
X169010000Y-104370000D01*
X124560000Y-90400000D02*
X156310000Y-90400000D01*
X156310000Y-90400000D02*
X160120000Y-94210000D01*
X170280000Y-99290000D02*
X170280000Y-110000000D01*
X166470000Y-95480000D02*
X170280000Y-99290000D01*
X122020000Y-89130000D02*
X157580000Y-89130000D01*
X157580000Y-89130000D02*
X160120000Y-91670000D01*
X165200000Y-90400000D02*
X165200000Y-110000000D01*
X116940000Y-86590000D02*
X161390000Y-86590000D01*
X161390000Y-86590000D02*
X165200000Y-90400000D01*
X119480000Y-87860000D02*
X160120000Y-87860000D01*
X162660000Y-90400000D02*
X162660000Y-110000000D01*
X160120000Y-87860000D02*
X162660000Y-90400000D01*
X129640000Y-91670000D02*
X155040000Y-91670000D01*
X160120000Y-96750000D02*
X160120000Y-110000000D01*
X155040000Y-91670000D02*
X160120000Y-96750000D01*
X137260000Y-100560000D02*
X151230000Y-100560000D01*
X151230000Y-100560000D02*
X152500000Y-101830000D01*
X134720000Y-94210000D02*
X152500000Y-94210000D01*
X155040000Y-96750000D02*
X155040000Y-110000000D01*
X152500000Y-94210000D02*
X155040000Y-96750000D01*
X151230000Y-103100000D02*
X151230000Y-105640000D01*
X149960000Y-106910000D02*
X149960000Y-110000000D01*
X151230000Y-105640000D02*
X149960000Y-106910000D01*
X114400000Y-85320000D02*
X137260000Y-85320000D01*
X101700000Y-104370000D02*
X100430000Y-104370000D01*
X99160000Y-105640000D02*
X99160000Y-110000000D01*
X100430000Y-104370000D02*
X99160000Y-105640000D01*
X104240000Y-103100000D02*
X99160000Y-103100000D01*
X96620000Y-105640000D02*
X96620000Y-110000000D01*
X99160000Y-103100000D02*
X96620000Y-105640000D01*
X106780000Y-101830000D02*
X97890000Y-101830000D01*
X94080000Y-105640000D02*
X94080000Y-110000000D01*
X97890000Y-101830000D02*
X94080000Y-105640000D01*
X109320000Y-100560000D02*
X96620000Y-100560000D01*
X91540000Y-105640000D02*
X91540000Y-110000000D01*
X96620000Y-100560000D02*
X91540000Y-105640000D01*
X111860000Y-99290000D02*
X95350000Y-99290000D01*
X89000000Y-105640000D02*
X89000000Y-110000000D01*
X95350000Y-99290000D02*
X89000000Y-105640000D01*
X181450000Y-94210000D02*
X181710000Y-93950000D01*
X170915000Y-93575000D02*
X171550000Y-94210000D01*
X171550000Y-94210000D02*
X181450000Y-94210000D01*
D19*
G36*
X190625973Y-74954997D02*
G01*
X191008006Y-74992455D01*
X191342748Y-75093520D01*
X191651492Y-75257681D01*
X191922471Y-75478687D01*
X192145361Y-75748115D01*
X192311670Y-76055697D01*
X192415072Y-76389736D01*
X192454996Y-76769582D01*
X192445185Y-113581000D01*
X83595000Y-113581000D01*
X83595000Y-109150000D01*
X87511928Y-109150000D01*
X87511928Y-110850000D01*
X87524188Y-110974482D01*
X87560498Y-111094180D01*
X87619463Y-111204494D01*
X87698815Y-111301185D01*
X87795506Y-111380537D01*
X87905820Y-111439502D01*
X88025518Y-111475812D01*
X88150000Y-111488072D01*
X89850000Y-111488072D01*
X89974482Y-111475812D01*
X90094180Y-111439502D01*
X90204494Y-111380537D01*
X90301185Y-111301185D01*
X90380537Y-111204494D01*
X90439502Y-111094180D01*
X90460393Y-111025313D01*
X90484866Y-111055134D01*
X90710986Y-111240706D01*
X90968966Y-111378599D01*
X91248889Y-111463513D01*
X91467050Y-111485000D01*
X91612950Y-111485000D01*
X91831111Y-111463513D01*
X92111034Y-111378599D01*
X92369014Y-111240706D01*
X92595134Y-111055134D01*
X92780706Y-110829014D01*
X92810000Y-110774209D01*
X92839294Y-110829014D01*
X93024866Y-111055134D01*
X93250986Y-111240706D01*
X93508966Y-111378599D01*
X93788889Y-111463513D01*
X94007050Y-111485000D01*
X94152950Y-111485000D01*
X94371111Y-111463513D01*
X94651034Y-111378599D01*
X94909014Y-111240706D01*
X95135134Y-111055134D01*
X95320706Y-110829014D01*
X95350000Y-110774209D01*
X95379294Y-110829014D01*
X95564866Y-111055134D01*
X95790986Y-111240706D01*
X96048966Y-111378599D01*
X96328889Y-111463513D01*
X96547050Y-111485000D01*
X96692950Y-111485000D01*
X96911111Y-111463513D01*
X97191034Y-111378599D01*
X97449014Y-111240706D01*
X97675134Y-111055134D01*
X97860706Y-110829014D01*
X97890000Y-110774209D01*
X97919294Y-110829014D01*
X98104866Y-111055134D01*
X98330986Y-111240706D01*
X98588966Y-111378599D01*
X98868889Y-111463513D01*
X99087050Y-111485000D01*
X99232950Y-111485000D01*
X99451111Y-111463513D01*
X99731034Y-111378599D01*
X99989014Y-111240706D01*
X100215134Y-111055134D01*
X100400706Y-110829014D01*
X100430000Y-110774209D01*
X100459294Y-110829014D01*
X100644866Y-111055134D01*
X100870986Y-111240706D01*
X101128966Y-111378599D01*
X101408889Y-111463513D01*
X101627050Y-111485000D01*
X101772950Y-111485000D01*
X101991111Y-111463513D01*
X102271034Y-111378599D01*
X102529014Y-111240706D01*
X102755134Y-111055134D01*
X102940706Y-110829014D01*
X102970000Y-110774209D01*
X102999294Y-110829014D01*
X103184866Y-111055134D01*
X103410986Y-111240706D01*
X103668966Y-111378599D01*
X103948889Y-111463513D01*
X104167050Y-111485000D01*
X104312950Y-111485000D01*
X104531111Y-111463513D01*
X104811034Y-111378599D01*
X105069014Y-111240706D01*
X105295134Y-111055134D01*
X105480706Y-110829014D01*
X105510000Y-110774209D01*
X105539294Y-110829014D01*
X105724866Y-111055134D01*
X105950986Y-111240706D01*
X106208966Y-111378599D01*
X106488889Y-111463513D01*
X106707050Y-111485000D01*
X106852950Y-111485000D01*
X107071111Y-111463513D01*
X107351034Y-111378599D01*
X107609014Y-111240706D01*
X107835134Y-111055134D01*
X108020706Y-110829014D01*
X108050000Y-110774209D01*
X108079294Y-110829014D01*
X108264866Y-111055134D01*
X108490986Y-111240706D01*
X108748966Y-111378599D01*
X109028889Y-111463513D01*
X109247050Y-111485000D01*
X109392950Y-111485000D01*
X109611111Y-111463513D01*
X109891034Y-111378599D01*
X110149014Y-111240706D01*
X110375134Y-111055134D01*
X110560706Y-110829014D01*
X110590000Y-110774209D01*
X110619294Y-110829014D01*
X110804866Y-111055134D01*
X111030986Y-111240706D01*
X111288966Y-111378599D01*
X111568889Y-111463513D01*
X111787050Y-111485000D01*
X111932950Y-111485000D01*
X112151111Y-111463513D01*
X112431034Y-111378599D01*
X112689014Y-111240706D01*
X112915134Y-111055134D01*
X113100706Y-110829014D01*
X113130000Y-110774209D01*
X113159294Y-110829014D01*
X113344866Y-111055134D01*
X113570986Y-111240706D01*
X113828966Y-111378599D01*
X114108889Y-111463513D01*
X114327050Y-111485000D01*
X114472950Y-111485000D01*
X114691111Y-111463513D01*
X114971034Y-111378599D01*
X115229014Y-111240706D01*
X115455134Y-111055134D01*
X115640706Y-110829014D01*
X115670000Y-110774209D01*
X115699294Y-110829014D01*
X115884866Y-111055134D01*
X116110986Y-111240706D01*
X116368966Y-111378599D01*
X116648889Y-111463513D01*
X116867050Y-111485000D01*
X117012950Y-111485000D01*
X117231111Y-111463513D01*
X117511034Y-111378599D01*
X117769014Y-111240706D01*
X117995134Y-111055134D01*
X118180706Y-110829014D01*
X118210000Y-110774209D01*
X118239294Y-110829014D01*
X118424866Y-111055134D01*
X118650986Y-111240706D01*
X118908966Y-111378599D01*
X119188889Y-111463513D01*
X119407050Y-111485000D01*
X119552950Y-111485000D01*
X119771111Y-111463513D01*
X120051034Y-111378599D01*
X120309014Y-111240706D01*
X120535134Y-111055134D01*
X120720706Y-110829014D01*
X120750000Y-110774209D01*
X120779294Y-110829014D01*
X120964866Y-111055134D01*
X121190986Y-111240706D01*
X121448966Y-111378599D01*
X121728889Y-111463513D01*
X121947050Y-111485000D01*
X122092950Y-111485000D01*
X122311111Y-111463513D01*
X122591034Y-111378599D01*
X122849014Y-111240706D01*
X123075134Y-111055134D01*
X123260706Y-110829014D01*
X123290000Y-110774209D01*
X123319294Y-110829014D01*
X123504866Y-111055134D01*
X123730986Y-111240706D01*
X123988966Y-111378599D01*
X124268889Y-111463513D01*
X124487050Y-111485000D01*
X124632950Y-111485000D01*
X124851111Y-111463513D01*
X125131034Y-111378599D01*
X125389014Y-111240706D01*
X125615134Y-111055134D01*
X125800706Y-110829014D01*
X125830000Y-110774209D01*
X125859294Y-110829014D01*
X126044866Y-111055134D01*
X126270986Y-111240706D01*
X126528966Y-111378599D01*
X126808889Y-111463513D01*
X127027050Y-111485000D01*
X127172950Y-111485000D01*
X127391111Y-111463513D01*
X127671034Y-111378599D01*
X127929014Y-111240706D01*
X128155134Y-111055134D01*
X128340706Y-110829014D01*
X128375201Y-110764477D01*
X128444822Y-110881355D01*
X128639731Y-111097588D01*
X128873080Y-111271641D01*
X129135901Y-111396825D01*
X129283110Y-111441476D01*
X129513000Y-111320155D01*
X129513000Y-110127000D01*
X129493000Y-110127000D01*
X129493000Y-109873000D01*
X129513000Y-109873000D01*
X129513000Y-108679845D01*
X129283110Y-108558524D01*
X129135901Y-108603175D01*
X128873080Y-108728359D01*
X128639731Y-108902412D01*
X128444822Y-109118645D01*
X128375201Y-109235523D01*
X128340706Y-109170986D01*
X128155134Y-108944866D01*
X127929014Y-108759294D01*
X127671034Y-108621401D01*
X127391111Y-108536487D01*
X127172950Y-108515000D01*
X127027050Y-108515000D01*
X126808889Y-108536487D01*
X126528966Y-108621401D01*
X126270986Y-108759294D01*
X126044866Y-108944866D01*
X125859294Y-109170986D01*
X125830000Y-109225791D01*
X125800706Y-109170986D01*
X125615134Y-108944866D01*
X125389014Y-108759294D01*
X125131034Y-108621401D01*
X124851111Y-108536487D01*
X124632950Y-108515000D01*
X124487050Y-108515000D01*
X124268889Y-108536487D01*
X123988966Y-108621401D01*
X123730986Y-108759294D01*
X123504866Y-108944866D01*
X123319294Y-109170986D01*
X123290000Y-109225791D01*
X123260706Y-109170986D01*
X123075134Y-108944866D01*
X122849014Y-108759294D01*
X122591034Y-108621401D01*
X122311111Y-108536487D01*
X122092950Y-108515000D01*
X121947050Y-108515000D01*
X121728889Y-108536487D01*
X121448966Y-108621401D01*
X121190986Y-108759294D01*
X120964866Y-108944866D01*
X120779294Y-109170986D01*
X120750000Y-109225791D01*
X120720706Y-109170986D01*
X120535134Y-108944866D01*
X120309014Y-108759294D01*
X120051034Y-108621401D01*
X119771111Y-108536487D01*
X119552950Y-108515000D01*
X119407050Y-108515000D01*
X119188889Y-108536487D01*
X118908966Y-108621401D01*
X118650986Y-108759294D01*
X118424866Y-108944866D01*
X118239294Y-109170986D01*
X118210000Y-109225791D01*
X118180706Y-109170986D01*
X117995134Y-108944866D01*
X117769014Y-108759294D01*
X117511034Y-108621401D01*
X117231111Y-108536487D01*
X117012950Y-108515000D01*
X116867050Y-108515000D01*
X116648889Y-108536487D01*
X116368966Y-108621401D01*
X116110986Y-108759294D01*
X115884866Y-108944866D01*
X115699294Y-109170986D01*
X115670000Y-109225791D01*
X115640706Y-109170986D01*
X115455134Y-108944866D01*
X115229014Y-108759294D01*
X114971034Y-108621401D01*
X114691111Y-108536487D01*
X114472950Y-108515000D01*
X114327050Y-108515000D01*
X114108889Y-108536487D01*
X113828966Y-108621401D01*
X113570986Y-108759294D01*
X113344866Y-108944866D01*
X113159294Y-109170986D01*
X113130000Y-109225791D01*
X113100706Y-109170986D01*
X112915134Y-108944866D01*
X112689014Y-108759294D01*
X112431034Y-108621401D01*
X112151111Y-108536487D01*
X111932950Y-108515000D01*
X111787050Y-108515000D01*
X111568889Y-108536487D01*
X111288966Y-108621401D01*
X111030986Y-108759294D01*
X110804866Y-108944866D01*
X110619294Y-109170986D01*
X110590000Y-109225791D01*
X110560706Y-109170986D01*
X110375134Y-108944866D01*
X110149014Y-108759294D01*
X109891034Y-108621401D01*
X109611111Y-108536487D01*
X109392950Y-108515000D01*
X109247050Y-108515000D01*
X109028889Y-108536487D01*
X108748966Y-108621401D01*
X108490986Y-108759294D01*
X108264866Y-108944866D01*
X108079294Y-109170986D01*
X108050000Y-109225791D01*
X108020706Y-109170986D01*
X107835134Y-108944866D01*
X107609014Y-108759294D01*
X107351034Y-108621401D01*
X107071111Y-108536487D01*
X106852950Y-108515000D01*
X106707050Y-108515000D01*
X106488889Y-108536487D01*
X106208966Y-108621401D01*
X105950986Y-108759294D01*
X105724866Y-108944866D01*
X105539294Y-109170986D01*
X105510000Y-109225791D01*
X105480706Y-109170986D01*
X105295134Y-108944866D01*
X105069014Y-108759294D01*
X104811034Y-108621401D01*
X104531111Y-108536487D01*
X104312950Y-108515000D01*
X104167050Y-108515000D01*
X103948889Y-108536487D01*
X103668966Y-108621401D01*
X103410986Y-108759294D01*
X103184866Y-108944866D01*
X102999294Y-109170986D01*
X102970000Y-109225791D01*
X102940706Y-109170986D01*
X102755134Y-108944866D01*
X102529014Y-108759294D01*
X102271034Y-108621401D01*
X101991111Y-108536487D01*
X101772950Y-108515000D01*
X101627050Y-108515000D01*
X101408889Y-108536487D01*
X101128966Y-108621401D01*
X100870986Y-108759294D01*
X100644866Y-108944866D01*
X100459294Y-109170986D01*
X100430000Y-109225791D01*
X100400706Y-109170986D01*
X100215134Y-108944866D01*
X100045000Y-108805241D01*
X100045000Y-106632702D01*
X128866903Y-106632702D01*
X128938486Y-106876671D01*
X129193996Y-106997571D01*
X129468184Y-107066300D01*
X129750512Y-107080217D01*
X130030130Y-107038787D01*
X130296292Y-106943603D01*
X130421514Y-106876671D01*
X130493097Y-106632702D01*
X129680000Y-105819605D01*
X128866903Y-106632702D01*
X100045000Y-106632702D01*
X100045000Y-106006578D01*
X100341066Y-105710512D01*
X128239783Y-105710512D01*
X128281213Y-105990130D01*
X128376397Y-106256292D01*
X128443329Y-106381514D01*
X128687298Y-106453097D01*
X129500395Y-105640000D01*
X129859605Y-105640000D01*
X130672702Y-106453097D01*
X130916671Y-106381514D01*
X130930324Y-106352659D01*
X131065363Y-106554759D01*
X131265241Y-106754637D01*
X131500273Y-106911680D01*
X131761426Y-107019853D01*
X132038665Y-107075000D01*
X132321335Y-107075000D01*
X132598574Y-107019853D01*
X132859727Y-106911680D01*
X133094759Y-106754637D01*
X133294637Y-106554759D01*
X133451680Y-106319727D01*
X133559853Y-106058574D01*
X133615000Y-105781335D01*
X133615000Y-105498665D01*
X133559853Y-105221426D01*
X133451680Y-104960273D01*
X133294637Y-104725241D01*
X133094759Y-104525363D01*
X132859727Y-104368320D01*
X132598574Y-104260147D01*
X132321335Y-104205000D01*
X132038665Y-104205000D01*
X131761426Y-104260147D01*
X131500273Y-104368320D01*
X131265241Y-104525363D01*
X131065363Y-104725241D01*
X130931308Y-104925869D01*
X130916671Y-104898486D01*
X130672702Y-104826903D01*
X129859605Y-105640000D01*
X129500395Y-105640000D01*
X128687298Y-104826903D01*
X128443329Y-104898486D01*
X128322429Y-105153996D01*
X128253700Y-105428184D01*
X128239783Y-105710512D01*
X100341066Y-105710512D01*
X100796579Y-105255000D01*
X101161546Y-105255000D01*
X101209744Y-105287205D01*
X101398102Y-105365226D01*
X101598061Y-105405000D01*
X101801939Y-105405000D01*
X102001898Y-105365226D01*
X102190256Y-105287205D01*
X102359774Y-105173937D01*
X102503937Y-105029774D01*
X102617205Y-104860256D01*
X102695226Y-104671898D01*
X102700119Y-104647298D01*
X128866903Y-104647298D01*
X129680000Y-105460395D01*
X130493097Y-104647298D01*
X130421514Y-104403329D01*
X130166004Y-104282429D01*
X129891816Y-104213700D01*
X129609488Y-104199783D01*
X129329870Y-104241213D01*
X129063708Y-104336397D01*
X128938486Y-104403329D01*
X128866903Y-104647298D01*
X102700119Y-104647298D01*
X102735000Y-104471939D01*
X102735000Y-104268061D01*
X102695226Y-104068102D01*
X102660804Y-103985000D01*
X103701546Y-103985000D01*
X103749744Y-104017205D01*
X103938102Y-104095226D01*
X104138061Y-104135000D01*
X104341939Y-104135000D01*
X104541898Y-104095226D01*
X104730256Y-104017205D01*
X104899774Y-103903937D01*
X105043937Y-103759774D01*
X105157205Y-103590256D01*
X105235226Y-103401898D01*
X105275000Y-103201939D01*
X105275000Y-102998061D01*
X105235226Y-102798102D01*
X105200804Y-102715000D01*
X106241546Y-102715000D01*
X106289744Y-102747205D01*
X106478102Y-102825226D01*
X106678061Y-102865000D01*
X106881939Y-102865000D01*
X107081898Y-102825226D01*
X107270256Y-102747205D01*
X107439774Y-102633937D01*
X107583937Y-102489774D01*
X107694927Y-102323665D01*
X130745000Y-102323665D01*
X130745000Y-102606335D01*
X130800147Y-102883574D01*
X130908320Y-103144727D01*
X131065363Y-103379759D01*
X131265241Y-103579637D01*
X131500273Y-103736680D01*
X131761426Y-103844853D01*
X132038665Y-103900000D01*
X132321335Y-103900000D01*
X132598574Y-103844853D01*
X132859727Y-103736680D01*
X133094759Y-103579637D01*
X133294637Y-103379759D01*
X133451680Y-103144727D01*
X133559853Y-102883574D01*
X133615000Y-102606335D01*
X133615000Y-102323665D01*
X133559853Y-102046426D01*
X133451680Y-101785273D01*
X133294637Y-101550241D01*
X133094759Y-101350363D01*
X132859727Y-101193320D01*
X132598574Y-101085147D01*
X132321335Y-101030000D01*
X132038665Y-101030000D01*
X131761426Y-101085147D01*
X131500273Y-101193320D01*
X131265241Y-101350363D01*
X131065363Y-101550241D01*
X130908320Y-101785273D01*
X130800147Y-102046426D01*
X130745000Y-102323665D01*
X107694927Y-102323665D01*
X107697205Y-102320256D01*
X107775226Y-102131898D01*
X107815000Y-101931939D01*
X107815000Y-101728061D01*
X107775226Y-101528102D01*
X107740804Y-101445000D01*
X108781546Y-101445000D01*
X108829744Y-101477205D01*
X109018102Y-101555226D01*
X109218061Y-101595000D01*
X109421939Y-101595000D01*
X109621898Y-101555226D01*
X109810256Y-101477205D01*
X109979774Y-101363937D01*
X110123937Y-101219774D01*
X110237205Y-101050256D01*
X110315226Y-100861898D01*
X110355000Y-100661939D01*
X110355000Y-100458061D01*
X110315226Y-100258102D01*
X110280804Y-100175000D01*
X111321546Y-100175000D01*
X111369744Y-100207205D01*
X111558102Y-100285226D01*
X111758061Y-100325000D01*
X111961939Y-100325000D01*
X112161898Y-100285226D01*
X112350256Y-100207205D01*
X112519774Y-100093937D01*
X112663937Y-99949774D01*
X112777205Y-99780256D01*
X112855226Y-99591898D01*
X112895000Y-99391939D01*
X112895000Y-99188061D01*
X112855226Y-98988102D01*
X112777205Y-98799744D01*
X112663937Y-98630226D01*
X112519774Y-98486063D01*
X112468564Y-98451845D01*
X112661101Y-98348932D01*
X112879608Y-98169608D01*
X113058932Y-97951101D01*
X113130000Y-97818142D01*
X113201068Y-97951101D01*
X113380393Y-98169608D01*
X113598900Y-98348932D01*
X113848193Y-98482182D01*
X114118692Y-98564236D01*
X114400000Y-98591943D01*
X114681309Y-98564236D01*
X114951808Y-98482182D01*
X115201101Y-98348932D01*
X115419608Y-98169608D01*
X115598932Y-97951101D01*
X115670000Y-97818142D01*
X115741068Y-97951101D01*
X115920393Y-98169608D01*
X116138900Y-98348932D01*
X116388193Y-98482182D01*
X116658692Y-98564236D01*
X116940000Y-98591943D01*
X117221309Y-98564236D01*
X117491808Y-98482182D01*
X117741101Y-98348932D01*
X117959608Y-98169608D01*
X118138932Y-97951101D01*
X118210000Y-97818142D01*
X118281068Y-97951101D01*
X118460393Y-98169608D01*
X118678900Y-98348932D01*
X118928193Y-98482182D01*
X119198692Y-98564236D01*
X119480000Y-98591943D01*
X119761309Y-98564236D01*
X120031808Y-98482182D01*
X120281101Y-98348932D01*
X120499608Y-98169608D01*
X120678932Y-97951101D01*
X120750000Y-97818142D01*
X120821068Y-97951101D01*
X121000393Y-98169608D01*
X121218900Y-98348932D01*
X121468193Y-98482182D01*
X121738692Y-98564236D01*
X122020000Y-98591943D01*
X122301309Y-98564236D01*
X122571808Y-98482182D01*
X122821101Y-98348932D01*
X123039608Y-98169608D01*
X123218932Y-97951101D01*
X123290000Y-97818142D01*
X123361068Y-97951101D01*
X123540393Y-98169608D01*
X123758900Y-98348932D01*
X124008193Y-98482182D01*
X124278692Y-98564236D01*
X124560000Y-98591943D01*
X124841309Y-98564236D01*
X125111808Y-98482182D01*
X125361101Y-98348932D01*
X125579608Y-98169608D01*
X125758932Y-97951101D01*
X125830000Y-97818142D01*
X125901068Y-97951101D01*
X126080393Y-98169608D01*
X126298900Y-98348932D01*
X126548193Y-98482182D01*
X126818692Y-98564236D01*
X127100000Y-98591943D01*
X127381309Y-98564236D01*
X127651808Y-98482182D01*
X127901101Y-98348932D01*
X128119608Y-98169608D01*
X128298932Y-97951101D01*
X128370000Y-97818142D01*
X128441068Y-97951101D01*
X128620393Y-98169608D01*
X128838900Y-98348932D01*
X129088193Y-98482182D01*
X129358692Y-98564236D01*
X129640000Y-98591943D01*
X129921309Y-98564236D01*
X130191808Y-98482182D01*
X130441101Y-98348932D01*
X130659608Y-98169608D01*
X130838932Y-97951101D01*
X130910000Y-97818142D01*
X130981068Y-97951101D01*
X131160393Y-98169608D01*
X131378900Y-98348932D01*
X131628193Y-98482182D01*
X131898692Y-98564236D01*
X132180000Y-98591943D01*
X132461309Y-98564236D01*
X132731808Y-98482182D01*
X132981101Y-98348932D01*
X133199608Y-98169608D01*
X133378932Y-97951101D01*
X133450000Y-97818142D01*
X133521068Y-97951101D01*
X133700393Y-98169608D01*
X133918900Y-98348932D01*
X134168193Y-98482182D01*
X134438692Y-98564236D01*
X134720000Y-98591943D01*
X135001309Y-98564236D01*
X135271808Y-98482182D01*
X135521101Y-98348932D01*
X135739608Y-98169608D01*
X135918932Y-97951101D01*
X135990000Y-97818142D01*
X136061068Y-97951101D01*
X136240393Y-98169608D01*
X136458900Y-98348932D01*
X136708193Y-98482182D01*
X136978692Y-98564236D01*
X137260000Y-98591943D01*
X137541309Y-98564236D01*
X137811808Y-98482182D01*
X138061101Y-98348932D01*
X138279608Y-98169608D01*
X138458932Y-97951101D01*
X138530000Y-97818142D01*
X138601068Y-97951101D01*
X138780393Y-98169608D01*
X138998900Y-98348932D01*
X139248193Y-98482182D01*
X139518692Y-98564236D01*
X139800000Y-98591943D01*
X140081309Y-98564236D01*
X140351808Y-98482182D01*
X140601101Y-98348932D01*
X140819608Y-98169608D01*
X140998932Y-97951101D01*
X141070000Y-97818142D01*
X141141068Y-97951101D01*
X141320393Y-98169608D01*
X141538900Y-98348932D01*
X141788193Y-98482182D01*
X142058692Y-98564236D01*
X142340000Y-98591943D01*
X142621309Y-98564236D01*
X142891808Y-98482182D01*
X143141101Y-98348932D01*
X143359608Y-98169608D01*
X143538932Y-97951101D01*
X143610000Y-97818142D01*
X143681068Y-97951101D01*
X143860393Y-98169608D01*
X144078900Y-98348932D01*
X144328193Y-98482182D01*
X144598692Y-98564236D01*
X144880000Y-98591943D01*
X145161309Y-98564236D01*
X145431808Y-98482182D01*
X145681101Y-98348932D01*
X145899608Y-98169608D01*
X146078932Y-97951101D01*
X146150000Y-97818142D01*
X146221068Y-97951101D01*
X146400393Y-98169608D01*
X146618900Y-98348932D01*
X146868193Y-98482182D01*
X147138692Y-98564236D01*
X147420000Y-98591943D01*
X147701309Y-98564236D01*
X147971808Y-98482182D01*
X148221101Y-98348932D01*
X148439608Y-98169608D01*
X148618932Y-97951101D01*
X148690000Y-97818142D01*
X148761068Y-97951101D01*
X148940393Y-98169608D01*
X149158900Y-98348932D01*
X149408193Y-98482182D01*
X149678692Y-98564236D01*
X149960000Y-98591943D01*
X150241309Y-98564236D01*
X150511808Y-98482182D01*
X150761101Y-98348932D01*
X150979608Y-98169608D01*
X151158932Y-97951101D01*
X151292182Y-97701808D01*
X151374236Y-97431309D01*
X151395000Y-97220491D01*
X151395000Y-96279508D01*
X151374236Y-96068691D01*
X151292182Y-95798192D01*
X151158932Y-95548899D01*
X150979607Y-95330392D01*
X150761100Y-95151068D01*
X150656204Y-95095000D01*
X152133422Y-95095000D01*
X154155000Y-97116579D01*
X154155001Y-108805240D01*
X153984866Y-108944866D01*
X153799294Y-109170986D01*
X153770000Y-109225791D01*
X153740706Y-109170986D01*
X153555134Y-108944866D01*
X153329014Y-108759294D01*
X153071034Y-108621401D01*
X152791111Y-108536487D01*
X152572950Y-108515000D01*
X152427050Y-108515000D01*
X152208889Y-108536487D01*
X151928966Y-108621401D01*
X151670986Y-108759294D01*
X151444866Y-108944866D01*
X151259294Y-109170986D01*
X151230000Y-109225791D01*
X151200706Y-109170986D01*
X151015134Y-108944866D01*
X150845000Y-108805241D01*
X150845000Y-107276578D01*
X151825049Y-106296530D01*
X151858817Y-106268817D01*
X151969411Y-106134059D01*
X152051589Y-105980313D01*
X152102195Y-105813490D01*
X152115000Y-105683477D01*
X152115000Y-105683467D01*
X152119281Y-105640001D01*
X152115000Y-105596535D01*
X152115000Y-103638454D01*
X152147205Y-103590256D01*
X152225226Y-103401898D01*
X152265000Y-103201939D01*
X152265000Y-102998061D01*
X152231961Y-102831961D01*
X152398061Y-102865000D01*
X152601939Y-102865000D01*
X152801898Y-102825226D01*
X152990256Y-102747205D01*
X153159774Y-102633937D01*
X153303937Y-102489774D01*
X153417205Y-102320256D01*
X153495226Y-102131898D01*
X153535000Y-101931939D01*
X153535000Y-101728061D01*
X153495226Y-101528102D01*
X153417205Y-101339744D01*
X153303937Y-101170226D01*
X153159774Y-101026063D01*
X152990256Y-100912795D01*
X152801898Y-100834774D01*
X152745044Y-100823465D01*
X151886534Y-99964956D01*
X151858817Y-99931183D01*
X151724059Y-99820589D01*
X151570313Y-99738411D01*
X151403490Y-99687805D01*
X151273477Y-99675000D01*
X151273469Y-99675000D01*
X151230000Y-99670719D01*
X151186531Y-99675000D01*
X137798454Y-99675000D01*
X137750256Y-99642795D01*
X137561898Y-99564774D01*
X137361939Y-99525000D01*
X137158061Y-99525000D01*
X136958102Y-99564774D01*
X136769744Y-99642795D01*
X136600226Y-99756063D01*
X136456063Y-99900226D01*
X136342795Y-100069744D01*
X136264774Y-100258102D01*
X136225000Y-100458061D01*
X136225000Y-100661939D01*
X136264774Y-100861898D01*
X136342795Y-101050256D01*
X136456063Y-101219774D01*
X136600226Y-101363937D01*
X136769744Y-101477205D01*
X136958102Y-101555226D01*
X137158061Y-101595000D01*
X137361939Y-101595000D01*
X137561898Y-101555226D01*
X137750256Y-101477205D01*
X137798454Y-101445000D01*
X141320870Y-101445000D01*
X141320392Y-101445392D01*
X141141068Y-101663899D01*
X141007818Y-101913192D01*
X140925764Y-102183691D01*
X140898057Y-102465000D01*
X140925764Y-102746309D01*
X141007818Y-103016808D01*
X141141068Y-103266101D01*
X141320392Y-103484608D01*
X141538899Y-103663932D01*
X141788192Y-103797182D01*
X142058691Y-103879236D01*
X142269508Y-103900000D01*
X142410492Y-103900000D01*
X142621309Y-103879236D01*
X142891808Y-103797182D01*
X143141101Y-103663932D01*
X143359608Y-103484608D01*
X143538932Y-103266101D01*
X143672182Y-103016808D01*
X143754236Y-102746309D01*
X143781943Y-102465000D01*
X143754236Y-102183691D01*
X143672182Y-101913192D01*
X143538932Y-101663899D01*
X143359608Y-101445392D01*
X143359130Y-101445000D01*
X150863422Y-101445000D01*
X151493465Y-102075044D01*
X151498039Y-102098039D01*
X151331939Y-102065000D01*
X151128061Y-102065000D01*
X150928102Y-102104774D01*
X150739744Y-102182795D01*
X150570226Y-102296063D01*
X150426063Y-102440226D01*
X150312795Y-102609744D01*
X150234774Y-102798102D01*
X150195000Y-102998061D01*
X150195000Y-103201939D01*
X150234774Y-103401898D01*
X150312795Y-103590256D01*
X150345000Y-103638455D01*
X150345001Y-105273420D01*
X149364956Y-106253466D01*
X149331183Y-106281183D01*
X149220589Y-106415942D01*
X149138411Y-106569688D01*
X149087805Y-106736511D01*
X149075000Y-106866524D01*
X149075000Y-106866531D01*
X149070719Y-106910000D01*
X149075000Y-106953469D01*
X149075001Y-108805240D01*
X148904866Y-108944866D01*
X148719294Y-109170986D01*
X148690000Y-109225791D01*
X148660706Y-109170986D01*
X148475134Y-108944866D01*
X148249014Y-108759294D01*
X147991034Y-108621401D01*
X147711111Y-108536487D01*
X147492950Y-108515000D01*
X147347050Y-108515000D01*
X147128889Y-108536487D01*
X146848966Y-108621401D01*
X146590986Y-108759294D01*
X146364866Y-108944866D01*
X146179294Y-109170986D01*
X146150000Y-109225791D01*
X146120706Y-109170986D01*
X145935134Y-108944866D01*
X145709014Y-108759294D01*
X145451034Y-108621401D01*
X145171111Y-108536487D01*
X144952950Y-108515000D01*
X144807050Y-108515000D01*
X144588889Y-108536487D01*
X144308966Y-108621401D01*
X144050986Y-108759294D01*
X143824866Y-108944866D01*
X143639294Y-109170986D01*
X143610000Y-109225791D01*
X143580706Y-109170986D01*
X143395134Y-108944866D01*
X143169014Y-108759294D01*
X142911034Y-108621401D01*
X142631111Y-108536487D01*
X142412950Y-108515000D01*
X142267050Y-108515000D01*
X142048889Y-108536487D01*
X141768966Y-108621401D01*
X141510986Y-108759294D01*
X141284866Y-108944866D01*
X141099294Y-109170986D01*
X141070000Y-109225791D01*
X141040706Y-109170986D01*
X140855134Y-108944866D01*
X140629014Y-108759294D01*
X140371034Y-108621401D01*
X140091111Y-108536487D01*
X139872950Y-108515000D01*
X139727050Y-108515000D01*
X139508889Y-108536487D01*
X139228966Y-108621401D01*
X138970986Y-108759294D01*
X138744866Y-108944866D01*
X138559294Y-109170986D01*
X138530000Y-109225791D01*
X138500706Y-109170986D01*
X138315134Y-108944866D01*
X138089014Y-108759294D01*
X137831034Y-108621401D01*
X137551111Y-108536487D01*
X137332950Y-108515000D01*
X137187050Y-108515000D01*
X136968889Y-108536487D01*
X136688966Y-108621401D01*
X136430986Y-108759294D01*
X136204866Y-108944866D01*
X136019294Y-109170986D01*
X135990000Y-109225791D01*
X135960706Y-109170986D01*
X135775134Y-108944866D01*
X135549014Y-108759294D01*
X135291034Y-108621401D01*
X135011111Y-108536487D01*
X134792950Y-108515000D01*
X134647050Y-108515000D01*
X134428889Y-108536487D01*
X134148966Y-108621401D01*
X133890986Y-108759294D01*
X133664866Y-108944866D01*
X133479294Y-109170986D01*
X133450000Y-109225791D01*
X133420706Y-109170986D01*
X133235134Y-108944866D01*
X133009014Y-108759294D01*
X132751034Y-108621401D01*
X132471111Y-108536487D01*
X132252950Y-108515000D01*
X132107050Y-108515000D01*
X131888889Y-108536487D01*
X131608966Y-108621401D01*
X131350986Y-108759294D01*
X131124866Y-108944866D01*
X130939294Y-109170986D01*
X130904799Y-109235523D01*
X130835178Y-109118645D01*
X130640269Y-108902412D01*
X130406920Y-108728359D01*
X130144099Y-108603175D01*
X129996890Y-108558524D01*
X129767000Y-108679845D01*
X129767000Y-109873000D01*
X129787000Y-109873000D01*
X129787000Y-110127000D01*
X129767000Y-110127000D01*
X129767000Y-111320155D01*
X129996890Y-111441476D01*
X130144099Y-111396825D01*
X130406920Y-111271641D01*
X130640269Y-111097588D01*
X130835178Y-110881355D01*
X130904799Y-110764477D01*
X130939294Y-110829014D01*
X131124866Y-111055134D01*
X131350986Y-111240706D01*
X131608966Y-111378599D01*
X131888889Y-111463513D01*
X132107050Y-111485000D01*
X132252950Y-111485000D01*
X132471111Y-111463513D01*
X132751034Y-111378599D01*
X133009014Y-111240706D01*
X133235134Y-111055134D01*
X133420706Y-110829014D01*
X133450000Y-110774209D01*
X133479294Y-110829014D01*
X133664866Y-111055134D01*
X133890986Y-111240706D01*
X134148966Y-111378599D01*
X134428889Y-111463513D01*
X134647050Y-111485000D01*
X134792950Y-111485000D01*
X135011111Y-111463513D01*
X135291034Y-111378599D01*
X135549014Y-111240706D01*
X135775134Y-111055134D01*
X135960706Y-110829014D01*
X135990000Y-110774209D01*
X136019294Y-110829014D01*
X136204866Y-111055134D01*
X136430986Y-111240706D01*
X136688966Y-111378599D01*
X136968889Y-111463513D01*
X137187050Y-111485000D01*
X137332950Y-111485000D01*
X137551111Y-111463513D01*
X137831034Y-111378599D01*
X138089014Y-111240706D01*
X138315134Y-111055134D01*
X138500706Y-110829014D01*
X138530000Y-110774209D01*
X138559294Y-110829014D01*
X138744866Y-111055134D01*
X138970986Y-111240706D01*
X139228966Y-111378599D01*
X139508889Y-111463513D01*
X139727050Y-111485000D01*
X139872950Y-111485000D01*
X140091111Y-111463513D01*
X140371034Y-111378599D01*
X140629014Y-111240706D01*
X140855134Y-111055134D01*
X141040706Y-110829014D01*
X141070000Y-110774209D01*
X141099294Y-110829014D01*
X141284866Y-111055134D01*
X141510986Y-111240706D01*
X141768966Y-111378599D01*
X142048889Y-111463513D01*
X142267050Y-111485000D01*
X142412950Y-111485000D01*
X142631111Y-111463513D01*
X142911034Y-111378599D01*
X143169014Y-111240706D01*
X143395134Y-111055134D01*
X143580706Y-110829014D01*
X143610000Y-110774209D01*
X143639294Y-110829014D01*
X143824866Y-111055134D01*
X144050986Y-111240706D01*
X144308966Y-111378599D01*
X144588889Y-111463513D01*
X144807050Y-111485000D01*
X144952950Y-111485000D01*
X145171111Y-111463513D01*
X145451034Y-111378599D01*
X145709014Y-111240706D01*
X145935134Y-111055134D01*
X146120706Y-110829014D01*
X146150000Y-110774209D01*
X146179294Y-110829014D01*
X146364866Y-111055134D01*
X146590986Y-111240706D01*
X146848966Y-111378599D01*
X147128889Y-111463513D01*
X147347050Y-111485000D01*
X147492950Y-111485000D01*
X147711111Y-111463513D01*
X147991034Y-111378599D01*
X148249014Y-111240706D01*
X148475134Y-111055134D01*
X148660706Y-110829014D01*
X148690000Y-110774209D01*
X148719294Y-110829014D01*
X148904866Y-111055134D01*
X149130986Y-111240706D01*
X149388966Y-111378599D01*
X149668889Y-111463513D01*
X149887050Y-111485000D01*
X150032950Y-111485000D01*
X150251111Y-111463513D01*
X150531034Y-111378599D01*
X150789014Y-111240706D01*
X151015134Y-111055134D01*
X151200706Y-110829014D01*
X151230000Y-110774209D01*
X151259294Y-110829014D01*
X151444866Y-111055134D01*
X151670986Y-111240706D01*
X151928966Y-111378599D01*
X152208889Y-111463513D01*
X152427050Y-111485000D01*
X152572950Y-111485000D01*
X152791111Y-111463513D01*
X153071034Y-111378599D01*
X153329014Y-111240706D01*
X153555134Y-111055134D01*
X153740706Y-110829014D01*
X153770000Y-110774209D01*
X153799294Y-110829014D01*
X153984866Y-111055134D01*
X154210986Y-111240706D01*
X154468966Y-111378599D01*
X154748889Y-111463513D01*
X154967050Y-111485000D01*
X155112950Y-111485000D01*
X155331111Y-111463513D01*
X155611034Y-111378599D01*
X155869014Y-111240706D01*
X156095134Y-111055134D01*
X156280706Y-110829014D01*
X156310000Y-110774209D01*
X156339294Y-110829014D01*
X156524866Y-111055134D01*
X156750986Y-111240706D01*
X157008966Y-111378599D01*
X157288889Y-111463513D01*
X157507050Y-111485000D01*
X157652950Y-111485000D01*
X157871111Y-111463513D01*
X158151034Y-111378599D01*
X158409014Y-111240706D01*
X158635134Y-111055134D01*
X158820706Y-110829014D01*
X158850000Y-110774209D01*
X158879294Y-110829014D01*
X159064866Y-111055134D01*
X159290986Y-111240706D01*
X159548966Y-111378599D01*
X159828889Y-111463513D01*
X160047050Y-111485000D01*
X160192950Y-111485000D01*
X160411111Y-111463513D01*
X160691034Y-111378599D01*
X160949014Y-111240706D01*
X161175134Y-111055134D01*
X161360706Y-110829014D01*
X161390000Y-110774209D01*
X161419294Y-110829014D01*
X161604866Y-111055134D01*
X161830986Y-111240706D01*
X162088966Y-111378599D01*
X162368889Y-111463513D01*
X162587050Y-111485000D01*
X162732950Y-111485000D01*
X162951111Y-111463513D01*
X163231034Y-111378599D01*
X163489014Y-111240706D01*
X163715134Y-111055134D01*
X163900706Y-110829014D01*
X163930000Y-110774209D01*
X163959294Y-110829014D01*
X164144866Y-111055134D01*
X164370986Y-111240706D01*
X164628966Y-111378599D01*
X164908889Y-111463513D01*
X165127050Y-111485000D01*
X165272950Y-111485000D01*
X165491111Y-111463513D01*
X165771034Y-111378599D01*
X166029014Y-111240706D01*
X166255134Y-111055134D01*
X166440706Y-110829014D01*
X166470000Y-110774209D01*
X166499294Y-110829014D01*
X166684866Y-111055134D01*
X166910986Y-111240706D01*
X167168966Y-111378599D01*
X167448889Y-111463513D01*
X167667050Y-111485000D01*
X167812950Y-111485000D01*
X168031111Y-111463513D01*
X168311034Y-111378599D01*
X168569014Y-111240706D01*
X168795134Y-111055134D01*
X168980706Y-110829014D01*
X169010000Y-110774209D01*
X169039294Y-110829014D01*
X169224866Y-111055134D01*
X169450986Y-111240706D01*
X169708966Y-111378599D01*
X169988889Y-111463513D01*
X170207050Y-111485000D01*
X170352950Y-111485000D01*
X170571111Y-111463513D01*
X170851034Y-111378599D01*
X171109014Y-111240706D01*
X171335134Y-111055134D01*
X171520706Y-110829014D01*
X171550000Y-110774209D01*
X171579294Y-110829014D01*
X171764866Y-111055134D01*
X171990986Y-111240706D01*
X172248966Y-111378599D01*
X172528889Y-111463513D01*
X172747050Y-111485000D01*
X172892950Y-111485000D01*
X173111111Y-111463513D01*
X173391034Y-111378599D01*
X173649014Y-111240706D01*
X173875134Y-111055134D01*
X174060706Y-110829014D01*
X174090000Y-110774209D01*
X174119294Y-110829014D01*
X174304866Y-111055134D01*
X174530986Y-111240706D01*
X174788966Y-111378599D01*
X175068889Y-111463513D01*
X175287050Y-111485000D01*
X175432950Y-111485000D01*
X175651111Y-111463513D01*
X175931034Y-111378599D01*
X176189014Y-111240706D01*
X176415134Y-111055134D01*
X176600706Y-110829014D01*
X176630000Y-110774209D01*
X176659294Y-110829014D01*
X176844866Y-111055134D01*
X177070986Y-111240706D01*
X177328966Y-111378599D01*
X177608889Y-111463513D01*
X177827050Y-111485000D01*
X177972950Y-111485000D01*
X178191111Y-111463513D01*
X178471034Y-111378599D01*
X178729014Y-111240706D01*
X178955134Y-111055134D01*
X179140706Y-110829014D01*
X179170000Y-110774209D01*
X179199294Y-110829014D01*
X179384866Y-111055134D01*
X179610986Y-111240706D01*
X179868966Y-111378599D01*
X180148889Y-111463513D01*
X180367050Y-111485000D01*
X180512950Y-111485000D01*
X180731111Y-111463513D01*
X181011034Y-111378599D01*
X181269014Y-111240706D01*
X181495134Y-111055134D01*
X181680706Y-110829014D01*
X181710000Y-110774209D01*
X181739294Y-110829014D01*
X181924866Y-111055134D01*
X182150986Y-111240706D01*
X182408966Y-111378599D01*
X182688889Y-111463513D01*
X182907050Y-111485000D01*
X183052950Y-111485000D01*
X183271111Y-111463513D01*
X183551034Y-111378599D01*
X183809014Y-111240706D01*
X184035134Y-111055134D01*
X184220706Y-110829014D01*
X184250000Y-110774209D01*
X184279294Y-110829014D01*
X184464866Y-111055134D01*
X184690986Y-111240706D01*
X184948966Y-111378599D01*
X185228889Y-111463513D01*
X185447050Y-111485000D01*
X185592950Y-111485000D01*
X185811111Y-111463513D01*
X186091034Y-111378599D01*
X186349014Y-111240706D01*
X186575134Y-111055134D01*
X186760706Y-110829014D01*
X186790000Y-110774209D01*
X186819294Y-110829014D01*
X187004866Y-111055134D01*
X187230986Y-111240706D01*
X187488966Y-111378599D01*
X187768889Y-111463513D01*
X187987050Y-111485000D01*
X188132950Y-111485000D01*
X188351111Y-111463513D01*
X188631034Y-111378599D01*
X188889014Y-111240706D01*
X189115134Y-111055134D01*
X189300706Y-110829014D01*
X189438599Y-110571034D01*
X189523513Y-110291111D01*
X189552185Y-110000000D01*
X189523513Y-109708889D01*
X189438599Y-109428966D01*
X189300706Y-109170986D01*
X189115134Y-108944866D01*
X188889014Y-108759294D01*
X188631034Y-108621401D01*
X188351111Y-108536487D01*
X188132950Y-108515000D01*
X187987050Y-108515000D01*
X187768889Y-108536487D01*
X187488966Y-108621401D01*
X187230986Y-108759294D01*
X187004866Y-108944866D01*
X186819294Y-109170986D01*
X186790000Y-109225791D01*
X186760706Y-109170986D01*
X186575134Y-108944866D01*
X186349014Y-108759294D01*
X186091034Y-108621401D01*
X185811111Y-108536487D01*
X185592950Y-108515000D01*
X185447050Y-108515000D01*
X185228889Y-108536487D01*
X184948966Y-108621401D01*
X184690986Y-108759294D01*
X184464866Y-108944866D01*
X184279294Y-109170986D01*
X184250000Y-109225791D01*
X184220706Y-109170986D01*
X184035134Y-108944866D01*
X183809014Y-108759294D01*
X183551034Y-108621401D01*
X183271111Y-108536487D01*
X183052950Y-108515000D01*
X182907050Y-108515000D01*
X182688889Y-108536487D01*
X182408966Y-108621401D01*
X182150986Y-108759294D01*
X181924866Y-108944866D01*
X181739294Y-109170986D01*
X181710000Y-109225791D01*
X181680706Y-109170986D01*
X181495134Y-108944866D01*
X181269014Y-108759294D01*
X181011034Y-108621401D01*
X180731111Y-108536487D01*
X180512950Y-108515000D01*
X180367050Y-108515000D01*
X180148889Y-108536487D01*
X179868966Y-108621401D01*
X179610986Y-108759294D01*
X179384866Y-108944866D01*
X179199294Y-109170986D01*
X179170000Y-109225791D01*
X179140706Y-109170986D01*
X178955134Y-108944866D01*
X178729014Y-108759294D01*
X178471034Y-108621401D01*
X178191111Y-108536487D01*
X177972950Y-108515000D01*
X177827050Y-108515000D01*
X177608889Y-108536487D01*
X177328966Y-108621401D01*
X177070986Y-108759294D01*
X176844866Y-108944866D01*
X176659294Y-109170986D01*
X176630000Y-109225791D01*
X176600706Y-109170986D01*
X176415134Y-108944866D01*
X176189014Y-108759294D01*
X175931034Y-108621401D01*
X175651111Y-108536487D01*
X175432950Y-108515000D01*
X175287050Y-108515000D01*
X175068889Y-108536487D01*
X174788966Y-108621401D01*
X174530986Y-108759294D01*
X174304866Y-108944866D01*
X174119294Y-109170986D01*
X174090000Y-109225791D01*
X174060706Y-109170986D01*
X173875134Y-108944866D01*
X173649014Y-108759294D01*
X173391034Y-108621401D01*
X173111111Y-108536487D01*
X172892950Y-108515000D01*
X172747050Y-108515000D01*
X172528889Y-108536487D01*
X172248966Y-108621401D01*
X171990986Y-108759294D01*
X171764866Y-108944866D01*
X171579294Y-109170986D01*
X171550000Y-109225791D01*
X171520706Y-109170986D01*
X171335134Y-108944866D01*
X171165000Y-108805241D01*
X171165000Y-99333469D01*
X171169281Y-99290000D01*
X171165000Y-99246531D01*
X171165000Y-99246523D01*
X171152195Y-99116510D01*
X171113242Y-98988102D01*
X171101589Y-98949686D01*
X171019411Y-98795941D01*
X170936532Y-98694953D01*
X170936530Y-98694951D01*
X170908817Y-98661183D01*
X170875050Y-98633471D01*
X167476535Y-95234957D01*
X167465226Y-95178102D01*
X167387205Y-94989744D01*
X167273937Y-94820226D01*
X167129774Y-94676063D01*
X166960256Y-94562795D01*
X166771898Y-94484774D01*
X166571939Y-94445000D01*
X166368061Y-94445000D01*
X166168102Y-94484774D01*
X166085000Y-94519196D01*
X166085000Y-93473061D01*
X169880000Y-93473061D01*
X169880000Y-93676939D01*
X169919774Y-93876898D01*
X169997795Y-94065256D01*
X170111063Y-94234774D01*
X170255226Y-94378937D01*
X170424744Y-94492205D01*
X170613102Y-94570226D01*
X170669956Y-94581535D01*
X170893470Y-94805049D01*
X170921183Y-94838817D01*
X170954951Y-94866530D01*
X170954953Y-94866532D01*
X171055941Y-94949411D01*
X171209686Y-95031589D01*
X171355310Y-95075764D01*
X171376510Y-95082195D01*
X171506523Y-95095000D01*
X171506531Y-95095000D01*
X171550000Y-95099281D01*
X171593469Y-95095000D01*
X180374388Y-95095000D01*
X180379463Y-95104494D01*
X180458815Y-95201185D01*
X180555506Y-95280537D01*
X180665820Y-95339502D01*
X180785518Y-95375812D01*
X180803482Y-95377581D01*
X180690392Y-95470392D01*
X180511068Y-95688899D01*
X180377818Y-95938192D01*
X180295764Y-96208691D01*
X180268057Y-96490000D01*
X180295764Y-96771309D01*
X180377818Y-97041808D01*
X180511068Y-97291101D01*
X180690392Y-97509608D01*
X180908899Y-97688932D01*
X181041858Y-97760000D01*
X180908899Y-97831068D01*
X180690392Y-98010392D01*
X180511068Y-98228899D01*
X180377818Y-98478192D01*
X180295764Y-98748691D01*
X180268057Y-99030000D01*
X180295764Y-99311309D01*
X180377818Y-99581808D01*
X180511068Y-99831101D01*
X180690392Y-100049608D01*
X180908899Y-100228932D01*
X181041858Y-100300000D01*
X180908899Y-100371068D01*
X180690392Y-100550392D01*
X180511068Y-100768899D01*
X180377818Y-101018192D01*
X180295764Y-101288691D01*
X180268057Y-101570000D01*
X180295764Y-101851309D01*
X180377818Y-102121808D01*
X180511068Y-102371101D01*
X180690392Y-102589608D01*
X180908899Y-102768932D01*
X181158192Y-102902182D01*
X181428691Y-102984236D01*
X181639508Y-103005000D01*
X181780492Y-103005000D01*
X181991309Y-102984236D01*
X182261808Y-102902182D01*
X182511101Y-102768932D01*
X182729608Y-102589608D01*
X182908932Y-102371101D01*
X183042182Y-102121808D01*
X183124236Y-101851309D01*
X183151943Y-101570000D01*
X183124236Y-101288691D01*
X183042182Y-101018192D01*
X182908932Y-100768899D01*
X182729608Y-100550392D01*
X182511101Y-100371068D01*
X182378142Y-100300000D01*
X182511101Y-100228932D01*
X182729608Y-100049608D01*
X182908932Y-99831101D01*
X183042182Y-99581808D01*
X183124236Y-99311309D01*
X183151943Y-99030000D01*
X183124236Y-98748691D01*
X183042182Y-98478192D01*
X182908932Y-98228899D01*
X182729608Y-98010392D01*
X182511101Y-97831068D01*
X182378142Y-97760000D01*
X182511101Y-97688932D01*
X182729608Y-97509608D01*
X182908932Y-97291101D01*
X183042182Y-97041808D01*
X183124236Y-96771309D01*
X183151943Y-96490000D01*
X183124236Y-96208691D01*
X183042182Y-95938192D01*
X182908932Y-95688899D01*
X182729608Y-95470392D01*
X182616518Y-95377581D01*
X182634482Y-95375812D01*
X182754180Y-95339502D01*
X182864494Y-95280537D01*
X182961185Y-95201185D01*
X183040537Y-95104494D01*
X183099502Y-94994180D01*
X183135812Y-94874482D01*
X183148072Y-94750000D01*
X183148072Y-93950000D01*
X187888057Y-93950000D01*
X187915764Y-94231309D01*
X187997818Y-94501808D01*
X188131068Y-94751101D01*
X188310392Y-94969608D01*
X188528899Y-95148932D01*
X188661858Y-95220000D01*
X188528899Y-95291068D01*
X188310392Y-95470392D01*
X188131068Y-95688899D01*
X187997818Y-95938192D01*
X187915764Y-96208691D01*
X187888057Y-96490000D01*
X187915764Y-96771309D01*
X187997818Y-97041808D01*
X188131068Y-97291101D01*
X188310392Y-97509608D01*
X188528899Y-97688932D01*
X188661858Y-97760000D01*
X188528899Y-97831068D01*
X188310392Y-98010392D01*
X188131068Y-98228899D01*
X187997818Y-98478192D01*
X187915764Y-98748691D01*
X187888057Y-99030000D01*
X187915764Y-99311309D01*
X187997818Y-99581808D01*
X188131068Y-99831101D01*
X188310392Y-100049608D01*
X188528899Y-100228932D01*
X188661858Y-100300000D01*
X188528899Y-100371068D01*
X188310392Y-100550392D01*
X188131068Y-100768899D01*
X187997818Y-101018192D01*
X187915764Y-101288691D01*
X187888057Y-101570000D01*
X187915764Y-101851309D01*
X187997818Y-102121808D01*
X188131068Y-102371101D01*
X188310392Y-102589608D01*
X188528899Y-102768932D01*
X188778192Y-102902182D01*
X189048691Y-102984236D01*
X189259508Y-103005000D01*
X189400492Y-103005000D01*
X189611309Y-102984236D01*
X189881808Y-102902182D01*
X190131101Y-102768932D01*
X190349608Y-102589608D01*
X190528932Y-102371101D01*
X190662182Y-102121808D01*
X190744236Y-101851309D01*
X190771943Y-101570000D01*
X190744236Y-101288691D01*
X190662182Y-101018192D01*
X190528932Y-100768899D01*
X190349608Y-100550392D01*
X190131101Y-100371068D01*
X189998142Y-100300000D01*
X190131101Y-100228932D01*
X190349608Y-100049608D01*
X190528932Y-99831101D01*
X190662182Y-99581808D01*
X190744236Y-99311309D01*
X190771943Y-99030000D01*
X190744236Y-98748691D01*
X190662182Y-98478192D01*
X190528932Y-98228899D01*
X190349608Y-98010392D01*
X190131101Y-97831068D01*
X189998142Y-97760000D01*
X190131101Y-97688932D01*
X190349608Y-97509608D01*
X190528932Y-97291101D01*
X190662182Y-97041808D01*
X190744236Y-96771309D01*
X190771943Y-96490000D01*
X190744236Y-96208691D01*
X190662182Y-95938192D01*
X190528932Y-95688899D01*
X190349608Y-95470392D01*
X190131101Y-95291068D01*
X189998142Y-95220000D01*
X190131101Y-95148932D01*
X190349608Y-94969608D01*
X190528932Y-94751101D01*
X190662182Y-94501808D01*
X190744236Y-94231309D01*
X190771943Y-93950000D01*
X190744236Y-93668691D01*
X190662182Y-93398192D01*
X190528932Y-93148899D01*
X190349608Y-92930392D01*
X190131101Y-92751068D01*
X189881808Y-92617818D01*
X189611309Y-92535764D01*
X189400492Y-92515000D01*
X189259508Y-92515000D01*
X189048691Y-92535764D01*
X188778192Y-92617818D01*
X188528899Y-92751068D01*
X188310392Y-92930392D01*
X188131068Y-93148899D01*
X187997818Y-93398192D01*
X187915764Y-93668691D01*
X187888057Y-93950000D01*
X183148072Y-93950000D01*
X183148072Y-93150000D01*
X183135812Y-93025518D01*
X183099502Y-92905820D01*
X183040537Y-92795506D01*
X182961185Y-92698815D01*
X182864494Y-92619463D01*
X182754180Y-92560498D01*
X182634482Y-92524188D01*
X182510000Y-92511928D01*
X180910000Y-92511928D01*
X180785518Y-92524188D01*
X180665820Y-92560498D01*
X180555506Y-92619463D01*
X180458815Y-92698815D01*
X180379463Y-92795506D01*
X180320498Y-92905820D01*
X180284188Y-93025518D01*
X180271928Y-93150000D01*
X180271928Y-93325000D01*
X171920549Y-93325000D01*
X171910226Y-93273102D01*
X171832205Y-93084744D01*
X171718937Y-92915226D01*
X171574774Y-92771063D01*
X171405256Y-92657795D01*
X171216898Y-92579774D01*
X171016939Y-92540000D01*
X170813061Y-92540000D01*
X170613102Y-92579774D01*
X170424744Y-92657795D01*
X170255226Y-92771063D01*
X170111063Y-92915226D01*
X169997795Y-93084744D01*
X169919774Y-93273102D01*
X169880000Y-93473061D01*
X166085000Y-93473061D01*
X166085000Y-90443469D01*
X166089281Y-90400000D01*
X166085000Y-90356531D01*
X166085000Y-90356523D01*
X166079138Y-90297000D01*
X166198057Y-90297000D01*
X166225764Y-90578309D01*
X166307818Y-90848808D01*
X166441068Y-91098101D01*
X166620392Y-91316608D01*
X166838899Y-91495932D01*
X167088192Y-91629182D01*
X167358691Y-91711236D01*
X167569508Y-91732000D01*
X167710492Y-91732000D01*
X167921309Y-91711236D01*
X168191808Y-91629182D01*
X168441101Y-91495932D01*
X168659608Y-91316608D01*
X168838932Y-91098101D01*
X168972182Y-90848808D01*
X169054236Y-90578309D01*
X169081943Y-90297000D01*
X170108057Y-90297000D01*
X170135764Y-90578309D01*
X170217818Y-90848808D01*
X170351068Y-91098101D01*
X170530392Y-91316608D01*
X170748899Y-91495932D01*
X170998192Y-91629182D01*
X171268691Y-91711236D01*
X171479508Y-91732000D01*
X171620492Y-91732000D01*
X171831309Y-91711236D01*
X172101808Y-91629182D01*
X172351101Y-91495932D01*
X172569608Y-91316608D01*
X172748932Y-91098101D01*
X172882182Y-90848808D01*
X172964236Y-90578309D01*
X172991943Y-90297000D01*
X174072057Y-90297000D01*
X174099764Y-90578309D01*
X174181818Y-90848808D01*
X174315068Y-91098101D01*
X174494392Y-91316608D01*
X174712899Y-91495932D01*
X174962192Y-91629182D01*
X175232691Y-91711236D01*
X175443508Y-91732000D01*
X175584492Y-91732000D01*
X175795309Y-91711236D01*
X176065808Y-91629182D01*
X176315101Y-91495932D01*
X176533608Y-91316608D01*
X176712932Y-91098101D01*
X176846182Y-90848808D01*
X176928236Y-90578309D01*
X176955943Y-90297000D01*
X176928236Y-90015691D01*
X176846182Y-89745192D01*
X176712932Y-89495899D01*
X176533608Y-89277392D01*
X176315101Y-89098068D01*
X176065808Y-88964818D01*
X175795309Y-88882764D01*
X175584492Y-88862000D01*
X175443508Y-88862000D01*
X175232691Y-88882764D01*
X174962192Y-88964818D01*
X174712899Y-89098068D01*
X174494392Y-89277392D01*
X174315068Y-89495899D01*
X174181818Y-89745192D01*
X174099764Y-90015691D01*
X174072057Y-90297000D01*
X172991943Y-90297000D01*
X172964236Y-90015691D01*
X172882182Y-89745192D01*
X172748932Y-89495899D01*
X172569608Y-89277392D01*
X172351101Y-89098068D01*
X172101808Y-88964818D01*
X171831309Y-88882764D01*
X171620492Y-88862000D01*
X171479508Y-88862000D01*
X171268691Y-88882764D01*
X170998192Y-88964818D01*
X170748899Y-89098068D01*
X170530392Y-89277392D01*
X170351068Y-89495899D01*
X170217818Y-89745192D01*
X170135764Y-90015691D01*
X170108057Y-90297000D01*
X169081943Y-90297000D01*
X169054236Y-90015691D01*
X168972182Y-89745192D01*
X168838932Y-89495899D01*
X168659608Y-89277392D01*
X168441101Y-89098068D01*
X168191808Y-88964818D01*
X167921309Y-88882764D01*
X167710492Y-88862000D01*
X167569508Y-88862000D01*
X167358691Y-88882764D01*
X167088192Y-88964818D01*
X166838899Y-89098068D01*
X166620392Y-89277392D01*
X166441068Y-89495899D01*
X166307818Y-89745192D01*
X166225764Y-90015691D01*
X166198057Y-90297000D01*
X166079138Y-90297000D01*
X166072195Y-90226510D01*
X166053536Y-90165000D01*
X166021589Y-90059686D01*
X165939411Y-89905941D01*
X165856532Y-89804953D01*
X165856530Y-89804951D01*
X165828817Y-89771183D01*
X165795050Y-89743471D01*
X162046534Y-85994956D01*
X162018817Y-85961183D01*
X161884059Y-85850589D01*
X161730313Y-85768411D01*
X161563490Y-85717805D01*
X161433477Y-85705000D01*
X161433469Y-85705000D01*
X161390000Y-85700719D01*
X161346531Y-85705000D01*
X138220804Y-85705000D01*
X138255226Y-85621898D01*
X138295000Y-85421939D01*
X138295000Y-85218061D01*
X138255226Y-85018102D01*
X138177205Y-84829744D01*
X138063937Y-84660226D01*
X137919774Y-84516063D01*
X137750256Y-84402795D01*
X137561898Y-84324774D01*
X137361939Y-84285000D01*
X137158061Y-84285000D01*
X136958102Y-84324774D01*
X136769744Y-84402795D01*
X136721546Y-84435000D01*
X114938454Y-84435000D01*
X114890256Y-84402795D01*
X114701898Y-84324774D01*
X114501939Y-84285000D01*
X114298061Y-84285000D01*
X114098102Y-84324774D01*
X113909744Y-84402795D01*
X113740226Y-84516063D01*
X113596063Y-84660226D01*
X113482795Y-84829744D01*
X113404774Y-85018102D01*
X113365000Y-85218061D01*
X113365000Y-85421939D01*
X113404774Y-85621898D01*
X113482795Y-85810256D01*
X113596063Y-85979774D01*
X113740226Y-86123937D01*
X113909744Y-86237205D01*
X114098102Y-86315226D01*
X114298061Y-86355000D01*
X114501939Y-86355000D01*
X114701898Y-86315226D01*
X114890256Y-86237205D01*
X114938454Y-86205000D01*
X115979196Y-86205000D01*
X115944774Y-86288102D01*
X115905000Y-86488061D01*
X115905000Y-86691939D01*
X115944774Y-86891898D01*
X116022795Y-87080256D01*
X116136063Y-87249774D01*
X116280226Y-87393937D01*
X116449744Y-87507205D01*
X116638102Y-87585226D01*
X116838061Y-87625000D01*
X117041939Y-87625000D01*
X117241898Y-87585226D01*
X117430256Y-87507205D01*
X117478454Y-87475000D01*
X118519196Y-87475000D01*
X118484774Y-87558102D01*
X118445000Y-87758061D01*
X118445000Y-87961939D01*
X118484774Y-88161898D01*
X118562795Y-88350256D01*
X118676063Y-88519774D01*
X118820226Y-88663937D01*
X118989744Y-88777205D01*
X119178102Y-88855226D01*
X119378061Y-88895000D01*
X119581939Y-88895000D01*
X119781898Y-88855226D01*
X119970256Y-88777205D01*
X120018454Y-88745000D01*
X121059196Y-88745000D01*
X121024774Y-88828102D01*
X120985000Y-89028061D01*
X120985000Y-89231939D01*
X121024774Y-89431898D01*
X121102795Y-89620256D01*
X121216063Y-89789774D01*
X121360226Y-89933937D01*
X121529744Y-90047205D01*
X121718102Y-90125226D01*
X121918061Y-90165000D01*
X122121939Y-90165000D01*
X122321898Y-90125226D01*
X122510256Y-90047205D01*
X122558454Y-90015000D01*
X123599196Y-90015000D01*
X123564774Y-90098102D01*
X123525000Y-90298061D01*
X123525000Y-90501939D01*
X123564774Y-90701898D01*
X123642795Y-90890256D01*
X123756063Y-91059774D01*
X123900226Y-91203937D01*
X124069744Y-91317205D01*
X124258102Y-91395226D01*
X124458061Y-91435000D01*
X124661939Y-91435000D01*
X124861898Y-91395226D01*
X125050256Y-91317205D01*
X125098454Y-91285000D01*
X128679196Y-91285000D01*
X128644774Y-91368102D01*
X128605000Y-91568061D01*
X128605000Y-91771939D01*
X128644774Y-91971898D01*
X128722795Y-92160256D01*
X128836063Y-92329774D01*
X128980226Y-92473937D01*
X129149744Y-92587205D01*
X129338102Y-92665226D01*
X129538061Y-92705000D01*
X129741939Y-92705000D01*
X129941898Y-92665226D01*
X130130256Y-92587205D01*
X130178454Y-92555000D01*
X131219196Y-92555000D01*
X131184774Y-92638102D01*
X131145000Y-92838061D01*
X131145000Y-93041939D01*
X131184774Y-93241898D01*
X131262795Y-93430256D01*
X131376063Y-93599774D01*
X131520226Y-93743937D01*
X131689744Y-93857205D01*
X131878102Y-93935226D01*
X132078061Y-93975000D01*
X132281939Y-93975000D01*
X132481898Y-93935226D01*
X132670256Y-93857205D01*
X132718454Y-93825000D01*
X133759196Y-93825000D01*
X133724774Y-93908102D01*
X133685000Y-94108061D01*
X133685000Y-94311939D01*
X133724774Y-94511898D01*
X133802795Y-94700256D01*
X133916063Y-94869774D01*
X134060226Y-95013937D01*
X134111436Y-95048155D01*
X133918899Y-95151068D01*
X133700392Y-95330393D01*
X133521068Y-95548900D01*
X133450000Y-95681858D01*
X133378932Y-95548899D01*
X133199607Y-95330392D01*
X132981100Y-95151068D01*
X132731807Y-95017818D01*
X132461308Y-94935764D01*
X132180000Y-94908057D01*
X131898691Y-94935764D01*
X131628192Y-95017818D01*
X131378899Y-95151068D01*
X131160392Y-95330393D01*
X130981068Y-95548900D01*
X130910000Y-95681858D01*
X130838932Y-95548899D01*
X130659607Y-95330392D01*
X130441100Y-95151068D01*
X130191807Y-95017818D01*
X129921308Y-94935764D01*
X129640000Y-94908057D01*
X129358691Y-94935764D01*
X129088192Y-95017818D01*
X128838899Y-95151068D01*
X128620392Y-95330393D01*
X128441068Y-95548900D01*
X128370000Y-95681858D01*
X128298932Y-95548899D01*
X128119607Y-95330392D01*
X127901100Y-95151068D01*
X127651807Y-95017818D01*
X127381308Y-94935764D01*
X127100000Y-94908057D01*
X126818691Y-94935764D01*
X126548192Y-95017818D01*
X126298899Y-95151068D01*
X126080392Y-95330393D01*
X125901068Y-95548900D01*
X125830000Y-95681858D01*
X125758932Y-95548899D01*
X125579607Y-95330392D01*
X125361100Y-95151068D01*
X125111807Y-95017818D01*
X124841308Y-94935764D01*
X124560000Y-94908057D01*
X124278691Y-94935764D01*
X124008192Y-95017818D01*
X123758899Y-95151068D01*
X123540392Y-95330393D01*
X123361068Y-95548900D01*
X123290000Y-95681858D01*
X123218932Y-95548899D01*
X123039607Y-95330392D01*
X122821100Y-95151068D01*
X122571807Y-95017818D01*
X122301308Y-94935764D01*
X122020000Y-94908057D01*
X121738691Y-94935764D01*
X121468192Y-95017818D01*
X121218899Y-95151068D01*
X121000392Y-95330393D01*
X120821068Y-95548900D01*
X120750000Y-95681858D01*
X120678932Y-95548899D01*
X120499607Y-95330392D01*
X120281100Y-95151068D01*
X120031807Y-95017818D01*
X119761308Y-94935764D01*
X119480000Y-94908057D01*
X119198691Y-94935764D01*
X118928192Y-95017818D01*
X118678899Y-95151068D01*
X118460392Y-95330393D01*
X118281068Y-95548900D01*
X118210000Y-95681858D01*
X118138932Y-95548899D01*
X117959607Y-95330392D01*
X117741100Y-95151068D01*
X117491807Y-95017818D01*
X117221308Y-94935764D01*
X116940000Y-94908057D01*
X116658691Y-94935764D01*
X116388192Y-95017818D01*
X116138899Y-95151068D01*
X115920392Y-95330393D01*
X115741068Y-95548900D01*
X115670000Y-95681858D01*
X115598932Y-95548899D01*
X115419607Y-95330392D01*
X115201100Y-95151068D01*
X114951807Y-95017818D01*
X114681308Y-94935764D01*
X114400000Y-94908057D01*
X114118691Y-94935764D01*
X113848192Y-95017818D01*
X113598899Y-95151068D01*
X113380392Y-95330393D01*
X113201068Y-95548900D01*
X113130000Y-95681858D01*
X113058932Y-95548899D01*
X112879607Y-95330392D01*
X112661100Y-95151068D01*
X112411807Y-95017818D01*
X112141308Y-94935764D01*
X111860000Y-94908057D01*
X111578691Y-94935764D01*
X111308192Y-95017818D01*
X111058899Y-95151068D01*
X110840392Y-95330393D01*
X110661068Y-95548900D01*
X110590000Y-95681858D01*
X110518932Y-95548899D01*
X110339607Y-95330392D01*
X110121100Y-95151068D01*
X109871807Y-95017818D01*
X109601308Y-94935764D01*
X109320000Y-94908057D01*
X109038691Y-94935764D01*
X108768192Y-95017818D01*
X108518899Y-95151068D01*
X108300392Y-95330393D01*
X108121068Y-95548900D01*
X108050000Y-95681858D01*
X107978932Y-95548899D01*
X107799607Y-95330392D01*
X107581100Y-95151068D01*
X107331807Y-95017818D01*
X107061308Y-94935764D01*
X106780000Y-94908057D01*
X106498691Y-94935764D01*
X106228192Y-95017818D01*
X105978899Y-95151068D01*
X105760392Y-95330393D01*
X105581068Y-95548900D01*
X105510000Y-95681858D01*
X105438932Y-95548899D01*
X105259607Y-95330392D01*
X105041100Y-95151068D01*
X104791807Y-95017818D01*
X104521308Y-94935764D01*
X104240000Y-94908057D01*
X103958691Y-94935764D01*
X103688192Y-95017818D01*
X103438899Y-95151068D01*
X103220392Y-95330393D01*
X103127581Y-95443483D01*
X103125812Y-95425518D01*
X103089502Y-95305820D01*
X103030537Y-95195506D01*
X102951185Y-95098815D01*
X102854494Y-95019463D01*
X102744180Y-94960498D01*
X102624482Y-94924188D01*
X102500000Y-94911928D01*
X100900000Y-94911928D01*
X100775518Y-94924188D01*
X100655820Y-94960498D01*
X100545506Y-95019463D01*
X100448815Y-95098815D01*
X100369463Y-95195506D01*
X100310498Y-95305820D01*
X100274188Y-95425518D01*
X100261928Y-95550000D01*
X100261928Y-97950000D01*
X100274188Y-98074482D01*
X100310498Y-98194180D01*
X100369463Y-98304494D01*
X100448815Y-98401185D01*
X100453464Y-98405000D01*
X95393465Y-98405000D01*
X95349999Y-98400719D01*
X95306533Y-98405000D01*
X95306523Y-98405000D01*
X95176510Y-98417805D01*
X95009687Y-98468411D01*
X94855941Y-98550589D01*
X94855939Y-98550590D01*
X94855940Y-98550590D01*
X94754953Y-98633468D01*
X94754951Y-98633470D01*
X94721183Y-98661183D01*
X94693470Y-98694951D01*
X88404956Y-104983466D01*
X88371183Y-105011183D01*
X88260589Y-105145942D01*
X88178411Y-105299688D01*
X88143157Y-105415904D01*
X88139432Y-105428184D01*
X88127805Y-105466511D01*
X88115000Y-105596524D01*
X88115000Y-105596531D01*
X88110719Y-105640000D01*
X88115000Y-105683469D01*
X88115001Y-108515375D01*
X88025518Y-108524188D01*
X87905820Y-108560498D01*
X87795506Y-108619463D01*
X87698815Y-108698815D01*
X87619463Y-108795506D01*
X87560498Y-108905820D01*
X87524188Y-109025518D01*
X87511928Y-109150000D01*
X83595000Y-109150000D01*
X83595000Y-81039509D01*
X100265000Y-81039509D01*
X100265000Y-81980492D01*
X100285764Y-82191309D01*
X100367818Y-82461808D01*
X100501068Y-82711101D01*
X100680393Y-82929608D01*
X100898900Y-83108932D01*
X101148193Y-83242182D01*
X101418692Y-83324236D01*
X101700000Y-83351943D01*
X101981309Y-83324236D01*
X102251808Y-83242182D01*
X102501101Y-83108932D01*
X102719608Y-82929608D01*
X102898932Y-82711101D01*
X102970000Y-82578142D01*
X103041068Y-82711101D01*
X103220393Y-82929608D01*
X103438900Y-83108932D01*
X103688193Y-83242182D01*
X103958692Y-83324236D01*
X104240000Y-83351943D01*
X104521309Y-83324236D01*
X104791808Y-83242182D01*
X105041101Y-83108932D01*
X105259608Y-82929608D01*
X105438932Y-82711101D01*
X105510000Y-82578142D01*
X105581068Y-82711101D01*
X105760393Y-82929608D01*
X105978900Y-83108932D01*
X106228193Y-83242182D01*
X106498692Y-83324236D01*
X106780000Y-83351943D01*
X107061309Y-83324236D01*
X107331808Y-83242182D01*
X107581101Y-83108932D01*
X107799608Y-82929608D01*
X107978932Y-82711101D01*
X108050000Y-82578142D01*
X108121068Y-82711101D01*
X108300393Y-82929608D01*
X108518900Y-83108932D01*
X108768193Y-83242182D01*
X109038692Y-83324236D01*
X109320000Y-83351943D01*
X109601309Y-83324236D01*
X109871808Y-83242182D01*
X110121101Y-83108932D01*
X110339608Y-82929608D01*
X110518932Y-82711101D01*
X110590000Y-82578142D01*
X110661068Y-82711101D01*
X110840393Y-82929608D01*
X111058900Y-83108932D01*
X111308193Y-83242182D01*
X111578692Y-83324236D01*
X111860000Y-83351943D01*
X112141309Y-83324236D01*
X112411808Y-83242182D01*
X112661101Y-83108932D01*
X112879608Y-82929608D01*
X113058932Y-82711101D01*
X113130000Y-82578142D01*
X113201068Y-82711101D01*
X113380393Y-82929608D01*
X113598900Y-83108932D01*
X113848193Y-83242182D01*
X114118692Y-83324236D01*
X114400000Y-83351943D01*
X114681309Y-83324236D01*
X114951808Y-83242182D01*
X115201101Y-83108932D01*
X115419608Y-82929608D01*
X115598932Y-82711101D01*
X115670000Y-82578142D01*
X115741068Y-82711101D01*
X115920393Y-82929608D01*
X116138900Y-83108932D01*
X116388193Y-83242182D01*
X116658692Y-83324236D01*
X116940000Y-83351943D01*
X117221309Y-83324236D01*
X117491808Y-83242182D01*
X117741101Y-83108932D01*
X117959608Y-82929608D01*
X118138932Y-82711101D01*
X118210000Y-82578142D01*
X118281068Y-82711101D01*
X118460393Y-82929608D01*
X118678900Y-83108932D01*
X118928193Y-83242182D01*
X119198692Y-83324236D01*
X119480000Y-83351943D01*
X119761309Y-83324236D01*
X120031808Y-83242182D01*
X120281101Y-83108932D01*
X120499608Y-82929608D01*
X120678932Y-82711101D01*
X120750000Y-82578142D01*
X120821068Y-82711101D01*
X121000393Y-82929608D01*
X121218900Y-83108932D01*
X121468193Y-83242182D01*
X121738692Y-83324236D01*
X122020000Y-83351943D01*
X122301309Y-83324236D01*
X122571808Y-83242182D01*
X122821101Y-83108932D01*
X123039608Y-82929608D01*
X123218932Y-82711101D01*
X123290000Y-82578142D01*
X123361068Y-82711101D01*
X123540393Y-82929608D01*
X123758900Y-83108932D01*
X124008193Y-83242182D01*
X124278692Y-83324236D01*
X124560000Y-83351943D01*
X124841309Y-83324236D01*
X125111808Y-83242182D01*
X125361101Y-83108932D01*
X125579608Y-82929608D01*
X125758932Y-82711101D01*
X125830000Y-82578142D01*
X125901068Y-82711101D01*
X126080393Y-82929608D01*
X126298900Y-83108932D01*
X126548193Y-83242182D01*
X126818692Y-83324236D01*
X127100000Y-83351943D01*
X127381309Y-83324236D01*
X127651808Y-83242182D01*
X127901101Y-83108932D01*
X128119608Y-82929608D01*
X128298932Y-82711101D01*
X128367265Y-82583259D01*
X128517399Y-82812839D01*
X128715105Y-83014500D01*
X128948354Y-83173715D01*
X129208182Y-83284367D01*
X129290961Y-83301904D01*
X129513000Y-83179915D01*
X129513000Y-81637000D01*
X129493000Y-81637000D01*
X129493000Y-81383000D01*
X129513000Y-81383000D01*
X129513000Y-79840085D01*
X129767000Y-79840085D01*
X129767000Y-81383000D01*
X129787000Y-81383000D01*
X129787000Y-81637000D01*
X129767000Y-81637000D01*
X129767000Y-83179915D01*
X129989039Y-83301904D01*
X130071818Y-83284367D01*
X130331646Y-83173715D01*
X130564895Y-83014500D01*
X130762601Y-82812839D01*
X130912735Y-82583259D01*
X130981068Y-82711101D01*
X131160393Y-82929608D01*
X131378900Y-83108932D01*
X131628193Y-83242182D01*
X131898692Y-83324236D01*
X132180000Y-83351943D01*
X132461309Y-83324236D01*
X132731808Y-83242182D01*
X132981101Y-83108932D01*
X133199608Y-82929608D01*
X133378932Y-82711101D01*
X133450000Y-82578142D01*
X133521068Y-82711101D01*
X133700393Y-82929608D01*
X133918900Y-83108932D01*
X134168193Y-83242182D01*
X134438692Y-83324236D01*
X134720000Y-83351943D01*
X135001309Y-83324236D01*
X135271808Y-83242182D01*
X135521101Y-83108932D01*
X135739608Y-82929608D01*
X135918932Y-82711101D01*
X135990000Y-82578142D01*
X136061068Y-82711101D01*
X136240393Y-82929608D01*
X136458900Y-83108932D01*
X136708193Y-83242182D01*
X136978692Y-83324236D01*
X137260000Y-83351943D01*
X137541309Y-83324236D01*
X137811808Y-83242182D01*
X138061101Y-83108932D01*
X138279608Y-82929608D01*
X138458932Y-82711101D01*
X138530000Y-82578142D01*
X138601068Y-82711101D01*
X138780393Y-82929608D01*
X138998900Y-83108932D01*
X139248193Y-83242182D01*
X139518692Y-83324236D01*
X139800000Y-83351943D01*
X140081309Y-83324236D01*
X140351808Y-83242182D01*
X140601101Y-83108932D01*
X140819608Y-82929608D01*
X140998932Y-82711101D01*
X141070000Y-82578142D01*
X141141068Y-82711101D01*
X141320393Y-82929608D01*
X141538900Y-83108932D01*
X141788193Y-83242182D01*
X142058692Y-83324236D01*
X142340000Y-83351943D01*
X142621309Y-83324236D01*
X142891808Y-83242182D01*
X143141101Y-83108932D01*
X143359608Y-82929608D01*
X143538932Y-82711101D01*
X143610000Y-82578142D01*
X143681068Y-82711101D01*
X143860393Y-82929608D01*
X144078900Y-83108932D01*
X144328193Y-83242182D01*
X144598692Y-83324236D01*
X144880000Y-83351943D01*
X145161309Y-83324236D01*
X145431808Y-83242182D01*
X145681101Y-83108932D01*
X145899608Y-82929608D01*
X146078932Y-82711101D01*
X146150000Y-82578142D01*
X146221068Y-82711101D01*
X146400393Y-82929608D01*
X146618900Y-83108932D01*
X146868193Y-83242182D01*
X147138692Y-83324236D01*
X147420000Y-83351943D01*
X147701309Y-83324236D01*
X147971808Y-83242182D01*
X148221101Y-83108932D01*
X148439608Y-82929608D01*
X148618932Y-82711101D01*
X148690000Y-82578142D01*
X148761068Y-82711101D01*
X148940393Y-82929608D01*
X149158900Y-83108932D01*
X149408193Y-83242182D01*
X149678692Y-83324236D01*
X149960000Y-83351943D01*
X150241309Y-83324236D01*
X150511808Y-83242182D01*
X150761101Y-83108932D01*
X150979608Y-82929608D01*
X151158932Y-82711101D01*
X151292182Y-82461808D01*
X151374236Y-82191309D01*
X151395000Y-81980491D01*
X151395000Y-81039508D01*
X151374236Y-80828691D01*
X151292182Y-80558192D01*
X151158932Y-80308899D01*
X150979607Y-80090392D01*
X150864182Y-79995665D01*
X166205000Y-79995665D01*
X166205000Y-80278335D01*
X166260147Y-80555574D01*
X166368320Y-80816727D01*
X166525363Y-81051759D01*
X166725241Y-81251637D01*
X166960273Y-81408680D01*
X167221426Y-81516853D01*
X167498665Y-81572000D01*
X167781335Y-81572000D01*
X168058574Y-81516853D01*
X168319727Y-81408680D01*
X168554759Y-81251637D01*
X168754637Y-81051759D01*
X168911680Y-80816727D01*
X169019853Y-80555574D01*
X169075000Y-80278335D01*
X169075000Y-79995665D01*
X170115000Y-79995665D01*
X170115000Y-80278335D01*
X170170147Y-80555574D01*
X170278320Y-80816727D01*
X170435363Y-81051759D01*
X170635241Y-81251637D01*
X170870273Y-81408680D01*
X171131426Y-81516853D01*
X171408665Y-81572000D01*
X171691335Y-81572000D01*
X171968574Y-81516853D01*
X172229727Y-81408680D01*
X172464759Y-81251637D01*
X172664637Y-81051759D01*
X172821680Y-80816727D01*
X172929853Y-80555574D01*
X172985000Y-80278335D01*
X172985000Y-79995665D01*
X174079000Y-79995665D01*
X174079000Y-80278335D01*
X174134147Y-80555574D01*
X174242320Y-80816727D01*
X174399363Y-81051759D01*
X174599241Y-81251637D01*
X174834273Y-81408680D01*
X175095426Y-81516853D01*
X175372665Y-81572000D01*
X175655335Y-81572000D01*
X175932574Y-81516853D01*
X176193727Y-81408680D01*
X176428759Y-81251637D01*
X176628637Y-81051759D01*
X176785680Y-80816727D01*
X176893853Y-80555574D01*
X176949000Y-80278335D01*
X176949000Y-79995665D01*
X176893853Y-79718426D01*
X176785680Y-79457273D01*
X176628637Y-79222241D01*
X176428759Y-79022363D01*
X176193727Y-78865320D01*
X175932574Y-78757147D01*
X175655335Y-78702000D01*
X175372665Y-78702000D01*
X175095426Y-78757147D01*
X174834273Y-78865320D01*
X174599241Y-79022363D01*
X174399363Y-79222241D01*
X174242320Y-79457273D01*
X174134147Y-79718426D01*
X174079000Y-79995665D01*
X172985000Y-79995665D01*
X172929853Y-79718426D01*
X172821680Y-79457273D01*
X172664637Y-79222241D01*
X172464759Y-79022363D01*
X172229727Y-78865320D01*
X171968574Y-78757147D01*
X171691335Y-78702000D01*
X171408665Y-78702000D01*
X171131426Y-78757147D01*
X170870273Y-78865320D01*
X170635241Y-79022363D01*
X170435363Y-79222241D01*
X170278320Y-79457273D01*
X170170147Y-79718426D01*
X170115000Y-79995665D01*
X169075000Y-79995665D01*
X169019853Y-79718426D01*
X168911680Y-79457273D01*
X168754637Y-79222241D01*
X168554759Y-79022363D01*
X168319727Y-78865320D01*
X168058574Y-78757147D01*
X167781335Y-78702000D01*
X167498665Y-78702000D01*
X167221426Y-78757147D01*
X166960273Y-78865320D01*
X166725241Y-79022363D01*
X166525363Y-79222241D01*
X166368320Y-79457273D01*
X166260147Y-79718426D01*
X166205000Y-79995665D01*
X150864182Y-79995665D01*
X150761100Y-79911068D01*
X150511807Y-79777818D01*
X150241308Y-79695764D01*
X149960000Y-79668057D01*
X149678691Y-79695764D01*
X149408192Y-79777818D01*
X149158899Y-79911068D01*
X148940392Y-80090393D01*
X148761068Y-80308900D01*
X148690000Y-80441858D01*
X148618932Y-80308899D01*
X148439607Y-80090392D01*
X148221100Y-79911068D01*
X147971807Y-79777818D01*
X147701308Y-79695764D01*
X147420000Y-79668057D01*
X147138691Y-79695764D01*
X146868192Y-79777818D01*
X146618899Y-79911068D01*
X146400392Y-80090393D01*
X146221068Y-80308900D01*
X146150000Y-80441858D01*
X146078932Y-80308899D01*
X145899607Y-80090392D01*
X145681100Y-79911068D01*
X145431807Y-79777818D01*
X145161308Y-79695764D01*
X144880000Y-79668057D01*
X144598691Y-79695764D01*
X144328192Y-79777818D01*
X144078899Y-79911068D01*
X143860392Y-80090393D01*
X143681068Y-80308900D01*
X143610000Y-80441858D01*
X143538932Y-80308899D01*
X143359607Y-80090392D01*
X143141100Y-79911068D01*
X142891807Y-79777818D01*
X142621308Y-79695764D01*
X142340000Y-79668057D01*
X142058691Y-79695764D01*
X141788192Y-79777818D01*
X141538899Y-79911068D01*
X141320392Y-80090393D01*
X141141068Y-80308900D01*
X141070000Y-80441858D01*
X140998932Y-80308899D01*
X140819607Y-80090392D01*
X140601100Y-79911068D01*
X140351807Y-79777818D01*
X140081308Y-79695764D01*
X139800000Y-79668057D01*
X139518691Y-79695764D01*
X139248192Y-79777818D01*
X138998899Y-79911068D01*
X138780392Y-80090393D01*
X138601068Y-80308900D01*
X138530000Y-80441858D01*
X138458932Y-80308899D01*
X138279607Y-80090392D01*
X138061100Y-79911068D01*
X137811807Y-79777818D01*
X137541308Y-79695764D01*
X137260000Y-79668057D01*
X136978691Y-79695764D01*
X136708192Y-79777818D01*
X136458899Y-79911068D01*
X136240392Y-80090393D01*
X136061068Y-80308900D01*
X135990000Y-80441858D01*
X135918932Y-80308899D01*
X135739607Y-80090392D01*
X135521100Y-79911068D01*
X135271807Y-79777818D01*
X135001308Y-79695764D01*
X134720000Y-79668057D01*
X134438691Y-79695764D01*
X134168192Y-79777818D01*
X133918899Y-79911068D01*
X133700392Y-80090393D01*
X133521068Y-80308900D01*
X133450000Y-80441858D01*
X133378932Y-80308899D01*
X133199607Y-80090392D01*
X132981100Y-79911068D01*
X132731807Y-79777818D01*
X132461308Y-79695764D01*
X132180000Y-79668057D01*
X131898691Y-79695764D01*
X131628192Y-79777818D01*
X131378899Y-79911068D01*
X131160392Y-80090393D01*
X130981068Y-80308900D01*
X130912735Y-80436742D01*
X130762601Y-80207161D01*
X130564895Y-80005500D01*
X130331646Y-79846285D01*
X130071818Y-79735633D01*
X129989039Y-79718096D01*
X129767000Y-79840085D01*
X129513000Y-79840085D01*
X129290961Y-79718096D01*
X129208182Y-79735633D01*
X128948354Y-79846285D01*
X128715105Y-80005500D01*
X128517399Y-80207161D01*
X128367265Y-80436741D01*
X128298932Y-80308899D01*
X128119607Y-80090392D01*
X127901100Y-79911068D01*
X127651807Y-79777818D01*
X127381308Y-79695764D01*
X127100000Y-79668057D01*
X126818691Y-79695764D01*
X126548192Y-79777818D01*
X126298899Y-79911068D01*
X126080392Y-80090393D01*
X125901068Y-80308900D01*
X125830000Y-80441858D01*
X125758932Y-80308899D01*
X125579607Y-80090392D01*
X125361100Y-79911068D01*
X125111807Y-79777818D01*
X124841308Y-79695764D01*
X124560000Y-79668057D01*
X124278691Y-79695764D01*
X124008192Y-79777818D01*
X123758899Y-79911068D01*
X123540392Y-80090393D01*
X123361068Y-80308900D01*
X123290000Y-80441858D01*
X123218932Y-80308899D01*
X123039607Y-80090392D01*
X122821100Y-79911068D01*
X122571807Y-79777818D01*
X122301308Y-79695764D01*
X122020000Y-79668057D01*
X121738691Y-79695764D01*
X121468192Y-79777818D01*
X121218899Y-79911068D01*
X121000392Y-80090393D01*
X120821068Y-80308900D01*
X120750000Y-80441858D01*
X120678932Y-80308899D01*
X120499607Y-80090392D01*
X120281100Y-79911068D01*
X120031807Y-79777818D01*
X119761308Y-79695764D01*
X119480000Y-79668057D01*
X119198691Y-79695764D01*
X118928192Y-79777818D01*
X118678899Y-79911068D01*
X118460392Y-80090393D01*
X118281068Y-80308900D01*
X118210000Y-80441858D01*
X118138932Y-80308899D01*
X117959607Y-80090392D01*
X117741100Y-79911068D01*
X117491807Y-79777818D01*
X117221308Y-79695764D01*
X116940000Y-79668057D01*
X116658691Y-79695764D01*
X116388192Y-79777818D01*
X116138899Y-79911068D01*
X115920392Y-80090393D01*
X115741068Y-80308900D01*
X115670000Y-80441858D01*
X115598932Y-80308899D01*
X115419607Y-80090392D01*
X115201100Y-79911068D01*
X114951807Y-79777818D01*
X114681308Y-79695764D01*
X114400000Y-79668057D01*
X114118691Y-79695764D01*
X113848192Y-79777818D01*
X113598899Y-79911068D01*
X113380392Y-80090393D01*
X113201068Y-80308900D01*
X113130000Y-80441858D01*
X113058932Y-80308899D01*
X112879607Y-80090392D01*
X112661100Y-79911068D01*
X112411807Y-79777818D01*
X112141308Y-79695764D01*
X111860000Y-79668057D01*
X111578691Y-79695764D01*
X111308192Y-79777818D01*
X111058899Y-79911068D01*
X110840392Y-80090393D01*
X110661068Y-80308900D01*
X110590000Y-80441858D01*
X110518932Y-80308899D01*
X110339607Y-80090392D01*
X110121100Y-79911068D01*
X109871807Y-79777818D01*
X109601308Y-79695764D01*
X109320000Y-79668057D01*
X109038691Y-79695764D01*
X108768192Y-79777818D01*
X108518899Y-79911068D01*
X108300392Y-80090393D01*
X108121068Y-80308900D01*
X108050000Y-80441858D01*
X107978932Y-80308899D01*
X107799607Y-80090392D01*
X107581100Y-79911068D01*
X107331807Y-79777818D01*
X107061308Y-79695764D01*
X106780000Y-79668057D01*
X106498691Y-79695764D01*
X106228192Y-79777818D01*
X105978899Y-79911068D01*
X105760392Y-80090393D01*
X105581068Y-80308900D01*
X105510000Y-80441858D01*
X105438932Y-80308899D01*
X105259607Y-80090392D01*
X105041100Y-79911068D01*
X104791807Y-79777818D01*
X104521308Y-79695764D01*
X104240000Y-79668057D01*
X103958691Y-79695764D01*
X103688192Y-79777818D01*
X103438899Y-79911068D01*
X103220392Y-80090393D01*
X103041068Y-80308900D01*
X102970000Y-80441858D01*
X102898932Y-80308899D01*
X102719607Y-80090392D01*
X102501100Y-79911068D01*
X102251807Y-79777818D01*
X101981308Y-79695764D01*
X101700000Y-79668057D01*
X101418691Y-79695764D01*
X101148192Y-79777818D01*
X100898899Y-79911068D01*
X100680392Y-80090393D01*
X100501068Y-80308900D01*
X100367818Y-80558193D01*
X100285764Y-80828692D01*
X100265000Y-81039509D01*
X83595000Y-81039509D01*
X83595000Y-76783991D01*
X83632645Y-76400054D01*
X83734276Y-76063439D01*
X83899353Y-75752973D01*
X84121591Y-75480482D01*
X84392518Y-75256352D01*
X84701825Y-75089110D01*
X85037725Y-74985132D01*
X85419543Y-74945001D01*
X190625973Y-74954997D01*
X190625973Y-74954997D01*
G37*
X190625973Y-74954997D02*
X191008006Y-74992455D01*
X191342748Y-75093520D01*
X191651492Y-75257681D01*
X191922471Y-75478687D01*
X192145361Y-75748115D01*
X192311670Y-76055697D01*
X192415072Y-76389736D01*
X192454996Y-76769582D01*
X192445185Y-113581000D01*
X83595000Y-113581000D01*
X83595000Y-109150000D01*
X87511928Y-109150000D01*
X87511928Y-110850000D01*
X87524188Y-110974482D01*
X87560498Y-111094180D01*
X87619463Y-111204494D01*
X87698815Y-111301185D01*
X87795506Y-111380537D01*
X87905820Y-111439502D01*
X88025518Y-111475812D01*
X88150000Y-111488072D01*
X89850000Y-111488072D01*
X89974482Y-111475812D01*
X90094180Y-111439502D01*
X90204494Y-111380537D01*
X90301185Y-111301185D01*
X90380537Y-111204494D01*
X90439502Y-111094180D01*
X90460393Y-111025313D01*
X90484866Y-111055134D01*
X90710986Y-111240706D01*
X90968966Y-111378599D01*
X91248889Y-111463513D01*
X91467050Y-111485000D01*
X91612950Y-111485000D01*
X91831111Y-111463513D01*
X92111034Y-111378599D01*
X92369014Y-111240706D01*
X92595134Y-111055134D01*
X92780706Y-110829014D01*
X92810000Y-110774209D01*
X92839294Y-110829014D01*
X93024866Y-111055134D01*
X93250986Y-111240706D01*
X93508966Y-111378599D01*
X93788889Y-111463513D01*
X94007050Y-111485000D01*
X94152950Y-111485000D01*
X94371111Y-111463513D01*
X94651034Y-111378599D01*
X94909014Y-111240706D01*
X95135134Y-111055134D01*
X95320706Y-110829014D01*
X95350000Y-110774209D01*
X95379294Y-110829014D01*
X95564866Y-111055134D01*
X95790986Y-111240706D01*
X96048966Y-111378599D01*
X96328889Y-111463513D01*
X96547050Y-111485000D01*
X96692950Y-111485000D01*
X96911111Y-111463513D01*
X97191034Y-111378599D01*
X97449014Y-111240706D01*
X97675134Y-111055134D01*
X97860706Y-110829014D01*
X97890000Y-110774209D01*
X97919294Y-110829014D01*
X98104866Y-111055134D01*
X98330986Y-111240706D01*
X98588966Y-111378599D01*
X98868889Y-111463513D01*
X99087050Y-111485000D01*
X99232950Y-111485000D01*
X99451111Y-111463513D01*
X99731034Y-111378599D01*
X99989014Y-111240706D01*
X100215134Y-111055134D01*
X100400706Y-110829014D01*
X100430000Y-110774209D01*
X100459294Y-110829014D01*
X100644866Y-111055134D01*
X100870986Y-111240706D01*
X101128966Y-111378599D01*
X101408889Y-111463513D01*
X101627050Y-111485000D01*
X101772950Y-111485000D01*
X101991111Y-111463513D01*
X102271034Y-111378599D01*
X102529014Y-111240706D01*
X102755134Y-111055134D01*
X102940706Y-110829014D01*
X102970000Y-110774209D01*
X102999294Y-110829014D01*
X103184866Y-111055134D01*
X103410986Y-111240706D01*
X103668966Y-111378599D01*
X103948889Y-111463513D01*
X104167050Y-111485000D01*
X104312950Y-111485000D01*
X104531111Y-111463513D01*
X104811034Y-111378599D01*
X105069014Y-111240706D01*
X105295134Y-111055134D01*
X105480706Y-110829014D01*
X105510000Y-110774209D01*
X105539294Y-110829014D01*
X105724866Y-111055134D01*
X105950986Y-111240706D01*
X106208966Y-111378599D01*
X106488889Y-111463513D01*
X106707050Y-111485000D01*
X106852950Y-111485000D01*
X107071111Y-111463513D01*
X107351034Y-111378599D01*
X107609014Y-111240706D01*
X107835134Y-111055134D01*
X108020706Y-110829014D01*
X108050000Y-110774209D01*
X108079294Y-110829014D01*
X108264866Y-111055134D01*
X108490986Y-111240706D01*
X108748966Y-111378599D01*
X109028889Y-111463513D01*
X109247050Y-111485000D01*
X109392950Y-111485000D01*
X109611111Y-111463513D01*
X109891034Y-111378599D01*
X110149014Y-111240706D01*
X110375134Y-111055134D01*
X110560706Y-110829014D01*
X110590000Y-110774209D01*
X110619294Y-110829014D01*
X110804866Y-111055134D01*
X111030986Y-111240706D01*
X111288966Y-111378599D01*
X111568889Y-111463513D01*
X111787050Y-111485000D01*
X111932950Y-111485000D01*
X112151111Y-111463513D01*
X112431034Y-111378599D01*
X112689014Y-111240706D01*
X112915134Y-111055134D01*
X113100706Y-110829014D01*
X113130000Y-110774209D01*
X113159294Y-110829014D01*
X113344866Y-111055134D01*
X113570986Y-111240706D01*
X113828966Y-111378599D01*
X114108889Y-111463513D01*
X114327050Y-111485000D01*
X114472950Y-111485000D01*
X114691111Y-111463513D01*
X114971034Y-111378599D01*
X115229014Y-111240706D01*
X115455134Y-111055134D01*
X115640706Y-110829014D01*
X115670000Y-110774209D01*
X115699294Y-110829014D01*
X115884866Y-111055134D01*
X116110986Y-111240706D01*
X116368966Y-111378599D01*
X116648889Y-111463513D01*
X116867050Y-111485000D01*
X117012950Y-111485000D01*
X117231111Y-111463513D01*
X117511034Y-111378599D01*
X117769014Y-111240706D01*
X117995134Y-111055134D01*
X118180706Y-110829014D01*
X118210000Y-110774209D01*
X118239294Y-110829014D01*
X118424866Y-111055134D01*
X118650986Y-111240706D01*
X118908966Y-111378599D01*
X119188889Y-111463513D01*
X119407050Y-111485000D01*
X119552950Y-111485000D01*
X119771111Y-111463513D01*
X120051034Y-111378599D01*
X120309014Y-111240706D01*
X120535134Y-111055134D01*
X120720706Y-110829014D01*
X120750000Y-110774209D01*
X120779294Y-110829014D01*
X120964866Y-111055134D01*
X121190986Y-111240706D01*
X121448966Y-111378599D01*
X121728889Y-111463513D01*
X121947050Y-111485000D01*
X122092950Y-111485000D01*
X122311111Y-111463513D01*
X122591034Y-111378599D01*
X122849014Y-111240706D01*
X123075134Y-111055134D01*
X123260706Y-110829014D01*
X123290000Y-110774209D01*
X123319294Y-110829014D01*
X123504866Y-111055134D01*
X123730986Y-111240706D01*
X123988966Y-111378599D01*
X124268889Y-111463513D01*
X124487050Y-111485000D01*
X124632950Y-111485000D01*
X124851111Y-111463513D01*
X125131034Y-111378599D01*
X125389014Y-111240706D01*
X125615134Y-111055134D01*
X125800706Y-110829014D01*
X125830000Y-110774209D01*
X125859294Y-110829014D01*
X126044866Y-111055134D01*
X126270986Y-111240706D01*
X126528966Y-111378599D01*
X126808889Y-111463513D01*
X127027050Y-111485000D01*
X127172950Y-111485000D01*
X127391111Y-111463513D01*
X127671034Y-111378599D01*
X127929014Y-111240706D01*
X128155134Y-111055134D01*
X128340706Y-110829014D01*
X128375201Y-110764477D01*
X128444822Y-110881355D01*
X128639731Y-111097588D01*
X128873080Y-111271641D01*
X129135901Y-111396825D01*
X129283110Y-111441476D01*
X129513000Y-111320155D01*
X129513000Y-110127000D01*
X129493000Y-110127000D01*
X129493000Y-109873000D01*
X129513000Y-109873000D01*
X129513000Y-108679845D01*
X129283110Y-108558524D01*
X129135901Y-108603175D01*
X128873080Y-108728359D01*
X128639731Y-108902412D01*
X128444822Y-109118645D01*
X128375201Y-109235523D01*
X128340706Y-109170986D01*
X128155134Y-108944866D01*
X127929014Y-108759294D01*
X127671034Y-108621401D01*
X127391111Y-108536487D01*
X127172950Y-108515000D01*
X127027050Y-108515000D01*
X126808889Y-108536487D01*
X126528966Y-108621401D01*
X126270986Y-108759294D01*
X126044866Y-108944866D01*
X125859294Y-109170986D01*
X125830000Y-109225791D01*
X125800706Y-109170986D01*
X125615134Y-108944866D01*
X125389014Y-108759294D01*
X125131034Y-108621401D01*
X124851111Y-108536487D01*
X124632950Y-108515000D01*
X124487050Y-108515000D01*
X124268889Y-108536487D01*
X123988966Y-108621401D01*
X123730986Y-108759294D01*
X123504866Y-108944866D01*
X123319294Y-109170986D01*
X123290000Y-109225791D01*
X123260706Y-109170986D01*
X123075134Y-108944866D01*
X122849014Y-108759294D01*
X122591034Y-108621401D01*
X122311111Y-108536487D01*
X122092950Y-108515000D01*
X121947050Y-108515000D01*
X121728889Y-108536487D01*
X121448966Y-108621401D01*
X121190986Y-108759294D01*
X120964866Y-108944866D01*
X120779294Y-109170986D01*
X120750000Y-109225791D01*
X120720706Y-109170986D01*
X120535134Y-108944866D01*
X120309014Y-108759294D01*
X120051034Y-108621401D01*
X119771111Y-108536487D01*
X119552950Y-108515000D01*
X119407050Y-108515000D01*
X119188889Y-108536487D01*
X118908966Y-108621401D01*
X118650986Y-108759294D01*
X118424866Y-108944866D01*
X118239294Y-109170986D01*
X118210000Y-109225791D01*
X118180706Y-109170986D01*
X117995134Y-108944866D01*
X117769014Y-108759294D01*
X117511034Y-108621401D01*
X117231111Y-108536487D01*
X117012950Y-108515000D01*
X116867050Y-108515000D01*
X116648889Y-108536487D01*
X116368966Y-108621401D01*
X116110986Y-108759294D01*
X115884866Y-108944866D01*
X115699294Y-109170986D01*
X115670000Y-109225791D01*
X115640706Y-109170986D01*
X115455134Y-108944866D01*
X115229014Y-108759294D01*
X114971034Y-108621401D01*
X114691111Y-108536487D01*
X114472950Y-108515000D01*
X114327050Y-108515000D01*
X114108889Y-108536487D01*
X113828966Y-108621401D01*
X113570986Y-108759294D01*
X113344866Y-108944866D01*
X113159294Y-109170986D01*
X113130000Y-109225791D01*
X113100706Y-109170986D01*
X112915134Y-108944866D01*
X112689014Y-108759294D01*
X112431034Y-108621401D01*
X112151111Y-108536487D01*
X111932950Y-108515000D01*
X111787050Y-108515000D01*
X111568889Y-108536487D01*
X111288966Y-108621401D01*
X111030986Y-108759294D01*
X110804866Y-108944866D01*
X110619294Y-109170986D01*
X110590000Y-109225791D01*
X110560706Y-109170986D01*
X110375134Y-108944866D01*
X110149014Y-108759294D01*
X109891034Y-108621401D01*
X109611111Y-108536487D01*
X109392950Y-108515000D01*
X109247050Y-108515000D01*
X109028889Y-108536487D01*
X108748966Y-108621401D01*
X108490986Y-108759294D01*
X108264866Y-108944866D01*
X108079294Y-109170986D01*
X108050000Y-109225791D01*
X108020706Y-109170986D01*
X107835134Y-108944866D01*
X107609014Y-108759294D01*
X107351034Y-108621401D01*
X107071111Y-108536487D01*
X106852950Y-108515000D01*
X106707050Y-108515000D01*
X106488889Y-108536487D01*
X106208966Y-108621401D01*
X105950986Y-108759294D01*
X105724866Y-108944866D01*
X105539294Y-109170986D01*
X105510000Y-109225791D01*
X105480706Y-109170986D01*
X105295134Y-108944866D01*
X105069014Y-108759294D01*
X104811034Y-108621401D01*
X104531111Y-108536487D01*
X104312950Y-108515000D01*
X104167050Y-108515000D01*
X103948889Y-108536487D01*
X103668966Y-108621401D01*
X103410986Y-108759294D01*
X103184866Y-108944866D01*
X102999294Y-109170986D01*
X102970000Y-109225791D01*
X102940706Y-109170986D01*
X102755134Y-108944866D01*
X102529014Y-108759294D01*
X102271034Y-108621401D01*
X101991111Y-108536487D01*
X101772950Y-108515000D01*
X101627050Y-108515000D01*
X101408889Y-108536487D01*
X101128966Y-108621401D01*
X100870986Y-108759294D01*
X100644866Y-108944866D01*
X100459294Y-109170986D01*
X100430000Y-109225791D01*
X100400706Y-109170986D01*
X100215134Y-108944866D01*
X100045000Y-108805241D01*
X100045000Y-106632702D01*
X128866903Y-106632702D01*
X128938486Y-106876671D01*
X129193996Y-106997571D01*
X129468184Y-107066300D01*
X129750512Y-107080217D01*
X130030130Y-107038787D01*
X130296292Y-106943603D01*
X130421514Y-106876671D01*
X130493097Y-106632702D01*
X129680000Y-105819605D01*
X128866903Y-106632702D01*
X100045000Y-106632702D01*
X100045000Y-106006578D01*
X100341066Y-105710512D01*
X128239783Y-105710512D01*
X128281213Y-105990130D01*
X128376397Y-106256292D01*
X128443329Y-106381514D01*
X128687298Y-106453097D01*
X129500395Y-105640000D01*
X129859605Y-105640000D01*
X130672702Y-106453097D01*
X130916671Y-106381514D01*
X130930324Y-106352659D01*
X131065363Y-106554759D01*
X131265241Y-106754637D01*
X131500273Y-106911680D01*
X131761426Y-107019853D01*
X132038665Y-107075000D01*
X132321335Y-107075000D01*
X132598574Y-107019853D01*
X132859727Y-106911680D01*
X133094759Y-106754637D01*
X133294637Y-106554759D01*
X133451680Y-106319727D01*
X133559853Y-106058574D01*
X133615000Y-105781335D01*
X133615000Y-105498665D01*
X133559853Y-105221426D01*
X133451680Y-104960273D01*
X133294637Y-104725241D01*
X133094759Y-104525363D01*
X132859727Y-104368320D01*
X132598574Y-104260147D01*
X132321335Y-104205000D01*
X132038665Y-104205000D01*
X131761426Y-104260147D01*
X131500273Y-104368320D01*
X131265241Y-104525363D01*
X131065363Y-104725241D01*
X130931308Y-104925869D01*
X130916671Y-104898486D01*
X130672702Y-104826903D01*
X129859605Y-105640000D01*
X129500395Y-105640000D01*
X128687298Y-104826903D01*
X128443329Y-104898486D01*
X128322429Y-105153996D01*
X128253700Y-105428184D01*
X128239783Y-105710512D01*
X100341066Y-105710512D01*
X100796579Y-105255000D01*
X101161546Y-105255000D01*
X101209744Y-105287205D01*
X101398102Y-105365226D01*
X101598061Y-105405000D01*
X101801939Y-105405000D01*
X102001898Y-105365226D01*
X102190256Y-105287205D01*
X102359774Y-105173937D01*
X102503937Y-105029774D01*
X102617205Y-104860256D01*
X102695226Y-104671898D01*
X102700119Y-104647298D01*
X128866903Y-104647298D01*
X129680000Y-105460395D01*
X130493097Y-104647298D01*
X130421514Y-104403329D01*
X130166004Y-104282429D01*
X129891816Y-104213700D01*
X129609488Y-104199783D01*
X129329870Y-104241213D01*
X129063708Y-104336397D01*
X128938486Y-104403329D01*
X128866903Y-104647298D01*
X102700119Y-104647298D01*
X102735000Y-104471939D01*
X102735000Y-104268061D01*
X102695226Y-104068102D01*
X102660804Y-103985000D01*
X103701546Y-103985000D01*
X103749744Y-104017205D01*
X103938102Y-104095226D01*
X104138061Y-104135000D01*
X104341939Y-104135000D01*
X104541898Y-104095226D01*
X104730256Y-104017205D01*
X104899774Y-103903937D01*
X105043937Y-103759774D01*
X105157205Y-103590256D01*
X105235226Y-103401898D01*
X105275000Y-103201939D01*
X105275000Y-102998061D01*
X105235226Y-102798102D01*
X105200804Y-102715000D01*
X106241546Y-102715000D01*
X106289744Y-102747205D01*
X106478102Y-102825226D01*
X106678061Y-102865000D01*
X106881939Y-102865000D01*
X107081898Y-102825226D01*
X107270256Y-102747205D01*
X107439774Y-102633937D01*
X107583937Y-102489774D01*
X107694927Y-102323665D01*
X130745000Y-102323665D01*
X130745000Y-102606335D01*
X130800147Y-102883574D01*
X130908320Y-103144727D01*
X131065363Y-103379759D01*
X131265241Y-103579637D01*
X131500273Y-103736680D01*
X131761426Y-103844853D01*
X132038665Y-103900000D01*
X132321335Y-103900000D01*
X132598574Y-103844853D01*
X132859727Y-103736680D01*
X133094759Y-103579637D01*
X133294637Y-103379759D01*
X133451680Y-103144727D01*
X133559853Y-102883574D01*
X133615000Y-102606335D01*
X133615000Y-102323665D01*
X133559853Y-102046426D01*
X133451680Y-101785273D01*
X133294637Y-101550241D01*
X133094759Y-101350363D01*
X132859727Y-101193320D01*
X132598574Y-101085147D01*
X132321335Y-101030000D01*
X132038665Y-101030000D01*
X131761426Y-101085147D01*
X131500273Y-101193320D01*
X131265241Y-101350363D01*
X131065363Y-101550241D01*
X130908320Y-101785273D01*
X130800147Y-102046426D01*
X130745000Y-102323665D01*
X107694927Y-102323665D01*
X107697205Y-102320256D01*
X107775226Y-102131898D01*
X107815000Y-101931939D01*
X107815000Y-101728061D01*
X107775226Y-101528102D01*
X107740804Y-101445000D01*
X108781546Y-101445000D01*
X108829744Y-101477205D01*
X109018102Y-101555226D01*
X109218061Y-101595000D01*
X109421939Y-101595000D01*
X109621898Y-101555226D01*
X109810256Y-101477205D01*
X109979774Y-101363937D01*
X110123937Y-101219774D01*
X110237205Y-101050256D01*
X110315226Y-100861898D01*
X110355000Y-100661939D01*
X110355000Y-100458061D01*
X110315226Y-100258102D01*
X110280804Y-100175000D01*
X111321546Y-100175000D01*
X111369744Y-100207205D01*
X111558102Y-100285226D01*
X111758061Y-100325000D01*
X111961939Y-100325000D01*
X112161898Y-100285226D01*
X112350256Y-100207205D01*
X112519774Y-100093937D01*
X112663937Y-99949774D01*
X112777205Y-99780256D01*
X112855226Y-99591898D01*
X112895000Y-99391939D01*
X112895000Y-99188061D01*
X112855226Y-98988102D01*
X112777205Y-98799744D01*
X112663937Y-98630226D01*
X112519774Y-98486063D01*
X112468564Y-98451845D01*
X112661101Y-98348932D01*
X112879608Y-98169608D01*
X113058932Y-97951101D01*
X113130000Y-97818142D01*
X113201068Y-97951101D01*
X113380393Y-98169608D01*
X113598900Y-98348932D01*
X113848193Y-98482182D01*
X114118692Y-98564236D01*
X114400000Y-98591943D01*
X114681309Y-98564236D01*
X114951808Y-98482182D01*
X115201101Y-98348932D01*
X115419608Y-98169608D01*
X115598932Y-97951101D01*
X115670000Y-97818142D01*
X115741068Y-97951101D01*
X115920393Y-98169608D01*
X116138900Y-98348932D01*
X116388193Y-98482182D01*
X116658692Y-98564236D01*
X116940000Y-98591943D01*
X117221309Y-98564236D01*
X117491808Y-98482182D01*
X117741101Y-98348932D01*
X117959608Y-98169608D01*
X118138932Y-97951101D01*
X118210000Y-97818142D01*
X118281068Y-97951101D01*
X118460393Y-98169608D01*
X118678900Y-98348932D01*
X118928193Y-98482182D01*
X119198692Y-98564236D01*
X119480000Y-98591943D01*
X119761309Y-98564236D01*
X120031808Y-98482182D01*
X120281101Y-98348932D01*
X120499608Y-98169608D01*
X120678932Y-97951101D01*
X120750000Y-97818142D01*
X120821068Y-97951101D01*
X121000393Y-98169608D01*
X121218900Y-98348932D01*
X121468193Y-98482182D01*
X121738692Y-98564236D01*
X122020000Y-98591943D01*
X122301309Y-98564236D01*
X122571808Y-98482182D01*
X122821101Y-98348932D01*
X123039608Y-98169608D01*
X123218932Y-97951101D01*
X123290000Y-97818142D01*
X123361068Y-97951101D01*
X123540393Y-98169608D01*
X123758900Y-98348932D01*
X124008193Y-98482182D01*
X124278692Y-98564236D01*
X124560000Y-98591943D01*
X124841309Y-98564236D01*
X125111808Y-98482182D01*
X125361101Y-98348932D01*
X125579608Y-98169608D01*
X125758932Y-97951101D01*
X125830000Y-97818142D01*
X125901068Y-97951101D01*
X126080393Y-98169608D01*
X126298900Y-98348932D01*
X126548193Y-98482182D01*
X126818692Y-98564236D01*
X127100000Y-98591943D01*
X127381309Y-98564236D01*
X127651808Y-98482182D01*
X127901101Y-98348932D01*
X128119608Y-98169608D01*
X128298932Y-97951101D01*
X128370000Y-97818142D01*
X128441068Y-97951101D01*
X128620393Y-98169608D01*
X128838900Y-98348932D01*
X129088193Y-98482182D01*
X129358692Y-98564236D01*
X129640000Y-98591943D01*
X129921309Y-98564236D01*
X130191808Y-98482182D01*
X130441101Y-98348932D01*
X130659608Y-98169608D01*
X130838932Y-97951101D01*
X130910000Y-97818142D01*
X130981068Y-97951101D01*
X131160393Y-98169608D01*
X131378900Y-98348932D01*
X131628193Y-98482182D01*
X131898692Y-98564236D01*
X132180000Y-98591943D01*
X132461309Y-98564236D01*
X132731808Y-98482182D01*
X132981101Y-98348932D01*
X133199608Y-98169608D01*
X133378932Y-97951101D01*
X133450000Y-97818142D01*
X133521068Y-97951101D01*
X133700393Y-98169608D01*
X133918900Y-98348932D01*
X134168193Y-98482182D01*
X134438692Y-98564236D01*
X134720000Y-98591943D01*
X135001309Y-98564236D01*
X135271808Y-98482182D01*
X135521101Y-98348932D01*
X135739608Y-98169608D01*
X135918932Y-97951101D01*
X135990000Y-97818142D01*
X136061068Y-97951101D01*
X136240393Y-98169608D01*
X136458900Y-98348932D01*
X136708193Y-98482182D01*
X136978692Y-98564236D01*
X137260000Y-98591943D01*
X137541309Y-98564236D01*
X137811808Y-98482182D01*
X138061101Y-98348932D01*
X138279608Y-98169608D01*
X138458932Y-97951101D01*
X138530000Y-97818142D01*
X138601068Y-97951101D01*
X138780393Y-98169608D01*
X138998900Y-98348932D01*
X139248193Y-98482182D01*
X139518692Y-98564236D01*
X139800000Y-98591943D01*
X140081309Y-98564236D01*
X140351808Y-98482182D01*
X140601101Y-98348932D01*
X140819608Y-98169608D01*
X140998932Y-97951101D01*
X141070000Y-97818142D01*
X141141068Y-97951101D01*
X141320393Y-98169608D01*
X141538900Y-98348932D01*
X141788193Y-98482182D01*
X142058692Y-98564236D01*
X142340000Y-98591943D01*
X142621309Y-98564236D01*
X142891808Y-98482182D01*
X143141101Y-98348932D01*
X143359608Y-98169608D01*
X143538932Y-97951101D01*
X143610000Y-97818142D01*
X143681068Y-97951101D01*
X143860393Y-98169608D01*
X144078900Y-98348932D01*
X144328193Y-98482182D01*
X144598692Y-98564236D01*
X144880000Y-98591943D01*
X145161309Y-98564236D01*
X145431808Y-98482182D01*
X145681101Y-98348932D01*
X145899608Y-98169608D01*
X146078932Y-97951101D01*
X146150000Y-97818142D01*
X146221068Y-97951101D01*
X146400393Y-98169608D01*
X146618900Y-98348932D01*
X146868193Y-98482182D01*
X147138692Y-98564236D01*
X147420000Y-98591943D01*
X147701309Y-98564236D01*
X147971808Y-98482182D01*
X148221101Y-98348932D01*
X148439608Y-98169608D01*
X148618932Y-97951101D01*
X148690000Y-97818142D01*
X148761068Y-97951101D01*
X148940393Y-98169608D01*
X149158900Y-98348932D01*
X149408193Y-98482182D01*
X149678692Y-98564236D01*
X149960000Y-98591943D01*
X150241309Y-98564236D01*
X150511808Y-98482182D01*
X150761101Y-98348932D01*
X150979608Y-98169608D01*
X151158932Y-97951101D01*
X151292182Y-97701808D01*
X151374236Y-97431309D01*
X151395000Y-97220491D01*
X151395000Y-96279508D01*
X151374236Y-96068691D01*
X151292182Y-95798192D01*
X151158932Y-95548899D01*
X150979607Y-95330392D01*
X150761100Y-95151068D01*
X150656204Y-95095000D01*
X152133422Y-95095000D01*
X154155000Y-97116579D01*
X154155001Y-108805240D01*
X153984866Y-108944866D01*
X153799294Y-109170986D01*
X153770000Y-109225791D01*
X153740706Y-109170986D01*
X153555134Y-108944866D01*
X153329014Y-108759294D01*
X153071034Y-108621401D01*
X152791111Y-108536487D01*
X152572950Y-108515000D01*
X152427050Y-108515000D01*
X152208889Y-108536487D01*
X151928966Y-108621401D01*
X151670986Y-108759294D01*
X151444866Y-108944866D01*
X151259294Y-109170986D01*
X151230000Y-109225791D01*
X151200706Y-109170986D01*
X151015134Y-108944866D01*
X150845000Y-108805241D01*
X150845000Y-107276578D01*
X151825049Y-106296530D01*
X151858817Y-106268817D01*
X151969411Y-106134059D01*
X152051589Y-105980313D01*
X152102195Y-105813490D01*
X152115000Y-105683477D01*
X152115000Y-105683467D01*
X152119281Y-105640001D01*
X152115000Y-105596535D01*
X152115000Y-103638454D01*
X152147205Y-103590256D01*
X152225226Y-103401898D01*
X152265000Y-103201939D01*
X152265000Y-102998061D01*
X152231961Y-102831961D01*
X152398061Y-102865000D01*
X152601939Y-102865000D01*
X152801898Y-102825226D01*
X152990256Y-102747205D01*
X153159774Y-102633937D01*
X153303937Y-102489774D01*
X153417205Y-102320256D01*
X153495226Y-102131898D01*
X153535000Y-101931939D01*
X153535000Y-101728061D01*
X153495226Y-101528102D01*
X153417205Y-101339744D01*
X153303937Y-101170226D01*
X153159774Y-101026063D01*
X152990256Y-100912795D01*
X152801898Y-100834774D01*
X152745044Y-100823465D01*
X151886534Y-99964956D01*
X151858817Y-99931183D01*
X151724059Y-99820589D01*
X151570313Y-99738411D01*
X151403490Y-99687805D01*
X151273477Y-99675000D01*
X151273469Y-99675000D01*
X151230000Y-99670719D01*
X151186531Y-99675000D01*
X137798454Y-99675000D01*
X137750256Y-99642795D01*
X137561898Y-99564774D01*
X137361939Y-99525000D01*
X137158061Y-99525000D01*
X136958102Y-99564774D01*
X136769744Y-99642795D01*
X136600226Y-99756063D01*
X136456063Y-99900226D01*
X136342795Y-100069744D01*
X136264774Y-100258102D01*
X136225000Y-100458061D01*
X136225000Y-100661939D01*
X136264774Y-100861898D01*
X136342795Y-101050256D01*
X136456063Y-101219774D01*
X136600226Y-101363937D01*
X136769744Y-101477205D01*
X136958102Y-101555226D01*
X137158061Y-101595000D01*
X137361939Y-101595000D01*
X137561898Y-101555226D01*
X137750256Y-101477205D01*
X137798454Y-101445000D01*
X141320870Y-101445000D01*
X141320392Y-101445392D01*
X141141068Y-101663899D01*
X141007818Y-101913192D01*
X140925764Y-102183691D01*
X140898057Y-102465000D01*
X140925764Y-102746309D01*
X141007818Y-103016808D01*
X141141068Y-103266101D01*
X141320392Y-103484608D01*
X141538899Y-103663932D01*
X141788192Y-103797182D01*
X142058691Y-103879236D01*
X142269508Y-103900000D01*
X142410492Y-103900000D01*
X142621309Y-103879236D01*
X142891808Y-103797182D01*
X143141101Y-103663932D01*
X143359608Y-103484608D01*
X143538932Y-103266101D01*
X143672182Y-103016808D01*
X143754236Y-102746309D01*
X143781943Y-102465000D01*
X143754236Y-102183691D01*
X143672182Y-101913192D01*
X143538932Y-101663899D01*
X143359608Y-101445392D01*
X143359130Y-101445000D01*
X150863422Y-101445000D01*
X151493465Y-102075044D01*
X151498039Y-102098039D01*
X151331939Y-102065000D01*
X151128061Y-102065000D01*
X150928102Y-102104774D01*
X150739744Y-102182795D01*
X150570226Y-102296063D01*
X150426063Y-102440226D01*
X150312795Y-102609744D01*
X150234774Y-102798102D01*
X150195000Y-102998061D01*
X150195000Y-103201939D01*
X150234774Y-103401898D01*
X150312795Y-103590256D01*
X150345000Y-103638455D01*
X150345001Y-105273420D01*
X149364956Y-106253466D01*
X149331183Y-106281183D01*
X149220589Y-106415942D01*
X149138411Y-106569688D01*
X149087805Y-106736511D01*
X149075000Y-106866524D01*
X149075000Y-106866531D01*
X149070719Y-106910000D01*
X149075000Y-106953469D01*
X149075001Y-108805240D01*
X148904866Y-108944866D01*
X148719294Y-109170986D01*
X148690000Y-109225791D01*
X148660706Y-109170986D01*
X148475134Y-108944866D01*
X148249014Y-108759294D01*
X147991034Y-108621401D01*
X147711111Y-108536487D01*
X147492950Y-108515000D01*
X147347050Y-108515000D01*
X147128889Y-108536487D01*
X146848966Y-108621401D01*
X146590986Y-108759294D01*
X146364866Y-108944866D01*
X146179294Y-109170986D01*
X146150000Y-109225791D01*
X146120706Y-109170986D01*
X145935134Y-108944866D01*
X145709014Y-108759294D01*
X145451034Y-108621401D01*
X145171111Y-108536487D01*
X144952950Y-108515000D01*
X144807050Y-108515000D01*
X144588889Y-108536487D01*
X144308966Y-108621401D01*
X144050986Y-108759294D01*
X143824866Y-108944866D01*
X143639294Y-109170986D01*
X143610000Y-109225791D01*
X143580706Y-109170986D01*
X143395134Y-108944866D01*
X143169014Y-108759294D01*
X142911034Y-108621401D01*
X142631111Y-108536487D01*
X142412950Y-108515000D01*
X142267050Y-108515000D01*
X142048889Y-108536487D01*
X141768966Y-108621401D01*
X141510986Y-108759294D01*
X141284866Y-108944866D01*
X141099294Y-109170986D01*
X141070000Y-109225791D01*
X141040706Y-109170986D01*
X140855134Y-108944866D01*
X140629014Y-108759294D01*
X140371034Y-108621401D01*
X140091111Y-108536487D01*
X139872950Y-108515000D01*
X139727050Y-108515000D01*
X139508889Y-108536487D01*
X139228966Y-108621401D01*
X138970986Y-108759294D01*
X138744866Y-108944866D01*
X138559294Y-109170986D01*
X138530000Y-109225791D01*
X138500706Y-109170986D01*
X138315134Y-108944866D01*
X138089014Y-108759294D01*
X137831034Y-108621401D01*
X137551111Y-108536487D01*
X137332950Y-108515000D01*
X137187050Y-108515000D01*
X136968889Y-108536487D01*
X136688966Y-108621401D01*
X136430986Y-108759294D01*
X136204866Y-108944866D01*
X136019294Y-109170986D01*
X135990000Y-109225791D01*
X135960706Y-109170986D01*
X135775134Y-108944866D01*
X135549014Y-108759294D01*
X135291034Y-108621401D01*
X135011111Y-108536487D01*
X134792950Y-108515000D01*
X134647050Y-108515000D01*
X134428889Y-108536487D01*
X134148966Y-108621401D01*
X133890986Y-108759294D01*
X133664866Y-108944866D01*
X133479294Y-109170986D01*
X133450000Y-109225791D01*
X133420706Y-109170986D01*
X133235134Y-108944866D01*
X133009014Y-108759294D01*
X132751034Y-108621401D01*
X132471111Y-108536487D01*
X132252950Y-108515000D01*
X132107050Y-108515000D01*
X131888889Y-108536487D01*
X131608966Y-108621401D01*
X131350986Y-108759294D01*
X131124866Y-108944866D01*
X130939294Y-109170986D01*
X130904799Y-109235523D01*
X130835178Y-109118645D01*
X130640269Y-108902412D01*
X130406920Y-108728359D01*
X130144099Y-108603175D01*
X129996890Y-108558524D01*
X129767000Y-108679845D01*
X129767000Y-109873000D01*
X129787000Y-109873000D01*
X129787000Y-110127000D01*
X129767000Y-110127000D01*
X129767000Y-111320155D01*
X129996890Y-111441476D01*
X130144099Y-111396825D01*
X130406920Y-111271641D01*
X130640269Y-111097588D01*
X130835178Y-110881355D01*
X130904799Y-110764477D01*
X130939294Y-110829014D01*
X131124866Y-111055134D01*
X131350986Y-111240706D01*
X131608966Y-111378599D01*
X131888889Y-111463513D01*
X132107050Y-111485000D01*
X132252950Y-111485000D01*
X132471111Y-111463513D01*
X132751034Y-111378599D01*
X133009014Y-111240706D01*
X133235134Y-111055134D01*
X133420706Y-110829014D01*
X133450000Y-110774209D01*
X133479294Y-110829014D01*
X133664866Y-111055134D01*
X133890986Y-111240706D01*
X134148966Y-111378599D01*
X134428889Y-111463513D01*
X134647050Y-111485000D01*
X134792950Y-111485000D01*
X135011111Y-111463513D01*
X135291034Y-111378599D01*
X135549014Y-111240706D01*
X135775134Y-111055134D01*
X135960706Y-110829014D01*
X135990000Y-110774209D01*
X136019294Y-110829014D01*
X136204866Y-111055134D01*
X136430986Y-111240706D01*
X136688966Y-111378599D01*
X136968889Y-111463513D01*
X137187050Y-111485000D01*
X137332950Y-111485000D01*
X137551111Y-111463513D01*
X137831034Y-111378599D01*
X138089014Y-111240706D01*
X138315134Y-111055134D01*
X138500706Y-110829014D01*
X138530000Y-110774209D01*
X138559294Y-110829014D01*
X138744866Y-111055134D01*
X138970986Y-111240706D01*
X139228966Y-111378599D01*
X139508889Y-111463513D01*
X139727050Y-111485000D01*
X139872950Y-111485000D01*
X140091111Y-111463513D01*
X140371034Y-111378599D01*
X140629014Y-111240706D01*
X140855134Y-111055134D01*
X141040706Y-110829014D01*
X141070000Y-110774209D01*
X141099294Y-110829014D01*
X141284866Y-111055134D01*
X141510986Y-111240706D01*
X141768966Y-111378599D01*
X142048889Y-111463513D01*
X142267050Y-111485000D01*
X142412950Y-111485000D01*
X142631111Y-111463513D01*
X142911034Y-111378599D01*
X143169014Y-111240706D01*
X143395134Y-111055134D01*
X143580706Y-110829014D01*
X143610000Y-110774209D01*
X143639294Y-110829014D01*
X143824866Y-111055134D01*
X144050986Y-111240706D01*
X144308966Y-111378599D01*
X144588889Y-111463513D01*
X144807050Y-111485000D01*
X144952950Y-111485000D01*
X145171111Y-111463513D01*
X145451034Y-111378599D01*
X145709014Y-111240706D01*
X145935134Y-111055134D01*
X146120706Y-110829014D01*
X146150000Y-110774209D01*
X146179294Y-110829014D01*
X146364866Y-111055134D01*
X146590986Y-111240706D01*
X146848966Y-111378599D01*
X147128889Y-111463513D01*
X147347050Y-111485000D01*
X147492950Y-111485000D01*
X147711111Y-111463513D01*
X147991034Y-111378599D01*
X148249014Y-111240706D01*
X148475134Y-111055134D01*
X148660706Y-110829014D01*
X148690000Y-110774209D01*
X148719294Y-110829014D01*
X148904866Y-111055134D01*
X149130986Y-111240706D01*
X149388966Y-111378599D01*
X149668889Y-111463513D01*
X149887050Y-111485000D01*
X150032950Y-111485000D01*
X150251111Y-111463513D01*
X150531034Y-111378599D01*
X150789014Y-111240706D01*
X151015134Y-111055134D01*
X151200706Y-110829014D01*
X151230000Y-110774209D01*
X151259294Y-110829014D01*
X151444866Y-111055134D01*
X151670986Y-111240706D01*
X151928966Y-111378599D01*
X152208889Y-111463513D01*
X152427050Y-111485000D01*
X152572950Y-111485000D01*
X152791111Y-111463513D01*
X153071034Y-111378599D01*
X153329014Y-111240706D01*
X153555134Y-111055134D01*
X153740706Y-110829014D01*
X153770000Y-110774209D01*
X153799294Y-110829014D01*
X153984866Y-111055134D01*
X154210986Y-111240706D01*
X154468966Y-111378599D01*
X154748889Y-111463513D01*
X154967050Y-111485000D01*
X155112950Y-111485000D01*
X155331111Y-111463513D01*
X155611034Y-111378599D01*
X155869014Y-111240706D01*
X156095134Y-111055134D01*
X156280706Y-110829014D01*
X156310000Y-110774209D01*
X156339294Y-110829014D01*
X156524866Y-111055134D01*
X156750986Y-111240706D01*
X157008966Y-111378599D01*
X157288889Y-111463513D01*
X157507050Y-111485000D01*
X157652950Y-111485000D01*
X157871111Y-111463513D01*
X158151034Y-111378599D01*
X158409014Y-111240706D01*
X158635134Y-111055134D01*
X158820706Y-110829014D01*
X158850000Y-110774209D01*
X158879294Y-110829014D01*
X159064866Y-111055134D01*
X159290986Y-111240706D01*
X159548966Y-111378599D01*
X159828889Y-111463513D01*
X160047050Y-111485000D01*
X160192950Y-111485000D01*
X160411111Y-111463513D01*
X160691034Y-111378599D01*
X160949014Y-111240706D01*
X161175134Y-111055134D01*
X161360706Y-110829014D01*
X161390000Y-110774209D01*
X161419294Y-110829014D01*
X161604866Y-111055134D01*
X161830986Y-111240706D01*
X162088966Y-111378599D01*
X162368889Y-111463513D01*
X162587050Y-111485000D01*
X162732950Y-111485000D01*
X162951111Y-111463513D01*
X163231034Y-111378599D01*
X163489014Y-111240706D01*
X163715134Y-111055134D01*
X163900706Y-110829014D01*
X163930000Y-110774209D01*
X163959294Y-110829014D01*
X164144866Y-111055134D01*
X164370986Y-111240706D01*
X164628966Y-111378599D01*
X164908889Y-111463513D01*
X165127050Y-111485000D01*
X165272950Y-111485000D01*
X165491111Y-111463513D01*
X165771034Y-111378599D01*
X166029014Y-111240706D01*
X166255134Y-111055134D01*
X166440706Y-110829014D01*
X166470000Y-110774209D01*
X166499294Y-110829014D01*
X166684866Y-111055134D01*
X166910986Y-111240706D01*
X167168966Y-111378599D01*
X167448889Y-111463513D01*
X167667050Y-111485000D01*
X167812950Y-111485000D01*
X168031111Y-111463513D01*
X168311034Y-111378599D01*
X168569014Y-111240706D01*
X168795134Y-111055134D01*
X168980706Y-110829014D01*
X169010000Y-110774209D01*
X169039294Y-110829014D01*
X169224866Y-111055134D01*
X169450986Y-111240706D01*
X169708966Y-111378599D01*
X169988889Y-111463513D01*
X170207050Y-111485000D01*
X170352950Y-111485000D01*
X170571111Y-111463513D01*
X170851034Y-111378599D01*
X171109014Y-111240706D01*
X171335134Y-111055134D01*
X171520706Y-110829014D01*
X171550000Y-110774209D01*
X171579294Y-110829014D01*
X171764866Y-111055134D01*
X171990986Y-111240706D01*
X172248966Y-111378599D01*
X172528889Y-111463513D01*
X172747050Y-111485000D01*
X172892950Y-111485000D01*
X173111111Y-111463513D01*
X173391034Y-111378599D01*
X173649014Y-111240706D01*
X173875134Y-111055134D01*
X174060706Y-110829014D01*
X174090000Y-110774209D01*
X174119294Y-110829014D01*
X174304866Y-111055134D01*
X174530986Y-111240706D01*
X174788966Y-111378599D01*
X175068889Y-111463513D01*
X175287050Y-111485000D01*
X175432950Y-111485000D01*
X175651111Y-111463513D01*
X175931034Y-111378599D01*
X176189014Y-111240706D01*
X176415134Y-111055134D01*
X176600706Y-110829014D01*
X176630000Y-110774209D01*
X176659294Y-110829014D01*
X176844866Y-111055134D01*
X177070986Y-111240706D01*
X177328966Y-111378599D01*
X177608889Y-111463513D01*
X177827050Y-111485000D01*
X177972950Y-111485000D01*
X178191111Y-111463513D01*
X178471034Y-111378599D01*
X178729014Y-111240706D01*
X178955134Y-111055134D01*
X179140706Y-110829014D01*
X179170000Y-110774209D01*
X179199294Y-110829014D01*
X179384866Y-111055134D01*
X179610986Y-111240706D01*
X179868966Y-111378599D01*
X180148889Y-111463513D01*
X180367050Y-111485000D01*
X180512950Y-111485000D01*
X180731111Y-111463513D01*
X181011034Y-111378599D01*
X181269014Y-111240706D01*
X181495134Y-111055134D01*
X181680706Y-110829014D01*
X181710000Y-110774209D01*
X181739294Y-110829014D01*
X181924866Y-111055134D01*
X182150986Y-111240706D01*
X182408966Y-111378599D01*
X182688889Y-111463513D01*
X182907050Y-111485000D01*
X183052950Y-111485000D01*
X183271111Y-111463513D01*
X183551034Y-111378599D01*
X183809014Y-111240706D01*
X184035134Y-111055134D01*
X184220706Y-110829014D01*
X184250000Y-110774209D01*
X184279294Y-110829014D01*
X184464866Y-111055134D01*
X184690986Y-111240706D01*
X184948966Y-111378599D01*
X185228889Y-111463513D01*
X185447050Y-111485000D01*
X185592950Y-111485000D01*
X185811111Y-111463513D01*
X186091034Y-111378599D01*
X186349014Y-111240706D01*
X186575134Y-111055134D01*
X186760706Y-110829014D01*
X186790000Y-110774209D01*
X186819294Y-110829014D01*
X187004866Y-111055134D01*
X187230986Y-111240706D01*
X187488966Y-111378599D01*
X187768889Y-111463513D01*
X187987050Y-111485000D01*
X188132950Y-111485000D01*
X188351111Y-111463513D01*
X188631034Y-111378599D01*
X188889014Y-111240706D01*
X189115134Y-111055134D01*
X189300706Y-110829014D01*
X189438599Y-110571034D01*
X189523513Y-110291111D01*
X189552185Y-110000000D01*
X189523513Y-109708889D01*
X189438599Y-109428966D01*
X189300706Y-109170986D01*
X189115134Y-108944866D01*
X188889014Y-108759294D01*
X188631034Y-108621401D01*
X188351111Y-108536487D01*
X188132950Y-108515000D01*
X187987050Y-108515000D01*
X187768889Y-108536487D01*
X187488966Y-108621401D01*
X187230986Y-108759294D01*
X187004866Y-108944866D01*
X186819294Y-109170986D01*
X186790000Y-109225791D01*
X186760706Y-109170986D01*
X186575134Y-108944866D01*
X186349014Y-108759294D01*
X186091034Y-108621401D01*
X185811111Y-108536487D01*
X185592950Y-108515000D01*
X185447050Y-108515000D01*
X185228889Y-108536487D01*
X184948966Y-108621401D01*
X184690986Y-108759294D01*
X184464866Y-108944866D01*
X184279294Y-109170986D01*
X184250000Y-109225791D01*
X184220706Y-109170986D01*
X184035134Y-108944866D01*
X183809014Y-108759294D01*
X183551034Y-108621401D01*
X183271111Y-108536487D01*
X183052950Y-108515000D01*
X182907050Y-108515000D01*
X182688889Y-108536487D01*
X182408966Y-108621401D01*
X182150986Y-108759294D01*
X181924866Y-108944866D01*
X181739294Y-109170986D01*
X181710000Y-109225791D01*
X181680706Y-109170986D01*
X181495134Y-108944866D01*
X181269014Y-108759294D01*
X181011034Y-108621401D01*
X180731111Y-108536487D01*
X180512950Y-108515000D01*
X180367050Y-108515000D01*
X180148889Y-108536487D01*
X179868966Y-108621401D01*
X179610986Y-108759294D01*
X179384866Y-108944866D01*
X179199294Y-109170986D01*
X179170000Y-109225791D01*
X179140706Y-109170986D01*
X178955134Y-108944866D01*
X178729014Y-108759294D01*
X178471034Y-108621401D01*
X178191111Y-108536487D01*
X177972950Y-108515000D01*
X177827050Y-108515000D01*
X177608889Y-108536487D01*
X177328966Y-108621401D01*
X177070986Y-108759294D01*
X176844866Y-108944866D01*
X176659294Y-109170986D01*
X176630000Y-109225791D01*
X176600706Y-109170986D01*
X176415134Y-108944866D01*
X176189014Y-108759294D01*
X175931034Y-108621401D01*
X175651111Y-108536487D01*
X175432950Y-108515000D01*
X175287050Y-108515000D01*
X175068889Y-108536487D01*
X174788966Y-108621401D01*
X174530986Y-108759294D01*
X174304866Y-108944866D01*
X174119294Y-109170986D01*
X174090000Y-109225791D01*
X174060706Y-109170986D01*
X173875134Y-108944866D01*
X173649014Y-108759294D01*
X173391034Y-108621401D01*
X173111111Y-108536487D01*
X172892950Y-108515000D01*
X172747050Y-108515000D01*
X172528889Y-108536487D01*
X172248966Y-108621401D01*
X171990986Y-108759294D01*
X171764866Y-108944866D01*
X171579294Y-109170986D01*
X171550000Y-109225791D01*
X171520706Y-109170986D01*
X171335134Y-108944866D01*
X171165000Y-108805241D01*
X171165000Y-99333469D01*
X171169281Y-99290000D01*
X171165000Y-99246531D01*
X171165000Y-99246523D01*
X171152195Y-99116510D01*
X171113242Y-98988102D01*
X171101589Y-98949686D01*
X171019411Y-98795941D01*
X170936532Y-98694953D01*
X170936530Y-98694951D01*
X170908817Y-98661183D01*
X170875050Y-98633471D01*
X167476535Y-95234957D01*
X167465226Y-95178102D01*
X167387205Y-94989744D01*
X167273937Y-94820226D01*
X167129774Y-94676063D01*
X166960256Y-94562795D01*
X166771898Y-94484774D01*
X166571939Y-94445000D01*
X166368061Y-94445000D01*
X166168102Y-94484774D01*
X166085000Y-94519196D01*
X166085000Y-93473061D01*
X169880000Y-93473061D01*
X169880000Y-93676939D01*
X169919774Y-93876898D01*
X169997795Y-94065256D01*
X170111063Y-94234774D01*
X170255226Y-94378937D01*
X170424744Y-94492205D01*
X170613102Y-94570226D01*
X170669956Y-94581535D01*
X170893470Y-94805049D01*
X170921183Y-94838817D01*
X170954951Y-94866530D01*
X170954953Y-94866532D01*
X171055941Y-94949411D01*
X171209686Y-95031589D01*
X171355310Y-95075764D01*
X171376510Y-95082195D01*
X171506523Y-95095000D01*
X171506531Y-95095000D01*
X171550000Y-95099281D01*
X171593469Y-95095000D01*
X180374388Y-95095000D01*
X180379463Y-95104494D01*
X180458815Y-95201185D01*
X180555506Y-95280537D01*
X180665820Y-95339502D01*
X180785518Y-95375812D01*
X180803482Y-95377581D01*
X180690392Y-95470392D01*
X180511068Y-95688899D01*
X180377818Y-95938192D01*
X180295764Y-96208691D01*
X180268057Y-96490000D01*
X180295764Y-96771309D01*
X180377818Y-97041808D01*
X180511068Y-97291101D01*
X180690392Y-97509608D01*
X180908899Y-97688932D01*
X181041858Y-97760000D01*
X180908899Y-97831068D01*
X180690392Y-98010392D01*
X180511068Y-98228899D01*
X180377818Y-98478192D01*
X180295764Y-98748691D01*
X180268057Y-99030000D01*
X180295764Y-99311309D01*
X180377818Y-99581808D01*
X180511068Y-99831101D01*
X180690392Y-100049608D01*
X180908899Y-100228932D01*
X181041858Y-100300000D01*
X180908899Y-100371068D01*
X180690392Y-100550392D01*
X180511068Y-100768899D01*
X180377818Y-101018192D01*
X180295764Y-101288691D01*
X180268057Y-101570000D01*
X180295764Y-101851309D01*
X180377818Y-102121808D01*
X180511068Y-102371101D01*
X180690392Y-102589608D01*
X180908899Y-102768932D01*
X181158192Y-102902182D01*
X181428691Y-102984236D01*
X181639508Y-103005000D01*
X181780492Y-103005000D01*
X181991309Y-102984236D01*
X182261808Y-102902182D01*
X182511101Y-102768932D01*
X182729608Y-102589608D01*
X182908932Y-102371101D01*
X183042182Y-102121808D01*
X183124236Y-101851309D01*
X183151943Y-101570000D01*
X183124236Y-101288691D01*
X183042182Y-101018192D01*
X182908932Y-100768899D01*
X182729608Y-100550392D01*
X182511101Y-100371068D01*
X182378142Y-100300000D01*
X182511101Y-100228932D01*
X182729608Y-100049608D01*
X182908932Y-99831101D01*
X183042182Y-99581808D01*
X183124236Y-99311309D01*
X183151943Y-99030000D01*
X183124236Y-98748691D01*
X183042182Y-98478192D01*
X182908932Y-98228899D01*
X182729608Y-98010392D01*
X182511101Y-97831068D01*
X182378142Y-97760000D01*
X182511101Y-97688932D01*
X182729608Y-97509608D01*
X182908932Y-97291101D01*
X183042182Y-97041808D01*
X183124236Y-96771309D01*
X183151943Y-96490000D01*
X183124236Y-96208691D01*
X183042182Y-95938192D01*
X182908932Y-95688899D01*
X182729608Y-95470392D01*
X182616518Y-95377581D01*
X182634482Y-95375812D01*
X182754180Y-95339502D01*
X182864494Y-95280537D01*
X182961185Y-95201185D01*
X183040537Y-95104494D01*
X183099502Y-94994180D01*
X183135812Y-94874482D01*
X183148072Y-94750000D01*
X183148072Y-93950000D01*
X187888057Y-93950000D01*
X187915764Y-94231309D01*
X187997818Y-94501808D01*
X188131068Y-94751101D01*
X188310392Y-94969608D01*
X188528899Y-95148932D01*
X188661858Y-95220000D01*
X188528899Y-95291068D01*
X188310392Y-95470392D01*
X188131068Y-95688899D01*
X187997818Y-95938192D01*
X187915764Y-96208691D01*
X187888057Y-96490000D01*
X187915764Y-96771309D01*
X187997818Y-97041808D01*
X188131068Y-97291101D01*
X188310392Y-97509608D01*
X188528899Y-97688932D01*
X188661858Y-97760000D01*
X188528899Y-97831068D01*
X188310392Y-98010392D01*
X188131068Y-98228899D01*
X187997818Y-98478192D01*
X187915764Y-98748691D01*
X187888057Y-99030000D01*
X187915764Y-99311309D01*
X187997818Y-99581808D01*
X188131068Y-99831101D01*
X188310392Y-100049608D01*
X188528899Y-100228932D01*
X188661858Y-100300000D01*
X188528899Y-100371068D01*
X188310392Y-100550392D01*
X188131068Y-100768899D01*
X187997818Y-101018192D01*
X187915764Y-101288691D01*
X187888057Y-101570000D01*
X187915764Y-101851309D01*
X187997818Y-102121808D01*
X188131068Y-102371101D01*
X188310392Y-102589608D01*
X188528899Y-102768932D01*
X188778192Y-102902182D01*
X189048691Y-102984236D01*
X189259508Y-103005000D01*
X189400492Y-103005000D01*
X189611309Y-102984236D01*
X189881808Y-102902182D01*
X190131101Y-102768932D01*
X190349608Y-102589608D01*
X190528932Y-102371101D01*
X190662182Y-102121808D01*
X190744236Y-101851309D01*
X190771943Y-101570000D01*
X190744236Y-101288691D01*
X190662182Y-101018192D01*
X190528932Y-100768899D01*
X190349608Y-100550392D01*
X190131101Y-100371068D01*
X189998142Y-100300000D01*
X190131101Y-100228932D01*
X190349608Y-100049608D01*
X190528932Y-99831101D01*
X190662182Y-99581808D01*
X190744236Y-99311309D01*
X190771943Y-99030000D01*
X190744236Y-98748691D01*
X190662182Y-98478192D01*
X190528932Y-98228899D01*
X190349608Y-98010392D01*
X190131101Y-97831068D01*
X189998142Y-97760000D01*
X190131101Y-97688932D01*
X190349608Y-97509608D01*
X190528932Y-97291101D01*
X190662182Y-97041808D01*
X190744236Y-96771309D01*
X190771943Y-96490000D01*
X190744236Y-96208691D01*
X190662182Y-95938192D01*
X190528932Y-95688899D01*
X190349608Y-95470392D01*
X190131101Y-95291068D01*
X189998142Y-95220000D01*
X190131101Y-95148932D01*
X190349608Y-94969608D01*
X190528932Y-94751101D01*
X190662182Y-94501808D01*
X190744236Y-94231309D01*
X190771943Y-93950000D01*
X190744236Y-93668691D01*
X190662182Y-93398192D01*
X190528932Y-93148899D01*
X190349608Y-92930392D01*
X190131101Y-92751068D01*
X189881808Y-92617818D01*
X189611309Y-92535764D01*
X189400492Y-92515000D01*
X189259508Y-92515000D01*
X189048691Y-92535764D01*
X188778192Y-92617818D01*
X188528899Y-92751068D01*
X188310392Y-92930392D01*
X188131068Y-93148899D01*
X187997818Y-93398192D01*
X187915764Y-93668691D01*
X187888057Y-93950000D01*
X183148072Y-93950000D01*
X183148072Y-93150000D01*
X183135812Y-93025518D01*
X183099502Y-92905820D01*
X183040537Y-92795506D01*
X182961185Y-92698815D01*
X182864494Y-92619463D01*
X182754180Y-92560498D01*
X182634482Y-92524188D01*
X182510000Y-92511928D01*
X180910000Y-92511928D01*
X180785518Y-92524188D01*
X180665820Y-92560498D01*
X180555506Y-92619463D01*
X180458815Y-92698815D01*
X180379463Y-92795506D01*
X180320498Y-92905820D01*
X180284188Y-93025518D01*
X180271928Y-93150000D01*
X180271928Y-93325000D01*
X171920549Y-93325000D01*
X171910226Y-93273102D01*
X171832205Y-93084744D01*
X171718937Y-92915226D01*
X171574774Y-92771063D01*
X171405256Y-92657795D01*
X171216898Y-92579774D01*
X171016939Y-92540000D01*
X170813061Y-92540000D01*
X170613102Y-92579774D01*
X170424744Y-92657795D01*
X170255226Y-92771063D01*
X170111063Y-92915226D01*
X169997795Y-93084744D01*
X169919774Y-93273102D01*
X169880000Y-93473061D01*
X166085000Y-93473061D01*
X166085000Y-90443469D01*
X166089281Y-90400000D01*
X166085000Y-90356531D01*
X166085000Y-90356523D01*
X166079138Y-90297000D01*
X166198057Y-90297000D01*
X166225764Y-90578309D01*
X166307818Y-90848808D01*
X166441068Y-91098101D01*
X166620392Y-91316608D01*
X166838899Y-91495932D01*
X167088192Y-91629182D01*
X167358691Y-91711236D01*
X167569508Y-91732000D01*
X167710492Y-91732000D01*
X167921309Y-91711236D01*
X168191808Y-91629182D01*
X168441101Y-91495932D01*
X168659608Y-91316608D01*
X168838932Y-91098101D01*
X168972182Y-90848808D01*
X169054236Y-90578309D01*
X169081943Y-90297000D01*
X170108057Y-90297000D01*
X170135764Y-90578309D01*
X170217818Y-90848808D01*
X170351068Y-91098101D01*
X170530392Y-91316608D01*
X170748899Y-91495932D01*
X170998192Y-91629182D01*
X171268691Y-91711236D01*
X171479508Y-91732000D01*
X171620492Y-91732000D01*
X171831309Y-91711236D01*
X172101808Y-91629182D01*
X172351101Y-91495932D01*
X172569608Y-91316608D01*
X172748932Y-91098101D01*
X172882182Y-90848808D01*
X172964236Y-90578309D01*
X172991943Y-90297000D01*
X174072057Y-90297000D01*
X174099764Y-90578309D01*
X174181818Y-90848808D01*
X174315068Y-91098101D01*
X174494392Y-91316608D01*
X174712899Y-91495932D01*
X174962192Y-91629182D01*
X175232691Y-91711236D01*
X175443508Y-91732000D01*
X175584492Y-91732000D01*
X175795309Y-91711236D01*
X176065808Y-91629182D01*
X176315101Y-91495932D01*
X176533608Y-91316608D01*
X176712932Y-91098101D01*
X176846182Y-90848808D01*
X176928236Y-90578309D01*
X176955943Y-90297000D01*
X176928236Y-90015691D01*
X176846182Y-89745192D01*
X176712932Y-89495899D01*
X176533608Y-89277392D01*
X176315101Y-89098068D01*
X176065808Y-88964818D01*
X175795309Y-88882764D01*
X175584492Y-88862000D01*
X175443508Y-88862000D01*
X175232691Y-88882764D01*
X174962192Y-88964818D01*
X174712899Y-89098068D01*
X174494392Y-89277392D01*
X174315068Y-89495899D01*
X174181818Y-89745192D01*
X174099764Y-90015691D01*
X174072057Y-90297000D01*
X172991943Y-90297000D01*
X172964236Y-90015691D01*
X172882182Y-89745192D01*
X172748932Y-89495899D01*
X172569608Y-89277392D01*
X172351101Y-89098068D01*
X172101808Y-88964818D01*
X171831309Y-88882764D01*
X171620492Y-88862000D01*
X171479508Y-88862000D01*
X171268691Y-88882764D01*
X170998192Y-88964818D01*
X170748899Y-89098068D01*
X170530392Y-89277392D01*
X170351068Y-89495899D01*
X170217818Y-89745192D01*
X170135764Y-90015691D01*
X170108057Y-90297000D01*
X169081943Y-90297000D01*
X169054236Y-90015691D01*
X168972182Y-89745192D01*
X168838932Y-89495899D01*
X168659608Y-89277392D01*
X168441101Y-89098068D01*
X168191808Y-88964818D01*
X167921309Y-88882764D01*
X167710492Y-88862000D01*
X167569508Y-88862000D01*
X167358691Y-88882764D01*
X167088192Y-88964818D01*
X166838899Y-89098068D01*
X166620392Y-89277392D01*
X166441068Y-89495899D01*
X166307818Y-89745192D01*
X166225764Y-90015691D01*
X166198057Y-90297000D01*
X166079138Y-90297000D01*
X166072195Y-90226510D01*
X166053536Y-90165000D01*
X166021589Y-90059686D01*
X165939411Y-89905941D01*
X165856532Y-89804953D01*
X165856530Y-89804951D01*
X165828817Y-89771183D01*
X165795050Y-89743471D01*
X162046534Y-85994956D01*
X162018817Y-85961183D01*
X161884059Y-85850589D01*
X161730313Y-85768411D01*
X161563490Y-85717805D01*
X161433477Y-85705000D01*
X161433469Y-85705000D01*
X161390000Y-85700719D01*
X161346531Y-85705000D01*
X138220804Y-85705000D01*
X138255226Y-85621898D01*
X138295000Y-85421939D01*
X138295000Y-85218061D01*
X138255226Y-85018102D01*
X138177205Y-84829744D01*
X138063937Y-84660226D01*
X137919774Y-84516063D01*
X137750256Y-84402795D01*
X137561898Y-84324774D01*
X137361939Y-84285000D01*
X137158061Y-84285000D01*
X136958102Y-84324774D01*
X136769744Y-84402795D01*
X136721546Y-84435000D01*
X114938454Y-84435000D01*
X114890256Y-84402795D01*
X114701898Y-84324774D01*
X114501939Y-84285000D01*
X114298061Y-84285000D01*
X114098102Y-84324774D01*
X113909744Y-84402795D01*
X113740226Y-84516063D01*
X113596063Y-84660226D01*
X113482795Y-84829744D01*
X113404774Y-85018102D01*
X113365000Y-85218061D01*
X113365000Y-85421939D01*
X113404774Y-85621898D01*
X113482795Y-85810256D01*
X113596063Y-85979774D01*
X113740226Y-86123937D01*
X113909744Y-86237205D01*
X114098102Y-86315226D01*
X114298061Y-86355000D01*
X114501939Y-86355000D01*
X114701898Y-86315226D01*
X114890256Y-86237205D01*
X114938454Y-86205000D01*
X115979196Y-86205000D01*
X115944774Y-86288102D01*
X115905000Y-86488061D01*
X115905000Y-86691939D01*
X115944774Y-86891898D01*
X116022795Y-87080256D01*
X116136063Y-87249774D01*
X116280226Y-87393937D01*
X116449744Y-87507205D01*
X116638102Y-87585226D01*
X116838061Y-87625000D01*
X117041939Y-87625000D01*
X117241898Y-87585226D01*
X117430256Y-87507205D01*
X117478454Y-87475000D01*
X118519196Y-87475000D01*
X118484774Y-87558102D01*
X118445000Y-87758061D01*
X118445000Y-87961939D01*
X118484774Y-88161898D01*
X118562795Y-88350256D01*
X118676063Y-88519774D01*
X118820226Y-88663937D01*
X118989744Y-88777205D01*
X119178102Y-88855226D01*
X119378061Y-88895000D01*
X119581939Y-88895000D01*
X119781898Y-88855226D01*
X119970256Y-88777205D01*
X120018454Y-88745000D01*
X121059196Y-88745000D01*
X121024774Y-88828102D01*
X120985000Y-89028061D01*
X120985000Y-89231939D01*
X121024774Y-89431898D01*
X121102795Y-89620256D01*
X121216063Y-89789774D01*
X121360226Y-89933937D01*
X121529744Y-90047205D01*
X121718102Y-90125226D01*
X121918061Y-90165000D01*
X122121939Y-90165000D01*
X122321898Y-90125226D01*
X122510256Y-90047205D01*
X122558454Y-90015000D01*
X123599196Y-90015000D01*
X123564774Y-90098102D01*
X123525000Y-90298061D01*
X123525000Y-90501939D01*
X123564774Y-90701898D01*
X123642795Y-90890256D01*
X123756063Y-91059774D01*
X123900226Y-91203937D01*
X124069744Y-91317205D01*
X124258102Y-91395226D01*
X124458061Y-91435000D01*
X124661939Y-91435000D01*
X124861898Y-91395226D01*
X125050256Y-91317205D01*
X125098454Y-91285000D01*
X128679196Y-91285000D01*
X128644774Y-91368102D01*
X128605000Y-91568061D01*
X128605000Y-91771939D01*
X128644774Y-91971898D01*
X128722795Y-92160256D01*
X128836063Y-92329774D01*
X128980226Y-92473937D01*
X129149744Y-92587205D01*
X129338102Y-92665226D01*
X129538061Y-92705000D01*
X129741939Y-92705000D01*
X129941898Y-92665226D01*
X130130256Y-92587205D01*
X130178454Y-92555000D01*
X131219196Y-92555000D01*
X131184774Y-92638102D01*
X131145000Y-92838061D01*
X131145000Y-93041939D01*
X131184774Y-93241898D01*
X131262795Y-93430256D01*
X131376063Y-93599774D01*
X131520226Y-93743937D01*
X131689744Y-93857205D01*
X131878102Y-93935226D01*
X132078061Y-93975000D01*
X132281939Y-93975000D01*
X132481898Y-93935226D01*
X132670256Y-93857205D01*
X132718454Y-93825000D01*
X133759196Y-93825000D01*
X133724774Y-93908102D01*
X133685000Y-94108061D01*
X133685000Y-94311939D01*
X133724774Y-94511898D01*
X133802795Y-94700256D01*
X133916063Y-94869774D01*
X134060226Y-95013937D01*
X134111436Y-95048155D01*
X133918899Y-95151068D01*
X133700392Y-95330393D01*
X133521068Y-95548900D01*
X133450000Y-95681858D01*
X133378932Y-95548899D01*
X133199607Y-95330392D01*
X132981100Y-95151068D01*
X132731807Y-95017818D01*
X132461308Y-94935764D01*
X132180000Y-94908057D01*
X131898691Y-94935764D01*
X131628192Y-95017818D01*
X131378899Y-95151068D01*
X131160392Y-95330393D01*
X130981068Y-95548900D01*
X130910000Y-95681858D01*
X130838932Y-95548899D01*
X130659607Y-95330392D01*
X130441100Y-95151068D01*
X130191807Y-95017818D01*
X129921308Y-94935764D01*
X129640000Y-94908057D01*
X129358691Y-94935764D01*
X129088192Y-95017818D01*
X128838899Y-95151068D01*
X128620392Y-95330393D01*
X128441068Y-95548900D01*
X128370000Y-95681858D01*
X128298932Y-95548899D01*
X128119607Y-95330392D01*
X127901100Y-95151068D01*
X127651807Y-95017818D01*
X127381308Y-94935764D01*
X127100000Y-94908057D01*
X126818691Y-94935764D01*
X126548192Y-95017818D01*
X126298899Y-95151068D01*
X126080392Y-95330393D01*
X125901068Y-95548900D01*
X125830000Y-95681858D01*
X125758932Y-95548899D01*
X125579607Y-95330392D01*
X125361100Y-95151068D01*
X125111807Y-95017818D01*
X124841308Y-94935764D01*
X124560000Y-94908057D01*
X124278691Y-94935764D01*
X124008192Y-95017818D01*
X123758899Y-95151068D01*
X123540392Y-95330393D01*
X123361068Y-95548900D01*
X123290000Y-95681858D01*
X123218932Y-95548899D01*
X123039607Y-95330392D01*
X122821100Y-95151068D01*
X122571807Y-95017818D01*
X122301308Y-94935764D01*
X122020000Y-94908057D01*
X121738691Y-94935764D01*
X121468192Y-95017818D01*
X121218899Y-95151068D01*
X121000392Y-95330393D01*
X120821068Y-95548900D01*
X120750000Y-95681858D01*
X120678932Y-95548899D01*
X120499607Y-95330392D01*
X120281100Y-95151068D01*
X120031807Y-95017818D01*
X119761308Y-94935764D01*
X119480000Y-94908057D01*
X119198691Y-94935764D01*
X118928192Y-95017818D01*
X118678899Y-95151068D01*
X118460392Y-95330393D01*
X118281068Y-95548900D01*
X118210000Y-95681858D01*
X118138932Y-95548899D01*
X117959607Y-95330392D01*
X117741100Y-95151068D01*
X117491807Y-95017818D01*
X117221308Y-94935764D01*
X116940000Y-94908057D01*
X116658691Y-94935764D01*
X116388192Y-95017818D01*
X116138899Y-95151068D01*
X115920392Y-95330393D01*
X115741068Y-95548900D01*
X115670000Y-95681858D01*
X115598932Y-95548899D01*
X115419607Y-95330392D01*
X115201100Y-95151068D01*
X114951807Y-95017818D01*
X114681308Y-94935764D01*
X114400000Y-94908057D01*
X114118691Y-94935764D01*
X113848192Y-95017818D01*
X113598899Y-95151068D01*
X113380392Y-95330393D01*
X113201068Y-95548900D01*
X113130000Y-95681858D01*
X113058932Y-95548899D01*
X112879607Y-95330392D01*
X112661100Y-95151068D01*
X112411807Y-95017818D01*
X112141308Y-94935764D01*
X111860000Y-94908057D01*
X111578691Y-94935764D01*
X111308192Y-95017818D01*
X111058899Y-95151068D01*
X110840392Y-95330393D01*
X110661068Y-95548900D01*
X110590000Y-95681858D01*
X110518932Y-95548899D01*
X110339607Y-95330392D01*
X110121100Y-95151068D01*
X109871807Y-95017818D01*
X109601308Y-94935764D01*
X109320000Y-94908057D01*
X109038691Y-94935764D01*
X108768192Y-95017818D01*
X108518899Y-95151068D01*
X108300392Y-95330393D01*
X108121068Y-95548900D01*
X108050000Y-95681858D01*
X107978932Y-95548899D01*
X107799607Y-95330392D01*
X107581100Y-95151068D01*
X107331807Y-95017818D01*
X107061308Y-94935764D01*
X106780000Y-94908057D01*
X106498691Y-94935764D01*
X106228192Y-95017818D01*
X105978899Y-95151068D01*
X105760392Y-95330393D01*
X105581068Y-95548900D01*
X105510000Y-95681858D01*
X105438932Y-95548899D01*
X105259607Y-95330392D01*
X105041100Y-95151068D01*
X104791807Y-95017818D01*
X104521308Y-94935764D01*
X104240000Y-94908057D01*
X103958691Y-94935764D01*
X103688192Y-95017818D01*
X103438899Y-95151068D01*
X103220392Y-95330393D01*
X103127581Y-95443483D01*
X103125812Y-95425518D01*
X103089502Y-95305820D01*
X103030537Y-95195506D01*
X102951185Y-95098815D01*
X102854494Y-95019463D01*
X102744180Y-94960498D01*
X102624482Y-94924188D01*
X102500000Y-94911928D01*
X100900000Y-94911928D01*
X100775518Y-94924188D01*
X100655820Y-94960498D01*
X100545506Y-95019463D01*
X100448815Y-95098815D01*
X100369463Y-95195506D01*
X100310498Y-95305820D01*
X100274188Y-95425518D01*
X100261928Y-95550000D01*
X100261928Y-97950000D01*
X100274188Y-98074482D01*
X100310498Y-98194180D01*
X100369463Y-98304494D01*
X100448815Y-98401185D01*
X100453464Y-98405000D01*
X95393465Y-98405000D01*
X95349999Y-98400719D01*
X95306533Y-98405000D01*
X95306523Y-98405000D01*
X95176510Y-98417805D01*
X95009687Y-98468411D01*
X94855941Y-98550589D01*
X94855939Y-98550590D01*
X94855940Y-98550590D01*
X94754953Y-98633468D01*
X94754951Y-98633470D01*
X94721183Y-98661183D01*
X94693470Y-98694951D01*
X88404956Y-104983466D01*
X88371183Y-105011183D01*
X88260589Y-105145942D01*
X88178411Y-105299688D01*
X88143157Y-105415904D01*
X88139432Y-105428184D01*
X88127805Y-105466511D01*
X88115000Y-105596524D01*
X88115000Y-105596531D01*
X88110719Y-105640000D01*
X88115000Y-105683469D01*
X88115001Y-108515375D01*
X88025518Y-108524188D01*
X87905820Y-108560498D01*
X87795506Y-108619463D01*
X87698815Y-108698815D01*
X87619463Y-108795506D01*
X87560498Y-108905820D01*
X87524188Y-109025518D01*
X87511928Y-109150000D01*
X83595000Y-109150000D01*
X83595000Y-81039509D01*
X100265000Y-81039509D01*
X100265000Y-81980492D01*
X100285764Y-82191309D01*
X100367818Y-82461808D01*
X100501068Y-82711101D01*
X100680393Y-82929608D01*
X100898900Y-83108932D01*
X101148193Y-83242182D01*
X101418692Y-83324236D01*
X101700000Y-83351943D01*
X101981309Y-83324236D01*
X102251808Y-83242182D01*
X102501101Y-83108932D01*
X102719608Y-82929608D01*
X102898932Y-82711101D01*
X102970000Y-82578142D01*
X103041068Y-82711101D01*
X103220393Y-82929608D01*
X103438900Y-83108932D01*
X103688193Y-83242182D01*
X103958692Y-83324236D01*
X104240000Y-83351943D01*
X104521309Y-83324236D01*
X104791808Y-83242182D01*
X105041101Y-83108932D01*
X105259608Y-82929608D01*
X105438932Y-82711101D01*
X105510000Y-82578142D01*
X105581068Y-82711101D01*
X105760393Y-82929608D01*
X105978900Y-83108932D01*
X106228193Y-83242182D01*
X106498692Y-83324236D01*
X106780000Y-83351943D01*
X107061309Y-83324236D01*
X107331808Y-83242182D01*
X107581101Y-83108932D01*
X107799608Y-82929608D01*
X107978932Y-82711101D01*
X108050000Y-82578142D01*
X108121068Y-82711101D01*
X108300393Y-82929608D01*
X108518900Y-83108932D01*
X108768193Y-83242182D01*
X109038692Y-83324236D01*
X109320000Y-83351943D01*
X109601309Y-83324236D01*
X109871808Y-83242182D01*
X110121101Y-83108932D01*
X110339608Y-82929608D01*
X110518932Y-82711101D01*
X110590000Y-82578142D01*
X110661068Y-82711101D01*
X110840393Y-82929608D01*
X111058900Y-83108932D01*
X111308193Y-83242182D01*
X111578692Y-83324236D01*
X111860000Y-83351943D01*
X112141309Y-83324236D01*
X112411808Y-83242182D01*
X112661101Y-83108932D01*
X112879608Y-82929608D01*
X113058932Y-82711101D01*
X113130000Y-82578142D01*
X113201068Y-82711101D01*
X113380393Y-82929608D01*
X113598900Y-83108932D01*
X113848193Y-83242182D01*
X114118692Y-83324236D01*
X114400000Y-83351943D01*
X114681309Y-83324236D01*
X114951808Y-83242182D01*
X115201101Y-83108932D01*
X115419608Y-82929608D01*
X115598932Y-82711101D01*
X115670000Y-82578142D01*
X115741068Y-82711101D01*
X115920393Y-82929608D01*
X116138900Y-83108932D01*
X116388193Y-83242182D01*
X116658692Y-83324236D01*
X116940000Y-83351943D01*
X117221309Y-83324236D01*
X117491808Y-83242182D01*
X117741101Y-83108932D01*
X117959608Y-82929608D01*
X118138932Y-82711101D01*
X118210000Y-82578142D01*
X118281068Y-82711101D01*
X118460393Y-82929608D01*
X118678900Y-83108932D01*
X118928193Y-83242182D01*
X119198692Y-83324236D01*
X119480000Y-83351943D01*
X119761309Y-83324236D01*
X120031808Y-83242182D01*
X120281101Y-83108932D01*
X120499608Y-82929608D01*
X120678932Y-82711101D01*
X120750000Y-82578142D01*
X120821068Y-82711101D01*
X121000393Y-82929608D01*
X121218900Y-83108932D01*
X121468193Y-83242182D01*
X121738692Y-83324236D01*
X122020000Y-83351943D01*
X122301309Y-83324236D01*
X122571808Y-83242182D01*
X122821101Y-83108932D01*
X123039608Y-82929608D01*
X123218932Y-82711101D01*
X123290000Y-82578142D01*
X123361068Y-82711101D01*
X123540393Y-82929608D01*
X123758900Y-83108932D01*
X124008193Y-83242182D01*
X124278692Y-83324236D01*
X124560000Y-83351943D01*
X124841309Y-83324236D01*
X125111808Y-83242182D01*
X125361101Y-83108932D01*
X125579608Y-82929608D01*
X125758932Y-82711101D01*
X125830000Y-82578142D01*
X125901068Y-82711101D01*
X126080393Y-82929608D01*
X126298900Y-83108932D01*
X126548193Y-83242182D01*
X126818692Y-83324236D01*
X127100000Y-83351943D01*
X127381309Y-83324236D01*
X127651808Y-83242182D01*
X127901101Y-83108932D01*
X128119608Y-82929608D01*
X128298932Y-82711101D01*
X128367265Y-82583259D01*
X128517399Y-82812839D01*
X128715105Y-83014500D01*
X128948354Y-83173715D01*
X129208182Y-83284367D01*
X129290961Y-83301904D01*
X129513000Y-83179915D01*
X129513000Y-81637000D01*
X129493000Y-81637000D01*
X129493000Y-81383000D01*
X129513000Y-81383000D01*
X129513000Y-79840085D01*
X129767000Y-79840085D01*
X129767000Y-81383000D01*
X129787000Y-81383000D01*
X129787000Y-81637000D01*
X129767000Y-81637000D01*
X129767000Y-83179915D01*
X129989039Y-83301904D01*
X130071818Y-83284367D01*
X130331646Y-83173715D01*
X130564895Y-83014500D01*
X130762601Y-82812839D01*
X130912735Y-82583259D01*
X130981068Y-82711101D01*
X131160393Y-82929608D01*
X131378900Y-83108932D01*
X131628193Y-83242182D01*
X131898692Y-83324236D01*
X132180000Y-83351943D01*
X132461309Y-83324236D01*
X132731808Y-83242182D01*
X132981101Y-83108932D01*
X133199608Y-82929608D01*
X133378932Y-82711101D01*
X133450000Y-82578142D01*
X133521068Y-82711101D01*
X133700393Y-82929608D01*
X133918900Y-83108932D01*
X134168193Y-83242182D01*
X134438692Y-83324236D01*
X134720000Y-83351943D01*
X135001309Y-83324236D01*
X135271808Y-83242182D01*
X135521101Y-83108932D01*
X135739608Y-82929608D01*
X135918932Y-82711101D01*
X135990000Y-82578142D01*
X136061068Y-82711101D01*
X136240393Y-82929608D01*
X136458900Y-83108932D01*
X136708193Y-83242182D01*
X136978692Y-83324236D01*
X137260000Y-83351943D01*
X137541309Y-83324236D01*
X137811808Y-83242182D01*
X138061101Y-83108932D01*
X138279608Y-82929608D01*
X138458932Y-82711101D01*
X138530000Y-82578142D01*
X138601068Y-82711101D01*
X138780393Y-82929608D01*
X138998900Y-83108932D01*
X139248193Y-83242182D01*
X139518692Y-83324236D01*
X139800000Y-83351943D01*
X140081309Y-83324236D01*
X140351808Y-83242182D01*
X140601101Y-83108932D01*
X140819608Y-82929608D01*
X140998932Y-82711101D01*
X141070000Y-82578142D01*
X141141068Y-82711101D01*
X141320393Y-82929608D01*
X141538900Y-83108932D01*
X141788193Y-83242182D01*
X142058692Y-83324236D01*
X142340000Y-83351943D01*
X142621309Y-83324236D01*
X142891808Y-83242182D01*
X143141101Y-83108932D01*
X143359608Y-82929608D01*
X143538932Y-82711101D01*
X143610000Y-82578142D01*
X143681068Y-82711101D01*
X143860393Y-82929608D01*
X144078900Y-83108932D01*
X144328193Y-83242182D01*
X144598692Y-83324236D01*
X144880000Y-83351943D01*
X145161309Y-83324236D01*
X145431808Y-83242182D01*
X145681101Y-83108932D01*
X145899608Y-82929608D01*
X146078932Y-82711101D01*
X146150000Y-82578142D01*
X146221068Y-82711101D01*
X146400393Y-82929608D01*
X146618900Y-83108932D01*
X146868193Y-83242182D01*
X147138692Y-83324236D01*
X147420000Y-83351943D01*
X147701309Y-83324236D01*
X147971808Y-83242182D01*
X148221101Y-83108932D01*
X148439608Y-82929608D01*
X148618932Y-82711101D01*
X148690000Y-82578142D01*
X148761068Y-82711101D01*
X148940393Y-82929608D01*
X149158900Y-83108932D01*
X149408193Y-83242182D01*
X149678692Y-83324236D01*
X149960000Y-83351943D01*
X150241309Y-83324236D01*
X150511808Y-83242182D01*
X150761101Y-83108932D01*
X150979608Y-82929608D01*
X151158932Y-82711101D01*
X151292182Y-82461808D01*
X151374236Y-82191309D01*
X151395000Y-81980491D01*
X151395000Y-81039508D01*
X151374236Y-80828691D01*
X151292182Y-80558192D01*
X151158932Y-80308899D01*
X150979607Y-80090392D01*
X150864182Y-79995665D01*
X166205000Y-79995665D01*
X166205000Y-80278335D01*
X166260147Y-80555574D01*
X166368320Y-80816727D01*
X166525363Y-81051759D01*
X166725241Y-81251637D01*
X166960273Y-81408680D01*
X167221426Y-81516853D01*
X167498665Y-81572000D01*
X167781335Y-81572000D01*
X168058574Y-81516853D01*
X168319727Y-81408680D01*
X168554759Y-81251637D01*
X168754637Y-81051759D01*
X168911680Y-80816727D01*
X169019853Y-80555574D01*
X169075000Y-80278335D01*
X169075000Y-79995665D01*
X170115000Y-79995665D01*
X170115000Y-80278335D01*
X170170147Y-80555574D01*
X170278320Y-80816727D01*
X170435363Y-81051759D01*
X170635241Y-81251637D01*
X170870273Y-81408680D01*
X171131426Y-81516853D01*
X171408665Y-81572000D01*
X171691335Y-81572000D01*
X171968574Y-81516853D01*
X172229727Y-81408680D01*
X172464759Y-81251637D01*
X172664637Y-81051759D01*
X172821680Y-80816727D01*
X172929853Y-80555574D01*
X172985000Y-80278335D01*
X172985000Y-79995665D01*
X174079000Y-79995665D01*
X174079000Y-80278335D01*
X174134147Y-80555574D01*
X174242320Y-80816727D01*
X174399363Y-81051759D01*
X174599241Y-81251637D01*
X174834273Y-81408680D01*
X175095426Y-81516853D01*
X175372665Y-81572000D01*
X175655335Y-81572000D01*
X175932574Y-81516853D01*
X176193727Y-81408680D01*
X176428759Y-81251637D01*
X176628637Y-81051759D01*
X176785680Y-80816727D01*
X176893853Y-80555574D01*
X176949000Y-80278335D01*
X176949000Y-79995665D01*
X176893853Y-79718426D01*
X176785680Y-79457273D01*
X176628637Y-79222241D01*
X176428759Y-79022363D01*
X176193727Y-78865320D01*
X175932574Y-78757147D01*
X175655335Y-78702000D01*
X175372665Y-78702000D01*
X175095426Y-78757147D01*
X174834273Y-78865320D01*
X174599241Y-79022363D01*
X174399363Y-79222241D01*
X174242320Y-79457273D01*
X174134147Y-79718426D01*
X174079000Y-79995665D01*
X172985000Y-79995665D01*
X172929853Y-79718426D01*
X172821680Y-79457273D01*
X172664637Y-79222241D01*
X172464759Y-79022363D01*
X172229727Y-78865320D01*
X171968574Y-78757147D01*
X171691335Y-78702000D01*
X171408665Y-78702000D01*
X171131426Y-78757147D01*
X170870273Y-78865320D01*
X170635241Y-79022363D01*
X170435363Y-79222241D01*
X170278320Y-79457273D01*
X170170147Y-79718426D01*
X170115000Y-79995665D01*
X169075000Y-79995665D01*
X169019853Y-79718426D01*
X168911680Y-79457273D01*
X168754637Y-79222241D01*
X168554759Y-79022363D01*
X168319727Y-78865320D01*
X168058574Y-78757147D01*
X167781335Y-78702000D01*
X167498665Y-78702000D01*
X167221426Y-78757147D01*
X166960273Y-78865320D01*
X166725241Y-79022363D01*
X166525363Y-79222241D01*
X166368320Y-79457273D01*
X166260147Y-79718426D01*
X166205000Y-79995665D01*
X150864182Y-79995665D01*
X150761100Y-79911068D01*
X150511807Y-79777818D01*
X150241308Y-79695764D01*
X149960000Y-79668057D01*
X149678691Y-79695764D01*
X149408192Y-79777818D01*
X149158899Y-79911068D01*
X148940392Y-80090393D01*
X148761068Y-80308900D01*
X148690000Y-80441858D01*
X148618932Y-80308899D01*
X148439607Y-80090392D01*
X148221100Y-79911068D01*
X147971807Y-79777818D01*
X147701308Y-79695764D01*
X147420000Y-79668057D01*
X147138691Y-79695764D01*
X146868192Y-79777818D01*
X146618899Y-79911068D01*
X146400392Y-80090393D01*
X146221068Y-80308900D01*
X146150000Y-80441858D01*
X146078932Y-80308899D01*
X145899607Y-80090392D01*
X145681100Y-79911068D01*
X145431807Y-79777818D01*
X145161308Y-79695764D01*
X144880000Y-79668057D01*
X144598691Y-79695764D01*
X144328192Y-79777818D01*
X144078899Y-79911068D01*
X143860392Y-80090393D01*
X143681068Y-80308900D01*
X143610000Y-80441858D01*
X143538932Y-80308899D01*
X143359607Y-80090392D01*
X143141100Y-79911068D01*
X142891807Y-79777818D01*
X142621308Y-79695764D01*
X142340000Y-79668057D01*
X142058691Y-79695764D01*
X141788192Y-79777818D01*
X141538899Y-79911068D01*
X141320392Y-80090393D01*
X141141068Y-80308900D01*
X141070000Y-80441858D01*
X140998932Y-80308899D01*
X140819607Y-80090392D01*
X140601100Y-79911068D01*
X140351807Y-79777818D01*
X140081308Y-79695764D01*
X139800000Y-79668057D01*
X139518691Y-79695764D01*
X139248192Y-79777818D01*
X138998899Y-79911068D01*
X138780392Y-80090393D01*
X138601068Y-80308900D01*
X138530000Y-80441858D01*
X138458932Y-80308899D01*
X138279607Y-80090392D01*
X138061100Y-79911068D01*
X137811807Y-79777818D01*
X137541308Y-79695764D01*
X137260000Y-79668057D01*
X136978691Y-79695764D01*
X136708192Y-79777818D01*
X136458899Y-79911068D01*
X136240392Y-80090393D01*
X136061068Y-80308900D01*
X135990000Y-80441858D01*
X135918932Y-80308899D01*
X135739607Y-80090392D01*
X135521100Y-79911068D01*
X135271807Y-79777818D01*
X135001308Y-79695764D01*
X134720000Y-79668057D01*
X134438691Y-79695764D01*
X134168192Y-79777818D01*
X133918899Y-79911068D01*
X133700392Y-80090393D01*
X133521068Y-80308900D01*
X133450000Y-80441858D01*
X133378932Y-80308899D01*
X133199607Y-80090392D01*
X132981100Y-79911068D01*
X132731807Y-79777818D01*
X132461308Y-79695764D01*
X132180000Y-79668057D01*
X131898691Y-79695764D01*
X131628192Y-79777818D01*
X131378899Y-79911068D01*
X131160392Y-80090393D01*
X130981068Y-80308900D01*
X130912735Y-80436742D01*
X130762601Y-80207161D01*
X130564895Y-80005500D01*
X130331646Y-79846285D01*
X130071818Y-79735633D01*
X129989039Y-79718096D01*
X129767000Y-79840085D01*
X129513000Y-79840085D01*
X129290961Y-79718096D01*
X129208182Y-79735633D01*
X128948354Y-79846285D01*
X128715105Y-80005500D01*
X128517399Y-80207161D01*
X128367265Y-80436741D01*
X128298932Y-80308899D01*
X128119607Y-80090392D01*
X127901100Y-79911068D01*
X127651807Y-79777818D01*
X127381308Y-79695764D01*
X127100000Y-79668057D01*
X126818691Y-79695764D01*
X126548192Y-79777818D01*
X126298899Y-79911068D01*
X126080392Y-80090393D01*
X125901068Y-80308900D01*
X125830000Y-80441858D01*
X125758932Y-80308899D01*
X125579607Y-80090392D01*
X125361100Y-79911068D01*
X125111807Y-79777818D01*
X124841308Y-79695764D01*
X124560000Y-79668057D01*
X124278691Y-79695764D01*
X124008192Y-79777818D01*
X123758899Y-79911068D01*
X123540392Y-80090393D01*
X123361068Y-80308900D01*
X123290000Y-80441858D01*
X123218932Y-80308899D01*
X123039607Y-80090392D01*
X122821100Y-79911068D01*
X122571807Y-79777818D01*
X122301308Y-79695764D01*
X122020000Y-79668057D01*
X121738691Y-79695764D01*
X121468192Y-79777818D01*
X121218899Y-79911068D01*
X121000392Y-80090393D01*
X120821068Y-80308900D01*
X120750000Y-80441858D01*
X120678932Y-80308899D01*
X120499607Y-80090392D01*
X120281100Y-79911068D01*
X120031807Y-79777818D01*
X119761308Y-79695764D01*
X119480000Y-79668057D01*
X119198691Y-79695764D01*
X118928192Y-79777818D01*
X118678899Y-79911068D01*
X118460392Y-80090393D01*
X118281068Y-80308900D01*
X118210000Y-80441858D01*
X118138932Y-80308899D01*
X117959607Y-80090392D01*
X117741100Y-79911068D01*
X117491807Y-79777818D01*
X117221308Y-79695764D01*
X116940000Y-79668057D01*
X116658691Y-79695764D01*
X116388192Y-79777818D01*
X116138899Y-79911068D01*
X115920392Y-80090393D01*
X115741068Y-80308900D01*
X115670000Y-80441858D01*
X115598932Y-80308899D01*
X115419607Y-80090392D01*
X115201100Y-79911068D01*
X114951807Y-79777818D01*
X114681308Y-79695764D01*
X114400000Y-79668057D01*
X114118691Y-79695764D01*
X113848192Y-79777818D01*
X113598899Y-79911068D01*
X113380392Y-80090393D01*
X113201068Y-80308900D01*
X113130000Y-80441858D01*
X113058932Y-80308899D01*
X112879607Y-80090392D01*
X112661100Y-79911068D01*
X112411807Y-79777818D01*
X112141308Y-79695764D01*
X111860000Y-79668057D01*
X111578691Y-79695764D01*
X111308192Y-79777818D01*
X111058899Y-79911068D01*
X110840392Y-80090393D01*
X110661068Y-80308900D01*
X110590000Y-80441858D01*
X110518932Y-80308899D01*
X110339607Y-80090392D01*
X110121100Y-79911068D01*
X109871807Y-79777818D01*
X109601308Y-79695764D01*
X109320000Y-79668057D01*
X109038691Y-79695764D01*
X108768192Y-79777818D01*
X108518899Y-79911068D01*
X108300392Y-80090393D01*
X108121068Y-80308900D01*
X108050000Y-80441858D01*
X107978932Y-80308899D01*
X107799607Y-80090392D01*
X107581100Y-79911068D01*
X107331807Y-79777818D01*
X107061308Y-79695764D01*
X106780000Y-79668057D01*
X106498691Y-79695764D01*
X106228192Y-79777818D01*
X105978899Y-79911068D01*
X105760392Y-80090393D01*
X105581068Y-80308900D01*
X105510000Y-80441858D01*
X105438932Y-80308899D01*
X105259607Y-80090392D01*
X105041100Y-79911068D01*
X104791807Y-79777818D01*
X104521308Y-79695764D01*
X104240000Y-79668057D01*
X103958691Y-79695764D01*
X103688192Y-79777818D01*
X103438899Y-79911068D01*
X103220392Y-80090393D01*
X103041068Y-80308900D01*
X102970000Y-80441858D01*
X102898932Y-80308899D01*
X102719607Y-80090392D01*
X102501100Y-79911068D01*
X102251807Y-79777818D01*
X101981308Y-79695764D01*
X101700000Y-79668057D01*
X101418691Y-79695764D01*
X101148192Y-79777818D01*
X100898899Y-79911068D01*
X100680392Y-80090393D01*
X100501068Y-80308900D01*
X100367818Y-80558193D01*
X100285764Y-80828692D01*
X100265000Y-81039509D01*
X83595000Y-81039509D01*
X83595000Y-76783991D01*
X83632645Y-76400054D01*
X83734276Y-76063439D01*
X83899353Y-75752973D01*
X84121591Y-75480482D01*
X84392518Y-75256352D01*
X84701825Y-75089110D01*
X85037725Y-74985132D01*
X85419543Y-74945001D01*
X190625973Y-74954997D01*
M02*
