M48
; DRILL file {KiCad (5.1.2)-2} date 18.09.2021 22:38:47
; FORMAT={-:-/ absolute / metric / decimal}
; #@! TF.CreationDate,2021-09-18T22:38:47+02:00
; #@! TF.GenerationSoftware,Kicad,Pcbnew,(5.1.2)-2
; #@! TF.FileFunction,Plated,1,2,PTH
FMAT,2
METRIC
T1C0.400
T2C0.800
T3C0.900
T4C1.000
%
G90
G05
T1
X114.0Y-91.5
X122.0Y-91.5
X139.0Y-94.5
X141.5Y-96.5
X146.5Y-101.5
X147.828Y-102.235
T2
X185.0Y-87.5
X185.0Y-97.66
X162.0Y-83.5
X164.5Y-83.5
X121.22Y-83.76
X121.22Y-99.0
X123.76Y-83.76
X123.76Y-99.0
X126.3Y-83.76
X126.3Y-99.0
X128.84Y-83.76
X128.84Y-99.0
X131.38Y-83.76
X131.38Y-99.0
X133.92Y-83.76
X133.92Y-99.0
X136.46Y-83.76
X136.46Y-99.0
X139.0Y-83.76
X139.0Y-99.0
X141.54Y-83.76
X141.54Y-99.0
X144.08Y-83.76
X144.08Y-99.0
X146.62Y-83.76
X146.62Y-99.0
X149.16Y-83.76
X149.16Y-99.0
X151.7Y-83.76
X151.7Y-99.0
X154.24Y-83.76
X154.24Y-99.0
X162.46Y-87.5
X162.46Y-95.12
X165.0Y-87.5
X165.0Y-95.12
X167.54Y-87.5
X167.54Y-95.12
X170.08Y-87.5
X170.08Y-95.12
X172.62Y-87.5
X172.62Y-95.12
X175.16Y-87.5
X175.16Y-95.12
X177.7Y-87.5
X177.7Y-95.12
X98.42Y-87.5
X98.42Y-95.12
X100.96Y-87.5
X100.96Y-95.12
X103.5Y-87.5
X103.5Y-95.12
X106.04Y-87.5
X106.04Y-95.12
X108.58Y-87.5
X108.58Y-95.12
X111.12Y-87.5
X111.12Y-95.12
X113.66Y-87.5
X113.66Y-95.12
X121.0Y-80.0
X123.5Y-80.0
X98.5Y-83.5
X101.0Y-83.5
T3
X187.325Y-78.994
X187.325Y-81.534
T4
X89.0Y-110.0
X91.54Y-110.0
X94.08Y-110.0
X96.62Y-110.0
X99.16Y-110.0
X101.7Y-110.0
X104.24Y-110.0
X106.78Y-110.0
X109.32Y-110.0
X111.86Y-110.0
X114.4Y-110.0
X116.94Y-110.0
X119.48Y-110.0
X122.02Y-110.0
X124.56Y-110.0
X127.1Y-110.0
X129.64Y-110.0
X132.18Y-110.0
X134.72Y-110.0
X137.26Y-110.0
X139.8Y-110.0
X142.34Y-110.0
X144.88Y-110.0
X147.42Y-110.0
X149.96Y-110.0
X152.5Y-110.0
X155.04Y-110.0
X157.58Y-110.0
X160.12Y-110.0
X162.66Y-110.0
X165.2Y-110.0
X167.74Y-110.0
X170.28Y-110.0
X172.82Y-110.0
X175.36Y-110.0
X177.9Y-110.0
X180.44Y-110.0
X182.98Y-110.0
X185.52Y-110.0
X188.06Y-110.0
T0
M30
