G04 #@! TF.GenerationSoftware,KiCad,Pcbnew,(5.1.2)-2*
G04 #@! TF.CreationDate,2021-09-18T22:38:44+02:00*
G04 #@! TF.ProjectId,aZ80_RAM,615a3830-5f52-4414-9d2e-6b696361645f,rev?*
G04 #@! TF.SameCoordinates,Original*
G04 #@! TF.FileFunction,Soldermask,Bot*
G04 #@! TF.FilePolarity,Negative*
%FSLAX46Y46*%
G04 Gerber Fmt 4.6, Leading zero omitted, Abs format (unit mm)*
G04 Created by KiCad (PCBNEW (5.1.2)-2) date 2021-09-18 22:38:44*
%MOMM*%
%LPD*%
G04 APERTURE LIST*
%ADD10C,0.100000*%
G04 APERTURE END LIST*
D10*
G36*
X114510443Y-109105519D02*
G01*
X114576627Y-109112037D01*
X114746466Y-109163557D01*
X114902991Y-109247222D01*
X114938729Y-109276552D01*
X115040186Y-109359814D01*
X115123448Y-109461271D01*
X115152778Y-109497009D01*
X115236443Y-109653534D01*
X115287963Y-109823373D01*
X115305359Y-110000000D01*
X115287963Y-110176627D01*
X115236443Y-110346466D01*
X115152778Y-110502991D01*
X115123448Y-110538729D01*
X115040186Y-110640186D01*
X114938729Y-110723448D01*
X114902991Y-110752778D01*
X114746466Y-110836443D01*
X114576627Y-110887963D01*
X114510443Y-110894481D01*
X114444260Y-110901000D01*
X114355740Y-110901000D01*
X114289557Y-110894481D01*
X114223373Y-110887963D01*
X114053534Y-110836443D01*
X113897009Y-110752778D01*
X113861271Y-110723448D01*
X113759814Y-110640186D01*
X113676552Y-110538729D01*
X113647222Y-110502991D01*
X113563557Y-110346466D01*
X113512037Y-110176627D01*
X113494641Y-110000000D01*
X113512037Y-109823373D01*
X113563557Y-109653534D01*
X113647222Y-109497009D01*
X113676552Y-109461271D01*
X113759814Y-109359814D01*
X113861271Y-109276552D01*
X113897009Y-109247222D01*
X114053534Y-109163557D01*
X114223373Y-109112037D01*
X114289557Y-109105519D01*
X114355740Y-109099000D01*
X114444260Y-109099000D01*
X114510443Y-109105519D01*
X114510443Y-109105519D01*
G37*
G36*
X111970443Y-109105519D02*
G01*
X112036627Y-109112037D01*
X112206466Y-109163557D01*
X112362991Y-109247222D01*
X112398729Y-109276552D01*
X112500186Y-109359814D01*
X112583448Y-109461271D01*
X112612778Y-109497009D01*
X112696443Y-109653534D01*
X112747963Y-109823373D01*
X112765359Y-110000000D01*
X112747963Y-110176627D01*
X112696443Y-110346466D01*
X112612778Y-110502991D01*
X112583448Y-110538729D01*
X112500186Y-110640186D01*
X112398729Y-110723448D01*
X112362991Y-110752778D01*
X112206466Y-110836443D01*
X112036627Y-110887963D01*
X111970443Y-110894481D01*
X111904260Y-110901000D01*
X111815740Y-110901000D01*
X111749557Y-110894481D01*
X111683373Y-110887963D01*
X111513534Y-110836443D01*
X111357009Y-110752778D01*
X111321271Y-110723448D01*
X111219814Y-110640186D01*
X111136552Y-110538729D01*
X111107222Y-110502991D01*
X111023557Y-110346466D01*
X110972037Y-110176627D01*
X110954641Y-110000000D01*
X110972037Y-109823373D01*
X111023557Y-109653534D01*
X111107222Y-109497009D01*
X111136552Y-109461271D01*
X111219814Y-109359814D01*
X111321271Y-109276552D01*
X111357009Y-109247222D01*
X111513534Y-109163557D01*
X111683373Y-109112037D01*
X111749557Y-109105519D01*
X111815740Y-109099000D01*
X111904260Y-109099000D01*
X111970443Y-109105519D01*
X111970443Y-109105519D01*
G37*
G36*
X89901000Y-110901000D02*
G01*
X88099000Y-110901000D01*
X88099000Y-109099000D01*
X89901000Y-109099000D01*
X89901000Y-110901000D01*
X89901000Y-110901000D01*
G37*
G36*
X91650443Y-109105519D02*
G01*
X91716627Y-109112037D01*
X91886466Y-109163557D01*
X92042991Y-109247222D01*
X92078729Y-109276552D01*
X92180186Y-109359814D01*
X92263448Y-109461271D01*
X92292778Y-109497009D01*
X92376443Y-109653534D01*
X92427963Y-109823373D01*
X92445359Y-110000000D01*
X92427963Y-110176627D01*
X92376443Y-110346466D01*
X92292778Y-110502991D01*
X92263448Y-110538729D01*
X92180186Y-110640186D01*
X92078729Y-110723448D01*
X92042991Y-110752778D01*
X91886466Y-110836443D01*
X91716627Y-110887963D01*
X91650443Y-110894481D01*
X91584260Y-110901000D01*
X91495740Y-110901000D01*
X91429557Y-110894481D01*
X91363373Y-110887963D01*
X91193534Y-110836443D01*
X91037009Y-110752778D01*
X91001271Y-110723448D01*
X90899814Y-110640186D01*
X90816552Y-110538729D01*
X90787222Y-110502991D01*
X90703557Y-110346466D01*
X90652037Y-110176627D01*
X90634641Y-110000000D01*
X90652037Y-109823373D01*
X90703557Y-109653534D01*
X90787222Y-109497009D01*
X90816552Y-109461271D01*
X90899814Y-109359814D01*
X91001271Y-109276552D01*
X91037009Y-109247222D01*
X91193534Y-109163557D01*
X91363373Y-109112037D01*
X91429557Y-109105519D01*
X91495740Y-109099000D01*
X91584260Y-109099000D01*
X91650443Y-109105519D01*
X91650443Y-109105519D01*
G37*
G36*
X94190443Y-109105519D02*
G01*
X94256627Y-109112037D01*
X94426466Y-109163557D01*
X94582991Y-109247222D01*
X94618729Y-109276552D01*
X94720186Y-109359814D01*
X94803448Y-109461271D01*
X94832778Y-109497009D01*
X94916443Y-109653534D01*
X94967963Y-109823373D01*
X94985359Y-110000000D01*
X94967963Y-110176627D01*
X94916443Y-110346466D01*
X94832778Y-110502991D01*
X94803448Y-110538729D01*
X94720186Y-110640186D01*
X94618729Y-110723448D01*
X94582991Y-110752778D01*
X94426466Y-110836443D01*
X94256627Y-110887963D01*
X94190443Y-110894481D01*
X94124260Y-110901000D01*
X94035740Y-110901000D01*
X93969557Y-110894481D01*
X93903373Y-110887963D01*
X93733534Y-110836443D01*
X93577009Y-110752778D01*
X93541271Y-110723448D01*
X93439814Y-110640186D01*
X93356552Y-110538729D01*
X93327222Y-110502991D01*
X93243557Y-110346466D01*
X93192037Y-110176627D01*
X93174641Y-110000000D01*
X93192037Y-109823373D01*
X93243557Y-109653534D01*
X93327222Y-109497009D01*
X93356552Y-109461271D01*
X93439814Y-109359814D01*
X93541271Y-109276552D01*
X93577009Y-109247222D01*
X93733534Y-109163557D01*
X93903373Y-109112037D01*
X93969557Y-109105519D01*
X94035740Y-109099000D01*
X94124260Y-109099000D01*
X94190443Y-109105519D01*
X94190443Y-109105519D01*
G37*
G36*
X96730443Y-109105519D02*
G01*
X96796627Y-109112037D01*
X96966466Y-109163557D01*
X97122991Y-109247222D01*
X97158729Y-109276552D01*
X97260186Y-109359814D01*
X97343448Y-109461271D01*
X97372778Y-109497009D01*
X97456443Y-109653534D01*
X97507963Y-109823373D01*
X97525359Y-110000000D01*
X97507963Y-110176627D01*
X97456443Y-110346466D01*
X97372778Y-110502991D01*
X97343448Y-110538729D01*
X97260186Y-110640186D01*
X97158729Y-110723448D01*
X97122991Y-110752778D01*
X96966466Y-110836443D01*
X96796627Y-110887963D01*
X96730443Y-110894481D01*
X96664260Y-110901000D01*
X96575740Y-110901000D01*
X96509557Y-110894481D01*
X96443373Y-110887963D01*
X96273534Y-110836443D01*
X96117009Y-110752778D01*
X96081271Y-110723448D01*
X95979814Y-110640186D01*
X95896552Y-110538729D01*
X95867222Y-110502991D01*
X95783557Y-110346466D01*
X95732037Y-110176627D01*
X95714641Y-110000000D01*
X95732037Y-109823373D01*
X95783557Y-109653534D01*
X95867222Y-109497009D01*
X95896552Y-109461271D01*
X95979814Y-109359814D01*
X96081271Y-109276552D01*
X96117009Y-109247222D01*
X96273534Y-109163557D01*
X96443373Y-109112037D01*
X96509557Y-109105519D01*
X96575740Y-109099000D01*
X96664260Y-109099000D01*
X96730443Y-109105519D01*
X96730443Y-109105519D01*
G37*
G36*
X99270443Y-109105519D02*
G01*
X99336627Y-109112037D01*
X99506466Y-109163557D01*
X99662991Y-109247222D01*
X99698729Y-109276552D01*
X99800186Y-109359814D01*
X99883448Y-109461271D01*
X99912778Y-109497009D01*
X99996443Y-109653534D01*
X100047963Y-109823373D01*
X100065359Y-110000000D01*
X100047963Y-110176627D01*
X99996443Y-110346466D01*
X99912778Y-110502991D01*
X99883448Y-110538729D01*
X99800186Y-110640186D01*
X99698729Y-110723448D01*
X99662991Y-110752778D01*
X99506466Y-110836443D01*
X99336627Y-110887963D01*
X99270443Y-110894481D01*
X99204260Y-110901000D01*
X99115740Y-110901000D01*
X99049557Y-110894481D01*
X98983373Y-110887963D01*
X98813534Y-110836443D01*
X98657009Y-110752778D01*
X98621271Y-110723448D01*
X98519814Y-110640186D01*
X98436552Y-110538729D01*
X98407222Y-110502991D01*
X98323557Y-110346466D01*
X98272037Y-110176627D01*
X98254641Y-110000000D01*
X98272037Y-109823373D01*
X98323557Y-109653534D01*
X98407222Y-109497009D01*
X98436552Y-109461271D01*
X98519814Y-109359814D01*
X98621271Y-109276552D01*
X98657009Y-109247222D01*
X98813534Y-109163557D01*
X98983373Y-109112037D01*
X99049557Y-109105519D01*
X99115740Y-109099000D01*
X99204260Y-109099000D01*
X99270443Y-109105519D01*
X99270443Y-109105519D01*
G37*
G36*
X104350443Y-109105519D02*
G01*
X104416627Y-109112037D01*
X104586466Y-109163557D01*
X104742991Y-109247222D01*
X104778729Y-109276552D01*
X104880186Y-109359814D01*
X104963448Y-109461271D01*
X104992778Y-109497009D01*
X105076443Y-109653534D01*
X105127963Y-109823373D01*
X105145359Y-110000000D01*
X105127963Y-110176627D01*
X105076443Y-110346466D01*
X104992778Y-110502991D01*
X104963448Y-110538729D01*
X104880186Y-110640186D01*
X104778729Y-110723448D01*
X104742991Y-110752778D01*
X104586466Y-110836443D01*
X104416627Y-110887963D01*
X104350443Y-110894481D01*
X104284260Y-110901000D01*
X104195740Y-110901000D01*
X104129557Y-110894481D01*
X104063373Y-110887963D01*
X103893534Y-110836443D01*
X103737009Y-110752778D01*
X103701271Y-110723448D01*
X103599814Y-110640186D01*
X103516552Y-110538729D01*
X103487222Y-110502991D01*
X103403557Y-110346466D01*
X103352037Y-110176627D01*
X103334641Y-110000000D01*
X103352037Y-109823373D01*
X103403557Y-109653534D01*
X103487222Y-109497009D01*
X103516552Y-109461271D01*
X103599814Y-109359814D01*
X103701271Y-109276552D01*
X103737009Y-109247222D01*
X103893534Y-109163557D01*
X104063373Y-109112037D01*
X104129557Y-109105519D01*
X104195740Y-109099000D01*
X104284260Y-109099000D01*
X104350443Y-109105519D01*
X104350443Y-109105519D01*
G37*
G36*
X106890443Y-109105519D02*
G01*
X106956627Y-109112037D01*
X107126466Y-109163557D01*
X107282991Y-109247222D01*
X107318729Y-109276552D01*
X107420186Y-109359814D01*
X107503448Y-109461271D01*
X107532778Y-109497009D01*
X107616443Y-109653534D01*
X107667963Y-109823373D01*
X107685359Y-110000000D01*
X107667963Y-110176627D01*
X107616443Y-110346466D01*
X107532778Y-110502991D01*
X107503448Y-110538729D01*
X107420186Y-110640186D01*
X107318729Y-110723448D01*
X107282991Y-110752778D01*
X107126466Y-110836443D01*
X106956627Y-110887963D01*
X106890443Y-110894481D01*
X106824260Y-110901000D01*
X106735740Y-110901000D01*
X106669557Y-110894481D01*
X106603373Y-110887963D01*
X106433534Y-110836443D01*
X106277009Y-110752778D01*
X106241271Y-110723448D01*
X106139814Y-110640186D01*
X106056552Y-110538729D01*
X106027222Y-110502991D01*
X105943557Y-110346466D01*
X105892037Y-110176627D01*
X105874641Y-110000000D01*
X105892037Y-109823373D01*
X105943557Y-109653534D01*
X106027222Y-109497009D01*
X106056552Y-109461271D01*
X106139814Y-109359814D01*
X106241271Y-109276552D01*
X106277009Y-109247222D01*
X106433534Y-109163557D01*
X106603373Y-109112037D01*
X106669557Y-109105519D01*
X106735740Y-109099000D01*
X106824260Y-109099000D01*
X106890443Y-109105519D01*
X106890443Y-109105519D01*
G37*
G36*
X109430443Y-109105519D02*
G01*
X109496627Y-109112037D01*
X109666466Y-109163557D01*
X109822991Y-109247222D01*
X109858729Y-109276552D01*
X109960186Y-109359814D01*
X110043448Y-109461271D01*
X110072778Y-109497009D01*
X110156443Y-109653534D01*
X110207963Y-109823373D01*
X110225359Y-110000000D01*
X110207963Y-110176627D01*
X110156443Y-110346466D01*
X110072778Y-110502991D01*
X110043448Y-110538729D01*
X109960186Y-110640186D01*
X109858729Y-110723448D01*
X109822991Y-110752778D01*
X109666466Y-110836443D01*
X109496627Y-110887963D01*
X109430443Y-110894481D01*
X109364260Y-110901000D01*
X109275740Y-110901000D01*
X109209557Y-110894481D01*
X109143373Y-110887963D01*
X108973534Y-110836443D01*
X108817009Y-110752778D01*
X108781271Y-110723448D01*
X108679814Y-110640186D01*
X108596552Y-110538729D01*
X108567222Y-110502991D01*
X108483557Y-110346466D01*
X108432037Y-110176627D01*
X108414641Y-110000000D01*
X108432037Y-109823373D01*
X108483557Y-109653534D01*
X108567222Y-109497009D01*
X108596552Y-109461271D01*
X108679814Y-109359814D01*
X108781271Y-109276552D01*
X108817009Y-109247222D01*
X108973534Y-109163557D01*
X109143373Y-109112037D01*
X109209557Y-109105519D01*
X109275740Y-109099000D01*
X109364260Y-109099000D01*
X109430443Y-109105519D01*
X109430443Y-109105519D01*
G37*
G36*
X101810443Y-109105519D02*
G01*
X101876627Y-109112037D01*
X102046466Y-109163557D01*
X102202991Y-109247222D01*
X102238729Y-109276552D01*
X102340186Y-109359814D01*
X102423448Y-109461271D01*
X102452778Y-109497009D01*
X102536443Y-109653534D01*
X102587963Y-109823373D01*
X102605359Y-110000000D01*
X102587963Y-110176627D01*
X102536443Y-110346466D01*
X102452778Y-110502991D01*
X102423448Y-110538729D01*
X102340186Y-110640186D01*
X102238729Y-110723448D01*
X102202991Y-110752778D01*
X102046466Y-110836443D01*
X101876627Y-110887963D01*
X101810443Y-110894481D01*
X101744260Y-110901000D01*
X101655740Y-110901000D01*
X101589557Y-110894481D01*
X101523373Y-110887963D01*
X101353534Y-110836443D01*
X101197009Y-110752778D01*
X101161271Y-110723448D01*
X101059814Y-110640186D01*
X100976552Y-110538729D01*
X100947222Y-110502991D01*
X100863557Y-110346466D01*
X100812037Y-110176627D01*
X100794641Y-110000000D01*
X100812037Y-109823373D01*
X100863557Y-109653534D01*
X100947222Y-109497009D01*
X100976552Y-109461271D01*
X101059814Y-109359814D01*
X101161271Y-109276552D01*
X101197009Y-109247222D01*
X101353534Y-109163557D01*
X101523373Y-109112037D01*
X101589557Y-109105519D01*
X101655740Y-109099000D01*
X101744260Y-109099000D01*
X101810443Y-109105519D01*
X101810443Y-109105519D01*
G37*
G36*
X117050443Y-109105519D02*
G01*
X117116627Y-109112037D01*
X117286466Y-109163557D01*
X117442991Y-109247222D01*
X117478729Y-109276552D01*
X117580186Y-109359814D01*
X117663448Y-109461271D01*
X117692778Y-109497009D01*
X117776443Y-109653534D01*
X117827963Y-109823373D01*
X117845359Y-110000000D01*
X117827963Y-110176627D01*
X117776443Y-110346466D01*
X117692778Y-110502991D01*
X117663448Y-110538729D01*
X117580186Y-110640186D01*
X117478729Y-110723448D01*
X117442991Y-110752778D01*
X117286466Y-110836443D01*
X117116627Y-110887963D01*
X117050443Y-110894481D01*
X116984260Y-110901000D01*
X116895740Y-110901000D01*
X116829557Y-110894481D01*
X116763373Y-110887963D01*
X116593534Y-110836443D01*
X116437009Y-110752778D01*
X116401271Y-110723448D01*
X116299814Y-110640186D01*
X116216552Y-110538729D01*
X116187222Y-110502991D01*
X116103557Y-110346466D01*
X116052037Y-110176627D01*
X116034641Y-110000000D01*
X116052037Y-109823373D01*
X116103557Y-109653534D01*
X116187222Y-109497009D01*
X116216552Y-109461271D01*
X116299814Y-109359814D01*
X116401271Y-109276552D01*
X116437009Y-109247222D01*
X116593534Y-109163557D01*
X116763373Y-109112037D01*
X116829557Y-109105519D01*
X116895740Y-109099000D01*
X116984260Y-109099000D01*
X117050443Y-109105519D01*
X117050443Y-109105519D01*
G37*
G36*
X119590443Y-109105519D02*
G01*
X119656627Y-109112037D01*
X119826466Y-109163557D01*
X119982991Y-109247222D01*
X120018729Y-109276552D01*
X120120186Y-109359814D01*
X120203448Y-109461271D01*
X120232778Y-109497009D01*
X120316443Y-109653534D01*
X120367963Y-109823373D01*
X120385359Y-110000000D01*
X120367963Y-110176627D01*
X120316443Y-110346466D01*
X120232778Y-110502991D01*
X120203448Y-110538729D01*
X120120186Y-110640186D01*
X120018729Y-110723448D01*
X119982991Y-110752778D01*
X119826466Y-110836443D01*
X119656627Y-110887963D01*
X119590443Y-110894481D01*
X119524260Y-110901000D01*
X119435740Y-110901000D01*
X119369557Y-110894481D01*
X119303373Y-110887963D01*
X119133534Y-110836443D01*
X118977009Y-110752778D01*
X118941271Y-110723448D01*
X118839814Y-110640186D01*
X118756552Y-110538729D01*
X118727222Y-110502991D01*
X118643557Y-110346466D01*
X118592037Y-110176627D01*
X118574641Y-110000000D01*
X118592037Y-109823373D01*
X118643557Y-109653534D01*
X118727222Y-109497009D01*
X118756552Y-109461271D01*
X118839814Y-109359814D01*
X118941271Y-109276552D01*
X118977009Y-109247222D01*
X119133534Y-109163557D01*
X119303373Y-109112037D01*
X119369557Y-109105519D01*
X119435740Y-109099000D01*
X119524260Y-109099000D01*
X119590443Y-109105519D01*
X119590443Y-109105519D01*
G37*
G36*
X122130443Y-109105519D02*
G01*
X122196627Y-109112037D01*
X122366466Y-109163557D01*
X122522991Y-109247222D01*
X122558729Y-109276552D01*
X122660186Y-109359814D01*
X122743448Y-109461271D01*
X122772778Y-109497009D01*
X122856443Y-109653534D01*
X122907963Y-109823373D01*
X122925359Y-110000000D01*
X122907963Y-110176627D01*
X122856443Y-110346466D01*
X122772778Y-110502991D01*
X122743448Y-110538729D01*
X122660186Y-110640186D01*
X122558729Y-110723448D01*
X122522991Y-110752778D01*
X122366466Y-110836443D01*
X122196627Y-110887963D01*
X122130443Y-110894481D01*
X122064260Y-110901000D01*
X121975740Y-110901000D01*
X121909557Y-110894481D01*
X121843373Y-110887963D01*
X121673534Y-110836443D01*
X121517009Y-110752778D01*
X121481271Y-110723448D01*
X121379814Y-110640186D01*
X121296552Y-110538729D01*
X121267222Y-110502991D01*
X121183557Y-110346466D01*
X121132037Y-110176627D01*
X121114641Y-110000000D01*
X121132037Y-109823373D01*
X121183557Y-109653534D01*
X121267222Y-109497009D01*
X121296552Y-109461271D01*
X121379814Y-109359814D01*
X121481271Y-109276552D01*
X121517009Y-109247222D01*
X121673534Y-109163557D01*
X121843373Y-109112037D01*
X121909557Y-109105519D01*
X121975740Y-109099000D01*
X122064260Y-109099000D01*
X122130443Y-109105519D01*
X122130443Y-109105519D01*
G37*
G36*
X124670443Y-109105519D02*
G01*
X124736627Y-109112037D01*
X124906466Y-109163557D01*
X125062991Y-109247222D01*
X125098729Y-109276552D01*
X125200186Y-109359814D01*
X125283448Y-109461271D01*
X125312778Y-109497009D01*
X125396443Y-109653534D01*
X125447963Y-109823373D01*
X125465359Y-110000000D01*
X125447963Y-110176627D01*
X125396443Y-110346466D01*
X125312778Y-110502991D01*
X125283448Y-110538729D01*
X125200186Y-110640186D01*
X125098729Y-110723448D01*
X125062991Y-110752778D01*
X124906466Y-110836443D01*
X124736627Y-110887963D01*
X124670443Y-110894481D01*
X124604260Y-110901000D01*
X124515740Y-110901000D01*
X124449557Y-110894481D01*
X124383373Y-110887963D01*
X124213534Y-110836443D01*
X124057009Y-110752778D01*
X124021271Y-110723448D01*
X123919814Y-110640186D01*
X123836552Y-110538729D01*
X123807222Y-110502991D01*
X123723557Y-110346466D01*
X123672037Y-110176627D01*
X123654641Y-110000000D01*
X123672037Y-109823373D01*
X123723557Y-109653534D01*
X123807222Y-109497009D01*
X123836552Y-109461271D01*
X123919814Y-109359814D01*
X124021271Y-109276552D01*
X124057009Y-109247222D01*
X124213534Y-109163557D01*
X124383373Y-109112037D01*
X124449557Y-109105519D01*
X124515740Y-109099000D01*
X124604260Y-109099000D01*
X124670443Y-109105519D01*
X124670443Y-109105519D01*
G37*
G36*
X127210443Y-109105519D02*
G01*
X127276627Y-109112037D01*
X127446466Y-109163557D01*
X127602991Y-109247222D01*
X127638729Y-109276552D01*
X127740186Y-109359814D01*
X127823448Y-109461271D01*
X127852778Y-109497009D01*
X127936443Y-109653534D01*
X127987963Y-109823373D01*
X128005359Y-110000000D01*
X127987963Y-110176627D01*
X127936443Y-110346466D01*
X127852778Y-110502991D01*
X127823448Y-110538729D01*
X127740186Y-110640186D01*
X127638729Y-110723448D01*
X127602991Y-110752778D01*
X127446466Y-110836443D01*
X127276627Y-110887963D01*
X127210443Y-110894481D01*
X127144260Y-110901000D01*
X127055740Y-110901000D01*
X126989557Y-110894481D01*
X126923373Y-110887963D01*
X126753534Y-110836443D01*
X126597009Y-110752778D01*
X126561271Y-110723448D01*
X126459814Y-110640186D01*
X126376552Y-110538729D01*
X126347222Y-110502991D01*
X126263557Y-110346466D01*
X126212037Y-110176627D01*
X126194641Y-110000000D01*
X126212037Y-109823373D01*
X126263557Y-109653534D01*
X126347222Y-109497009D01*
X126376552Y-109461271D01*
X126459814Y-109359814D01*
X126561271Y-109276552D01*
X126597009Y-109247222D01*
X126753534Y-109163557D01*
X126923373Y-109112037D01*
X126989557Y-109105519D01*
X127055740Y-109099000D01*
X127144260Y-109099000D01*
X127210443Y-109105519D01*
X127210443Y-109105519D01*
G37*
G36*
X129750443Y-109105519D02*
G01*
X129816627Y-109112037D01*
X129986466Y-109163557D01*
X130142991Y-109247222D01*
X130178729Y-109276552D01*
X130280186Y-109359814D01*
X130363448Y-109461271D01*
X130392778Y-109497009D01*
X130476443Y-109653534D01*
X130527963Y-109823373D01*
X130545359Y-110000000D01*
X130527963Y-110176627D01*
X130476443Y-110346466D01*
X130392778Y-110502991D01*
X130363448Y-110538729D01*
X130280186Y-110640186D01*
X130178729Y-110723448D01*
X130142991Y-110752778D01*
X129986466Y-110836443D01*
X129816627Y-110887963D01*
X129750443Y-110894481D01*
X129684260Y-110901000D01*
X129595740Y-110901000D01*
X129529557Y-110894481D01*
X129463373Y-110887963D01*
X129293534Y-110836443D01*
X129137009Y-110752778D01*
X129101271Y-110723448D01*
X128999814Y-110640186D01*
X128916552Y-110538729D01*
X128887222Y-110502991D01*
X128803557Y-110346466D01*
X128752037Y-110176627D01*
X128734641Y-110000000D01*
X128752037Y-109823373D01*
X128803557Y-109653534D01*
X128887222Y-109497009D01*
X128916552Y-109461271D01*
X128999814Y-109359814D01*
X129101271Y-109276552D01*
X129137009Y-109247222D01*
X129293534Y-109163557D01*
X129463373Y-109112037D01*
X129529557Y-109105519D01*
X129595740Y-109099000D01*
X129684260Y-109099000D01*
X129750443Y-109105519D01*
X129750443Y-109105519D01*
G37*
G36*
X132290443Y-109105519D02*
G01*
X132356627Y-109112037D01*
X132526466Y-109163557D01*
X132682991Y-109247222D01*
X132718729Y-109276552D01*
X132820186Y-109359814D01*
X132903448Y-109461271D01*
X132932778Y-109497009D01*
X133016443Y-109653534D01*
X133067963Y-109823373D01*
X133085359Y-110000000D01*
X133067963Y-110176627D01*
X133016443Y-110346466D01*
X132932778Y-110502991D01*
X132903448Y-110538729D01*
X132820186Y-110640186D01*
X132718729Y-110723448D01*
X132682991Y-110752778D01*
X132526466Y-110836443D01*
X132356627Y-110887963D01*
X132290443Y-110894481D01*
X132224260Y-110901000D01*
X132135740Y-110901000D01*
X132069557Y-110894481D01*
X132003373Y-110887963D01*
X131833534Y-110836443D01*
X131677009Y-110752778D01*
X131641271Y-110723448D01*
X131539814Y-110640186D01*
X131456552Y-110538729D01*
X131427222Y-110502991D01*
X131343557Y-110346466D01*
X131292037Y-110176627D01*
X131274641Y-110000000D01*
X131292037Y-109823373D01*
X131343557Y-109653534D01*
X131427222Y-109497009D01*
X131456552Y-109461271D01*
X131539814Y-109359814D01*
X131641271Y-109276552D01*
X131677009Y-109247222D01*
X131833534Y-109163557D01*
X132003373Y-109112037D01*
X132069557Y-109105519D01*
X132135740Y-109099000D01*
X132224260Y-109099000D01*
X132290443Y-109105519D01*
X132290443Y-109105519D01*
G37*
G36*
X134830443Y-109105519D02*
G01*
X134896627Y-109112037D01*
X135066466Y-109163557D01*
X135222991Y-109247222D01*
X135258729Y-109276552D01*
X135360186Y-109359814D01*
X135443448Y-109461271D01*
X135472778Y-109497009D01*
X135556443Y-109653534D01*
X135607963Y-109823373D01*
X135625359Y-110000000D01*
X135607963Y-110176627D01*
X135556443Y-110346466D01*
X135472778Y-110502991D01*
X135443448Y-110538729D01*
X135360186Y-110640186D01*
X135258729Y-110723448D01*
X135222991Y-110752778D01*
X135066466Y-110836443D01*
X134896627Y-110887963D01*
X134830443Y-110894481D01*
X134764260Y-110901000D01*
X134675740Y-110901000D01*
X134609557Y-110894481D01*
X134543373Y-110887963D01*
X134373534Y-110836443D01*
X134217009Y-110752778D01*
X134181271Y-110723448D01*
X134079814Y-110640186D01*
X133996552Y-110538729D01*
X133967222Y-110502991D01*
X133883557Y-110346466D01*
X133832037Y-110176627D01*
X133814641Y-110000000D01*
X133832037Y-109823373D01*
X133883557Y-109653534D01*
X133967222Y-109497009D01*
X133996552Y-109461271D01*
X134079814Y-109359814D01*
X134181271Y-109276552D01*
X134217009Y-109247222D01*
X134373534Y-109163557D01*
X134543373Y-109112037D01*
X134609557Y-109105519D01*
X134675740Y-109099000D01*
X134764260Y-109099000D01*
X134830443Y-109105519D01*
X134830443Y-109105519D01*
G37*
G36*
X165310443Y-109105519D02*
G01*
X165376627Y-109112037D01*
X165546466Y-109163557D01*
X165702991Y-109247222D01*
X165738729Y-109276552D01*
X165840186Y-109359814D01*
X165923448Y-109461271D01*
X165952778Y-109497009D01*
X166036443Y-109653534D01*
X166087963Y-109823373D01*
X166105359Y-110000000D01*
X166087963Y-110176627D01*
X166036443Y-110346466D01*
X165952778Y-110502991D01*
X165923448Y-110538729D01*
X165840186Y-110640186D01*
X165738729Y-110723448D01*
X165702991Y-110752778D01*
X165546466Y-110836443D01*
X165376627Y-110887963D01*
X165310443Y-110894481D01*
X165244260Y-110901000D01*
X165155740Y-110901000D01*
X165089557Y-110894481D01*
X165023373Y-110887963D01*
X164853534Y-110836443D01*
X164697009Y-110752778D01*
X164661271Y-110723448D01*
X164559814Y-110640186D01*
X164476552Y-110538729D01*
X164447222Y-110502991D01*
X164363557Y-110346466D01*
X164312037Y-110176627D01*
X164294641Y-110000000D01*
X164312037Y-109823373D01*
X164363557Y-109653534D01*
X164447222Y-109497009D01*
X164476552Y-109461271D01*
X164559814Y-109359814D01*
X164661271Y-109276552D01*
X164697009Y-109247222D01*
X164853534Y-109163557D01*
X165023373Y-109112037D01*
X165089557Y-109105519D01*
X165155740Y-109099000D01*
X165244260Y-109099000D01*
X165310443Y-109105519D01*
X165310443Y-109105519D01*
G37*
G36*
X147530443Y-109105519D02*
G01*
X147596627Y-109112037D01*
X147766466Y-109163557D01*
X147922991Y-109247222D01*
X147958729Y-109276552D01*
X148060186Y-109359814D01*
X148143448Y-109461271D01*
X148172778Y-109497009D01*
X148256443Y-109653534D01*
X148307963Y-109823373D01*
X148325359Y-110000000D01*
X148307963Y-110176627D01*
X148256443Y-110346466D01*
X148172778Y-110502991D01*
X148143448Y-110538729D01*
X148060186Y-110640186D01*
X147958729Y-110723448D01*
X147922991Y-110752778D01*
X147766466Y-110836443D01*
X147596627Y-110887963D01*
X147530443Y-110894481D01*
X147464260Y-110901000D01*
X147375740Y-110901000D01*
X147309557Y-110894481D01*
X147243373Y-110887963D01*
X147073534Y-110836443D01*
X146917009Y-110752778D01*
X146881271Y-110723448D01*
X146779814Y-110640186D01*
X146696552Y-110538729D01*
X146667222Y-110502991D01*
X146583557Y-110346466D01*
X146532037Y-110176627D01*
X146514641Y-110000000D01*
X146532037Y-109823373D01*
X146583557Y-109653534D01*
X146667222Y-109497009D01*
X146696552Y-109461271D01*
X146779814Y-109359814D01*
X146881271Y-109276552D01*
X146917009Y-109247222D01*
X147073534Y-109163557D01*
X147243373Y-109112037D01*
X147309557Y-109105519D01*
X147375740Y-109099000D01*
X147464260Y-109099000D01*
X147530443Y-109105519D01*
X147530443Y-109105519D01*
G37*
G36*
X139910443Y-109105519D02*
G01*
X139976627Y-109112037D01*
X140146466Y-109163557D01*
X140302991Y-109247222D01*
X140338729Y-109276552D01*
X140440186Y-109359814D01*
X140523448Y-109461271D01*
X140552778Y-109497009D01*
X140636443Y-109653534D01*
X140687963Y-109823373D01*
X140705359Y-110000000D01*
X140687963Y-110176627D01*
X140636443Y-110346466D01*
X140552778Y-110502991D01*
X140523448Y-110538729D01*
X140440186Y-110640186D01*
X140338729Y-110723448D01*
X140302991Y-110752778D01*
X140146466Y-110836443D01*
X139976627Y-110887963D01*
X139910443Y-110894481D01*
X139844260Y-110901000D01*
X139755740Y-110901000D01*
X139689557Y-110894481D01*
X139623373Y-110887963D01*
X139453534Y-110836443D01*
X139297009Y-110752778D01*
X139261271Y-110723448D01*
X139159814Y-110640186D01*
X139076552Y-110538729D01*
X139047222Y-110502991D01*
X138963557Y-110346466D01*
X138912037Y-110176627D01*
X138894641Y-110000000D01*
X138912037Y-109823373D01*
X138963557Y-109653534D01*
X139047222Y-109497009D01*
X139076552Y-109461271D01*
X139159814Y-109359814D01*
X139261271Y-109276552D01*
X139297009Y-109247222D01*
X139453534Y-109163557D01*
X139623373Y-109112037D01*
X139689557Y-109105519D01*
X139755740Y-109099000D01*
X139844260Y-109099000D01*
X139910443Y-109105519D01*
X139910443Y-109105519D01*
G37*
G36*
X142450443Y-109105519D02*
G01*
X142516627Y-109112037D01*
X142686466Y-109163557D01*
X142842991Y-109247222D01*
X142878729Y-109276552D01*
X142980186Y-109359814D01*
X143063448Y-109461271D01*
X143092778Y-109497009D01*
X143176443Y-109653534D01*
X143227963Y-109823373D01*
X143245359Y-110000000D01*
X143227963Y-110176627D01*
X143176443Y-110346466D01*
X143092778Y-110502991D01*
X143063448Y-110538729D01*
X142980186Y-110640186D01*
X142878729Y-110723448D01*
X142842991Y-110752778D01*
X142686466Y-110836443D01*
X142516627Y-110887963D01*
X142450443Y-110894481D01*
X142384260Y-110901000D01*
X142295740Y-110901000D01*
X142229557Y-110894481D01*
X142163373Y-110887963D01*
X141993534Y-110836443D01*
X141837009Y-110752778D01*
X141801271Y-110723448D01*
X141699814Y-110640186D01*
X141616552Y-110538729D01*
X141587222Y-110502991D01*
X141503557Y-110346466D01*
X141452037Y-110176627D01*
X141434641Y-110000000D01*
X141452037Y-109823373D01*
X141503557Y-109653534D01*
X141587222Y-109497009D01*
X141616552Y-109461271D01*
X141699814Y-109359814D01*
X141801271Y-109276552D01*
X141837009Y-109247222D01*
X141993534Y-109163557D01*
X142163373Y-109112037D01*
X142229557Y-109105519D01*
X142295740Y-109099000D01*
X142384260Y-109099000D01*
X142450443Y-109105519D01*
X142450443Y-109105519D01*
G37*
G36*
X144990443Y-109105519D02*
G01*
X145056627Y-109112037D01*
X145226466Y-109163557D01*
X145382991Y-109247222D01*
X145418729Y-109276552D01*
X145520186Y-109359814D01*
X145603448Y-109461271D01*
X145632778Y-109497009D01*
X145716443Y-109653534D01*
X145767963Y-109823373D01*
X145785359Y-110000000D01*
X145767963Y-110176627D01*
X145716443Y-110346466D01*
X145632778Y-110502991D01*
X145603448Y-110538729D01*
X145520186Y-110640186D01*
X145418729Y-110723448D01*
X145382991Y-110752778D01*
X145226466Y-110836443D01*
X145056627Y-110887963D01*
X144990443Y-110894481D01*
X144924260Y-110901000D01*
X144835740Y-110901000D01*
X144769557Y-110894481D01*
X144703373Y-110887963D01*
X144533534Y-110836443D01*
X144377009Y-110752778D01*
X144341271Y-110723448D01*
X144239814Y-110640186D01*
X144156552Y-110538729D01*
X144127222Y-110502991D01*
X144043557Y-110346466D01*
X143992037Y-110176627D01*
X143974641Y-110000000D01*
X143992037Y-109823373D01*
X144043557Y-109653534D01*
X144127222Y-109497009D01*
X144156552Y-109461271D01*
X144239814Y-109359814D01*
X144341271Y-109276552D01*
X144377009Y-109247222D01*
X144533534Y-109163557D01*
X144703373Y-109112037D01*
X144769557Y-109105519D01*
X144835740Y-109099000D01*
X144924260Y-109099000D01*
X144990443Y-109105519D01*
X144990443Y-109105519D01*
G37*
G36*
X188170443Y-109105519D02*
G01*
X188236627Y-109112037D01*
X188406466Y-109163557D01*
X188562991Y-109247222D01*
X188598729Y-109276552D01*
X188700186Y-109359814D01*
X188783448Y-109461271D01*
X188812778Y-109497009D01*
X188896443Y-109653534D01*
X188947963Y-109823373D01*
X188965359Y-110000000D01*
X188947963Y-110176627D01*
X188896443Y-110346466D01*
X188812778Y-110502991D01*
X188783448Y-110538729D01*
X188700186Y-110640186D01*
X188598729Y-110723448D01*
X188562991Y-110752778D01*
X188406466Y-110836443D01*
X188236627Y-110887963D01*
X188170443Y-110894481D01*
X188104260Y-110901000D01*
X188015740Y-110901000D01*
X187949557Y-110894481D01*
X187883373Y-110887963D01*
X187713534Y-110836443D01*
X187557009Y-110752778D01*
X187521271Y-110723448D01*
X187419814Y-110640186D01*
X187336552Y-110538729D01*
X187307222Y-110502991D01*
X187223557Y-110346466D01*
X187172037Y-110176627D01*
X187154641Y-110000000D01*
X187172037Y-109823373D01*
X187223557Y-109653534D01*
X187307222Y-109497009D01*
X187336552Y-109461271D01*
X187419814Y-109359814D01*
X187521271Y-109276552D01*
X187557009Y-109247222D01*
X187713534Y-109163557D01*
X187883373Y-109112037D01*
X187949557Y-109105519D01*
X188015740Y-109099000D01*
X188104260Y-109099000D01*
X188170443Y-109105519D01*
X188170443Y-109105519D01*
G37*
G36*
X150070443Y-109105519D02*
G01*
X150136627Y-109112037D01*
X150306466Y-109163557D01*
X150462991Y-109247222D01*
X150498729Y-109276552D01*
X150600186Y-109359814D01*
X150683448Y-109461271D01*
X150712778Y-109497009D01*
X150796443Y-109653534D01*
X150847963Y-109823373D01*
X150865359Y-110000000D01*
X150847963Y-110176627D01*
X150796443Y-110346466D01*
X150712778Y-110502991D01*
X150683448Y-110538729D01*
X150600186Y-110640186D01*
X150498729Y-110723448D01*
X150462991Y-110752778D01*
X150306466Y-110836443D01*
X150136627Y-110887963D01*
X150070443Y-110894481D01*
X150004260Y-110901000D01*
X149915740Y-110901000D01*
X149849557Y-110894481D01*
X149783373Y-110887963D01*
X149613534Y-110836443D01*
X149457009Y-110752778D01*
X149421271Y-110723448D01*
X149319814Y-110640186D01*
X149236552Y-110538729D01*
X149207222Y-110502991D01*
X149123557Y-110346466D01*
X149072037Y-110176627D01*
X149054641Y-110000000D01*
X149072037Y-109823373D01*
X149123557Y-109653534D01*
X149207222Y-109497009D01*
X149236552Y-109461271D01*
X149319814Y-109359814D01*
X149421271Y-109276552D01*
X149457009Y-109247222D01*
X149613534Y-109163557D01*
X149783373Y-109112037D01*
X149849557Y-109105519D01*
X149915740Y-109099000D01*
X150004260Y-109099000D01*
X150070443Y-109105519D01*
X150070443Y-109105519D01*
G37*
G36*
X152610443Y-109105519D02*
G01*
X152676627Y-109112037D01*
X152846466Y-109163557D01*
X153002991Y-109247222D01*
X153038729Y-109276552D01*
X153140186Y-109359814D01*
X153223448Y-109461271D01*
X153252778Y-109497009D01*
X153336443Y-109653534D01*
X153387963Y-109823373D01*
X153405359Y-110000000D01*
X153387963Y-110176627D01*
X153336443Y-110346466D01*
X153252778Y-110502991D01*
X153223448Y-110538729D01*
X153140186Y-110640186D01*
X153038729Y-110723448D01*
X153002991Y-110752778D01*
X152846466Y-110836443D01*
X152676627Y-110887963D01*
X152610443Y-110894481D01*
X152544260Y-110901000D01*
X152455740Y-110901000D01*
X152389557Y-110894481D01*
X152323373Y-110887963D01*
X152153534Y-110836443D01*
X151997009Y-110752778D01*
X151961271Y-110723448D01*
X151859814Y-110640186D01*
X151776552Y-110538729D01*
X151747222Y-110502991D01*
X151663557Y-110346466D01*
X151612037Y-110176627D01*
X151594641Y-110000000D01*
X151612037Y-109823373D01*
X151663557Y-109653534D01*
X151747222Y-109497009D01*
X151776552Y-109461271D01*
X151859814Y-109359814D01*
X151961271Y-109276552D01*
X151997009Y-109247222D01*
X152153534Y-109163557D01*
X152323373Y-109112037D01*
X152389557Y-109105519D01*
X152455740Y-109099000D01*
X152544260Y-109099000D01*
X152610443Y-109105519D01*
X152610443Y-109105519D01*
G37*
G36*
X155150443Y-109105519D02*
G01*
X155216627Y-109112037D01*
X155386466Y-109163557D01*
X155542991Y-109247222D01*
X155578729Y-109276552D01*
X155680186Y-109359814D01*
X155763448Y-109461271D01*
X155792778Y-109497009D01*
X155876443Y-109653534D01*
X155927963Y-109823373D01*
X155945359Y-110000000D01*
X155927963Y-110176627D01*
X155876443Y-110346466D01*
X155792778Y-110502991D01*
X155763448Y-110538729D01*
X155680186Y-110640186D01*
X155578729Y-110723448D01*
X155542991Y-110752778D01*
X155386466Y-110836443D01*
X155216627Y-110887963D01*
X155150443Y-110894481D01*
X155084260Y-110901000D01*
X154995740Y-110901000D01*
X154929557Y-110894481D01*
X154863373Y-110887963D01*
X154693534Y-110836443D01*
X154537009Y-110752778D01*
X154501271Y-110723448D01*
X154399814Y-110640186D01*
X154316552Y-110538729D01*
X154287222Y-110502991D01*
X154203557Y-110346466D01*
X154152037Y-110176627D01*
X154134641Y-110000000D01*
X154152037Y-109823373D01*
X154203557Y-109653534D01*
X154287222Y-109497009D01*
X154316552Y-109461271D01*
X154399814Y-109359814D01*
X154501271Y-109276552D01*
X154537009Y-109247222D01*
X154693534Y-109163557D01*
X154863373Y-109112037D01*
X154929557Y-109105519D01*
X154995740Y-109099000D01*
X155084260Y-109099000D01*
X155150443Y-109105519D01*
X155150443Y-109105519D01*
G37*
G36*
X157690443Y-109105519D02*
G01*
X157756627Y-109112037D01*
X157926466Y-109163557D01*
X158082991Y-109247222D01*
X158118729Y-109276552D01*
X158220186Y-109359814D01*
X158303448Y-109461271D01*
X158332778Y-109497009D01*
X158416443Y-109653534D01*
X158467963Y-109823373D01*
X158485359Y-110000000D01*
X158467963Y-110176627D01*
X158416443Y-110346466D01*
X158332778Y-110502991D01*
X158303448Y-110538729D01*
X158220186Y-110640186D01*
X158118729Y-110723448D01*
X158082991Y-110752778D01*
X157926466Y-110836443D01*
X157756627Y-110887963D01*
X157690443Y-110894481D01*
X157624260Y-110901000D01*
X157535740Y-110901000D01*
X157469557Y-110894481D01*
X157403373Y-110887963D01*
X157233534Y-110836443D01*
X157077009Y-110752778D01*
X157041271Y-110723448D01*
X156939814Y-110640186D01*
X156856552Y-110538729D01*
X156827222Y-110502991D01*
X156743557Y-110346466D01*
X156692037Y-110176627D01*
X156674641Y-110000000D01*
X156692037Y-109823373D01*
X156743557Y-109653534D01*
X156827222Y-109497009D01*
X156856552Y-109461271D01*
X156939814Y-109359814D01*
X157041271Y-109276552D01*
X157077009Y-109247222D01*
X157233534Y-109163557D01*
X157403373Y-109112037D01*
X157469557Y-109105519D01*
X157535740Y-109099000D01*
X157624260Y-109099000D01*
X157690443Y-109105519D01*
X157690443Y-109105519D01*
G37*
G36*
X160230443Y-109105519D02*
G01*
X160296627Y-109112037D01*
X160466466Y-109163557D01*
X160622991Y-109247222D01*
X160658729Y-109276552D01*
X160760186Y-109359814D01*
X160843448Y-109461271D01*
X160872778Y-109497009D01*
X160956443Y-109653534D01*
X161007963Y-109823373D01*
X161025359Y-110000000D01*
X161007963Y-110176627D01*
X160956443Y-110346466D01*
X160872778Y-110502991D01*
X160843448Y-110538729D01*
X160760186Y-110640186D01*
X160658729Y-110723448D01*
X160622991Y-110752778D01*
X160466466Y-110836443D01*
X160296627Y-110887963D01*
X160230443Y-110894481D01*
X160164260Y-110901000D01*
X160075740Y-110901000D01*
X160009557Y-110894481D01*
X159943373Y-110887963D01*
X159773534Y-110836443D01*
X159617009Y-110752778D01*
X159581271Y-110723448D01*
X159479814Y-110640186D01*
X159396552Y-110538729D01*
X159367222Y-110502991D01*
X159283557Y-110346466D01*
X159232037Y-110176627D01*
X159214641Y-110000000D01*
X159232037Y-109823373D01*
X159283557Y-109653534D01*
X159367222Y-109497009D01*
X159396552Y-109461271D01*
X159479814Y-109359814D01*
X159581271Y-109276552D01*
X159617009Y-109247222D01*
X159773534Y-109163557D01*
X159943373Y-109112037D01*
X160009557Y-109105519D01*
X160075740Y-109099000D01*
X160164260Y-109099000D01*
X160230443Y-109105519D01*
X160230443Y-109105519D01*
G37*
G36*
X162770443Y-109105519D02*
G01*
X162836627Y-109112037D01*
X163006466Y-109163557D01*
X163162991Y-109247222D01*
X163198729Y-109276552D01*
X163300186Y-109359814D01*
X163383448Y-109461271D01*
X163412778Y-109497009D01*
X163496443Y-109653534D01*
X163547963Y-109823373D01*
X163565359Y-110000000D01*
X163547963Y-110176627D01*
X163496443Y-110346466D01*
X163412778Y-110502991D01*
X163383448Y-110538729D01*
X163300186Y-110640186D01*
X163198729Y-110723448D01*
X163162991Y-110752778D01*
X163006466Y-110836443D01*
X162836627Y-110887963D01*
X162770443Y-110894481D01*
X162704260Y-110901000D01*
X162615740Y-110901000D01*
X162549557Y-110894481D01*
X162483373Y-110887963D01*
X162313534Y-110836443D01*
X162157009Y-110752778D01*
X162121271Y-110723448D01*
X162019814Y-110640186D01*
X161936552Y-110538729D01*
X161907222Y-110502991D01*
X161823557Y-110346466D01*
X161772037Y-110176627D01*
X161754641Y-110000000D01*
X161772037Y-109823373D01*
X161823557Y-109653534D01*
X161907222Y-109497009D01*
X161936552Y-109461271D01*
X162019814Y-109359814D01*
X162121271Y-109276552D01*
X162157009Y-109247222D01*
X162313534Y-109163557D01*
X162483373Y-109112037D01*
X162549557Y-109105519D01*
X162615740Y-109099000D01*
X162704260Y-109099000D01*
X162770443Y-109105519D01*
X162770443Y-109105519D01*
G37*
G36*
X167850443Y-109105519D02*
G01*
X167916627Y-109112037D01*
X168086466Y-109163557D01*
X168242991Y-109247222D01*
X168278729Y-109276552D01*
X168380186Y-109359814D01*
X168463448Y-109461271D01*
X168492778Y-109497009D01*
X168576443Y-109653534D01*
X168627963Y-109823373D01*
X168645359Y-110000000D01*
X168627963Y-110176627D01*
X168576443Y-110346466D01*
X168492778Y-110502991D01*
X168463448Y-110538729D01*
X168380186Y-110640186D01*
X168278729Y-110723448D01*
X168242991Y-110752778D01*
X168086466Y-110836443D01*
X167916627Y-110887963D01*
X167850443Y-110894481D01*
X167784260Y-110901000D01*
X167695740Y-110901000D01*
X167629557Y-110894481D01*
X167563373Y-110887963D01*
X167393534Y-110836443D01*
X167237009Y-110752778D01*
X167201271Y-110723448D01*
X167099814Y-110640186D01*
X167016552Y-110538729D01*
X166987222Y-110502991D01*
X166903557Y-110346466D01*
X166852037Y-110176627D01*
X166834641Y-110000000D01*
X166852037Y-109823373D01*
X166903557Y-109653534D01*
X166987222Y-109497009D01*
X167016552Y-109461271D01*
X167099814Y-109359814D01*
X167201271Y-109276552D01*
X167237009Y-109247222D01*
X167393534Y-109163557D01*
X167563373Y-109112037D01*
X167629557Y-109105519D01*
X167695740Y-109099000D01*
X167784260Y-109099000D01*
X167850443Y-109105519D01*
X167850443Y-109105519D01*
G37*
G36*
X185630443Y-109105519D02*
G01*
X185696627Y-109112037D01*
X185866466Y-109163557D01*
X186022991Y-109247222D01*
X186058729Y-109276552D01*
X186160186Y-109359814D01*
X186243448Y-109461271D01*
X186272778Y-109497009D01*
X186356443Y-109653534D01*
X186407963Y-109823373D01*
X186425359Y-110000000D01*
X186407963Y-110176627D01*
X186356443Y-110346466D01*
X186272778Y-110502991D01*
X186243448Y-110538729D01*
X186160186Y-110640186D01*
X186058729Y-110723448D01*
X186022991Y-110752778D01*
X185866466Y-110836443D01*
X185696627Y-110887963D01*
X185630443Y-110894481D01*
X185564260Y-110901000D01*
X185475740Y-110901000D01*
X185409557Y-110894481D01*
X185343373Y-110887963D01*
X185173534Y-110836443D01*
X185017009Y-110752778D01*
X184981271Y-110723448D01*
X184879814Y-110640186D01*
X184796552Y-110538729D01*
X184767222Y-110502991D01*
X184683557Y-110346466D01*
X184632037Y-110176627D01*
X184614641Y-110000000D01*
X184632037Y-109823373D01*
X184683557Y-109653534D01*
X184767222Y-109497009D01*
X184796552Y-109461271D01*
X184879814Y-109359814D01*
X184981271Y-109276552D01*
X185017009Y-109247222D01*
X185173534Y-109163557D01*
X185343373Y-109112037D01*
X185409557Y-109105519D01*
X185475740Y-109099000D01*
X185564260Y-109099000D01*
X185630443Y-109105519D01*
X185630443Y-109105519D01*
G37*
G36*
X183090443Y-109105519D02*
G01*
X183156627Y-109112037D01*
X183326466Y-109163557D01*
X183482991Y-109247222D01*
X183518729Y-109276552D01*
X183620186Y-109359814D01*
X183703448Y-109461271D01*
X183732778Y-109497009D01*
X183816443Y-109653534D01*
X183867963Y-109823373D01*
X183885359Y-110000000D01*
X183867963Y-110176627D01*
X183816443Y-110346466D01*
X183732778Y-110502991D01*
X183703448Y-110538729D01*
X183620186Y-110640186D01*
X183518729Y-110723448D01*
X183482991Y-110752778D01*
X183326466Y-110836443D01*
X183156627Y-110887963D01*
X183090443Y-110894481D01*
X183024260Y-110901000D01*
X182935740Y-110901000D01*
X182869557Y-110894481D01*
X182803373Y-110887963D01*
X182633534Y-110836443D01*
X182477009Y-110752778D01*
X182441271Y-110723448D01*
X182339814Y-110640186D01*
X182256552Y-110538729D01*
X182227222Y-110502991D01*
X182143557Y-110346466D01*
X182092037Y-110176627D01*
X182074641Y-110000000D01*
X182092037Y-109823373D01*
X182143557Y-109653534D01*
X182227222Y-109497009D01*
X182256552Y-109461271D01*
X182339814Y-109359814D01*
X182441271Y-109276552D01*
X182477009Y-109247222D01*
X182633534Y-109163557D01*
X182803373Y-109112037D01*
X182869557Y-109105519D01*
X182935740Y-109099000D01*
X183024260Y-109099000D01*
X183090443Y-109105519D01*
X183090443Y-109105519D01*
G37*
G36*
X180550443Y-109105519D02*
G01*
X180616627Y-109112037D01*
X180786466Y-109163557D01*
X180942991Y-109247222D01*
X180978729Y-109276552D01*
X181080186Y-109359814D01*
X181163448Y-109461271D01*
X181192778Y-109497009D01*
X181276443Y-109653534D01*
X181327963Y-109823373D01*
X181345359Y-110000000D01*
X181327963Y-110176627D01*
X181276443Y-110346466D01*
X181192778Y-110502991D01*
X181163448Y-110538729D01*
X181080186Y-110640186D01*
X180978729Y-110723448D01*
X180942991Y-110752778D01*
X180786466Y-110836443D01*
X180616627Y-110887963D01*
X180550443Y-110894481D01*
X180484260Y-110901000D01*
X180395740Y-110901000D01*
X180329557Y-110894481D01*
X180263373Y-110887963D01*
X180093534Y-110836443D01*
X179937009Y-110752778D01*
X179901271Y-110723448D01*
X179799814Y-110640186D01*
X179716552Y-110538729D01*
X179687222Y-110502991D01*
X179603557Y-110346466D01*
X179552037Y-110176627D01*
X179534641Y-110000000D01*
X179552037Y-109823373D01*
X179603557Y-109653534D01*
X179687222Y-109497009D01*
X179716552Y-109461271D01*
X179799814Y-109359814D01*
X179901271Y-109276552D01*
X179937009Y-109247222D01*
X180093534Y-109163557D01*
X180263373Y-109112037D01*
X180329557Y-109105519D01*
X180395740Y-109099000D01*
X180484260Y-109099000D01*
X180550443Y-109105519D01*
X180550443Y-109105519D01*
G37*
G36*
X178010443Y-109105519D02*
G01*
X178076627Y-109112037D01*
X178246466Y-109163557D01*
X178402991Y-109247222D01*
X178438729Y-109276552D01*
X178540186Y-109359814D01*
X178623448Y-109461271D01*
X178652778Y-109497009D01*
X178736443Y-109653534D01*
X178787963Y-109823373D01*
X178805359Y-110000000D01*
X178787963Y-110176627D01*
X178736443Y-110346466D01*
X178652778Y-110502991D01*
X178623448Y-110538729D01*
X178540186Y-110640186D01*
X178438729Y-110723448D01*
X178402991Y-110752778D01*
X178246466Y-110836443D01*
X178076627Y-110887963D01*
X178010443Y-110894481D01*
X177944260Y-110901000D01*
X177855740Y-110901000D01*
X177789557Y-110894481D01*
X177723373Y-110887963D01*
X177553534Y-110836443D01*
X177397009Y-110752778D01*
X177361271Y-110723448D01*
X177259814Y-110640186D01*
X177176552Y-110538729D01*
X177147222Y-110502991D01*
X177063557Y-110346466D01*
X177012037Y-110176627D01*
X176994641Y-110000000D01*
X177012037Y-109823373D01*
X177063557Y-109653534D01*
X177147222Y-109497009D01*
X177176552Y-109461271D01*
X177259814Y-109359814D01*
X177361271Y-109276552D01*
X177397009Y-109247222D01*
X177553534Y-109163557D01*
X177723373Y-109112037D01*
X177789557Y-109105519D01*
X177855740Y-109099000D01*
X177944260Y-109099000D01*
X178010443Y-109105519D01*
X178010443Y-109105519D01*
G37*
G36*
X172930443Y-109105519D02*
G01*
X172996627Y-109112037D01*
X173166466Y-109163557D01*
X173322991Y-109247222D01*
X173358729Y-109276552D01*
X173460186Y-109359814D01*
X173543448Y-109461271D01*
X173572778Y-109497009D01*
X173656443Y-109653534D01*
X173707963Y-109823373D01*
X173725359Y-110000000D01*
X173707963Y-110176627D01*
X173656443Y-110346466D01*
X173572778Y-110502991D01*
X173543448Y-110538729D01*
X173460186Y-110640186D01*
X173358729Y-110723448D01*
X173322991Y-110752778D01*
X173166466Y-110836443D01*
X172996627Y-110887963D01*
X172930443Y-110894481D01*
X172864260Y-110901000D01*
X172775740Y-110901000D01*
X172709557Y-110894481D01*
X172643373Y-110887963D01*
X172473534Y-110836443D01*
X172317009Y-110752778D01*
X172281271Y-110723448D01*
X172179814Y-110640186D01*
X172096552Y-110538729D01*
X172067222Y-110502991D01*
X171983557Y-110346466D01*
X171932037Y-110176627D01*
X171914641Y-110000000D01*
X171932037Y-109823373D01*
X171983557Y-109653534D01*
X172067222Y-109497009D01*
X172096552Y-109461271D01*
X172179814Y-109359814D01*
X172281271Y-109276552D01*
X172317009Y-109247222D01*
X172473534Y-109163557D01*
X172643373Y-109112037D01*
X172709557Y-109105519D01*
X172775740Y-109099000D01*
X172864260Y-109099000D01*
X172930443Y-109105519D01*
X172930443Y-109105519D01*
G37*
G36*
X137370443Y-109105519D02*
G01*
X137436627Y-109112037D01*
X137606466Y-109163557D01*
X137762991Y-109247222D01*
X137798729Y-109276552D01*
X137900186Y-109359814D01*
X137983448Y-109461271D01*
X138012778Y-109497009D01*
X138096443Y-109653534D01*
X138147963Y-109823373D01*
X138165359Y-110000000D01*
X138147963Y-110176627D01*
X138096443Y-110346466D01*
X138012778Y-110502991D01*
X137983448Y-110538729D01*
X137900186Y-110640186D01*
X137798729Y-110723448D01*
X137762991Y-110752778D01*
X137606466Y-110836443D01*
X137436627Y-110887963D01*
X137370443Y-110894481D01*
X137304260Y-110901000D01*
X137215740Y-110901000D01*
X137149557Y-110894481D01*
X137083373Y-110887963D01*
X136913534Y-110836443D01*
X136757009Y-110752778D01*
X136721271Y-110723448D01*
X136619814Y-110640186D01*
X136536552Y-110538729D01*
X136507222Y-110502991D01*
X136423557Y-110346466D01*
X136372037Y-110176627D01*
X136354641Y-110000000D01*
X136372037Y-109823373D01*
X136423557Y-109653534D01*
X136507222Y-109497009D01*
X136536552Y-109461271D01*
X136619814Y-109359814D01*
X136721271Y-109276552D01*
X136757009Y-109247222D01*
X136913534Y-109163557D01*
X137083373Y-109112037D01*
X137149557Y-109105519D01*
X137215740Y-109099000D01*
X137304260Y-109099000D01*
X137370443Y-109105519D01*
X137370443Y-109105519D01*
G37*
G36*
X170390443Y-109105519D02*
G01*
X170456627Y-109112037D01*
X170626466Y-109163557D01*
X170782991Y-109247222D01*
X170818729Y-109276552D01*
X170920186Y-109359814D01*
X171003448Y-109461271D01*
X171032778Y-109497009D01*
X171116443Y-109653534D01*
X171167963Y-109823373D01*
X171185359Y-110000000D01*
X171167963Y-110176627D01*
X171116443Y-110346466D01*
X171032778Y-110502991D01*
X171003448Y-110538729D01*
X170920186Y-110640186D01*
X170818729Y-110723448D01*
X170782991Y-110752778D01*
X170626466Y-110836443D01*
X170456627Y-110887963D01*
X170390443Y-110894481D01*
X170324260Y-110901000D01*
X170235740Y-110901000D01*
X170169557Y-110894481D01*
X170103373Y-110887963D01*
X169933534Y-110836443D01*
X169777009Y-110752778D01*
X169741271Y-110723448D01*
X169639814Y-110640186D01*
X169556552Y-110538729D01*
X169527222Y-110502991D01*
X169443557Y-110346466D01*
X169392037Y-110176627D01*
X169374641Y-110000000D01*
X169392037Y-109823373D01*
X169443557Y-109653534D01*
X169527222Y-109497009D01*
X169556552Y-109461271D01*
X169639814Y-109359814D01*
X169741271Y-109276552D01*
X169777009Y-109247222D01*
X169933534Y-109163557D01*
X170103373Y-109112037D01*
X170169557Y-109105519D01*
X170235740Y-109099000D01*
X170324260Y-109099000D01*
X170390443Y-109105519D01*
X170390443Y-109105519D01*
G37*
G36*
X175470443Y-109105519D02*
G01*
X175536627Y-109112037D01*
X175706466Y-109163557D01*
X175862991Y-109247222D01*
X175898729Y-109276552D01*
X176000186Y-109359814D01*
X176083448Y-109461271D01*
X176112778Y-109497009D01*
X176196443Y-109653534D01*
X176247963Y-109823373D01*
X176265359Y-110000000D01*
X176247963Y-110176627D01*
X176196443Y-110346466D01*
X176112778Y-110502991D01*
X176083448Y-110538729D01*
X176000186Y-110640186D01*
X175898729Y-110723448D01*
X175862991Y-110752778D01*
X175706466Y-110836443D01*
X175536627Y-110887963D01*
X175470443Y-110894481D01*
X175404260Y-110901000D01*
X175315740Y-110901000D01*
X175249557Y-110894481D01*
X175183373Y-110887963D01*
X175013534Y-110836443D01*
X174857009Y-110752778D01*
X174821271Y-110723448D01*
X174719814Y-110640186D01*
X174636552Y-110538729D01*
X174607222Y-110502991D01*
X174523557Y-110346466D01*
X174472037Y-110176627D01*
X174454641Y-110000000D01*
X174472037Y-109823373D01*
X174523557Y-109653534D01*
X174607222Y-109497009D01*
X174636552Y-109461271D01*
X174719814Y-109359814D01*
X174821271Y-109276552D01*
X174857009Y-109247222D01*
X175013534Y-109163557D01*
X175183373Y-109112037D01*
X175249557Y-109105519D01*
X175315740Y-109099000D01*
X175404260Y-109099000D01*
X175470443Y-109105519D01*
X175470443Y-109105519D01*
G37*
G36*
X154406822Y-97761313D02*
G01*
X154567241Y-97809976D01*
X154715077Y-97888995D01*
X154834787Y-97987239D01*
X154844659Y-97995341D01*
X154951004Y-98124922D01*
X154951005Y-98124924D01*
X155030024Y-98272758D01*
X155078687Y-98433177D01*
X155091000Y-98558196D01*
X155091000Y-99441803D01*
X155078687Y-99566822D01*
X155030024Y-99727242D01*
X154959114Y-99859906D01*
X154951004Y-99875078D01*
X154844659Y-100004659D01*
X154715078Y-100111004D01*
X154715076Y-100111005D01*
X154567242Y-100190024D01*
X154406823Y-100238687D01*
X154240000Y-100255117D01*
X154073178Y-100238687D01*
X153912759Y-100190024D01*
X153764925Y-100111005D01*
X153764923Y-100111004D01*
X153635342Y-100004659D01*
X153528997Y-99875078D01*
X153520887Y-99859906D01*
X153449977Y-99727242D01*
X153401314Y-99566823D01*
X153389000Y-99441803D01*
X153389000Y-98558197D01*
X153401313Y-98433178D01*
X153449976Y-98272759D01*
X153528995Y-98124923D01*
X153635341Y-97995341D01*
X153645213Y-97987239D01*
X153764922Y-97888996D01*
X153780094Y-97880886D01*
X153912758Y-97809976D01*
X154073177Y-97761313D01*
X154240000Y-97744883D01*
X154406822Y-97761313D01*
X154406822Y-97761313D01*
G37*
G36*
X151866822Y-97761313D02*
G01*
X152027241Y-97809976D01*
X152175077Y-97888995D01*
X152294787Y-97987239D01*
X152304659Y-97995341D01*
X152411004Y-98124922D01*
X152411005Y-98124924D01*
X152490024Y-98272758D01*
X152538687Y-98433177D01*
X152551000Y-98558196D01*
X152551000Y-99441803D01*
X152538687Y-99566822D01*
X152490024Y-99727242D01*
X152419114Y-99859906D01*
X152411004Y-99875078D01*
X152304659Y-100004659D01*
X152175078Y-100111004D01*
X152175076Y-100111005D01*
X152027242Y-100190024D01*
X151866823Y-100238687D01*
X151700000Y-100255117D01*
X151533178Y-100238687D01*
X151372759Y-100190024D01*
X151224925Y-100111005D01*
X151224923Y-100111004D01*
X151095342Y-100004659D01*
X150988997Y-99875078D01*
X150980887Y-99859906D01*
X150909977Y-99727242D01*
X150861314Y-99566823D01*
X150849000Y-99441803D01*
X150849000Y-98558197D01*
X150861313Y-98433178D01*
X150909976Y-98272759D01*
X150988995Y-98124923D01*
X151095341Y-97995341D01*
X151105213Y-97987239D01*
X151224922Y-97888996D01*
X151240094Y-97880886D01*
X151372758Y-97809976D01*
X151533177Y-97761313D01*
X151700000Y-97744883D01*
X151866822Y-97761313D01*
X151866822Y-97761313D01*
G37*
G36*
X149326822Y-97761313D02*
G01*
X149487241Y-97809976D01*
X149635077Y-97888995D01*
X149754787Y-97987239D01*
X149764659Y-97995341D01*
X149871004Y-98124922D01*
X149871005Y-98124924D01*
X149950024Y-98272758D01*
X149998687Y-98433177D01*
X150011000Y-98558196D01*
X150011000Y-99441803D01*
X149998687Y-99566822D01*
X149950024Y-99727242D01*
X149879114Y-99859906D01*
X149871004Y-99875078D01*
X149764659Y-100004659D01*
X149635078Y-100111004D01*
X149635076Y-100111005D01*
X149487242Y-100190024D01*
X149326823Y-100238687D01*
X149160000Y-100255117D01*
X148993178Y-100238687D01*
X148832759Y-100190024D01*
X148684925Y-100111005D01*
X148684923Y-100111004D01*
X148555342Y-100004659D01*
X148448997Y-99875078D01*
X148440887Y-99859906D01*
X148369977Y-99727242D01*
X148321314Y-99566823D01*
X148309000Y-99441803D01*
X148309000Y-98558197D01*
X148321313Y-98433178D01*
X148369976Y-98272759D01*
X148448995Y-98124923D01*
X148555341Y-97995341D01*
X148565213Y-97987239D01*
X148684922Y-97888996D01*
X148700094Y-97880886D01*
X148832758Y-97809976D01*
X148993177Y-97761313D01*
X149160000Y-97744883D01*
X149326822Y-97761313D01*
X149326822Y-97761313D01*
G37*
G36*
X146786822Y-97761313D02*
G01*
X146947241Y-97809976D01*
X147095077Y-97888995D01*
X147214787Y-97987239D01*
X147224659Y-97995341D01*
X147331004Y-98124922D01*
X147331005Y-98124924D01*
X147410024Y-98272758D01*
X147458687Y-98433177D01*
X147471000Y-98558196D01*
X147471000Y-99441803D01*
X147458687Y-99566822D01*
X147410024Y-99727242D01*
X147339114Y-99859906D01*
X147331004Y-99875078D01*
X147224659Y-100004659D01*
X147095078Y-100111004D01*
X147095076Y-100111005D01*
X146947242Y-100190024D01*
X146786823Y-100238687D01*
X146620000Y-100255117D01*
X146453178Y-100238687D01*
X146292759Y-100190024D01*
X146144925Y-100111005D01*
X146144923Y-100111004D01*
X146015342Y-100004659D01*
X145908997Y-99875078D01*
X145900887Y-99859906D01*
X145829977Y-99727242D01*
X145781314Y-99566823D01*
X145769000Y-99441803D01*
X145769000Y-98558197D01*
X145781313Y-98433178D01*
X145829976Y-98272759D01*
X145908995Y-98124923D01*
X146015341Y-97995341D01*
X146025213Y-97987239D01*
X146144922Y-97888996D01*
X146160094Y-97880886D01*
X146292758Y-97809976D01*
X146453177Y-97761313D01*
X146620000Y-97744883D01*
X146786822Y-97761313D01*
X146786822Y-97761313D01*
G37*
G36*
X144246822Y-97761313D02*
G01*
X144407241Y-97809976D01*
X144555077Y-97888995D01*
X144674787Y-97987239D01*
X144684659Y-97995341D01*
X144791004Y-98124922D01*
X144791005Y-98124924D01*
X144870024Y-98272758D01*
X144918687Y-98433177D01*
X144931000Y-98558196D01*
X144931000Y-99441803D01*
X144918687Y-99566822D01*
X144870024Y-99727242D01*
X144799114Y-99859906D01*
X144791004Y-99875078D01*
X144684659Y-100004659D01*
X144555078Y-100111004D01*
X144555076Y-100111005D01*
X144407242Y-100190024D01*
X144246823Y-100238687D01*
X144080000Y-100255117D01*
X143913178Y-100238687D01*
X143752759Y-100190024D01*
X143604925Y-100111005D01*
X143604923Y-100111004D01*
X143475342Y-100004659D01*
X143368997Y-99875078D01*
X143360887Y-99859906D01*
X143289977Y-99727242D01*
X143241314Y-99566823D01*
X143229000Y-99441803D01*
X143229000Y-98558197D01*
X143241313Y-98433178D01*
X143289976Y-98272759D01*
X143368995Y-98124923D01*
X143475341Y-97995341D01*
X143485213Y-97987239D01*
X143604922Y-97888996D01*
X143620094Y-97880886D01*
X143752758Y-97809976D01*
X143913177Y-97761313D01*
X144080000Y-97744883D01*
X144246822Y-97761313D01*
X144246822Y-97761313D01*
G37*
G36*
X141706822Y-97761313D02*
G01*
X141867241Y-97809976D01*
X142015077Y-97888995D01*
X142134787Y-97987239D01*
X142144659Y-97995341D01*
X142251004Y-98124922D01*
X142251005Y-98124924D01*
X142330024Y-98272758D01*
X142378687Y-98433177D01*
X142391000Y-98558196D01*
X142391000Y-99441803D01*
X142378687Y-99566822D01*
X142330024Y-99727242D01*
X142259114Y-99859906D01*
X142251004Y-99875078D01*
X142144659Y-100004659D01*
X142015078Y-100111004D01*
X142015076Y-100111005D01*
X141867242Y-100190024D01*
X141706823Y-100238687D01*
X141540000Y-100255117D01*
X141373178Y-100238687D01*
X141212759Y-100190024D01*
X141064925Y-100111005D01*
X141064923Y-100111004D01*
X140935342Y-100004659D01*
X140828997Y-99875078D01*
X140820887Y-99859906D01*
X140749977Y-99727242D01*
X140701314Y-99566823D01*
X140689000Y-99441803D01*
X140689000Y-98558197D01*
X140701313Y-98433178D01*
X140749976Y-98272759D01*
X140828995Y-98124923D01*
X140935341Y-97995341D01*
X140945213Y-97987239D01*
X141064922Y-97888996D01*
X141080094Y-97880886D01*
X141212758Y-97809976D01*
X141373177Y-97761313D01*
X141540000Y-97744883D01*
X141706822Y-97761313D01*
X141706822Y-97761313D01*
G37*
G36*
X139166822Y-97761313D02*
G01*
X139327241Y-97809976D01*
X139475077Y-97888995D01*
X139594787Y-97987239D01*
X139604659Y-97995341D01*
X139711004Y-98124922D01*
X139711005Y-98124924D01*
X139790024Y-98272758D01*
X139838687Y-98433177D01*
X139851000Y-98558196D01*
X139851000Y-99441803D01*
X139838687Y-99566822D01*
X139790024Y-99727242D01*
X139719114Y-99859906D01*
X139711004Y-99875078D01*
X139604659Y-100004659D01*
X139475078Y-100111004D01*
X139475076Y-100111005D01*
X139327242Y-100190024D01*
X139166823Y-100238687D01*
X139000000Y-100255117D01*
X138833178Y-100238687D01*
X138672759Y-100190024D01*
X138524925Y-100111005D01*
X138524923Y-100111004D01*
X138395342Y-100004659D01*
X138288997Y-99875078D01*
X138280887Y-99859906D01*
X138209977Y-99727242D01*
X138161314Y-99566823D01*
X138149000Y-99441803D01*
X138149000Y-98558197D01*
X138161313Y-98433178D01*
X138209976Y-98272759D01*
X138288995Y-98124923D01*
X138395341Y-97995341D01*
X138405213Y-97987239D01*
X138524922Y-97888996D01*
X138540094Y-97880886D01*
X138672758Y-97809976D01*
X138833177Y-97761313D01*
X139000000Y-97744883D01*
X139166822Y-97761313D01*
X139166822Y-97761313D01*
G37*
G36*
X136626822Y-97761313D02*
G01*
X136787241Y-97809976D01*
X136935077Y-97888995D01*
X137054787Y-97987239D01*
X137064659Y-97995341D01*
X137171004Y-98124922D01*
X137171005Y-98124924D01*
X137250024Y-98272758D01*
X137298687Y-98433177D01*
X137311000Y-98558196D01*
X137311000Y-99441803D01*
X137298687Y-99566822D01*
X137250024Y-99727242D01*
X137179114Y-99859906D01*
X137171004Y-99875078D01*
X137064659Y-100004659D01*
X136935078Y-100111004D01*
X136935076Y-100111005D01*
X136787242Y-100190024D01*
X136626823Y-100238687D01*
X136460000Y-100255117D01*
X136293178Y-100238687D01*
X136132759Y-100190024D01*
X135984925Y-100111005D01*
X135984923Y-100111004D01*
X135855342Y-100004659D01*
X135748997Y-99875078D01*
X135740887Y-99859906D01*
X135669977Y-99727242D01*
X135621314Y-99566823D01*
X135609000Y-99441803D01*
X135609000Y-98558197D01*
X135621313Y-98433178D01*
X135669976Y-98272759D01*
X135748995Y-98124923D01*
X135855341Y-97995341D01*
X135865213Y-97987239D01*
X135984922Y-97888996D01*
X136000094Y-97880886D01*
X136132758Y-97809976D01*
X136293177Y-97761313D01*
X136460000Y-97744883D01*
X136626822Y-97761313D01*
X136626822Y-97761313D01*
G37*
G36*
X134086822Y-97761313D02*
G01*
X134247241Y-97809976D01*
X134395077Y-97888995D01*
X134514787Y-97987239D01*
X134524659Y-97995341D01*
X134631004Y-98124922D01*
X134631005Y-98124924D01*
X134710024Y-98272758D01*
X134758687Y-98433177D01*
X134771000Y-98558196D01*
X134771000Y-99441803D01*
X134758687Y-99566822D01*
X134710024Y-99727242D01*
X134639114Y-99859906D01*
X134631004Y-99875078D01*
X134524659Y-100004659D01*
X134395078Y-100111004D01*
X134395076Y-100111005D01*
X134247242Y-100190024D01*
X134086823Y-100238687D01*
X133920000Y-100255117D01*
X133753178Y-100238687D01*
X133592759Y-100190024D01*
X133444925Y-100111005D01*
X133444923Y-100111004D01*
X133315342Y-100004659D01*
X133208997Y-99875078D01*
X133200887Y-99859906D01*
X133129977Y-99727242D01*
X133081314Y-99566823D01*
X133069000Y-99441803D01*
X133069000Y-98558197D01*
X133081313Y-98433178D01*
X133129976Y-98272759D01*
X133208995Y-98124923D01*
X133315341Y-97995341D01*
X133325213Y-97987239D01*
X133444922Y-97888996D01*
X133460094Y-97880886D01*
X133592758Y-97809976D01*
X133753177Y-97761313D01*
X133920000Y-97744883D01*
X134086822Y-97761313D01*
X134086822Y-97761313D01*
G37*
G36*
X131546822Y-97761313D02*
G01*
X131707241Y-97809976D01*
X131855077Y-97888995D01*
X131974787Y-97987239D01*
X131984659Y-97995341D01*
X132091004Y-98124922D01*
X132091005Y-98124924D01*
X132170024Y-98272758D01*
X132218687Y-98433177D01*
X132231000Y-98558196D01*
X132231000Y-99441803D01*
X132218687Y-99566822D01*
X132170024Y-99727242D01*
X132099114Y-99859906D01*
X132091004Y-99875078D01*
X131984659Y-100004659D01*
X131855078Y-100111004D01*
X131855076Y-100111005D01*
X131707242Y-100190024D01*
X131546823Y-100238687D01*
X131380000Y-100255117D01*
X131213178Y-100238687D01*
X131052759Y-100190024D01*
X130904925Y-100111005D01*
X130904923Y-100111004D01*
X130775342Y-100004659D01*
X130668997Y-99875078D01*
X130660887Y-99859906D01*
X130589977Y-99727242D01*
X130541314Y-99566823D01*
X130529000Y-99441803D01*
X130529000Y-98558197D01*
X130541313Y-98433178D01*
X130589976Y-98272759D01*
X130668995Y-98124923D01*
X130775341Y-97995341D01*
X130785213Y-97987239D01*
X130904922Y-97888996D01*
X130920094Y-97880886D01*
X131052758Y-97809976D01*
X131213177Y-97761313D01*
X131380000Y-97744883D01*
X131546822Y-97761313D01*
X131546822Y-97761313D01*
G37*
G36*
X129006822Y-97761313D02*
G01*
X129167241Y-97809976D01*
X129315077Y-97888995D01*
X129434787Y-97987239D01*
X129444659Y-97995341D01*
X129551004Y-98124922D01*
X129551005Y-98124924D01*
X129630024Y-98272758D01*
X129678687Y-98433177D01*
X129691000Y-98558196D01*
X129691000Y-99441803D01*
X129678687Y-99566822D01*
X129630024Y-99727242D01*
X129559114Y-99859906D01*
X129551004Y-99875078D01*
X129444659Y-100004659D01*
X129315078Y-100111004D01*
X129315076Y-100111005D01*
X129167242Y-100190024D01*
X129006823Y-100238687D01*
X128840000Y-100255117D01*
X128673178Y-100238687D01*
X128512759Y-100190024D01*
X128364925Y-100111005D01*
X128364923Y-100111004D01*
X128235342Y-100004659D01*
X128128997Y-99875078D01*
X128120887Y-99859906D01*
X128049977Y-99727242D01*
X128001314Y-99566823D01*
X127989000Y-99441803D01*
X127989000Y-98558197D01*
X128001313Y-98433178D01*
X128049976Y-98272759D01*
X128128995Y-98124923D01*
X128235341Y-97995341D01*
X128245213Y-97987239D01*
X128364922Y-97888996D01*
X128380094Y-97880886D01*
X128512758Y-97809976D01*
X128673177Y-97761313D01*
X128840000Y-97744883D01*
X129006822Y-97761313D01*
X129006822Y-97761313D01*
G37*
G36*
X126466822Y-97761313D02*
G01*
X126627241Y-97809976D01*
X126775077Y-97888995D01*
X126894787Y-97987239D01*
X126904659Y-97995341D01*
X127011004Y-98124922D01*
X127011005Y-98124924D01*
X127090024Y-98272758D01*
X127138687Y-98433177D01*
X127151000Y-98558196D01*
X127151000Y-99441803D01*
X127138687Y-99566822D01*
X127090024Y-99727242D01*
X127019114Y-99859906D01*
X127011004Y-99875078D01*
X126904659Y-100004659D01*
X126775078Y-100111004D01*
X126775076Y-100111005D01*
X126627242Y-100190024D01*
X126466823Y-100238687D01*
X126300000Y-100255117D01*
X126133178Y-100238687D01*
X125972759Y-100190024D01*
X125824925Y-100111005D01*
X125824923Y-100111004D01*
X125695342Y-100004659D01*
X125588997Y-99875078D01*
X125580887Y-99859906D01*
X125509977Y-99727242D01*
X125461314Y-99566823D01*
X125449000Y-99441803D01*
X125449000Y-98558197D01*
X125461313Y-98433178D01*
X125509976Y-98272759D01*
X125588995Y-98124923D01*
X125695341Y-97995341D01*
X125705213Y-97987239D01*
X125824922Y-97888996D01*
X125840094Y-97880886D01*
X125972758Y-97809976D01*
X126133177Y-97761313D01*
X126300000Y-97744883D01*
X126466822Y-97761313D01*
X126466822Y-97761313D01*
G37*
G36*
X123926822Y-97761313D02*
G01*
X124087241Y-97809976D01*
X124235077Y-97888995D01*
X124354787Y-97987239D01*
X124364659Y-97995341D01*
X124471004Y-98124922D01*
X124471005Y-98124924D01*
X124550024Y-98272758D01*
X124598687Y-98433177D01*
X124611000Y-98558196D01*
X124611000Y-99441803D01*
X124598687Y-99566822D01*
X124550024Y-99727242D01*
X124479114Y-99859906D01*
X124471004Y-99875078D01*
X124364659Y-100004659D01*
X124235078Y-100111004D01*
X124235076Y-100111005D01*
X124087242Y-100190024D01*
X123926823Y-100238687D01*
X123760000Y-100255117D01*
X123593178Y-100238687D01*
X123432759Y-100190024D01*
X123284925Y-100111005D01*
X123284923Y-100111004D01*
X123155342Y-100004659D01*
X123048997Y-99875078D01*
X123040887Y-99859906D01*
X122969977Y-99727242D01*
X122921314Y-99566823D01*
X122909000Y-99441803D01*
X122909000Y-98558197D01*
X122921313Y-98433178D01*
X122969976Y-98272759D01*
X123048995Y-98124923D01*
X123155341Y-97995341D01*
X123165213Y-97987239D01*
X123284922Y-97888996D01*
X123300094Y-97880886D01*
X123432758Y-97809976D01*
X123593177Y-97761313D01*
X123760000Y-97744883D01*
X123926822Y-97761313D01*
X123926822Y-97761313D01*
G37*
G36*
X122071000Y-100251000D02*
G01*
X120369000Y-100251000D01*
X120369000Y-97749000D01*
X122071000Y-97749000D01*
X122071000Y-100251000D01*
X122071000Y-100251000D01*
G37*
G36*
X185166823Y-96821313D02*
G01*
X185327242Y-96869976D01*
X185459906Y-96940886D01*
X185475078Y-96948996D01*
X185604659Y-97055341D01*
X185711004Y-97184922D01*
X185711005Y-97184924D01*
X185790024Y-97332758D01*
X185838687Y-97493177D01*
X185855117Y-97660000D01*
X185838687Y-97826823D01*
X185790024Y-97987242D01*
X185719114Y-98119906D01*
X185711004Y-98135078D01*
X185604659Y-98264659D01*
X185475078Y-98371004D01*
X185475076Y-98371005D01*
X185327242Y-98450024D01*
X185166823Y-98498687D01*
X185041804Y-98511000D01*
X184958196Y-98511000D01*
X184833177Y-98498687D01*
X184672758Y-98450024D01*
X184524924Y-98371005D01*
X184524922Y-98371004D01*
X184395341Y-98264659D01*
X184288996Y-98135078D01*
X184280886Y-98119906D01*
X184209976Y-97987242D01*
X184161313Y-97826823D01*
X184144883Y-97660000D01*
X184161313Y-97493177D01*
X184209976Y-97332758D01*
X184288995Y-97184924D01*
X184288996Y-97184922D01*
X184395341Y-97055341D01*
X184524922Y-96948996D01*
X184540094Y-96940886D01*
X184672758Y-96869976D01*
X184833177Y-96821313D01*
X184958196Y-96809000D01*
X185041804Y-96809000D01*
X185166823Y-96821313D01*
X185166823Y-96821313D01*
G37*
G36*
X177866822Y-93881313D02*
G01*
X178027241Y-93929976D01*
X178175077Y-94008995D01*
X178304659Y-94115341D01*
X178411004Y-94244922D01*
X178411005Y-94244924D01*
X178490024Y-94392758D01*
X178538687Y-94553177D01*
X178551000Y-94678196D01*
X178551000Y-95561803D01*
X178538687Y-95686822D01*
X178490024Y-95847242D01*
X178419114Y-95979906D01*
X178411004Y-95995078D01*
X178304659Y-96124659D01*
X178175078Y-96231004D01*
X178175076Y-96231005D01*
X178027242Y-96310024D01*
X177866823Y-96358687D01*
X177700000Y-96375117D01*
X177533178Y-96358687D01*
X177372759Y-96310024D01*
X177224925Y-96231005D01*
X177224923Y-96231004D01*
X177095342Y-96124659D01*
X176988997Y-95995078D01*
X176980887Y-95979906D01*
X176909977Y-95847242D01*
X176861314Y-95686823D01*
X176849000Y-95561803D01*
X176849000Y-94678197D01*
X176861313Y-94553178D01*
X176909976Y-94392759D01*
X176988995Y-94244923D01*
X177095341Y-94115341D01*
X177224922Y-94008996D01*
X177240094Y-94000886D01*
X177372758Y-93929976D01*
X177533177Y-93881313D01*
X177700000Y-93864883D01*
X177866822Y-93881313D01*
X177866822Y-93881313D01*
G37*
G36*
X165166822Y-93881313D02*
G01*
X165327241Y-93929976D01*
X165475077Y-94008995D01*
X165604659Y-94115341D01*
X165711004Y-94244922D01*
X165711005Y-94244924D01*
X165790024Y-94392758D01*
X165838687Y-94553177D01*
X165851000Y-94678196D01*
X165851000Y-95561803D01*
X165838687Y-95686822D01*
X165790024Y-95847242D01*
X165719114Y-95979906D01*
X165711004Y-95995078D01*
X165604659Y-96124659D01*
X165475078Y-96231004D01*
X165475076Y-96231005D01*
X165327242Y-96310024D01*
X165166823Y-96358687D01*
X165000000Y-96375117D01*
X164833178Y-96358687D01*
X164672759Y-96310024D01*
X164524925Y-96231005D01*
X164524923Y-96231004D01*
X164395342Y-96124659D01*
X164288997Y-95995078D01*
X164280887Y-95979906D01*
X164209977Y-95847242D01*
X164161314Y-95686823D01*
X164149000Y-95561803D01*
X164149000Y-94678197D01*
X164161313Y-94553178D01*
X164209976Y-94392759D01*
X164288995Y-94244923D01*
X164395341Y-94115341D01*
X164524922Y-94008996D01*
X164540094Y-94000886D01*
X164672758Y-93929976D01*
X164833177Y-93881313D01*
X165000000Y-93864883D01*
X165166822Y-93881313D01*
X165166822Y-93881313D01*
G37*
G36*
X167706822Y-93881313D02*
G01*
X167867241Y-93929976D01*
X168015077Y-94008995D01*
X168144659Y-94115341D01*
X168251004Y-94244922D01*
X168251005Y-94244924D01*
X168330024Y-94392758D01*
X168378687Y-94553177D01*
X168391000Y-94678196D01*
X168391000Y-95561803D01*
X168378687Y-95686822D01*
X168330024Y-95847242D01*
X168259114Y-95979906D01*
X168251004Y-95995078D01*
X168144659Y-96124659D01*
X168015078Y-96231004D01*
X168015076Y-96231005D01*
X167867242Y-96310024D01*
X167706823Y-96358687D01*
X167540000Y-96375117D01*
X167373178Y-96358687D01*
X167212759Y-96310024D01*
X167064925Y-96231005D01*
X167064923Y-96231004D01*
X166935342Y-96124659D01*
X166828997Y-95995078D01*
X166820887Y-95979906D01*
X166749977Y-95847242D01*
X166701314Y-95686823D01*
X166689000Y-95561803D01*
X166689000Y-94678197D01*
X166701313Y-94553178D01*
X166749976Y-94392759D01*
X166828995Y-94244923D01*
X166935341Y-94115341D01*
X167064922Y-94008996D01*
X167080094Y-94000886D01*
X167212758Y-93929976D01*
X167373177Y-93881313D01*
X167540000Y-93864883D01*
X167706822Y-93881313D01*
X167706822Y-93881313D01*
G37*
G36*
X170246822Y-93881313D02*
G01*
X170407241Y-93929976D01*
X170555077Y-94008995D01*
X170684659Y-94115341D01*
X170791004Y-94244922D01*
X170791005Y-94244924D01*
X170870024Y-94392758D01*
X170918687Y-94553177D01*
X170931000Y-94678196D01*
X170931000Y-95561803D01*
X170918687Y-95686822D01*
X170870024Y-95847242D01*
X170799114Y-95979906D01*
X170791004Y-95995078D01*
X170684659Y-96124659D01*
X170555078Y-96231004D01*
X170555076Y-96231005D01*
X170407242Y-96310024D01*
X170246823Y-96358687D01*
X170080000Y-96375117D01*
X169913178Y-96358687D01*
X169752759Y-96310024D01*
X169604925Y-96231005D01*
X169604923Y-96231004D01*
X169475342Y-96124659D01*
X169368997Y-95995078D01*
X169360887Y-95979906D01*
X169289977Y-95847242D01*
X169241314Y-95686823D01*
X169229000Y-95561803D01*
X169229000Y-94678197D01*
X169241313Y-94553178D01*
X169289976Y-94392759D01*
X169368995Y-94244923D01*
X169475341Y-94115341D01*
X169604922Y-94008996D01*
X169620094Y-94000886D01*
X169752758Y-93929976D01*
X169913177Y-93881313D01*
X170080000Y-93864883D01*
X170246822Y-93881313D01*
X170246822Y-93881313D01*
G37*
G36*
X172786822Y-93881313D02*
G01*
X172947241Y-93929976D01*
X173095077Y-94008995D01*
X173224659Y-94115341D01*
X173331004Y-94244922D01*
X173331005Y-94244924D01*
X173410024Y-94392758D01*
X173458687Y-94553177D01*
X173471000Y-94678196D01*
X173471000Y-95561803D01*
X173458687Y-95686822D01*
X173410024Y-95847242D01*
X173339114Y-95979906D01*
X173331004Y-95995078D01*
X173224659Y-96124659D01*
X173095078Y-96231004D01*
X173095076Y-96231005D01*
X172947242Y-96310024D01*
X172786823Y-96358687D01*
X172620000Y-96375117D01*
X172453178Y-96358687D01*
X172292759Y-96310024D01*
X172144925Y-96231005D01*
X172144923Y-96231004D01*
X172015342Y-96124659D01*
X171908997Y-95995078D01*
X171900887Y-95979906D01*
X171829977Y-95847242D01*
X171781314Y-95686823D01*
X171769000Y-95561803D01*
X171769000Y-94678197D01*
X171781313Y-94553178D01*
X171829976Y-94392759D01*
X171908995Y-94244923D01*
X172015341Y-94115341D01*
X172144922Y-94008996D01*
X172160094Y-94000886D01*
X172292758Y-93929976D01*
X172453177Y-93881313D01*
X172620000Y-93864883D01*
X172786822Y-93881313D01*
X172786822Y-93881313D01*
G37*
G36*
X175326822Y-93881313D02*
G01*
X175487241Y-93929976D01*
X175635077Y-94008995D01*
X175764659Y-94115341D01*
X175871004Y-94244922D01*
X175871005Y-94244924D01*
X175950024Y-94392758D01*
X175998687Y-94553177D01*
X176011000Y-94678196D01*
X176011000Y-95561803D01*
X175998687Y-95686822D01*
X175950024Y-95847242D01*
X175879114Y-95979906D01*
X175871004Y-95995078D01*
X175764659Y-96124659D01*
X175635078Y-96231004D01*
X175635076Y-96231005D01*
X175487242Y-96310024D01*
X175326823Y-96358687D01*
X175160000Y-96375117D01*
X174993178Y-96358687D01*
X174832759Y-96310024D01*
X174684925Y-96231005D01*
X174684923Y-96231004D01*
X174555342Y-96124659D01*
X174448997Y-95995078D01*
X174440887Y-95979906D01*
X174369977Y-95847242D01*
X174321314Y-95686823D01*
X174309000Y-95561803D01*
X174309000Y-94678197D01*
X174321313Y-94553178D01*
X174369976Y-94392759D01*
X174448995Y-94244923D01*
X174555341Y-94115341D01*
X174684922Y-94008996D01*
X174700094Y-94000886D01*
X174832758Y-93929976D01*
X174993177Y-93881313D01*
X175160000Y-93864883D01*
X175326822Y-93881313D01*
X175326822Y-93881313D01*
G37*
G36*
X101126822Y-93881313D02*
G01*
X101287241Y-93929976D01*
X101435077Y-94008995D01*
X101564659Y-94115341D01*
X101671004Y-94244922D01*
X101671005Y-94244924D01*
X101750024Y-94392758D01*
X101798687Y-94553177D01*
X101811000Y-94678196D01*
X101811000Y-95561803D01*
X101798687Y-95686822D01*
X101750024Y-95847242D01*
X101679114Y-95979906D01*
X101671004Y-95995078D01*
X101564659Y-96124659D01*
X101435078Y-96231004D01*
X101435076Y-96231005D01*
X101287242Y-96310024D01*
X101126823Y-96358687D01*
X100960000Y-96375117D01*
X100793178Y-96358687D01*
X100632759Y-96310024D01*
X100484925Y-96231005D01*
X100484923Y-96231004D01*
X100355342Y-96124659D01*
X100248997Y-95995078D01*
X100240887Y-95979906D01*
X100169977Y-95847242D01*
X100121314Y-95686823D01*
X100109000Y-95561803D01*
X100109000Y-94678197D01*
X100121313Y-94553178D01*
X100169976Y-94392759D01*
X100248995Y-94244923D01*
X100355341Y-94115341D01*
X100484922Y-94008996D01*
X100500094Y-94000886D01*
X100632758Y-93929976D01*
X100793177Y-93881313D01*
X100960000Y-93864883D01*
X101126822Y-93881313D01*
X101126822Y-93881313D01*
G37*
G36*
X103666822Y-93881313D02*
G01*
X103827241Y-93929976D01*
X103975077Y-94008995D01*
X104104659Y-94115341D01*
X104211004Y-94244922D01*
X104211005Y-94244924D01*
X104290024Y-94392758D01*
X104338687Y-94553177D01*
X104351000Y-94678196D01*
X104351000Y-95561803D01*
X104338687Y-95686822D01*
X104290024Y-95847242D01*
X104219114Y-95979906D01*
X104211004Y-95995078D01*
X104104659Y-96124659D01*
X103975078Y-96231004D01*
X103975076Y-96231005D01*
X103827242Y-96310024D01*
X103666823Y-96358687D01*
X103500000Y-96375117D01*
X103333178Y-96358687D01*
X103172759Y-96310024D01*
X103024925Y-96231005D01*
X103024923Y-96231004D01*
X102895342Y-96124659D01*
X102788997Y-95995078D01*
X102780887Y-95979906D01*
X102709977Y-95847242D01*
X102661314Y-95686823D01*
X102649000Y-95561803D01*
X102649000Y-94678197D01*
X102661313Y-94553178D01*
X102709976Y-94392759D01*
X102788995Y-94244923D01*
X102895341Y-94115341D01*
X103024922Y-94008996D01*
X103040094Y-94000886D01*
X103172758Y-93929976D01*
X103333177Y-93881313D01*
X103500000Y-93864883D01*
X103666822Y-93881313D01*
X103666822Y-93881313D01*
G37*
G36*
X106206822Y-93881313D02*
G01*
X106367241Y-93929976D01*
X106515077Y-94008995D01*
X106644659Y-94115341D01*
X106751004Y-94244922D01*
X106751005Y-94244924D01*
X106830024Y-94392758D01*
X106878687Y-94553177D01*
X106891000Y-94678196D01*
X106891000Y-95561803D01*
X106878687Y-95686822D01*
X106830024Y-95847242D01*
X106759114Y-95979906D01*
X106751004Y-95995078D01*
X106644659Y-96124659D01*
X106515078Y-96231004D01*
X106515076Y-96231005D01*
X106367242Y-96310024D01*
X106206823Y-96358687D01*
X106040000Y-96375117D01*
X105873178Y-96358687D01*
X105712759Y-96310024D01*
X105564925Y-96231005D01*
X105564923Y-96231004D01*
X105435342Y-96124659D01*
X105328997Y-95995078D01*
X105320887Y-95979906D01*
X105249977Y-95847242D01*
X105201314Y-95686823D01*
X105189000Y-95561803D01*
X105189000Y-94678197D01*
X105201313Y-94553178D01*
X105249976Y-94392759D01*
X105328995Y-94244923D01*
X105435341Y-94115341D01*
X105564922Y-94008996D01*
X105580094Y-94000886D01*
X105712758Y-93929976D01*
X105873177Y-93881313D01*
X106040000Y-93864883D01*
X106206822Y-93881313D01*
X106206822Y-93881313D01*
G37*
G36*
X108746822Y-93881313D02*
G01*
X108907241Y-93929976D01*
X109055077Y-94008995D01*
X109184659Y-94115341D01*
X109291004Y-94244922D01*
X109291005Y-94244924D01*
X109370024Y-94392758D01*
X109418687Y-94553177D01*
X109431000Y-94678196D01*
X109431000Y-95561803D01*
X109418687Y-95686822D01*
X109370024Y-95847242D01*
X109299114Y-95979906D01*
X109291004Y-95995078D01*
X109184659Y-96124659D01*
X109055078Y-96231004D01*
X109055076Y-96231005D01*
X108907242Y-96310024D01*
X108746823Y-96358687D01*
X108580000Y-96375117D01*
X108413178Y-96358687D01*
X108252759Y-96310024D01*
X108104925Y-96231005D01*
X108104923Y-96231004D01*
X107975342Y-96124659D01*
X107868997Y-95995078D01*
X107860887Y-95979906D01*
X107789977Y-95847242D01*
X107741314Y-95686823D01*
X107729000Y-95561803D01*
X107729000Y-94678197D01*
X107741313Y-94553178D01*
X107789976Y-94392759D01*
X107868995Y-94244923D01*
X107975341Y-94115341D01*
X108104922Y-94008996D01*
X108120094Y-94000886D01*
X108252758Y-93929976D01*
X108413177Y-93881313D01*
X108580000Y-93864883D01*
X108746822Y-93881313D01*
X108746822Y-93881313D01*
G37*
G36*
X111286822Y-93881313D02*
G01*
X111447241Y-93929976D01*
X111595077Y-94008995D01*
X111724659Y-94115341D01*
X111831004Y-94244922D01*
X111831005Y-94244924D01*
X111910024Y-94392758D01*
X111958687Y-94553177D01*
X111971000Y-94678196D01*
X111971000Y-95561803D01*
X111958687Y-95686822D01*
X111910024Y-95847242D01*
X111839114Y-95979906D01*
X111831004Y-95995078D01*
X111724659Y-96124659D01*
X111595078Y-96231004D01*
X111595076Y-96231005D01*
X111447242Y-96310024D01*
X111286823Y-96358687D01*
X111120000Y-96375117D01*
X110953178Y-96358687D01*
X110792759Y-96310024D01*
X110644925Y-96231005D01*
X110644923Y-96231004D01*
X110515342Y-96124659D01*
X110408997Y-95995078D01*
X110400887Y-95979906D01*
X110329977Y-95847242D01*
X110281314Y-95686823D01*
X110269000Y-95561803D01*
X110269000Y-94678197D01*
X110281313Y-94553178D01*
X110329976Y-94392759D01*
X110408995Y-94244923D01*
X110515341Y-94115341D01*
X110644922Y-94008996D01*
X110660094Y-94000886D01*
X110792758Y-93929976D01*
X110953177Y-93881313D01*
X111120000Y-93864883D01*
X111286822Y-93881313D01*
X111286822Y-93881313D01*
G37*
G36*
X113826822Y-93881313D02*
G01*
X113987241Y-93929976D01*
X114135077Y-94008995D01*
X114264659Y-94115341D01*
X114371004Y-94244922D01*
X114371005Y-94244924D01*
X114450024Y-94392758D01*
X114498687Y-94553177D01*
X114511000Y-94678196D01*
X114511000Y-95561803D01*
X114498687Y-95686822D01*
X114450024Y-95847242D01*
X114379114Y-95979906D01*
X114371004Y-95995078D01*
X114264659Y-96124659D01*
X114135078Y-96231004D01*
X114135076Y-96231005D01*
X113987242Y-96310024D01*
X113826823Y-96358687D01*
X113660000Y-96375117D01*
X113493178Y-96358687D01*
X113332759Y-96310024D01*
X113184925Y-96231005D01*
X113184923Y-96231004D01*
X113055342Y-96124659D01*
X112948997Y-95995078D01*
X112940887Y-95979906D01*
X112869977Y-95847242D01*
X112821314Y-95686823D01*
X112809000Y-95561803D01*
X112809000Y-94678197D01*
X112821313Y-94553178D01*
X112869976Y-94392759D01*
X112948995Y-94244923D01*
X113055341Y-94115341D01*
X113184922Y-94008996D01*
X113200094Y-94000886D01*
X113332758Y-93929976D01*
X113493177Y-93881313D01*
X113660000Y-93864883D01*
X113826822Y-93881313D01*
X113826822Y-93881313D01*
G37*
G36*
X163311000Y-96371000D02*
G01*
X161609000Y-96371000D01*
X161609000Y-93869000D01*
X163311000Y-93869000D01*
X163311000Y-96371000D01*
X163311000Y-96371000D01*
G37*
G36*
X99271000Y-96371000D02*
G01*
X97569000Y-96371000D01*
X97569000Y-93869000D01*
X99271000Y-93869000D01*
X99271000Y-96371000D01*
X99271000Y-96371000D01*
G37*
G36*
X98586822Y-86261313D02*
G01*
X98747241Y-86309976D01*
X98895077Y-86388995D01*
X99024659Y-86495341D01*
X99131004Y-86624922D01*
X99131005Y-86624924D01*
X99210024Y-86772758D01*
X99258687Y-86933177D01*
X99271000Y-87058196D01*
X99271000Y-87941803D01*
X99258687Y-88066822D01*
X99210024Y-88227242D01*
X99195642Y-88254148D01*
X99131004Y-88375078D01*
X99024659Y-88504659D01*
X98895078Y-88611004D01*
X98895076Y-88611005D01*
X98747242Y-88690024D01*
X98586823Y-88738687D01*
X98420000Y-88755117D01*
X98253178Y-88738687D01*
X98092759Y-88690024D01*
X97944925Y-88611005D01*
X97944923Y-88611004D01*
X97815342Y-88504659D01*
X97708997Y-88375078D01*
X97644359Y-88254148D01*
X97629977Y-88227242D01*
X97581314Y-88066823D01*
X97569000Y-87941803D01*
X97569000Y-87058197D01*
X97581313Y-86933178D01*
X97629976Y-86772759D01*
X97708995Y-86624923D01*
X97815341Y-86495341D01*
X97944922Y-86388996D01*
X97960094Y-86380886D01*
X98092758Y-86309976D01*
X98253177Y-86261313D01*
X98420000Y-86244883D01*
X98586822Y-86261313D01*
X98586822Y-86261313D01*
G37*
G36*
X101126822Y-86261313D02*
G01*
X101287241Y-86309976D01*
X101435077Y-86388995D01*
X101564659Y-86495341D01*
X101671004Y-86624922D01*
X101671005Y-86624924D01*
X101750024Y-86772758D01*
X101798687Y-86933177D01*
X101811000Y-87058196D01*
X101811000Y-87941803D01*
X101798687Y-88066822D01*
X101750024Y-88227242D01*
X101735642Y-88254148D01*
X101671004Y-88375078D01*
X101564659Y-88504659D01*
X101435078Y-88611004D01*
X101435076Y-88611005D01*
X101287242Y-88690024D01*
X101126823Y-88738687D01*
X100960000Y-88755117D01*
X100793178Y-88738687D01*
X100632759Y-88690024D01*
X100484925Y-88611005D01*
X100484923Y-88611004D01*
X100355342Y-88504659D01*
X100248997Y-88375078D01*
X100184359Y-88254148D01*
X100169977Y-88227242D01*
X100121314Y-88066823D01*
X100109000Y-87941803D01*
X100109000Y-87058197D01*
X100121313Y-86933178D01*
X100169976Y-86772759D01*
X100248995Y-86624923D01*
X100355341Y-86495341D01*
X100484922Y-86388996D01*
X100500094Y-86380886D01*
X100632758Y-86309976D01*
X100793177Y-86261313D01*
X100960000Y-86244883D01*
X101126822Y-86261313D01*
X101126822Y-86261313D01*
G37*
G36*
X103666822Y-86261313D02*
G01*
X103827241Y-86309976D01*
X103975077Y-86388995D01*
X104104659Y-86495341D01*
X104211004Y-86624922D01*
X104211005Y-86624924D01*
X104290024Y-86772758D01*
X104338687Y-86933177D01*
X104351000Y-87058196D01*
X104351000Y-87941803D01*
X104338687Y-88066822D01*
X104290024Y-88227242D01*
X104275642Y-88254148D01*
X104211004Y-88375078D01*
X104104659Y-88504659D01*
X103975078Y-88611004D01*
X103975076Y-88611005D01*
X103827242Y-88690024D01*
X103666823Y-88738687D01*
X103500000Y-88755117D01*
X103333178Y-88738687D01*
X103172759Y-88690024D01*
X103024925Y-88611005D01*
X103024923Y-88611004D01*
X102895342Y-88504659D01*
X102788997Y-88375078D01*
X102724359Y-88254148D01*
X102709977Y-88227242D01*
X102661314Y-88066823D01*
X102649000Y-87941803D01*
X102649000Y-87058197D01*
X102661313Y-86933178D01*
X102709976Y-86772759D01*
X102788995Y-86624923D01*
X102895341Y-86495341D01*
X103024922Y-86388996D01*
X103040094Y-86380886D01*
X103172758Y-86309976D01*
X103333177Y-86261313D01*
X103500000Y-86244883D01*
X103666822Y-86261313D01*
X103666822Y-86261313D01*
G37*
G36*
X106206822Y-86261313D02*
G01*
X106367241Y-86309976D01*
X106515077Y-86388995D01*
X106644659Y-86495341D01*
X106751004Y-86624922D01*
X106751005Y-86624924D01*
X106830024Y-86772758D01*
X106878687Y-86933177D01*
X106891000Y-87058196D01*
X106891000Y-87941803D01*
X106878687Y-88066822D01*
X106830024Y-88227242D01*
X106815642Y-88254148D01*
X106751004Y-88375078D01*
X106644659Y-88504659D01*
X106515078Y-88611004D01*
X106515076Y-88611005D01*
X106367242Y-88690024D01*
X106206823Y-88738687D01*
X106040000Y-88755117D01*
X105873178Y-88738687D01*
X105712759Y-88690024D01*
X105564925Y-88611005D01*
X105564923Y-88611004D01*
X105435342Y-88504659D01*
X105328997Y-88375078D01*
X105264359Y-88254148D01*
X105249977Y-88227242D01*
X105201314Y-88066823D01*
X105189000Y-87941803D01*
X105189000Y-87058197D01*
X105201313Y-86933178D01*
X105249976Y-86772759D01*
X105328995Y-86624923D01*
X105435341Y-86495341D01*
X105564922Y-86388996D01*
X105580094Y-86380886D01*
X105712758Y-86309976D01*
X105873177Y-86261313D01*
X106040000Y-86244883D01*
X106206822Y-86261313D01*
X106206822Y-86261313D01*
G37*
G36*
X108746822Y-86261313D02*
G01*
X108907241Y-86309976D01*
X109055077Y-86388995D01*
X109184659Y-86495341D01*
X109291004Y-86624922D01*
X109291005Y-86624924D01*
X109370024Y-86772758D01*
X109418687Y-86933177D01*
X109431000Y-87058196D01*
X109431000Y-87941803D01*
X109418687Y-88066822D01*
X109370024Y-88227242D01*
X109355642Y-88254148D01*
X109291004Y-88375078D01*
X109184659Y-88504659D01*
X109055078Y-88611004D01*
X109055076Y-88611005D01*
X108907242Y-88690024D01*
X108746823Y-88738687D01*
X108580000Y-88755117D01*
X108413178Y-88738687D01*
X108252759Y-88690024D01*
X108104925Y-88611005D01*
X108104923Y-88611004D01*
X107975342Y-88504659D01*
X107868997Y-88375078D01*
X107804359Y-88254148D01*
X107789977Y-88227242D01*
X107741314Y-88066823D01*
X107729000Y-87941803D01*
X107729000Y-87058197D01*
X107741313Y-86933178D01*
X107789976Y-86772759D01*
X107868995Y-86624923D01*
X107975341Y-86495341D01*
X108104922Y-86388996D01*
X108120094Y-86380886D01*
X108252758Y-86309976D01*
X108413177Y-86261313D01*
X108580000Y-86244883D01*
X108746822Y-86261313D01*
X108746822Y-86261313D01*
G37*
G36*
X111286822Y-86261313D02*
G01*
X111447241Y-86309976D01*
X111595077Y-86388995D01*
X111724659Y-86495341D01*
X111831004Y-86624922D01*
X111831005Y-86624924D01*
X111910024Y-86772758D01*
X111958687Y-86933177D01*
X111971000Y-87058196D01*
X111971000Y-87941803D01*
X111958687Y-88066822D01*
X111910024Y-88227242D01*
X111895642Y-88254148D01*
X111831004Y-88375078D01*
X111724659Y-88504659D01*
X111595078Y-88611004D01*
X111595076Y-88611005D01*
X111447242Y-88690024D01*
X111286823Y-88738687D01*
X111120000Y-88755117D01*
X110953178Y-88738687D01*
X110792759Y-88690024D01*
X110644925Y-88611005D01*
X110644923Y-88611004D01*
X110515342Y-88504659D01*
X110408997Y-88375078D01*
X110344359Y-88254148D01*
X110329977Y-88227242D01*
X110281314Y-88066823D01*
X110269000Y-87941803D01*
X110269000Y-87058197D01*
X110281313Y-86933178D01*
X110329976Y-86772759D01*
X110408995Y-86624923D01*
X110515341Y-86495341D01*
X110644922Y-86388996D01*
X110660094Y-86380886D01*
X110792758Y-86309976D01*
X110953177Y-86261313D01*
X111120000Y-86244883D01*
X111286822Y-86261313D01*
X111286822Y-86261313D01*
G37*
G36*
X113826822Y-86261313D02*
G01*
X113987241Y-86309976D01*
X114135077Y-86388995D01*
X114264659Y-86495341D01*
X114371004Y-86624922D01*
X114371005Y-86624924D01*
X114450024Y-86772758D01*
X114498687Y-86933177D01*
X114511000Y-87058196D01*
X114511000Y-87941803D01*
X114498687Y-88066822D01*
X114450024Y-88227242D01*
X114435642Y-88254148D01*
X114371004Y-88375078D01*
X114264659Y-88504659D01*
X114135078Y-88611004D01*
X114135076Y-88611005D01*
X113987242Y-88690024D01*
X113826823Y-88738687D01*
X113660000Y-88755117D01*
X113493178Y-88738687D01*
X113332759Y-88690024D01*
X113184925Y-88611005D01*
X113184923Y-88611004D01*
X113055342Y-88504659D01*
X112948997Y-88375078D01*
X112884359Y-88254148D01*
X112869977Y-88227242D01*
X112821314Y-88066823D01*
X112809000Y-87941803D01*
X112809000Y-87058197D01*
X112821313Y-86933178D01*
X112869976Y-86772759D01*
X112948995Y-86624923D01*
X113055341Y-86495341D01*
X113184922Y-86388996D01*
X113200094Y-86380886D01*
X113332758Y-86309976D01*
X113493177Y-86261313D01*
X113660000Y-86244883D01*
X113826822Y-86261313D01*
X113826822Y-86261313D01*
G37*
G36*
X165166822Y-86261313D02*
G01*
X165327241Y-86309976D01*
X165475077Y-86388995D01*
X165604659Y-86495341D01*
X165711004Y-86624922D01*
X165711005Y-86624924D01*
X165790024Y-86772758D01*
X165838687Y-86933177D01*
X165851000Y-87058196D01*
X165851000Y-87941803D01*
X165838687Y-88066822D01*
X165790024Y-88227242D01*
X165775642Y-88254148D01*
X165711004Y-88375078D01*
X165604659Y-88504659D01*
X165475078Y-88611004D01*
X165475076Y-88611005D01*
X165327242Y-88690024D01*
X165166823Y-88738687D01*
X165000000Y-88755117D01*
X164833178Y-88738687D01*
X164672759Y-88690024D01*
X164524925Y-88611005D01*
X164524923Y-88611004D01*
X164395342Y-88504659D01*
X164288997Y-88375078D01*
X164224359Y-88254148D01*
X164209977Y-88227242D01*
X164161314Y-88066823D01*
X164149000Y-87941803D01*
X164149000Y-87058197D01*
X164161313Y-86933178D01*
X164209976Y-86772759D01*
X164288995Y-86624923D01*
X164395341Y-86495341D01*
X164524922Y-86388996D01*
X164540094Y-86380886D01*
X164672758Y-86309976D01*
X164833177Y-86261313D01*
X165000000Y-86244883D01*
X165166822Y-86261313D01*
X165166822Y-86261313D01*
G37*
G36*
X167706822Y-86261313D02*
G01*
X167867241Y-86309976D01*
X168015077Y-86388995D01*
X168144659Y-86495341D01*
X168251004Y-86624922D01*
X168251005Y-86624924D01*
X168330024Y-86772758D01*
X168378687Y-86933177D01*
X168391000Y-87058196D01*
X168391000Y-87941803D01*
X168378687Y-88066822D01*
X168330024Y-88227242D01*
X168315642Y-88254148D01*
X168251004Y-88375078D01*
X168144659Y-88504659D01*
X168015078Y-88611004D01*
X168015076Y-88611005D01*
X167867242Y-88690024D01*
X167706823Y-88738687D01*
X167540000Y-88755117D01*
X167373178Y-88738687D01*
X167212759Y-88690024D01*
X167064925Y-88611005D01*
X167064923Y-88611004D01*
X166935342Y-88504659D01*
X166828997Y-88375078D01*
X166764359Y-88254148D01*
X166749977Y-88227242D01*
X166701314Y-88066823D01*
X166689000Y-87941803D01*
X166689000Y-87058197D01*
X166701313Y-86933178D01*
X166749976Y-86772759D01*
X166828995Y-86624923D01*
X166935341Y-86495341D01*
X167064922Y-86388996D01*
X167080094Y-86380886D01*
X167212758Y-86309976D01*
X167373177Y-86261313D01*
X167540000Y-86244883D01*
X167706822Y-86261313D01*
X167706822Y-86261313D01*
G37*
G36*
X175326822Y-86261313D02*
G01*
X175487241Y-86309976D01*
X175635077Y-86388995D01*
X175764659Y-86495341D01*
X175871004Y-86624922D01*
X175871005Y-86624924D01*
X175950024Y-86772758D01*
X175998687Y-86933177D01*
X176011000Y-87058196D01*
X176011000Y-87941803D01*
X175998687Y-88066822D01*
X175950024Y-88227242D01*
X175935642Y-88254148D01*
X175871004Y-88375078D01*
X175764659Y-88504659D01*
X175635078Y-88611004D01*
X175635076Y-88611005D01*
X175487242Y-88690024D01*
X175326823Y-88738687D01*
X175160000Y-88755117D01*
X174993178Y-88738687D01*
X174832759Y-88690024D01*
X174684925Y-88611005D01*
X174684923Y-88611004D01*
X174555342Y-88504659D01*
X174448997Y-88375078D01*
X174384359Y-88254148D01*
X174369977Y-88227242D01*
X174321314Y-88066823D01*
X174309000Y-87941803D01*
X174309000Y-87058197D01*
X174321313Y-86933178D01*
X174369976Y-86772759D01*
X174448995Y-86624923D01*
X174555341Y-86495341D01*
X174684922Y-86388996D01*
X174700094Y-86380886D01*
X174832758Y-86309976D01*
X174993177Y-86261313D01*
X175160000Y-86244883D01*
X175326822Y-86261313D01*
X175326822Y-86261313D01*
G37*
G36*
X172786822Y-86261313D02*
G01*
X172947241Y-86309976D01*
X173095077Y-86388995D01*
X173224659Y-86495341D01*
X173331004Y-86624922D01*
X173331005Y-86624924D01*
X173410024Y-86772758D01*
X173458687Y-86933177D01*
X173471000Y-87058196D01*
X173471000Y-87941803D01*
X173458687Y-88066822D01*
X173410024Y-88227242D01*
X173395642Y-88254148D01*
X173331004Y-88375078D01*
X173224659Y-88504659D01*
X173095078Y-88611004D01*
X173095076Y-88611005D01*
X172947242Y-88690024D01*
X172786823Y-88738687D01*
X172620000Y-88755117D01*
X172453178Y-88738687D01*
X172292759Y-88690024D01*
X172144925Y-88611005D01*
X172144923Y-88611004D01*
X172015342Y-88504659D01*
X171908997Y-88375078D01*
X171844359Y-88254148D01*
X171829977Y-88227242D01*
X171781314Y-88066823D01*
X171769000Y-87941803D01*
X171769000Y-87058197D01*
X171781313Y-86933178D01*
X171829976Y-86772759D01*
X171908995Y-86624923D01*
X172015341Y-86495341D01*
X172144922Y-86388996D01*
X172160094Y-86380886D01*
X172292758Y-86309976D01*
X172453177Y-86261313D01*
X172620000Y-86244883D01*
X172786822Y-86261313D01*
X172786822Y-86261313D01*
G37*
G36*
X177866822Y-86261313D02*
G01*
X178027241Y-86309976D01*
X178175077Y-86388995D01*
X178304659Y-86495341D01*
X178411004Y-86624922D01*
X178411005Y-86624924D01*
X178490024Y-86772758D01*
X178538687Y-86933177D01*
X178551000Y-87058196D01*
X178551000Y-87941803D01*
X178538687Y-88066822D01*
X178490024Y-88227242D01*
X178475642Y-88254148D01*
X178411004Y-88375078D01*
X178304659Y-88504659D01*
X178175078Y-88611004D01*
X178175076Y-88611005D01*
X178027242Y-88690024D01*
X177866823Y-88738687D01*
X177700000Y-88755117D01*
X177533178Y-88738687D01*
X177372759Y-88690024D01*
X177224925Y-88611005D01*
X177224923Y-88611004D01*
X177095342Y-88504659D01*
X176988997Y-88375078D01*
X176924359Y-88254148D01*
X176909977Y-88227242D01*
X176861314Y-88066823D01*
X176849000Y-87941803D01*
X176849000Y-87058197D01*
X176861313Y-86933178D01*
X176909976Y-86772759D01*
X176988995Y-86624923D01*
X177095341Y-86495341D01*
X177224922Y-86388996D01*
X177240094Y-86380886D01*
X177372758Y-86309976D01*
X177533177Y-86261313D01*
X177700000Y-86244883D01*
X177866822Y-86261313D01*
X177866822Y-86261313D01*
G37*
G36*
X170246822Y-86261313D02*
G01*
X170407241Y-86309976D01*
X170555077Y-86388995D01*
X170684659Y-86495341D01*
X170791004Y-86624922D01*
X170791005Y-86624924D01*
X170870024Y-86772758D01*
X170918687Y-86933177D01*
X170931000Y-87058196D01*
X170931000Y-87941803D01*
X170918687Y-88066822D01*
X170870024Y-88227242D01*
X170855642Y-88254148D01*
X170791004Y-88375078D01*
X170684659Y-88504659D01*
X170555078Y-88611004D01*
X170555076Y-88611005D01*
X170407242Y-88690024D01*
X170246823Y-88738687D01*
X170080000Y-88755117D01*
X169913178Y-88738687D01*
X169752759Y-88690024D01*
X169604925Y-88611005D01*
X169604923Y-88611004D01*
X169475342Y-88504659D01*
X169368997Y-88375078D01*
X169304359Y-88254148D01*
X169289977Y-88227242D01*
X169241314Y-88066823D01*
X169229000Y-87941803D01*
X169229000Y-87058197D01*
X169241313Y-86933178D01*
X169289976Y-86772759D01*
X169368995Y-86624923D01*
X169475341Y-86495341D01*
X169604922Y-86388996D01*
X169620094Y-86380886D01*
X169752758Y-86309976D01*
X169913177Y-86261313D01*
X170080000Y-86244883D01*
X170246822Y-86261313D01*
X170246822Y-86261313D01*
G37*
G36*
X162626822Y-86261313D02*
G01*
X162787241Y-86309976D01*
X162935077Y-86388995D01*
X163064659Y-86495341D01*
X163171004Y-86624922D01*
X163171005Y-86624924D01*
X163250024Y-86772758D01*
X163298687Y-86933177D01*
X163311000Y-87058196D01*
X163311000Y-87941803D01*
X163298687Y-88066822D01*
X163250024Y-88227242D01*
X163235642Y-88254148D01*
X163171004Y-88375078D01*
X163064659Y-88504659D01*
X162935078Y-88611004D01*
X162935076Y-88611005D01*
X162787242Y-88690024D01*
X162626823Y-88738687D01*
X162460000Y-88755117D01*
X162293178Y-88738687D01*
X162132759Y-88690024D01*
X161984925Y-88611005D01*
X161984923Y-88611004D01*
X161855342Y-88504659D01*
X161748997Y-88375078D01*
X161684359Y-88254148D01*
X161669977Y-88227242D01*
X161621314Y-88066823D01*
X161609000Y-87941803D01*
X161609000Y-87058197D01*
X161621313Y-86933178D01*
X161669976Y-86772759D01*
X161748995Y-86624923D01*
X161855341Y-86495341D01*
X161984922Y-86388996D01*
X162000094Y-86380886D01*
X162132758Y-86309976D01*
X162293177Y-86261313D01*
X162460000Y-86244883D01*
X162626822Y-86261313D01*
X162626822Y-86261313D01*
G37*
G36*
X185248228Y-86681703D02*
G01*
X185403100Y-86745853D01*
X185542481Y-86838985D01*
X185661015Y-86957519D01*
X185754147Y-87096900D01*
X185818297Y-87251772D01*
X185851000Y-87416184D01*
X185851000Y-87583816D01*
X185818297Y-87748228D01*
X185754147Y-87903100D01*
X185661015Y-88042481D01*
X185542481Y-88161015D01*
X185403100Y-88254147D01*
X185248228Y-88318297D01*
X185083816Y-88351000D01*
X184916184Y-88351000D01*
X184751772Y-88318297D01*
X184596900Y-88254147D01*
X184457519Y-88161015D01*
X184338985Y-88042481D01*
X184245853Y-87903100D01*
X184181703Y-87748228D01*
X184149000Y-87583816D01*
X184149000Y-87416184D01*
X184181703Y-87251772D01*
X184245853Y-87096900D01*
X184338985Y-86957519D01*
X184457519Y-86838985D01*
X184596900Y-86745853D01*
X184751772Y-86681703D01*
X184916184Y-86649000D01*
X185083816Y-86649000D01*
X185248228Y-86681703D01*
X185248228Y-86681703D01*
G37*
G36*
X139166822Y-82521313D02*
G01*
X139327241Y-82569976D01*
X139475077Y-82648995D01*
X139593097Y-82745852D01*
X139604659Y-82755341D01*
X139711004Y-82884922D01*
X139711005Y-82884924D01*
X139790024Y-83032758D01*
X139838687Y-83193177D01*
X139851000Y-83318196D01*
X139851000Y-84201803D01*
X139838687Y-84326822D01*
X139790024Y-84487242D01*
X139719114Y-84619906D01*
X139711004Y-84635078D01*
X139604659Y-84764659D01*
X139475078Y-84871004D01*
X139475076Y-84871005D01*
X139327242Y-84950024D01*
X139166823Y-84998687D01*
X139000000Y-85015117D01*
X138833178Y-84998687D01*
X138672759Y-84950024D01*
X138524925Y-84871005D01*
X138524923Y-84871004D01*
X138395342Y-84764659D01*
X138288997Y-84635078D01*
X138280887Y-84619906D01*
X138209977Y-84487242D01*
X138161314Y-84326823D01*
X138149000Y-84201803D01*
X138149000Y-83318197D01*
X138161313Y-83193178D01*
X138209976Y-83032759D01*
X138288995Y-82884923D01*
X138395341Y-82755341D01*
X138406903Y-82745852D01*
X138524922Y-82648996D01*
X138540094Y-82640886D01*
X138672758Y-82569976D01*
X138833177Y-82521313D01*
X139000000Y-82504883D01*
X139166822Y-82521313D01*
X139166822Y-82521313D01*
G37*
G36*
X149326822Y-82521313D02*
G01*
X149487241Y-82569976D01*
X149635077Y-82648995D01*
X149753097Y-82745852D01*
X149764659Y-82755341D01*
X149871004Y-82884922D01*
X149871005Y-82884924D01*
X149950024Y-83032758D01*
X149998687Y-83193177D01*
X150011000Y-83318196D01*
X150011000Y-84201803D01*
X149998687Y-84326822D01*
X149950024Y-84487242D01*
X149879114Y-84619906D01*
X149871004Y-84635078D01*
X149764659Y-84764659D01*
X149635078Y-84871004D01*
X149635076Y-84871005D01*
X149487242Y-84950024D01*
X149326823Y-84998687D01*
X149160000Y-85015117D01*
X148993178Y-84998687D01*
X148832759Y-84950024D01*
X148684925Y-84871005D01*
X148684923Y-84871004D01*
X148555342Y-84764659D01*
X148448997Y-84635078D01*
X148440887Y-84619906D01*
X148369977Y-84487242D01*
X148321314Y-84326823D01*
X148309000Y-84201803D01*
X148309000Y-83318197D01*
X148321313Y-83193178D01*
X148369976Y-83032759D01*
X148448995Y-82884923D01*
X148555341Y-82755341D01*
X148566903Y-82745852D01*
X148684922Y-82648996D01*
X148700094Y-82640886D01*
X148832758Y-82569976D01*
X148993177Y-82521313D01*
X149160000Y-82504883D01*
X149326822Y-82521313D01*
X149326822Y-82521313D01*
G37*
G36*
X123926822Y-82521313D02*
G01*
X124087241Y-82569976D01*
X124235077Y-82648995D01*
X124353097Y-82745852D01*
X124364659Y-82755341D01*
X124471004Y-82884922D01*
X124471005Y-82884924D01*
X124550024Y-83032758D01*
X124598687Y-83193177D01*
X124611000Y-83318196D01*
X124611000Y-84201803D01*
X124598687Y-84326822D01*
X124550024Y-84487242D01*
X124479114Y-84619906D01*
X124471004Y-84635078D01*
X124364659Y-84764659D01*
X124235078Y-84871004D01*
X124235076Y-84871005D01*
X124087242Y-84950024D01*
X123926823Y-84998687D01*
X123760000Y-85015117D01*
X123593178Y-84998687D01*
X123432759Y-84950024D01*
X123284925Y-84871005D01*
X123284923Y-84871004D01*
X123155342Y-84764659D01*
X123048997Y-84635078D01*
X123040887Y-84619906D01*
X122969977Y-84487242D01*
X122921314Y-84326823D01*
X122909000Y-84201803D01*
X122909000Y-83318197D01*
X122921313Y-83193178D01*
X122969976Y-83032759D01*
X123048995Y-82884923D01*
X123155341Y-82755341D01*
X123166903Y-82745852D01*
X123284922Y-82648996D01*
X123300094Y-82640886D01*
X123432758Y-82569976D01*
X123593177Y-82521313D01*
X123760000Y-82504883D01*
X123926822Y-82521313D01*
X123926822Y-82521313D01*
G37*
G36*
X144246822Y-82521313D02*
G01*
X144407241Y-82569976D01*
X144555077Y-82648995D01*
X144673097Y-82745852D01*
X144684659Y-82755341D01*
X144791004Y-82884922D01*
X144791005Y-82884924D01*
X144870024Y-83032758D01*
X144918687Y-83193177D01*
X144931000Y-83318196D01*
X144931000Y-84201803D01*
X144918687Y-84326822D01*
X144870024Y-84487242D01*
X144799114Y-84619906D01*
X144791004Y-84635078D01*
X144684659Y-84764659D01*
X144555078Y-84871004D01*
X144555076Y-84871005D01*
X144407242Y-84950024D01*
X144246823Y-84998687D01*
X144080000Y-85015117D01*
X143913178Y-84998687D01*
X143752759Y-84950024D01*
X143604925Y-84871005D01*
X143604923Y-84871004D01*
X143475342Y-84764659D01*
X143368997Y-84635078D01*
X143360887Y-84619906D01*
X143289977Y-84487242D01*
X143241314Y-84326823D01*
X143229000Y-84201803D01*
X143229000Y-83318197D01*
X143241313Y-83193178D01*
X143289976Y-83032759D01*
X143368995Y-82884923D01*
X143475341Y-82755341D01*
X143486903Y-82745852D01*
X143604922Y-82648996D01*
X143620094Y-82640886D01*
X143752758Y-82569976D01*
X143913177Y-82521313D01*
X144080000Y-82504883D01*
X144246822Y-82521313D01*
X144246822Y-82521313D01*
G37*
G36*
X126466822Y-82521313D02*
G01*
X126627241Y-82569976D01*
X126775077Y-82648995D01*
X126893097Y-82745852D01*
X126904659Y-82755341D01*
X127011004Y-82884922D01*
X127011005Y-82884924D01*
X127090024Y-83032758D01*
X127138687Y-83193177D01*
X127151000Y-83318196D01*
X127151000Y-84201803D01*
X127138687Y-84326822D01*
X127090024Y-84487242D01*
X127019114Y-84619906D01*
X127011004Y-84635078D01*
X126904659Y-84764659D01*
X126775078Y-84871004D01*
X126775076Y-84871005D01*
X126627242Y-84950024D01*
X126466823Y-84998687D01*
X126300000Y-85015117D01*
X126133178Y-84998687D01*
X125972759Y-84950024D01*
X125824925Y-84871005D01*
X125824923Y-84871004D01*
X125695342Y-84764659D01*
X125588997Y-84635078D01*
X125580887Y-84619906D01*
X125509977Y-84487242D01*
X125461314Y-84326823D01*
X125449000Y-84201803D01*
X125449000Y-83318197D01*
X125461313Y-83193178D01*
X125509976Y-83032759D01*
X125588995Y-82884923D01*
X125695341Y-82755341D01*
X125706903Y-82745852D01*
X125824922Y-82648996D01*
X125840094Y-82640886D01*
X125972758Y-82569976D01*
X126133177Y-82521313D01*
X126300000Y-82504883D01*
X126466822Y-82521313D01*
X126466822Y-82521313D01*
G37*
G36*
X141706822Y-82521313D02*
G01*
X141867241Y-82569976D01*
X142015077Y-82648995D01*
X142133097Y-82745852D01*
X142144659Y-82755341D01*
X142251004Y-82884922D01*
X142251005Y-82884924D01*
X142330024Y-83032758D01*
X142378687Y-83193177D01*
X142391000Y-83318196D01*
X142391000Y-84201803D01*
X142378687Y-84326822D01*
X142330024Y-84487242D01*
X142259114Y-84619906D01*
X142251004Y-84635078D01*
X142144659Y-84764659D01*
X142015078Y-84871004D01*
X142015076Y-84871005D01*
X141867242Y-84950024D01*
X141706823Y-84998687D01*
X141540000Y-85015117D01*
X141373178Y-84998687D01*
X141212759Y-84950024D01*
X141064925Y-84871005D01*
X141064923Y-84871004D01*
X140935342Y-84764659D01*
X140828997Y-84635078D01*
X140820887Y-84619906D01*
X140749977Y-84487242D01*
X140701314Y-84326823D01*
X140689000Y-84201803D01*
X140689000Y-83318197D01*
X140701313Y-83193178D01*
X140749976Y-83032759D01*
X140828995Y-82884923D01*
X140935341Y-82755341D01*
X140946903Y-82745852D01*
X141064922Y-82648996D01*
X141080094Y-82640886D01*
X141212758Y-82569976D01*
X141373177Y-82521313D01*
X141540000Y-82504883D01*
X141706822Y-82521313D01*
X141706822Y-82521313D01*
G37*
G36*
X129006822Y-82521313D02*
G01*
X129167241Y-82569976D01*
X129315077Y-82648995D01*
X129433097Y-82745852D01*
X129444659Y-82755341D01*
X129551004Y-82884922D01*
X129551005Y-82884924D01*
X129630024Y-83032758D01*
X129678687Y-83193177D01*
X129691000Y-83318196D01*
X129691000Y-84201803D01*
X129678687Y-84326822D01*
X129630024Y-84487242D01*
X129559114Y-84619906D01*
X129551004Y-84635078D01*
X129444659Y-84764659D01*
X129315078Y-84871004D01*
X129315076Y-84871005D01*
X129167242Y-84950024D01*
X129006823Y-84998687D01*
X128840000Y-85015117D01*
X128673178Y-84998687D01*
X128512759Y-84950024D01*
X128364925Y-84871005D01*
X128364923Y-84871004D01*
X128235342Y-84764659D01*
X128128997Y-84635078D01*
X128120887Y-84619906D01*
X128049977Y-84487242D01*
X128001314Y-84326823D01*
X127989000Y-84201803D01*
X127989000Y-83318197D01*
X128001313Y-83193178D01*
X128049976Y-83032759D01*
X128128995Y-82884923D01*
X128235341Y-82755341D01*
X128246903Y-82745852D01*
X128364922Y-82648996D01*
X128380094Y-82640886D01*
X128512758Y-82569976D01*
X128673177Y-82521313D01*
X128840000Y-82504883D01*
X129006822Y-82521313D01*
X129006822Y-82521313D01*
G37*
G36*
X131546822Y-82521313D02*
G01*
X131707241Y-82569976D01*
X131855077Y-82648995D01*
X131973097Y-82745852D01*
X131984659Y-82755341D01*
X132091004Y-82884922D01*
X132091005Y-82884924D01*
X132170024Y-83032758D01*
X132218687Y-83193177D01*
X132231000Y-83318196D01*
X132231000Y-84201803D01*
X132218687Y-84326822D01*
X132170024Y-84487242D01*
X132099114Y-84619906D01*
X132091004Y-84635078D01*
X131984659Y-84764659D01*
X131855078Y-84871004D01*
X131855076Y-84871005D01*
X131707242Y-84950024D01*
X131546823Y-84998687D01*
X131380000Y-85015117D01*
X131213178Y-84998687D01*
X131052759Y-84950024D01*
X130904925Y-84871005D01*
X130904923Y-84871004D01*
X130775342Y-84764659D01*
X130668997Y-84635078D01*
X130660887Y-84619906D01*
X130589977Y-84487242D01*
X130541314Y-84326823D01*
X130529000Y-84201803D01*
X130529000Y-83318197D01*
X130541313Y-83193178D01*
X130589976Y-83032759D01*
X130668995Y-82884923D01*
X130775341Y-82755341D01*
X130786903Y-82745852D01*
X130904922Y-82648996D01*
X130920094Y-82640886D01*
X131052758Y-82569976D01*
X131213177Y-82521313D01*
X131380000Y-82504883D01*
X131546822Y-82521313D01*
X131546822Y-82521313D01*
G37*
G36*
X136626822Y-82521313D02*
G01*
X136787241Y-82569976D01*
X136935077Y-82648995D01*
X137053097Y-82745852D01*
X137064659Y-82755341D01*
X137171004Y-82884922D01*
X137171005Y-82884924D01*
X137250024Y-83032758D01*
X137298687Y-83193177D01*
X137311000Y-83318196D01*
X137311000Y-84201803D01*
X137298687Y-84326822D01*
X137250024Y-84487242D01*
X137179114Y-84619906D01*
X137171004Y-84635078D01*
X137064659Y-84764659D01*
X136935078Y-84871004D01*
X136935076Y-84871005D01*
X136787242Y-84950024D01*
X136626823Y-84998687D01*
X136460000Y-85015117D01*
X136293178Y-84998687D01*
X136132759Y-84950024D01*
X135984925Y-84871005D01*
X135984923Y-84871004D01*
X135855342Y-84764659D01*
X135748997Y-84635078D01*
X135740887Y-84619906D01*
X135669977Y-84487242D01*
X135621314Y-84326823D01*
X135609000Y-84201803D01*
X135609000Y-83318197D01*
X135621313Y-83193178D01*
X135669976Y-83032759D01*
X135748995Y-82884923D01*
X135855341Y-82755341D01*
X135866903Y-82745852D01*
X135984922Y-82648996D01*
X136000094Y-82640886D01*
X136132758Y-82569976D01*
X136293177Y-82521313D01*
X136460000Y-82504883D01*
X136626822Y-82521313D01*
X136626822Y-82521313D01*
G37*
G36*
X146786822Y-82521313D02*
G01*
X146947241Y-82569976D01*
X147095077Y-82648995D01*
X147213097Y-82745852D01*
X147224659Y-82755341D01*
X147331004Y-82884922D01*
X147331005Y-82884924D01*
X147410024Y-83032758D01*
X147458687Y-83193177D01*
X147471000Y-83318196D01*
X147471000Y-84201803D01*
X147458687Y-84326822D01*
X147410024Y-84487242D01*
X147339114Y-84619906D01*
X147331004Y-84635078D01*
X147224659Y-84764659D01*
X147095078Y-84871004D01*
X147095076Y-84871005D01*
X146947242Y-84950024D01*
X146786823Y-84998687D01*
X146620000Y-85015117D01*
X146453178Y-84998687D01*
X146292759Y-84950024D01*
X146144925Y-84871005D01*
X146144923Y-84871004D01*
X146015342Y-84764659D01*
X145908997Y-84635078D01*
X145900887Y-84619906D01*
X145829977Y-84487242D01*
X145781314Y-84326823D01*
X145769000Y-84201803D01*
X145769000Y-83318197D01*
X145781313Y-83193178D01*
X145829976Y-83032759D01*
X145908995Y-82884923D01*
X146015341Y-82755341D01*
X146026903Y-82745852D01*
X146144922Y-82648996D01*
X146160094Y-82640886D01*
X146292758Y-82569976D01*
X146453177Y-82521313D01*
X146620000Y-82504883D01*
X146786822Y-82521313D01*
X146786822Y-82521313D01*
G37*
G36*
X121386822Y-82521313D02*
G01*
X121547241Y-82569976D01*
X121695077Y-82648995D01*
X121813097Y-82745852D01*
X121824659Y-82755341D01*
X121931004Y-82884922D01*
X121931005Y-82884924D01*
X122010024Y-83032758D01*
X122058687Y-83193177D01*
X122071000Y-83318196D01*
X122071000Y-84201803D01*
X122058687Y-84326822D01*
X122010024Y-84487242D01*
X121939114Y-84619906D01*
X121931004Y-84635078D01*
X121824659Y-84764659D01*
X121695078Y-84871004D01*
X121695076Y-84871005D01*
X121547242Y-84950024D01*
X121386823Y-84998687D01*
X121220000Y-85015117D01*
X121053178Y-84998687D01*
X120892759Y-84950024D01*
X120744925Y-84871005D01*
X120744923Y-84871004D01*
X120615342Y-84764659D01*
X120508997Y-84635078D01*
X120500887Y-84619906D01*
X120429977Y-84487242D01*
X120381314Y-84326823D01*
X120369000Y-84201803D01*
X120369000Y-83318197D01*
X120381313Y-83193178D01*
X120429976Y-83032759D01*
X120508995Y-82884923D01*
X120615341Y-82755341D01*
X120626903Y-82745852D01*
X120744922Y-82648996D01*
X120760094Y-82640886D01*
X120892758Y-82569976D01*
X121053177Y-82521313D01*
X121220000Y-82504883D01*
X121386822Y-82521313D01*
X121386822Y-82521313D01*
G37*
G36*
X154406822Y-82521313D02*
G01*
X154567241Y-82569976D01*
X154715077Y-82648995D01*
X154833097Y-82745852D01*
X154844659Y-82755341D01*
X154951004Y-82884922D01*
X154951005Y-82884924D01*
X155030024Y-83032758D01*
X155078687Y-83193177D01*
X155091000Y-83318196D01*
X155091000Y-84201803D01*
X155078687Y-84326822D01*
X155030024Y-84487242D01*
X154959114Y-84619906D01*
X154951004Y-84635078D01*
X154844659Y-84764659D01*
X154715078Y-84871004D01*
X154715076Y-84871005D01*
X154567242Y-84950024D01*
X154406823Y-84998687D01*
X154240000Y-85015117D01*
X154073178Y-84998687D01*
X153912759Y-84950024D01*
X153764925Y-84871005D01*
X153764923Y-84871004D01*
X153635342Y-84764659D01*
X153528997Y-84635078D01*
X153520887Y-84619906D01*
X153449977Y-84487242D01*
X153401314Y-84326823D01*
X153389000Y-84201803D01*
X153389000Y-83318197D01*
X153401313Y-83193178D01*
X153449976Y-83032759D01*
X153528995Y-82884923D01*
X153635341Y-82755341D01*
X153646903Y-82745852D01*
X153764922Y-82648996D01*
X153780094Y-82640886D01*
X153912758Y-82569976D01*
X154073177Y-82521313D01*
X154240000Y-82504883D01*
X154406822Y-82521313D01*
X154406822Y-82521313D01*
G37*
G36*
X151866822Y-82521313D02*
G01*
X152027241Y-82569976D01*
X152175077Y-82648995D01*
X152293097Y-82745852D01*
X152304659Y-82755341D01*
X152411004Y-82884922D01*
X152411005Y-82884924D01*
X152490024Y-83032758D01*
X152538687Y-83193177D01*
X152551000Y-83318196D01*
X152551000Y-84201803D01*
X152538687Y-84326822D01*
X152490024Y-84487242D01*
X152419114Y-84619906D01*
X152411004Y-84635078D01*
X152304659Y-84764659D01*
X152175078Y-84871004D01*
X152175076Y-84871005D01*
X152027242Y-84950024D01*
X151866823Y-84998687D01*
X151700000Y-85015117D01*
X151533178Y-84998687D01*
X151372759Y-84950024D01*
X151224925Y-84871005D01*
X151224923Y-84871004D01*
X151095342Y-84764659D01*
X150988997Y-84635078D01*
X150980887Y-84619906D01*
X150909977Y-84487242D01*
X150861314Y-84326823D01*
X150849000Y-84201803D01*
X150849000Y-83318197D01*
X150861313Y-83193178D01*
X150909976Y-83032759D01*
X150988995Y-82884923D01*
X151095341Y-82755341D01*
X151106903Y-82745852D01*
X151224922Y-82648996D01*
X151240094Y-82640886D01*
X151372758Y-82569976D01*
X151533177Y-82521313D01*
X151700000Y-82504883D01*
X151866822Y-82521313D01*
X151866822Y-82521313D01*
G37*
G36*
X134086822Y-82521313D02*
G01*
X134247241Y-82569976D01*
X134395077Y-82648995D01*
X134513097Y-82745852D01*
X134524659Y-82755341D01*
X134631004Y-82884922D01*
X134631005Y-82884924D01*
X134710024Y-83032758D01*
X134758687Y-83193177D01*
X134771000Y-83318196D01*
X134771000Y-84201803D01*
X134758687Y-84326822D01*
X134710024Y-84487242D01*
X134639114Y-84619906D01*
X134631004Y-84635078D01*
X134524659Y-84764659D01*
X134395078Y-84871004D01*
X134395076Y-84871005D01*
X134247242Y-84950024D01*
X134086823Y-84998687D01*
X133920000Y-85015117D01*
X133753178Y-84998687D01*
X133592759Y-84950024D01*
X133444925Y-84871005D01*
X133444923Y-84871004D01*
X133315342Y-84764659D01*
X133208997Y-84635078D01*
X133200887Y-84619906D01*
X133129977Y-84487242D01*
X133081314Y-84326823D01*
X133069000Y-84201803D01*
X133069000Y-83318197D01*
X133081313Y-83193178D01*
X133129976Y-83032759D01*
X133208995Y-82884923D01*
X133315341Y-82755341D01*
X133326903Y-82745852D01*
X133444922Y-82648996D01*
X133460094Y-82640886D01*
X133592758Y-82569976D01*
X133753177Y-82521313D01*
X133920000Y-82504883D01*
X134086822Y-82521313D01*
X134086822Y-82521313D01*
G37*
G36*
X162248228Y-82681703D02*
G01*
X162403100Y-82745853D01*
X162542481Y-82838985D01*
X162661015Y-82957519D01*
X162754147Y-83096900D01*
X162818297Y-83251772D01*
X162851000Y-83416184D01*
X162851000Y-83583816D01*
X162818297Y-83748228D01*
X162754147Y-83903100D01*
X162661015Y-84042481D01*
X162542481Y-84161015D01*
X162403100Y-84254147D01*
X162248228Y-84318297D01*
X162083816Y-84351000D01*
X161916184Y-84351000D01*
X161751772Y-84318297D01*
X161596900Y-84254147D01*
X161457519Y-84161015D01*
X161338985Y-84042481D01*
X161245853Y-83903100D01*
X161181703Y-83748228D01*
X161149000Y-83583816D01*
X161149000Y-83416184D01*
X161181703Y-83251772D01*
X161245853Y-83096900D01*
X161338985Y-82957519D01*
X161457519Y-82838985D01*
X161596900Y-82745853D01*
X161751772Y-82681703D01*
X161916184Y-82649000D01*
X162083816Y-82649000D01*
X162248228Y-82681703D01*
X162248228Y-82681703D01*
G37*
G36*
X164748228Y-82681703D02*
G01*
X164903100Y-82745853D01*
X165042481Y-82838985D01*
X165161015Y-82957519D01*
X165254147Y-83096900D01*
X165318297Y-83251772D01*
X165351000Y-83416184D01*
X165351000Y-83583816D01*
X165318297Y-83748228D01*
X165254147Y-83903100D01*
X165161015Y-84042481D01*
X165042481Y-84161015D01*
X164903100Y-84254147D01*
X164748228Y-84318297D01*
X164583816Y-84351000D01*
X164416184Y-84351000D01*
X164251772Y-84318297D01*
X164096900Y-84254147D01*
X163957519Y-84161015D01*
X163838985Y-84042481D01*
X163745853Y-83903100D01*
X163681703Y-83748228D01*
X163649000Y-83583816D01*
X163649000Y-83416184D01*
X163681703Y-83251772D01*
X163745853Y-83096900D01*
X163838985Y-82957519D01*
X163957519Y-82838985D01*
X164096900Y-82745853D01*
X164251772Y-82681703D01*
X164416184Y-82649000D01*
X164583816Y-82649000D01*
X164748228Y-82681703D01*
X164748228Y-82681703D01*
G37*
G36*
X98748228Y-82681703D02*
G01*
X98903100Y-82745853D01*
X99042481Y-82838985D01*
X99161015Y-82957519D01*
X99254147Y-83096900D01*
X99318297Y-83251772D01*
X99351000Y-83416184D01*
X99351000Y-83583816D01*
X99318297Y-83748228D01*
X99254147Y-83903100D01*
X99161015Y-84042481D01*
X99042481Y-84161015D01*
X98903100Y-84254147D01*
X98748228Y-84318297D01*
X98583816Y-84351000D01*
X98416184Y-84351000D01*
X98251772Y-84318297D01*
X98096900Y-84254147D01*
X97957519Y-84161015D01*
X97838985Y-84042481D01*
X97745853Y-83903100D01*
X97681703Y-83748228D01*
X97649000Y-83583816D01*
X97649000Y-83416184D01*
X97681703Y-83251772D01*
X97745853Y-83096900D01*
X97838985Y-82957519D01*
X97957519Y-82838985D01*
X98096900Y-82745853D01*
X98251772Y-82681703D01*
X98416184Y-82649000D01*
X98583816Y-82649000D01*
X98748228Y-82681703D01*
X98748228Y-82681703D01*
G37*
G36*
X101248228Y-82681703D02*
G01*
X101403100Y-82745853D01*
X101542481Y-82838985D01*
X101661015Y-82957519D01*
X101754147Y-83096900D01*
X101818297Y-83251772D01*
X101851000Y-83416184D01*
X101851000Y-83583816D01*
X101818297Y-83748228D01*
X101754147Y-83903100D01*
X101661015Y-84042481D01*
X101542481Y-84161015D01*
X101403100Y-84254147D01*
X101248228Y-84318297D01*
X101083816Y-84351000D01*
X100916184Y-84351000D01*
X100751772Y-84318297D01*
X100596900Y-84254147D01*
X100457519Y-84161015D01*
X100338985Y-84042481D01*
X100245853Y-83903100D01*
X100181703Y-83748228D01*
X100149000Y-83583816D01*
X100149000Y-83416184D01*
X100181703Y-83251772D01*
X100245853Y-83096900D01*
X100338985Y-82957519D01*
X100457519Y-82838985D01*
X100596900Y-82745853D01*
X100751772Y-82681703D01*
X100916184Y-82649000D01*
X101083816Y-82649000D01*
X101248228Y-82681703D01*
X101248228Y-82681703D01*
G37*
G36*
X188276000Y-82485000D02*
G01*
X186374000Y-82485000D01*
X186374000Y-80583000D01*
X188276000Y-80583000D01*
X188276000Y-82485000D01*
X188276000Y-82485000D01*
G37*
G36*
X121248228Y-79181703D02*
G01*
X121403100Y-79245853D01*
X121542481Y-79338985D01*
X121661015Y-79457519D01*
X121754147Y-79596900D01*
X121818297Y-79751772D01*
X121851000Y-79916184D01*
X121851000Y-80083816D01*
X121818297Y-80248228D01*
X121754147Y-80403100D01*
X121661015Y-80542481D01*
X121542481Y-80661015D01*
X121403100Y-80754147D01*
X121248228Y-80818297D01*
X121083816Y-80851000D01*
X120916184Y-80851000D01*
X120751772Y-80818297D01*
X120596900Y-80754147D01*
X120457519Y-80661015D01*
X120338985Y-80542481D01*
X120245853Y-80403100D01*
X120181703Y-80248228D01*
X120149000Y-80083816D01*
X120149000Y-79916184D01*
X120181703Y-79751772D01*
X120245853Y-79596900D01*
X120338985Y-79457519D01*
X120457519Y-79338985D01*
X120596900Y-79245853D01*
X120751772Y-79181703D01*
X120916184Y-79149000D01*
X121083816Y-79149000D01*
X121248228Y-79181703D01*
X121248228Y-79181703D01*
G37*
G36*
X123748228Y-79181703D02*
G01*
X123903100Y-79245853D01*
X124042481Y-79338985D01*
X124161015Y-79457519D01*
X124254147Y-79596900D01*
X124318297Y-79751772D01*
X124351000Y-79916184D01*
X124351000Y-80083816D01*
X124318297Y-80248228D01*
X124254147Y-80403100D01*
X124161015Y-80542481D01*
X124042481Y-80661015D01*
X123903100Y-80754147D01*
X123748228Y-80818297D01*
X123583816Y-80851000D01*
X123416184Y-80851000D01*
X123251772Y-80818297D01*
X123096900Y-80754147D01*
X122957519Y-80661015D01*
X122838985Y-80542481D01*
X122745853Y-80403100D01*
X122681703Y-80248228D01*
X122649000Y-80083816D01*
X122649000Y-79916184D01*
X122681703Y-79751772D01*
X122745853Y-79596900D01*
X122838985Y-79457519D01*
X122957519Y-79338985D01*
X123096900Y-79245853D01*
X123251772Y-79181703D01*
X123416184Y-79149000D01*
X123583816Y-79149000D01*
X123748228Y-79181703D01*
X123748228Y-79181703D01*
G37*
G36*
X187602395Y-78079546D02*
G01*
X187775466Y-78151234D01*
X187775467Y-78151235D01*
X187931227Y-78255310D01*
X188063690Y-78387773D01*
X188063691Y-78387775D01*
X188167766Y-78543534D01*
X188239454Y-78716605D01*
X188276000Y-78900333D01*
X188276000Y-79087667D01*
X188239454Y-79271395D01*
X188167766Y-79444466D01*
X188116081Y-79521818D01*
X188063690Y-79600227D01*
X187931227Y-79732690D01*
X187852818Y-79785081D01*
X187775466Y-79836766D01*
X187602395Y-79908454D01*
X187418667Y-79945000D01*
X187231333Y-79945000D01*
X187047605Y-79908454D01*
X186874534Y-79836766D01*
X186797182Y-79785081D01*
X186718773Y-79732690D01*
X186586310Y-79600227D01*
X186533919Y-79521818D01*
X186482234Y-79444466D01*
X186410546Y-79271395D01*
X186374000Y-79087667D01*
X186374000Y-78900333D01*
X186410546Y-78716605D01*
X186482234Y-78543534D01*
X186586309Y-78387775D01*
X186586310Y-78387773D01*
X186718773Y-78255310D01*
X186874533Y-78151235D01*
X186874534Y-78151234D01*
X187047605Y-78079546D01*
X187231333Y-78043000D01*
X187418667Y-78043000D01*
X187602395Y-78079546D01*
X187602395Y-78079546D01*
G37*
M02*
